<?xml version="1.0" standalone="no"?>
<!DOCTYPE svg PUBLIC "-//W3C//DTD SVG 1.1//EN" "http://www.w3.org/Graphics/SVG/1.1/DTD/svg11.dtd" >
<svg xmlns="http://www.w3.org/2000/svg" xmlns:xlink="http://www.w3.org/1999/xlink" version="1.1">
<metadata>
Created by FontForge 20201107 at Mon Feb 25 03:00:00 2019
 By 
Copyright (c) 2019 by Eko Bimantara. All rights reserved.
</metadata>
<defs>
<font id="Ageo-Thin" horiz-adv-x="537" >
  <font-face 
    font-family="Ageo Thin"
    font-weight="250"
    font-stretch="normal"
    units-per-em="1000"
    panose-1="2 0 0 0 0 0 0 0 0 0"
    ascent="755"
    descent="-245"
    x-height="443"
    cap-height="694"
    bbox="-84 -250 1070 897.778"
    underline-thickness="50"
    underline-position="-225"
    unicode-range="U+000D-FB04"
  />
<missing-glyph horiz-adv-x="0" 
 />
    <glyph glyph-name="f_f" unicode="ff" horiz-adv-x="596" 
d="M579 436v-4q0 -7 -8 -7h-137v-417q0 -8 -7 -8h-4q-7 0 -7 8l-1 417h-281v-417q0 -8 -7 -8h-4q-7 0 -7 8l-1 417h-101q-8 0 -8 7v3q0 8 8 8h101v127q-1 83 25.5 123t82.5 40q52 0 94 -42q4 -4 2 -9l-4 -6q-3 -7 -10 0q-39 39 -83 39q-47 0 -67.5 -33.5t-21.5 -116.5
l1 -122h281v127q-1 83 25.5 123t82.5 40q52 0 94 -42q4 -4 2 -9l-4 -6q-3 -7 -10 0q-39 39 -83 39q-47 0 -67.5 -33.5t-21.5 -116.5l1 -122h137q8 0 8 -7z" />
    <glyph glyph-name="fi" unicode="fi" horiz-adv-x="515" 
d="M411 620l-8 -7q-5 -4 -7 3q-5 16 -20 37q-15 23 -46.5 42.5t-66.5 19.5q-68 0 -98.5 -34t-31.5 -116l1 -122h274q7 0 8 -7v-429q0 -7 -8 -7h-4q-7 0 -7 7v418h-263v-417q0 -8 -7 -8h-4q-7 0 -7 8l-1 417h-101q-8 0 -8 8v2q0 8 8 8h101v127q-1 83 34.5 123t113.5 40
q70 0 109 -46q33 -37 40 -59q2 -5 -1 -8z" />
    <glyph glyph-name="fl" unicode="fl" horiz-adv-x="515" 
d="M115 7l-1 418h-101q-7 0 -7 7v4q0 7 7 7h101v127q0 78 38 120.5t109 41.5q47 0 80 -10l28 -7q6 -2 15.5 -5.5t16.5 -5.5l7 -3q7 -1 7 -14l1 -679q0 -9 -7 -9h-3q-8 0 -8 9l-1 676q-66 30 -134 30t-99 -37t-32 -113l1 -121h139q7 0 7 -6v-6q0 -6 -7 -6h-139v-418
q0 -7 -7 -7h-4q-7 0 -7 7z" />
    <glyph glyph-name="f_f_i" unicode="ffi" horiz-adv-x="813" 
d="M223 733q52 0 94 -42q4 -4 2 -9l-4 -6q-3 -7 -10 0q-39 39 -83 39q-47 0 -67.5 -33.5t-21.5 -116.5l1 -122h279v127q-1 83 34.5 123t113.5 40q70 0 109 -46q33 -37 40 -59q2 -5 -1 -8l-8 -7q-5 -4 -7 3q-5 16 -20 37q-15 23 -46.5 42.5t-66.5 19.5q-68 0 -98.5 -34
t-31.5 -116l1 -122h274q7 0 8 -7v-429q0 -7 -8 -7h-4q-7 0 -7 7v418h-263v-417q0 -8 -7 -8h-4q-7 0 -7 8l-1 417h-279v-417q0 -8 -7 -8h-4q-7 0 -7 8l-1 417h-101q-8 0 -8 7v3q0 8 8 8h101v127q-1 83 25.5 123t82.5 40z" />
    <glyph glyph-name="f_f_l" unicode="ffl" horiz-adv-x="813" 
d="M305 676q-39 39 -83 39q-47 0 -67.5 -33.5t-21.5 -116.5l1 -122h277v127q0 77 38.5 120t108.5 42q59 0 94 -13q11 -3 32 -11l22 -7q7 -1 7 -14v-679q0 -9 -6 -9h-3q-6 0 -7 1.5t-1 5.5v2l-1 676q-66 30 -135 30q-68 0 -98.5 -37t-31.5 -113v-121h139q8 0 8 -6v-6
q0 -6 -8 -6h-139l1 -418q0 -7 -7 -7h-4q-8 0 -8 7v418h-278v-417q0 -8 -7 -8h-4q-7 0 -7 8l-1 417h-101q-8 0 -8 7v3q0 8 8 8h101v127q-1 83 25.5 123t82.5 40q52 0 94 -42q4 -4 2 -9l-4 -6q-3 -7 -10 0z" />
    <glyph glyph-name=".notdef" horiz-adv-x="0" 
 />
    <glyph glyph-name=".null" horiz-adv-x="0" 
 />
    <glyph glyph-name="nonmarkingreturn" horiz-adv-x="333" 
 />
    <glyph glyph-name="NULL" horiz-adv-x="0" 
 />
    <glyph glyph-name="NULL" horiz-adv-x="0" 
 />
    <glyph glyph-name="CR.001" unicode="&#xd;" horiz-adv-x="0" 
 />
    <glyph glyph-name="space" unicode=" " horiz-adv-x="250" 
 />
    <glyph glyph-name="exclam" unicode="!" horiz-adv-x="252" 
d="M129 188h-4q-8 0 -8 8l-2 490q0 8 8 8h7q8 -2 8 -8l-2 -490q0 -8 -7 -8zM149 45q9 -9 9 -23t-9 -23q-8 -9 -22 -9t-23 9t-9 23t9 23t23 9t22 -9z" />
    <glyph glyph-name="quotedbl" unicode="&#x22;" horiz-adv-x="401" 
d="M224 451l-4 4q-5 5 3 11q35 26 63 75q30 49 27 96q-6 -3 -14 -3q-20 0 -28 16t0 32t28 16q21 0 29 -20q20 -56 -13 -123q-32 -68 -83 -106q-3 -3 -8 2zM160 637q-6 -3 -14 -3q-20 0 -28 16t0 32t28 16q21 0 29 -20q20 -56 -13 -123q-32 -68 -83 -106q-3 -3 -8 2l-4 5
q-3 5 3 10q34 26 63 75q30 49 27 96z" />
    <glyph glyph-name="numbersign" unicode="#" horiz-adv-x="652" 
d="M44 232l2 7q2 6 12 6h113l52 197h-126q-8 0 -8 3t1 5l2 7q2 6 12 6h125l58 223q3 8 11 8h3q10 -2 8 -8l-59 -223h200l59 223q3 8 11 8h3q10 0 8 -8l-59 -223h130q10 0 7 -9l-2 -3q-5 -9 -10 -9h-131l-52 -197h143q10 0 7 -8l-3 -7q-3 -6 -12 -6h-141l-56 -214
q-3 -10 -9 -10h-8q-8 0 -5 10l57 214h-200l-57 -214q-3 -10 -9 -10h-8q-7 0 -4 10l56 214h-114q-8 0 -8 3t1 5zM192 245h201l52 197h-201z" />
    <glyph glyph-name="dollar" unicode="$" horiz-adv-x="560" 
d="M272 10v325q-120 32 -169 67q-49 37 -50 110q-1 79 60 133t159 57v31q0 8 8 8h4q7 0 9 -8v-31q119 -2 189 -66q7 -7 4 -11l-3 -8q-3 -6 -11 0q-71 63 -179 66v-333q122 -31 172 -69q48 -37 50 -106q2 -79 -56 -131q-57 -53 -166 -54v-94q0 -8 -9 -8h-4q-8 0 -8 8v94
q-140 4 -222 84q-8 6 -3 11l3 6q4 7 13 -1q74 -74 209 -80zM293 330v-320q92 2 146 44q56 44 56 111q0 66 -43 100q-42 33 -159 65zM272 356v327q-85 -1 -143 -50q-56 -48 -57 -118q0 -67 46 -98q48 -33 154 -61z" />
    <glyph glyph-name="percent" unicode="%" horiz-adv-x="810" 
d="M38 549q0 70 42 112t112 42q69 0 111 -42t42 -112q0 -69 -42 -111t-111 -42q-70 0 -112 42t-42 111zM58 549q0 -59 37 -96t96 -37q61 0 97.5 36.5t36.5 96.5q0 61 -36.5 97.5t-97.5 36.5q-60 0 -96.5 -36.5t-36.5 -97.5zM599 11q61 0 97.5 37t36.5 97t-36.5 96.5
t-97.5 36.5q-60 0 -96.5 -36.5t-36.5 -96.5t37 -97t96 -37zM446 145q0 69 42.5 111t111.5 42t111 -42t42 -111q0 -70 -42 -112t-111 -42t-111.5 42t-42.5 112zM195 11l397 704q4 7 10 7h7q11 0 5 -11l-397 -704q-4 -7 -11 -7h-8q-11 0 -3 11z" />
    <glyph glyph-name="ampersand" unicode="&#x26;" horiz-adv-x="691" 
d="M284 683q-64 0 -101 -37t-37 -102q0 -20 7 -38q13 -35 39 -66l27 -28l32 -29l29 -26l254 -236q63 97 66 249q0 8 8 8h4q8 0 8 -8q-2 -161 -71 -263l103 -97q11 -10 -4 -10h-4q-10 0 -18 7l-89 83q-79 -106 -208 -106q-121 0 -195 62t-74 163q0 69 40.5 117t111.5 66
q-20 19 -43 44q-44 50 -44 111q1 75 44 115.5t121 40.5q103 0 140 -76q4 -7 0 -12l-6 -4q-6 -4 -10 3q-38 69 -130 69zM522 104l-293 273q-66 -12 -107 -58q-42 -47 -42 -110q0 -92 68 -149q68 -56 180 -56q121 0 194 100z" />
    <glyph glyph-name="quotesingle" unicode="'" horiz-adv-x="249" 
d="M62 451l-4 4q-5 5 3 11q35 26 63 75q30 49 27 96q-6 -3 -14 -3q-20 0 -28 16t0 32t28 16q21 0 29 -20q20 -56 -13 -123q-32 -68 -83 -106q-4 -2 -8 2z" />
    <glyph glyph-name="parenleft" unicode="(" horiz-adv-x="316" 
d="M210 685q4 9 15 9h5q10 0 5 -9q-119 -204 -118 -419q-2 -221 117 -418q5 -8 -4 -8h-8q-8 0 -12 9q-27 41 -65 137q-49 123 -49 280q0 217 114 419z" />
    <glyph glyph-name="parenright" unicode=")" horiz-adv-x="316" 
d="M87 694h4q11 0 16 -9q114 -202 114 -419q0 -157 -49 -280q-38 -96 -65 -137q-5 -9 -11 -9h-9q-8 0 -5 8q120 190 118 418q1 215 -118 419q-4 9 5 9z" />
    <glyph glyph-name="asterisk" unicode="*" horiz-adv-x="509" 
d="M361 347l-106 129l-105 -129q-5 -5 -12 1l-4 3q-6 7 -2 11l105 125l-145 81q-8 5 -2 13l3 4q5 7 12 3l139 -83l-3 179q0 8 10 8h9q9 0 9 -8l-2 -179l139 83q8 4 12 -3l2 -4q4 -8 -1 -13l-145 -81l104 -125q4 -4 -2 -11l-3 -3q-7 -7 -12 -1z" />
    <glyph glyph-name="plus" unicode="+" horiz-adv-x="549" 
d="M277 73h-4q-8 0 -8 8v201h-201q-8 0 -8 5v4q0 11 8 11h201v200q0 8 8 8h4q8 0 8 -8v-200h200q8 0 8 -8v-4q0 -8 -8 -8h-200v-201q0 -8 -8 -8z" />
    <glyph glyph-name="comma" unicode="," horiz-adv-x="258" 
d="M61 -152l-4 4q-5 4 2 11q32 24 64 76q30 49 27 95q-6 -3 -15 -3q-19 0 -27 16t0 32t27 16q22 0 30 -20q20 -56 -13 -123q-32 -68 -83 -106q-4 -2 -8 2z" />
    <glyph glyph-name="hyphen" unicode="-" horiz-adv-x="397" 
d="M56 292v4q0 8 7 8h270q8 0 8 -8v-4q0 -8 -8 -8h-269q-8 0 -8 8z" />
    <glyph glyph-name="period" unicode="." horiz-adv-x="263" 
d="M108 10q-9 9 -9 23t9 23t23 9t23 -9q10 -9 10 -23t-10 -23q-9 -9 -23 -9t-23 9z" />
    <glyph glyph-name="slash" unicode="/" horiz-adv-x="368" 
d="M21 8l304 706q5 8 11 8h5q9 0 6 -8l-304 -706q-3 -8 -10 -8h-8q-7 0 -4 8z" />
    <glyph glyph-name="zero" unicode="0" horiz-adv-x="597" 
d="M540 347q0 -161 -66 -259q-66 -97 -175 -97q-108 0 -176 98q-66 97 -66 258t66 258q68 98 176 98q109 0 175 -98q66 -97 66 -258zM138 590q-61 -91 -61 -243t61 -244q62 -92 161 -92q100 0 160 92q61 91 61 244t-61 244q-60 92 -160 92q-99 0 -161 -93z" />
    <glyph glyph-name="one" unicode="1" horiz-adv-x="312" 
d="M88 682v4q2 8 8 8h118q10 -1 10 -11v-675q0 -8 -7 -8h-5q-8 0 -8 8v666h-108q-8 0 -8 8z" />
    <glyph glyph-name="two" unicode="2" horiz-adv-x="549" 
d="M438 391l-15 -17l-63 -72l-139 -159l-106 -123h369q8 0 8 -6v-8q0 -6 -8 -6h-386h-4h-6q-15 0 -6 12q34 43 106 125q65 76 154 176l70 80l13 17q7 8 22 43q14 34 14 63q0 75 -45.5 121t-120.5 46q-49 0 -94.5 -22t-75.5 -61q-5 -8 -10 -1l-4 5q-5 8 1 13q72 86 183 86
q84 0 135 -52q52 -51 51 -135q0 -34 -13.5 -69.5t-29.5 -55.5z" />
    <glyph glyph-name="three" unicode="3" horiz-adv-x="545" 
d="M226 369l53 -1q77 -1 122 39t45 109q0 75 -45.5 121t-120.5 46q-100 0 -169 -82q-6 -8 -11 -2l-5 6q-5 5 1 11q73 87 184 87q84 0 135 -51.5t51 -135.5q0 -125 -112 -157q64 -16 99 -58.5t35 -105.5q0 -95 -60 -153q-58 -58 -156 -58q-93 0 -152 53q-58 54 -63 141
q0 8 7 8h6q5 0 7 -8q5 -79 58.5 -126.5t136.5 -47.5q89 0 142.5 52.5t53.5 138.5q0 67 -48 109.5t-127 44.5h-67q-8 0 -8 7v7q0 6 8 6z" />
    <glyph glyph-name="four" unicode="4" horiz-adv-x="612" 
d="M460 184h87q8 0 8 -6v-8q0 -6 -8 -6h-87v-156q0 -8 -7 -8h-6q-7 0 -7 8v156h-359h-2h-7q-14 0 -7 13l354 508q5 9 15 9h16q10 0 10 -11v-499zM440 184v497l-345 -497h345z" />
    <glyph glyph-name="five" unicode="5" horiz-adv-x="545" 
d="M433 674h-299l-23 -326q64 76 155 76q100 0 161 -61q61 -60 61 -158q0 -99 -60 -161q-58 -60 -156 -60q-93 0 -152 53q-58 54 -63 141q0 8 6 8h8q7 0 7 -8q5 -81 57.5 -127.5t136.5 -46.5q88 0 142 55t54 146q0 88 -56 144q-55 55 -147 55q-49 1 -97 -32q-9 -5 -32 -28
l-15 -16l-12 -13h-10q-10 0 -10 10l25 358q2 12 12 11h307q8 0 8 -8v-3q0 -9 -8 -9z" />
    <glyph glyph-name="six" unicode="6" horiz-adv-x="539" 
d="M482 201q0 -96 -58 -154t-154 -58t-154 58q-59 59 -59 154q0 49 16 88l183 399q3 6 9 6h8q9 0 2 -13l-146 -317q59 47 141 47q96 0 154 -57t58 -153zM462 201q0 84 -53 137t-139 53q-84 0 -139 -53q-54 -52 -54 -137q0 -86 53 -139t140 -53q86 0 139 53t53 139z" />
    <glyph glyph-name="seven" unicode="7" horiz-adv-x="483" 
d="M37 694h406q13 0 9 -15l-253 -670q-3 -9 -10 -9h-7q-7 0 -4 9l251 665h-392q-8 0 -8 7v6q0 7 8 7z" />
    <glyph glyph-name="eight" unicode="8" horiz-adv-x="561" 
d="M280 703q84 0 135.5 -48.5t51.5 -128.5q0 -54 -31 -96.5t-85 -61.5q70 -16 111 -64t42 -115q1 -89 -61 -145q-61 -54 -163 -54q-100 0 -162 54q-61 55 -61 145q0 66 41 114t112 65q-54 19 -85 61.5t-31 96.5q0 78 51 128q52 49 135 49zM484 190q0 74 -57 120
q-56 47 -146 47t-148 -47q-56 -47 -56 -120q0 -81 56 -131q55 -49 148 -49q92 0 147 49q56 50 56 131zM114 526q0 -62 47 -106q46 -43 120 -43q73 0 119 43q47 44 47 106q0 71 -45.5 114t-120.5 43t-121 -43t-46 -114z" />
    <glyph glyph-name="nine" unicode="9" horiz-adv-x="539" 
d="M456 379l-175 -372q-3 -7 -11 -7h-6q-10 0 -3 13l147 312q-58 -44 -139 -44q-96 0 -154 58t-58 152q0 95 58 153q59 59 154 59t154 -59t59 -153q0 -51 -26 -112zM269 301q88 0 140 52q53 53 53 139q0 85 -53 138t-140 53q-86 0 -139 -53t-53 -138q0 -86 53 -139
q52 -52 139 -52z" />
    <glyph glyph-name="colon" unicode=":" horiz-adv-x="238" 
d="M119 474q31 0 31 -31t-31 -31q-20 0 -28 15.5t0 31t28 15.5zM119 53q31 0 31 -31q0 -21 -19 -29t-35 7q-15 14 -6.5 33.5t29.5 19.5z" />
    <glyph glyph-name="semicolon" unicode=";" horiz-adv-x="255" 
d="M106 420q-9 9 -9 23t9 22q9 9 23 9t23 -9q9 -8 9 -22t-9 -23q-9 -8 -23 -8t-23 8zM65 -152l-3 4q-5 7 2 11q33 25 63 76q30 49 27 95q-6 -3 -14 -3q-20 0 -28 16t0 32t28 16q22 0 30 -20q20 -56 -13 -123q-33 -68 -84 -106q-3 -3 -8 2z" />
    <glyph glyph-name="less" unicode="&#x3c;" horiz-adv-x="539" 
d="M38 298v10q0 8 9 12l444 219q10 4 10 -4v-8q0 -8 -10 -12l-444 -213l444 -222q10 -4 10 -11v-8q0 -8 -10 -4l-444 228q-9 5 -9 13z" />
    <glyph glyph-name="equal" unicode="=" horiz-adv-x="524" 
d="M440 379h-356q-8 0 -8 7v6q0 7 8 7h356q8 0 8 -7v-6q0 -7 -8 -7zM440 214h-356q-8 0 -8 7v6q0 7 8 7h356q8 0 8 -7v-6q0 -7 -8 -7z" />
    <glyph glyph-name="greater" unicode="&#x3e;" horiz-adv-x="539" 
d="M47 80l445 222l-445 213q-9 5 -9 12v8q0 9 9 4l444 -219q10 -4 10 -12v-10q0 -9 -10 -13l-444 -228q-9 -5 -9 4v8q0 7 9 11z" />
    <glyph glyph-name="question" unicode="?" horiz-adv-x="526" 
d="M430 516q-1 75 -47 121t-121 46q-106 0 -170 -82q-4 -8 -10 -2l-4 4q-6 6 -1 12q73 88 184 88q84 0 136 -52q53 -51 53 -135q0 -51 -19.5 -90.5t-47.5 -64.5t-56 -47.5t-49.5 -53t-23.5 -67.5q0 -8 -7 -8h-6q-7 0 -7 8q4 73 72 130q63 50 83 75q42 51 41 118zM279 23
q0 -14 -9 -23.5t-23 -9.5q-15 0 -24 9.5t-9 23.5q0 15 9 24t24 9q14 0 23 -9t9 -24z" />
    <glyph glyph-name="at" unicode="@" horiz-adv-x="906" 
d="M849 333q0 -85 -42 -141q-41 -56 -108 -57q-87 0 -105 84q-19 -49 -60 -76.5t-97 -27.5q-79 0 -129 53q-48 53 -50 140q0 87 49 139q50 53 130 53q109 0 152 -93v68q0 6 6 6h9q5 0 5 -6v-204q0 -116 90 -116q58 0 94 49.5t36 128.5q0 157 -98 253q-97 97 -258 97
q-178 0 -287 -103t-109 -270q0 -168 109 -271q110 -102 287 -102q151 0 243 92q7 7 12 2l4 -5q5 -5 -2 -12q-100 -97 -257 -97q-187 0 -302 108q-114 108 -114 284q0 177 114 285q115 109 302 109q167 0 271 -102q105 -102 105 -268zM442 135q71 0 109 50q38 52 38 125
q0 70 -39 120t-108 50q-74 0 -119 -47.5t-45 -125.5q0 -77 45 -124.5t119 -47.5z" />
    <glyph glyph-name="A" unicode="A" horiz-adv-x="645" 
d="M607 5l-102 239h-365l-102 -237q-1 -7 -7 -7h-11q-8 0 -3 11l287 673q4 9 10 9h16q8 2 11 -9l287 -673q4 -12 -2 -12h-11q-5 0 -8 6zM497 264l-175 409l-174 -409h349z" />
    <glyph glyph-name="B" unicode="B" horiz-adv-x="612" 
d="M341 370l-221 -1v-350l212 1q94 0 152 49t58 128q0 73 -56 123t-145 50zM308 388q85 0 137 43q54 43 54 106q0 61 -56 99t-148 38h-175v-287h94q52 1 94 1zM111 694h185q99 0 160 -43q62 -44 63 -113q1 -57 -35 -97t-102 -58q84 -14 131.5 -62.5t48.5 -123.5
q1 -87 -62 -143q-63 -54 -167 -54h-223q-10 0 -10 10v673q0 11 11 11z" />
    <glyph glyph-name="C" unicode="C" horiz-adv-x="703" 
d="M653 82q-97 -92 -249 -92q-159 0 -257 98q-97 98 -97 258t98 258q98 99 256 99q149 0 249 -94q6 -6 0 -11l-4 -4q-4 -4 -11 1q-100 88 -234 88q-151 0 -242 -93q-92 -94 -92 -244t92 -244q92 -92 242 -92q134 0 235 87q7 5 11 1l6 -5q5 -4 -3 -11z" />
    <glyph glyph-name="D" unicode="D" horiz-adv-x="693" 
d="M288 674h-168v-654h168q152 0 243 90q93 90 93 237q-2 147 -93 237t-243 90zM288 0h-178q-10 0 -10 10v674q0 10 10 10h178q160 0 257 -96q98 -95 98 -251q1 -155 -97 -252q-98 -95 -258 -95z" />
    <glyph glyph-name="E" unicode="E" horiz-adv-x="528" 
d="M424 343h-304v-323h362q8 0 8 -6v-7q0 -7 -8 -7h-372q-10 0 -10 10v674q0 10 10 10h362q8 0 8 -7v-7q0 -6 -8 -6h-352v-311h304q9 0 9 -6v-8q0 -6 -9 -6z" />
    <glyph glyph-name="F" unicode="F" horiz-adv-x="509" 
d="M425 344h-305v-335q0 -9 -7 -9h-6q-7 0 -7 9v674q0 11 11 11h362q8 0 8 -8v-4q0 -8 -9 -8h-352v-310h305q8 0 8 -8v-4q0 -8 -8 -8z" />
    <glyph glyph-name="G" unicode="G" horiz-adv-x="765" 
d="M696 328h-281q-8 0 -8 8v4q0 8 8 8h291q9 0 9 -9q-2 -169 -85.5 -259t-237.5 -89q-153 0 -248 98q-94 97 -94 258q0 160 98 258t258 98q148 0 246 -92q8 -6 2 -11l-5 -5q-5 -6 -12 1q-97 87 -230 87q-152 0 -245 -93q-92 -92 -92 -243q0 -152 88 -244q89 -92 235 -92
q143 0 220.5 81.5t82.5 235.5z" />
    <glyph glyph-name="H" unicode="H" horiz-adv-x="678" 
d="M112 0h-4q-8 0 -8 8v678q0 8 8 8h5q7 0 7 -8v-321h438v321q0 8 8 8h5q7 0 7 -8v-678q0 -8 -8 -8h-4q-8 0 -8 8v337h-438v-337q0 -8 -8 -8z" />
    <glyph glyph-name="I" unicode="I" horiz-adv-x="220" 
d="M120 686v-679q0 -7 -8 -7h-4q-8 0 -8 7v679q0 8 8 8h4q8 0 8 -8z" />
    <glyph glyph-name="J" unicode="J" horiz-adv-x="388" 
d="M268 153l-1 533q0 8 8 8h4q8 0 8 -8l1 -529q2 -74 -35.5 -120t-99.5 -47q-71 2 -135 58q-5 3 -2 9l4 6q5 5 10 1q66 -52 125 -54q49 0 80 39t33 104z" />
    <glyph glyph-name="K" unicode="K" horiz-adv-x="538" 
d="M120 686v-332l345 334q7 6 13 6h10q14 0 4 -10l-351 -337l379 -337q11 -10 -3 -10h-11q-8 0 -13 5l-373 335v-333q0 -7 -8 -7h-4q-8 0 -8 7v679q0 8 8 8h4q8 0 8 -8z" />
    <glyph glyph-name="L" unicode="L" horiz-adv-x="458" 
d="M120 686v-666h300q9 0 9 -8v-5q0 -7 -8 -7h-313q-8 0 -8 8v678q0 8 8 8h4q8 0 8 -8z" />
    <glyph glyph-name="M" unicode="M" horiz-adv-x="878" 
d="M108 694h8q5 0 10 -8l309 -561l317 562q4 7 11 7h7q8 0 8 -9v-677q0 -8 -7 -8h-6q-7 0 -7 9v647l-310 -544q-4 -6 -9 -8h-7q-6 1 -10 7l-302 543v-645q0 -9 -7 -9h-6q-7 0 -7 8v677q0 9 8 9z" />
    <glyph glyph-name="N" unicode="N" horiz-adv-x="739" 
d="M627 694h5q7 0 7 -8v-676q0 -10 -10 -10h-12q-7 0 -12 6l-485 658v-656q0 -8 -8 -8h-4q-8 0 -8 8v676q0 10 10 10h8q8 0 12 -7l489 -664v663q0 8 8 8z" />
    <glyph glyph-name="O" unicode="O" horiz-adv-x="812" 
d="M762 347q0 -161 -98 -259q-97 -97 -258 -97q-160 0 -258 98t-98 258t98 258t258 98t258 -98t98 -258zM742 347q1 151 -92 243q-92 93 -243 93q-152 0 -245 -93q-92 -92 -92 -243t93 -244q94 -92 244 -92q151 0 243 92q92 94 92 244z" />
    <glyph glyph-name="P" unicode="P" horiz-adv-x="580" 
d="M307 299h-187v-291q0 -8 -8 -8h-4q-8 0 -8 8v675q0 11 10 11h197q99 0 161 -54q60 -53 62 -143q-2 -89 -62 -144q-62 -54 -161 -54zM120 673v-354h189q89 0 145 48q55 49 55 129q0 81 -55 130t-145 48z" />
    <glyph glyph-name="Q" unicode="Q" horiz-adv-x="812" 
d="M539 12l197 -114q8 -5 3 -11l-5 -6q-4 -6 -12 0l-209 123q-46 -13 -107 -13q-160 0 -258 98t-98 258t98 258t258 98t258 -98t98 -258q0 -123 -59 -211.5t-164 -123.5zM742 347q1 151 -92 243q-92 93 -243 93q-152 0 -245 -93q-92 -92 -92 -243t93 -244q94 -92 244 -92
q151 0 243 92q92 94 92 244z" />
    <glyph glyph-name="R" unicode="R" horiz-adv-x="569" 
d="M481 5l-189 294h-171v-291q0 -8 -8 -8h-5q-8 0 -8 8v676q0 10 10 10h196q100 0 161 -54q62 -54 62 -143q0 -87 -58.5 -141t-154.5 -57l186 -289q6 -10 -3 -10h-10q-5 0 -8 5zM308 674l-187 -1v-354h187q90 0 146 48q55 49 55 129q0 81 -55 130t-146 48z" />
    <glyph glyph-name="S" unicode="S" horiz-adv-x="571" 
d="M55 74q-8 6 -3 11l3 6q5 7 13 -1q83 -80 227 -80q93 0 148 43q57 43 57 112t-48 103q-47 35 -179 68q-121 32 -167 66q-46 36 -48 110q-1 82 64 137q66 55 168 54q127 -1 197 -67q7 -7 4 -11l-3 -8q-3 -6 -11 0q-77 66 -191 66q-89 0 -149 -48q-59 -48 -60 -120
q0 -71 51 -102q55 -33 179 -65q114 -30 163 -68q48 -37 50 -105q3 -80 -57 -133q-61 -53 -174 -52q-63 0 -118 18q-77 27 -116 66z" />
    <glyph glyph-name="T" unicode="T" horiz-adv-x="533" 
d="M257 7v667h-240q-8 0 -8 8v4q0 8 8 8h498q9 0 9 -8v-4q0 -8 -9 -8h-238v-667q0 -7 -8 -7h-4q-8 0 -8 7z" />
    <glyph glyph-name="U" unicode="U" horiz-adv-x="694" 
d="M100 272v413q0 8 8 8h4q8 0 8 -8v-414q0 -116 62 -189q63 -71 166 -71q101 0 163 71q62 73 62 189v415q0 7 9 7h4q8 0 8 -7v-415q0 -126 -68 -203t-179 -77q-111 -1 -179 76q-68 79 -68 205z" />
    <glyph glyph-name="V" unicode="V" horiz-adv-x="615" 
d="M291 9l-270 672q-5 12 3 12h9q8 0 9 -7l266 -663l264 663q4 7 9 7h9q8 0 3 -12l-269 -672q-3 -9 -11 -9h-11q-8 0 -11 9z" />
    <glyph glyph-name="W" unicode="W" horiz-adv-x="847" 
d="M605 8l-181 648l-181 -648q-3 -8 -9 -8h-11q-10 0 -13 8l-189 674q-3 12 5 12h7q5 0 8 -6l185 -663l185 662q1 7 8 7h8q8 0 9 -7l186 -662l184 662q1 7 8 7h7q9 0 5 -12l-189 -674q-2 -8 -12 -8h-7q-8 0 -13 8z" />
    <glyph glyph-name="X" unicode="X" horiz-adv-x="554" 
d="M34 0h-6q-12 0 -6 9l238 336l-231 340q-5 9 5 9h9q7 0 11 -6l218 -326l236 326q5 5 12 5h6q12 0 7 -8l-248 -341l228 -336q5 -8 -6 -8h-8q-5 0 -10 6l-217 321l-226 -321q-3 -6 -12 -6z" />
    <glyph glyph-name="Y" unicode="Y" horiz-adv-x="529" 
d="M251 8v273l-229 403q-6 9 7 9h5q7 0 12 -8l215 -379l223 379q5 8 11 8h10q6 0 2 -10l-237 -401v-275q0 -7 -7 -7h-4q-8 0 -8 8z" />
    <glyph glyph-name="Z" unicode="Z" horiz-adv-x="564" 
d="M520 677l-458 -657h464q8 0 8 -8v-4q0 -8 -8 -8h-484q-19 0 -9 16l457 657h-441q-8 0 -8 7v6q0 7 8 7h462q19 0 9 -16z" />
    <glyph glyph-name="bracketleft" unicode="[" horiz-adv-x="332" 
d="M96 674v-816h171q8 0 8 -7v-6q0 -7 -8 -7l-181 1q-10 0 -10 9v836q0 10 10 10h181q8 0 8 -7v-6q0 -7 -8 -7h-171z" />
    <glyph glyph-name="backslash" unicode="\" horiz-adv-x="369" 
d="M27 722h8q5 0 6 -6l305 -704q8 -12 -2 -12h-9q-7 0 -8 7l-305 704q-5 11 5 11z" />
    <glyph glyph-name="bracketright" unicode="]" horiz-adv-x="332" 
d="M65 -142h171v816h-171q-8 0 -8 7v6q0 7 8 7h181q10 0 10 -10v-836q0 -9 -10 -9l-181 -1q-8 0 -8 7v6q0 7 8 7z" />
    <glyph glyph-name="asciicircum" unicode="^" horiz-adv-x="562" 
d="M62 270l199 414q5 9 14 9h12q9 0 14 -9l199 -414q5 -11 -3 -11h-9q-6 0 -9 6l-198 415l-198 -415q-3 -6 -9 -6h-8q-9 0 -4 11z" />
    <glyph glyph-name="underscore" unicode="_" horiz-adv-x="581" 
d="M65 -114h451q8 0 8 -7v-6q0 -7 -8 -7h-451q-8 0 -8 8v4q0 8 8 8z" />
    <glyph glyph-name="grave" unicode="`" horiz-adv-x="252" 
d="M194 564l-151 111q-6 5 -1 13l9 12q5 6 11 0l148 -122q2 -2 0 -10l-5 -5q-6 -4 -11 1z" />
    <glyph glyph-name="a" unicode="a" horiz-adv-x="577" 
d="M482 316v120q0 8 7 8h4q7 0 7 -8v-429q0 -7 -8 -7h-3q-7 0 -7 7v120q-25 -64 -81 -100.5t-133 -36.5q-103 0 -167 64q-63 64 -63 168q0 102 63 167q64 64 167 64q77 0 133.5 -36.5t80.5 -100.5zM268 8q97 0 155 58q59 59 59 156q0 95 -59 154t-155 59q-95 0 -154 -59
q-58 -58 -58 -154q0 -97 58 -155q59 -59 154 -59z" />
    <glyph glyph-name="b" unicode="b" horiz-adv-x="587" 
d="M98 0h-2q-8 0 -8 7v707q0 8 6 8h5q6 0 6 -8l1 -398q24 64 80 100.5t133 36.5q103 0 167 -64q64 -63 64 -167t-64 -168t-167 -64q-76 0 -132.5 36.5t-80.5 100.5v-120q0 -7 -8 -7zM106 225q0 -99 58 -158q59 -59 155 -59q95 0 154 59t59 155q0 95 -59 154t-154 59
q-97 0 -155 -58q-58 -57 -58 -152z" />
    <glyph glyph-name="c" unicode="c" horiz-adv-x="498" 
d="M460 85q-63 -95 -192 -95q-103 0 -167 64q-63 64 -63 168q0 108 68 170q66 60 161 62q59 1 111 -24.5t82 -71.5q5 -8 1 -12l-4 -4q-6 -4 -11 4q-64 90 -178 90q-95 0 -154 -59q-58 -58 -58 -155t58 -155q59 -59 154 -59q60 -1 106.5 24t71.5 66q6 8 10 4l5 -5
q4 -4 -1 -12z" />
    <glyph glyph-name="d" unicode="d" horiz-adv-x="588" 
d="M268 -10q-103 0 -167 64q-63 64 -63 168q0 102 63 167q64 64 167 64q77 0 133 -36.5t81 -100.5v398q0 8 7 8h4q7 0 7 -8v-707q0 -7 -8 -7h-3q-7 0 -7 7v120q-25 -64 -81.5 -100.5t-132.5 -36.5zM482 225q0 95 -59 152q-58 58 -155 58q-95 0 -154 -59q-58 -58 -58 -154
q0 -97 58 -155q59 -59 154 -59q96 0 155 59q59 61 59 158z" />
    <glyph glyph-name="e" unicode="e" 
d="M56 231h425q-3 93 -61 148q-59 56 -152 56q-92 0 -151 -56q-58 -55 -61 -148zM489 213h-433q3 -92 64 -149q62 -56 159 -56q105 0 166 66q6 8 11 3l5 -5q5 -4 -2 -11q-65 -71 -180 -71q-108 0 -175 64q-66 64 -66 168q0 102 63 167q64 64 167 64t166 -64q63 -62 65 -167
q0 -9 -10 -9z" />
    <glyph glyph-name="f" unicode="f" horiz-adv-x="298" 
d="M271 425h-137v-417q0 -8 -7 -8h-4q-7 0 -7 8l-1 417h-101q-8 0 -8 7v3q0 8 8 8h101v127q-1 83 25.5 123t82.5 40q52 0 94 -42q4 -4 2 -9l-4 -6q-3 -7 -10 0q-39 39 -83 39q-47 0 -67.5 -33.5t-21.5 -116.5l1 -122h137q8 0 8 -7v-4q0 -7 -8 -7z" />
    <glyph glyph-name="g" unicode="g" horiz-adv-x="577" 
d="M268 453q78 0 135.5 -38t80.5 -105v126q0 7 7 7h3q8 0 8 -7l1 -442q0 -102 -61 -166q-62 -65 -153 -65q-94 1 -194 55q-5 3 -2 8l3 6q3 4 8 2l19 -9q18 -10 42 -20t52 -15q31 -8 72 -9q84 0 139 58q56 59 57 150v145q-23 -67 -81 -105.5t-136 -38.5q-103 0 -167 64
q-63 64 -63 168q0 102 63 167q64 64 167 64zM268 8q97 0 156 59q60 59 60 155t-60 154q-61 59 -156 59t-154 -59q-58 -58 -58 -154q0 -97 58 -155q59 -59 154 -59z" />
    <glyph glyph-name="h" unicode="h" horiz-adv-x="546" 
d="M88 7v707q0 8 7 8h4q7 0 7 -7v-402q18 66 63.5 103t112.5 37q85 0 131 -50t46 -148l1 -247q0 -8 -6 -8h-6q-6 0 -6 8v248q0 86 -41.5 132.5t-118.5 46.5q-74 0 -123 -54q-49 -55 -53 -142v-232q0 -7 -6 -7h-5q-7 0 -7 7z" />
    <glyph glyph-name="i" unicode="i" horiz-adv-x="198" 
d="M108 436v-429q0 -7 -7 -7h-4q-7 0 -7 7v429q0 7 8 7h4q6 0 6 -7zM74 588q-9 10 -9 25t9 24q10 9 25 9t24 -9t9 -24t-9 -25q-9 -9 -24 -9t-25 9z" />
    <glyph glyph-name="j" unicode="j" horiz-adv-x="233" 
d="M108 588q-9 10 -9 25t9 24t24 9t24 -9t9 -24t-9 -25q-9 -9 -24 -9t-24 9zM127 -73v508q0 8 7 8h4q6 0 6 -8l1 -510q1 -163 -107 -163q-59 2 -103 31q-7 5 -3 12l3 5q1 4 11 -1q44 -29 90 -29q50 0 70.5 35.5t20.5 111.5z" />
    <glyph glyph-name="k" unicode="k" horiz-adv-x="409" 
d="M345 443h10q15 0 4 -9l-240 -198l272 -230q4 -4 -4 -6h-13q-4 0 -12 5l-257 219v-217q0 -7 -7 -7h-3q-7 0 -7 7v708q0 7 8 7h2q7 0 7 -7v-466l228 189q8 5 12 5z" />
    <glyph glyph-name="l" unicode="l" horiz-adv-x="198" 
d="M108 715v-708q0 -7 -7 -7h-4q-7 0 -7 7v708q0 7 6 7h6q6 0 6 -7z" />
    <glyph glyph-name="m" unicode="m" horiz-adv-x="827" 
d="M95 443h4q7 0 7 -7v-119q16 64 56.5 100t100.5 36q138 0 157 -151q15 71 55.5 111t104.5 40q76 0 118 -50t42 -148v-248q0 -7 -7 -7h-4q-7 0 -7 7v249q0 86 -36.5 132.5t-105.5 46.5q-71 0 -114 -61t-43 -152v-214q0 -8 -6 -8h-6q-6 0 -6 8v248q0 86 -36.5 132.5
t-105.5 46.5q-65 0 -109 -56q-44 -55 -48 -141l1 -231q0 -7 -7 -7h-5q-7 0 -7 7v429q0 7 7 7z" />
    <glyph glyph-name="n" unicode="n" horiz-adv-x="546" 
d="M88 7v429q0 7 7 7h4q7 0 7 -7v-123q18 67 63 103.5t113 36.5q85 0 131.5 -50t46.5 -148v-247q0 -8 -7 -8h-4q-7 0 -7 8v248q0 86 -41.5 132.5t-118.5 46.5q-73 0 -123 -56q-48 -56 -53 -142l1 -230q0 -7 -7 -7h-4q-8 0 -8 7z" />
    <glyph glyph-name="o" unicode="o" 
d="M38 222q0 102 63 167q64 64 167 64q104 0 167 -64q64 -63 64 -167t-64 -168t-167 -64t-167 64q-63 64 -63 168zM56 222q0 -98 58 -156t154 -58t154 58q59 59 59 156q0 95 -59 154t-154 59t-154 -59q-58 -58 -58 -154z" />
    <glyph glyph-name="p" unicode="p" horiz-adv-x="587" 
d="M99 -228h-4q-7 0 -7 8v656q0 7 8 7h3q7 0 7 -7v-124q23 66 80 103.5t135 37.5q103 0 166 -64q64 -63 64 -167t-64 -168q-63 -64 -166 -64q-78 0 -135 38t-80 104l-1 -353q0 -7 -6 -7zM106 223q0 -97 59 -156t156 -59q95 0 154 59t58 155q0 95 -59 154t-153 59
q-98 0 -156 -58q-59 -59 -59 -154z" />
    <glyph glyph-name="q" unicode="q" horiz-adv-x="589" 
d="M501 436v-656q0 -8 -7 -8h-4q-7 0 -7 7v353q-23 -66 -80 -104t-135 -38q-103 0 -167 64t-64 168t63 167q64 64 168 64q78 0 134.5 -37.5t80.5 -103.5v124q0 7 8 7h2q8 0 8 -7zM268 8q97 0 156 59t59 155q0 95 -59 154t-156 59q-96 0 -155 -59q-58 -58 -58 -154
q0 -97 58 -155q59 -59 155 -59z" />
    <glyph glyph-name="r" unicode="r" horiz-adv-x="357" 
d="M321 422q-32 12 -71 12q-45 0 -85.5 -35t-58.5 -94l-1 -298q0 -7 -4 -7h-7q-6 0 -6 7v429q0 7 7 7h4q7 0 7 -7v-88q21 47 59.5 75t87.5 29q36 0 75 -12q7 -3 4 -8l-4 -7q-1 -6 -7 -3z" />
    <glyph glyph-name="s" unicode="s" horiz-adv-x="420" 
d="M49 40q-4 4 -3 10l3 6q3 6 9 1q1 0 9.5 -6.5t13.5 -9t16 -8.5t21.5 -9.5t24.5 -7t31 -5.5t36 -2q63 0 105 29.5t42 71.5q0 37 -27 60q-9 9 -35 19q-32 13 -93 29q-84 21 -114 43q-32 23 -33 67q-2 56 43 91.5t118 34.5q78 0 131 -42q5 -5 4 -11l-2 -5q-3 -4 -9 -1l-8 5
q-23 15 -44 23q-39 13 -76 13q-63 0 -101 -28t-38 -74q0 -43 30 -61t111 -39l12 -3q78 -21 113 -45q34 -22 36 -73q1 -52 -46 -88q-48 -35 -123 -34q-96 0 -157 49z" />
    <glyph glyph-name="t" unicode="t" horiz-adv-x="349" 
d="M157 425l-1 -266q2 -150 84 -150q37 0 70 33q5 5 8 0l5 -6q4 -4 -4 -11q-40 -34 -83 -34q-48 0 -73 43t-24 119v272h-101q-8 0 -8 7v4q0 7 8 7h101l1 156q0 8 7 8h3q7 0 7 -8v-156h138q9 0 9 -7v-4q0 -7 -9 -7h-138z" />
    <glyph glyph-name="u" unicode="u" horiz-adv-x="548" 
d="M442 7v123q-18 -66 -63.5 -103t-112.5 -37q-85 0 -131.5 50t-46.5 148v247q0 4 1.5 6.5t5.5 1.5h5q6 0 6 -8v-247q0 -87 41.5 -133.5t118.5 -46.5q74 0 122 56q49 55 54 142l-1 230q0 9 8 7h4q7 0 7 -7v-429q0 -7 -7 -7h-4q-7 0 -7 7z" />
    <glyph glyph-name="v" unicode="v" horiz-adv-x="478" 
d="M457 435l-201 -426q-4 -9 -10 -9h-14q-7 0 -10 9l-201 425q-5 9 3 9h10q4 0 8 -6l197 -423l197 424q3 5 8 5h10q6 0 3 -8z" />
    <glyph glyph-name="w" unicode="w" horiz-adv-x="657" 
d="M41 435l145 -420l130 421q1 7 8 7h9q5 0 8 -7l129 -421l146 420q3 8 8 8h8q8 0 3 -11l-149 -424q-2 -8 -13 -8h-6q-11 0 -13 8l-126 402l-125 -402q-3 -8 -14 -8h-7q-7 0 -12 8l-149 424q-3 11 4 11h8q6 0 8 -8z" />
    <glyph glyph-name="x" unicode="x" horiz-adv-x="397" 
d="M194 207l-149 -201q-5 -6 -11 -6h-7q-11 0 -4 10l162 211l-160 215q-4 7 2 7h12q4 0 9 -5l148 -202l152 199q6 8 13 8h8q10 0 3 -10l-166 -211l163 -213q6 -9 -2 -9h-11q-9 0 -10 4z" />
    <glyph glyph-name="y" unicode="y" horiz-adv-x="432" 
d="M400 443h6q8 0 2 -13l-270 -649q-4 -9 -10 -9h-5q-8 0 -2 13l92 224l-190 421q-7 13 4 13h6q5 0 9 -9l180 -405l167 405q5 9 11 9z" />
    <glyph glyph-name="z" unicode="z" horiz-adv-x="455" 
d="M398 0h-336q-19 0 -9 16l319 409h-305q-7 0 -7 6v6q0 6 7 6h325q20 0 6 -17l-319 -408h319q7 0 7 -6v-6q0 -6 -7 -6z" />
    <glyph glyph-name="braceleft" unicode="{" horiz-adv-x="361" 
d="M83 279q31 0 50 31t19 85v164q0 134 100 134h44q8 0 8 -7v-6q0 -7 -8 -7h-42q-82 0 -82 -114v-160q0 -109 -58 -134q58 -25 58 -134v-160q-2 -113 82 -113h41q8 0 8 -7v-7q0 -5 -1 -6t-7 -1h-43q-100 0 -100 134v164q-1 56 -19.5 86t-50.5 30q-6 0 -6 8v13q0 7 7 7z" />
    <glyph glyph-name="bar" unicode="|" horiz-adv-x="216" 
d="M118 714v-934q0 -8 -7 -8h-6q-7 0 -7 8v934q0 8 8 8h5q7 0 7 -8z" />
    <glyph glyph-name="braceright" unicode="}" horiz-adv-x="361" 
d="M107 673h-42q-8 0 -8 7v6q0 7 8 7h44q100 0 100 -134v-164q0 -54 19 -85t50 -31q6 0 7 -7v-13q0 -8 -7 -8q-33 0 -51 -30t-18 -86v-164q0 -134 -100 -134h-44q-8 0 -8 7v7q0 7 8 7h42q84 0 82 113v160q0 109 58 134q-59 26 -59 134v160q2 114 -81 114z" />
    <glyph glyph-name="asciitilde" unicode="~" horiz-adv-x="544" 
d="M58 190q-4 -12 -12 -4l-4 4q-4 4 -1 11q39 111 130 111q38 0 66 -17t42 -36.5t39 -35.5t58 -15q42 1 67.5 24t42.5 68q5 12 12 5l4 -5q4 -4 1 -11q-38 -107 -130 -107q-31 0 -54 11t-37.5 27t-29 31.5t-35.5 25.5t-49 9q-78 -1 -110 -96z" />
    <glyph glyph-name="uni00A0" unicode="&#xa0;" horiz-adv-x="313" 
 />
    <glyph glyph-name="exclamdown" unicode="&#xa1;" horiz-adv-x="252" 
d="M125 505h4q7 0 7 -8l2 -489q0 -8 -8 -8h-7q-8 0 -8 8l2 489q0 8 8 8zM158 671q0 -31 -31 -31q-21 0 -29.5 19t6.5 35q16 15 35 6.5t19 -29.5z" />
    <glyph glyph-name="cent" unicode="&#xa2;" horiz-adv-x="498" 
d="M307 433l-78 -422q18 -3 39 -3q60 -1 106.5 24t71.5 66q6 8 10 4l5 -5q4 -4 -1 -12q-63 -95 -192 -95q-22 0 -43 3l-17 -92q-2 -9 -8 -9h-7q-7 0 -5 9l18 96q-78 18 -123 78t-45 147q0 108 68 170q66 60 161 62q19 0 24 -1l17 90q2 9 8 9h7q7 0 5 -9l-17 -92
q98 -17 149 -93q5 -8 0 -13l-3 -3q-6 -4 -11 4q-56 74 -139 87zM210 15l78 420q-4 1 -20 1q-95 0 -154 -59q-58 -58 -58 -155q0 -80 41 -135t113 -72z" />
    <glyph glyph-name="sterling" unicode="&#xa3;" horiz-adv-x="522" 
d="M436 0h-351q-9 0 -4 11q39 85 57 147q17 58 18 99t-9 69h-82q-8 0 -8 7v6q0 7 8 7h76q-1 4 -9.5 26t-11.5 30q-17 61 -17 108q0 87 47.5 140t129.5 53q110 0 182 -86q8 -7 2 -13l-4 -5q-5 -8 -13 3q-66 81 -168 81q-72 0 -113.5 -47t-42.5 -126q0 -29 5 -57q6 -25 18 -60
q9 -23 17 -47h171q8 0 8 -7v-6q0 -7 -8 -7h-166q24 -116 -60 -306h328q8 0 8 -8v-5q0 -7 -8 -7z" />
    <glyph glyph-name="currency" unicode="&#xa4;" horiz-adv-x="584" 
d="M295 466q87 0 142 -52l49 53q7 7 12 2l11 -11q3 -3 3 -4.5t-6 -6.5l-54 -49q45 -54 45 -135q0 -88 -52 -143l58 -54q7 -7 3 -11l-11 -11q-6 -6 -12 2l-54 59q-53 -44 -134 -44t-133 42l-55 -59q-7 -7 -12 -2l-11 11q-5 5 2 11l59 54q-54 56 -54 145q0 80 43 132l-56 50
q-6 7 -2 11l11 11q5 5 12 -2l50 -53q55 54 146 54zM111 263q0 -82 50 -132q52 -50 134 -50t132 50t50 132t-50 132.5t-132 50.5q-83 0 -133.5 -50t-50.5 -133z" />
    <glyph glyph-name="yen" unicode="&#xa5;" horiz-adv-x="559" 
d="M266 8v132h-168q-8 0 -8 7v6q0 7 8 7h168v84h-168q-8 0 -8 7v6q0 7 8 7h168v17l-229 403q-6 9 8 9h2q9 0 14 -8l215 -379l223 379q5 8 15 8h3q11 0 5 -10l-237 -401v-18h169q8 0 8 -6v-6q0 -8 -8 -8h-169v-84h169q8 0 8 -7v-6q0 -7 -8 -7h-169v-132q2 -8 -7 -8h-4
q-8 0 -8 8z" />
    <glyph glyph-name="brokenbar" unicode="&#xa6;" horiz-adv-x="220" 
d="M107 124h6q6 0 6 -8v-336q0 -8 -6 -8h-6q-7 0 -7 8v336q0 8 7 8zM107 722h7q6 0 6 -8v-336q0 -8 -7 -8h-6q-7 0 -7 8v336q0 8 7 8z" />
    <glyph glyph-name="section" unicode="&#xa7;" horiz-adv-x="494" 
d="M52 539q-2 71 55 117q58 48 144 47q109 -1 169 -57q8 -5 4 -10l-3 -6q-1 -8 -9 0q-68 53 -165 53q-71 0 -123 -37t-52 -105q0 -47 31 -78q11 -11 41 -26q37 -16 122 -39q97 -25 139 -58q43 -32 44 -90q2 -78 -59 -121q56 -38 59 -103q1 -80 -57 -120q-59 -41 -142 -39
q-129 2 -201 71q-6 6 -3 10l4 7q4 7 12 -1q70 -67 193 -67q70 0 122 32q52 31 52 98q0 60 -40 88q-40 31 -152 59q-102 25 -144 56q-39 31 -41 94q-3 71 56 119q-54 35 -56 106zM72 317q-5 -56 49 -90q12 -8 39 -19q54 -18 106 -31q62 -15 105 -37q58 39 58 101q0 57 -39 86
q-41 30 -153 58q-70 17 -111 38q-54 -43 -54 -106z" />
    <glyph glyph-name="dieresis" unicode="&#xa8;" horiz-adv-x="354" 
d="M64 670q0 15 9 24t23 9q15 0 24 -9t9 -24q0 -14 -9 -23.5t-24 -9.5q-14 0 -23 9.5t-9 23.5zM225 670q0 33 32 33q14 0 23.5 -9t9.5 -24q0 -14 -9.5 -23t-23.5 -9q-15 0 -23.5 9t-8.5 23z" />
    <glyph glyph-name="copyright" unicode="&#xa9;" horiz-adv-x="826" 
d="M573 234q-51 -78 -158 -78q-85 0 -137 52.5t-52 137.5q0 73 41 123q42 49 98 63q57 14 116 -6q60 -20 92 -68q3 -7 0 -10l-6 -6q-4 -4 -8 2q-52 73 -144 73q-76 0 -122.5 -47t-46.5 -124q0 -76 46.5 -123t122.5 -47q98 0 143 71q4 7 8 4l8 -8q2 -2 -1 -9zM57 346
q0 162 97 259q98 98 259 98q160 0 258 -98t98 -259q0 -160 -98 -258t-258 -98t-258 98t-98 258zM77 346q0 -150 92 -244q94 -92 244 -92q151 0 243 92q93 93 93 244q0 152 -92 244q-91 93 -244 93q-151 0 -244 -93q-92 -92 -92 -244z" />
    <glyph glyph-name="ordfeminine" unicode="&#xaa;" horiz-adv-x="433" 
d="M357 696h6q7 0 7 -8v-303q0 -9 -6 -9h-7q-7 0 -7 8v67q-43 -82 -148 -82q-73 0 -118 46q-44 47 -44 121q0 75 44.5 121t117.5 46q49 0 88 -22t60 -61v68q0 8 7 8zM203 389q66 0 106.5 40.5t40.5 106.5t-40.5 106.5t-106.5 40.5q-64 0 -103 -40.5t-39 -106.5t39 -106.5
t103 -40.5z" />
    <glyph glyph-name="guillemotleft" unicode="&#xab;" horiz-adv-x="514" 
d="M247 264v5q0 10 7 16l133 148q7 7 12 3l5 -5q5 -5 -2 -13l-138 -152l138 -150q6 -9 2 -13l-5 -5q-6 -4 -12 2l-133 148q-7 7 -7 16zM228 436l5 -5q5 -5 -2 -13l-138 -152l138 -150q7 -8 2 -13l-5 -5q-6 -5 -12 2l-133 148q-7 7 -7 16v5q0 8 7 16l133 148q8 7 12 3z" />
    <glyph glyph-name="logicalnot" unicode="&#xac;" horiz-adv-x="623" 
d="M547 364v-185q0 -8 -8 -8h-4q-8 0 -8 8v175h-443q-8 0 -8 7v5q0 8 8 8h454q9 0 9 -10z" />
    <glyph glyph-name="uni00AD" unicode="&#xad;" horiz-adv-x="333" 
 />
    <glyph glyph-name="registered" unicode="&#xae;" horiz-adv-x="812" 
d="M50 346q0 162 97 259q98 98 259 98q160 0 258 -98t98 -259q0 -160 -98 -258t-258 -98t-258 98t-98 258zM742 346q0 152 -93 244q-91 93 -243 93q-151 0 -244 -93q-92 -94 -92 -244t92 -244q94 -92 244 -92q151 0 243 92q93 93 93 244zM537 430q0 -94 -116 -96l105 -164
q8 -11 -3 -11h-9q-6 0 -10 7l-107 168h-93v-166q0 -9 -7 -9h-6q-7 0 -7 9v360q0 10 10 10h121q57 0 89.5 -28.5t32.5 -79.5zM304 517v-163h112q101 0 101 76q0 41 -27 65t-74 23z" />
    <glyph glyph-name="overscore" unicode="&#xaf;" horiz-adv-x="325" 
d="M47 694h231q7 0 7 -8v-6q0 -7 -7 -7h-231q-7 0 -7 8v4q0 9 7 9z" />
    <glyph glyph-name="degree" unicode="&#xb0;" horiz-adv-x="422" 
d="M57 549q0 70 42 112t112 42q69 0 111.5 -42.5t42.5 -111.5q0 -68 -43 -110.5t-111 -42.5q-69 0 -111.5 42t-42.5 111zM77 549q0 -60 36.5 -96.5t97.5 -36.5q59 0 97 36q37 37 37 97t-37 97t-97 37t-97 -36.5t-37 -97.5z" />
    <glyph glyph-name="plusminus" unicode="&#xb1;" horiz-adv-x="589" 
d="M299 177h-6q-7 0 -7 8v182h-202q-8 0 -8 8v4q0 8 8 8h202v181q0 8 8 8h5q7 0 7 -8v-181h199q8 0 8 -7v-6q0 -7 -8 -7h-199v-182q0 -8 -7 -8zM510 71v-6q0 -7 -8 -7h-415q-8 0 -8 7v6q0 7 8 7h415q8 0 8 -7z" />
    <glyph glyph-name="twosuperior" unicode="&#xb2;" horiz-adv-x="337" 
d="M266 473l-198 -200h229q8 0 8 -7v-6q0 -7 -9 -7h-259q-17 0 -5 12l211 214q1 2 10 11q11 11 21 26q15 26 15 64q-1 47 -29.5 75t-76.5 28q-65 0 -107 -50q-5 -8 -10 -1l-5 6q-4 4 2 12q47 53 115 53q60 0 95.5 -32.5t35.5 -95.5q1 -58 -43 -102z" />
    <glyph glyph-name="threesuperior" unicode="&#xb3;" horiz-adv-x="332" 
d="M131 483v6q0 7 7 7h32q100 0 100 88q0 44 -27.5 71.5t-71.5 27.5q-60 0 -102 -49q-6 -6 -10 -2l-5 6q-5 5 0 10q48 55 117 55q53 0 86 -33t33 -86q0 -72 -60 -98q74 -24 74 -107q0 -60 -38 -97.5t-100 -37.5q-59 0 -96.5 33.5t-40.5 87.5q-2 8 7 8h4q9 0 9 -6
q4 -47 36 -75t81 -28q52 0 85 32t33 83q0 44 -28 69.5t-76 27.5h-42q-7 0 -7 7z" />
    <glyph glyph-name="acute" unicode="&#xb4;" horiz-adv-x="253" 
d="M202 698l9 -12q6 -7 -2 -12l-152 -113q-5 -5 -10 -1l-4 5q-5 6 -1 10l148 123q8 6 12 0z" />
    <glyph glyph-name="mu" unicode="&#xb5;" horiz-adv-x="545" 
d="M442 206l-1 230q0 7 8 7h3q8 0 8 -7v-429q0 -7 -8 -7h-2q-8 0 -8 7v123q-18 -66 -63.5 -103t-112.5 -37q-121 0 -160 97v-306q0 -8 -6 -8h-6q-6 0 -6 8v654q0 8 7 8h4q7 0 7 -8v-259q3 -81 44 -124.5t116 -43.5q74 0 122 56q49 55 54 142z" />
    <glyph glyph-name="paragraph" unicode="&#xb6;" horiz-adv-x="559" 
d="M420 673h-161v-713q0 -8 -8 -8h-4q-8 0 -8 8v367q-82 0 -132 50.5t-50 132.5t50 132.5t132 50.5h18h1h236q8 0 8 -8v-4q0 -8 -8 -8h-54v-713q0 -8 -8 -8h-4q-8 0 -8 8v713z" />
    <glyph glyph-name="middot" unicode="&#xb7;" horiz-adv-x="211" 
d="M83 258q-8 8 -8 22t8 22q8 9 22 9t22 -9q8 -8 8 -22t-9 -22q-8 -8 -21 -8t-22 8z" />
    <glyph glyph-name="cedilla" unicode="&#xb8;" horiz-adv-x="278" 
d="M134 0h22l-30 -68q58 -1 84.5 -15t27.5 -50q1 -38 -25.5 -60.5t-70.5 -22.5q-54 0 -98 35q-6 5 -3 10l3 5q4 5 11 1q47 -31 87 -31q36 0 56.5 17t19.5 47q-2 44 -103 44h-9q-10 0 -6 9z" />
    <glyph glyph-name="onesuperior" unicode="&#xb9;" horiz-adv-x="221" 
d="M37 694h88q10 0 10 -10v-423q0 -8 -8 -8h-4q-8 0 -8 8v413h-78q-8 0 -8 7v6q0 7 8 7z" />
    <glyph glyph-name="ordmasculine" unicode="&#xba;" horiz-adv-x="391" 
d="M195 704q75 0 121 -46t46 -121t-46 -121.5t-121 -46.5q-74 0 -120 46.5t-46 121.5t46 121t120 46zM49 537q0 -67 40 -107.5t106 -40.5t106.5 40.5t40.5 107.5q0 66 -40.5 106.5t-106.5 40.5t-106 -40.5t-40 -106.5z" />
    <glyph glyph-name="guillemotright" unicode="&#xbb;" horiz-adv-x="485" 
d="M237 269v-5q0 -9 -7 -16l-133 -148q-6 -6 -12 -2l-5 5q-6 4 0 10l3 3l137 150l-137 152q-8 8 -3 13l5 5q7 3 12 -3l133 -148q7 -6 7 -16zM251 431l5 5q6 4 12 -3l133 -148q7 -7 7 -16v-5q0 -9 -7 -16l-133 -148q-6 -7 -12 -2l-5 5q-4 4 3 13l137 150l-137 152q-8 8 -3 13
z" />
    <glyph glyph-name="onequarter" unicode="&#xbc;" horiz-adv-x="791" 
d="M731 122v-6q0 -7 -8 -7h-54v-101q0 -8 -7 -8h-6q-7 0 -7 8v101h-237q-20 0 -8 17l224 305q6 8 15 8h16q10 0 10 -10v-300h54q8 0 8 -7zM169 11l397 704q4 7 10 7h7q11 0 5 -11l-398 -704q-4 -7 -10 -7h-8q-11 0 -3 11zM148 261v413h-79q-8 0 -8 7v6q0 7 8 7h88
q10 0 10 -10v-423q0 -8 -8 -8h-4q-7 0 -7 8zM431 129h218v297z" />
    <glyph glyph-name="onehalf" unicode="&#xbd;" horiz-adv-x="809" 
d="M169 11l397 704q4 7 10 7h7q11 0 5 -11l-398 -704q-4 -7 -10 -7h-8q-11 0 -3 11zM68 694h88q10 0 10 -10v-423q0 -8 -8 -8h-4q1 0 0.5 0.5t-2.5 1.5q-6 3 -6 6v413h-78q-8 0 -8 7v6q0 7 8 7zM706 220l-37 -38l-88 -88l-72 -74h228q8 0 8 -7v-6q0 -7 -8 -7h-260
q-17 0 -5 12l211 214q1 2 10 11q11 11 21 26q15 26 15 64q-1 47 -29.5 75t-75.5 28q-64 0 -108 -50q-5 -6 -10 -1l-5 6q-5 5 3 12q44 53 115 53q60 0 95 -32.5t35 -95.5q2 -57 -43 -102z" />
    <glyph glyph-name="threequarters" unicode="&#xbe;" horiz-adv-x="915" 
d="M270 11l397 704q3 7 10 7h7q11 0 5 -11l-397 -704q-4 -7 -11 -7h-8q-11 0 -3 11zM162 483v6q0 7 7 7h32q100 1 100 88q0 44 -27.5 71.5t-71.5 27.5q-60 0 -102 -49q-6 -6 -10 -2l-5 6q-5 5 0 10q48 55 117 55q53 0 86 -33t33 -86q0 -72 -60 -98q74 -24 74 -107
q0 -59 -38.5 -97t-99.5 -38q-59 0 -96.5 33.5t-40.5 87.5q-2 8 7 8h4q7 0 9 -6q4 -47 36 -75t81 -28q52 0 85 32t33 83q0 44 -27.5 70t-76.5 27h-42q-7 0 -7 7zM846 122v-6q0 -7 -8 -7h-54v-101q0 -8 -7 -8h-6q-7 0 -7 8v101h-237q-20 0 -8 17l224 305q6 8 15 8h16
q10 0 10 -10v-300h54q8 0 8 -7zM546 129h218v297z" />
    <glyph glyph-name="questiondown" unicode="&#xbf;" horiz-adv-x="526" 
d="M272 500q2 8 7 8h6q7 0 7 -8q-4 -75 -73 -130q-2 -1 -16.5 -12.5t-17.5 -14.5t-16.5 -14t-17.5 -16t-14.5 -17t-14 -19.5t-10.5 -20.5t-9.5 -24t-4.5 -25t-2 -29q2 -76 47 -122q46 -46 121 -46q106 0 170 82q5 7 10 2l4 -4q6 -4 1 -12q-73 -88 -184 -88q-84 0 -137 51
q-52 52 -52 136q0 51 19.5 90.5t47.5 64.5t56 47.5t49.5 53t23.5 67.5zM312 670q0 -14 -9 -23t-24 -9q-14 0 -23 9t-9 23q0 15 9 24t23 9q15 0 24 -9t9 -24z" />
    <glyph glyph-name="Agrave" unicode="&#xc0;" horiz-adv-x="645" 
d="M607 5l-102 239h-365l-102 -237q-1 -7 -7 -7h-11q-8 0 -3 11l287 673q4 9 10 9h16q8 2 11 -9l287 -673q4 -12 -2 -12h-11q-5 0 -8 6zM497 264l-175 409l-174 -409h349zM385 727l-181 105q-7 4 -3 13l7 13q5 6 13 1l177 -117q5 -3 0 -11l-4 -3q-3 -5 -9 -1z" />
    <glyph glyph-name="Aacute" unicode="&#xc1;" horiz-adv-x="645" 
d="M607 5l-102 239h-365l-102 -237q-1 -7 -7 -7h-11q-8 0 -3 11l287 673q4 9 10 9h16q8 2 11 -9l287 -673q4 -12 -2 -12h-11q-5 0 -8 6zM497 264l-175 409l-174 -409h349zM429 858l8 -13q5 -7 -3 -12l-181 -106q-5 -5 -10 1l-4 4q-3 8 1 11l178 116q8 6 11 -1z" />
    <glyph glyph-name="Acircumflex" unicode="&#xc2;" horiz-adv-x="645" 
d="M607 5l-102 239h-365l-102 -237q-1 -7 -7 -7h-11q-8 0 -3 11l287 673q4 9 10 9h16q8 2 11 -9l287 -673q4 -12 -2 -12h-11q-5 0 -8 6zM497 264l-175 409l-174 -409h349zM457 746l-135 92l-134 -92q-7 -4 -13 -4h-12q-17 0 0 11l141 95q8 5 13 5h10l12 -5l143 -95
q17 -11 2 -11h-14q-6 0 -13 4z" />
    <glyph glyph-name="Atilde" unicode="&#xc3;" horiz-adv-x="645" 
d="M607 5l-102 239h-365l-102 -237q-1 -7 -7 -7h-11q-8 0 -3 11l287 673q4 9 10 9h16q8 2 11 -9l287 -673q4 -12 -2 -12h-11q-5 0 -8 6zM497 264l-175 409l-174 -409h349zM187 765q-2 -9 -8 -3l-7 5q-4 1 -2 8q28 83 91 83q22 0 40 -15t28 -33.5t26 -33t35 -13.5q44 2 69 73
q4 9 9 4l7 -7q5 -5 2 -7q-26 -83 -91 -83q-21 0 -39.5 15t-29 32.5t-27 32.5t-34.5 15q-41 -2 -69 -73z" />
    <glyph glyph-name="Adieresis" unicode="&#xc4;" horiz-adv-x="645" 
d="M607 5l-102 239h-365l-102 -237q-1 -7 -7 -7h-11q-8 0 -3 11l287 673q4 9 10 9h16q8 2 11 -9l287 -673q4 -12 -2 -12h-11q-5 0 -8 6zM497 264l-175 409l-174 -409h349zM211 789q0 15 8.5 24.5t23.5 9.5q14 0 23 -9.5t9 -24.5q0 -14 -9 -23t-23 -9q-15 0 -23.5 9t-8.5 23z
M371 790q0 33 32 33q14 0 23.5 -9.5t9.5 -23.5q0 -15 -9.5 -24t-23.5 -9q-32 0 -32 33z" />
    <glyph glyph-name="Aring" unicode="&#xc5;" horiz-adv-x="645" 
d="M607 5l-102 239h-365l-102 -237q-1 -7 -7 -7h-11q-8 0 -3 11l287 673q4 9 10 9h16q8 2 11 -9l287 -673q4 -12 -2 -12h-11q-5 0 -8 6zM497 264l-175 409l-174 -409h349zM312 889q42 0 67 -24.5t25 -65.5t-25 -66t-67 -25q-41 0 -65.5 25t-24.5 66t25 65.5t65 24.5z
M261 850q-19 -19 -19 -51t19 -51q20 -19 52 -19t52 19t20 51t-20 51t-52 19t-52 -19z" />
    <glyph glyph-name="AE" unicode="&#xc6;" horiz-adv-x="770" 
d="M22 0h-5q-11 0 -4 13l373 672q8 9 14 9h314q9 0 9 -7v-6q0 -7 -8 -7h-305v-308h257q8 0 8 -7v-6q0 -7 -8 -7h-257v-326h314q8 0 8 -7v-6q0 -7 -7 -7h-325q-10 0 -10 11v226h-230l-127 -230q-4 -7 -11 -7zM390 651l-218 -394h218v394z" />
    <glyph glyph-name="Ccedilla" unicode="&#xc7;" horiz-adv-x="703" 
d="M653 82q-97 -92 -249 -92q-159 0 -257 98q-97 98 -97 258t98 258q98 99 256 99q149 0 249 -94q6 -6 0 -11l-4 -4q-4 -4 -11 1q-100 88 -234 88q-151 0 -242 -93q-92 -94 -92 -244t92 -244q92 -92 242 -92q134 0 235 87q7 5 11 1l6 -5q5 -4 -3 -11zM395 0h21l-28 -65
q54 -1 79.5 -14t26.5 -47q1 -36 -24 -57.5t-67 -21.5q-53 0 -93 33q-6 5 -3 10l3 4q4 5 10 1q47 -29 83 -29q34 0 53.5 16t18.5 45q-2 41 -98 41h-8q-11 0 -6 9z" />
    <glyph glyph-name="Egrave" unicode="&#xc8;" horiz-adv-x="504" 
d="M424 343h-304v-323h362q8 0 8 -6v-7q0 -7 -8 -7h-372q-10 0 -10 10v674q0 10 10 10h362q8 0 8 -7v-7q0 -6 -8 -6h-352v-311h304q9 0 9 -6v-8q0 -6 -9 -6zM332 727l-181 105q-7 4 -3 13l7 13q5 6 13 1l177 -117q5 -3 0 -11l-4 -3q-1 -2 -4 -2.5t-5 1.5z" />
    <glyph glyph-name="Eacute" unicode="&#xc9;" horiz-adv-x="504" 
d="M381 343h-304v-323h362q8 0 8 -6v-7q0 -7 -8 -7h-372q-10 0 -10 10v674q0 10 10 10h362q8 0 8 -7v-7q0 -6 -8 -6h-352v-311h304q9 0 9 -6v-8q0 -6 -9 -6zM376 858l8 -13q4 -7 -3 -12l-181 -106q-4 -5 -10 1l-4 4q-3 8 1 11l178 116q8 6 11 -1z" />
    <glyph glyph-name="Ecircumflex" unicode="&#xca;" horiz-adv-x="504" 
d="M424 343h-304v-323h362q8 0 8 -6v-7q0 -7 -8 -7h-372q-10 0 -10 10v674q0 10 10 10h362q8 0 8 -7v-7q0 -6 -8 -6h-352v-311h304q9 0 9 -6v-8q0 -6 -9 -6zM413 745l-135 92l-134 -92q-7 -4 -13 -4h-13q-16 0 0 11l142 95q8 5 13 5h10l12 -5l143 -95q17 -11 1 -11h-13
q-6 0 -13 4z" />
    <glyph glyph-name="Edieresis" unicode="&#xcb;" horiz-adv-x="504" 
d="M424 343h-304v-323h362q8 0 8 -6v-7q0 -7 -8 -7h-372q-10 0 -10 10v674q0 10 10 10h362q8 0 8 -7v-7q0 -6 -8 -6h-352v-311h304q9 0 9 -6v-8q0 -6 -9 -6zM162 789q0 15 8.5 24.5t23.5 9.5q14 0 23 -9.5t9 -24.5q0 -14 -9 -23t-23 -9q-15 0 -23.5 9t-8.5 23zM322 790
q0 14 9 23.5t24 9.5q14 0 23 -9.5t9 -23.5q0 -15 -9 -24t-23 -9q-15 0 -24 9t-9 24z" />
    <glyph glyph-name="Igrave" unicode="&#xcc;" horiz-adv-x="220" 
d="M120 686v-679q0 -7 -8 -7h-4q-8 0 -8 7v679q0 8 8 8h4q8 0 8 -8zM170 727l-180 105q-8 5 -4 13l8 13q4 6 12 1l178 -117q4 -4 0 -11l-4 -3q-5 -5 -10 -1z" />
    <glyph glyph-name="Iacute" unicode="&#xcd;" horiz-adv-x="220" 
d="M120 686v-679q0 -7 -8 -7h-4q-8 0 -8 7v679q0 8 8 8h4q8 0 8 -8zM214 858l8 -13q4 -7 -3 -12l-181 -106q-4 -5 -10 1l-4 4q-3 8 1 11l178 116q8 6 11 -1z" />
    <glyph glyph-name="Icircumflex" unicode="&#xce;" horiz-adv-x="220" 
d="M121 686v-679q0 -7 -8 -7h-4q-8 0 -8 7v679q0 8 8 8h4q8 0 8 -8zM108 845l1 15h5q4 0 14 -6l150 -100q15 -8 6 -10l-5 -1h-13q-7 0 -15 5zM-58 754l149 100q5 5 13 5h5l2 -14l-143 -97q-8 -6 -14 -6h-13q-15 0 -5 8q3 3 6 4z" />
    <glyph glyph-name="Idieresis" unicode="&#xcf;" horiz-adv-x="220" 
d="M120 686v-679q0 -7 -8 -7h-4q-8 0 -8 7v679q0 8 8 8h4q8 0 8 -8zM-4 789q0 15 8.5 24.5t23.5 9.5q14 0 23.5 -9.5t9.5 -24.5q0 -14 -9.5 -23t-23.5 -9q-15 0 -23.5 9t-8.5 23zM157 790q0 33 32 33q14 0 23 -9.5t9 -23.5q0 -15 -9 -24t-23 -9q-32 0 -32 33z" />
    <glyph glyph-name="Eth" unicode="&#xd0;" horiz-adv-x="666" 
d="M268 0h-178q-10 0 -10 10v323h-53q-7 0 -7 7v6q0 7 8 7h52v331q0 10 10 10h178q159 0 257 -96q98 -95 98 -251q1 -155 -97 -252q-98 -95 -258 -95zM100 333v-313h168q152 0 243 90q93 90 93 237q-2 147 -93 237t-243 90h-168v-321h197q8 0 8 -6v-8q0 -6 -8 -6h-197z" />
    <glyph glyph-name="Ntilde" unicode="&#xd1;" horiz-adv-x="739" 
d="M627 694h5q7 0 7 -8v-676q0 -10 -10 -10h-12q-7 0 -12 6l-485 658v-656q0 -8 -8 -8h-4q-8 0 -8 8v676q0 10 10 10h8q8 0 12 -7l489 -664v663q0 8 8 8zM233 765q-2 -9 -8 -3l-7 5q-4 1 -2 8q28 83 91 83q22 0 40 -15t28 -33.5t26.5 -33t35.5 -13.5q43 1 68 73q4 9 9 4
l7 -7q5 -5 2 -7q-26 -83 -91 -83q-21 0 -39.5 15t-29 32.5t-26.5 32.5t-34 15q-42 -2 -70 -73z" />
    <glyph glyph-name="Ograve" unicode="&#xd2;" horiz-adv-x="797" 
d="M755 347q0 -161 -98 -259q-97 -97 -258 -97q-160 0 -258 98t-98 258t98 258t258 98t258 -98t98 -258zM735 347q1 151 -92 243q-91 93 -243 93t-245 -93q-92 -92 -92 -243t93 -244q94 -92 244 -92q151 0 243 92q92 94 92 244zM460 727l-180 105q-8 5 -4 13l8 13q3 6 12 1
l178 -117q3 -3 0 -11l-4 -3q-5 -5 -10 -1z" />
    <glyph glyph-name="Oacute" unicode="&#xd3;" horiz-adv-x="797" 
d="M755 347q0 -161 -98 -259q-97 -97 -258 -97q-160 0 -258 98t-98 258t98 258t258 98t258 -98t98 -258zM735 347q1 151 -92 243q-91 93 -243 93t-245 -93q-92 -92 -92 -243t93 -244q94 -92 244 -92q151 0 243 92q92 94 92 244zM504 858l8 -13q4 -7 -3 -12l-181 -106
q-4 -5 -10 1l-4 4q-3 8 1 11l178 116q8 6 11 -1z" />
    <glyph glyph-name="Ocircumflex" unicode="&#xd4;" horiz-adv-x="797" 
d="M43 348q0 159 98 257t258 98q159 0 257 -98t98 -257q0 -161 -98 -259t-257 -98q-161 0 -259 98q-97 97 -97 259zM399 11q151 0 243 92q93 93 93 244t-93 243q-92 93 -243 93t-244 -93q-92 -92 -92 -243t93 -244q94 -92 243 -92zM533 745l-135 92l-134 -92q-7 -4 -13 -4
h-13q-16 0 0 11l142 95q8 5 13 5h10l12 -5l143 -95q17 -11 2 -11h-14q-6 0 -13 4z" />
    <glyph glyph-name="Otilde" unicode="&#xd5;" horiz-adv-x="797" 
d="M755 347q0 -161 -98 -259q-97 -97 -258 -97q-160 0 -258 98t-98 258t98 258t258 98t258 -98t98 -258zM735 347q1 151 -92 243q-91 93 -243 93t-245 -93q-92 -92 -92 -243t93 -244q94 -92 244 -92q151 0 243 92q92 94 92 244zM262 765q-1 -7 -8 -3l-7 5q-4 1 -2 8
q27 83 92 83q21 0 39 -15t28.5 -33.5t26.5 -33t35 -13.5q46 1 68 73q5 8 10 4l6 -7q4 -5 2 -7q-26 -83 -91 -83q-21 0 -39.5 15t-29 32.5t-26.5 32.5t-34 15q-42 -2 -70 -73z" />
    <glyph glyph-name="Odieresis" unicode="&#xd6;" horiz-adv-x="797" 
d="M755 347q0 -161 -98 -259q-97 -97 -258 -97q-160 0 -258 98t-98 258t98 258t258 98t258 -98t98 -258zM735 347q1 151 -92 243q-91 93 -243 93t-245 -93q-92 -92 -92 -243t93 -244q94 -92 244 -92q151 0 243 92q92 94 92 244zM286 789q0 15 8.5 24.5t23.5 9.5
q14 0 23.5 -9.5t9.5 -24.5q0 -14 -9.5 -23t-23.5 -9q-15 0 -23.5 9t-8.5 23zM447 790q0 33 32 33q14 0 23 -9.5t9 -23.5q0 -15 -9 -24t-23 -9q-32 0 -32 33z" />
    <glyph glyph-name="multiply" unicode="&#xd7;" horiz-adv-x="471" 
d="M222 319l-142 142q-5 5 -1 11l3 3q6 6 11 0l142 -142l142 142q7 5 11 1l4 -4q5 -5 -1 -11l-142 -142l142 -142q6 -5 1 -10l-4 -4q-6 -6 -10 0l-143 143l-142 -143q-5 -5 -10 0l-4 4q-4 4 0 10z" />
    <glyph glyph-name="Oslash" unicode="&#xd8;" horiz-adv-x="812" 
d="M762 347q0 -161 -98 -259q-97 -97 -258 -97q-160 0 -258 98t-98 258t98 258t258 98t258 -98t98 -258zM742 347q1 151 -92 243q-92 93 -243 93q-152 0 -245 -93q-92 -92 -92 -243t93 -244q94 -92 244 -92q151 0 243 92q92 94 92 244zM78 7l607 677q7 8 11 4l7 -6
q4 -4 -4 -12l-606 -676q-5 -6 -9 0l-6 4q-4 4 0 9z" />
    <glyph glyph-name="Ugrave" unicode="&#xd9;" horiz-adv-x="694" 
d="M100 272v413q0 8 8 8h4q8 0 8 -8v-414q0 -116 62 -189q63 -71 166 -71q101 0 163 71q62 73 62 189v415q0 7 9 7h4q8 0 8 -7v-415q0 -126 -68 -203t-179 -77q-111 -1 -179 76q-68 79 -68 205zM408 727l-180 105q-8 5 -4 13l8 13q3 6 12 1l178 -117q3 -3 0 -11l-4 -3
q-5 -5 -10 -1z" />
    <glyph glyph-name="Uacute" unicode="&#xda;" horiz-adv-x="694" 
d="M100 272v413q0 8 8 8h4q8 0 8 -8v-414q0 -116 62 -189q63 -71 166 -71q101 0 163 71q62 73 62 189v415q0 7 9 7h4q8 0 8 -7v-415q0 -126 -68 -203t-179 -77q-111 -1 -179 76q-68 79 -68 205zM452 858l8 -13q4 -7 -3 -12l-181 -106q-4 -5 -10 1l-4 4q-3 8 1 11l178 116
q8 6 11 -1z" />
    <glyph glyph-name="Ucircumflex" unicode="&#xdb;" horiz-adv-x="694" 
d="M100 272v413q0 8 8 8h4q8 0 8 -8v-414q0 -116 62 -189q63 -71 166 -71q101 0 163 71q62 73 62 189v415q0 7 9 7h4q8 0 8 -7v-415q0 -126 -68 -203t-179 -77q-111 -1 -179 76q-68 79 -68 205zM481 751l-135 92l-134 -92q-5 -4 -13 -4h-12q-17 0 0 11l141 95q8 5 14 5h9
q4 0 12 -5l143 -95q17 -11 2 -11h-13q-7 0 -14 4z" />
    <glyph glyph-name="Udieresis" unicode="&#xdc;" horiz-adv-x="694" 
d="M100 272v413q0 8 8 8h4q8 0 8 -8v-414q0 -116 62 -189q63 -71 166 -71q101 0 163 71q62 73 62 189v415q0 7 9 7h4q8 0 8 -7v-415q0 -126 -68 -203t-179 -77q-111 -1 -179 76q-68 79 -68 205zM234 789q0 15 8.5 24.5t23.5 9.5q14 0 23.5 -9.5t9.5 -24.5q0 -14 -9.5 -23
t-23.5 -9q-15 0 -23.5 9t-8.5 23zM395 790q0 33 32 33q14 0 23 -9.5t9 -23.5q0 -15 -9 -24t-23 -9q-32 0 -32 33z" />
    <glyph glyph-name="Yacute" unicode="&#xdd;" horiz-adv-x="529" 
d="M251 8v273l-229 403q-6 9 7 9h5q7 0 12 -8l215 -379l223 379q5 8 11 8h10q6 0 2 -10l-237 -401v-275q0 -7 -7 -7h-4q-8 0 -8 8zM369 858l8 -13q5 -7 -3 -12l-181 -106q-5 -5 -10 1l-4 4q-3 8 1 11l178 116q8 6 11 -1z" />
    <glyph glyph-name="Thorn" unicode="&#xde;" horiz-adv-x="551" 
d="M76 8v677q0 9 8 9h5q7 0 7 -9v-155h187q108 0 165 -46t58 -137q-1 -91 -58 -137t-165 -46h-187v-156q0 -8 -8 -8h-4q-8 0 -8 8zM285 510h-189v-326h189q97 -1 149 41t52 121q0 80 -51.5 122t-149.5 42z" />
    <glyph glyph-name="germandbls" unicode="&#xdf;" horiz-adv-x="594" 
d="M281 19q14 -9 42.5 -17.5t49.5 -8.5q63 0 107 39q44 41 44 98q0 40 -22 73.5t-57 55.5q-15 10 -47.5 28.5t-49 29.5t-31.5 29.5t-15 37.5q0 45 73 86q30 17 51.5 42.5t21.5 52.5q0 55 -42 87.5t-109 32.5q-83 0 -130 -56t-47 -154v-467q0 -8 -7 -8h-6q-7 0 -7 8v468
q0 99 50 164q51 65 147 65q65 0 118 -38t53 -102q0 -35 -22.5 -63t-49 -43t-50 -35t-24.5 -42q0 -29 78 -73q41 -23 67.5 -42t51.5 -56t25 -79q0 -69 -50 -114t-120 -45q-51 0 -101 26q-9 3 -6 11l3 7q2 7 11 2z" />
    <glyph glyph-name="agrave" unicode="&#xe0;" horiz-adv-x="577" 
d="M482 316v120q0 8 7 8h4q7 0 7 -8v-429q0 -7 -8 -7h-3q-7 0 -7 7v120q-25 -64 -81 -100.5t-133 -36.5q-103 0 -167 64q-63 64 -63 168q0 102 63 167q64 64 167 64q77 0 133.5 -36.5t80.5 -100.5zM268 8q97 0 155 58q59 59 59 156q0 95 -59 154t-155 59q-95 0 -154 -59
q-58 -58 -58 -154q0 -97 58 -155q59 -59 154 -59zM317 541l-151 112q-8 5 -1 12l9 12q4 4 11 0l147 -122q3 -2 0 -10l-4 -4q-6 -5 -11 0z" />
    <glyph glyph-name="aacute" unicode="&#xe1;" horiz-adv-x="577" 
d="M482 316v120q0 8 7 8h4q7 0 7 -8v-429q0 -7 -8 -7h-3q-7 0 -7 7v120q-25 -64 -81 -100.5t-133 -36.5q-103 0 -167 64q-63 64 -63 168q0 102 63 167q64 64 167 64q77 0 133.5 -36.5t80.5 -100.5zM268 8q97 0 155 58q59 59 59 156q0 95 -59 154t-155 59q-95 0 -154 -59
q-58 -58 -58 -154q0 -97 58 -155q59 -59 154 -59zM387 665l9 -13q6 -6 -2 -12l-152 -112q-8 -5 -10 -2l-4 6q-6 6 -1 9l148 124q7 6 12 0z" />
    <glyph glyph-name="acircumflex" unicode="&#xe2;" horiz-adv-x="577" 
d="M482 316v120q0 8 7 8h4q7 0 7 -8v-429q0 -7 -8 -7h-3q-7 0 -7 7v120q-25 -64 -81 -100.5t-133 -36.5q-103 0 -167 64q-63 64 -63 168q0 102 63 167q64 64 167 64q77 0 133.5 -36.5t80.5 -100.5zM268 8q97 0 155 58q59 59 59 156q0 95 -59 154t-155 59q-95 0 -154 -59
q-58 -58 -58 -154q0 -97 58 -155q59 -59 154 -59zM148 524l103 133q4 7 13 7h10q4 0 12 -7l102 -132q8 -8 -5 -8h-7q-5 0 -9 4l-98 129l-100 -128q-5 -5 -10 -5h-6q-11 0 -5 7z" />
    <glyph glyph-name="atilde" unicode="&#xe3;" horiz-adv-x="627" 
d="M532 316v120q0 8 7 8h4q7 0 7 -8v-429q0 -7 -8 -7h-3q-7 0 -7 7v120q-25 -64 -81 -100.5t-133 -36.5q-103 0 -167 64q-63 64 -63 168q0 102 63 167q64 64 167 64q77 0 133.5 -36.5t80.5 -100.5zM318 8q97 0 155 58q59 59 59 156q0 95 -59 154t-155 59q-95 0 -154 -59
q-58 -58 -58 -154q0 -97 58 -155q59 -59 154 -59zM172 565q-2 -7 -9 -3l-6 5q-4 5 -2 10q27 82 92 82q21 0 39 -15.5t28 -33.5t26 -33t35 -14q44 2 69 73q3 9 9 4l7 -5q4 -2 2 -9q-27 -83 -92 -83q-21 0 -39.5 15t-29 32.5t-26.5 32.5t-34 15q-44 -2 -69 -73z" />
    <glyph glyph-name="adieresis" unicode="&#xe4;" horiz-adv-x="577" 
d="M482 316v120q0 8 7 8h4q7 0 7 -8v-429q0 -7 -8 -7h-3q-7 0 -7 7v120q-25 -64 -81 -100.5t-133 -36.5q-103 0 -167 64q-63 64 -63 168q0 102 63 167q64 64 167 64q77 0 133.5 -36.5t80.5 -100.5zM268 8q97 0 155 58q59 59 59 156q0 95 -59 154t-155 59q-95 0 -154 -59
q-58 -58 -58 -154q0 -97 58 -155q59 -59 154 -59zM156 634q0 15 9 24t23 9q15 0 24 -9t9 -24q0 -14 -9 -23.5t-24 -9.5q-14 0 -23 9.5t-9 23.5zM350 667q20 0 28 -16.5t0 -32.5t-28 -16q-21 0 -29.5 16t0 32.5t29.5 16.5z" />
    <glyph glyph-name="aring" unicode="&#xe5;" horiz-adv-x="577" 
d="M482 316v120q0 8 7 8h4q7 0 7 -8v-429q0 -7 -8 -7h-3q-7 0 -7 7v120q-25 -64 -81 -100.5t-133 -36.5q-103 0 -167 64q-63 64 -63 168q0 102 63 167q64 64 167 64q77 0 133.5 -36.5t80.5 -100.5zM268 8q97 0 155 58q59 59 59 156q0 95 -59 154t-155 59q-95 0 -154 -59
q-58 -58 -58 -154q0 -97 58 -155q59 -59 154 -59zM172 541q-24 25 -24 66t24 65q25 25 66 25t66 -25q25 -24 25 -65t-25 -66t-66 -25t-66 25zM186 658q-19 -19 -19 -51t19 -51q20 -19 52 -19t52 19t20 51t-20 51t-52 19t-52 -19z" />
    <glyph glyph-name="ae" unicode="&#xe6;" horiz-adv-x="942" 
d="M849 74q6 8 11 3l5 -5q5 -4 -2 -11q-65 -71 -180 -71q-157 0 -203 133v-116q0 -7 -7 -7h-5q-6 0 -6 7v111q-47 -128 -194 -128q-103 0 -167 64q-63 64 -63 168q0 102 63 167q64 64 167 64q73 0 123 -33.5t71 -94.5v111q0 8 7 8h5q6 0 6 -8v-112q44 129 192 129
q104 0 167 -64q64 -64 64 -170q0 -6 -10 -6h-411q2 -96 54.5 -150.5t146.5 -54.5q105 0 166 66zM268 8q91 0 142.5 57.5t51.5 158.5q0 96 -53 153.5t-141 57.5q-95 0 -154 -59q-58 -58 -58 -154q0 -97 58 -155q59 -59 154 -59zM482 231h403q-3 93 -61 148q-59 56 -152 56
q-90 0 -139 -54t-51 -150z" />
    <glyph glyph-name="ccedilla" unicode="&#xe7;" horiz-adv-x="498" 
d="M460 85q-63 -95 -192 -95q-103 0 -167 64q-63 64 -63 168q0 108 68 170q66 60 161 62q59 1 111 -24.5t82 -71.5q5 -8 1 -12l-4 -4q-6 -4 -11 4q-64 90 -178 90q-95 0 -154 -59q-58 -58 -58 -155t58 -155q59 -59 154 -59q60 -1 106.5 24t71.5 66q6 8 10 4l5 -5
q4 -4 -1 -12zM247 0h21l-29 -65q55 -1 80 -14t26 -47q1 -36 -24 -57.5t-67 -21.5q-51 0 -93 33q-6 5 -3 10l3 4q4 5 11 1q47 -29 82 -29q34 0 53.5 16t18.5 45q-1 23 -24.5 32t-72.5 9h-9q-10 0 -6 9z" />
    <glyph glyph-name="egrave" unicode="&#xe8;" 
d="M56 231h425q-3 93 -61 148q-59 56 -152 56q-92 0 -151 -56q-58 -55 -61 -148zM489 213h-433q3 -92 64 -149q62 -56 159 -56q105 0 166 66q6 8 11 3l5 -5q5 -4 -2 -11q-65 -71 -180 -71q-108 0 -175 64q-66 64 -66 168q0 102 63 167q64 64 167 64t166 -64q63 -62 65 -167
q0 -9 -10 -9zM317 541l-151 111q-7 4 -1 12l8 12q5 6 12 0l147 -122q3 -2 0 -10l-5 -4q-5 -4 -10 1z" />
    <glyph glyph-name="eacute" unicode="&#xe9;" 
d="M56 231h425q-3 93 -61 148q-59 56 -152 56q-92 0 -151 -56q-58 -55 -61 -148zM489 213h-433q3 -92 64 -149q62 -56 159 -56q105 0 166 66q6 8 11 3l5 -5q5 -4 -2 -11q-65 -71 -180 -71q-108 0 -175 64q-66 64 -66 168q0 102 63 167q64 64 167 64t166 -64q63 -62 65 -167
q0 -9 -10 -9zM363 668l9 -12q6 -7 -2 -13l-152 -112q-6 -6 -10 -2l-4 6q-6 6 -1 9l148 124q7 6 12 0z" />
    <glyph glyph-name="ecircumflex" unicode="&#xea;" 
d="M56 231h425q-3 93 -61 148q-59 56 -152 56q-92 0 -151 -56q-58 -55 -61 -148zM489 213h-433q3 -92 64 -149q62 -56 159 -56q105 0 166 66q6 8 11 3l5 -5q5 -4 -2 -11q-65 -71 -180 -71q-108 0 -175 64q-66 64 -66 168q0 102 63 167q64 64 167 64t166 -64q63 -62 65 -167
q0 -9 -10 -9zM147 524l103 133q4 7 13 7h10q4 0 12 -7l102 -132q8 -8 -5 -8h-7q-5 0 -9 4l-98 129l-100 -128q-5 -5 -10 -5h-6q-11 0 -5 7z" />
    <glyph glyph-name="edieresis" unicode="&#xeb;" 
d="M56 231h425q-3 93 -61 148q-59 56 -152 56q-92 0 -151 -56q-58 -55 -61 -148zM489 213h-433q3 -92 64 -149q62 -56 159 -56q105 0 166 66q6 8 11 3l5 -5q5 -4 -2 -11q-65 -71 -180 -71q-108 0 -175 64q-66 64 -66 168q0 102 63 167q64 64 167 64t166 -64q63 -62 65 -167
q0 -9 -10 -9zM155 618q0 20 16.5 28.5t33 0t16.5 -28.5t-16.5 -28.5t-33 0t-16.5 28.5zM349 651q20 0 28 -16.5t0 -32.5t-28 -16t-28.5 16t0 32.5t28.5 16.5z" />
    <glyph glyph-name="igrave" unicode="&#xec;" horiz-adv-x="198" 
d="M108 435l1 -427q0 -8 -8 -8h-4q-7 0 -7 8v428q0 7 6 7h5q7 0 7 -8zM146 540l-151 111q-8 5 -1 13l8 12q4 6 12 0l147 -123q3 -1 0 -9l-5 -5q-4 -5 -10 1z" />
    <glyph glyph-name="iacute" unicode="&#xed;" horiz-adv-x="198" 
d="M108 435l1 -427q0 -8 -8 -8h-4q-7 0 -7 8v428q0 7 6 7h5q7 0 7 -8zM202 657l9 -12q5 -7 -2 -12l-152 -112q-6 -6 -10 -2l-4 5q-5 6 -1 10l148 123q8 6 12 0z" />
    <glyph glyph-name="icircumflex" unicode="&#xee;" horiz-adv-x="198" 
d="M108 435l1 -427q0 -8 -8 -8h-4q-7 0 -7 8v428q0 7 6 7h5q7 0 7 -8zM-29 517l109 140q4 7 13 7h11q4 0 12 -7l108 -139q7 -9 -5 -9h-8q-4 0 -9 5l-104 135l-105 -134q-5 -6 -10 -6h-7q-11 0 -5 8z" />
    <glyph glyph-name="idieresis" unicode="&#xef;" horiz-adv-x="198" 
d="M108 435l1 -427q0 -8 -8 -8h-4q-7 0 -7 8v428q0 7 6 7h5q7 0 7 -8zM-16 622q0 15 9 24t23 9q15 0 24 -9t9 -24q0 -14 -9 -23t-24 -9q-14 0 -23 9t-9 23zM178 655q20 0 28 -16t0 -32t-28 -16q-21 0 -29.5 16t0 32t29.5 16z" />
    <glyph glyph-name="eth" unicode="&#xf0;" horiz-adv-x="539" 
d="M269 -10q-96 0 -154 58t-58 154t58 153t154 57q110 0 173 -79q-39 136 -145 236l-144 -74q-6 -3 -10 1l-5 5q-6 6 3 10l140 72q-63 57 -140 90q-8 3 -5 11l3 6q2 5 12 1q84 -36 151 -97l110 56q7 4 12 -1l5 -5q7 -5 -4 -10l-107 -55q164 -161 164 -384q-1 -91 -61 -149
q-59 -56 -152 -56zM461 204q-1 85 -54 136q-52 52 -138 52t-139 -53t-53 -138q0 -86 53 -139q52 -52 139 -52q86 0 139 53q53 55 53 141z" />
    <glyph glyph-name="ntilde" unicode="&#xf1;" horiz-adv-x="546" 
d="M88 7v429q0 7 7 7h4q7 0 7 -7v-123q18 67 63 103.5t113 36.5q85 0 131.5 -50t46.5 -148v-247q0 -8 -7 -8h-4q-7 0 -7 8v248q0 86 -41.5 132.5t-118.5 46.5q-73 0 -123 -56q-48 -56 -53 -142l1 -230q0 -7 -7 -7h-4q-8 0 -8 7zM137 565q-2 -8 -8 -3l-6 5q-5 5 -2 10
q27 82 91 82q22 0 39.5 -15.5t28 -33.5t26 -33t34.5 -14q42 1 70 73q3 9 8 4l8 -5q4 -2 2 -9q-27 -83 -92 -83q-21 0 -39.5 15t-29 32.5t-26.5 32.5t-34 15q-43 -1 -70 -73z" />
    <glyph glyph-name="ograve" unicode="&#xf2;" 
d="M38 222q0 102 63 167q64 64 167 64q104 0 167 -64q64 -63 64 -167t-64 -168t-167 -64t-167 64q-63 64 -63 168zM56 222q0 -98 58 -156t154 -58t154 58q59 59 59 156q0 95 -59 154t-154 59t-154 -59q-58 -58 -58 -154zM297 541l-151 111q-7 4 -1 12l8 12q5 6 12 0
l147 -122q3 -2 0 -10l-5 -4q-5 -4 -10 1z" />
    <glyph glyph-name="oacute" unicode="&#xf3;" 
d="M38 222q0 102 63 167q64 64 167 64q104 0 167 -64q64 -63 64 -167t-64 -168t-167 -64t-167 64q-63 64 -63 168zM56 222q0 -98 58 -156t154 -58t154 58q59 59 59 156q0 95 -59 154t-154 59t-154 -59q-58 -58 -58 -154zM373 668l9 -12q6 -7 -2 -13l-152 -112q-6 -6 -10 -2
l-4 6q-6 6 -1 9l148 124q7 6 12 0z" />
    <glyph glyph-name="ocircumflex" unicode="&#xf4;" 
d="M38 222q0 102 63 167q64 64 167 64q104 0 167 -64q64 -63 64 -167t-64 -168t-167 -64t-167 64q-63 64 -63 168zM56 222q0 -98 58 -156t154 -58t154 58q59 59 59 156q0 95 -59 154t-154 59t-154 -59q-58 -58 -58 -154zM147 525l104 133q4 7 12 7h11q3 0 11 -7l103 -132
q6 -8 -5 -8h-8q-4 0 -8 4l-99 129l-100 -128q-5 -5 -9 -5h-7q-9 0 -5 7z" />
    <glyph glyph-name="otilde" unicode="&#xf5;" 
d="M38 222q0 102 63 167q64 64 167 64q104 0 167 -64q64 -63 64 -167t-64 -168t-167 -64t-167 64q-63 64 -63 168zM56 222q0 -98 58 -156t154 -58t154 58q59 59 59 156q0 95 -59 154t-154 59t-154 -59q-58 -58 -58 -154zM131 554q-3 -8 -9 -3l-6 5q-5 5 -1 10q27 82 91 82
q21 0 39 -15.5t28 -33.5t26 -33t35 -14q44 2 69 74q3 8 9 3l7 -5q4 -2 2 -9q-27 -83 -92 -83q-21 0 -39 15t-29 32.5t-27 32.5t-34 15q-44 -2 -69 -73z" />
    <glyph glyph-name="odieresis" unicode="&#xf6;" 
d="M38 222q0 102 63 167q64 64 167 64q104 0 167 -64q64 -63 64 -167t-64 -168t-167 -64t-167 64q-63 64 -63 168zM56 222q0 -98 58 -156t154 -58t154 58q59 59 59 156q0 95 -59 154t-154 59t-154 -59q-58 -58 -58 -154zM155 633q0 20 16.5 28.5t33 0t16.5 -28.5
t-16.5 -28.5t-33 0t-16.5 28.5zM349 666q20 0 28 -16t0 -32.5t-28 -16.5t-28.5 16.5t0 32.5t28.5 16z" />
    <glyph glyph-name="divide" unicode="&#xf7;" horiz-adv-x="539" 
d="M242 403q-10 11 -10 27t10 26q10 11 27 11t27 -11q10 -10 10 -26t-10 -27q-10 -10 -27 -10t-27 10zM242 138q-10 10 -10 27t10 27t27 10t27 -10t10 -27t-10 -27t-27 -10t-27 10zM76 292v6q0 7 8 7h372q7 0 7 -7v-6q0 -7 -7 -7h-372q-8 0 -8 7z" />
    <glyph glyph-name="oslash" unicode="&#xf8;" 
d="M416 406l44 50q7 7 11 1l5 -5q4 -4 -1 -10l-44 -49q68 -65 68 -171q0 -104 -64 -168t-167 -64q-92 0 -153 52l-44 -49q-6 -8 -11 -3l-5 5q-6 4 1 11l44 50q-62 65 -62 166q0 102 63 167q64 64 167 64q86 0 148 -47zM418 378l-289 -321q56 -47 139 -47q95 0 153 58t58 154
q0 98 -61 156zM114 71l288 320q-54 42 -134 42q-95 0 -153 -58q-57 -59 -57 -153q0 -95 56 -151z" />
    <glyph glyph-name="ugrave" unicode="&#xf9;" horiz-adv-x="548" 
d="M442 7v123q-18 -66 -63.5 -103t-112.5 -37q-85 0 -131.5 50t-46.5 148v247q0 4 1.5 6.5t5.5 1.5h5q6 0 6 -8v-247q0 -87 41.5 -133.5t118.5 -46.5q74 0 122 56q49 55 54 142l-1 230q0 9 8 7h4q7 0 7 -7v-429q0 -7 -7 -7h-4q-7 0 -7 7zM321 530l-151 111q-8 5 -1 13l9 12
q4 4 11 0l147 -123q3 -1 0 -9l-4 -5q-6 -4 -11 1z" />
    <glyph glyph-name="uacute" unicode="&#xfa;" horiz-adv-x="548" 
d="M442 7v123q-18 -66 -63.5 -103t-112.5 -37q-85 0 -131.5 50t-46.5 148v247q0 4 1.5 6.5t5.5 1.5h5q6 0 6 -8v-247q0 -87 41.5 -133.5t118.5 -46.5q74 0 122 56q49 55 54 142l-1 230q0 9 8 7h4q7 0 7 -7v-429q0 -7 -7 -7h-4q-7 0 -7 7zM367 657l10 -12q5 -7 -2 -12
l-152 -112q-7 -6 -11 -2l-3 5q-5 6 -1 10l148 123q7 4 11 0z" />
    <glyph glyph-name="ucircumflex" unicode="&#xfb;" horiz-adv-x="548" 
d="M442 7v123q-18 -66 -63.5 -103t-112.5 -37q-85 0 -131.5 50t-46.5 148v247q0 4 1.5 6.5t5.5 1.5h5q6 0 6 -8v-247q0 -87 41.5 -133.5t118.5 -46.5q74 0 122 56q49 55 54 142l-1 230q0 9 8 7h4q7 0 7 -7v-429q0 -7 -7 -7h-4q-7 0 -7 7zM145 518l109 140q4 7 13 7h11
q4 0 12 -7l108 -139q7 -9 -5 -9h-8q-4 0 -9 5l-104 135l-105 -134q-5 -6 -10 -6h-7q-11 0 -5 8z" />
    <glyph glyph-name="udieresis" unicode="&#xfc;" horiz-adv-x="548" 
d="M442 7v123q-18 -66 -63.5 -103t-112.5 -37q-85 0 -131.5 50t-46.5 148v247q0 4 1.5 6.5t5.5 1.5h5q6 0 6 -8v-247q0 -87 41.5 -133.5t118.5 -46.5q74 0 122 56q49 55 54 142l-1 230q0 9 8 7h4q7 0 7 -7v-429q0 -7 -7 -7h-4q-7 0 -7 7zM159 622q0 15 9.5 24t23.5 9
q15 0 24 -9t9 -24q0 -14 -9 -23t-24 -9q-14 0 -23.5 9t-9.5 23zM353 655q20 0 28 -16t0 -32t-28 -16t-28.5 16t0 32t28.5 16z" />
    <glyph glyph-name="yacute" unicode="&#xfd;" horiz-adv-x="432" 
d="M400 443h6q8 0 2 -13l-270 -649q-4 -9 -10 -9h-5q-8 0 -2 13l92 224l-190 421q-7 13 4 13h6q5 0 9 -9l180 -405l167 405q5 9 11 9zM320 648l9 -12q6 -7 -2 -13l-152 -112q-6 -6 -10 -2l-4 6q-6 6 -1 9l148 124q8 6 12 0z" />
    <glyph glyph-name="thorn" unicode="&#xfe;" horiz-adv-x="578" 
d="M83 722h6q7 0 7 -8v-403q23 66 80 104t135 38q103 0 167 -64q64 -63 64 -167t-64 -168t-167 -64q-78 0 -135 38t-80 105v-353q0 -8 -7 -8h-6q-7 0 -7 8v934q0 8 7 8zM311 435q-94 0 -155 -59q-60 -58 -60 -154t59 -155t156 -59q95 0 154 59t59 155q0 95 -59 154t-154 59z
" />
    <glyph glyph-name="ydieresis" unicode="&#xff;" horiz-adv-x="432" 
d="M400 443h6q8 0 2 -13l-270 -649q-4 -9 -10 -9h-5q-8 0 -2 13l92 224l-190 421q-7 13 4 13h6q5 0 9 -9l180 -405l167 405q5 9 11 9zM92 613q0 15 9 24t23 9q15 0 24 -9t9 -24q0 -14 -9 -23.5t-24 -9.5q-14 0 -23 9.5t-9 23.5zM285 646q20 2 28.5 -15t0 -34t-28.5 -16
q-20 0 -28.5 16.5t0 32.5t28.5 16z" />
    <glyph glyph-name="Amacron" unicode="&#x100;" horiz-adv-x="645" 
d="M607 5l-102 239h-365l-102 -237q-1 -7 -7 -7h-11q-8 0 -3 11l287 673q4 9 10 9h16q8 2 11 -9l287 -673q4 -12 -2 -12h-11q-5 0 -8 6zM497 264l-175 409l-174 -409h349zM209 788h229q8 0 8 -7v-6q0 -7 -8 -7h-229q-8 0 -8 7v6q0 7 8 7z" />
    <glyph glyph-name="amacron" unicode="&#x101;" horiz-adv-x="577" 
d="M482 316v120q0 8 7 8h4q7 0 7 -8v-429q0 -7 -8 -7h-3q-7 0 -7 7v120q-25 -64 -81 -100.5t-133 -36.5q-103 0 -167 64q-63 64 -63 168q0 102 63 167q64 64 167 64q77 0 133.5 -36.5t80.5 -100.5zM268 8q97 0 155 58q59 59 59 156q0 95 -59 154t-155 59q-95 0 -154 -59
q-58 -58 -58 -154q0 -97 58 -155q59 -59 154 -59zM154 609h230q7 0 7 -7v-6q0 -8 -7 -8h-230q-8 0 -8 9v4q0 8 8 8z" />
    <glyph glyph-name="Abreve" unicode="&#x102;" horiz-adv-x="645" 
d="M607 5l-102 239h-365l-102 -237q-1 -7 -7 -7h-11q-8 0 -3 11l287 673q4 9 10 9h16q8 2 11 -9l287 -673q4 -12 -2 -12h-11q-5 0 -8 6zM497 264l-175 409l-174 -409h349zM456 859l6 1q7 0 7 -10q-3 -54 -43 -86.5t-103 -32.5q-61 0 -100.5 33t-43.5 86q1 10 6 10h11
q4 0 5 -10q6 -47 38 -73t84 -26q109 0 126 99q1 9 7 9z" />
    <glyph glyph-name="abreve" unicode="&#x103;" horiz-adv-x="577" 
d="M482 316v120q0 8 7 8h4q7 0 7 -8v-429q0 -7 -8 -7h-3q-7 0 -7 7v120q-25 -64 -81 -100.5t-133 -36.5q-103 0 -167 64q-63 64 -63 168q0 102 63 167q64 64 167 64q77 0 133.5 -36.5t80.5 -100.5zM268 8q97 0 155 58q59 59 59 156q0 95 -59 154t-155 59q-95 0 -154 -59
q-58 -58 -58 -154q0 -97 58 -155q59 -59 154 -59zM377 684h8q5 0 5 -9q-2 -61 -38 -98t-92 -37t-92 37t-38 98q0 9 5 9h8q7 0 7 -8q4 -52 34 -84t76 -32t76 32t34 84q0 8 7 8z" />
    <glyph glyph-name="Aogonek" unicode="&#x104;" horiz-adv-x="645" 
d="M607 5l-102 239h-365l-102 -237q-1 -7 -7 -7h-11q-8 0 -3 11l287 673q4 9 10 9h16q8 2 11 -9l287 -673q4 -12 -2 -12h-11q-5 0 -8 6zM497 264l-175 409l-174 -409h349zM683 -175q-29 -36 -83 -36q-38 0 -62.5 22.5t-24.5 59.5q0 36 33 77l34 31l28 25l21 -3
q-38 -33 -51 -46q-45 -49 -45 -81q0 -29 18.5 -47t48.5 -18q37 0 65 28q8 8 13 3l6 -4q2 -2 -1 -11z" />
    <glyph glyph-name="aogonek" unicode="&#x105;" horiz-adv-x="577" 
d="M482 316v120q0 8 7 8h4q7 0 7 -8v-429q0 -7 -8 -7h-3q-7 0 -7 7v120q-25 -64 -81 -100.5t-133 -36.5q-103 0 -167 64q-63 64 -63 168q0 102 63 167q64 64 167 64q77 0 133.5 -36.5t80.5 -100.5zM268 8q97 0 155 58q59 59 59 156q0 95 -59 154t-155 59q-95 0 -154 -59
q-58 -58 -58 -154q0 -97 58 -155q59 -59 154 -59zM550 -160q-26 -33 -78 -35q-37 0 -59.5 22t-22.5 57q0 34 24 62l20 23l26 24l22 17l15 -8q-38 -33 -48 -43q-40 -40 -40 -73q0 -28 17.5 -45t45.5 -17q35 0 62 27q7 7 12 4l6 -5q2 -2 -2 -10z" />
    <glyph glyph-name="Cacute" unicode="&#x106;" horiz-adv-x="703" 
d="M653 82q-97 -92 -249 -92q-159 0 -257 98q-97 98 -97 258t98 258q98 99 256 99q149 0 249 -94q6 -6 0 -11l-4 -4q-4 -4 -11 1q-100 88 -234 88q-151 0 -242 -93q-92 -94 -92 -244t92 -244q92 -92 242 -92q134 0 235 87q7 5 11 1l6 -5q5 -4 -3 -11zM477 858l8 -13
q5 -7 -3 -12l-181 -106q-5 -5 -10 1l-4 4q-3 8 1 11l178 116q8 6 11 -1z" />
    <glyph glyph-name="cacute" unicode="&#x107;" horiz-adv-x="498" 
d="M460 85q-63 -95 -192 -95q-103 0 -167 64q-63 64 -63 168q0 108 68 170q66 60 161 62q59 1 111 -24.5t82 -71.5q5 -8 1 -12l-4 -4q-6 -4 -11 4q-64 90 -178 90q-95 0 -154 -59q-58 -58 -58 -155t58 -155q59 -59 154 -59q60 -1 106.5 24t71.5 66q6 8 10 4l5 -5
q4 -4 -1 -12zM374 670l9 -13q6 -6 -2 -12l-152 -112q-6 -6 -10 -2l-4 6q-6 6 -1 9l148 124q8 6 12 0z" />
    <glyph glyph-name="Ccircumflex" unicode="&#x108;" horiz-adv-x="703" 
d="M653 82q-97 -92 -249 -92q-159 0 -257 98q-97 98 -97 258t98 258q98 99 256 99q149 0 249 -94q6 -6 0 -11l-4 -4q-4 -4 -11 1q-100 88 -234 88q-151 0 -242 -93q-92 -94 -92 -244t92 -244q92 -92 242 -92q134 0 235 87q7 5 11 1l6 -5q5 -4 -3 -11zM513 748l-142 96
l-141 -96q-8 -5 -14 -5h-13q-18 0 0 12l149 100q8 5 14 5h10q1 0 13 -5l150 -100q11 -11 2 -12h-14q-6 0 -14 5z" />
    <glyph glyph-name="ccircumflex" unicode="&#x109;" horiz-adv-x="498" 
d="M460 85q-63 -95 -192 -95q-103 0 -167 64q-63 64 -63 168q0 108 68 170q66 60 161 62q59 1 111 -24.5t82 -71.5q5 -8 1 -12l-4 -4q-6 -4 -11 4q-64 90 -178 90q-95 0 -154 -59q-58 -58 -58 -155t58 -155q59 -59 154 -59q60 -1 106.5 24t71.5 66q6 8 10 4l5 -5
q4 -4 -1 -12zM143 524l103 133q4 7 13 7h10q4 0 12 -7l102 -132q8 -8 -5 -8h-7q-6 0 -9 4l-99 129l-99 -128q-5 -5 -10 -5h-6q-11 0 -5 7z" />
    <glyph glyph-name="Cdotaccent" unicode="&#x10a;" horiz-adv-x="703" 
d="M653 82q-97 -92 -249 -92q-159 0 -257 98q-97 98 -97 258t98 258q98 99 256 99q149 0 249 -94q6 -6 0 -11l-4 -4q-4 -4 -11 1q-100 88 -234 88q-151 0 -242 -93q-92 -94 -92 -244t92 -244q92 -92 242 -92q134 0 235 87q7 5 11 1l6 -5q5 -4 -3 -11zM342 801q0 30 31 30
q21 0 29 -18.5t-7 -34.5q-14 -15 -33.5 -6.5t-19.5 29.5z" />
    <glyph glyph-name="cdotaccent" unicode="&#x10b;" horiz-adv-x="498" 
d="M460 85q-63 -95 -192 -95q-103 0 -167 64q-63 64 -63 168q0 108 68 170q66 60 161 62q59 1 111 -24.5t82 -71.5q5 -8 1 -12l-4 -4q-6 -4 -11 4q-64 90 -178 90q-95 0 -154 -59q-58 -58 -58 -155t58 -155q59 -59 154 -59q60 -1 106.5 24t71.5 66q6 8 10 4l5 -5
q4 -4 -1 -12zM237 609q0 31 31 31t31 -31q0 -19 -15.5 -27t-31 0t-15.5 27z" />
    <glyph glyph-name="Ccaron" unicode="&#x10c;" horiz-adv-x="703" 
d="M653 82q-97 -92 -249 -92q-159 0 -257 98q-97 98 -97 258t98 258q98 99 256 99q149 0 249 -94q6 -6 0 -11l-4 -4q-4 -4 -11 1q-100 88 -234 88q-151 0 -242 -93q-92 -94 -92 -244t92 -244q92 -92 242 -92q134 0 235 87q7 5 11 1l6 -5q5 -4 -3 -11zM230 845l141 -96
l142 96q8 5 14 5h14q14 0 2 -9l-4 -3l-150 -100q-8 -5 -13 -5h-10q-6 0 -14 5l-149 100q-18 12 0 12h13q6 0 14 -5z" />
    <glyph glyph-name="ccaron" unicode="&#x10d;" horiz-adv-x="498" 
d="M460 85q-63 -95 -192 -95q-103 0 -167 64q-63 64 -63 168q0 108 68 170q66 60 161 62q59 1 111 -24.5t82 -71.5q5 -8 1 -12l-4 -4q-6 -4 -11 4q-64 90 -178 90q-95 0 -154 -59q-58 -58 -58 -155t58 -155q59 -59 154 -59q60 -1 106.5 24t71.5 66q6 8 10 4l5 -5
q4 -4 -1 -12zM150 664h7q5 0 9 -6l100 -127l99 127q5 5 8 5h8q13 0 5 -8l-103 -132q-8 -6 -11 -6h-11q-7 0 -12 6l-104 133q-6 8 5 8z" />
    <glyph glyph-name="Dcaron" unicode="&#x10e;" horiz-adv-x="658" 
d="M288 674h-168v-654h168q152 0 243 90q93 90 93 237q-2 147 -93 237t-243 90zM288 0h-178q-10 0 -10 10v674q0 10 10 10h178q160 0 257 -96q98 -95 98 -251q1 -155 -97 -252q-98 -95 -258 -95zM195 845l141 -96l142 96q8 5 14 5h14q14 0 2 -9l-4 -3l-150 -100
q-8 -5 -13 -5h-10q-6 0 -14 5l-149 100q-18 12 0 12h13q6 0 14 -5z" />
    <glyph glyph-name="dcaron" unicode="&#x10f;" horiz-adv-x="712" 
d="M268 -10q-103 0 -167 64q-63 64 -63 168q0 102 63 167q64 64 167 64q77 0 133 -36.5t81 -100.5v398q0 8 7 8h4q7 0 7 -8v-707q0 -7 -8 -7h-3q-7 0 -7 7v120q-25 -64 -81.5 -100.5t-132.5 -36.5zM482 225q0 95 -59 152q-58 58 -155 58q-95 0 -154 -59q-58 -58 -58 -154
q0 -97 58 -155q59 -59 154 -59q96 0 155 59q59 61 59 158zM543 450l-4 4q-5 5 3 11q34 25 63 75q30 50 27 96q-6 -3 -14 -3q-20 0 -28 16t0 32t28 16q21 0 29 -20q20 -56 -13 -123q-32 -68 -83 -106q-4 -2 -8 2z" />
    <glyph glyph-name="Dcroat" unicode="&#x110;" horiz-adv-x="666" 
d="M268 0h-178q-10 0 -10 10v323h-53q-7 0 -7 7v6q0 7 8 7h52v331q0 10 10 10h178q159 0 257 -96q98 -95 98 -251q1 -155 -97 -252q-98 -95 -258 -95zM100 333v-313h168q152 0 243 90q93 90 93 237q-2 147 -93 237t-243 90h-168v-321h197q8 0 8 -6v-8q0 -6 -8 -6h-197z" />
    <glyph glyph-name="dslash" unicode="&#x111;" horiz-adv-x="585" 
d="M342 587h140v127q0 8 7 8h4q7 0 7 -8v-127h68q10 0 10 -6v-6q0 -6 -10 -6h-68v-562q0 -7 -8 -7h-3q-7 0 -7 7v120q-25 -64 -81.5 -100.5t-132.5 -36.5q-103 0 -167 64q-63 64 -63 168q0 102 63 167q64 64 167 64q77 0 133 -36.5t81 -100.5v253h-140q-10 0 -10 6v6
q0 6 10 6zM268 8q96 0 155 59q59 61 59 158q0 95 -59 152q-58 58 -155 58q-95 0 -154 -59q-58 -58 -58 -154q0 -97 58 -155q59 -59 154 -59z" />
    <glyph glyph-name="Emacron" unicode="&#x112;" horiz-adv-x="504" 
d="M424 343h-304v-323h362q8 0 8 -6v-7q0 -7 -8 -7h-372q-10 0 -10 10v674q0 10 10 10h362q8 0 8 -7v-7q0 -6 -8 -6h-352v-311h304q9 0 9 -6v-8q0 -6 -9 -6zM156 788h230q7 0 7 -7v-6q0 -7 -7 -7h-230q-8 0 -8 7v6q0 7 8 7z" />
    <glyph glyph-name="emacron" unicode="&#x113;" 
d="M56 231h425q-3 93 -61 148q-59 56 -152 56q-92 0 -151 -56q-58 -55 -61 -148zM489 213h-433q3 -92 64 -149q62 -56 159 -56q105 0 166 66q6 8 11 3l5 -5q5 -4 -2 -11q-65 -71 -180 -71q-108 0 -175 64q-66 64 -66 168q0 102 63 167q64 64 167 64t166 -64q63 -62 65 -167
q0 -9 -10 -9zM154 611h230q8 0 8 -7v-6q0 -8 -8 -8h-230q-7 0 -7 9v4q0 8 7 8z" />
    <glyph glyph-name="Ebreve" unicode="&#x114;" horiz-adv-x="504" 
d="M424 343h-304v-323h362q8 0 8 -6v-7q0 -7 -8 -7h-372q-10 0 -10 10v674q0 10 10 10h362q8 0 8 -7v-7q0 -6 -8 -6h-352v-311h304q9 0 9 -6v-8q0 -6 -9 -6zM403 859l6 1q7 0 7 -10q-3 -53 -42.5 -86t-102.5 -33q-62 0 -101.5 33t-43.5 86q1 10 6 10h11q4 0 5 -10
q14 -99 123 -99q108 0 125 99q2 9 7 9z" />
    <glyph glyph-name="ebreve" unicode="&#x115;" 
d="M56 231h425q-3 93 -61 148q-59 56 -152 56q-92 0 -151 -56q-58 -55 -61 -148zM489 213h-433q3 -92 64 -149q62 -56 159 -56q105 0 166 66q6 8 11 3l5 -5q5 -4 -2 -11q-65 -71 -180 -71q-108 0 -175 64q-66 64 -66 168q0 102 63 167q64 64 167 64t166 -64q63 -62 65 -167
q0 -9 -10 -9zM384 683h8q5 0 5 -9q-2 -61 -38 -98t-92 -37t-92 37t-38 98q0 9 5 9h8q7 0 7 -8q4 -52 34 -84t76 -32t76 32t34 84q0 8 7 8z" />
    <glyph glyph-name="Edotaccent" unicode="&#x116;" horiz-adv-x="504" 
d="M424 343h-304v-323h362q8 0 8 -6v-7q0 -7 -8 -7h-372q-10 0 -10 10v674q0 10 10 10h362q8 0 8 -7v-7q0 -6 -8 -6h-352v-311h304q9 0 9 -6v-8q0 -6 -9 -6zM241 791q0 30 31 30q21 0 29 -18.5t-7 -34.5q-14 -15 -33.5 -6.5t-19.5 29.5z" />
    <glyph glyph-name="edotaccent" unicode="&#x117;" 
d="M56 231h425q-3 93 -61 148q-59 56 -152 56q-92 0 -151 -56q-58 -55 -61 -148zM489 213h-433q3 -92 64 -149q62 -56 159 -56q105 0 166 66q6 8 11 3l5 -5q5 -4 -2 -11q-65 -71 -180 -71q-108 0 -175 64q-66 64 -66 168q0 102 63 167q64 64 167 64t166 -64q63 -62 65 -167
q0 -9 -10 -9zM237 617q0 31 31 31q21 0 29.5 -19t-6.5 -35q-16 -14 -35 -6t-19 29z" />
    <glyph glyph-name="Eogonek" unicode="&#x118;" horiz-adv-x="504" 
d="M424 343h-304v-323h362q8 0 8 -6v-7q0 -7 -8 -7h-372q-10 0 -10 10v674q0 10 10 10h362q8 0 8 -7v-7q0 -6 -8 -6h-352v-311h304q9 0 9 -6v-8q0 -6 -9 -6zM486 -175q-28 -36 -82 -36q-38 0 -62 23t-24 60q0 29 19 60q18 29 32 43l44 40l7 -15q-83 -72 -83 -126
q0 -29 18.5 -47t48.5 -18q35 0 66 28q4 7 12 4l6 -5q3 -3 -2 -11z" />
    <glyph glyph-name="eogonek" unicode="&#x119;" 
d="M56 231h425q-3 93 -61 148q-59 56 -152 56q-92 0 -151 -56q-58 -55 -61 -148zM489 213h-433q3 -92 64 -149q62 -56 159 -56q105 0 166 66q6 8 11 3l5 -5q5 -4 -2 -11q-65 -71 -180 -71q-108 0 -175 64q-66 64 -66 168q0 102 63 167q64 64 167 64t166 -64q63 -62 65 -167
q0 -9 -10 -9zM434 -168q-28 -36 -81 -36q-39 0 -63 22.5t-24 59.5q0 16 9 43q2 5 7 13t11 16t7 10q5 8 31 34l16 15l14 13l8 -15q-83 -74 -83 -127q0 -29 18.5 -46.5t48.5 -17.5q33 0 65 27q7 7 13 4l5 -5q5 -2 -2 -10z" />
    <glyph glyph-name="Ecaron" unicode="&#x11a;" horiz-adv-x="504" 
d="M424 343h-304v-323h362q8 0 8 -6v-7q0 -7 -8 -7h-372q-10 0 -10 10v674q0 10 10 10h362q8 0 8 -7v-7q0 -6 -8 -6h-352v-311h304q9 0 9 -6v-8q0 -6 -9 -6zM150 845l141 -96l142 96q8 5 14 5h14q14 0 2 -9l-4 -3l-150 -100q-8 -5 -13 -5h-10q-6 0 -14 5l-149 100
q-18 12 0 12h13q6 0 14 -5z" />
    <glyph glyph-name="ecaron" unicode="&#x11b;" 
d="M56 231h425q-3 93 -61 148q-59 56 -152 56q-92 0 -151 -56q-58 -55 -61 -148zM489 213h-433q3 -92 64 -149q62 -56 159 -56q105 0 166 66q6 8 11 3l5 -5q5 -4 -2 -11q-65 -71 -180 -71q-108 0 -175 64q-66 64 -66 168q0 102 63 167q64 64 167 64t166 -64q63 -62 65 -167
q0 -9 -10 -9zM153 664h7q4 0 9 -6l100 -127l99 127q5 5 9 5h7q13 0 5 -8l-103 -131q-7 -7 -11 -7h-11q-8 0 -12 7l-103 132q-8 8 4 8z" />
    <glyph glyph-name="Gcircumflex" unicode="&#x11c;" horiz-adv-x="760" 
d="M693 328h-281q-8 0 -8 8v4q0 8 8 8h291q9 0 9 -9q-2 -169 -85.5 -259t-237.5 -89q-153 0 -248 98q-94 97 -94 258q0 160 98 258t258 98q148 0 246 -92q8 -6 2 -11l-5 -5q-5 -6 -12 1q-98 87 -230 87q-152 0 -245 -93q-92 -92 -92 -243q0 -152 88 -244q89 -92 235 -92
q143 0 220.5 81.5t82.5 235.5zM514 751l-135 92l-134 -92q-5 -4 -13 -4h-12q-17 0 0 11l141 95q8 5 14 5h9q4 0 12 -5l143 -95q17 -11 2 -11h-13q-7 0 -14 4z" />
    <glyph glyph-name="gcircumflex" unicode="&#x11d;" horiz-adv-x="577" 
d="M268 453q78 0 135.5 -38t80.5 -105v126q0 7 7 7h3q8 0 8 -7l1 -442q0 -102 -61 -166q-62 -65 -153 -65q-94 1 -194 55q-5 3 -2 8l3 6q3 4 8 2l19 -9q18 -10 42 -20t52 -15q31 -8 72 -9q84 0 139 58q56 59 57 150v145q-23 -67 -81 -105.5t-136 -38.5q-103 0 -167 64
q-63 64 -63 168q0 102 63 167q64 64 167 64zM268 8q97 0 156 59q60 59 60 155t-60 154q-61 59 -156 59t-154 -59q-58 -58 -58 -154q0 -97 58 -155q59 -59 154 -59zM154 524l103 133q4 7 13 7h10q4 0 11 -7l103 -132q8 -8 -5 -8h-7q-5 0 -9 4l-99 129l-99 -128q-5 -5 -10 -5
h-7q-10 0 -4 7z" />
    <glyph glyph-name="Gbreve" unicode="&#x11e;" horiz-adv-x="760" 
d="M696 328h-281q-8 0 -8 8v4q0 8 8 8h291q9 0 9 -9q-2 -169 -85.5 -259t-237.5 -89q-153 0 -248 98q-94 97 -94 258q0 160 98 258t258 98q148 0 246 -92q8 -6 2 -11l-5 -5q-5 -6 -12 1q-97 87 -230 87q-152 0 -245 -93q-92 -92 -92 -243q0 -152 88 -244q89 -92 235 -92
q143 0 220.5 81.5t82.5 235.5zM507 859l7 1q6 0 6 -10q-2 -53 -42 -86t-103 -33q-62 0 -101.5 33t-42.5 86q1 10 5 10h12q4 0 5 -10q6 -47 38 -73t84 -26q53 0 85.5 26t39.5 73q2 9 7 9z" />
    <glyph glyph-name="gbreve" unicode="&#x11f;" horiz-adv-x="577" 
d="M268 453q78 0 135.5 -38t80.5 -105v126q0 7 7 7h3q8 0 8 -7l1 -442q0 -102 -61 -166q-62 -65 -153 -65q-94 1 -194 55q-5 3 -2 8l3 6q3 4 8 2l19 -9q18 -10 42 -20t52 -15q31 -8 72 -9q84 0 139 58q56 59 57 150v145q-23 -67 -81 -105.5t-136 -38.5q-103 0 -167 64
q-63 64 -63 168q0 102 63 167q64 64 167 64zM268 8q97 0 156 59q60 59 60 155t-60 154q-61 59 -156 59t-154 -59q-58 -58 -58 -154q0 -97 58 -155q59 -59 154 -59zM388 683h8q5 0 5 -9q-2 -61 -38 -98t-92 -37t-92 37t-38 98q0 9 5 9h8q7 0 7 -8q4 -52 34 -84t76 -32t76 32
t34 84q0 8 7 8z" />
    <glyph glyph-name="Gdotaccent" unicode="&#x120;" horiz-adv-x="760" 
d="M693 328h-281q-8 0 -8 8v4q0 8 8 8h291q9 0 9 -9q-2 -169 -85.5 -259t-237.5 -89q-153 0 -248 98q-94 97 -94 258q0 160 98 258t258 98q148 0 246 -92q8 -6 2 -11l-5 -5q-5 -6 -12 1q-98 87 -230 87q-152 0 -245 -93q-92 -92 -92 -243q0 -152 88 -244q89 -92 235 -92
q143 0 220.5 81.5t82.5 235.5zM349 801q0 30 32 30q30 0 30 -30q0 -14 -8.5 -23t-21.5 -9q-14 0 -23 9t-9 23z" />
    <glyph glyph-name="gdotaccent" unicode="&#x121;" horiz-adv-x="577" 
d="M268 453q78 0 135.5 -38t80.5 -105v126q0 7 7 7h3q8 0 8 -7l1 -442q0 -102 -61 -166q-62 -65 -153 -65q-94 1 -194 55q-5 3 -2 8l3 6q3 4 8 2l19 -9q18 -10 42 -20t52 -15q31 -8 72 -9q84 0 139 58q56 59 57 150v145q-23 -67 -81 -105.5t-136 -38.5q-103 0 -167 64
q-63 64 -63 168q0 102 63 167q64 64 167 64zM268 8q97 0 156 59q60 59 60 155t-60 154q-61 59 -156 59t-154 -59q-58 -58 -58 -154q0 -97 58 -155q59 -59 154 -59zM271 658q31 0 31 -31q0 -21 -19 -29t-35 6q-15 16 -6.5 35t29.5 19z" />
    <glyph glyph-name="uni0122" unicode="&#x122;" horiz-adv-x="765" 
d="M696 328h-281q-8 0 -8 8v4q0 8 8 8h291q9 0 9 -9q-2 -169 -85.5 -259t-237.5 -89q-153 0 -248 98q-94 97 -94 258q0 160 98 258t258 98q148 0 246 -92q8 -6 2 -11l-5 -5q-5 -6 -12 1q-97 87 -230 87q-152 0 -245 -93q-92 -92 -92 -243q0 -152 88 -244q89 -92 235 -92
q143 0 220.5 81.5t82.5 235.5zM403 -95q-4 -4 -16 -4q-19 0 -27 16t0 32t27 16q22 0 30 -20q17 -51 -4.5 -95t-74.5 -64q-7 -4 -12 2l-4 6q-3 5 3 8q38 14 59 42t19 61z" />
    <glyph glyph-name="uni0123" unicode="&#x123;" horiz-adv-x="577" 
d="M268 453q78 0 135.5 -38t80.5 -105v126q0 7 7 7h3q8 0 8 -7l1 -442q0 -102 -61 -166q-62 -65 -153 -65q-94 1 -194 55q-5 3 -2 8l3 6q3 4 8 2l19 -9q18 -10 42 -20t52 -15q31 -8 72 -9q84 0 139 58q56 59 57 150v145q-23 -67 -81 -105.5t-136 -38.5q-103 0 -167 64
q-63 64 -63 168q0 102 63 167q64 64 167 64zM268 8q97 0 156 59q60 59 60 155t-60 154q-61 59 -156 59t-154 -59q-58 -58 -58 -154q0 -97 58 -155q59 -59 154 -59zM260 564q4 4 16 4q19 0 27 -16t0 -32t-27 -16q-22 0 -30 20q-17 51 4.5 95t74.5 64q7 4 12 -2l4 -6
q3 -5 -3 -8q-38 -14 -59 -42t-19 -61z" />
    <glyph glyph-name="Hcircumflex" unicode="&#x124;" horiz-adv-x="678" 
d="M112 0h-4q-8 0 -8 8v678q0 8 8 8h5q7 0 7 -8v-321h438v321q0 8 8 8h5q7 0 7 -8v-678q0 -8 -8 -8h-4q-8 0 -8 8v337h-438v-337q0 -8 -8 -8zM473 749l-135 92l-134 -92q-5 -4 -13 -4h-12q-17 0 0 11l141 95q8 5 14 5h9q4 0 12 -5l143 -95q17 -11 2 -11h-13q-7 0 -14 4z" />
    <glyph glyph-name="hcircumflex" unicode="&#x125;" horiz-adv-x="544" 
d="M87 7v707q0 8 7 8h4q7 0 7 -7v-402q18 66 63.5 103t112.5 37q85 0 131 -50t46 -148l1 -247q0 -8 -6 -8h-6q-6 0 -6 8v248q0 86 -41.5 132.5t-118.5 46.5q-73 0 -123 -54q-49 -55 -53 -142v-232q0 -7 -6 -7h-5q-7 0 -7 7zM407 758l-135 91l-134 -91q-8 -5 -13 -5h-13
q-16 0 0 12l142 95q7 4 13 4h10q2 0 7 -2l5 -2l142 -95q11 -11 2 -12h-13q-8 0 -13 5z" />
    <glyph glyph-name="Hbar" unicode="&#x126;" horiz-adv-x="678" 
d="M120 686v-145h438v145q0 8 8 8h5q7 0 7 -8v-145h45q7 0 7 -7v-6q0 -6 -7 -7h-45v-513q0 -8 -8 -8h-4q-8 0 -8 8v337h-438v-337q0 -8 -8 -8h-4q-8 0 -8 8v513h-47q-7 0 -7 7v6q0 7 7 7h47v145q0 8 8 8h5q7 0 7 -8zM558 521h-438v-156h438v156z" />
    <glyph glyph-name="hbar" unicode="&#x127;" horiz-adv-x="546" 
d="M285 553v-6q0 -6 -7 -7h-172v-227q18 66 63.5 103t112.5 37q85 0 131 -50t46 -148l1 -247q0 -8 -6 -8h-6q-6 0 -6 8v248q0 86 -41.5 132.5t-118.5 46.5q-74 0 -123 -54q-49 -55 -53 -142v-232q0 -7 -6 -7h-5q-7 0 -7 7v533h-60q-8 0 -8 7v6q0 7 8 7h60v154q0 8 7 8h4
q7 0 7 -7v-155h172q7 0 7 -7z" />
    <glyph glyph-name="Itilde" unicode="&#x128;" horiz-adv-x="220" 
d="M120 686v-679q0 -7 -8 -7h-4q-8 0 -8 7v679q0 8 8 8h4q8 0 8 -8zM-27 765q-1 -7 -9 -3l-7 5q-3 1 -1 8q28 83 91 83q21 0 39 -15t28.5 -33.5t26.5 -33t35 -13.5q46 1 68 73q5 8 10 4l6 -7q4 -5 2 -7q-26 -83 -91 -83q-21 0 -39 15t-29 32.5t-27 32.5t-34 15
q-42 -2 -69 -73z" />
    <glyph glyph-name="itilde" unicode="&#x129;" horiz-adv-x="198" 
d="M108 435l1 -427q0 -8 -8 -8h-4q-7 0 -7 8v428q0 7 6 7h5q7 0 7 -8zM-40 554q-3 -8 -9 -3l-6 5q-3 5 -2 9q27 83 92 83q21 0 39 -15.5t28 -33.5t26 -33t35 -14q44 2 69 73q3 9 9 4l7 -6q4 -3 2 -8q-27 -83 -92 -83q-21 0 -39.5 15t-29 32.5t-26.5 32.5t-34 15
q-44 -2 -69 -73z" />
    <glyph glyph-name="Imacron" unicode="&#x12a;" horiz-adv-x="220" 
d="M120 686v-679q0 -7 -8 -7h-4q-8 0 -8 7v679q0 8 8 8h4q8 0 8 -8zM-6 788h230q8 0 8 -7v-6q0 -7 -8 -7h-230q-8 0 -8 8v4q0 8 8 8z" />
    <glyph glyph-name="imacron" unicode="&#x12b;" horiz-adv-x="198" 
d="M108 435l1 -427q0 -8 -8 -8h-4q-7 0 -7 8v428q0 7 6 7h5q7 0 7 -8zM-17 611h230q8 0 8 -8v-6q0 -7 -8 -7h-230q-7 0 -7 8v4q0 9 7 9z" />
    <glyph glyph-name="Ibreve" unicode="&#x12c;" horiz-adv-x="221" 
d="M120 686v-679q0 -7 -8 -7h-4q-8 0 -8 7v679q0 8 8 8h4q8 0 8 -8zM248 857l7 1q7 0 7 -10q-3 -56 -44.5 -90.5t-108.5 -34.5q-65 0 -106.5 34.5t-45.5 90.5q1 10 6 10h12q4 0 5 -10q14 -104 129 -104t132 104q1 9 7 9z" />
    <glyph glyph-name="ibreve" unicode="&#x12d;" horiz-adv-x="198" 
d="M108 436v-429q0 -7 -7 -7h-4q-7 0 -7 7v429q0 7 7 7h4q7 0 7 -7zM216 683h8q5 0 5 -9q-2 -61 -38 -98t-92 -37t-92 37t-38 98q0 9 5 9h8q7 0 7 -8q4 -52 34 -84t76 -32t76 32t34 84q0 8 7 8z" />
    <glyph glyph-name="Iogonek" unicode="&#x12e;" horiz-adv-x="220" 
d="M120 686v-679q0 -7 -8 -7h-4q-8 0 -8 7v679q0 8 8 8h4q8 0 8 -8zM220 -160q-26 -33 -78 -35q-36 0 -59 22t-23 57t24 62l20 23l28 23l21 18l15 -8q-38 -33 -48 -43q-41 -37 -41 -73q0 -28 17.5 -45t45.5 -17q32 0 63 27q7 7 11 4l6 -5q4 -4 -2 -10z" />
    <glyph glyph-name="iogonek" unicode="&#x12f;" horiz-adv-x="198" 
d="M108 435l1 -427q0 -8 -8 -8h-4q-7 0 -7 8v428q0 7 6 7h5q7 0 7 -8zM74 588q-9 10 -9 25t9 24q10 9 25 9t24 -9q10 -9 10 -24t-10 -25q-9 -9 -24 -9t-25 9zM167 -169q-29 -36 -81 -36q-39 0 -63 22.5t-24 59.5q0 16 9 43q2 5 7 13t11 16t7 10q5 8 31 34l16 15l14 13l8 -15
q-83 -74 -83 -127q0 -29 18.5 -46.5t48.5 -17.5q33 0 65 27q7 7 13 4l5 -5q5 -2 -2 -10z" />
    <glyph glyph-name="Idot" unicode="&#x130;" horiz-adv-x="220" 
d="M120 686v-679q0 -7 -8 -7h-4q-8 0 -8 7v679q0 8 8 8h4q8 0 8 -8zM79 791q0 30 32 30q30 0 30 -30q0 -14 -8.5 -23t-21.5 -9q-14 0 -23 9t-9 23z" />
    <glyph glyph-name="dotlessi" unicode="&#x131;" horiz-adv-x="198" 
d="M108 435v-427q0 -8 -7 -8h-4q-7 0 -7 8v428q0 7 8 7h3q7 0 7 -8z" />
    <glyph glyph-name="IJ" unicode="&#x132;" horiz-adv-x="610" 
d="M121 686l1 -679q0 -7 -8 -7h-4q-8 0 -8 7v679q0 7 8 7h4q4 1 5.5 -0.5t1.5 -6.5zM490 153l-1 533q0 7 8 7h4q9 0 9 -7l1 -529q1 -72 -37 -120q-37 -46 -98 -46q-71 0 -135 56q-7 4 -3 10l5 7q3 4 10 0q66 -54 124 -54q50 0 81 39t32 104z" />
    <glyph glyph-name="ij" unicode="&#x133;" horiz-adv-x="425" 
d="M108 435l1 -427q0 -8 -8 -8h-4q-7 0 -7 8v428q0 7 6 7h5q7 0 7 -8zM74 588q-9 10 -9 25t9 24q10 9 25 9t24 -9q10 -9 10 -24t-10 -25q-9 -9 -24 -9t-25 9zM324 646q21 2 29.5 -15.5t0 -35.5t-29.5 -16q-20 -2 -28.5 16t0 35.5t28.5 15.5zM320 -73v508q0 8 6 8h4q7 0 7 -8
l1 -510q0 -80 -25 -120q-25 -42 -84 -42t-101 30q-9 6 -4 12l3 5q3 5 11 -1q47 -29 90 -29q49 0 70 36t22 111z" />
    <glyph glyph-name="Jcircumflex" unicode="&#x134;" horiz-adv-x="388" 
d="M268 153l-1 533q0 8 8 8h4q8 0 8 -8l1 -529q2 -74 -35.5 -120t-99.5 -47q-71 2 -135 58q-5 3 -2 9l4 6q5 5 10 1q66 -52 125 -54q49 0 80 39t33 104zM412 746l-135 92l-134 -92q-5 -4 -13 -4h-12q-17 0 0 11l141 95q8 5 14 5h9q4 0 12 -5l143 -95q17 -11 2 -11h-13
q-7 0 -14 4z" />
    <glyph glyph-name="jcircumflex" unicode="&#x135;" horiz-adv-x="233" 
d="M127 -73v508q0 8 7 8h4q6 0 6 -8l1 -510q1 -163 -107 -163q-59 2 -103 31q-7 5 -3 12l3 5q1 4 11 -1q44 -29 90 -29q50 0 70.5 35.5t20.5 111.5zM10 517l109 140q4 7 13 7h11q4 0 12 -7l108 -139q7 -9 -5 -9h-8q-4 0 -9 5l-104 135l-105 -134q-4 -6 -10 -6h-7q-11 0 -5 8
z" />
    <glyph glyph-name="uni0136" unicode="&#x136;" horiz-adv-x="538" 
d="M100 686v-332l345 334q7 6 13 6h10q14 0 4 -10l-351 -337l379 -337q11 -10 -3 -10h-11q-8 0 -13 5l-373 335v-333q0 -7 -8 -7h-4q-8 0 -8 7v679q0 8 8 8h4q8 0 8 -8zM278 -95q-4 -4 -16 -4q-19 0 -27 16t0 32t27 16q22 0 30 -20q17 -51 -4.5 -95t-74.5 -64q-7 -4 -12 2
l-4 6q-3 5 3 8q38 14 59 42t19 61z" />
    <glyph glyph-name="uni0137" unicode="&#x137;" horiz-adv-x="388" 
d="M325 443h10q15 0 4 -9l-240 -198l272 -230q4 -4 -4 -6h-13q-4 0 -12 5l-257 219v-217q0 -7 -7 -7h-3q-7 0 -7 7v708q0 7 8 7h2q7 0 7 -7v-466l228 189q8 5 12 5zM225 -95q-4 -4 -16 -4q-19 0 -27 16t0 32t27 16q22 0 30 -20q17 -51 -4.5 -95t-74.5 -64q-7 -4 -12 2l-4 6
q-3 5 3 8q38 14 59 42t19 61z" />
    <glyph glyph-name="kgreenlandic" unicode="&#x138;" horiz-adv-x="392" 
d="M345 443h10q15 0 4 -9l-240 -213l272 -215q4 -4 -4 -6h-13q-4 0 -12 5l-257 204v-202q0 -7 -7 -7h-3q-7 0 -7 7v430q0 7 8 7h2q7 0 7 -7v-203l228 204q8 5 12 5z" />
    <glyph glyph-name="Lacute" unicode="&#x139;" horiz-adv-x="458" 
d="M120 686v-666h300q9 0 9 -8v-5q0 -7 -8 -7h-313q-8 0 -8 8v678q0 8 8 8h4q8 0 8 -8zM216 858l8 -13q4 -7 -3 -12l-181 -106q-4 -5 -10 1l-4 4q-3 8 1 11l178 116q8 6 11 -1z" />
    <glyph glyph-name="lacute" unicode="&#x13a;" horiz-adv-x="198" 
d="M108 715v-708q0 -7 -7 -7h-4q-7 0 -7 7v708q0 7 6 7h6q6 0 6 -7zM208 895l8 -13q1 -7 -3 -11l-172 -101q-7 -4 -10 1l-4 5q-3 5 1 9l170 111q5 4 10 -1z" />
    <glyph glyph-name="uni013B" unicode="&#x13b;" horiz-adv-x="458" 
d="M120 686v-666h300q9 0 9 -8v-5q0 -7 -8 -7h-313q-8 0 -8 8v678q0 8 8 8h4q8 0 8 -8zM288 -95q-4 -4 -16 -4q-19 0 -27 16t0 32t27 16q22 0 30 -20q17 -51 -4.5 -95t-74.5 -64q-7 -4 -12 2l-4 6q-3 5 3 8q38 14 59 42t19 61z" />
    <glyph glyph-name="uni013C" unicode="&#x13c;" horiz-adv-x="198" 
d="M108 715v-708q0 -7 -7 -7h-4q-7 0 -7 7v708q0 7 6 7h6q6 0 6 -7zM119 -95q-4 -4 -16 -4q-19 0 -27 16t0 32t27 16q22 0 30 -20q17 -51 -4.5 -95t-74.5 -64q-7 -4 -12 2l-4 6q-3 5 3 8q38 14 59 42t19 61z" />
    <glyph glyph-name="Lcaron" unicode="&#x13d;" horiz-adv-x="458" 
d="M120 686v-666h300q9 0 9 -8v-5q0 -7 -8 -7h-313q-8 0 -8 8v678q0 8 8 8h4q8 0 8 -8zM251 453l-4 4q-5 5 2 11q34 25 64 75q30 49 27 96q-6 -3 -15 -3q-19 0 -27 16t0 32t27 16q22 0 30 -20q20 -56 -13 -123q-32 -68 -83 -106q-4 -2 -8 2z" />
    <glyph glyph-name="lcaron" unicode="&#x13e;" horiz-adv-x="338" 
d="M108 715v-708q0 -7 -7 -7h-4q-7 0 -7 7v708q0 7 6 7h6q6 0 6 -7zM171 453l-4 4q-5 5 2 11q34 25 64 75q30 49 27 96q-6 -3 -15 -3q-19 0 -27 16t0 32t27 16q22 0 30 -20q20 -56 -13 -123q-32 -68 -83 -106q-4 -2 -8 2z" />
    <glyph glyph-name="Ldot" unicode="&#x13f;" horiz-adv-x="458" 
d="M120 686v-666h300q9 0 9 -8v-5q0 -7 -8 -7h-313q-8 0 -8 8v678q0 8 8 8h4q8 0 8 -8zM282 376q-8 9 -8 23t8 22q9 8 23 8t22 -8q9 -8 9 -22t-9 -23q-8 -9 -22 -9t-23 9z" />
    <glyph glyph-name="ldot" unicode="&#x140;" horiz-adv-x="308" 
d="M108 715v-708q0 -7 -7 -7h-4q-7 0 -7 7v708q0 7 6 7h6q6 0 6 -7zM192 357q-8 9 -8 23t8 22q9 8 23 8t22 -8q9 -8 9 -22t-9 -23q-8 -9 -22 -9t-23 9z" />
    <glyph glyph-name="Lslash" unicode="&#x141;" horiz-adv-x="458" 
d="M58 288l274 119q7 3 7 -3v-9q0 -7 -7 -10l-274 -119q-8 -5 -8 5v9q0 5 8 8zM120 686v-666h300q9 0 9 -8v-5q0 -7 -8 -7h-313q-8 0 -8 8v678q0 8 8 8h4q8 0 8 -8z" />
    <glyph glyph-name="lslash" unicode="&#x142;" horiz-adv-x="198" 
d="M96 722h6q6 0 6 -7v-378l102 48q7 3 7 -4v-8q0 -7 -7 -10l-102 -49v-307q0 -7 -7 -7h-4q-7 0 -7 7v299l-101 -48q-7 -4 -7 4v9q0 5 7 9l101 48v387q0 7 6 7z" />
    <glyph glyph-name="Nacute" unicode="&#x143;" horiz-adv-x="739" 
d="M627 694h5q7 0 7 -8v-676q0 -10 -10 -10h-12q-7 0 -12 6l-485 658v-656q0 -8 -8 -8h-4q-8 0 -8 8v676q0 10 10 10h8q8 0 12 -7l489 -664v663q0 8 8 8zM475 858l8 -13q5 -7 -3 -12l-181 -106q-5 -5 -10 1l-4 4q-3 8 1 11l178 116q8 6 11 -1z" />
    <glyph glyph-name="nacute" unicode="&#x144;" horiz-adv-x="546" 
d="M88 7v429q0 7 7 7h4q7 0 7 -7v-123q18 67 63 103.5t113 36.5q85 0 131.5 -50t46.5 -148v-247q0 -8 -7 -8h-4q-7 0 -7 8v248q0 86 -41.5 132.5t-118.5 46.5q-73 0 -123 -56q-48 -56 -53 -142l1 -230q0 -7 -7 -7h-4q-8 0 -8 7zM368 669l9 -13q6 -6 -2 -12l-152 -112
q-8 -4 -10 -2l-4 6q-6 6 -1 9l148 124q8 6 12 0z" />
    <glyph glyph-name="uni0145" unicode="&#x145;" horiz-adv-x="739" 
d="M627 694h5q7 0 7 -8v-676q0 -10 -10 -10h-12q-7 0 -12 6l-485 658v-656q0 -8 -8 -8h-4q-8 0 -8 8v676q0 10 10 10h8q8 0 12 -7l489 -664v663q0 8 8 8zM393 -95q-4 -4 -16 -4q-19 0 -27 16t0 32t27 16q22 0 30 -20q17 -51 -4.5 -95t-74.5 -64q-7 -4 -12 2l-4 6q-3 5 3 8
q38 14 59 42t19 61z" />
    <glyph glyph-name="uni0146" unicode="&#x146;" horiz-adv-x="546" 
d="M88 7v429q0 7 7 7h4q7 0 7 -7v-123q18 67 63 103.5t113 36.5q85 0 131.5 -50t46.5 -148v-247q0 -8 -7 -8h-4q-7 0 -7 8v248q0 86 -41.5 132.5t-118.5 46.5q-73 0 -123 -56q-48 -56 -53 -142l1 -230q0 -7 -7 -7h-4q-8 0 -8 7zM297 -95q-4 -4 -16 -4q-19 0 -27 16t0 32
t27 16q22 0 30 -20q17 -51 -4.5 -95t-74.5 -64q-7 -4 -12 2l-4 6q-3 5 3 8q38 14 59 42t19 61z" />
    <glyph glyph-name="Ncaron" unicode="&#x147;" horiz-adv-x="739" 
d="M627 694h5q7 0 7 -8v-676q0 -10 -10 -10h-12q-7 0 -12 6l-485 658v-656q0 -8 -8 -8h-4q-8 0 -8 8v676q0 10 10 10h8q8 0 12 -7l489 -664v663q0 8 8 8zM228 845l141 -96l142 96q8 5 14 5h14q14 0 2 -9l-4 -3l-150 -100q-8 -5 -13 -5h-10q-6 0 -14 5l-149 100q-18 12 0 12
h13q6 0 14 -5z" />
    <glyph glyph-name="ncaron" unicode="&#x148;" horiz-adv-x="546" 
d="M88 7v429q0 7 7 7h4q7 0 7 -7v-123q18 67 63 103.5t113 36.5q85 0 131.5 -50t46.5 -148v-247q0 -8 -7 -8h-4q-7 0 -7 8v248q0 86 -41.5 132.5t-118.5 46.5q-73 0 -123 -56q-48 -56 -53 -142l1 -230q0 -7 -7 -7h-4q-8 0 -8 7zM151 664h7q4 0 10 -6l105 -134l104 134
q5 5 9 5h8q12 0 5 -9l-108 -138q-7 -7 -12 -7h-11q-9 0 -13 7l-109 139q-7 9 5 9z" />
    <glyph glyph-name="napostrophe" unicode="&#x149;" horiz-adv-x="546" 
d="M88 7v429q0 7 7 7h4q7 0 7 -7v-123q18 67 63 103.5t113 36.5q85 0 131.5 -50t46.5 -148v-247q0 -8 -7 -8h-4q-7 0 -7 8v248q0 86 -41.5 132.5t-118.5 46.5q-73 0 -123 -56q-48 -56 -53 -142l1 -230q0 -7 -7 -7h-4q-8 0 -8 7zM1 453l-4 4q-5 5 2 11q34 25 64 75
q30 49 27 96q-6 -3 -15 -3q-19 0 -27 16t0 32t27 16q22 0 30 -20q20 -56 -13 -123q-32 -68 -83 -106q-4 -2 -8 2z" />
    <glyph glyph-name="Eng" unicode="&#x14a;" horiz-adv-x="740" 
d="M619 -77v64l-499 677v-656q0 -8 -8 -8h-4q-8 0 -8 8v676q0 10 10 10h8q8 0 12 -7l489 -662v661q0 8 8 8h5q7 0 7 -8l1 -759q1 -73 -36 -119q-38 -47 -99 -47q-67 0 -135 57q-6 5 -2 9l4 7q2 5 11 0l8 -6q21 -17 46 -30q43 -18 70 -18q50 0 80.5 39.5t31.5 103.5z" />
    <glyph glyph-name="eng" unicode="&#x14b;" horiz-adv-x="548" 
d="M251 -207q-8 5 -4 12l3 5q3 5 11 -1q47 -29 90 -29q49 0 70 36t22 111l-1 329q0 86 -41.5 132.5t-118.5 46.5q-73 0 -123 -56q-48 -56 -53 -142l1 -230q0 -7 -7 -7h-4q-8 0 -8 7v429q0 7 8 7h2q8 0 8 -7v-123q18 67 63 103.5t113 36.5q85 0 131.5 -50t46.5 -148l1 -330
q0 -82 -25 -122.5t-83 -40.5q-58 2 -102 31z" />
    <glyph glyph-name="Omacron" unicode="&#x14c;" horiz-adv-x="797" 
d="M755 347q0 -161 -98 -259q-97 -97 -258 -97q-160 0 -258 98t-98 258t98 258t258 98t258 -98t98 -258zM735 347q1 151 -92 243q-91 93 -243 93t-245 -93q-92 -92 -92 -243t93 -244q94 -92 244 -92q151 0 243 92q92 94 92 244zM284 788h230q7 0 7 -7v-6q0 -7 -7 -7h-230
q-8 0 -8 7v6q0 7 8 7z" />
    <glyph glyph-name="omacron" unicode="&#x14d;" 
d="M38 222q0 102 63 167q64 64 167 64q104 0 167 -64q64 -63 64 -167t-64 -168t-167 -64t-167 64q-63 64 -63 168zM56 222q0 -98 58 -156t154 -58t154 58q59 59 59 156q0 95 -59 154t-154 59t-154 -59q-58 -58 -58 -154zM154 611h230q8 0 8 -7v-6q0 -8 -8 -8h-230q-7 0 -7 9
v4q0 8 7 8z" />
    <glyph glyph-name="Obreve" unicode="&#x14e;" horiz-adv-x="797" 
d="M755 347q0 -161 -98 -259q-97 -97 -258 -97q-160 0 -258 98t-98 258t98 258t258 98t258 -98t98 -258zM735 347q1 151 -92 243q-91 93 -243 93t-245 -93q-92 -92 -92 -243t93 -244q94 -92 244 -92q151 0 243 92q92 94 92 244zM531 859l7 1q6 0 6 -10q-3 -53 -42.5 -86
t-102.5 -33q-62 0 -101.5 33t-43.5 86q1 10 6 10h12q3 0 4 -10q7 -47 39 -73t84 -26q53 0 85.5 26t39.5 73q2 9 7 9z" />
    <glyph glyph-name="obreve" unicode="&#x14f;" 
d="M38 222q0 102 63 167q64 64 167 64q104 0 167 -64q64 -63 64 -167t-64 -168t-167 -64t-167 64q-63 64 -63 168zM56 222q0 -98 58 -156t154 -58t154 58q59 59 59 156q0 95 -59 154t-154 59t-154 -59q-58 -58 -58 -154zM384 683h8q5 0 5 -9q-2 -61 -38 -98t-92 -37t-92 37
t-38 98q0 9 5 9h8q7 0 7 -8q4 -52 34 -84t76 -32t76 32t34 84q0 8 7 8z" />
    <glyph glyph-name="Ohungarumlaut" unicode="&#x150;" horiz-adv-x="797" 
d="M755 347q0 -161 -98 -259q-97 -97 -258 -97q-160 0 -258 98t-98 258t98 258t258 98t258 -98t98 -258zM735 347q1 151 -92 243q-91 93 -243 93t-245 -93q-92 -92 -92 -243t93 -244q94 -92 244 -92q151 0 243 92q92 94 92 244zM536 859l16 -12q8 -5 1 -12l-90 -100
q-6 -9 -12 -3l-3 2q-7 4 -1 12l76 111q6 8 13 2zM381 859l16 -12q8 -5 1 -12l-90 -100q-6 -8 -12 -4l-3 3q-7 4 -1 12l76 111q6 8 13 2z" />
    <glyph glyph-name="ohungarumlaut" unicode="&#x151;" 
d="M38 222q0 102 63 167q64 64 167 64q104 0 167 -64q64 -63 64 -167t-64 -168t-167 -64t-167 64q-63 64 -63 168zM56 222q0 -98 58 -156t154 -58t154 58q59 59 59 156q0 95 -59 154t-154 59t-154 -59q-58 -58 -58 -154zM389 701l16 -9q5 -5 1 -11l-96 -136q-5 -5 -10 -4
l-7 4q-2 2 1 10l84 140q6 9 11 6zM235 701l15 -9q5 -4 1 -11l-96 -136q-5 -5 -10 -4l-6 4q-4 2 1 10l83 140q6 9 12 6z" />
    <glyph glyph-name="OE" unicode="&#x152;" horiz-adv-x="765" 
d="M718 0h-327q-159 2 -253 96q-95 95 -95 251q0 159 97 253t259 94h309h2q6 -3 6 -6v-8q0 -6 -8 -6h-305l-1 -311h256q10 0 10 -6v-8q0 -6 -10 -6h-256v-323h316q9 0 9 -6v-7q0 -7 -9 -7zM382 20l1 654q-146 -5 -233 -93q-87 -89 -87 -234t87 -234q89 -89 232 -93z" />
    <glyph glyph-name="oe" unicode="&#x153;" horiz-adv-x="934" 
d="M260 8q93 0 146.5 58t53.5 156t-53.5 155.5t-146.5 57.5q-92 0 -148 -59t-56 -154q0 -96 56 -155t148 -59zM478 231h400q-3 94 -58 149t-147 55q-90 0 -141.5 -54.5t-53.5 -149.5zM38 222q0 105 61 167q61 64 161 64q81 0 135.5 -41t73.5 -114q18 74 71 114.5t133 40.5
q102 0 162 -65q61 -64 61 -169q0 -6 -10 -6h-408q1 -94 56 -150q54 -55 150 -55t158 66q6 8 11 3l5 -5q4 -4 -2 -11q-65 -71 -172 -71q-84 0 -140 41t-75 116q-18 -73 -73 -115t-136 -42q-99 0 -161 63q-61 64 -61 169z" />
    <glyph glyph-name="Racute" unicode="&#x154;" horiz-adv-x="569" 
d="M481 5l-189 294h-171v-291q0 -8 -8 -8h-5q-8 0 -8 8v676q0 10 10 10h196q100 0 161 -54q62 -54 62 -143q0 -87 -58.5 -141t-154.5 -57l186 -289q6 -10 -3 -10h-10q-5 0 -8 5zM308 674l-187 -1v-354h187q90 0 146 48q55 49 55 129q0 81 -55 130t-146 48zM425 858l8 -13
q5 -7 -3 -12l-181 -106q-5 -5 -10 1l-4 4q-3 8 1 11l178 116q8 6 11 -1z" />
    <glyph glyph-name="racute" unicode="&#x155;" horiz-adv-x="357" 
d="M321 422q-32 12 -71 12q-45 0 -85.5 -35t-58.5 -94l-1 -298q0 -7 -4 -7h-7q-6 0 -6 7v429q0 7 7 7h4q7 0 7 -7v-88q21 47 59.5 75t87.5 29q36 0 75 -12q7 -3 4 -8l-4 -7q-1 -6 -7 -3zM271 667l9 -12q6 -7 -2 -13l-152 -112q-6 -6 -10 -2l-4 6q-6 6 -1 9l148 124q7 6 12 0
z" />
    <glyph glyph-name="uni0156" unicode="&#x156;" horiz-adv-x="569" 
d="M481 5l-189 294h-171v-291q0 -8 -8 -8h-5q-8 0 -8 8v676q0 10 10 10h196q100 0 161 -54q62 -54 62 -143q0 -87 -58.5 -141t-154.5 -57l186 -289q6 -10 -3 -10h-10q-5 0 -8 5zM308 674l-187 -1v-354h187q90 0 146 48q55 49 55 129q0 81 -55 130t-146 48zM288 -95
q-4 -4 -16 -4q-19 0 -27 16t0 32t27 16q22 0 30 -20q17 -51 -4.5 -95t-74.5 -64q-7 -4 -12 2l-4 6q-3 5 3 8q38 14 59 42t19 61z" />
    <glyph glyph-name="uni0157" unicode="&#x157;" horiz-adv-x="416" 
d="M380 422q-31 12 -71 12q-45 0 -85.5 -35t-58.5 -94l-1 -298q0 -7 -4 -7h-7q-6 0 -6 7v429q0 7 7 7h4q7 0 7 -7v-88q21 47 59.5 75t87.5 29q36 0 75 -12q7 -3 4 -8l-4 -7q-1 -6 -7 -3zM170 -95q-4 -4 -16 -4q-19 0 -27 16t0 32t27 16q22 0 30 -20q17 -51 -4.5 -95
t-74.5 -64q-7 -4 -12 2l-4 6q-3 5 3 8q38 14 59 42t19 61z" />
    <glyph glyph-name="Rcaron" unicode="&#x158;" horiz-adv-x="569" 
d="M481 5l-189 294h-171v-291q0 -8 -8 -8h-5q-8 0 -8 8v676q0 10 10 10h196q100 0 161 -54q62 -54 62 -143q0 -87 -58.5 -141t-154.5 -57l186 -289q6 -10 -3 -10h-10q-5 0 -8 5zM308 674l-187 -1v-354h187q90 0 146 48q55 49 55 129q0 81 -55 130t-146 48zM150 845l141 -96
l142 96q8 5 14 5h14q14 0 2 -9l-4 -3l-150 -100q-8 -5 -13 -5h-10q-6 0 -14 5l-149 100q-18 12 0 12h13q6 0 14 -5z" />
    <glyph glyph-name="rcaron" unicode="&#x159;" horiz-adv-x="357" 
d="M321 422q-32 12 -71 12q-45 0 -85.5 -35t-58.5 -94l-1 -298q0 -7 -4 -7h-7q-6 0 -6 7v429q0 7 7 7h4q7 0 7 -7v-88q21 47 59.5 75t87.5 29q36 0 75 -12q7 -3 4 -8l-4 -7q-1 -6 -7 -3zM74 664h7q4 0 10 -6l105 -134l104 134q5 5 9 5h8q13 0 5 -9l-108 -138q-7 -7 -12 -7
h-11q-9 0 -13 7l-109 139q-8 9 5 9z" />
    <glyph glyph-name="Sacute" unicode="&#x15a;" horiz-adv-x="571" 
d="M55 74q-8 6 -3 11l3 6q5 7 13 -1q83 -80 227 -80q93 0 148 43q57 43 57 112t-48 103q-47 35 -179 68q-121 32 -167 66q-46 36 -48 110q-1 82 64 137q66 55 168 54q127 -1 197 -67q7 -7 4 -11l-3 -8q-3 -6 -11 0q-77 66 -191 66q-89 0 -149 -48q-59 -48 -60 -120
q0 -71 51 -102q55 -33 179 -65q114 -30 163 -68q48 -37 50 -105q3 -80 -57 -133q-61 -53 -174 -52q-63 0 -118 18q-77 27 -116 66zM391 858l8 -13q5 -7 -3 -12l-181 -106q-5 -5 -10 1l-4 4q-3 8 1 11l178 116q8 6 11 -1z" />
    <glyph glyph-name="sacute" unicode="&#x15b;" horiz-adv-x="420" 
d="M49 40q-4 4 -3 10l3 6q3 6 9 1q1 0 9.5 -6.5t13.5 -9t16 -8.5t21.5 -9.5t24.5 -7t31 -5.5t36 -2q63 0 105 29.5t42 71.5q0 37 -27 60q-9 9 -35 19q-32 13 -93 29q-84 21 -114 43q-32 23 -33 67q-2 56 43 91.5t118 34.5q78 0 131 -42q5 -5 4 -11l-2 -5q-3 -4 -9 -1l-8 5
q-23 15 -44 23q-39 13 -76 13q-63 0 -101 -28t-38 -74q0 -43 30 -61t111 -39l12 -3q78 -21 113 -45q34 -22 36 -73q1 -52 -46 -88q-48 -35 -123 -34q-96 0 -157 49zM311 669l10 -13q6 -6 -2 -12l-152 -112q-7 -6 -11 -2l-3 6q-6 6 -1 9l148 124q7 4 11 0z" />
    <glyph glyph-name="Scircumflex" unicode="&#x15c;" horiz-adv-x="571" 
d="M55 74q-8 6 -3 11l3 6q5 7 13 -1q83 -80 227 -80q93 0 148 43q57 43 57 112t-48 103q-47 35 -179 68q-121 32 -167 66q-46 36 -48 110q-1 82 64 137q66 55 168 54q127 -1 197 -67q7 -7 4 -11l-3 -8q-3 -6 -11 0q-77 66 -191 66q-89 0 -149 -48q-59 -48 -60 -120
q0 -71 51 -102q55 -33 179 -65q114 -30 163 -68q48 -37 50 -105q3 -80 -57 -133q-61 -53 -174 -52q-63 0 -118 18q-77 27 -116 66zM420 740l-135 92l-134 -92q-7 -4 -13 -4h-12q-17 0 0 11l141 95q8 5 13 5h10l12 -5l143 -95q17 -11 2 -11h-14q-6 0 -13 4z" />
    <glyph glyph-name="scircumflex" unicode="&#x15d;" horiz-adv-x="420" 
d="M49 40q-4 4 -3 10l3 6q3 6 9 1q1 0 9.5 -6.5t13.5 -9t16 -8.5t21.5 -9.5t24.5 -7t31 -5.5t36 -2q63 0 105 29.5t42 71.5q0 37 -27 60q-9 9 -35 19q-32 13 -93 29q-84 21 -114 43q-32 23 -33 67q-2 56 43 91.5t118 34.5q78 0 131 -42q5 -5 4 -11l-2 -5q-3 -4 -9 -1l-8 5
q-23 15 -44 23q-39 13 -76 13q-63 0 -101 -28t-38 -74q0 -43 30 -61t111 -39l12 -3q78 -21 113 -45q34 -22 36 -73q1 -52 -46 -88q-48 -35 -123 -34q-96 0 -157 49zM83 517l109 140q4 7 13 7h11q4 0 12 -7l108 -139q8 -9 -5 -9h-8q-4 0 -9 5l-104 135l-105 -134
q-5 -6 -10 -6h-7q-11 0 -5 8z" />
    <glyph glyph-name="Scedilla" unicode="&#x15e;" horiz-adv-x="571" 
d="M55 74q-8 6 -3 11l3 6q5 7 13 -1q83 -80 227 -80q93 0 148 43q57 43 57 112t-48 103q-47 35 -179 68q-121 32 -167 66q-46 36 -48 110q-1 82 64 137q66 55 168 54q127 -1 197 -67q7 -7 4 -11l-3 -8q-3 -6 -11 0q-77 66 -191 66q-89 0 -149 -48q-59 -48 -60 -120
q0 -71 51 -102q55 -33 179 -65q114 -30 163 -68q48 -37 50 -105q3 -80 -57 -133q-61 -53 -174 -52q-63 0 -118 18q-77 27 -116 66zM281 0h21l-29 -65q55 -1 80.5 -14t26.5 -47q1 -36 -24 -57.5t-67 -21.5q-52 0 -94 33q-5 5 -2 10l2 4q4 5 11 1q47 -29 83 -29q34 0 53.5 16
t18.5 45q-2 41 -98 41h-9q-10 0 -5 9z" />
    <glyph glyph-name="scedilla" unicode="&#x15f;" horiz-adv-x="420" 
d="M49 40q-4 4 -3 10l3 6q3 6 9 1q1 0 9.5 -6.5t13.5 -9t16 -8.5t21.5 -9.5t24.5 -7t31 -5.5t36 -2q63 0 105 29.5t42 71.5q0 37 -27 60q-9 9 -35 19q-32 13 -93 29q-84 21 -114 43q-32 23 -33 67q-2 56 43 91.5t118 34.5q78 0 131 -42q5 -5 4 -11l-2 -5q-3 -4 -9 -1l-8 5
q-23 15 -44 23q-39 13 -76 13q-63 0 -101 -28t-38 -74q0 -43 30 -61t111 -39l12 -3q78 -21 113 -45q34 -22 36 -73q1 -52 -46 -88q-48 -35 -123 -34q-96 0 -157 49zM206 0h22l-30 -68q58 -1 84.5 -15t27.5 -50q1 -38 -25.5 -60.5t-70.5 -22.5q-54 0 -98 35q-6 5 -3 10l3 5
q4 5 11 1q47 -31 87 -31q36 0 56.5 17t19.5 47q-2 44 -103 44h-9q-10 0 -6 9z" />
    <glyph glyph-name="Scaron" unicode="&#x160;" horiz-adv-x="571" 
d="M55 74q-8 6 -3 11l3 6q5 7 13 -1q83 -80 227 -80q93 0 148 43q57 43 57 112t-48 103q-47 35 -179 68q-121 32 -167 66q-46 36 -48 110q-1 82 64 137q66 55 168 54q127 -1 197 -67q7 -7 4 -11l-3 -8q-3 -6 -11 0q-77 66 -191 66q-89 0 -149 -48q-59 -48 -60 -120
q0 -71 51 -102q55 -33 179 -65q114 -30 163 -68q48 -37 50 -105q3 -80 -57 -133q-61 -53 -174 -52q-63 0 -118 18q-77 27 -116 66zM144 845l141 -96l142 96q8 5 14 5h14q14 0 2 -9l-4 -3l-150 -100q-8 -5 -13 -5h-10q-6 0 -14 5l-149 100q-18 12 0 12h13q6 0 14 -5z" />
    <glyph glyph-name="scaron" unicode="&#x161;" horiz-adv-x="421" 
d="M49 40q-4 4 -3 10l3 6q3 6 9 1q1 0 9.5 -6.5t13.5 -9t16 -8.5t21.5 -9.5t24.5 -7t31 -5.5t36 -2q63 0 105 29.5t42 71.5q0 37 -27 60q-9 9 -35 19q-32 13 -93 29q-84 21 -114 43q-32 23 -33 67q-2 56 43 91.5t118 34.5q78 0 131 -42q5 -5 4 -11l-2 -5q-3 -4 -9 -1l-8 5
q-23 15 -44 23q-39 13 -76 13q-63 0 -101 -28t-38 -74q0 -43 30 -61t111 -39l12 -3q78 -21 113 -45q34 -22 36 -73q1 -52 -46 -88q-48 -35 -123 -34q-96 0 -157 49zM86 665h7q4 0 10 -6l105 -134l104 134q5 5 9 5h8q13 0 5 -9l-108 -138q-7 -7 -12 -7h-11q-9 0 -13 7
l-109 139q-7 9 5 9z" />
    <glyph glyph-name="uni0162" unicode="&#x162;" horiz-adv-x="534" 
d="M277 684q0 9 -10 9h-1q-9 0 -9 -9v-676q0 -8 8 -8h4q8 0 8 8v676zM10 682v4q0 7 7 7h499q9 0 9 -7v-4q0 -8 -10 -8h-498q-7 0 -7 8z" />
    <glyph glyph-name="uni0163" unicode="&#x163;" horiz-adv-x="349" 
d="M306 40q8 8 12 3l5 -7q3 -7 -4 -11q-40 -34 -83 -34q-48 0 -73.5 43.5t-24.5 118.5l1 446q0 8 8 8h3q7 0 7 -8l-1 -440q2 -150 84 -150q38 0 66 31zM30 432v4q0 7 8 7h257q9 0 9 -7v-4q0 -7 -9 -7h-257q-8 0 -8 7z" />
    <glyph glyph-name="Tcaron" unicode="&#x164;" horiz-adv-x="533" 
d="M257 7v667h-240q-8 0 -8 8v4q0 8 8 8h498q9 0 9 -8v-4q0 -8 -9 -8h-238v-667q0 -7 -8 -7h-4q-8 0 -8 7zM125 845l141 -96l142 96q8 5 14 5h14q14 0 2 -9l-4 -3l-150 -100q-8 -5 -13 -5h-10q-6 0 -14 5l-149 100q-18 12 0 12h13q6 0 14 -5z" />
    <glyph glyph-name="tcaron" unicode="&#x165;" horiz-adv-x="372" 
d="M157 425l-1 -266q2 -150 84 -150q37 0 70 33q5 5 8 0l5 -6q4 -4 -4 -11q-40 -34 -83 -34q-48 0 -73 43t-24 119v272h-101q-8 0 -8 7v4q0 7 8 7h101l1 156q0 8 7 8h3q7 0 7 -8v-156h138q9 0 9 -7v-4q0 -7 -9 -7h-138zM322 635q-4 -4 -16 -4q-19 0 -27 16t0 32t27 16
q22 0 30 -20q17 -51 -4.5 -95t-74.5 -64q-7 -4 -12 2l-4 6q-3 5 3 8q38 14 59 42t19 61z" />
    <glyph glyph-name="Tbar" unicode="&#x166;" horiz-adv-x="533" 
d="M524 686v-4q0 -8 -9 -8h-238v-301h145q7 0 7 -7v-6q0 -7 -7 -7h-145v-346q0 -7 -8 -7h-4q-8 0 -8 7v346h-146q-7 0 -7 7v6q0 7 7 7h146v301h-240q-8 0 -8 8v4q0 8 8 8h498q9 0 9 -8z" />
    <glyph glyph-name="tbar" unicode="&#x167;" horiz-adv-x="349" 
d="M293 250h-136q0 -21 -1 -46v-45q2 -150 84 -150q37 0 70 33q5 5 8 0l5 -6q4 -4 -4 -11q-40 -34 -83 -34q-48 0 -73 43t-24 119v97h-97q-7 0 -7 6v6q0 7 7 7h97v156h-101q-8 0 -8 7v4q0 7 8 7h101l1 156q0 8 7 8h3q7 0 7 -8v-156h138q9 0 9 -7v-4q0 -7 -9 -7h-138v-156
h136q5 0 6 -1t1 -6v-6q0 -6 -7 -6z" />
    <glyph glyph-name="Utilde" unicode="&#x168;" horiz-adv-x="694" 
d="M100 272v413q0 8 8 8h4q8 0 8 -8v-414q0 -116 62 -189q63 -71 166 -71q101 0 163 71q62 73 62 189v415q0 7 9 7h4q8 0 8 -7v-415q0 -126 -68 -203t-179 -77q-111 -1 -179 76q-68 79 -68 205zM211 765q-1 -7 -9 -3l-7 5q-2 2 -2 8q29 83 92 83q21 0 39 -15t28.5 -33.5
t26.5 -33t35 -13.5q46 1 68 73q5 8 10 4l6 -7q4 -5 2 -7q-26 -83 -91 -83q-21 0 -39.5 15t-29 32.5t-26.5 32.5t-34 15q-42 -2 -69 -73z" />
    <glyph glyph-name="utilde" unicode="&#x169;" horiz-adv-x="548" 
d="M442 7v123q-18 -66 -63.5 -103t-112.5 -37q-85 0 -131.5 50t-46.5 148v247q0 4 1.5 6.5t5.5 1.5h5q6 0 6 -8v-247q0 -87 41.5 -133.5t118.5 -46.5q74 0 122 56q49 55 54 142l-1 230q0 9 8 7h4q7 0 7 -7v-429q0 -7 -7 -7h-4q-7 0 -7 7zM135 554q-3 -8 -8 -3l-6 5
q-4 4 -2 9q27 83 91 83q22 0 39.5 -15.5t28 -33.5t26 -33t34.5 -14q42 1 70 73q3 9 8 4l8 -6q4 -3 2 -8q-27 -83 -92 -83q-21 0 -39.5 15t-29 32.5t-27 32.5t-34.5 15q-41 -2 -69 -73z" />
    <glyph glyph-name="Umacron" unicode="&#x16a;" horiz-adv-x="694" 
d="M100 272v413q0 8 8 8h4q8 0 8 -8v-414q0 -116 62 -189q63 -71 166 -71q101 0 163 71q62 73 62 189v415q0 7 9 7h4q8 0 8 -7v-415q0 -126 -68 -203t-179 -77q-111 -1 -179 76q-68 79 -68 205zM232 788h230q7 0 7 -7v-6q0 -7 -7 -7h-230q-8 0 -8 7v6q0 7 8 7z" />
    <glyph glyph-name="umacron" unicode="&#x16b;" horiz-adv-x="548" 
d="M442 7v123q-18 -66 -63.5 -103t-112.5 -37q-85 0 -131.5 50t-46.5 148v247q0 4 1.5 6.5t5.5 1.5h5q6 0 6 -8v-247q0 -87 41.5 -133.5t118.5 -46.5q74 0 122 56q49 55 54 142l-1 230q0 9 8 7h4q7 0 7 -7v-429q0 -7 -7 -7h-4q-7 0 -7 7zM159 611h230q7 0 7 -8v-6
q0 -7 -7 -7h-230q-8 0 -8 8v4q0 9 8 9z" />
    <glyph glyph-name="Ubreve" unicode="&#x16c;" horiz-adv-x="694" 
d="M100 272v413q0 8 8 8h4q8 0 8 -8v-414q0 -116 62 -189q63 -71 166 -71q101 0 163 71q62 73 62 189v415q0 7 9 7h4q8 0 8 -7v-415q0 -126 -68 -203t-179 -77q-111 -1 -179 76q-68 79 -68 205zM479 859l7 1q6 0 6 -10q-3 -53 -42.5 -86t-102.5 -33q-62 0 -101.5 33
t-43.5 86q1 10 6 10h12q3 0 4 -10q7 -47 39 -73t84 -26q53 0 85.5 26t39.5 73q2 9 7 9z" />
    <glyph glyph-name="ubreve" unicode="&#x16d;" horiz-adv-x="548" 
d="M442 7v123q-18 -66 -63.5 -103t-112.5 -37q-85 0 -131.5 50t-46.5 148v247q0 4 1.5 6.5t5.5 1.5h5q6 0 6 -8v-247q0 -87 41.5 -133.5t118.5 -46.5q74 0 122 56q49 55 54 142l-1 230q0 9 8 7h4q7 0 7 -7v-429q0 -7 -7 -7h-4q-7 0 -7 7zM388 673h8q5 0 5 -9q-2 -61 -38 -98
t-92 -37t-92 37t-38 98q0 9 5 9h8q7 0 7 -8q4 -52 34 -84t76 -32t76 32t34 84q0 8 7 8z" />
    <glyph glyph-name="Uring" unicode="&#x16e;" horiz-adv-x="694" 
d="M100 272v413q0 8 8 8h4q8 0 8 -8v-414q0 -116 62 -189q63 -71 166 -71q101 0 163 71q62 73 62 189v415q0 7 9 7h4q8 0 8 -7v-415q0 -126 -68 -203t-179 -77q-111 -1 -179 76q-68 79 -68 205zM346 890q41 0 66 -25t25 -66t-25 -66t-66 -25q-40 0 -64.5 25t-24.5 66
t24.5 66t64.5 25zM295 850q-19 -19 -19 -51t19 -51t52 -19q32 0 51 19q20 19 20 51t-20 51q-20 20 -51 20q-32 0 -52 -20z" />
    <glyph glyph-name="uring" unicode="&#x16f;" horiz-adv-x="548" 
d="M442 7v123q-18 -66 -63.5 -103t-112.5 -37q-85 0 -131.5 50t-46.5 148v247q0 4 1.5 6.5t5.5 1.5h5q6 0 6 -8v-247q0 -87 41.5 -133.5t118.5 -46.5q74 0 122 56q49 55 54 142l-1 230q0 9 8 7h4q7 0 7 -7v-429q0 -7 -7 -7h-4q-7 0 -7 7zM272 686q41 0 66.5 -25t25.5 -65
q0 -41 -25.5 -66.5t-66.5 -25.5q-40 0 -64.5 25.5t-24.5 66.5t24.5 65.5t64.5 24.5zM202 596q0 -32 19.5 -51.5t51.5 -19.5t52 19.5t20 51.5q0 31 -20 50.5t-52 19.5t-51.5 -19.5t-19.5 -50.5z" />
    <glyph glyph-name="Uhungarumlaut" unicode="&#x170;" horiz-adv-x="694" 
d="M100 272v413q0 8 8 8h4q8 0 8 -8v-414q0 -116 62 -189q63 -71 166 -71q101 0 163 71q62 73 62 189v415q0 7 9 7h4q8 0 8 -7v-415q0 -126 -68 -203t-179 -77q-111 -1 -179 76q-68 79 -68 205zM460 865l16 -12q8 -5 1 -12l-90 -100q-7 -8 -12 -4l-3 3q-7 4 -1 12l76 111
q6 8 13 2zM305 865l16 -12q8 -5 1 -12l-90 -100q-6 -8 -12 -4l-3 3q-7 4 -1 12l76 111q6 8 13 2z" />
    <glyph glyph-name="uhungarumlaut" unicode="&#x171;" horiz-adv-x="548" 
d="M442 7v123q-18 -66 -63.5 -103t-112.5 -37q-85 0 -131.5 50t-46.5 148v247q0 4 1.5 6.5t5.5 1.5h5q6 0 6 -8v-247q0 -87 41.5 -133.5t118.5 -46.5q74 0 122 56q49 55 54 142l-1 230q0 9 8 7h4q7 0 7 -7v-429q0 -7 -7 -7h-4q-7 0 -7 7zM390 691l15 -10q7 -4 1 -10
l-96 -136q-4 -6 -9 -4l-7 4q-3 3 1 9l84 141q4 7 11 6zM235 691l15 -10q5 -4 1 -10l-96 -136q-3 -7 -9 -4l-7 4q-3 3 1 9l84 141q5 8 11 6z" />
    <glyph glyph-name="Uogonek" unicode="&#x172;" horiz-adv-x="694" 
d="M100 272v413q0 8 8 8h4q8 0 8 -8v-414q0 -116 62 -189q63 -71 166 -71q101 0 163 71q62 73 62 189v415q0 7 9 7h4q8 0 8 -7v-415q0 -126 -68 -203t-179 -77q-111 -1 -179 76q-68 79 -68 205zM412 -178q-28 -36 -82 -36q-38 0 -62 23t-24 60q-3 21 25 71q6 10 18 22
q3 3 7.5 7t6.5 6.5t3 3.5l20 19l15 14l7 -15q-82 -70 -82 -126q0 -29 18 -47t48 -18q35 0 66 28q7 7 12 4l6 -5q4 -3 -2 -11z" />
    <glyph glyph-name="uogonek" unicode="&#x173;" horiz-adv-x="548" 
d="M442 7v123q-18 -66 -63.5 -103t-112.5 -37q-85 0 -131.5 50t-46.5 148v247q0 4 1.5 6.5t5.5 1.5h5q6 0 6 -8v-247q0 -87 41.5 -133.5t118.5 -46.5q74 0 122 56q49 55 54 142l-1 230q0 9 8 7h4q7 0 7 -7v-429q0 -7 -7 -7h-4q-7 0 -7 7zM510 -160q-26 -33 -77 -35
q-37 0 -59.5 22t-22.5 57q0 34 24 62l20 23l26 24l22 17l15 -8q-38 -33 -48 -43q-40 -40 -40 -73q0 -28 17.5 -45t45.5 -17q35 0 62 27q7 7 12 4l5 -5q4 -4 -2 -10z" />
    <glyph glyph-name="Wcircumflex" unicode="&#x174;" horiz-adv-x="847" 
d="M210 8l-189 674q-3 12 5 12h7q5 0 8 -6l185 -663l185 662q1 7 8 7h8q8 0 9 -7l186 -662l184 662q1 7 8 7h7q9 0 5 -12l-189 -674q-2 -8 -12 -8h-7q-8 0 -13 8l-181 648l-181 -648q-3 -8 -9 -8h-11q-10 0 -13 8zM418 854h10l12 -5l143 -95q17 -11 2 -11h-14q-6 0 -13 4
l-135 92l-134 -92q-7 -4 -13 -4h-13q-16 0 0 11l142 95q8 5 13 5z" />
    <glyph glyph-name="wcircumflex" unicode="&#x175;" horiz-adv-x="657" 
d="M473 0h-6q-11 0 -13 8l-126 402l-125 -402q-3 -8 -14 -8h-7q-7 0 -12 8l-149 424q-3 11 4 11h8q6 0 8 -8l145 -420l130 421q1 7 8 7h9q5 0 8 -7l129 -421l146 420q3 8 8 8h8q8 0 3 -11l-149 -424q-2 -8 -13 -8zM213 510h-7q-11 0 -5 8l109 140q4 7 13 7h11q4 0 12 -7
l108 -139q8 -9 -5 -9h-8q-4 0 -9 5l-104 135l-105 -134q-5 -6 -10 -6z" />
    <glyph glyph-name="Ycircumflex" unicode="&#x176;" horiz-adv-x="529" 
d="M251 8v273l-229 403q-6 9 7 9h5q7 0 12 -8l215 -379l223 379q5 8 11 8h10q6 0 2 -10l-237 -401v-275q0 -7 -7 -7h-4q-8 0 -8 8zM398 744l-135 92l-134 -92q-5 -4 -13 -4h-12q-17 0 0 11l141 95q8 5 14 5h9q4 0 12 -5l143 -95q17 -11 2 -11h-13q-7 0 -14 4z" />
    <glyph glyph-name="ycircumflex" unicode="&#x177;" horiz-adv-x="432" 
d="M400 443h6q8 0 2 -13l-270 -649q-4 -9 -10 -9h-5q-8 0 -2 13l92 224l-190 421q-7 13 4 13h6q5 0 9 -9l180 -405l167 405q5 9 11 9zM89 518l109 140q4 7 13 7h11q4 0 12 -7l108 -139q8 -9 -5 -9h-8q-4 0 -9 5l-104 135l-105 -134q-5 -6 -10 -6h-7q-11 0 -5 8z" />
    <glyph glyph-name="Ydieresis" unicode="&#x178;" horiz-adv-x="529" 
d="M251 8v273l-229 403q-6 9 7 9h5q7 0 12 -8l215 -379l223 379q5 8 11 8h10q6 0 2 -10l-237 -401v-275q0 -7 -7 -7h-4q-8 0 -8 8zM151 789q0 15 8.5 24.5t23.5 9.5q14 0 23 -9.5t9 -24.5q0 -14 -9 -23t-23 -9q-15 0 -23.5 9t-8.5 23zM311 790q0 14 9 23.5t24 9.5
q14 0 23 -9.5t9 -23.5q0 -15 -9 -24t-23 -9q-15 0 -24 9t-9 24z" />
    <glyph glyph-name="Zacute" unicode="&#x179;" horiz-adv-x="564" 
d="M520 677l-458 -657h464q8 0 8 -8v-4q0 -8 -8 -8h-484q-19 0 -9 16l457 657h-441q-8 0 -8 7v6q0 7 8 7h462q19 0 9 -16zM384 858l8 -13q4 -7 -3 -12l-181 -106q-4 -5 -10 1l-4 4q-3 8 1 11l178 116q8 6 11 -1z" />
    <glyph glyph-name="zacute" unicode="&#x17a;" horiz-adv-x="455" 
d="M398 0h-336q-19 0 -9 16l319 409h-305q-7 0 -7 6v6q0 6 7 6h325q20 0 6 -17l-319 -408h319q7 0 7 -6v-6q0 -6 -7 -6zM346 657l9 -12q5 -6 -1 -12l-152 -112q-7 -6 -11 -2l-4 5q-5 6 -1 10l149 123q6 6 11 0z" />
    <glyph glyph-name="Zdotaccent" unicode="&#x17b;" horiz-adv-x="564" 
d="M520 677l-458 -657h464q8 0 8 -8v-4q0 -8 -8 -8h-484q-19 0 -9 16l457 657h-441q-8 0 -8 7v6q0 7 8 7h462q19 0 9 -16zM250 801q0 30 31 30q30 0 30 -30q0 -14 -8.5 -23t-21.5 -9q-14 0 -22.5 9t-8.5 23z" />
    <glyph glyph-name="zdotaccent" unicode="&#x17c;" horiz-adv-x="455" 
d="M398 0h-336q-19 0 -9 16l319 409h-305q-7 0 -7 6v6q0 6 7 6h325q20 0 6 -17l-319 -408h319q7 0 7 -6v-6q0 -6 -7 -6zM199 617q0 31 31 31t31 -31q0 -20 -15.5 -28t-31 0t-15.5 28z" />
    <glyph glyph-name="Zcaron" unicode="&#x17d;" horiz-adv-x="564" 
d="M520 677l-458 -657h464q8 0 8 -8v-4q0 -8 -8 -8h-484q-19 0 -9 16l457 657h-441q-8 0 -8 7v6q0 7 8 7h462q19 0 9 -16zM139 845l141 -96l142 96q8 5 14 5h14q14 0 2 -9l-4 -3l-150 -100q-8 -5 -13 -5h-10q-6 0 -14 5l-149 100q-18 12 0 12h13q6 0 14 -5z" />
    <glyph glyph-name="zcaron" unicode="&#x17e;" horiz-adv-x="455" 
d="M398 0h-336q-19 0 -9 16l319 409h-305q-7 0 -7 6v6q0 6 7 6h325q20 0 6 -17l-319 -408h319q7 0 7 -6v-6q0 -6 -7 -6zM110 665h7q4 0 10 -6l105 -134l104 134q5 5 9 5h8q13 0 5 -9l-108 -138q-7 -7 -12 -7h-11q-9 0 -13 7l-109 139q-7 9 5 9z" />
    <glyph glyph-name="longs" unicode="&#x17f;" horiz-adv-x="305" 
d="M117 565l1 -557q0 -8 -5 -8h-7q-6 0 -6 8l-1 562q0 75 34.5 119t93.5 44q53 0 102 -31q7 -4 5 -9l-4 -7q-2 -4 -9 0q-44 29 -92 29q-53 0 -82 -39t-30 -111z" />
    <glyph glyph-name="florin" unicode="&#x192;" horiz-adv-x="455" 
d="M484 692l-5 -7q-5 -5 -12 2q-1 1 -7 4.5t-9.5 5.5t-11.5 5.5t-16 5.5t-19.5 3.5t-24.5 1.5q-103 0 -127 -148l-20 -140h169q5 0 7 -1.5t1 -5.5l-1 -7q-2 -6 -10 -6h-169l-43 -313q-28 -200 -210 -135q-9 3 -5 10l5 7q2 2 10 1q79 -29 123 2t58 126l42 302h-67q-9 0 -7 8
l1 6q2 6 8 6h67l21 145q11 78 50.5 120.5t99.5 42.5q55 0 97 -30q8 -6 5 -11z" />
    <glyph glyph-name="uni0218" unicode="&#x218;" horiz-adv-x="571" 
d="M55 74q-8 6 -3 11l3 6q5 7 13 -1q83 -80 227 -80q93 0 148 43q57 43 57 112t-48 103q-47 35 -179 68q-121 32 -167 66q-46 36 -48 110q-1 82 64 137q66 55 168 54q127 -1 197 -67q7 -7 4 -11l-3 -8q-3 -6 -11 0q-77 66 -191 66q-89 0 -149 -48q-59 -48 -60 -120
q0 -71 51 -102q55 -33 179 -65q114 -30 163 -68q48 -37 50 -105q3 -80 -57 -133q-61 -53 -174 -52q-63 0 -118 18q-77 27 -116 66zM297 -95q-4 -4 -16 -4q-19 0 -27 16t0 32t27 16q22 0 30 -20q17 -51 -4.5 -95t-74.5 -64q-7 -4 -12 2l-4 6q-3 5 3 8q38 14 59 42t19 61z" />
    <glyph glyph-name="uni0219" unicode="&#x219;" horiz-adv-x="420" 
d="M49 40q-4 4 -3 10l3 6q3 6 9 1q1 0 9.5 -6.5t13.5 -9t16 -8.5t21.5 -9.5t24.5 -7t31 -5.5t36 -2q63 0 105 29.5t42 71.5q0 37 -27 60q-9 9 -35 19q-32 13 -93 29q-84 21 -114 43q-32 23 -33 67q-2 56 43 91.5t118 34.5q78 0 131 -42q5 -5 4 -11l-2 -5q-3 -4 -9 -1l-8 5
q-23 15 -44 23q-39 13 -76 13q-63 0 -101 -28t-38 -74q0 -43 30 -61t111 -39l12 -3q78 -21 113 -45q34 -22 36 -73q1 -52 -46 -88q-48 -35 -123 -34q-96 0 -157 49zM221 -95q-4 -4 -16 -4q-19 0 -27 16t0 32t27 16q22 0 30 -20q17 -51 -4.5 -95t-74.5 -64q-7 -4 -12 2l-4 6
q-3 5 3 8q38 14 59 42t19 61z" />
    <glyph glyph-name="uni021A" unicode="&#x21a;" horiz-adv-x="533" 
d="M257 7v667h-240q-8 0 -8 8v4q0 8 8 8h498q9 0 9 -8v-4q0 -8 -9 -8h-238v-667q0 -7 -8 -7h-4q-8 0 -8 7zM280 -95q-4 -4 -16 -4q-19 0 -27 16t0 32t27 16q22 0 30 -20q17 -51 -4.5 -95t-74.5 -64q-7 -4 -12 2l-4 6q-3 5 3 8q38 14 59 42t19 61z" />
    <glyph glyph-name="uni021B" unicode="&#x21b;" horiz-adv-x="349" 
d="M157 425l-1 -266q2 -150 84 -150q37 0 70 33q5 5 8 0l5 -6q4 -4 -4 -11q-40 -34 -83 -34q-48 0 -73 43t-24 119v272h-101q-8 0 -8 7v4q0 7 8 7h101l1 156q0 8 7 8h3q7 0 7 -8v-156h138q9 0 9 -7v-4q0 -7 -9 -7h-138zM228 -95q-4 -4 -16 -4q-19 0 -27 16t0 32t27 16
q22 0 30 -20q17 -51 -4.5 -95t-74.5 -64q-7 -4 -12 2l-4 6q-3 5 3 8q38 14 59 42t19 61z" />
    <glyph glyph-name="uni0237" unicode="&#x237;" horiz-adv-x="229" 
d="M141 -73v531q0 8 8 8h5q6 0 6 -8l1 -537q1 -78 -36 -124.5t-98 -46.5q-58 0 -107 37q-6 6 -3 10l5 8q1 4 10 -1l7 -5q42 -29 86 -29q54 0 85 41t31 116z" />
    <glyph glyph-name="circumflex" unicode="&#x2c6;" horiz-adv-x="404" 
d="M75 528l109 140q4 7 13 7h11q4 0 12 -7l108 -139q7 -9 -5 -9h-8q-4 0 -9 5l-104 135l-105 -134q-5 -6 -10 -6h-7q-11 0 -5 8z" />
    <glyph glyph-name="caron" unicode="&#x2c7;" horiz-adv-x="404" 
d="M81 675h7q4 0 10 -6l105 -134l104 134q5 5 9 5h8q12 0 5 -9l-108 -138q-7 -7 -12 -7h-11q-9 0 -13 7l-109 139q-7 9 5 9z" />
    <glyph glyph-name="uni02C9" unicode="&#x2c9;" horiz-adv-x="325" 
d="M48 694h229q8 0 8 -7v-6q0 -7 -8 -7h-229q-8 0 -8 7v6q0 7 8 7z" />
    <glyph glyph-name="breve" unicode="&#x2d8;" horiz-adv-x="370" 
d="M301 693h8q5 0 5 -9q-2 -61 -38 -98t-92 -37t-92 37t-38 98q0 9 5 9h8q7 0 7 -8q4 -52 34 -84t76 -32t76 32t34 84q0 8 7 8z" />
    <glyph glyph-name="dotaccent" unicode="&#x2d9;" horiz-adv-x="142" 
d="M71 689q19 0 27 -15.5t0 -31.5t-27 -16q-19 -1 -27 15.5t0 33t27 14.5z" />
    <glyph glyph-name="ring" unicode="&#x2da;" horiz-adv-x="261" 
d="M130 709q41 0 66 -24.5t25 -65.5t-25 -66t-66 -25t-65.5 25t-24.5 66t25 65.5t65 24.5zM60 618q0 -32 19 -51t51 -19t52 19.5t20 50.5q0 32 -20 51.5t-52 19.5t-51.5 -19.5t-18.5 -51.5z" />
    <glyph glyph-name="ogonek" unicode="&#x2db;" horiz-adv-x="217" 
d="M263 -178q-29 -36 -82 -37q-38 0 -62 23t-24 60q0 36 25 66l21 23l28 25q19 14 23 18l16 -8l-50 -45q-43 -41 -43 -77q0 -29 18 -47t48 -18q35 0 66 28q8 8 12 4l6 -5q4 -4 -2 -10z" />
    <glyph glyph-name="tilde" unicode="&#x2dc;" horiz-adv-x="389" 
d="M58 595q-4 -7 -9 -3l-6 5q-4 2 -2 9q28 84 91 82q22 0 40 -15t28 -33.5t26 -33t35 -13.5q44 2 69 73q3 9 9 4l7 -6q4 -1 2 -8q-26 -83 -92 -83q-21 0 -39 15t-29 32.5t-27 32.5t-34 15q-44 -2 -69 -73z" />
    <glyph glyph-name="hungarumlaut" unicode="&#x2dd;" horiz-adv-x="352" 
d="M293 717l15 -9q6 -4 1 -11l-96 -136q-5 -6 -9 -3l-7 4q-4 1 1 9l84 141q5 8 11 5zM138 717l15 -9q5 -4 1 -11l-96 -136q-4 -6 -9 -3l-7 4q-4 1 1 9l84 141q5 8 11 5z" />
    <glyph glyph-name="uni0313" unicode="&#x313;" horiz-adv-x="255" 
d="M148 -95q-4 -4 -16 -4q-19 0 -27 16t0 32t27 16q22 0 30 -20q17 -51 -4.5 -95t-74.5 -64q-7 -4 -12 2l-4 6q-3 5 3 8q38 14 59 42t19 61z" />
    <glyph glyph-name="uni0394" unicode="&#x394;" horiz-adv-x="658" 
d="M356 676l-264 -666l-1 -1q-3 -9 -13 -9h-53q-14 0 -10 13l274 670q4 10 14 10h52zM303 693h52h-1q11 0 15 -10l273 -668q4 -15 -10 -15h-45q-11 0 -14 10l-270 666v17zM591 0h-519v66h519v-66z" />
    <glyph glyph-name="uni03A9" unicode="&#x3a9;" horiz-adv-x="797" 
d="M526 20h238q8 0 8 -7v-6q0 -7 -8 -7h-265q-9 0 -9 10v10q111 45 178 134q67 88 67 193q0 151 -93 243q-92 93 -243 93t-244 -93q-92 -92 -92 -243q0 -109 68 -198q69 -88 185 -129v-10q0 -10 -10 -10h-265q-7 0 -7 8v5q0 7 7 7h232q-105 42 -168 130q-62 89 -62 197
q0 161 97 258q98 98 259 98q159 0 257 -98q98 -97 99 -258q-2 -109 -63 -197q-61 -87 -166 -130z" />
    <glyph glyph-name="uni03BC" unicode="&#x3bc;" horiz-adv-x="548" 
d="M100 -227h-6q-6 0 -6 8v654q0 8 7 8h4q7 0 7 -8q0 -47 -1 -82q0 -126 1 -177q3 -81 44 -124.5t116 -43.5q74 0 122 56q49 55 54 142l-1 230q0 7 8 7h3q8 0 8 -7v-429q0 -7 -8 -7h-2q-8 0 -8 7v123q-18 -66 -63.5 -103t-112.5 -37q-121 0 -160 97v-306q0 -8 -6 -8z" />
    <glyph glyph-name="pi" unicode="&#x3c0;" horiz-adv-x="572" 
d="M30 431v6q0 7 8 7h496q8 0 8 -7v-6q0 -7 -8 -7h-99v-416q0 -8 -8 -8h-4q-8 0 -8 8v416h-258v-416q0 -8 -8 -8h-4q-8 0 -8 8v416h-99q-8 0 -8 7z" />
    <glyph glyph-name="Wgrave" unicode="&#x1e80;" horiz-adv-x="847" 
d="M210 8l-189 674q-3 12 5 12h7q5 0 8 -6l185 -663l185 662q1 7 8 7h8q8 0 9 -7l186 -662l184 662q1 7 8 7h7q9 0 5 -12l-189 -674q-2 -8 -12 -8h-7q-8 0 -13 8l-181 648l-181 -648q-3 -8 -9 -8h-11q-10 0 -13 8zM503 727l-180 105q-8 5 -4 13l8 13q3 6 12 1l178 -117
q3 -3 0 -11l-4 -3q-5 -5 -10 -1z" />
    <glyph glyph-name="wgrave" unicode="&#x1e81;" horiz-adv-x="657" 
d="M186 0v11l130 425q1 7 8 7h8q7 0 4 -11l-133 -423q-1 -9 -13 -9h-4zM188 11v-11h-5q-11 0 -12 9l-150 423q-3 11 4 11h8q5 0 8 -8zM469 0v11l147 424q3 8 8 8h7q9 0 4 -11l-148 -423q-5 -9 -13 -9h-5zM472 11l-1 -11h-4q-11 0 -12 9l-133 423q-3 6 -1 9q0 2 4 2h8
q5 0 8 -7zM372 532l-151 111q-7 6 -1 12l8 13q4 6 12 0l147 -123q3 -1 0 -9l-5 -5q-5 -4 -10 1z" />
    <glyph glyph-name="Wacute" unicode="&#x1e82;" horiz-adv-x="847" 
d="M210 8l-189 674q-3 12 5 12h7q5 0 8 -6l185 -663l185 662q1 7 8 7h8q8 0 9 -7l186 -662l184 662q1 7 8 7h7q9 0 5 -12l-189 -674q-2 -8 -12 -8h-7q-8 0 -13 8l-181 648l-181 -648q-3 -8 -9 -8h-11q-10 0 -13 8zM547 858l8 -13q5 -7 -3 -12l-181 -106q-5 -5 -10 1l-4 4
q-3 8 1 11l178 116q8 6 11 -1z" />
    <glyph glyph-name="wacute" unicode="&#x1e83;" horiz-adv-x="657" 
d="M473 0h-6q-11 0 -13 8l-126 402l-125 -402q-3 -8 -14 -8h-7q-7 0 -12 8l-149 424q-3 11 4 11h8q6 0 8 -8l145 -420l130 421q1 7 8 7h9q5 0 8 -7l129 -421l146 420q3 8 8 8h8q8 0 3 -11l-149 -424q-2 -8 -13 -8zM424 659l10 -12q4 -7 -2 -12l-152 -113q-8 -5 -11 -1l-4 5
q-5 6 -1 10l149 123q6 6 11 0z" />
    <glyph glyph-name="Wdieresis" unicode="&#x1e84;" horiz-adv-x="847" 
d="M210 8l-189 674q-3 12 5 12h7q5 0 8 -6l185 -663l185 662q1 7 8 7h8q8 0 9 -7l186 -662l184 662q1 7 8 7h7q9 0 5 -12l-189 -674q-2 -8 -12 -8h-7q-8 0 -13 8l-181 648l-181 -648q-3 -8 -9 -8h-11q-10 0 -13 8zM311 789q0 21 16.5 29.5t32.5 0t16 -29.5q0 -20 -16 -28
t-32.5 0t-16.5 28zM472 790q0 33 32 33q14 0 23 -9.5t9 -23.5q0 -15 -9 -24t-23 -9q-32 0 -32 33z" />
    <glyph glyph-name="wdieresis" unicode="&#x1e85;" horiz-adv-x="657" 
d="M473 0h-6q-11 0 -13 8l-126 402l-125 -402q-3 -8 -14 -8h-7q-7 0 -12 8l-149 424q-3 11 4 11h8q6 0 8 -8l145 -420l130 421q1 7 8 7h9q5 0 8 -7l129 -421l146 420q3 8 8 8h8q8 0 3 -11l-149 -424q-2 -8 -13 -8zM216 624q0 15 9 24t23 9q15 0 24.5 -9t9.5 -24
q0 -14 -9.5 -23t-24.5 -9q-14 0 -23 9t-9 23zM410 657q20 0 28 -16t0 -32t-28 -16t-28.5 16t0 32t28.5 16z" />
    <glyph glyph-name="LatinCapitalLetterSharpS" unicode="&#x1e9e;" horiz-adv-x="633" 
d="M320 19q14 -9 42.5 -17.5t49.5 -8.5q64 0 107 39q44 41 44 98q0 40 -21 73.5t-54 55.5q-15 10 -40 25t-43.5 27.5t-31.5 24.5q-22 22 -22 48t21 48q24 24 47 36q28 17 48 43t20 54q0 49 -51 84q-50 36 -120 36q-89 0 -143 -58q-54 -57 -54 -152v-466q0 -8 -7 -8h-6
q-7 0 -7 8v467q0 102 60 165t157 64q67 1 129 -38q62 -38 62 -102q0 -29 -13.5 -52.5t-33 -38.5t-39.5 -28.5t-34.5 -29.5t-15.5 -34q0 -29 75 -73q139 -77 137 -177q0 -69 -50 -114q-49 -45 -120 -45q-51 0 -101 26q-10 4 -6 11l3 7q3 7 11 2z" />
    <glyph glyph-name="endash" unicode="&#x2013;" horiz-adv-x="579" 
d="M84 304h411q8 0 8 -7v-6q0 -7 -8 -7h-411q-8 0 -8 7v6q0 7 8 7z" />
    <glyph glyph-name="emdash" unicode="&#x2014;" horiz-adv-x="845" 
d="M84 304h677q8 0 8 -7v-6q0 -7 -8 -7h-677q-8 0 -8 7v6q0 7 8 7z" />
    <glyph glyph-name="quoteleft" unicode="&#x2018;" horiz-adv-x="249" 
d="M177 699l4 -4q5 -6 -3 -11q-32 -24 -64 -76q-29 -50 -26 -95q6 3 14 3q20 0 28 -16t0 -32t-28 -16q-23 0 -29 19q-19 55 12 124q33 68 84 106q3 3 8 -2z" />
    <glyph glyph-name="quoteright" unicode="&#x2019;" horiz-adv-x="249" 
d="M71 453l-4 4q-5 5 2 11q34 25 64 75q30 49 27 96q-6 -3 -15 -3q-19 0 -27 16t0 32t27 16q22 0 30 -20q20 -56 -13 -123q-32 -68 -83 -106q-4 -2 -8 2z" />
    <glyph glyph-name="quotesinglbase" unicode="&#x201a;" horiz-adv-x="271" 
d="M75 -157l-4 4q-5 5 2 11q32 24 64 76q30 49 27 95q-6 -3 -15 -3q-19 0 -27 16t0 32t27 16q22 0 30 -20q20 -56 -13 -123q-32 -68 -83 -106q-4 -2 -8 2z" />
    <glyph glyph-name="quotedblleft" unicode="&#x201c;" horiz-adv-x="401" 
d="M177 699l3 -4q6 -6 -2 -11q-32 -24 -64 -76q-29 -50 -26 -95q6 3 14 3q20 0 28 -16t0 -32t-28 -16q-23 0 -30 19q-20 56 13 124t84 106q2 2 8 -2zM241 513q6 3 14 3q20 0 28 -16t0 -32t-28 -16q-23 0 -30 19q-20 56 13 124t84 106q3 3 8 -2l3 -5q5 -6 -2 -10
q-32 -24 -64 -76q-29 -50 -26 -95z" />
    <glyph glyph-name="quotedblright" unicode="&#x201d;" horiz-adv-x="401" 
d="M224 451l-4 4q-5 5 3 11q35 26 63 75q30 49 27 96q-6 -3 -14 -3q-20 0 -28 16t0 32t28 16q21 0 29 -20q20 -56 -13 -123q-32 -68 -83 -106q-4 -2 -8 2zM160 637q-6 -3 -14 -3q-20 0 -28 16t0 32t28 16q21 0 29 -20q20 -56 -13 -123q-32 -68 -83 -106q-4 -2 -8 2l-4 5
q-3 5 3 10q34 26 63 75q30 49 27 96z" />
    <glyph glyph-name="quotedblbase" unicode="&#x201e;" horiz-adv-x="420" 
d="M223 -158l-4 4q-5 5 3 11q33 25 63 76q30 49 27 95q-6 -3 -14 -3q-20 0 -28 16t0 32t28 16q21 0 29 -20q20 -56 -13 -123q-32 -68 -83 -106q-4 -2 -8 2zM159 28q-6 -3 -14 -3q-20 0 -28 16t0 32t28 16q21 0 29 -20q20 -56 -13 -123q-32 -68 -83 -106q-4 -2 -8 2l-4 5
q-3 5 3 10q33 25 63 76q30 49 27 95z" />
    <glyph glyph-name="dagger" unicode="&#x2020;" horiz-adv-x="424" 
d="M387 463h-165v-565q0 -8 -8 -8h-4q-8 0 -8 8v565h-166q-7 0 -7 7v6q0 7 7 7h166v231q0 8 8 8h4q8 0 8 -8v-231h165q8 0 8 -7v-6q0 -7 -8 -7z" />
    <glyph glyph-name="daggerdbl" unicode="&#x2021;" horiz-adv-x="424" 
d="M202 155h-166q-7 0 -7 7v6q0 7 7 7h166v287h-166q-7 0 -7 7v6q0 7 7 7h166v232q0 8 8 8h4q8 0 8 -8v-232h165q8 0 8 -7v-6q0 -7 -8 -7h-165v-287h165q8 0 8 -7v-6q0 -7 -8 -7h-165v-257q0 -8 -8 -8h-4q-8 0 -8 8v257z" />
    <glyph glyph-name="bullet" unicode="&#x2022;" horiz-adv-x="375" 
d="M97 320q0 40 24.5 65t65.5 25t65.5 -25t24.5 -65q0 -41 -25 -66t-65 -25t-65 25t-25 66z" />
    <glyph glyph-name="ellipsis" unicode="&#x2026;" horiz-adv-x="790" 
d="M635 10q-9 9 -9 23t9 23t23 9t23 -9q10 -9 10 -23t-10 -23q-9 -9 -23 -9t-23 9zM108 56q9 9 23 9t23 -9q10 -9 10 -23t-10 -23q-9 -9 -23 -9t-23 9t-9 23t9 23zM418 10q-9 -9 -23 -9t-23 9t-9 23t9 23t23 9t23 -9q10 -9 10 -23t-10 -23z" />
    <glyph glyph-name="perthousand" unicode="&#x2030;" horiz-adv-x="1108" 
d="M38 549q0 70 42 112t112 42q69 0 111 -42t42 -112q0 -69 -42 -111t-111 -42q-70 0 -112 42t-42 111zM58 549q0 -59 37 -96t96 -37q61 0 97.5 36.5t36.5 96.5q0 61 -36.5 97.5t-97.5 36.5q-59 0 -96 -37t-37 -97zM416 144q0 -59 37 -96t97 -37t96.5 36.5t36.5 96.5
q0 61 -36.5 97.5t-96.5 36.5t-97 -37t-37 -97zM438 32q-42 43 -42 112t42 111q43 43 112 43t111 -43q43 -42 43 -111t-43 -112q-42 -42 -111 -42q-68 0 -112 42zM916 298q70 0 112 -42.5t42 -111.5t-42 -111.5t-112 -42.5q-69 0 -111 42.5t-42 111.5t42 111.5t111 42.5z
M783 144q0 -59 36.5 -96t96.5 -37q61 0 97.5 36.5t36.5 96.5q0 61 -37 97.5t-97 36.5q-59 0 -96 -37t-37 -97zM187 11l397 704q4 7 10 7h7q11 0 5 -11l-397 -704q-4 -7 -11 -7h-8q-11 0 -3 11z" />
    <glyph glyph-name="guilsinglleft" unicode="&#x2039;" horiz-adv-x="341" 
d="M232 436l5 -5q5 -5 -2 -13l-138 -152l138 -150q6 -10 2 -13l-5 -5q-6 -5 -12 2l-133 148q-7 7 -7 16v5q0 8 7 16l133 148q6 7 12 3z" />
    <glyph glyph-name="guilsinglright" unicode="&#x203a;" horiz-adv-x="341" 
d="M104 431l6 5q5 5 11 -3l134 -148q6 -7 6 -16v-5q0 -8 -6 -16l-134 -148q-6 -7 -11 -2l-6 5q-4 4 3 13l138 150l-138 152q-8 8 -3 13z" />
    <glyph glyph-name="fraction" unicode="&#x2044;" horiz-adv-x="471" 
d="M26 11l397 704q3 7 10 7h7q11 0 5 -11l-397 -704q-4 -7 -11 -7h-8q-11 0 -3 11z" />
    <glyph glyph-name="franc" unicode="&#x20a3;" horiz-adv-x="500" 
d="M108 191v-182q0 -9 -7 -9h-6q-7 0 -7 9v182h-61q-8 0 -8 7v6q0 7 8 7h61v472q0 11 11 11h362q8 0 8 -8v-4q0 -8 -8 -8h-353v-310h305q8 0 8 -8v-4q0 -8 -8 -8h-305v-133h194q8 0 8 -7v-6q0 -7 -8 -7h-194z" />
    <glyph glyph-name="lira" unicode="&#x20a4;" horiz-adv-x="522" 
d="M110 20h326q8 0 8 -7v-6q0 -7 -8 -7h-350q-10 0 -6 9q67 109 86 183h-104q-8 0 -8 7v6q0 7 8 7h108q12 59 -11 114h-94q-8 0 -8 7v6q0 7 8 7h85l-15 26q-15 29 -16 30q-26 56 -26 108q2 86 52 139q53 54 135 54q110 0 182 -86q8 -7 2 -13l-5 -5q-5 -5 -11 2
q-64 82 -169 82q-74 0 -120 -48t-46 -125q0 -45 19 -90q3 -8 20 -39l18 -35h164q8 0 8 -7v-6q0 -7 -8 -7l-155 1q21 -57 11 -115h141q8 0 8 -7v-6q0 -7 -8 -7h-145q-18 -73 -76 -172z" />
    <glyph glyph-name="peseta" unicode="&#x20a7;" horiz-adv-x="1050" 
d="M278 299h-186v-290q0 -9 -7 -9h-6q-7 0 -7 9v674q0 11 10 11h196q100 0 161 -54q62 -54 62 -143t-61 -144q-62 -54 -162 -54zM280 674l-188 -1v-354h188q90 0 146 48q55 49 55 129q0 81 -55 130t-146 48zM571 607h3q7 0 7 -8v-156h138q9 0 9 -7v-4q0 -7 -9 -7h-138v-266
q0 -150 83 -150q34 0 56 22q8 8 11 3l5 -7q3 -5 -4 -12q-32 -24 -71 -24q-48 0 -73.5 43t-24.5 119v272h-79q-8 0 -8 7v4q0 7 8 7h80v156q0 8 7 8zM715 22q-1 1 0 3.5t2 2.5l6 7q3 5 9 0q43 -26 116 -26q64 0 106 29t42 72q0 37 -27 60q-9 9 -35 19q-32 13 -93 29
q-84 21 -114 43q-32 23 -33 67q-2 56 43 91.5t118 34.5q75 0 131 -42q4 -4 3 -11l-2 -5q-2 -6 -8 -1q-1 1 -6.5 4.5t-8.5 5t-9.5 5.5t-12 6.5t-13.5 5.5t-16 5l-18 4.5t-21 3.5t-23 1q-63 0 -101 -28t-38 -74q0 -43 30 -61t110 -39l12 -3q84 -22 116.5 -46t33.5 -72
q1 -52 -46 -88q-48 -35 -123 -34q-75 0 -130 31z" />
    <glyph glyph-name="Euro" unicode="&#x20ac;" horiz-adv-x="622" 
d="M549 149l5 -3q5 -3 1 -13q-31 -68 -82.5 -105t-116.5 -37q-89 0 -151 66.5t-82 181.5h-77q-8 0 -8 7v6q0 7 8 7h74q-6 42 -6 88v28h-68q-8 0 -8 7v6q0 7 8 7h70q11 140 75 224q65 84 165 84q70 0 124 -42.5t84 -119.5q3 -10 -2 -13l-5 -3q-8 -5 -12 8q-23 68 -75.5 109
t-114.5 41q-91 0 -150 -78t-69 -210h185q8 0 8 -7v-6q0 -7 -8 -7h-186q-1 -6 -1 -28q0 -46 6 -88h181q8 0 8 -7v-6q0 -7 -8 -7h-177q20 -107 75.5 -167.5t135.5 -60.5q61 0 109 36t73 94q4 13 12 8z" />
    <glyph glyph-name="uni2113" unicode="&#x2113;" horiz-adv-x="449" 
d="M249 703q42 0 68.5 -32t34.5 -69.5t8 -79.5q0 -102 -71 -167q-59 -53 -149 -90q20 -275 142 -275q64 0 109 78q5 10 10 6l6 -3q6 -3 3 -10q-21 -41 -54.5 -66t-73.5 -25q-143 0 -163 287q-27 -11 -65 -24q-10 -3 -11 1l-3 8q-1 7 5 10q41 14 73 26q0 7 -0.5 21t-1.5 19
q0 4 -0.5 11t-1 18t-0.5 19q0 41 1 55q3 81 8 113q17 79 28 99q40 70 98 70zM249 683q-41 -2 -64 -35q-14 -22 -20 -34q-12 -22 -24 -92q-4 -28 -7 -104q0 -30 1 -51q0 -8 0.5 -18t1 -16t0.5 -10q0 -3 0.5 -8.5t1 -13.5t0.5 -15q201 84 201 236q0 73 -24.5 117t-66.5 44z
" />
    <glyph glyph-name="trademark" unicode="&#x2122;" horiz-adv-x="684" 
d="M339 692h12q7 0 12 -9l114 -223l115 223q4 9 12 9h14q9 0 9 -11v-287q0 -8 -7 -8h-6q-7 0 -7 8v275l-116 -228q-6 -8 -10 -9h-7q-5 1 -10 9l-117 229v-276q0 -8 -8 -8h-4q-8 0 -8 8v283q0 15 12 15zM284 687v-6q0 -7 -8 -7h-96l1 -278q0 -8 -7 -8h-6q-7 0 -7 8v278h-96
q-8 0 -8 7v5q0 8 8 8h211q8 0 8 -7z" />
    <glyph glyph-name="Omega" unicode="&#x2126;" horiz-adv-x="807" 
d="M46 20h232q-106 42 -169 130q-62 89 -62 197q0 160 98 258t259 98q159 0 257 -98t98 -258q0 -108 -62 -197q-61 -88 -167 -130h239q7 0 7 -7v-6q0 -7 -7 -7h-265q-9 0 -10 10v10q111 44 179 134q67 88 67 193q0 151 -92 243q-92 93 -244 93t-244 -93q-92 -92 -92 -243
q0 -109 68 -198q67 -88 184 -129v-10q1 -10 -9 -10h-265q-8 0 -8 8v5q0 7 8 7z" />
    <glyph glyph-name="estimated" unicode="&#x212e;" horiz-adv-x="891" 
d="M445 34q207 0 294 132q5 6 11 6h46q11 0 7 -10q-49 -88 -145 -138q-94 -48 -213 -48q-175 0 -288 100q-114 100 -114 271t114 271q115 100 288 100q175 0 288 -100q115 -100 115 -271v-12q2 -15 -14 -15h-639v-204q91 -82 250 -82zM195 578v-202h500v202q-91 82 -250 82
t-250 -82z" />
    <glyph glyph-name="partialdiff" unicode="&#x2202;" horiz-adv-x="539" 
d="M271 702q211 0 211 -296q0 -119 -26 -217q-47 -194 -221 -198q-87 0 -140 59q-52 58 -52 148q0 87 56 149q57 61 145 61q82 0 137 -45.5t66 -130.5q15 76 15 174q0 276 -191 276q-75 0 -134 -41q-8 -5 -11 1l-2 3q-4 6 3 13q59 44 144 44zM428 164q8 105 -40.5 164.5
t-143.5 59.5q-76 0 -129 -54q-52 -53 -52 -136t47 -136q48 -51 125 -51q137 0 193 153z" />
    <glyph glyph-name="increment" unicode="&#x2206;" horiz-adv-x="658" 
d="M347 684l295 -670q5 -14 -8 -14h-609q-13 0 -9 13l296 671q4 9 10 9h15q5 0 10 -9zM42 20h574l-287 655z" />
    <glyph glyph-name="product" unicode="&#x220f;" horiz-adv-x="621" 
d="M505 -124v760h-389v-760q0 -9 -8 -9h-4q-8 0 -8 9v770q0 10 10 10h409q10 0 10 -10v-770q0 -9 -8 -9h-4q-8 0 -8 9z" />
    <glyph glyph-name="summation" unicode="&#x2211;" horiz-adv-x="604" 
d="M66 -119l277 380l-278 381q-5 6 -2.5 10t10.5 4h474q8 0 8 -7v-6q0 -7 -8 -7h-453l269 -367q5 -8 0 -16l-269 -367h453q8 0 8 -7v-6q0 -7 -8 -7h-474q-18 0 -7 15z" />
    <glyph glyph-name="minus" unicode="&#x2212;" horiz-adv-x="579" 
d="M84 303h411q8 0 8 -7v-6q0 -7 -8 -7h-411q-8 0 -8 7v6q0 7 8 7z" />
    <glyph glyph-name="uni2215" unicode="&#x2215;" horiz-adv-x="471" 
d="M25 11l397 704q4 7 9 7h8q12 0 4 -11l-397 -704q-4 -7 -10 -7h-7q-12 0 -4 11z" />
    <glyph glyph-name="uni2219" unicode="&#x2219;" horiz-adv-x="263" 
d="M99 251q0 20 16 28.5t32 0t16 -28.5q0 -19 -16 -27t-32 0t-16 27z" />
    <glyph glyph-name="radical" unicode="&#x221a;" horiz-adv-x="545" 
d="M254 10l-144 413h-73q-8 0 -8 8v4q0 8 8 8h78q7 0 12 -9l147 -419l221 697q3 10 11 10h6q7 0 4 -10l-223 -702q-3 -10 -14 -10h-11q-11 0 -14 10z" />
    <glyph glyph-name="infinity" unicode="&#x221e;" horiz-adv-x="920" 
d="M460 236q46 74 104 117t117 43q81 0 131 -51q51 -51 51 -131q0 -81 -51 -132q-50 -50 -131 -50q-124 -1 -221 159q-98 -159 -221 -159q-80 0 -132 50q-50 52 -50 132q0 79 50 131q51 51 132 51q59 0 117 -43t104 -117zM239 376q-73 0 -117.5 -44.5t-44.5 -117.5
t44.5 -117.5t117.5 -44.5q63 0 122 48q59 50 90 113q-46 76 -101.5 119.5t-110.5 43.5zM468 213q31 -63 90 -113q58 -48 123 -48q73 0 117.5 44.5t44.5 117.5t-44.5 117.5t-117.5 44.5q-56 0 -112 -43.5t-101 -119.5z" />
    <glyph glyph-name="integral" unicode="&#x222b;" horiz-adv-x="398" 
d="M398 683l-3 -5q-3 -4 -12 0l-12 8l-19 13q-23 13 -52 13q-50 0 -70.5 -32t-20.5 -103v-322v-330q0 -161 -105 -163q-55 0 -100 36q-7 7 -4 12l3 6q3 5 10 1l16 -11q16 -12 33.5 -18t39.5 -6q85 0 87 134v323v330q0 87 24.5 124.5t84.5 38.5q50 0 96 -37q8 -7 4 -12z" />
    <glyph glyph-name="approxequal" unicode="&#x2248;" horiz-adv-x="596" 
d="M460 422q5 13 11 5l4 -5q2 -6 1 -11q-34 -109 -116 -109q-60 0 -95 52q-33 52 -86 51q-68 -1 -97 -93q-4 -12 -11 -4l-3 4q-4 4 -1 12q33 106 115 106q28 0 49 -11t34.5 -26.5t26.5 -31t30.5 -25.5t40.5 -9q66 1 97 95zM460 209q4 13 11 5l4 -5q2 -6 1 -11
q-34 -109 -116 -109q-60 0 -95 52q-33 52 -86 51q-68 -1 -97 -93q-4 -12 -11 -4l-3 4q-4 4 -1 12q33 106 115 106q28 0 49 -11t34.5 -26.5t26.5 -31t30.5 -25.5t40.5 -9q66 1 97 95z" />
    <glyph glyph-name="notequal" unicode="&#x2260;" horiz-adv-x="524" 
d="M292 404h148q8 0 8 -7v-6q0 -7 -8 -7h-157l-72 -165h229q8 0 8 -7v-6q0 -7 -8 -7h-238l-38 -90q-5 -8 -10 -8h-7q-9 0 -4 12l37 86h-96q-8 0 -8 7v6q0 7 8 7h105l71 165h-176q-8 0 -8 7v6q0 7 8 7h185l45 103q3 8 9 8h8q7 0 3 -12z" />
    <glyph glyph-name="lessequal" unicode="&#x2264;" horiz-adv-x="541" 
d="M491 115l-444 228q-9 5 -9 13v10q0 8 9 12l444 219q10 4 10 -4v-8q0 -8 -10 -12l-444 -213l444 -222q10 -4 10 -11v-8q0 -8 -10 -4zM495 -1h-449q-8 0 -8 7v6q0 7 8 7h449q8 0 8 -6v-8q0 -6 -8 -6z" />
    <glyph glyph-name="greaterequal" unicode="&#x2265;" horiz-adv-x="541" 
d="M494 343l-444 -228q-9 -5 -9 4v8q0 7 9 11l444 222l-444 213q-9 5 -9 12v8q0 9 9 4l444 -219q9 -4 9 -12v-10q0 -8 -9 -13zM495 -1h-449q-8 0 -8 6v8q0 6 8 6h449q8 0 8 -7v-6q0 -7 -8 -7z" />
    <glyph glyph-name="uni24C5" unicode="&#x24c5;" horiz-adv-x="826" 
d="M57 346q0 162 97 259q98 98 259 98q160 0 258 -98t98 -259q0 -160 -98 -258t-258 -98t-258 98t-98 258zM749 346q0 152 -92 244q-91 93 -244 93t-244 -93q-92 -92 -92 -244t92 -244q94 -92 244 -92q151 0 243 92q93 93 93 244zM319 168v360q0 10 10 10h10h102
q57 0 89.5 -28.5t32.5 -79.5t-32.5 -79t-89.5 -28h-102v-155q0 -9 -6 -9h-7q-7 0 -7 9zM442 518l-103 -1v-174h103q48 0 74.5 23t26.5 64q0 42 -26.5 65.5t-74.5 22.5z" />
    <glyph glyph-name="lozenge" unicode="&#x25ca;" horiz-adv-x="525" 
d="M237 -32l-175 348q-4 10 0 19l175 349q5 9 14 9h3h7h4q9 0 13 -9l166 -349q5 -11 0 -19l-166 -348q-4 -10 -14 -10h-3h-6h-4q-10 0 -14 10zM258 681l-178 -355l178 -356l168 356z" />
    <glyph glyph-name="ijacute" unicode="&#xe132;" horiz-adv-x="426" 
d="M326 443h4q7 0 7 -8l1 -510q0 -82 -25 -122.5t-83 -40.5q-58 2 -102 31q-8 5 -4 12l3 5q3 5 11 -1q47 -29 90 -29q49 0 70 36t22 111v508q0 8 6 8zM98 443h4q6 0 6 -7v-429q0 -7 -7 -7h-4q-7 0 -7 7v429q0 7 8 7zM45 542l148 123q7 7 11 0l9 -12q5 -8 -1 -12l-152 -113
q-7 -4 -10 -1l-4 6q-5 6 -1 9zM441 662l9 -12q5 -8 -2 -12l-152 -113q-8 -5 -11 -1l-4 5q-4 6 0 10l148 123q7 6 12 0z" />
    <glyph glyph-name="IJacute" unicode="&#xe133;" horiz-adv-x="602" 
d="M122 686v-679q0 -7 -8 -7h-4q-8 0 -8 7v679q0 8 8 8h4q8 0 8 -8zM490 153l-1 533q0 8 8 8h4q8 0 8 -8l1 -529q2 -74 -35.5 -120t-99.5 -47q-71 2 -135 58q-5 3 -2 9l4 6q5 5 10 1q66 -52 125 -54q49 0 80 39t33 104zM591 844l7 -13q6 -7 -3 -12l-181 -106
q-1 -2 -4.5 -1.5t-4.5 2.5l-4 4q-5 8 0 11l178 116q8 6 12 -1zM218 845l8 -13q4 -8 -3 -12l-181 -106q-4 -4 -10 1l-4 4q-3 8 1 11l178 116q8 6 11 -1z" />
    <glyph glyph-name="_1" horiz-adv-x="0" 
 />
    <glyph glyph-name="CR" horiz-adv-x="333" 
 />
    <glyph glyph-name="grave.case" horiz-adv-x="281" 
d="M41 835l8 13q4 6 12 1l178 -116q3 -3 0 -11l-4 -4q-5 -5 -10 -1l-181 106q-8 5 -3 12z" />
    <glyph glyph-name="dieresis.case" horiz-adv-x="306" 
d="M40 780q0 15 9 24t24 9q14 0 23 -9t9 -24q0 -14 -9 -23.5t-23 -9.5q-15 0 -24 9.5t-9 23.5zM201 780q0 15 9 24t23 9q15 0 24 -9t9 -24q0 -14 -9 -23t-24 -9q-14 0 -23 9t-9 23z" />
    <glyph glyph-name="macron.case" horiz-adv-x="302" 
d="M36 779h230q8 0 8 -7v-6q0 -7 -8 -7h-230q-7 0 -7 7v6q0 7 7 7z" />
    <glyph glyph-name="acute.case" horiz-adv-x="281" 
d="M232 848l8 -13q4 -7 -3 -12l-181 -106q-7 -3 -10 1l-4 5q-5 5 1 10l178 116q8 6 11 -1z" />
    <glyph glyph-name="circumflex.case" horiz-adv-x="433" 
d="M358 738l-142 96l-141 -96q-8 -5 -14 -5h-13q-18 0 0 12l149 100q8 5 14 5h10q1 0 13 -5l150 -100q11 -11 2 -12h-14q-6 0 -14 5z" />
    <glyph glyph-name="caron.case" horiz-adv-x="433" 
d="M75 845l141 -96l142 96q8 5 14 5h14q14 0 2 -9l-4 -3l-150 -100q-8 -5 -13 -5h-10q-6 0 -14 5l-149 100q-18 12 0 12h13q6 0 14 -5z" />
    <glyph glyph-name="breve.case" horiz-adv-x="370" 
d="M314 850h10q6 0 6 -9q-3 -54 -42.5 -86.5t-103.5 -32.5q-62 0 -101.5 33t-42.5 86q0 9 4 9h12q5 0 5 -9q14 -99 123 -99q110 0 124 99q2 9 6 9z" />
    <glyph glyph-name="dotaccent.case" horiz-adv-x="238" 
d="M151 791q2 -19 -14.5 -27t-33 0t-15.5 27q0 19 15.5 27t31.5 0t16 -27z" />
    <glyph glyph-name="ring.case" horiz-adv-x="261" 
d="M40 806q0 40 25 65t65 25q41 0 66 -25q25 -24 25 -65t-25 -66t-66 -25t-65.5 25t-24.5 66zM60 805q0 -31 19 -50.5t51 -19.5t52 19.5t20 50.5q0 32 -20 51.5t-52 19.5t-51 -19.5t-19 -51.5z" />
    <glyph glyph-name="tilde.case" horiz-adv-x="389" 
d="M58 755q-3 -6 -9 -3l-6 5q-4 2 -2 9q28 84 91 82q22 0 40 -15t28 -33.5t26 -33t35 -13.5q43 1 69 73q3 9 9 4l7 -6q4 -4 2 -8q-26 -83 -92 -83q-21 0 -39 15t-29 32.5t-27 32.5t-34 15q-44 -2 -69 -73z" />
    <glyph glyph-name="hungarumlaut.case" horiz-adv-x="348" 
d="M287 855l16 -12q8 -5 1 -12l-90 -100q-6 -9 -12 -3l-3 2q-7 4 -1 12l76 111q6 8 13 2zM132 855l16 -12q8 -5 1 -12l-90 -100q-7 -8 -12 -4l-3 3q-7 4 -1 12l76 111q6 8 13 2z" />
    <glyph glyph-name="zero.onum" horiz-adv-x="597" 
d="M123 55q-66 65 -66 168q0 104 66 167q67 64 176 64q110 0 175 -64q66 -63 66 -167q0 -103 -66 -168q-65 -64 -175 -64q-109 0 -176 64zM520 223q0 95 -61 153t-160 58q-100 0 -161 -58t-61 -153q0 -96 61 -154t161 -58q101 0 160 58q61 58 61 154z" />
    <glyph glyph-name="one.onum" horiz-adv-x="426" 
d="M48 354l165 89h10q10 0 10 -10v-413h165q8 0 8 -7v-6q0 -7 -8 -7h-350q-8 0 -8 7v6q0 7 8 7h165v400l-159 -85q-12 -7 -12 4v6q0 6 6 9z" />
    <glyph glyph-name="two.onum" horiz-adv-x="493" 
d="M428 0h-373q-18 0 -4 13q36 27 101 73q58 42 138 97l62 43q34 25 46 46.5t10 55.5q-3 48 -45 76.5t-111 28.5q-102 0 -167 -80q-6 -8 -11 -3l-5 5q-5 5 2 12q71 86 180 86q80 0 127 -34t50 -92q5 -74 -71 -123q-2 0 -264 -184h335q8 0 8 -7v-6q0 -7 -8 -7z" />
    <glyph glyph-name="three.onum" horiz-adv-x="514" 
d="M237 202q-10 0 -10 10v9l180 202h-316q-8 0 -8 8v4q0 8 8 8h333q10 0 10 -10v-10l-180 -203q98 -5 150.5 -50.5t52.5 -126.5q0 -86 -56 -139t-146 -53q-86 0 -140 51t-58 136q0 8 8 8h6q6 0 6 -8q5 -76 53.5 -121.5t124.5 -45.5q83 0 132.5 47t49.5 125q0 151 -200 159z
" />
    <glyph glyph-name="four.onum" horiz-adv-x="568" 
d="M389 443h17q10 0 10 -10v-392h87q8 2 8 -7v-6q0 -7 -8 -7h-87v-152q0 -8 -7 -8h-6q-7 0 -7 8v152h-352q-16 0 -6 12l335 402q6 8 16 8zM396 41v390l-325 -390h325z" />
    <glyph glyph-name="five.onum" horiz-adv-x="515" 
d="M254 251q92 0 148 -57q56 -56 56 -146q0 -89 -56 -143t-147 -54q-86 0 -139 52q-55 53 -59 136q0 9 6 9h8q6 0 6 -9q5 -76 54 -122t125 -46q82 0 132 48.5t50 128.5q0 82 -51 132q-49 51 -131 51q-37 0 -70 -14q-21 -8 -35.5 -18t-22.5 -18.5t-23 -26.5h-10q-10 0 -10 10
l15 269q1 10 12 10h291q8 0 8 -7v-6q0 -7 -8 -7h-283l-13 -236q57 64 147 64z" />
    <glyph glyph-name="six.onum" horiz-adv-x="524" 
d="M261 594h8q11 0 4 -13l-130 -223q55 33 119 33q91 0 147 -56q57 -55 57 -143q0 -87 -57 -144q-55 -57 -147 -57q-93 0 -149 55q-56 56 -56 146q0 64 29 111l165 282q5 9 10 9zM446 193q0 79 -51 128q-52 50 -133 50q-80 0 -133 -50t-53 -128q0 -82 51 -132t135 -50
q81 0 133 50q51 51 51 132z" />
    <glyph glyph-name="seven.onum" horiz-adv-x="463" 
d="M408 423h-370q-8 0 -8 7v6q0 7 8 7h384q14 0 9 -15l-213 -558q-4 -9 -11 -9h-7q-10 0 -5 9z" />
    <glyph glyph-name="eight.onum" horiz-adv-x="509" 
d="M57 159q0 60 34 101.5t95 56.5q-89 32 -89 125q0 71 43 112t115 41t114.5 -41t42.5 -112q0 -93 -89 -125q60 -17 94.5 -59t34.5 -99q0 -75 -54 -122q-53 -46 -143 -46q-89 0 -144 46q-54 47 -54 122zM77 162q0 -69 49 -110.5t129 -41.5q79 0 128 42t49 110q0 63 -49 103
q-50 41 -128 41q-79 0 -129 -41q-49 -40 -49 -103zM117 441q0 -52 38 -83.5t100 -31.5q63 0 100 31t37 84q0 62 -37 98t-100 36t-100.5 -35.5t-37.5 -98.5z" />
    <glyph glyph-name="nine.onum" horiz-adv-x="524" 
d="M262 -149h-8q-10 0 -3 13l129 223q-52 -33 -119 -33q-90 0 -148 56q-56 56 -56 143q0 86 56 144q57 57 148 57q93 0 149 -55q57 -55 57 -146q0 -63 -30 -111l-164 -282q-5 -9 -11 -9zM77 252q0 -80 51 -129q52 -49 134 -49q79 0 132 50t53 128q0 83 -50.5 132.5
t-134.5 49.5q-81 0 -134 -51q-51 -49 -51 -131z" />
    <glyph glyph-name="zero.numr" horiz-adv-x="381" 
d="M35 474q0 104 43 166q44 63 113 63q70 0 112.5 -63t42.5 -166q0 -105 -43 -167q-42 -63 -112 -63q-69 0 -113 63q-43 62 -43 167zM55 474q0 -95 37.5 -152.5t98.5 -57.5t98 58t37 152t-37 151.5t-98 57.5t-98.5 -57.5t-37.5 -151.5z" />
    <glyph glyph-name="one.numr" horiz-adv-x="216" 
d="M127 261v413h-78q-8 0 -8 7v6q0 7 8 7h88q10 0 10 -10v-423q0 -8 -8 -8h-4q1 0 0.5 0.5t-2.5 1.5q-6 3 -6 6z" />
    <glyph glyph-name="two.numr" horiz-adv-x="348" 
d="M295 254h-255q-7 0 -9.5 5t3.5 11l210 210l12 11q10 10 21 37.5t11 55.5q0 47 -30.5 73.5t-75.5 26.5q-65 0 -106 -48q-6 -8 -11 -2l-5 6q-4 4 2 11q47 53 115 53q61 0 96 -31.5t35 -94.5q0 -29 -11.5 -57t-24.5 -41l-11 -11l-196 -195h231q8 0 8 -6v-8q0 -6 -9 -6z" />
    <glyph glyph-name="three.numr" horiz-adv-x="345" 
d="M131 483v6q0 7 7 7h32q100 1 100 88q0 44 -27.5 71.5t-71.5 27.5q-60 0 -102 -49q-7 -7 -10 -2l-5 6q-4 4 0 10q48 55 116 55q54 0 87 -33t33 -86q0 -72 -60 -98q73 -24 73 -107q0 -60 -38 -97.5t-100 -37.5q-58 0 -95.5 33.5t-40.5 87.5q-2 8 7 8h4q8 0 9 -6
q4 -47 36 -75t81 -28q52 0 85 32t33 83q0 44 -28 70t-77 27h-41q-7 0 -7 7z" />
    <glyph glyph-name="four.numr" horiz-adv-x="385" 
d="M55 383h218v297zM355 376v-6q0 -7 -8 -7h-54v-101q0 -8 -7 -8h-6q-7 0 -7 7v102h-237q-20 0 -8 17l224 305q6 8 16 8h15q10 0 10 -10v-300h54q8 0 8 -7z" />
    <glyph glyph-name="five.numr" horiz-adv-x="364" 
d="M55 364q13 -100 125 -100q56 0 90 33.5t34 89.5q0 55 -35 89t-93 34q-15 1 -31 -4t-30 -13.5t-25 -16.5t-18 -15l-8 -7h-14q-6 0 -6 6l16 227q0 7 7 7h214q6 0 6 -7v-6q0 -7 -6 -7h-202l-13 -193q52 49 109 49q67 0 107.5 -39t41.5 -104q0 -64 -40 -103.5t-105 -39.5
q-63 0 -102.5 33t-41.5 88q0 7 4 7h10q6 0 6 -8z" />
    <glyph glyph-name="six.numr" horiz-adv-x="361" 
d="M175 694h7q9 0 6 -8l-87 -185q34 22 80 22q63 0 101 -38q39 -37 39 -101q0 -63 -39 -102q-38 -38 -101 -38t-102 38.5t-39 101.5q0 37 19 76l107 228q4 6 9 6zM181 264q54 -1 87 32t33 87q1 55 -32 87.5t-88 33.5q-54 0 -87.5 -33.5t-33.5 -87.5t33.5 -86.5t87.5 -32.5z
" />
    <glyph glyph-name="seven.numr" horiz-adv-x="312" 
d="M273 674h-252q-6 0 -6 7v6q0 7 6 7h268q12 0 7 -11l-160 -424q-3 -5 -7 -5h-10q-6 0 -5 7z" />
    <glyph glyph-name="eight.numr" horiz-adv-x="378" 
d="M79 579q0 -39 31.5 -66.5t78.5 -27.5t78.5 27.5t31.5 66.5q0 48 -30 76t-80 28t-80 -28t-30 -76zM60 370q0 -48 35.5 -77t94.5 -29q57 0 92.5 29.5t35.5 76.5q0 40 -36 67.5t-92 27.5t-93 -27.5t-37 -67.5zM40 368q0 37 24.5 66.5t65.5 42.5q-33 14 -52 42.5t-19 62.5
q0 56 35 88.5t95 32.5t95 -32.5t35 -88.5q0 -34 -19.5 -63t-52.5 -43q42 -13 66.5 -42t24.5 -66q0 -56 -41 -90t-108 -34t-108 34t-41 90z" />
    <glyph glyph-name="nine.numr" horiz-adv-x="361" 
d="M180 424q-63 0 -101.5 38.5t-38.5 100.5q0 64 38.5 102.5t101.5 38.5q64 0 102.5 -39t38.5 -102q0 -37 -19 -76l-107 -227q-1 -6 -9 -6h-6q-10 0 -6 9l87 183q-37 -22 -81 -22zM181 444q53 0 86.5 33t33.5 87t-33 87t-87 33q-55 0 -88 -33t-33 -87q0 -55 33 -87.5
t88 -32.5z" />
    <glyph glyph-name="zero.dnom" horiz-adv-x="381" 
d="M35 220q0 104 43 166q44 63 113 63q70 0 112.5 -63t42.5 -166q0 -105 -43 -167q-42 -63 -112 -63q-69 0 -113 63q-43 62 -43 167zM55 220q0 -95 37.5 -152.5t98.5 -57.5t98 58t37 152t-37 151.5t-98 57.5t-98.5 -57.5t-37.5 -151.5z" />
    <glyph glyph-name="one.dnom" horiz-adv-x="216" 
d="M28 441l108 1q10 0 10 -10l1 -424q0 -8 -8 -8h-6q-7 0 -7 8v412h-98q-8 0 -8 8v5q0 8 8 8z" />
    <glyph glyph-name="two.dnom" horiz-adv-x="348" 
d="M42 0h-2q-18 0 -6 16q22 27 71 76q67 67 96 94l43 40l12 11q10 10 21 37.5t11 55.5q0 47 -30.5 73.5t-75.5 26.5q-65 0 -106 -48q-6 -8 -11 -2l-5 6q-2 4 2 11q47 53 115 53q61 0 96 -31.5t35 -94.5q0 -29 -11.5 -57t-24.5 -41l-11 -11l-196 -195h231q8 0 8 -6v-7
q0 -7 -9 -7h-250h-3z" />
    <glyph glyph-name="three.dnom" horiz-adv-x="345" 
d="M133 229v6q0 7 8 7h31q45 1 72 24.5t27 63.5q0 44 -27 71t-72 28q-57 1 -102 -48q-6 -6 -10 -2l-5 5q-5 5 1 11q45 54 116 54q53 0 86 -33t33 -86q0 -70 -62 -97q76 -22 76 -108q0 -59 -38.5 -97t-99.5 -38q-59 0 -96 32.5t-41 86.5q0 10 6 10h8q5 0 5 -8q5 -47 36.5 -74
t81.5 -27q52 0 85 32t33 83q0 44 -28 70t-77 27h-39q-8 0 -8 7z" />
    <glyph glyph-name="four.dnom" horiz-adv-x="385" 
d="M55 129h218v297zM355 122v-6q0 -7 -8 -7h-54v-101q0 -8 -7 -8h-6q-7 0 -7 7v102h-237q-20 0 -8 17l224 305q6 8 16 8h15q10 0 10 -10v-300h54q8 0 8 -7z" />
    <glyph glyph-name="five.dnom" horiz-adv-x="364" 
d="M55 110q13 -100 125 -100q56 0 90 33.5t34 89.5q0 55 -35 89t-93 34q-15 1 -31 -4t-30 -13.5t-25 -16.5t-18 -15l-8 -7h-14q-6 0 -6 6l16 227q0 7 7 7h214q6 0 6 -7v-6q0 -7 -6 -7h-202l-13 -193q52 49 109 49q67 0 107.5 -39t41.5 -104q0 -64 -40 -103.5t-105 -39.5
q-63 0 -102.5 33t-41.5 88q0 7 4 7h10q6 0 6 -8z" />
    <glyph glyph-name="six.dnom" horiz-adv-x="361" 
d="M175 440h7q10 0 5 -8l-86 -185q34 22 80 22q63 0 101 -38q39 -37 39 -101q0 -63 -39 -102q-38 -38 -101 -38t-102 38.5t-39 101.5q0 35 19 76l107 228q3 6 9 6zM181 10q54 -1 87 32t33 87q1 55 -32 87.5t-88 33.5q-54 0 -87.5 -33.5t-33.5 -87.5t33.5 -86.5t87.5 -32.5z
" />
    <glyph glyph-name="seven.dnom" horiz-adv-x="312" 
d="M273 420h-251q-7 0 -7 6v7q0 6 7 6h267q11 0 7 -10l-160 -425q-1 -4 -7 -4h-10q-8 0 -5 7z" />
    <glyph glyph-name="eight.dnom" horiz-adv-x="378" 
d="M79 325q0 -39 31.5 -66.5t78.5 -27.5t78.5 27.5t31.5 66.5q0 48 -30 76t-80 28t-80 -28t-30 -76zM60 116q0 -48 35.5 -77t94.5 -29q57 0 92.5 29.5t35.5 76.5q0 40 -36 67.5t-92 27.5t-93 -27.5t-37 -67.5zM40 114q0 37 24.5 66.5t65.5 42.5q-33 14 -52 42.5t-19 62.5
q0 56 35 88.5t95 32.5t95 -32.5t35 -88.5q0 -34 -19.5 -63t-52.5 -43q42 -13 66.5 -42t24.5 -66q0 -56 -41 -90t-108 -34t-108 34t-41 90z" />
    <glyph glyph-name="nine.dnom" horiz-adv-x="361" 
d="M180 170q-63 0 -101.5 38.5t-38.5 100.5q0 64 38.5 102.5t101.5 38.5q64 0 102.5 -39t38.5 -102q0 -37 -19 -76l-107 -227q-1 -6 -9 -6h-6q-10 0 -6 9l87 183q-37 -22 -81 -22zM181 190q53 0 86.5 33t33.5 87t-33 87t-87 33q-55 0 -88 -33t-33 -87q0 -55 33 -87.5
t88 -32.5z" />
    <glyph glyph-name="zero.tnum" horiz-adv-x="600" 
d="M542 347q0 -161 -66 -259q-66 -97 -175 -97q-108 0 -176 98q-66 97 -66 258t66 258q68 98 176 98q109 0 175 -98q66 -97 66 -258zM140 590q-61 -91 -61 -243t61 -244q62 -92 161 -92q100 0 160 92q61 91 61 244t-61 244q-60 92 -160 92q-99 0 -161 -93z" />
    <glyph glyph-name="one.tnum" horiz-adv-x="600" 
d="M147 681v5q0 8 8 8h147q10 -1 10 -11v-663h180q8 0 8 -7v-6q0 -7 -8 -7h-384q-8 0 -8 7v6q0 7 8 7h184v654h-137q-8 0 -8 7z" />
    <glyph glyph-name="two.tnum" horiz-adv-x="600" 
d="M454 391l-15 -17l-63 -72l-139 -159l-106 -123h369q8 0 8 -6v-8q0 -6 -8 -6h-386h-4h-6q-15 0 -6 12q34 43 106 125q65 76 154 176l70 80l13 17q7 8 22 43q14 34 14 63q0 75 -45.5 121t-120.5 46q-49 0 -94.5 -22t-75.5 -61q-5 -8 -10 -1l-4 5q-4 8 1 13q72 86 183 86
q84 0 135 -52q52 -51 51 -135q0 -34 -13.5 -69.5t-29.5 -55.5z" />
    <glyph glyph-name="three.tnum" horiz-adv-x="600" 
d="M254 369l53 -1q77 -1 122 39t45 109q0 75 -45.5 121t-120.5 46q-100 0 -169 -82q-6 -8 -11 -2l-5 6q-5 5 1 11q74 87 184 87q84 0 135 -51.5t51 -135.5q0 -125 -112 -157q64 -16 99 -58.5t35 -105.5q0 -95 -60 -153q-58 -58 -156 -58q-93 0 -152 53q-58 54 -63 141
q0 8 7 8h6q5 0 7 -8q5 -79 58.5 -126.5t136.5 -47.5q89 0 142.5 52.5t53.5 138.5q0 67 -48 109.5t-127 44.5h-67q-8 0 -8 7v7q0 6 8 6z" />
    <glyph glyph-name="four.tnum" horiz-adv-x="600" 
d="M453 184h87q8 0 8 -6v-8q0 -6 -8 -6h-87v-156q0 -8 -7 -8h-6q-7 0 -7 8v156h-359h-2h-7q-14 0 -7 13l354 508q4 9 15 9h16q10 0 10 -11v-499zM433 184v497l-345 -497h345z" />
    <glyph glyph-name="five.tnum" horiz-adv-x="600" 
d="M461 674h-299l-23 -326q64 76 155 76q100 0 161 -61q61 -60 61 -158q0 -99 -60 -161q-58 -60 -156 -60q-93 0 -152 53q-58 54 -63 141q0 8 6 8h8q7 0 7 -8q5 -81 57.5 -127.5t136.5 -46.5q88 0 142 55t54 146q0 88 -56 144q-55 55 -147 55q-49 1 -97 -32q-9 -5 -32 -28
l-15 -16l-12 -13h-10q-10 0 -10 10l25 358q2 12 12 11h307q8 0 8 -8v-3q0 -9 -8 -9z" />
    <glyph glyph-name="six.tnum" horiz-adv-x="600" 
d="M512 201q0 -96 -58 -154t-154 -58t-154 58q-59 59 -59 154q0 49 16 88l183 399q3 6 9 6h8q9 0 2 -13l-146 -317q59 47 141 47q96 0 154 -57t58 -153zM492 201q0 84 -53 137t-139 53q-84 0 -139 -53q-54 -52 -54 -137q0 -86 53 -139t140 -53q86 0 139 53t53 139z" />
    <glyph glyph-name="seven.tnum" horiz-adv-x="600" 
d="M95 694h406q13 0 9 -15l-253 -670q-3 -9 -10 -9h-7q-7 0 -4 9l251 665h-392q-8 0 -8 7v6q0 7 8 7z" />
    <glyph glyph-name="eight.tnum" horiz-adv-x="600" 
d="M299 703q84 0 135.5 -48.5t51.5 -128.5q0 -54 -31 -96.5t-85 -61.5q70 -16 111 -64t42 -115q1 -89 -61 -145q-61 -54 -163 -54q-101 0 -162 54q-61 55 -61 145q0 66 41 114t112 65q-54 19 -85 61.5t-31 96.5q0 78 51 128q52 49 135 49zM503 190q0 74 -57 120
q-56 47 -146 47t-148 -47q-56 -47 -56 -120q0 -81 56 -131q55 -49 148 -49q92 0 147 49q56 50 56 131zM133 526q0 -62 47 -106q46 -43 120 -43q73 0 119 43q47 44 47 106q0 71 -45.5 114t-120.5 43t-121 -43t-46 -114z" />
    <glyph glyph-name="nine.tnum" horiz-adv-x="600" 
d="M486 379l-175 -372q-3 -7 -11 -7h-6q-10 0 -3 13l147 312q-58 -44 -139 -44q-96 0 -154 58t-58 152q0 95 58 153q59 59 154 59t154 -59t59 -153q0 -51 -26 -112zM299 301q88 0 140 52q53 53 53 139q0 85 -53 138t-140 53q-86 0 -139 -53t-53 -138q0 -86 53 -139
q52 -52 139 -52z" />
    <glyph glyph-name="zero.pnum" horiz-adv-x="597" 
d="M540 347q0 -161 -66 -259q-66 -97 -175 -97q-108 0 -176 98q-66 97 -66 258t66 258q68 98 176 98q109 0 175 -98q66 -97 66 -258zM138 590q-61 -91 -61 -243t61 -244q62 -92 161 -92q100 0 160 92q61 91 61 244t-61 244q-60 92 -160 92q-99 0 -161 -93z" />
    <glyph glyph-name="one.pnum" horiz-adv-x="312" 
d="M88 682v4q2 8 8 8h118q10 -1 10 -11v-675q0 -8 -7 -8h-5q-8 0 -8 8v666h-108q-8 0 -8 8z" />
    <glyph glyph-name="two.pnum" horiz-adv-x="549" 
d="M438 391l-15 -17l-63 -72l-139 -159l-106 -123h369q8 0 8 -6v-8q0 -6 -8 -6h-386h-4h-6q-15 0 -6 12q34 43 106 125q65 76 154 176l70 80l13 17q7 8 22 43q14 34 14 63q0 75 -45.5 121t-120.5 46q-49 0 -94.5 -22t-75.5 -61q-5 -8 -10 -1l-4 5q-5 8 1 13q72 86 183 86
q84 0 135 -52q52 -51 51 -135q0 -34 -13.5 -69.5t-29.5 -55.5z" />
    <glyph glyph-name="three.pnum" horiz-adv-x="545" 
d="M226 369l53 -1q77 -1 122 39t45 109q0 75 -45.5 121t-120.5 46q-100 0 -169 -82q-6 -8 -11 -2l-5 6q-5 5 1 11q73 87 184 87q84 0 135 -51.5t51 -135.5q0 -125 -112 -157q64 -16 99 -58.5t35 -105.5q0 -95 -60 -153q-58 -58 -156 -58q-93 0 -152 53q-58 54 -63 141
q0 8 7 8h6q5 0 7 -8q5 -79 58.5 -126.5t136.5 -47.5q89 0 142.5 52.5t53.5 138.5q0 67 -48 109.5t-127 44.5h-67q-8 0 -8 7v7q0 6 8 6z" />
    <glyph glyph-name="four.pnum" horiz-adv-x="612" 
d="M460 184h87q8 0 8 -6v-8q0 -6 -8 -6h-87v-156q0 -8 -7 -8h-6q-7 0 -7 8v156h-359h-2h-7q-14 0 -7 13l354 508q5 9 15 9h16q10 0 10 -11v-499zM440 184v497l-345 -497h345z" />
    <glyph glyph-name="five.pnum" horiz-adv-x="545" 
d="M433 674h-299l-23 -326q64 76 155 76q100 0 161 -61q61 -60 61 -158q0 -99 -60 -161q-58 -60 -156 -60q-93 0 -152 53q-58 54 -63 141q0 8 6 8h8q7 0 7 -8q5 -81 57.5 -127.5t136.5 -46.5q88 0 142 55t54 146q0 88 -56 144q-55 55 -147 55q-49 1 -97 -32q-9 -5 -32 -28
l-15 -16l-12 -13h-10q-10 0 -10 10l25 358q2 12 12 11h307q8 0 8 -8v-3q0 -9 -8 -9z" />
    <glyph glyph-name="six.pnum" horiz-adv-x="539" 
d="M482 201q0 -96 -58 -154t-154 -58t-154 58q-59 59 -59 154q0 49 16 88l183 399q3 6 9 6h8q9 0 2 -13l-146 -317q59 47 141 47q96 0 154 -57t58 -153zM462 201q0 84 -53 137t-139 53q-84 0 -139 -53q-54 -52 -54 -137q0 -86 53 -139t140 -53q86 0 139 53t53 139z" />
    <glyph glyph-name="seven.pnum" horiz-adv-x="483" 
d="M37 694h406q13 0 9 -15l-253 -670q-3 -9 -10 -9h-7q-7 0 -4 9l251 665h-392q-8 0 -8 7v6q0 7 8 7z" />
    <glyph glyph-name="eight.pnum" horiz-adv-x="561" 
d="M280 703q84 0 135.5 -48.5t51.5 -128.5q0 -54 -31 -96.5t-85 -61.5q70 -16 111 -64t42 -115q1 -89 -61 -145q-61 -54 -163 -54q-100 0 -162 54q-61 55 -61 145q0 66 41 114t112 65q-54 19 -85 61.5t-31 96.5q0 78 51 128q52 49 135 49zM484 190q0 74 -57 120
q-56 47 -146 47t-148 -47q-56 -47 -56 -120q0 -81 56 -131q55 -49 148 -49q92 0 147 49q56 50 56 131zM114 526q0 -62 47 -106q46 -43 120 -43q73 0 119 43q47 44 47 106q0 71 -45.5 114t-120.5 43t-121 -43t-46 -114z" />
    <glyph glyph-name="nine.pnum" horiz-adv-x="539" 
d="M456 379l-175 -372q-3 -7 -11 -7h-6q-10 0 -3 13l147 312q-58 -44 -139 -44q-96 0 -154 58t-58 152q0 95 58 153q59 59 154 59t154 -59t59 -153q0 -51 -26 -112zM269 301q88 0 140 52q53 53 53 139q0 85 -53 138t-140 53q-86 0 -139 -53t-53 -138q0 -86 53 -139
q52 -52 139 -52z" />
    <glyph glyph-name="zero.onum.pnum" horiz-adv-x="597" 
d="M123 55q-66 65 -66 168q0 104 66 167q67 64 176 64q110 0 175 -64q66 -63 66 -167q0 -103 -66 -168q-65 -64 -175 -64q-109 0 -176 64zM520 223q0 95 -61 153t-160 58q-100 0 -161 -58t-61 -153q0 -96 61 -154t161 -58q101 0 160 58q61 58 61 154z" />
    <glyph glyph-name="one.onum.pnum" horiz-adv-x="426" 
d="M48 354l165 89h10q10 0 10 -10v-413h165q8 0 8 -7v-6q0 -7 -8 -7h-350q-8 0 -8 7v6q0 7 8 7h165v400l-159 -85q-12 -7 -12 4v6q0 6 6 9z" />
    <glyph glyph-name="two.onum.pnum" horiz-adv-x="493" 
d="M428 0h-373q-18 0 -4 13q36 27 101 73q58 42 138 97l62 43q34 25 46 46.5t10 55.5q-3 48 -45 76.5t-111 28.5q-102 0 -167 -80q-6 -8 -11 -3l-5 5q-5 5 2 12q71 86 180 86q80 0 127 -34t50 -92q5 -74 -71 -123q-2 0 -264 -184h335q8 0 8 -7v-6q0 -7 -8 -7z" />
    <glyph glyph-name="three.onum.pnum" horiz-adv-x="514" 
d="M237 202q-10 0 -10 10v9l180 202h-316q-8 0 -8 8v4q0 8 8 8h333q10 0 10 -10v-10l-180 -203q98 -5 150.5 -50.5t52.5 -126.5q0 -86 -56 -139t-146 -53q-86 0 -140 51t-58 136q0 8 8 8h6q6 0 6 -8q5 -76 53.5 -121.5t124.5 -45.5q83 0 132.5 47t49.5 125q0 151 -200 159z
" />
    <glyph glyph-name="four.onum.pnum" horiz-adv-x="568" 
d="M389 443h17q10 0 10 -10v-392h87q8 2 8 -7v-6q0 -7 -8 -7h-87v-152q0 -8 -7 -8h-6q-7 0 -7 8v152h-352q-16 0 -6 12l335 402q6 8 16 8zM396 41v390l-325 -390h325z" />
    <glyph glyph-name="five.onum.pnum" horiz-adv-x="515" 
d="M254 251q92 0 148 -57q56 -56 56 -146q0 -89 -56 -143t-147 -54q-86 0 -139 52q-55 53 -59 136q0 9 6 9h8q6 0 6 -9q5 -76 54 -122t125 -46q82 0 132 48.5t50 128.5q0 82 -51 132q-49 51 -131 51q-37 0 -70 -14q-21 -8 -35.5 -18t-22.5 -18.5t-23 -26.5h-10q-10 0 -10 10
l15 269q1 10 12 10h291q8 0 8 -7v-6q0 -7 -8 -7h-283l-13 -236q57 64 147 64z" />
    <glyph glyph-name="six.onum.pnum" horiz-adv-x="524" 
d="M261 594h8q11 0 4 -13l-130 -223q55 33 119 33q91 0 147 -56q57 -55 57 -143q0 -87 -57 -144q-55 -57 -147 -57q-93 0 -149 55q-56 56 -56 146q0 64 29 111l165 282q5 9 10 9zM446 193q0 79 -51 128q-52 50 -133 50q-80 0 -133 -50t-53 -128q0 -82 51 -132t135 -50
q81 0 133 50q51 51 51 132z" />
    <glyph glyph-name="seven.onum.pnum" horiz-adv-x="463" 
d="M408 423h-370q-8 0 -8 7v6q0 7 8 7h384q14 0 9 -15l-213 -558q-4 -9 -11 -9h-7q-10 0 -5 9z" />
    <glyph glyph-name="eight.onum.pnum" horiz-adv-x="509" 
d="M57 159q0 60 34 101.5t95 56.5q-89 32 -89 125q0 71 43 112t115 41t114.5 -41t42.5 -112q0 -93 -89 -125q60 -17 94.5 -59t34.5 -99q0 -75 -54 -122q-53 -46 -143 -46q-89 0 -144 46q-54 47 -54 122zM77 162q0 -69 49 -110.5t129 -41.5q79 0 128 42t49 110q0 63 -49 103
q-50 41 -128 41q-79 0 -129 -41q-49 -40 -49 -103zM117 441q0 -52 38 -83.5t100 -31.5q63 0 100 31t37 84q0 62 -37 98t-100 36t-100.5 -35.5t-37.5 -98.5z" />
    <glyph glyph-name="nine.onum.pnum" horiz-adv-x="524" 
d="M262 -149h-8q-10 0 -3 13l129 223q-52 -33 -119 -33q-90 0 -148 56q-56 56 -56 143q0 86 56 144q57 57 148 57q93 0 149 -55q57 -55 57 -146q0 -63 -30 -111l-164 -282q-5 -9 -11 -9zM77 252q0 -80 51 -129q52 -49 134 -49q79 0 132 50t53 128q0 83 -50.5 132.5
t-134.5 49.5q-81 0 -134 -51q-51 -49 -51 -131z" />
    <glyph glyph-name="zero.onum.tnum" horiz-adv-x="600" 
d="M125 55q-66 65 -66 168q0 104 66 167q67 64 176 64q110 0 175 -64q66 -63 66 -167q0 -103 -66 -168q-65 -64 -175 -64q-109 0 -176 64zM522 223q0 95 -61 153t-160 58q-100 0 -161 -58t-61 -153q0 -96 61 -154t161 -58q101 0 160 58q61 58 61 154z" />
    <glyph glyph-name="one.onum.tnum" horiz-adv-x="600" 
d="M125 354l165 89h10q10 0 10 -10v-413h165q8 0 8 -7v-6q0 -7 -8 -7h-350q-8 0 -8 7v6q0 7 8 7h165v400l-159 -85q-12 -7 -12 4v6q0 6 6 9z" />
    <glyph glyph-name="two.onum.tnum" horiz-adv-x="600" 
d="M489 0h-373q-18 0 -4 13q36 27 101 73l137 97l63 43q34 25 46 46.5t10 55.5q-3 48 -45 76.5t-111 28.5q-102 0 -167 -80q-6 -8 -11 -3l-5 5q-5 5 2 12q71 86 180 86q80 0 127 -34t50 -92q5 -74 -71 -123q-2 0 -264 -184h335q8 0 8 -7v-6q0 -7 -8 -7z" />
    <glyph glyph-name="three.onum.tnum" horiz-adv-x="600" 
d="M280 202q-10 0 -10 10v9l180 202h-316q-8 0 -8 8v4q0 8 8 8h333q10 0 10 -10v-10l-180 -203q98 -5 150.5 -50.5t52.5 -126.5q0 -86 -56 -139t-146 -53q-86 0 -140 51t-58 136q0 8 8 8h6q6 0 6 -8q5 -76 53.5 -121.5t124.5 -45.5q83 0 132.5 47t49.5 125q0 151 -200 159z
" />
    <glyph glyph-name="four.onum.tnum" horiz-adv-x="600" 
d="M417 443h17q10 0 10 -10v-392h87q8 2 8 -7v-6q0 -7 -8 -7h-87v-152q0 -8 -7 -8h-6q-7 0 -7 8v152h-352q-16 0 -6 12l335 402q6 8 16 8zM424 41v390l-325 -390h325z" />
    <glyph glyph-name="five.onum.tnum" horiz-adv-x="600" 
d="M297 251q92 0 148 -57q56 -56 56 -146q0 -89 -56 -143q-55 -54 -147 -54q-86 0 -139 52q-55 53 -59 136q0 9 6 9h8q6 0 6 -9q5 -76 54 -122t125 -46q82 0 132 48.5t50 128.5q0 82 -51 132q-50 51 -131 51q-37 0 -70 -14q-21 -8 -35.5 -18t-22.5 -18.5t-23 -26.5h-10
q-10 0 -10 10l15 269q1 10 12 10h291q8 0 8 -7v-6q0 -7 -8 -7h-283l-13 -236q57 64 147 64z" />
    <glyph glyph-name="six.onum.tnum" horiz-adv-x="600" 
d="M299 594h8q11 0 4 -13l-130 -223q55 33 119 33q91 0 147 -56q57 -55 57 -143q0 -87 -57 -144q-55 -57 -147 -57q-93 0 -149 55q-56 56 -56 146q0 64 29 111l165 282q5 9 10 9zM484 193q0 79 -51 128q-52 50 -133 50q-80 0 -133 -50t-53 -128q0 -82 51 -132t135 -50
q81 0 133 50q51 51 51 132z" />
    <glyph glyph-name="seven.onum.tnum" horiz-adv-x="600" 
d="M476 423h-370q-8 0 -8 7v6q0 7 8 7h384q14 0 9 -15l-213 -558q-4 -9 -11 -9h-7q-10 0 -5 9z" />
    <glyph glyph-name="eight.onum.tnum" horiz-adv-x="600" 
d="M103 159q0 60 34 101.5t95 56.5q-89 32 -89 125q0 71 43 112t115 41t114.5 -41t42.5 -112q0 -93 -89 -125q60 -17 94.5 -59t34.5 -99q0 -75 -54 -122q-53 -46 -143 -46q-89 0 -144 46q-54 47 -54 122zM123 162q0 -69 49 -110.5t129 -41.5q79 0 128 42t49 110
q0 63 -49 103q-50 41 -128 41q-79 0 -129 -41q-49 -40 -49 -103zM163 441q0 -52 38 -83.5t100 -31.5q63 0 100 31t37 84q0 62 -37 98t-100 36t-100.5 -35.5t-37.5 -98.5z" />
    <glyph glyph-name="nine.onum.tnum" horiz-adv-x="600" 
d="M300 -149h-8q-10 0 -3 13l129 223q-52 -33 -119 -33q-90 0 -148 56q-56 56 -56 143q0 86 56 144q57 57 148 57q93 0 149 -55q57 -55 57 -146q0 -63 -30 -111l-164 -282q-5 -9 -11 -9zM115 252q0 -80 51 -129q52 -49 134 -49q79 0 132 50t53 128q0 83 -50.5 132.5
t-134.5 49.5q-82 0 -134 -51q-51 -49 -51 -131z" />
    </font>
</defs>
</svg>
