<?xml version="1.0" standalone="no"?>
<!DOCTYPE svg PUBLIC "-//W3C//DTD SVG 1.1//EN" "http://www.w3.org/Graphics/SVG/1.1/DTD/svg11.dtd" >
<svg xmlns="http://www.w3.org/2000/svg" xmlns:xlink="http://www.w3.org/1999/xlink" version="1.1">
<metadata>
Created by FontForge 20201107 at Mon Feb 25 03:00:00 2019
 By 
Copyright (c) 2019 by Eko Bimantara. All rights reserved.
</metadata>
<defs>
<font id="Ageo-MediumItalic" horiz-adv-x="600" >
  <font-face 
    font-family="Ageo Medium"
    font-weight="500"
    font-style="italic"
    font-stretch="normal"
    units-per-em="1000"
    panose-1="2 0 0 0 0 0 0 0 0 0"
    ascent="755"
    descent="-245"
    x-height="451"
    cap-height="694"
    bbox="-109.273 -248 1119.52 931.062"
    underline-thickness="50"
    underline-position="-225"
    unicode-range="U+000D-FB04"
  />
<missing-glyph horiz-adv-x="0" 
 />
    <glyph glyph-name="f_f" unicode="ff" horiz-adv-x="614" 
d="M665 441l-8 -52q-1 -10 -12 -10h-113l-58 -369q-1 -10 -12 -10h-61q-9 0 -8 10l58 369h-222l-58 -369q-1 -10 -12 -10h-61q-9 0 -8 10l58 369h-71q-10 0 -9 10l8 52q2 11 13 11h71l16 111q13 81 56 125.5t107 44.5q57 0 103 -33q6 -6 0 -15l-36 -50q-6 -8 -14 -3
q-32 21 -59 21q-60 0 -76 -97l-16 -104h221l17 111q13 81 56 125.5t107 44.5q56 0 103 -33q5 -8 -1 -15l-35 -50q-6 -8 -14 -3q-32 21 -59 21q-61 0 -76 -97l-16 -104h113q10 0 8 -11z" />
    <glyph glyph-name="fi" unicode="fi" horiz-adv-x="529" 
d="M551 618l-45 -45q-8 -6 -12 1l-4 6q-33 73 -114 73q-103 0 -119 -97l-16 -104h279q9 0 8 -10l-67 -432q-1 -10 -12 -10h-61q-9 0 -8 10l58 369h-209l-58 -369q-1 -10 -12 -10h-61q-9 0 -8 10l58 369h-71q-10 0 -9 10l8 52q2 11 13 11h71l16 111q14 81 68.5 125.5
t136.5 44.5q137 0 174 -103q3 -8 -4 -12z" />
    <glyph glyph-name="fl" unicode="fl" horiz-adv-x="533" 
d="M91 10l57 368h-72q-9 0 -9 10l9 54q4 9 11 9h72l18 112q14 82 70 125q59 45 135 44q58 0 106 -14l44 -12q7 -2 14.5 -4t11.5 -3t5 -1q8 -3 6 -14l-105 -674q-1 -10 -13 -10h-60q-9 0 -8 10l97 619q-56 24 -105 24q-102 0 -118 -97l-17 -105h117q11 0 9 -9l-9 -54
q0 -10 -11 -10h-117l-58 -369q0 -9 -11 -9h-62q-8 0 -7 10z" />
    <glyph glyph-name="f_f_i" unicode="ffi" horiz-adv-x="832" 
d="M339 733q57 0 103 -33q8 -4 0 -15l-36 -50q-6 -8 -14 -3q-28 21 -59 21q-60 0 -76 -97l-16 -104h221l17 111q12 81 66.5 125.5t137.5 44.5q137 0 174 -103q3 -8 -4 -12l-45 -45q-8 -8 -11 1l-5 10q-8 13 -14.5 21t-20.5 21t-34 20t-45 7q-103 0 -119 -97l-16 -104h280
q9 0 8 -10l-68 -432q-1 -10 -12 -10h-61q-9 0 -8 10l58 369h-209l-57 -369q-1 -10 -12 -10h-61q-9 0 -8 10l57 369h-221l-58 -369q-1 -10 -12 -10h-61q-9 0 -8 10l58 369h-71q-10 0 -9 10l8 52q2 11 13 11h71l16 111q14 82 56.5 126t106.5 44z" />
    <glyph glyph-name="f_f_l" unicode="ffl" horiz-adv-x="835" 
d="M392 632q-28 21 -59 21q-60 0 -76 -97l-16 -104h221l17 111q14 82 70 125q59 45 135 44q46 0 106 -13l44 -12l31 -9q8 -4 7 -14l-106 -674q-1 -10 -12 -10h-60q-10 0 -9 10l97 619q-56 24 -104 24q-103 0 -119 -97l-16 -104h117q10 0 8 -11l-8 -52q-1 -10 -12 -10h-116
l-59 -370q0 -9 -11 -9h-62q-8 0 -7 10l57 369h-221l-58 -369q-1 -10 -12 -10h-61q-9 0 -8 10l58 369h-71q-10 0 -9 10l8 52q2 11 13 11h71l16 111q14 82 56.5 126t106.5 44q57 0 103 -33q8 -4 0 -15l-36 -50q-6 -8 -14 -3z" />
    <glyph glyph-name=".notdef" horiz-adv-x="0" 
 />
    <glyph glyph-name=".null" horiz-adv-x="0" 
 />
    <glyph glyph-name="nonmarkingreturn" horiz-adv-x="333" 
 />
    <glyph glyph-name="NULL" horiz-adv-x="0" 
 />
    <glyph glyph-name="NULL" horiz-adv-x="0" 
 />
    <glyph glyph-name="CR.001" unicode="&#xd;" horiz-adv-x="0" 
 />
    <glyph glyph-name="space" unicode=" " horiz-adv-x="250" 
 />
    <glyph glyph-name="exclam" unicode="!" horiz-adv-x="252" 
d="M189 192h-66q-9 0 -8 10l74 482q1 10 12 10h70q9 0 8 -10l-78 -482q-1 -10 -12 -10zM189 47q-4 -26 -22 -41.5t-43 -15.5t-38 15.5t-9 41.5q4 25 21.5 40t43.5 15t38.5 -15t8.5 -40z" />
    <glyph glyph-name="quotedbl" unicode="&#x22;" horiz-adv-x="363" 
d="M282 441l-19 23q-5 8 5 14q72 52 91 118h-2q-24 2 -36.5 18t-8.5 41q5 28 23.5 44.5t45.5 16.5q46 0 51 -43q7 -58 -36 -133q-43 -74 -100 -103q-9 -4 -14 4zM203 596h-1q-25 2 -37.5 18t-8.5 41q4 27 23 44t47 17q46 0 51 -43q7 -57 -37 -133q-43 -74 -100 -103
q-9 -4 -14 4l-19 23q-5 8 5 14q71 49 91 118z" />
    <glyph glyph-name="numbersign" unicode="#" horiz-adv-x="651" 
d="M64 207l25 52q6 10 16 10h86l62 147h-101q-10 0 -6 9l26 52q3 10 15 10h96l83 197q4 10 14 10h60q9 0 5 -10l-83 -197h150l83 197q4 10 15 10h59q9 0 6 -10l-84 -197h99q9 0 6 -10l-26 -52q-4 -9 -14 -9h-95l-61 -147h108q9 0 5 -10l-25 -52q-4 -9 -15 -9h-104l-79 -188
q-4 -10 -15 -10h-59q-9 0 -5 10l78 188h-150l-78 -188q-4 -10 -15 -10h-59q-9 0 -6 10l79 188h-91q-9 0 -5 9zM270 269h150l62 147h-150z" />
    <glyph glyph-name="dollar" unicode="$" horiz-adv-x="566" 
d="M268 78l36 223q-102 27 -144 76.5t-32 128.5q10 77 77 133q67 55 162 63l5 29q1 10 11 10h36q10 0 9 -10l-5 -29q120 -10 167 -65q4 -7 0 -16l-39 -63q-5 -9 -12 -2q-50 50 -130 59l-36 -230q106 -29 148.5 -73t32.5 -116q-11 -90 -75 -144.5t-168 -60.5l-15 -93
q-1 -10 -12 -10h-35q-10 0 -9 10l15 93q-53 4 -100 21q-67 27 -96 61q-6 6 0 16l44 58q6 7 14 2q21 -23 61 -44t90 -27zM358 288l-34 -211q59 4 96.5 33.5t44.5 75.5q6 36 -19 59.5t-88 42.5zM319 400l34 215q-54 -6 -92.5 -35t-44.5 -70t16 -65t87 -45z" />
    <glyph glyph-name="percent" unicode="%" horiz-adv-x="754" 
d="M145 433q-37 43 -26 116q11 72 62 116q52 44 123 44t109 -44q37 -43 26 -116q-11 -72 -62 -116q-50 -43 -123 -43q-72 0 -109 43zM200 549q-5 -35 13 -57t53 -22t61 21q26 22 32 58t-13 58q-18 22 -54 22t-61 -22t-31 -58zM546 150q-6 -36 12.5 -58t54.5 -22
q35 0 60.5 21.5t31.5 58.5q5 35 -13 57t-54 22t-61.5 -22t-30.5 -57zM491 34q-36 43 -25 116q10 71 62 115t123 44q72 0 108 -44q37 -42 26 -115q-11 -72 -62 -116q-52 -44 -123 -44t-109 44zM167 12l508 703q4 7 12 7h67q12 0 4 -11l-509 -704q-4 -7 -12 -7h-67
q-12 0 -3 12z" />
    <glyph glyph-name="ampersand" unicode="&#x26;" horiz-adv-x="668" 
d="M357 619q-37 0 -64 -24.5t-34 -66.5q-9 -53 56 -127q5 -7 26 -28l11 -13l153 -170q48 76 66 182q1 10 12 10h66q9 0 8 -10q-26 -152 -95 -247l102 -114q8 -11 -6 -11h-84q-10 0 -17 7l-51 56q-89 -79 -208 -79q-122 0 -187 63t-50 162q20 131 152 182q-53 66 -41 142
q13 77 68 123.5t133 46.5q109 0 137 -84q3 -7 -6 -15l-61 -37q-10 -4 -13 3q-19 49 -73 49zM452 123l-196 217q-90 -32 -108 -129q-10 -63 35 -105t127 -42q77 0 142 59z" />
    <glyph glyph-name="quotesingle" unicode="'" horiz-adv-x="207" 
d="M125 441l-18 24q-6 6 4 13q73 53 92 118q-1 0 -2 1q-53 5 -45 60q4 27 23 43.5t47 16.5q47 0 51 -43q7 -57 -37 -134q-44 -75 -99 -102q-9 -4 -16 3z" />
    <glyph glyph-name="parenleft" unicode="(" horiz-adv-x="295" 
d="M266 685q8 9 18 9h63q9 -2 3 -9q-40 -54 -88 -143q-69 -130 -93 -276q-37 -226 48 -418q5 -8 -5 -8h-63q-11 0 -15 9q-18 37 -34 99q-10 41 -18 86q-15 110 4 232q24 146 93 276q51 94 87 143z" />
    <glyph glyph-name="parenright" unicode=")" horiz-adv-x="295" 
d="M168 694h64q8 0 13 -9q22 -55 34 -104t17 -88q15 -114 -3 -227q-24 -156 -94 -280q-51 -92 -86 -137q-7 -9 -16 -9h-64q-9 0 -3 8q146 192 180 418q10 84 9.5 149.5t-14.5 124.5q-13 63 -24 93q-13 37 -20 52q-5 9 7 9z" />
    <glyph glyph-name="asterisk" unicode="*" horiz-adv-x="417" 
d="M339 328l-60 112l-96 -112q-9 -9 -15 -1l-40 42q-6 7 2 15l97 93l-110 66q-7 4 -2 13l44 55q8 9 14 3l87 -68l15 135q0 11 11 11h66q10 0 8 -11l-30 -135l109 68q10 6 14 -3l26 -55q3 -8 -6 -13l-129 -66l66 -93q5 -9 -4 -15l-52 -42q-9 -9 -15 1z" />
    <glyph glyph-name="plus" unicode="+" horiz-adv-x="557" 
d="M322 73h-63q-10 0 -9 10l27 170h-167q-9 0 -8 10l9 58q1 10 11 10h167l27 169q1 10 12 10h63q9 0 8 -10l-27 -169h167q10 0 9 -10l-9 -58q-1 -10 -12 -10h-167l-27 -170q-1 -10 -11 -10z" />
    <glyph glyph-name="comma" unicode="," horiz-adv-x="235" 
d="M42 -159l-19 24q-7 8 3 13q75 53 95 121h-2q-25 1 -38 18t-9 43q5 28 24.5 45t47.5 17q22 1 36 -11.5t16 -32.5q7 -60 -38 -137q-43 -75 -101 -104q-7 -4 -15 4z" />
    <glyph glyph-name="hyphen" unicode="-" horiz-adv-x="405" 
d="M98 264l9 57q1 10 11 10h273q10 0 9 -10l-9 -57q-1 -10 -12 -10h-273q-9 0 -8 10z" />
    <glyph glyph-name="period" unicode="." horiz-adv-x="263" 
d="M150 112q26 0 40 -17t10 -44t-24 -44t-46 -17q-28 0 -42 17t-9 44t24.5 44t46.5 17z" />
    <glyph glyph-name="slash" unicode="/" horiz-adv-x="389" 
d="M3 10l415 703q6 9 15 9h62q10 0 6 -10l-417 -703q-4 -9 -15 -9h-62q-8 0 -4 10z" />
    <glyph glyph-name="zero" unicode="0" horiz-adv-x="597" 
d="M108 347q26 161 108 258q83 98 194 98q109 0 162 -98q52 -97 27 -258q-25 -160 -109 -259q-82 -97 -192 -97t-163 98q-53 97 -27 258zM311 76q70 0 126 74q55 75 75 197q19 119 -13 196q-31 75 -102 75t-127 -75q-55 -73 -75 -196q-20 -122 12 -197q32 -74 104 -74z" />
    <glyph glyph-name="one" unicode="1" horiz-adv-x="320" 
d="M165 624l9 59q5 11 13 11h166q10 0 8 -11l-106 -673q-1 -10 -12 -10h-66q-9 0 -8 10l95 604h-90q-10 0 -9 10z" />
    <glyph glyph-name="two" unicode="2" horiz-adv-x="550" 
d="M512 390l-14 -18q-22 -22 -274 -292h272q10 0 8 -11l-9 -59q-1 -10 -12 -10h-331h-22h-68q-7 0 -8 4t4 9l374 405q44 50 51 94q8 48 -17 78.5t-74 30.5q-72 0 -140 -69q-8 -8 -15 0l-34 45q-6 8 3 17q89 89 202 89q85 0 129 -51.5t30 -137.5q-13 -75 -55 -124z" />
    <glyph glyph-name="three" unicode="3" horiz-adv-x="545" 
d="M291 396h49q47 0 82.5 33.5t43.5 82.5q7 49 -18 78t-73 29q-74 0 -140 -68q-7 -7 -14 -1l-35 49q-5 8 1 15q89 89 202 89q85 0 130 -52q47 -51 33 -135q-16 -99 -97 -152q88 -49 68 -166q-13 -92 -86 -154q-71 -60 -169 -60q-96 0 -147.5 54.5t-40.5 143.5q1 10 11 10h66
q10 0 10 -10q-5 -50 27 -81.5t88 -31.5q59 0 102 37q44 38 53 94q8 54 -18 90t-77 38h-62q-9 0 -8 10l7 48q1 10 12 10z" />
    <glyph glyph-name="four" unicode="4" horiz-adv-x="612" 
d="M503 226h80q9 0 8 -10l-9 -57q-1 -10 -11 -10h-80l-22 -139q-1 -10 -12 -10h-66q-9 0 -8 10l22 139h-254h-13h-62q-15 0 -5 13l399 523q8 9 17 9l81 -1q8 0 7 -10zM417 226l54 342l-261 -342h207z" />
    <glyph glyph-name="five" unicode="5" horiz-adv-x="545" 
d="M531 614h-246l-48 -211q47 25 101 25q99 0 150 -61q52 -61 37 -158t-86 -162q-71 -63 -170 -63q-96 0 -147 53.5t-40 142.5q0 10 11 10h66q9 0 10 -10q-5 -50 26.5 -81t87.5 -31q59 0 102 40t53 101t-22.5 100t-94.5 39q-68 0 -106 -37h-73q-10 0 -7 10l83 362
q2 11 13 11h313q10 0 8 -11l-9 -59q-1 -10 -12 -10z" />
    <glyph glyph-name="six" unicode="6" horiz-adv-x="540" 
d="M520 206q-17 -99 -85 -158t-166 -59t-149 60q-50 61 -34 157q8 52 31 91l239 387q7 10 17 10h68q15 0 7 -14l-168 -268q37 8 60 8q96 -1 145.5 -59t34.5 -155zM436 206q9 61 -21.5 98t-90.5 37q-59 0 -102 -37.5t-52 -97.5q-10 -61 20.5 -97.5t90.5 -36.5q59 0 102 37.5
t53 96.5z" />
    <glyph glyph-name="seven" unicode="7" horiz-adv-x="485" 
d="M150 694h410q16 0 8 -15l-359 -669q-7 -10 -16 -10h-75q-11 0 -4 10l326 604h-303q-9 0 -8 10l9 59q2 11 12 11z" />
    <glyph glyph-name="eight" unicode="8" horiz-adv-x="556" 
d="M551 513q-15 -96 -94 -142q45 -24 66 -68.5t12 -101.5q-15 -95 -87 -153q-70 -58 -172 -58t-154 58t-37 153q9 57 44 101.5t88 68.5q-64 45 -49 142q13 85 74 138q61 52 147 52t130.5 -52.5t31.5 -137.5zM449 204q10 59 -22.5 95.5t-94.5 36.5q-60 0 -107 -38
q-45 -38 -54 -94q-9 -57 24 -93t96 -36q61 0 105 36t53 93zM251 514q-7 -49 18.5 -79.5t73.5 -30.5t82.5 30.5t41.5 79.5q8 50 -16 79.5t-73 29.5t-84 -30t-43 -79z" />
    <glyph glyph-name="nine" unicode="9" horiz-adv-x="540" 
d="M518 372l-225 -363q-5 -9 -16 -9h-68q-13 0 -7 14l167 267q-29 -8 -58 -8q-97 0 -146.5 58.5t-34.5 155.5q17 99 84 157q70 59 166 59q98 0 149 -60q51 -59 35 -156q-8 -52 -46 -115zM326 352q59 0 101.5 37.5t52.5 97.5t-21 97t-91 37q-59 0 -101.5 -37t-52.5 -97
q-10 -61 21 -98t91 -37z" />
    <glyph glyph-name="colon" unicode=":" horiz-adv-x="238" 
d="M122 438q4 30 25.5 48t51.5 18t45.5 -18t10.5 -48t-26 -48t-51 -18t-45.5 18.5t-10.5 47.5zM62 58q4 30 25.5 48t51.5 18t45.5 -18t10.5 -48t-26 -48.5t-51 -18.5t-45.5 18.5t-10.5 48.5z" />
    <glyph glyph-name="semicolon" unicode=";" horiz-adv-x="255" 
d="M132 438q4 30 25.5 48t51.5 18t45.5 -18t11.5 -48q-5 -30 -26 -48t-51 -18t-46 18.5t-11 47.5zM46 -159l-20 24q-5 8 4 13q74 52 94 121h-1q-25 1 -38 18t-9 43q5 28 24.5 45t47.5 17q22 1 36 -11.5t16 -32.5q7 -60 -38 -137q-43 -75 -101 -104q-7 -4 -15 4z" />
    <glyph glyph-name="less" unicode="&#x3c;" horiz-adv-x="539" 
d="M79 259l12 78q1 12 12 15l473 187q6 1 8 -0.5t1 -6.5l-11 -69q-2 -11 -12 -15l-391 -150l343 -151q10 -3 8 -14l-11 -69q-1 -10 -11 -7l-414 187q-9 3 -7 15z" />
    <glyph glyph-name="equal" unicode="=" horiz-adv-x="524" 
d="M495 343h-358q-11 0 -9 11l9 55q2 11 13 11h358q11 0 9 -11l-9 -55q-2 -9 -13 -11zM470 185h-358q-11 0 -9 11l9 55q2 11 12 11h358q12 0 10 -11l-9 -55q-2 -11 -13 -11z" />
    <glyph glyph-name="greater" unicode="&#x3e;" horiz-adv-x="539" 
d="M70 147l392 151l-344 150q-8 5 -7 15l11 69q2 12 11 7l415 -187q8 -4 6 -15l-12 -78q-1 -10 -11 -15l-474 -187q-5 -2 -7.5 0t-1.5 7l11 69q1 10 11 14z" />
    <glyph glyph-name="question" unicode="?" horiz-adv-x="478" 
d="M418 511q8 50 -17.5 80t-74.5 30q-73 0 -139 -68q-7 -7 -14 -1l-36 48q-5 8 2 15q85 88 202 88q85 0 131 -52q47 -52 34 -135q-15 -89 -81 -151q-7 -6 -32 -27.5t-35.5 -31.5t-27.5 -29t-26.5 -38t-14.5 -40q-3 -10 -12 -10h-72q-9 0 -8 10q17 85 86 142q4 4 33 27.5
t37.5 32.5t27 29.5t26.5 39.5t11 41zM278 47q-4 -26 -22 -41.5t-43 -15.5t-38.5 15.5t-9.5 41.5q5 26 23 41.5t43 15.5q26 0 38.5 -16t8.5 -41z" />
    <glyph glyph-name="at" unicode="@" horiz-adv-x="906" 
d="M902 333q-13 -85 -67 -142q-53 -54 -127 -56q-68 0 -100 57q-53 -77 -153 -77q-80 0 -121 53q-41 55 -28 140q14 88 71 139q59 53 139 53q85 0 119 -58l19 33q4 6 9 6h42q6 0 5 -7l-31 -199q-7 -31 7.5 -51t44.5 -20q37 0 65 36t36 93q19 130 -54 212q-74 83 -206 83
q-154 0 -261 -88q-109 -89 -131 -230t59 -230q81 -88 233 -88q116 0 213 78q11 8 15 0l35 -41q5 -9 -4 -15q-112 -97 -271 -97q-188 0 -285 108q-98 108 -69 284q28 177 159 285q131 109 319 109q166 0 255 -102q88 -102 63 -268zM475 195q48 0 82 30.5t42 81.5q8 53 -16 83
t-72 30t-83 -31t-42 -82q-8 -51 16.5 -81.5t72.5 -30.5z" />
    <glyph glyph-name="A" unicode="A" horiz-adv-x="651" 
d="M559 7l-49 203h-303l-114 -203q-4 -7 -11 -7h-68q-11 0 -5 11l376 673q5 9 16 9h69q10 0 11 -9l165 -673q3 -11 -10 -11h-67q-9 0 -10 7zM491 287l-72 302l-170 -302h242z" />
    <glyph glyph-name="B" unicode="B" horiz-adv-x="595" 
d="M383 343l-161 -1l-41 -262h152q68 0 113 36t55 96q8 58 -23.5 94.5t-94.5 36.5zM232 406h128q128 0 146 109q7 47 -25 73t-98 26h-117zM339 694h60q103 0 155 -47t40 -129q-13 -86 -103 -135q114 -48 96 -176q-13 -92 -85 -150q-70 -57 -175 -57h-235q-9 0 -8 10l106 673
q2 11 12 11h60h77z" />
    <glyph glyph-name="C" unicode="C" horiz-adv-x="679" 
d="M657 82q-112 -92 -265 -92q-157 0 -240 98q-82 98 -56 258q12 84 53 154t100 114q119 89 257 89q146 1 234 -93q4 -7 -3 -13l-49 -46q-6 -6 -15 -1q-66 68 -181 68q-120 0 -205 -75t-105 -197t42 -196q61 -73 182 -75q116 2 203 68q7 7 15 0l35 -47q7 -7 -2 -14z" />
    <glyph glyph-name="D" unicode="D" horiz-adv-x="674" 
d="M375 614h-109l-85 -534h110q123 0 207 72q84 71 104 195q19 122 -43 195q-61 72 -184 72zM278 0h-186q-9 0 -8 10l106 674q1 10 12 10h186q161 0 243 -94q83 -95 58 -253q-25 -159 -138 -254q-113 -93 -273 -93z" />
    <glyph glyph-name="E" unicode="E" horiz-adv-x="519" 
d="M464 314h-246l-37 -234h303q9 0 8 -10l-10 -61q0 -9 -11 -9h-379q-9 0 -8 10l106 674q1 10 12 10h369q9 0 8 -10l-9 -61q-1 -10 -12 -10h-292l-35 -219h245q10 0 9 -10l-10 -60q-1 -10 -11 -10z" />
    <glyph glyph-name="F" unicode="F" horiz-adv-x="499" 
d="M464 314h-246l-48 -304q-1 -10 -12 -10h-66q-9 0 -8 10l106 674q1 10 12 10h369q9 0 8 -10l-9 -61q-1 -10 -12 -10h-292l-36 -219h246q10 0 9 -10l-10 -60q-1 -10 -11 -10z" />
    <glyph glyph-name="G" unicode="G" horiz-adv-x="747" 
d="M665 287h-215q-8 0 -7 10l9 56q1 10 11 10h290q10 0 9 -10q-30 -173 -128.5 -268t-251.5 -94q-154 0 -233 97t-53 259q25 159 139 258q113 98 273 98q148 0 233 -93q5 -6 -2 -13l-52 -47q-8 -6 -13 0q-65 68 -179 68q-121 0 -208 -75q-86 -75 -105 -196t39 -196
q59 -75 174 -75q102 0 171 54t99 157z" />
    <glyph glyph-name="H" unicode="H" horiz-adv-x="675" 
d="M159 0h-67q-9 0 -8 10l106 674q1 10 12 10h67q9 0 9 -9l-48 -294h337l46 293q1 10 12 10h69q8 0 8 -9l-107 -675q-1 -10 -12 -10h-68q-9 0 -8 10l48 304h-337l-48 -304q-1 -10 -11 -10z" />
    <glyph glyph-name="I" unicode="I" horiz-adv-x="250" 
d="M276 684l-107 -675q0 -9 -10 -9h-68q-8 0 -8 9l107 675q1 10 11 10h68q8 0 7 -10z" />
    <glyph glyph-name="J" unicode="J" horiz-adv-x="399" 
d="M260 175l79 509q1 10 12 10h66q9 0 8 -10l-81 -520q-13 -84 -61 -128.5t-124 -45.5q-81 2 -135 56q-6 6 1 15l40 54q8 11 17 3q56 -42 88 -42q39 0 59 22t31 77z" />
    <glyph glyph-name="K" unicode="K" horiz-adv-x="565" 
d="M276 684l-50 -320l317 324q6 6 12 6h82q15 0 3 -12l-328 -334l255 -336q9 -12 -7 -12h-90q-8 0 -11 5l-239 326l-51 -322q0 -9 -10 -9h-68q-8 0 -8 9l107 675q1 10 11 10h68q8 0 7 -10z" />
    <glyph glyph-name="L" unicode="L" horiz-adv-x="448" 
d="M276 684l-95 -606h241q9 0 8 -10l-10 -59q0 -9 -10 -9h-319q-8 0 -8 9l107 675q1 10 11 10h68q8 0 7 -10z" />
    <glyph glyph-name="M" unicode="M" horiz-adv-x="853" 
d="M207 694h65q8 0 11 -8l173 -496l329 497q6 7 13 7h73q9 0 8 -10l-106 -674q-1 -10 -12 -10h-67q-9 0 -8 10l81 513l-278 -411q-5 -8 -13 -8h-67q-9 0 -10 7l-147 410l-82 -511q-1 -10 -12 -10h-62q-14 0 -12 14l106 665q2 15 17 15z" />
    <glyph glyph-name="N" unicode="N" horiz-adv-x="713" 
d="M665 694h67q9 0 8 -10l-107 -674q-1 -10 -11 -10h-81q-7 0 -11 6l-273 551l-87 -547q-1 -10 -11 -10h-68q-8 0 -7 10l106 674q1 10 12 10h81q7 0 11 -7l273 -550l86 547q1 10 12 10z" />
    <glyph glyph-name="O" unicode="O" horiz-adv-x="793" 
d="M96 347q25 159 139 258q113 98 273 98t243 -98q83 -97 57 -258t-139 -259q-112 -97 -273 -97q-160 0 -243 98q-83 97 -57 258zM409 76q120 0 206 74q85 75 105 197q19 121 -42 196q-62 75 -183 75t-208 -75q-85 -73 -105 -196q-19 -121 43 -197q62 -74 184 -74z" />
    <glyph glyph-name="P" unicode="P" horiz-adv-x="549" 
d="M364 289h-149l-44 -279q-1 -10 -12 -10h-67q-9 0 -8 10l106 673q2 11 12 11h226q104 0 154.5 -54t36.5 -148q-16 -95 -83.5 -149t-171.5 -54zM266 614l-38 -244h147q65 -1 106 30.5t51 90.5q9 59 -22 91t-97 32h-147z" />
    <glyph glyph-name="Q" unicode="Q" horiz-adv-x="793" 
d="M571 28l158 -98q8 -5 1 -13l-42 -55q-8 -8 -14 -3l-207 137q-42 -5 -71 -5q-160 0 -243 98q-83 97 -57 258q25 159 139 258q113 98 273 98t243 -98q83 -97 57 -258q-18 -111 -80 -194t-157 -125zM720 347q20 122 -42 196q-62 75 -183 75t-208 -75q-86 -75 -105 -196
q-19 -120 43 -196q63 -75 184 -75q120 0 206 74q85 75 105 197z" />
    <glyph glyph-name="R" unicode="R" horiz-adv-x="564" 
d="M435 5l-125 284h-95l-44 -279q-1 -10 -12 -10h-67q-9 0 -8 10l106 674q1 10 11 10h214q104 0 154.5 -54t36.5 -148q-13 -82 -67.5 -134t-138.5 -64l134 -282q6 -12 -8 -12h-82q-7 0 -9 5zM404 614h-138l-38 -244h138q63 -1 103 30.5t50 90.5q9 58 -21.5 90.5t-93.5 32.5z
" />
    <glyph glyph-name="S" unicode="S" horiz-adv-x="566" 
d="M59 74q-8 5 0 14l43 58q7 10 15 2q15 -16 35 -29q23 -16 65.5 -29.5t86.5 -13.5q66 0 110 30t52 80q6 41 -27.5 66.5t-120.5 45.5q-110 26 -155 76.5t-34 131.5q11 86 87 141q77 57 182 56q51 0 98 -14q67 -21 95 -53q5 -5 -1 -15l-37 -61q-6 -9 -15 -2q-67 59 -158 59
q-64 0 -110 -31q-45 -29 -53 -76q-8 -45 22 -72q32 -26 125 -51q111 -30 155.5 -73.5t34.5 -117.5q-12 -95 -84 -151t-187 -55q-63 0 -115 18q-78 27 -109 66z" />
    <glyph glyph-name="T" unicode="T" horiz-adv-x="538" 
d="M227 9l95 604h-204q-8 0 -7 10l9 61q1 10 12 10h495q8 0 7 -10l-9 -61q-1 -10 -12 -10h-204l-96 -604q0 -9 -10 -9h-68q-8 0 -8 9z" />
    <glyph glyph-name="U" unicode="U" horiz-adv-x="670" 
d="M125 272l65 412q2 9 11 9h68q9 0 8 -10l-65 -412q-15 -94 21 -144.5t114 -50.5t129.5 50t66.5 145l65 413q2 9 12 9h68q10 0 8 -9l-65 -413q-22 -136 -103 -208q-80 -72 -194 -72q-116 0 -173 73.5t-36 207.5z" />
    <glyph glyph-name="V" unicode="V" horiz-adv-x="647" 
d="M274 9l-161 672q-3 12 10 12h74q9 0 10 -7l134 -581l316 581q3 7 12 7h75q12 0 6 -12l-375 -672q-5 -9 -15 -9h-74q-10 0 -12 9z" />
    <glyph glyph-name="W" unicode="W" horiz-adv-x="880" 
d="M591 8l-60 576l-243 -576q-3 -8 -12 -8h-58q-8 0 -10 8l-96 676q-1 10 9 10h70q9 0 10 -9l69 -541l231 541q5 9 14 9h68q9 0 9 -9l62 -545l243 547q1 7 10 7h72q9 0 5 -10l-311 -676q-5 -8 -13 -8h-58q-9 0 -11 8z" />
    <glyph glyph-name="X" unicode="X" horiz-adv-x="579" 
d="M94 0h-83q-13 0 -3 10l286 335l-174 339q-4 10 8 10h86q9 0 12 -6l131 -268l224 267q5 6 14 6h83q11 0 4 -10l-289 -337l174 -336q4 -10 -8 -10h-85q-9 0 -12 6l-132 265l-223 -265q-6 -6 -13 -6z" />
    <glyph glyph-name="Y" unicode="Y" horiz-adv-x="575" 
d="M245 9l43 267l-174 405q-4 12 9 12h75q9 0 12 -8l134 -331l238 331q5 8 16 8h74q16 0 5 -12l-302 -404l-43 -268q0 -9 -10 -9h-68q-9 0 -9 9z" />
    <glyph glyph-name="Z" unicode="Z" horiz-adv-x="567" 
d="M634 677l-455 -597h361q9 0 8 -10l-9 -60q-1 -10 -12 -10h-489q-19 0 -6 16l455 598h-337q-8 0 -7 9l9 61q1 10 11 10h464q19 0 7 -17z" />
    <glyph glyph-name="bracketleft" unicode="[" horiz-adv-x="332" 
d="M249 622l-113 -711h113q10 0 8 -11l-8 -51q-2 -11 -12 -11l-183 1q-11 0 -10 10l132 834q2 11 13 11h184q10 0 8 -11l-8 -51q-1 -10 -11 -10h-113z" />
    <glyph glyph-name="backslash" unicode="\" horiz-adv-x="381" 
d="M124 722h61q9 0 11 -8l193 -702q3 -12 -10 -12h-61q-9 0 -11 8l-193 702q-2 12 10 12z" />
    <glyph glyph-name="bracketright" unicode="]" horiz-adv-x="332" 
d="M50 -88h113l113 710h-113q-11 0 -10 10l8 51q2 11 13 11h184q10 0 8 -11l-132 -834q-1 -10 -11 -10h-185q-11 0 -9 11l8 51q2 11 13 11z" />
    <glyph glyph-name="asciicircum" unicode="^" horiz-adv-x="580" 
d="M96 271l248 413q6 9 16 9h80q9 0 12 -9l118 -413q3 -12 -10 -12h-68q-10 0 -12 8l-93 346l-203 -346q-6 -8 -14 -8h-68q-15 0 -6 12z" />
    <glyph glyph-name="underscore" unicode="_" horiz-adv-x="585" 
d="M54 -65h457q11 0 9 -11l-7 -47q-3 -11 -13 -11h-457q-12 0 -9 11l7 47q2 11 13 11z" />
    <glyph glyph-name="grave" unicode="`" horiz-adv-x="275" 
d="M286 546l-142 109q-3 2 -3 6.5t4 7.5l50 52q8 8 13 0l121 -134q7 -5 -1 -10l-30 -30q-6 -7 -12 -1z" />
    <glyph glyph-name="a" unicode="a" horiz-adv-x="580" 
d="M492 376l23 67q3 9 13 9h47q9 0 7 -9l-68 -433q-1 -10 -12 -10h-47q-5 0 -10 9l-1 67q-71 -86 -183 -86q-102 0 -155 65q-52 65 -35 171q17 107 89 170q73 64 176 66q112 0 156 -86zM281 70q70 0 120.5 43t63.5 113q10 70 -27 113t-107 43q-71 0 -120 -43
q-50 -44 -60 -113q-11 -70 25 -113t105 -43z" />
    <glyph glyph-name="b" unicode="b" horiz-adv-x="578" 
d="M120 0h-42q-9 0 -8 10l111 702q1 10 11 10h61q10 0 9 -10l-53 -334q67 84 179 84q101 0 154 -66q53 -65 36 -170q-16 -105 -90 -171q-74 -65 -175 -65q-113 0 -156 88l-23 -68q-4 -10 -14 -10zM369 382q-69 0 -122 -44q-52 -44 -62 -112q-11 -69 26.5 -112.5t107.5 -43.5
q69 0 119 43t61 113t-25 113t-105 43z" />
    <glyph glyph-name="c" unicode="c" horiz-adv-x="501" 
d="M479 86q-79 -96 -211 -96q-104 0 -160 65q-54 65 -37 171q18 113 97 174q80 63 176 63q61 0 108.5 -26t71.5 -74q5 -10 -4 -14l-52 -39q-10 -8 -15 3q-35 68 -123 68q-70 0 -119 -42.5t-60 -112.5t24.5 -113t105.5 -43q89 0 144 66q8 11 16 3l38 -39q5 -5 0 -14z" />
    <glyph glyph-name="d" unicode="d" horiz-adv-x="578" 
d="M261 -10q-101 0 -154 65q-52 65 -35 171q17 105 89 170q73 66 175 66q112 0 153 -83l53 334q2 9 11 9h62q9 0 8 -9l-111 -703q-1 -10 -11 -10h-43q-8 0 -10 9l-3 68q-71 -87 -184 -87zM331 382q-69 0 -119 -43t-61 -113t25 -113t105 -43q71 0 121 43q52 43 63 113
q11 69 -26.5 112.5t-107.5 43.5z" />
    <glyph glyph-name="e" unicode="e" horiz-adv-x="540" 
d="M159 259h303q0 57 -35 91t-96 34q-62 0 -108 -34t-64 -91zM525 192h-376q2 -57 40 -90.5t103 -33.5q79 0 130 45q11 9 16 1l35 -40q7 -6 -1 -14q-74 -70 -195 -70q-110 0 -167 65q-56 65 -39 171q17 105 92 170q75 66 180 66q111 0 162 -68.5t31 -191.5q-1 -10 -11 -10z
" />
    <glyph glyph-name="f" unicode="f" horiz-adv-x="312" 
d="M340 379h-111l-58 -369q-1 -10 -12 -10h-61q-9 0 -8 10l58 369h-71q-10 0 -9 10l8 52q2 11 13 11h71l16 111q13 81 56 125.5t107 44.5q57 0 103 -33q8 -4 0 -15l-35 -50q-6 -7 -15 -3q-28 21 -59 21q-60 0 -76 -97l-16 -104h111q10 0 8 -11l-8 -52q-1 -10 -12 -10z" />
    <glyph glyph-name="g" unicode="g" horiz-adv-x="579" 
d="M336 462q115 0 157 -88l26 68q3 10 13 10h42q8 0 7 -10l-69 -442q-17 -108 -94 -172q-79 -65 -185 -65q-95 0 -171 47q-9 5 -2 15l38 54q6 9 12 3q53 -36 134 -39q76 0 125 41t62 114l12 75q-71 -84 -182 -84q-103 2 -155 66t-35 170q17 107 90 171q73 66 175 66zM281 70
q72 0 122 43q53 44 63 113q11 69 -26.5 112.5t-108.5 43.5q-69 0 -119 -43t-61 -113t25 -113t105 -43z" />
    <glyph glyph-name="h" unicode="h" horiz-adv-x="545" 
d="M70 10l111 702q1 10 10 10h62q9 0 8 -10l-52 -336q62 86 165 86q83 0 122 -52t24 -150l-38 -250q-1 -10 -12 -10h-62q-8 0 -7 10l38 244q21 128 -92 128q-57 0 -103 -46q-47 -47 -60 -116l-33 -210q-1 -10 -12 -10h-62q-8 0 -7 10z" />
    <glyph glyph-name="i" unicode="i" horiz-adv-x="222" 
d="M221 442l-67 -432q-1 -10 -12 -10h-62q-8 0 -7 10l68 432q1 10 11 10h62q8 0 7 -10zM267 619q-5 -26 -23 -42.5t-43 -16.5q-26 -3 -40 15.5t-10.5 44t23.5 40.5q30 26 66.5 12t26.5 -53z" />
    <glyph glyph-name="j" unicode="j" horiz-adv-x="248" 
d="M176 618q4 26 22.5 42t44.5 16t39.5 -16t9.5 -42q-5 -27 -23 -42.5t-44 -15.5q-27 0 -40.5 16t-8.5 42zM87 -64l79 506q1 10 12 10l60 -1q10 0 9 -9l-80 -514q-12 -76 -55.5 -121t-105.5 -45q-58 0 -99 33q-8 5 -1 14l36 51q7 9 16 3q28 -20 55 -20q57 0 74 93z" />
    <glyph glyph-name="k" unicode="k" horiz-adv-x="462" 
d="M409 452h87q21 0 2 -14l-220 -195l186 -230q10 -13 -8 -13h-86q-9 0 -12 5l-174 217l-34 -213q0 -9 -11 -9h-62q-8 0 -8 9l112 704q1 9 10 9h62q11 0 9 -9l-72 -455l206 188q6 6 13 6z" />
    <glyph glyph-name="l" unicode="l" horiz-adv-x="222" 
d="M265 712l-111 -702q-1 -10 -12 -10h-62q-8 0 -7 10l111 702q1 10 10 10h62q10 0 9 -10z" />
    <glyph glyph-name="m" unicode="m" horiz-adv-x="822" 
d="M150 452h44q10 0 10 -10l1 -66q60 86 156 86q108 0 131 -95q66 95 173 95q77 0 112.5 -52t20.5 -150l-39 -250q-1 -10 -11 -10h-62q-9 0 -8 10l38 244q21 128 -79 128q-55 0 -96 -46t-54 -123l-32 -203q-1 -10 -12 -10h-61q-9 0 -8 10l38 244q21 128 -79 128
q-52 0 -94 -46q-42 -48 -55 -116l-33 -210q-1 -10 -12 -10h-61q-9 0 -8 10l68 432q1 10 12 10z" />
    <glyph glyph-name="n" unicode="n" horiz-adv-x="545" 
d="M70 10l68 432q1 10 11 10h45q10 0 10 -10v-70q64 90 170 90q83 0 122 -52t24 -150l-38 -250q-1 -10 -12 -10h-62q-8 0 -7 10l38 244q21 128 -92 128q-56 0 -103 -47t-60 -116l-33 -209q-1 -10 -12 -10h-61q-9 0 -8 10z" />
    <glyph glyph-name="o" unicode="o" horiz-adv-x="541" 
d="M71 227q17 106 91 170q77 65 181 65q106 0 160 -65q55 -64 38 -170q-16 -105 -92 -172q-76 -65 -181 -65q-104 0 -160 65q-54 65 -37 172zM151 226q-11 -69 25 -112.5t105 -43.5q70 0 119 43q51 44 61 113q11 70 -24.5 113t-105.5 43q-69 0 -119 -43t-61 -113z" />
    <glyph glyph-name="p" unicode="p" horiz-adv-x="578" 
d="M103 -228h-61q-9 0 -9 10l105 660q1 10 12 10h41q10 0 10 -10l3 -67q70 87 184 87q102 0 155 -66q53 -64 36 -171q-16 -105 -91 -170q-74 -65 -175 -65q-113 0 -153 82l-46 -290q0 -10 -11 -10zM247 338q-52 -44 -62 -112q-11 -70 26 -113t108 -43q70 0 119 43
q51 45 61 113q10 70 -25 113q-34 43 -105 43q-69 0 -122 -44z" />
    <glyph glyph-name="q" unicode="q" horiz-adv-x="578" 
d="M581 442l-106 -660q0 -10 -11 -10h-60q-9 0 -9 10l46 290q-67 -82 -180 -82q-102 0 -155 65q-52 64 -35 170q17 107 90 171q73 66 175 66q116 0 156 -87l25 67q4 10 14 10h42q9 0 8 -10zM281 70q71 0 121 43q52 43 63 113q11 69 -26.5 112.5t-107.5 43.5q-69 0 -119 -43
t-61 -113t25 -113t105 -43z" />
    <glyph glyph-name="r" unicode="r" horiz-adv-x="347" 
d="M364 367q-30 13 -62 13q-61 0 -104 -70l-47 -300q-1 -10 -12 -10h-61q-9 0 -8 10l68 432q1 10 11 10h42q10 0 10 -10l2 -36q58 55 127 55q36 0 70 -12q9 -1 4 -12l-27 -64q-3 -9 -13 -6z" />
    <glyph glyph-name="s" unicode="s" horiz-adv-x="408" 
d="M43 40q-6 6 1 15l34 48q5 8 14 3q51 -36 117 -38q44 -1 72 14t32 40t-17 39.5t-80 30.5q-73 21 -102 52t-22 84q7 60 62 98t129 37q84 -2 132 -44q7 -4 1 -15l-32 -49q-5 -8 -14 -3q-48 32 -97 33q-40 1 -67.5 -13.5t-31.5 -37.5q-4 -26 15 -40t75 -30
q78 -22 108.5 -51.5t24.5 -83.5q-9 -63 -63.5 -101t-133.5 -37q-102 0 -157 49z" />
    <glyph glyph-name="t" unicode="t" horiz-adv-x="318" 
d="M234 378l-32 -202q-9 -61 -2.5 -82.5t33.5 -22.5q21 0 49 21q10 4 13 -2l20 -51q3 -11 -4 -15q-49 -34 -99 -33q-59 0 -83.5 41.5t-11.5 120.5l36 226h-71q-9 0 -9 9l9 54q1 10 12 10h71l25 151q0 10 10 10h62q8 0 8 -10l-25 -152h108q11 0 9 -9l-9 -54q0 -10 -11 -10
h-108z" />
    <glyph glyph-name="u" unicode="u" horiz-adv-x="547" 
d="M414 9l1 71q-66 -91 -174 -91q-83 0 -121.5 52t-23.5 150l39 251q1 10 12 10h62q8 0 7 -10l-39 -244q-21 -130 94 -130q58 0 104 46t60 119l33 209q1 10 12 10h61q9 0 8 -10l-69 -433q0 -9 -10 -9h-45q-9 0 -11 9z" />
    <glyph glyph-name="v" unicode="v" horiz-adv-x="463" 
d="M527 439l-247 -430q-4 -9 -15 -9h-67q-10 0 -13 9l-108 430q-4 13 10 13h70q7 0 9 -8l81 -350l190 349q4 7 14 9l68 -1q15 0 8 -12z" />
    <glyph glyph-name="w" unicode="w" horiz-adv-x="642" 
d="M166 443l32 -340l151 340q5 8 13 8h60q9 0 11 -8l43 -344l139 344q5 8 12 8h73q9 0 6 -9l-197 -434q-5 -8 -12 -8h-70q-9 0 -11 8l-40 338l-149 -338q-5 -8 -13 -8h-69q-10 0 -10 8l-59 435q0 8 7 8h73q10 0 10 -8z" />
    <glyph glyph-name="x" unicode="x" horiz-adv-x="468" 
d="M254 158l-132 -150q-6 -8 -16 -8h-79q-15 0 -4 12l193 210l-128 217q-7 13 8 13h80q10 0 14 -9l89 -153l139 154q11 8 18 8h79q15 0 3 -12l-201 -213l127 -215q4 -5 1.5 -8.5t-9.5 -3.5h-79q-12 0 -15 8z" />
    <glyph glyph-name="y" unicode="y" horiz-adv-x="468" 
d="M454 452h68q14 -2 5 -14l-374 -657q-5 -9 -15 -9h-62q-14 0 -7 13l122 217l-113 436q-2 13 11 14h69q10 0 11 -9l77 -342l193 342q5 9 15 9z" />
    <glyph glyph-name="z" unicode="z" horiz-adv-x="450" 
d="M398 0h-344q-19 0 -7 15l287 363h-211q-10 0 -9 10l9 54q1 9 11 9l330 1q8 0 10 -5t-4 -12l-287 -362h226q9 0 8 -10l-9 -53q-1 -10 -10 -10z" />
    <glyph glyph-name="braceleft" unicode="{" horiz-adv-x="361" 
d="M127 300q27 6 52.5 32t31.5 63l25 162q7 45 30 87q27 49 92 49h49q10 0 9 -10l-8 -54q-2 -11 -13 -11h-37q-32 0 -42 -61l-25 -158q-14 -89 -94 -134q65 -43 52 -133l-25 -158q-11 -62 22 -62h37q11 0 9 -11l-8 -53q-2 -11 -13 -11h-49q-101 0 -78 137l26 162
q6 38 -11 64t-44 30q-6 2 -5 9l8 54q2 6 9 7z" />
    <glyph glyph-name="bar" unicode="|" horiz-adv-x="216" 
d="M261 711l-147 -928q-2 -11 -13 -11h-57q-11 0 -9 11l147 928q2 11 12 11h57q12 0 10 -11z" />
    <glyph glyph-name="braceright" unicode="}" horiz-adv-x="361" 
d="M198 618h-36q-11 0 -9 11l8 54q1 10 13 10h49q41 0 61 -24q18 -20 20 -53.5t-3 -58.5l-25 -162q-8 -38 9 -63.5t45 -31.5q7 -2 5 -8l-8 -54q-1 -6 -9 -8q-28 -4 -53 -30t-30 -64l-26 -162q-23 -137 -122 -137h-49q-11 0 -9 11l8 54q2 11 13 11h36q32 0 42 61l25 158
q13 91 95 133q-67 44 -53 134l25 158q10 61 -22 61z" />
    <glyph glyph-name="asciitilde" unicode="~" horiz-adv-x="564" 
d="M121 163q-7 -13 -16 -3l-33 42q-5 8 -1 15q29 57 73 90t91 33q32 0 56.5 -11t39.5 -26.5t28 -31t29 -25.5t36 -9q48 2 97 92q7 13 16 3l33 -42q5 -7 1 -14q-28 -56 -72.5 -91t-91.5 -35q-38 0 -67 17t-43.5 36.5t-35 35.5t-43.5 15q-51 -2 -97 -91z" />
    <glyph glyph-name="uni00A0" unicode="&#xa0;" horiz-adv-x="313" 
 />
    <glyph glyph-name="exclamdown" unicode="&#xa1;" horiz-adv-x="249" 
d="M170 501h66q10 0 9 -10l-74 -481q-1 -10 -12 -10h-70q-9 0 -8 10l78 481q1 10 11 10zM170 647q5 25 23 40.5t42 15.5q25 0 38.5 -16t8.5 -40q-4 -26 -21.5 -41t-42.5 -15t-38.5 15.5t-9.5 40.5z" />
    <glyph glyph-name="cent" unicode="&#xa2;" horiz-adv-x="501" 
d="M376 375l-105 -305h10q89 0 144 67q7 11 15 3l40 -41q5 -5 -1 -12q-79 -97 -211 -97q-19 0 -24 1l-32 -89q-1 -10 -13 -10h-37q-9 0 -8 10l35 100q-67 22 -99 81.5t-19 142.5q18 112 96 173q81 63 174 64h7l28 79q3 10 13 10h38q10 0 7 -10l-30 -86q86 -23 120 -94
q4 -8 -3 -12l-54 -40q-8 -6 -14 3q-25 49 -77 62zM217 82l103 299h-2q-65 -4 -111 -46t-56 -109q-8 -51 9.5 -89t56.5 -55z" />
    <glyph glyph-name="sterling" unicode="&#xa3;" horiz-adv-x="514" 
d="M429 0h-344q-13 0 -5 12q116 192 111 291h-80q-10 0 -8 11l7 43q2 11 11 11h57q-22 74 -11 142q13 85 75 139t145 54q110 0 169 -86q4 -9 -3 -15l-49 -46q-11 -9 -17 2q-43 63 -114 63q-47 0 -80.5 -31t-41.5 -80q-6 -30 -1 -62q1 -6 2.5 -15.5t1.5 -10.5l13 -54h126
q12 0 10 -11l-7 -43q-2 -11 -13 -11h-109q0 -90 -72 -225h239q11 0 10 -10l-9 -57q-2 -11 -13 -11z" />
    <glyph glyph-name="currency" unicode="&#xa4;" horiz-adv-x="584" 
d="M368 466q66 0 113 -33l61 56q9 8 14 0l39 -46q5 -8 -2 -14l-65 -56q20 -47 11 -110q-12 -69 -52 -118l50 -58q5 -5 -2 -13l-54 -46q-6 -8 -13 -1l-51 61q-49 -27 -113 -27q-61 0 -102 25l-71 -63q-7 -7 -13 0l-39 47q-5 6 2 13l67 58q-27 52 -16 122q7 55 42 106l-49 56
q-5 6 2 13l54 47q7 7 14 0l45 -54q59 35 128 35zM208 263q-9 -57 20.5 -92t87.5 -35q57 0 97.5 35t49.5 92t-20.5 92t-86.5 35q-58 1 -98.5 -34t-49.5 -93z" />
    <glyph glyph-name="yen" unicode="&#xa5;" horiz-adv-x="575" 
d="M246 10l17 113h-133q-9 0 -8 10l5 31q1 10 12 10h133l11 70h-133q-10 0 -9 10l5 31q1 10 12 10h119h3l-166 386q-4 12 9 12h75q9 0 12 -8l134 -331l237 331q6 8 17 8h74q16 0 5 -12l-288 -386h5h116q9 0 8 -10l-5 -31q-1 -10 -11 -10h-132l-11 -70h132q9 0 8 -10l-5 -31
q-1 -10 -12 -10h-132l-17 -113q-1 -10 -12 -10h-67q-9 0 -8 10z" />
    <glyph glyph-name="brokenbar" unicode="&#xa6;" horiz-adv-x="216" 
d="M100 124h56q9 0 8 -10l-53 -332q0 -10 -11 -10h-56q-9 0 -9 10l53 332q1 10 12 10zM194 722h56q10 0 9 -10l-53 -332q-1 -10 -11 -10h-56q-10 0 -9 10l53 332q1 10 11 10z" />
    <glyph glyph-name="section" unicode="&#xa7;" horiz-adv-x="534" 
d="M133 531q11 77 77 124q68 50 163 48q115 -2 171 -58q6 -6 0 -16l-35 -53q-6 -10 -15 -3q-58 46 -139 46q-54 0 -91.5 -23.5t-43.5 -60.5q-7 -40 19 -62q27 -21 105 -42q100 -27 139.5 -66.5t30.5 -106.5q-10 -72 -64 -120q42 -42 26 -116q-16 -79 -84 -121
q-66 -43 -154 -42q-57 0 -102 16q-70 23 -99 57q-5 8 1 15l39 51q7 9 15 3q67 -59 165 -59q52 0 90 23t44 65q5 35 -21.5 55.5t-101.5 38.5q-98 23 -139 68t-31 117q9 66 61 112q-35 41 -26 110zM185 314q-7 -42 20 -66.5t103 -44.5q37 -10 67 -22q43 25 51 70q5 37 -22 60
t-100 41q-44 10 -73 24q-40 -25 -46 -62z" />
    <glyph glyph-name="dieresis" unicode="&#xa8;" horiz-adv-x="357" 
d="M149 605q-13 16 -9 42t23 42t45 16t39 -16t9 -42t-23 -42q-18 -16 -44 -16t-40 16zM305 647q5 27 23 42.5t44 15.5t39.5 -16t8.5 -42q-4 -26 -22.5 -42t-44.5 -16t-39 16t-9 42z" />
    <glyph glyph-name="copyright" unicode="&#xa9;" horiz-adv-x="818" 
d="M605 230q-63 -77 -169 -77q-86 0 -130 53t-30 140q12 75 61 124q49 50 108 63q59 14 115 -6q58 -18 83 -67q3 -8 -3 -13l-42 -33q-8 -6 -15 4q-29 48 -97 48q-54 1 -92.5 -32.5t-46.5 -87.5q-9 -55 19 -88t82 -33q70 0 112 47q11 11 17 3l31 -31q6 -6 -3 -14zM108 346
q26 162 138 259q113 98 273 98t243 -98q83 -99 58 -259t-140 -258t-274 -98t-242 98q-82 97 -56 258zM171 346q-21 -130 47 -212q69 -80 200 -80t225 80q93 81 114 212q21 132 -48 212q-67 81 -199 81t-225 -81q-93 -79 -114 -212z" />
    <glyph glyph-name="ordfeminine" unicode="&#xaa;" horiz-adv-x="433" 
d="M442 698h39q9 0 8 -10l-48 -303q-2 -11 -12 -11h-40q-9 0 -9 10l-2 40q-56 -57 -130 -57q-73 0 -110.5 47t-25.5 122q12 76 64.5 122.5t125.5 46.5q77 0 113 -55l13 38q4 10 14 10zM302 638q-48 0 -81 -27.5t-40 -74.5q-7 -45 17 -74q25 -28 72 -28q48 0 80 28
q34 28 41 74t-18 74t-71 28z" />
    <glyph glyph-name="guillemotleft" unicode="&#xab;" horiz-adv-x="514" 
d="M291 260l2 13q1 9 10 18l161 150q8 6 16 0l32 -39q4 -9 -3 -16l-131 -120l93 -120q6 -7 -2 -15l-44 -39q-9 -7 -16 0l-114 150q-6 7 -4 18zM296 441l32 -39q5 -8 -3 -16l-132 -120l94 -120q5 -9 -3 -15l-43 -39q-10 -7 -16 0l-114 150q-6 7 -4 18l2 13q1 9 10 18l161 150
q7 7 16 0z" />
    <glyph glyph-name="logicalnot" unicode="&#xac;" horiz-adv-x="625" 
d="M612 383l-32 -201q-2 -11 -13 -11h-55q-10 0 -8 11l21 135h-391q-10 0 -8 11l9 54q2 11 11 12h456q12 0 10 -11z" />
    <glyph glyph-name="uni00AD" unicode="&#xad;" horiz-adv-x="333" 
 />
    <glyph glyph-name="registered" unicode="&#xae;" horiz-adv-x="806" 
d="M102 346q26 162 138 259q113 98 274 98q159 0 242 -98q83 -99 58 -259q-26 -161 -139 -258q-115 -98 -274 -98q-160 0 -243 98q-82 97 -56 258zM504 639q-131 0 -224 -81q-93 -79 -114 -212q-21 -130 47 -212q68 -80 199 -80t225 80q93 81 114 212q21 132 -47 212
q-68 81 -200 81zM606 428q-7 -43 -35.5 -71.5t-72.5 -36.5l69 -150q5 -11 -9 -11h-57q-8 0 -12 7l-62 151h-32l-24 -147q0 -11 -13 -11h-48q-12 0 -10 12l56 356q3 11 14 11h131q57 0 85 -29t20 -81zM420 472l-15 -91h70q55 0 61 45q7 46 -46 46h-70z" />
    <glyph glyph-name="overscore" unicode="&#xaf;" horiz-adv-x="325" 
d="M156 694h234q8 0 7 -10l-8 -51q-1 -10 -10 -10h-234q-10 0 -9 10l8 51q1 10 12 10z" />
    <glyph glyph-name="degree" unicode="&#xb0;" horiz-adv-x="422" 
d="M135 544q12 74 63.5 118.5t124.5 44.5t111 -45t26 -118q-11 -73 -63 -117.5t-125 -44.5t-110.5 44.5t-26.5 117.5zM208 544q-6 -39 14.5 -63.5t60.5 -24.5t68.5 24t34.5 64q7 40 -14 64.5t-61 24.5t-68 -24t-35 -65z" />
    <glyph glyph-name="plusminus" unicode="&#xb1;" horiz-adv-x="589" 
d="M354 177h-63q-9 0 -8 10l23 150h-167q-9 0 -8 10l9 58q1 10 12 10h167l24 151q2 9 11 10h63q9 0 9 -10l-24 -151h167q9 0 8 -10l-9 -58q-1 -10 -12 -10h-167l-23 -150q-1 -10 -12 -10zM527 106l-9 -54q-1 -10 -11 -10h-411q-10 0 -9 10l9 54q1 10 11 10h411q10 0 9 -10z
" />
    <glyph glyph-name="twosuperior" unicode="&#xb2;" horiz-adv-x="332" 
d="M351 474l-6 -7l-136 -145h135q10 0 8 -11l-7 -47q-2 -11 -12 -11h-254q-20 2 -5 18l208 230q41 41 45 76q4 24 -9.5 40.5t-39.5 15.5q-45 0 -82 -37q-6 -6 -13 0l-25 39q-5 8 2 13q55 55 129 55q59 0 89.5 -33t20.5 -95q-8 -46 -48 -101z" />
    <glyph glyph-name="threesuperior" unicode="&#xb3;" horiz-adv-x="337" 
d="M204 467l6 36q1 10 11 10h28q24 0 42.5 18.5t23.5 48.5q4 25 -8.5 40t-36.5 16q-40 0 -78 -36q-7 -6 -12 -1l-26 38q-4 6 2 12q54 54 127 54q56 0 85 -33t20 -86q-9 -60 -56 -97q49 -33 37 -108q-9 -60 -54.5 -97.5t-108.5 -37.5q-61 0 -94 34t-28 90q1 10 12 10h52
q7 0 7 -8q-2 -26 15 -41t47 -15q32 0 54 19t27 50q5 32 -8.5 52.5t-41.5 21.5h-36q-9 0 -8 10z" />
    <glyph glyph-name="acute" unicode="&#xb4;" horiz-adv-x="275" 
d="M308 720l34 -51q4 -7 -3 -13l-178 -111q-9 -5 -13 2l-19 28q-4 7 3 14l163 132q8 8 13 -1z" />
    <glyph glyph-name="mu" unicode="&#xb5;" horiz-adv-x="550" 
d="M438 233l33 208q2 11 12 11h61q9 0 8 -10l-68 -432q-1 -10 -12 -10h-45q-9 0 -9 10l-1 70q-66 -91 -174 -91q-58 0 -92 28l-37 -232q-2 -12 -14 -12h-57q-11 0 -9 12l104 656q2 11 12 11h61q10 0 8 -11l-20 -122l-19 -121q-21 -130 93 -130q58 0 104 46q48 48 61 119z
" />
    <glyph glyph-name="paragraph" unicode="&#xb6;" horiz-adv-x="564" 
d="M493 615h-90l-103 -652q-2 -11 -12 -11h-53q-11 0 -9 11l58 364q-82 0 -124 50.5t-29 132.5q14 83 71 132q58 51 140 51h29h2h241q10 0 9 -10l-9 -57q-2 -11 -13 -11h-34l-103 -652q-2 -11 -12 -11h-54q-10 0 -8 11z" />
    <glyph glyph-name="middot" unicode="&#xb7;" horiz-adv-x="211" 
d="M86 279q5 30 25 47.5t49 17.5t43.5 -17.5t10.5 -47.5q-5 -28 -25.5 -46t-48.5 -18q-29 0 -44 18t-10 46z" />
    <glyph glyph-name="cedilla" unicode="&#xb8;" horiz-adv-x="291" 
d="M113 0h67l-22 -37q90 -11 78 -85q-7 -42 -42.5 -68.5t-83.5 -25.5q-58 -2 -99 35q-4 4 0 13l26 29q6 6 12 1q37 -21 67 -21q21 0 36 10.5t18 27.5t-11.5 25t-41.5 8h-46q-9 0 -5 9z" />
    <glyph glyph-name="onesuperior" unicode="&#xb9;" horiz-adv-x="220" 
d="M145 694h116q9 0 8 -10l-66 -420q-2 -11 -12 -11h-53q-11 0 -9 11l57 360h-52q-10 0 -10 10l8 49q2 11 13 11z" />
    <glyph glyph-name="ordmasculine" unicode="&#xba;" horiz-adv-x="391" 
d="M449 537q-12 -78 -66 -124q-53 -46 -130 -46q-76 0 -114.5 47t-26.5 123t65.5 122.5t129.5 46.5t115 -46.5t27 -122.5zM180 537q-7 -46 16 -74.5t68 -28.5t76.5 28t39.5 75q7 45 -16.5 73.5t-67.5 28.5q-45 0 -76.5 -28t-39.5 -74z" />
    <glyph glyph-name="guillemotright" unicode="&#xbb;" horiz-adv-x="515" 
d="M309 273l-2 -13q-1 -9 -10 -18l-160 -150q-10 -7 -16 0l-32 39q-7 7 2 15l131 120l-93 120q-6 7 3 16l44 39q8 8 16 0l113 -150q6 -7 4 -18zM316 402l44 39q8 8 16 0l113 -150q6 -7 4 -18l-2 -13q-1 -9 -10 -18l-160 -150q-10 -7 -16 0l-31 39q-8 6 1 15l132 120l-94 120
q-5 8 3 16z" />
    <glyph glyph-name="onequarter" unicode="&#xbc;" horiz-adv-x="795" 
d="M765 141l-6 -40q0 -10 -11 -10h-49l-12 -80q-2 -11 -12 -11h-54q-10 0 -9 10l12 81h-202q-18 0 -8 18l240 322q7 10 17 8h74q9 0 8 -10l-44 -278h48q11 0 8 -10zM144 12l508 703q4 7 13 7h64q14 0 6 -11l-509 -704q-7 -7 -14 -7h-63q-14 0 -5 12zM156 264l57 360h-51
q-11 0 -10 10l8 49q2 11 12 11h116q9 0 8 -10l-65 -420q-2 -11 -13 -11h-53q-11 0 -9 11zM515 151h119l32 203z" />
    <glyph glyph-name="onehalf" unicode="&#xbd;" horiz-adv-x="811" 
d="M145 13l507 702q4 7 13 7h62q16 0 6 -13l-507 -702q-7 -7 -14 -7h-61q-16 0 -6 13zM173 694h115q10 0 9 -10l-66 -420q-2 -11 -13 -11h-52q-11 0 -9 11l57 360h-52q-11 0 -10 10l8 49q2 11 13 11zM757 214q-1 0 -136 -146h135q9 0 8 -10l-7 -47q-2 -11 -12 -11h-254
q-21 0 -6 18l208 230q41 41 45 76q4 24 -9.5 40t-38.5 16q-45 0 -83 -37q-5 -9 -12 0l-26 39q-5 6 2 13q55 55 129 55q59 0 89.5 -33t20.5 -95q-7 -52 -53 -108z" />
    <glyph glyph-name="threequarters" unicode="&#xbe;" horiz-adv-x="913" 
d="M242 14l503 696q11 12 23 12h56q16 0 6 -13l-503 -697q-9 -12 -23 -12h-56q-14 0 -6 14zM231 467l6 36q1 10 11 10h28q24 1 42.5 19t23.5 48q4 25 -8.5 40t-35.5 16q-42 0 -79 -36q-7 -6 -12 -1l-26 38q-3 7 2 12q55 54 127 54q56 0 85 -33t20 -86q-9 -62 -56 -97
q49 -33 37 -108q-8 -60 -54 -97q-46 -38 -109 -38q-61 0 -94 34t-28 90q1 10 12 10h52q6 0 8 -8q-2 -25 14.5 -40.5t46.5 -15.5q32 0 54 19t27 50q5 33 -8.5 53t-41.5 21h-36q-9 0 -8 10zM884 141l-6 -40q-1 -10 -12 -10h-49l-12 -80q-2 -11 -12 -11h-54q-10 0 -9 10l12 81
h-202q-18 0 -8 18l240 322q7 10 17 8h74q9 0 8 -10l-44 -278h49q9 0 8 -10zM633 151h119l32 203z" />
    <glyph glyph-name="questiondown" unicode="&#xbf;" horiz-adv-x="478" 
d="M299 494q1 10 12 10h72q9 0 8 -10q-17 -84 -87 -143q-7 -6 -32.5 -27t-36.5 -31.5t-28 -30t-25.5 -39t-11.5 -41.5q-8 -50 17 -79.5t74 -29.5q75 0 140 68q8 8 13 0l36 -48q6 -7 -2 -15q-88 -88 -203 -88q-83 0 -130 51q-46 52 -33 136q16 93 81 151q7 6 32 27.5
t35.5 31.5t27.5 29t26.5 38t14.5 40zM356 590q-25 0 -38 15t-9 41q5 26 22.5 41.5t42.5 15.5q40 3 47 -34q7 -36 -20 -63q-18 -19 -45 -16z" />
    <glyph glyph-name="Agrave" unicode="&#xc0;" horiz-adv-x="651" 
d="M559 7l-49 203h-303l-114 -203q-4 -7 -11 -7h-68q-11 0 -5 11l376 673q5 9 16 9h69q10 0 11 -9l165 -673q3 -11 -10 -11h-67q-9 0 -10 7zM491 287l-72 302l-170 -302h242zM494 710l-167 100q-10 5 -2 14l43 57q8 8 14 2l150 -124q7 -7 1 -13l-25 -33q-8 -8 -14 -3z" />
    <glyph glyph-name="Aacute" unicode="&#xc1;" horiz-adv-x="651" 
d="M559 7l-49 203h-303l-114 -203q-4 -7 -11 -7h-68q-11 0 -5 11l376 673q5 9 16 9h69q10 0 11 -9l165 -673q3 -11 -10 -11h-67q-9 0 -10 7zM491 287l-72 302l-170 -302h242zM555 882l26 -57q3 -8 -6 -14l-199 -100q-9 -4 -14 4l-15 31q-3 8 6 14l188 124q10 7 14 -2z" />
    <glyph glyph-name="Acircumflex" unicode="&#xc2;" horiz-adv-x="651" 
d="M559 7l-49 203h-303l-114 -203q-4 -7 -11 -7h-68q-11 0 -5 11l376 673q5 9 16 9h69q10 0 11 -9l165 -673q3 -11 -10 -11h-67q-9 0 -10 7zM491 287l-72 302l-170 -302h242zM513 749l-60 57l-78 -57q-8 -5 -14 -5h-77q-16 0 -3 9l136 99q8 5 14 5h61q7 0 12 -5l103 -98
q11 -10 -5 -10h-77q-4 0 -12 5z" />
    <glyph glyph-name="Atilde" unicode="&#xc3;" horiz-adv-x="651" 
d="M559 7l-49 203h-303l-114 -203q-4 -7 -11 -7h-68q-11 0 -5 11l376 673q5 9 16 9h69q10 0 11 -9l165 -673q3 -11 -10 -11h-67q-9 0 -10 7zM491 287l-72 302l-170 -302h242zM350 751q-5 -11 -13 -4l-21 21q-6 6 -3 13q21 41 48.5 64t54.5 23q22 0 38 -11t23 -24.5
t18.5 -24.5t25.5 -11q31 1 57 51q7 10 14 4l22 -22q7 -4 2 -12q-18 -39 -47 -62.5t-56 -23.5q-21 0 -36.5 11t-23 24.5t-19 24.5t-25.5 11q-31 -1 -59 -52z" />
    <glyph glyph-name="Adieresis" unicode="&#xc4;" horiz-adv-x="651" 
d="M559 7l-49 203h-303l-114 -203q-4 -7 -11 -7h-68q-11 0 -5 11l376 673q5 9 16 9h69q10 0 11 -9l165 -673q3 -11 -10 -11h-67q-9 0 -10 7zM491 287l-72 302l-170 -302h242zM310 792q5 27 23 43t44 16t39.5 -16.5t9.5 -42.5q-4 -25 -22.5 -41.5t-44.5 -16.5t-39.5 16
t-9.5 42zM590 792q-4 -25 -22.5 -41.5t-44.5 -16.5q-25 -3 -39 15t-10.5 43.5t23.5 41.5q29 28 66.5 12.5t26.5 -54.5z" />
    <glyph glyph-name="Aring" unicode="&#xc5;" horiz-adv-x="651" 
d="M559 7l-49 203h-303l-114 -203q-4 -7 -11 -7h-68q-11 0 -5 11l376 673q5 9 16 9h69q10 0 11 -9l165 -673q3 -11 -10 -11h-67q-9 0 -10 7zM491 287l-72 302l-170 -302h242zM359 801q7 41 36 66t70 25q42 0 63.5 -25t14.5 -66q-7 -42 -36 -67t-71 -25q-41 0 -62.5 25
t-14.5 67zM406 801q-4 -21 6.5 -33.5t31.5 -12.5q20 0 34 12.5t18 33.5q8 33 -23 42q-30 9 -53 -12q-13 -12 -14 -30z" />
    <glyph glyph-name="AE" unicode="&#xc6;" horiz-adv-x="812" 
d="M81 0h-71q-15 0 -6 14l475 671q7 9 17 9h368q11 0 9 -11l-9 -56q-2 -11 -12 -11h-235l-36 -223h188q10 0 9 -10l-10 -58q0 -10 -11 -10h-189l-37 -236h246q10 0 8 -11l-9 -58q-1 -10 -11 -10h-323q-10 1 -8 11l31 200h-228l-142 -204q-7 -7 -14 -7zM532 632l-240 -344
h186z" />
    <glyph glyph-name="Ccedilla" unicode="&#xc7;" horiz-adv-x="679" 
d="M657 82q-112 -92 -265 -92q-157 0 -240 98q-82 98 -56 258q12 84 53 154t100 114q119 89 257 89q146 1 234 -93q4 -7 -3 -13l-49 -46q-6 -6 -15 -1q-66 68 -181 68q-120 0 -205 -75t-105 -197t42 -196q61 -73 182 -75q116 2 203 68q7 7 15 0l35 -47q7 -7 -2 -14zM366 0
h64l-21 -35q85 -10 73 -81q-6 -41 -39.5 -65.5t-79.5 -23.5q-54 -1 -94 33q-6 4 0 12l25 28q4 5 11 1q34 -20 64 -20q20 0 34.5 10t16.5 26t-10 23.5t-40 7.5h-44q-8 0 -4 9z" />
    <glyph glyph-name="Egrave" unicode="&#xc8;" horiz-adv-x="519" 
d="M464 314h-246l-37 -234h303q9 0 8 -10l-10 -61q0 -9 -11 -9h-379q-9 0 -8 10l106 674q1 10 12 10h369q9 0 8 -10l-9 -61q-1 -10 -12 -10h-292l-35 -219h245q10 0 9 -10l-10 -60q-1 -10 -11 -10zM442 710l-168 100q-8 5 -1 14l43 57q8 8 14 2l150 -124q6 -6 1 -13l-25 -33
q-8 -8 -14 -3z" />
    <glyph glyph-name="Eacute" unicode="&#xc9;" horiz-adv-x="519" 
d="M464 314h-246l-37 -234h303q9 0 8 -10l-10 -61q0 -9 -11 -9h-379q-9 0 -8 10l106 674q1 10 12 10h369q9 0 8 -10l-9 -61q-1 -10 -12 -10h-292l-35 -219h245q10 0 9 -10l-10 -60q-1 -10 -11 -10zM514 882l26 -57q3 -8 -6 -14l-199 -100q-9 -6 -13 4l-15 31q-5 8 5 14
l189 124q8 7 13 -2z" />
    <glyph glyph-name="Ecircumflex" unicode="&#xca;" horiz-adv-x="519" 
d="M464 314h-246l-37 -234h303q9 0 8 -10l-10 -61q0 -9 -11 -9h-379q-9 0 -8 10l106 674q1 10 12 10h369q9 0 8 -10l-9 -61q-1 -10 -12 -10h-292l-35 -219h245q10 0 9 -10l-10 -60q-1 -10 -11 -10zM473 742l-61 57l-78 -57q-8 -5 -14 -5h-77q-15 0 -2 10l135 99q7 4 14 4h61
q7 0 12 -4l104 -98q9 -11 -6 -11h-77q-6 0 -11 5z" />
    <glyph glyph-name="Edieresis" unicode="&#xcb;" horiz-adv-x="519" 
d="M464 314h-246l-37 -234h303q9 0 8 -10l-10 -61q0 -9 -11 -9h-379q-9 0 -8 10l106 674q1 10 12 10h369q9 0 8 -10l-9 -61q-1 -10 -12 -10h-292l-35 -219h245q10 0 9 -10l-10 -60q-1 -10 -11 -10zM269 795q4 25 21.5 40.5t42.5 15.5q24 0 37 -15.5t9 -40.5
q-4 -24 -21.5 -39.5t-42.5 -15.5t-37.5 15.5t-8.5 39.5zM425 795q4 25 21.5 40.5t42.5 15.5t37.5 -15.5t8.5 -40.5q-4 -24 -21.5 -39.5t-42.5 -15.5t-37.5 15.5t-8.5 39.5z" />
    <glyph glyph-name="Igrave" unicode="&#xcc;" horiz-adv-x="250" 
d="M276 684l-107 -675q0 -9 -10 -9h-68q-8 0 -8 9l107 675q1 10 11 10h68q8 0 7 -10zM292 710l-167 100q-8 5 -2 14l43 57q8 8 14 2l151 -124q7 -7 0 -13l-25 -33q-6 -8 -14 -3z" />
    <glyph glyph-name="Iacute" unicode="&#xcd;" horiz-adv-x="250" 
d="M276 684l-107 -675q0 -9 -10 -9h-68q-8 0 -8 9l107 675q1 10 11 10h68q8 0 7 -10zM355 882l26 -57q3 -8 -6 -14l-199 -100q-9 -4 -14 4l-15 31q-3 8 5 14l189 124q10 7 14 -2z" />
    <glyph glyph-name="Icircumflex" unicode="&#xce;" horiz-adv-x="250" 
d="M276 684l-107 -675q0 -9 -10 -9h-68q-8 0 -8 9l107 675q1 10 11 10h68q8 0 7 -10zM214 845l18 17h61q7 0 13 -6l109 -103q10 -10 -5 -10h-81q-5 0 -13 5zM72 752l142 104q8 6 15 6h62l11 -17l-132 -97q-8 -5 -14 -5h-82q-7 0 -8 2.5t6 6.5z" />
    <glyph glyph-name="Idieresis" unicode="&#xcf;" horiz-adv-x="250" 
d="M276 684l-107 -675q0 -9 -10 -9h-68q-8 0 -8 9l107 675q1 10 11 10h68q8 0 7 -10zM110 794q5 27 23 43t45 16q26 0 39 -16t9 -43q-4 -25 -22.5 -41.5t-44.5 -16.5t-39.5 16t-9.5 42zM275 794q4 26 22.5 42.5t44.5 16.5t39.5 -16.5t9.5 -42.5q-5 -26 -23.5 -42t-44.5 -16
t-39 16.5t-9 41.5z" />
    <glyph glyph-name="Eth" unicode="&#xd0;" horiz-adv-x="670" 
d="M278 0h-186q-9 0 -8 10l47 300h-50q-8 0 -7 10l7 46q1 10 11 10h50l48 308q1 10 12 10h186q161 0 243 -94q83 -95 58 -253q-25 -159 -138 -254q-113 -93 -273 -93zM217 310l-36 -230h110q123 0 207 72q84 71 104 195q19 122 -43 195q-61 72 -184 72h-110l-37 -238h140
q8 0 7 -10l-7 -46q-1 -10 -11 -10h-140z" />
    <glyph glyph-name="Ntilde" unicode="&#xd1;" horiz-adv-x="713" 
d="M665 694h67q9 0 8 -10l-108 -674q0 -10 -10 -10h-81q-7 0 -11 6l-273 551l-88 -547q0 -10 -10 -10h-68q-8 0 -8 10l107 674q1 10 12 10h81q7 0 11 -7l273 -550l86 547q1 10 12 10zM364 748q-5 -12 -13 -4l-23 22q-7 4 -2 13q21 42 49.5 66t56.5 24q23 0 39.5 -11.5
t24 -25t19.5 -25t27 -11.5q34 2 59 52q6 12 15 5l23 -22q7 -4 2 -13q-20 -42 -49 -66t-58 -24q-22 0 -38.5 11.5t-24.5 25.5t-20 25.5t-26 11.5q-32 -1 -61 -54z" />
    <glyph glyph-name="Ograve" unicode="&#xd2;" horiz-adv-x="793" 
d="M96 347q25 159 139 258q113 98 273 98t243 -98q83 -97 57 -258t-139 -259q-112 -97 -273 -97q-160 0 -243 98q-83 97 -57 258zM409 76q120 0 206 74q85 75 105 197q19 121 -42 196q-62 75 -183 75t-208 -75q-85 -73 -105 -196q-19 -121 43 -197q62 -74 184 -74zM560 712
l-168 100q-8 5 -1 14l43 57q8 8 14 2l150 -124q6 -6 1 -13l-25 -33q-8 -8 -14 -3z" />
    <glyph glyph-name="Oacute" unicode="&#xd3;" horiz-adv-x="793" 
d="M96 347q25 159 139 258q113 98 273 98t243 -98q83 -97 57 -258t-139 -259q-112 -97 -273 -97q-160 0 -243 98q-83 97 -57 258zM409 76q120 0 206 74q85 75 105 197q19 121 -42 196q-62 75 -183 75t-208 -75q-85 -73 -105 -196q-19 -121 43 -197q62 -74 184 -74zM629 882
l26 -57q3 -10 -7 -14l-198 -100q-10 -4 -14 4l-15 31q-3 8 5 14l189 124q9 6 14 -2z" />
    <glyph glyph-name="Ocircumflex" unicode="&#xd4;" horiz-adv-x="793" 
d="M95 348q25 160 139 257q115 98 275 98q159 0 242 -98q82 -97 57 -257t-139 -260q-113 -98 -273 -98q-161 0 -244 98q-83 99 -57 260zM182 348q-19 -122 43 -198q61 -75 184 -75q121 0 206 75q87 76 106 198q20 123 -43 196q-62 74 -183 74q-123 0 -208 -75
q-85 -73 -105 -195zM584 750l-61 57l-78 -57q-7 -4 -14 -4h-77q-14 0 -2 9l135 99q8 5 14 5h61q7 0 12 -5l104 -98q9 -10 -6 -10h-77q-6 0 -11 4z" />
    <glyph glyph-name="Otilde" unicode="&#xd5;" horiz-adv-x="793" 
d="M96 347q25 159 139 258q113 98 273 98t243 -98q83 -97 57 -258t-139 -259q-112 -97 -273 -97q-160 0 -243 98q-83 97 -57 258zM409 76q120 0 206 74q85 75 105 197q19 121 -42 196q-62 75 -183 75t-208 -75q-85 -73 -105 -196q-19 -121 43 -197q62 -74 184 -74zM404 748
q-5 -12 -13 -4l-23 22q-6 6 -1 13q21 42 49.5 66t56.5 24q23 0 39 -11.5t23.5 -25t19.5 -25t27 -11.5q35 2 60 52q6 12 15 5l23 -22q5 -5 2 -13q-21 -42 -50 -66t-58 -24q-22 0 -38.5 11.5t-24.5 25.5t-20 25.5t-26 11.5q-32 -1 -61 -54z" />
    <glyph glyph-name="Odieresis" unicode="&#xd6;" horiz-adv-x="793" 
d="M96 347q25 159 139 258q113 98 273 98t243 -98q83 -97 57 -258t-139 -259q-112 -97 -273 -97q-160 0 -243 98q-83 97 -57 258zM409 76q120 0 206 74q85 75 105 197q19 121 -42 196q-62 75 -183 75t-208 -75q-85 -73 -105 -196q-19 -121 43 -197q62 -74 184 -74zM382 794
q5 27 23 43t44 16t39.5 -16.5t9.5 -42.5q-4 -25 -22.5 -41.5t-44.5 -16.5t-39.5 16t-9.5 42zM546 794q5 27 23.5 43t44.5 16t39.5 -16.5t8.5 -42.5q-4 -25 -22.5 -41.5t-44.5 -16.5q-25 0 -39 16t-10 42z" />
    <glyph glyph-name="multiply" unicode="&#xd7;" horiz-adv-x="493" 
d="M242 320l-101 119q-6 8 2 14l47 41q9 6 14 0l101 -119l139 120q9 8 14 0l36 -42q4 -8 -2 -14l-139 -120l100 -120q5 -5 -3 -14l-47 -41q-8 -6 -13 0l-101 120l-139 -120q-9 -6 -14 0l-36 42q-4 7 3 13z" />
    <glyph glyph-name="Oslash" unicode="&#xd8;" horiz-adv-x="761" 
d="M96 347q25 159 139 258q113 98 273 98t243 -98q83 -97 57 -258t-139 -259q-112 -97 -273 -97q-160 0 -243 98q-83 97 -57 258zM409 76q120 0 206 74q85 75 105 197q19 121 -42 196q-62 75 -183 75t-208 -75q-85 -73 -105 -196q-19 -121 43 -197q62 -74 184 -74zM70 23
l710 674q8 9 16 1l25 -27q7 -7 -2 -14l-711 -675q-7 -7 -14 0l-26 27q-6 6 2 14z" />
    <glyph glyph-name="Ugrave" unicode="&#xd9;" horiz-adv-x="648" 
d="M114 272l65 412q1 9 11 9h68q9 0 8 -10l-65 -412q-15 -94 21.5 -144.5t113.5 -50.5q78 0 129.5 50t66.5 145l65 413q1 9 12 9h68q9 0 8 -9l-65 -413q-23 -134 -102 -207t-195 -73t-173 73.5t-36 207.5zM483 710l-167 100q-10 5 -2 14l43 57q8 8 14 2l150 -124q7 -7 1 -13
l-25 -33q-8 -8 -14 -3z" />
    <glyph glyph-name="Uacute" unicode="&#xda;" horiz-adv-x="648" 
d="M114 272l65 412q1 9 11 9h68q9 0 8 -10l-65 -412q-15 -94 21.5 -144.5t113.5 -50.5q78 0 129.5 50t66.5 145l65 413q1 9 12 9h68q9 0 8 -9l-65 -413q-23 -134 -102 -207t-195 -73t-173 73.5t-36 207.5zM553 882l26 -57q5 -8 -6 -14l-199 -100q-9 -6 -13 4l-15 31
q-3 8 5 14l189 124q8 7 13 -2z" />
    <glyph glyph-name="Ucircumflex" unicode="&#xdb;" horiz-adv-x="648" 
d="M114 272l65 412q1 10 11 10l67 -1q9 0 8 -9l-65 -412q-15 -95 21.5 -146t114.5 -51t130 51t67 146l65 412q1 10 12 10h67q9 0 8 -10l-66 -412q-22 -136 -103 -209q-79 -73 -194 -73q-116 0 -172.5 74t-35.5 208zM512 750l-60 57l-78 -57q-9 -4 -15 -4h-76q-13 0 -3 9
l136 99q8 5 14 5h60q8 0 13 -5l103 -98q10 -10 -5 -10h-77q-5 0 -12 4z" />
    <glyph glyph-name="Udieresis" unicode="&#xdc;" horiz-adv-x="648" 
d="M114 272l65 412q1 9 11 9h68q9 0 8 -10l-65 -412q-15 -94 21.5 -144.5t113.5 -50.5q78 0 129.5 50t66.5 145l65 413q1 9 12 9h68q9 0 8 -9l-65 -413q-23 -134 -102 -207t-195 -73t-173 73.5t-36 207.5zM309 794q5 27 23 43t44 16t39.5 -16.5t9.5 -42.5
q-4 -25 -22.5 -41.5t-44.5 -16.5t-39.5 16t-9.5 42zM474 794q4 26 22.5 42.5t44.5 16.5t39.5 -16.5t8.5 -42.5q-4 -26 -22.5 -42t-44.5 -16t-39 16.5t-9 41.5z" />
    <glyph glyph-name="Yacute" unicode="&#xdd;" horiz-adv-x="575" 
d="M245 9l43 267l-174 405q-4 12 9 12h75q9 0 12 -8l134 -331l238 331q5 8 16 8h74q16 0 5 -12l-302 -404l-43 -268q0 -9 -10 -9h-68q-9 0 -9 9zM517 882l26 -57q3 -8 -6 -14l-199 -100q-9 -6 -13 4l-15 31q-5 9 5 14l189 124q8 7 13 -2z" />
    <glyph glyph-name="Thorn" unicode="&#xde;" horiz-adv-x="551" 
d="M74 11l106 672q2 11 13 11h67q9 0 8 -10l-22 -135h127q104 0 154.5 -53.5t36.5 -148.5q-16 -94 -83.5 -148t-171.5 -54h-127l-21 -135q-1 -10 -12 -10h-66q-11 0 -9 11zM358 469h-125l-38 -244h125q66 0 106.5 31.5t50.5 89.5q9 59 -22 91t-97 32z" />
    <glyph glyph-name="germandbls" unicode="&#xdf;" horiz-adv-x="566" 
d="M293 81q29 -21 65 -21q39 0 67.5 21.5t33.5 54.5q5 28 -8.5 55t-35 48t-43.5 42.5t-36 48t-10 54.5q3 25 33 55.5t59.5 59t31.5 46.5q6 37 -15.5 56.5t-61.5 19.5q-35 0 -65 -16q-39 -27 -57 -73q-13 -36 -20 -67l-6 -34l-5 -35q-1 -7 -2 -13.5t-2 -11.5t-1 -7l-56 -354
q-1 -10 -13 -10h-65q-10 0 -9 10l74 466q17 102 79 164q62 63 160 65q78 -2 120 -44q44 -42 32 -116q-6 -39 -35.5 -69.5t-58 -53t-33.5 -41.5q-3 -15 12.5 -31.5t38.5 -35t45.5 -41t35 -58t5.5 -77.5q-11 -73 -69 -119t-133 -46q-51 0 -98 26q-8 5 -2 15l35 63q4 10 13 4z
" />
    <glyph glyph-name="agrave" unicode="&#xe0;" horiz-adv-x="580" 
d="M492 376l23 67q3 9 13 9h47q9 0 7 -9l-68 -433q-1 -10 -12 -10h-47q-5 0 -10 9l-1 67q-71 -86 -183 -86q-102 0 -155 65q-52 65 -35 171q17 107 89 170q73 64 176 66q112 0 156 -86zM281 70q70 0 120.5 43t63.5 113q10 70 -27 113t-107 43q-71 0 -120 -43
q-50 -44 -60 -113q-11 -70 25 -113t105 -43zM401 523l-141 110q-9 6 0 13l50 52q8 6 13 0l122 -134q4 -4 -1 -10l-30 -30q-9 -5 -13 -1z" />
    <glyph glyph-name="aacute" unicode="&#xe1;" horiz-adv-x="580" 
d="M492 376l23 67q3 9 13 9h47q9 0 7 -9l-68 -433q-1 -10 -12 -10h-47q-5 0 -10 9l-1 67q-71 -86 -183 -86q-102 0 -155 65q-52 65 -35 171q17 107 89 170q73 64 176 66q112 0 156 -86zM281 70q70 0 120.5 43t63.5 113q10 70 -27 113t-107 43q-71 0 -120 -43
q-50 -44 -60 -113q-11 -70 25 -113t105 -43zM485 693l35 -54q4 -7 -3 -14l-185 -115q-9 -6 -14 2l-19 29q-5 7 3 15l169 138q9 7 14 -1z" />
    <glyph glyph-name="acircumflex" unicode="&#xe2;" horiz-adv-x="580" 
d="M492 376l23 67q3 9 13 9h47q9 0 7 -9l-68 -433q-1 -10 -12 -10h-47q-5 0 -10 9l-1 67q-71 -86 -183 -86q-102 0 -155 65q-52 65 -35 171q17 107 89 170q73 64 176 66q112 0 156 -86zM281 70q70 0 120.5 43t63.5 113q10 70 -27 113t-107 43q-71 0 -120 -43
q-50 -44 -60 -113q-11 -70 25 -113t105 -43zM208 539l128 133q5 5 14 5h64q8 0 13 -5l85 -132q4 -9 -6 -9h-67q-5 0 -10 5l-55 89l-83 -88q-6 -6 -14 -6h-66q-9 0 -3 8z" />
    <glyph glyph-name="atilde" unicode="&#xe3;" horiz-adv-x="580" 
d="M492 376l23 67q3 9 13 9h47q9 0 7 -9l-68 -433q-1 -10 -12 -10h-47q-5 0 -10 9l-1 67q-71 -86 -183 -86q-102 0 -155 65q-52 65 -35 171q17 107 89 170q73 64 176 66q112 0 156 -86zM281 70q70 0 120.5 43t63.5 113q10 70 -27 113t-107 43q-71 0 -120 -43
q-50 -44 -60 -113q-11 -70 25 -113t105 -43zM258 550q-8 -8 -14 -4l-24 23q-6 4 -2 11q21 42 50.5 66.5t56.5 24.5q29 0 46.5 -18.5t30.5 -36.5t31 -18q34 1 61 54q5 11 11 3l26 -24q5 -3 1 -9q-19 -42 -48 -66.5t-58 -24.5q-22 0 -38.5 11.5t-24.5 25.5t-20 25t-26 10
q-33 0 -59 -53z" />
    <glyph glyph-name="adieresis" unicode="&#xe4;" horiz-adv-x="580" 
d="M492 376l23 67q3 9 13 9h47q9 0 7 -9l-68 -433q-1 -10 -12 -10h-47q-5 0 -10 9l-1 67q-71 -86 -183 -86q-102 0 -155 65q-52 65 -35 171q17 107 89 170q73 64 176 66q112 0 156 -86zM281 70q70 0 120.5 43t63.5 113q10 70 -27 113t-107 43q-71 0 -120 -43
q-50 -44 -60 -113q-11 -70 25 -113t105 -43zM243 603q5 27 23 42.5t45 15.5q25 2 38.5 -16t9.5 -42.5t-23 -41.5q-21 -15 -44 -16t-39.5 16t-9.5 42zM408 603q4 26 22.5 42t44.5 16t39.5 -16t9.5 -42q-5 -26 -23.5 -42t-43.5 -16q-27 0 -40.5 16t-8.5 42z" />
    <glyph glyph-name="aring" unicode="&#xe5;" horiz-adv-x="580" 
d="M492 376l23 67q3 9 13 9h47q9 0 7 -9l-68 -433q-1 -10 -12 -10h-47q-5 0 -10 9l-1 67q-71 -86 -183 -86q-102 0 -155 65q-52 65 -35 171q17 107 89 170q73 64 176 66q112 0 156 -86zM281 70q70 0 120.5 43t63.5 113q10 70 -27 113t-107 43q-71 0 -120 -43
q-50 -44 -60 -113q-11 -70 25 -113t105 -43zM293 611q7 41 36 66t70 25q42 0 63.5 -25t14.5 -66q-7 -42 -36 -67.5t-72 -25.5q-41 0 -62 25.5t-14 67.5zM341 610q-3 -19 7.5 -31t29.5 -12q20 0 34 12t17 31q7 33 -23.5 41.5t-52.5 -14.5q-10 -12 -12 -27z" />
    <glyph glyph-name="ae" unicode="&#xe6;" horiz-adv-x="938" 
d="M821 114q9 7 15 1l35 -41q6 -7 -1 -14q-74 -70 -194 -70q-100 0 -156 59q0 -2 -3 -19.5t-3 -19.5q-1 -10 -12 -10h-46q-9 0 -10 10l-2 66q-71 -86 -183 -86q-102 0 -155 65q-52 65 -35 171q17 107 89 170q73 64 176 66q112 0 156 -86l23 67q5 9 14 9h46q9 0 7 -9l-6 -38
q70 57 165 57q111 0 162.5 -70.5t31.5 -189.5q-1 -10 -12 -10h-375q2 -57 39.5 -90.5t102.5 -33.5q81 0 131 46zM281 70q70 0 120.5 43t63.5 113q10 70 -27 113t-107 43q-71 0 -120 -43q-50 -44 -60 -113q-11 -70 25 -113t105 -43zM558 259h303q0 57 -35 91t-97 34
q-61 0 -107 -34t-64 -91z" />
    <glyph glyph-name="ccedilla" unicode="&#xe7;" horiz-adv-x="501" 
d="M479 86q-79 -96 -211 -96q-104 0 -160 65q-54 65 -37 171q18 113 97 174q80 63 176 63q61 0 108.5 -26t71.5 -74q5 -10 -4 -14l-52 -39q-10 -8 -15 3q-35 68 -123 68q-70 0 -119 -42.5t-60 -112.5t24.5 -113t105.5 -43q89 0 144 66q8 11 16 3l38 -39q5 -5 0 -14zM222 0
h64l-21 -35q85 -10 74 -81q-7 -41 -40.5 -65.5t-79.5 -23.5q-54 -1 -94 33q-6 5 1 12l24 28q4 5 11 1q34 -20 64 -20q20 0 34.5 10t16.5 26t-10 23.5t-40 7.5h-44q-8 0 -4 9z" />
    <glyph glyph-name="egrave" unicode="&#xe8;" horiz-adv-x="540" 
d="M159 259h303q0 57 -35 91t-96 34q-62 0 -108 -34t-64 -91zM525 192h-376q2 -57 40 -90.5t103 -33.5q79 0 130 45q11 9 16 1l35 -40q7 -6 -1 -14q-74 -70 -195 -70q-110 0 -167 65q-56 65 -39 171q17 105 92 170q75 66 180 66q111 0 162 -68.5t31 -191.5q-1 -10 -11 -10z
M388 522l-142 110q-7 6 0 13l50 52q9 6 14 0l121 -134q5 -5 -1 -10l-30 -30q-7 -5 -12 -1z" />
    <glyph glyph-name="eacute" unicode="&#xe9;" horiz-adv-x="540" 
d="M159 259h303q0 57 -35 91t-96 34q-62 0 -108 -34t-64 -91zM525 192h-376q2 -57 40 -90.5t103 -33.5q79 0 130 45q11 9 16 1l35 -40q7 -6 -1 -14q-74 -70 -195 -70q-110 0 -167 65q-56 65 -39 171q17 105 92 170q75 66 180 66q111 0 162 -68.5t31 -191.5q-1 -10 -11 -10z
M456 693l34 -51q4 -7 -3 -13l-177 -110q-7 -7 -14 1l-18 28q-4 7 3 14l162 132q8 8 13 -1z" />
    <glyph glyph-name="ecircumflex" unicode="&#xea;" horiz-adv-x="539" 
d="M159 259h303q0 57 -35 91t-97 34q-61 0 -107 -34t-64 -91zM525 192h-376q1 -57 39 -90.5t103 -33.5q80 0 131 45q8 9 16 1l34 -40q7 -7 -1 -14q-73 -70 -194 -70q-108 0 -167 65q-57 64 -40 171q17 105 92 170q76 66 181 66q111 0 162 -68.5t31 -191.5q-1 -10 -11 -10z
M202 537l127 133q8 5 14 5h64q8 0 13 -5l85 -132q6 -9 -5 -9h-68q-6 0 -9 5l-56 89l-83 -88q-4 -6 -13 -6h-67q-10 0 -2 8z" />
    <glyph glyph-name="edieresis" unicode="&#xeb;" horiz-adv-x="540" 
d="M159 259h303q0 57 -35 91t-96 34q-62 0 -108 -34t-64 -91zM525 192h-376q2 -57 40 -90.5t103 -33.5q79 0 130 45q11 9 16 1l35 -40q7 -6 -1 -14q-74 -70 -195 -70q-110 0 -167 65q-56 65 -39 171q17 105 92 170q75 66 180 66q111 0 162 -68.5t31 -191.5q-1 -10 -11 -10z
M226 609q5 27 23 42.5t44 15.5t39 -16.5t9 -41.5q-4 -26 -22.5 -41.5t-44.5 -15.5q-25 0 -38.5 15.5t-9.5 41.5zM390 609q4 26 22 42t44 16q25 0 38.5 -16.5t9.5 -41.5t-22.5 -41t-43.5 -16q-27 0 -40 15.5t-8 41.5z" />
    <glyph glyph-name="igrave" unicode="&#xec;" horiz-adv-x="222" 
d="M222 443l-68 -433q-1 -10 -11 -10h-63q-9 0 -8 10l68 433q2 9 12 9h62q10 0 8 -9zM240 516l-141 109q-8 6 0 14l50 52q8 6 14 0l121 -134q5 -5 -1 -11l-30 -29q-7 -6 -13 -1z" />
    <glyph glyph-name="iacute" unicode="&#xed;" horiz-adv-x="222" 
d="M222 443l-68 -433q-1 -10 -11 -10h-63q-9 0 -8 10l68 433q2 9 12 9h62q10 0 8 -9zM293 694l35 -52q5 -8 -4 -13l-177 -111q-10 -6 -14 1l-18 29q-4 7 3 14l163 133q8 6 12 -1z" />
    <glyph glyph-name="icircumflex" unicode="&#xee;" horiz-adv-x="222" 
d="M222 443l-68 -433q-1 -10 -11 -10h-63q-9 0 -8 10l68 433q2 9 12 9h62q10 0 8 -9zM35 528l134 140q6 6 15 6h67q9 0 14 -6l89 -139q6 -9 -5 -9h-71q-7 0 -10 5l-58 94l-88 -93q-6 -6 -14 -6h-70q-11 0 -3 8z" />
    <glyph glyph-name="idieresis" unicode="&#xef;" horiz-adv-x="222" 
d="M222 443l-68 -433q-1 -10 -11 -10h-63q-9 0 -8 10l68 433q2 9 12 9h62q10 0 8 -9zM63 599q4 27 22.5 42.5t45.5 15.5q26 0 39 -16t9 -42q-4 -25 -22.5 -41.5t-44.5 -16.5t-39.5 16t-9.5 42zM228 599q4 27 22 42.5t45 15.5q26 0 39.5 -16t9.5 -42q-5 -26 -23.5 -42
t-43.5 -16q-27 0 -40.5 16t-8.5 42z" />
    <glyph glyph-name="eth" unicode="&#xf0;" horiz-adv-x="539" 
d="M267 -10q-96 0 -147 59q-50 59 -35 154q15 96 82 153q67 58 163 58q60 0 98 -32q-22 83 -77 149l-117 -55q-5 -4 -10 2l-24 28q-4 7 4 12l110 52q-38 37 -92 65q-9 3 -3 13l37 54q6 9 15 5q75 -33 133 -94l102 48q7 3 12 -2l23 -28q6 -8 -4 -12l-100 -47q54 -77 76 -174
q23 -100 5 -196q-16 -96 -87 -155q-69 -57 -164 -57zM438 206q9 62 -21 97t-94 35q-60 0 -102.5 -37t-52.5 -98q-9 -59 22 -96t90 -37q60 0 104 38.5t54 97.5z" />
    <glyph glyph-name="ntilde" unicode="&#xf1;" horiz-adv-x="546" 
d="M68 10l69 432q1 10 10 10h45q11 0 11 -10v-70q61 90 170 90q83 0 122 -52t24 -150l-39 -250q-1 -10 -11 -10h-62q-9 0 -8 10l39 244q21 128 -93 128q-56 0 -103 -47t-60 -116l-33 -209q-1 -10 -11 -10h-61q-10 0 -9 10zM256 563q-6 -12 -13 -3l-23 22q-5 3 -2 9
q21 41 48.5 64t54.5 23q21 0 36.5 -11t23 -23.5t19 -23.5t25.5 -11q30 2 58 51q3 9 12 4l23 -24q5 -2 2 -7q-19 -41 -47 -65t-56 -24q-21 0 -36.5 11t-23 24.5t-19 24.5t-25.5 11q-32 -2 -57 -52z" />
    <glyph glyph-name="ograve" unicode="&#xf2;" horiz-adv-x="541" 
d="M71 227q17 106 91 170q77 65 181 65q106 0 160 -65q55 -64 38 -170q-16 -105 -92 -172q-76 -65 -181 -65q-104 0 -160 65q-54 65 -37 172zM151 226q-11 -69 25 -112.5t105 -43.5q70 0 119 43q51 44 61 113q11 70 -24.5 113t-105.5 43q-69 0 -119 -43t-61 -113zM380 522
l-142 110q-7 6 0 13l50 52q9 6 14 0l121 -134q5 -5 -1 -10l-30 -30q-7 -5 -12 -1z" />
    <glyph glyph-name="oacute" unicode="&#xf3;" horiz-adv-x="541" 
d="M71 227q17 105 92 170q75 66 181 66q104 0 160 -66q55 -64 38 -170q-17 -107 -92 -172q-77 -65 -181 -65q-105 0 -161 65q-54 65 -37 172zM282 71q70 0 119 43t60 113t-24.5 112.5t-105.5 42.5q-69 0 -118.5 -42.5t-60.5 -112.5t25 -113t105 -43zM448 692l34 -52
q6 -6 -3 -13l-177 -110q-9 -8 -14 2l-18 27q-4 8 3 15l162 132q8 5 13 -1z" />
    <glyph glyph-name="ocircumflex" unicode="&#xf4;" horiz-adv-x="541" 
d="M71 227q17 106 91 170q77 65 181 65q106 0 160 -65q55 -64 38 -170q-16 -105 -92 -172q-76 -65 -181 -65q-104 0 -160 65q-54 65 -37 172zM151 226q-11 -69 25 -112.5t105 -43.5q70 0 119 43q51 44 61 113q11 70 -24.5 113t-105.5 43q-69 0 -119 -43t-61 -113zM204 538
l127 133q6 6 15 6h63q8 0 14 -6l84 -132q6 -8 -5 -8h-68q-5 0 -9 4l-55 90l-84 -89q-5 -5 -13 -5h-67q-10 0 -2 7z" />
    <glyph glyph-name="otilde" unicode="&#xf5;" horiz-adv-x="541" 
d="M71 227q17 106 91 170q77 65 181 65q106 0 160 -65q55 -64 38 -170q-16 -105 -92 -172q-76 -65 -181 -65q-104 0 -160 65q-54 65 -37 172zM151 226q-11 -69 25 -112.5t105 -43.5q70 0 119 43q51 44 61 113q11 70 -24.5 113t-105.5 43q-69 0 -119 -43t-61 -113zM247 551
q-7 -10 -14 -4l-24 23q-5 5 -2 10q21 42 50.5 66.5t56.5 24.5q23 0 39 -11.5t23.5 -25t19.5 -25t27 -11.5q31 2 60 54q5 11 11 3l26 -23q5 -3 2 -9q-20 -42 -49 -66.5t-58 -24.5q-22 0 -38 11.5t-24 25.5t-20 25t-26 10q-32 -2 -60 -53z" />
    <glyph glyph-name="odieresis" unicode="&#xf6;" horiz-adv-x="541" 
d="M71 227q17 106 91 170q77 65 181 65q106 0 160 -65q55 -64 38 -170q-16 -105 -92 -172q-76 -65 -181 -65q-104 0 -160 65q-54 65 -37 172zM151 226q-11 -69 25 -112.5t105 -43.5q70 0 119 43q51 44 61 113q11 70 -24.5 113t-105.5 43q-69 0 -119 -43t-61 -113zM226 610
q4 26 22.5 42t44.5 16q25 0 39 -16t10 -42q-5 -26 -23.5 -42t-43.5 -16q-27 0 -40.5 16t-8.5 42zM390 610q5 26 23.5 42t43.5 16q27 0 40.5 -16t8.5 -42q-4 -25 -22.5 -41.5t-44.5 -16.5q-25 0 -39 16t-10 42z" />
    <glyph glyph-name="divide" unicode="&#xf7;" horiz-adv-x="539" 
d="M277 448q4 28 24.5 45t49.5 17t43 -17t10 -45q-5 -29 -25 -46.5t-48 -17.5q-29 0 -44 17.5t-10 46.5zM229 147q4 28 24.5 45.5t49.5 17.5q28 0 43 -17t10 -46q-4 -28 -24 -45.5t-49 -17.5q-30 0 -44.5 17t-9.5 46zM110 265l9 57q2 11 11 9h383q11 0 9 -9l-9 -57
q-1 -9 -11 -9h-383q-11 0 -9 9z" />
    <glyph glyph-name="oslash" unicode="&#xf8;" horiz-adv-x="541" 
d="M474 425l48 45q8 8 15 1l25 -27q7 -7 -1 -14l-48 -46q43 -62 28 -157q-16 -105 -92 -172q-76 -65 -181 -65q-78 0 -131 39l-53 -51q-9 -8 -14 0l-26 27q-7 6 1 14l54 51q-43 61 -28 157q17 106 91 170q77 65 181 65q81 0 131 -37zM447 322l-245 -231q34 -21 79 -21
q70 0 119 43q51 44 61 113q9 58 -14 96zM164 131l244 232q-32 19 -77 19q-69 0 -119 -43t-61 -113q-9 -55 13 -95z" />
    <glyph glyph-name="ugrave" unicode="&#xf9;" horiz-adv-x="547" 
d="M414 9l1 71q-66 -91 -174 -91q-83 0 -121.5 52t-23.5 150l39 251q1 10 12 10h62q8 0 7 -10l-39 -244q-21 -130 94 -130q58 0 104 46t60 119l33 209q1 10 12 10h61q9 0 8 -10l-69 -433q0 -9 -10 -9h-45q-9 0 -11 9zM387 514l-142 109q-3 2 -3 6.5t4 7.5l50 52q8 8 13 0
l121 -134q4 -4 0 -11l-31 -29q-7 -7 -12 -1z" />
    <glyph glyph-name="uacute" unicode="&#xfa;" horiz-adv-x="547" 
d="M414 9l1 71q-66 -91 -174 -91q-83 0 -121.5 52t-23.5 150l39 251q1 10 12 10h62q8 0 7 -10l-39 -244q-21 -130 94 -130q58 0 104 46t60 119l33 209q1 10 12 10h61q9 0 8 -10l-69 -433q0 -9 -10 -9h-45q-9 0 -11 9zM457 690l34 -51q7 -8 -3 -13l-177 -111q-10 -5 -14 2
l-19 28q-5 6 3 14l163 132q8 8 13 -1z" />
    <glyph glyph-name="ucircumflex" unicode="&#xfb;" horiz-adv-x="547" 
d="M414 9l1 71q-66 -91 -174 -91q-83 0 -121.5 52t-23.5 150l39 251q1 10 12 10h62q8 0 7 -10l-39 -244q-21 -130 94 -130q58 0 104 46t60 119l33 209q1 10 12 10h61q9 0 8 -10l-69 -433q0 -9 -10 -9h-45q-9 0 -11 9zM205 536l129 135q6 6 14 6h65q9 0 13 -6l86 -134
q6 -8 -6 -8h-68q-5 0 -10 5l-55 90l-85 -89q-4 -6 -13 -6h-67q-10 0 -3 7z" />
    <glyph glyph-name="udieresis" unicode="&#xfc;" horiz-adv-x="547" 
d="M414 9l1 71q-66 -91 -174 -91q-83 0 -121.5 52t-23.5 150l39 251q1 10 12 10h62q8 0 7 -10l-39 -244q-21 -130 94 -130q58 0 104 46t60 119l33 209q1 10 12 10h61q9 0 8 -10l-69 -433q0 -9 -10 -9h-45q-9 0 -11 9zM228 599q4 27 22 42.5t45 15.5q26 0 39.5 -16t9.5 -42
q-5 -26 -23.5 -42t-43.5 -16q-26 0 -39.5 16t-9.5 42zM392 599q5 27 23 42.5t44 15.5q27 0 40.5 -16t8.5 -42q-4 -25 -22.5 -41.5t-44.5 -16.5q-25 0 -39 16t-10 42z" />
    <glyph glyph-name="yacute" unicode="&#xfd;" horiz-adv-x="468" 
d="M454 452h68q14 -2 5 -14l-374 -657q-5 -9 -15 -9h-62q-14 0 -7 13l122 217l-113 436q-2 13 11 14h69q10 0 11 -9l77 -342l193 342q5 9 15 9zM437 674l34 -52q6 -6 -3 -13l-177 -110q-9 -6 -14 2l-19 27q-4 7 4 15l162 132q8 8 13 -1z" />
    <glyph glyph-name="thorn" unicode="&#xfe;" horiz-adv-x="578" 
d="M192 722h60q10 0 9 -10l-53 -333q68 83 179 83q101 0 154 -65q53 -66 37 -171q-16 -104 -91 -171q-74 -65 -175 -65q-112 0 -152 84l-47 -292q0 -10 -11 -10h-60q-9 0 -9 10l148 930q1 10 11 10zM368 382q-70 0 -121 -42.5t-63 -112.5q-10 -71 27 -114t107 -43
q69 0 119 43t61 113t-25 113t-105 43z" />
    <glyph glyph-name="ydieresis" unicode="&#xff;" horiz-adv-x="468" 
d="M454 452h68q14 -2 5 -14l-374 -657q-5 -9 -15 -9h-62q-14 0 -7 13l122 217l-113 436q-2 13 11 14h69q10 0 11 -9l77 -342l193 342q5 9 15 9zM178 590q5 27 23 42.5t44 15.5q25 0 39 -16t10 -42q-5 -26 -23.5 -42t-43.5 -16q-26 0 -39.5 16t-9.5 42zM342 590q5 26 23.5 42
t43.5 16q27 0 40.5 -16t8.5 -42q-4 -25 -22.5 -41.5t-44.5 -16.5q-25 0 -39 16t-10 42z" />
    <glyph glyph-name="Amacron" unicode="&#x100;" horiz-adv-x="651" 
d="M559 7l-49 203h-303l-114 -203q-4 -7 -11 -7h-68q-11 0 -5 11l376 673q5 9 16 9h69q10 0 11 -9l165 -673q3 -11 -10 -11h-67q-9 0 -10 7zM491 287l-72 302l-170 -302h242zM339 828h235q10 0 8 -9l-8 -52q-1 -10 -11 -10h-235q-9 0 -8 10l8 52q2 9 11 9z" />
    <glyph glyph-name="amacron" unicode="&#x101;" horiz-adv-x="580" 
d="M492 376l23 67q3 9 13 9h47q9 0 7 -9l-68 -433q-1 -10 -12 -10h-47q-5 0 -10 9l-1 67q-71 -86 -183 -86q-102 0 -155 65q-52 65 -35 171q17 107 89 170q73 64 176 66q112 0 156 -86zM281 70q70 0 120.5 43t63.5 113q10 70 -27 113t-107 43q-71 0 -120 -43
q-50 -44 -60 -113q-11 -70 25 -113t105 -43zM262 650h232q9 0 8 -10l-8 -53q-2 -9 -11 -9h-233q-10 0 -9 9l9 53q1 10 12 10z" />
    <glyph glyph-name="Abreve" unicode="&#x102;" horiz-adv-x="651" 
d="M559 7l-49 203h-303l-114 -203q-4 -7 -11 -7h-68q-11 0 -5 11l376 673q5 9 16 9h69q10 0 11 -9l165 -673q3 -11 -10 -11h-67q-9 0 -10 7zM491 287l-72 302l-170 -302h242zM552 859l46 1q8 0 7 -10q-11 -55 -56 -88t-108 -33q-62 0 -96.5 33t-29.5 88q1 10 11 10h45
q9 0 8 -10q0 -24 19.5 -39.5t52.5 -15.5t58 15.5t32 39.5q3 9 11 9z" />
    <glyph glyph-name="abreve" unicode="&#x103;" horiz-adv-x="580" 
d="M492 376l23 67q3 9 13 9h47q9 0 7 -9l-68 -433q-1 -10 -12 -10h-47q-5 0 -10 9l-1 67q-71 -86 -183 -86q-102 0 -155 65q-52 65 -35 171q17 107 89 170q73 64 176 66q112 0 156 -86zM281 70q70 0 120.5 43t63.5 113q10 70 -27 113t-107 43q-71 0 -120 -43
q-50 -44 -60 -113q-11 -70 25 -113t105 -43zM473 685h46q8 0 7 -10q-13 -65 -59 -104.5t-110 -39.5q-62 0 -95.5 39.5t-25.5 104.5q1 10 11 10h45q8 0 8 -10q-2 -33 16.5 -55.5t51.5 -22.5q34 0 60 22.5t35 56.5q1 9 10 9z" />
    <glyph glyph-name="Aogonek" unicode="&#x104;" horiz-adv-x="655" 
d="M559 7l-49 203h-303l-114 -203q-4 -7 -11 -7h-68q-11 0 -5 11l376 673q5 9 16 9h69q10 0 11 -9l165 -673q3 -11 -10 -11h-67q-9 0 -10 7zM491 287l-72 302l-170 -302h242zM651 -177q-34 -37 -92 -37q-46 0 -70 25t-18 66q5 29 30 62q26 30 50 51q23 18 60 45l30 -34
q-53 -45 -72.5 -66.5t-25.5 -46.5q-11 -35 25 -41q24 -3 42 13q7 7 13 2l28 -26q7 -5 0 -13z" />
    <glyph glyph-name="aogonek" unicode="&#x105;" horiz-adv-x="580" 
d="M492 376l23 67q3 9 13 9h47q9 0 7 -9l-68 -433q-1 -10 -12 -10h-47q-5 0 -10 9l-1 67q-71 -86 -183 -86q-102 0 -155 65q-52 65 -35 171q17 107 89 170q73 64 176 66q112 0 156 -86zM281 70q70 0 120.5 43t63.5 113q10 70 -27 113t-107 43q-71 0 -120 -43
q-50 -44 -60 -113q-11 -70 25 -113t105 -43zM522 -169q-34 -37 -91 -37q-47 0 -71 25t-17 66q11 69 140 157l29 -34q-50 -41 -70.5 -64.5t-26.5 -48.5q-11 -35 25 -41q26 -2 42 14q6 6 12 2l28 -27q9 -5 0 -12z" />
    <glyph glyph-name="Cacute" unicode="&#x106;" horiz-adv-x="679" 
d="M657 82q-112 -92 -265 -92q-157 0 -240 98q-82 98 -56 258q12 84 53 154t100 114q119 89 257 89q146 1 234 -93q4 -7 -3 -13l-49 -46q-6 -6 -15 -1q-66 68 -181 68q-120 0 -205 -75t-105 -197t42 -196q61 -73 182 -75q116 2 203 68q7 7 15 0l35 -47q7 -7 -2 -14zM594 882
l26 -57q5 -8 -6 -14l-199 -100q-9 -6 -13 4l-15 31q-3 8 5 14l189 124q8 7 13 -2z" />
    <glyph glyph-name="cacute" unicode="&#x107;" horiz-adv-x="501" 
d="M479 86q-79 -96 -211 -96q-104 0 -160 65q-54 65 -37 171q18 113 97 174q80 63 176 63q61 0 108.5 -26t71.5 -74q5 -10 -4 -14l-52 -39q-10 -8 -15 3q-35 68 -123 68q-70 0 -119 -42.5t-60 -112.5t24.5 -113t105.5 -43q89 0 144 66q8 11 16 3l38 -39q5 -5 0 -14zM458 694
l34 -52q6 -6 -3 -13l-177 -110q-9 -6 -14 2l-19 27q-4 7 4 15l162 132q8 7 13 -1z" />
    <glyph glyph-name="Ccircumflex" unicode="&#x108;" horiz-adv-x="679" 
d="M657 82q-112 -92 -265 -92q-157 0 -240 98q-82 98 -56 258q12 84 53 154t100 114q119 89 257 89q146 1 234 -93q4 -7 -3 -13l-49 -46q-6 -6 -15 -1q-66 68 -181 68q-120 0 -205 -75t-105 -197t42 -196q61 -73 182 -75q116 2 203 68q7 7 15 0l35 -47q7 -7 -2 -14zM555 746
l-63 59l-81 -59q-8 -5 -15 -5h-80q-15 0 -2 10l141 103q8 5 14 5h64q5 0 13 -5l107 -102q11 -11 -5 -11h-81q-4 0 -12 5z" />
    <glyph glyph-name="ccircumflex" unicode="&#x109;" horiz-adv-x="501" 
d="M479 86q-79 -96 -211 -96q-104 0 -160 65q-54 65 -37 171q18 113 97 174q80 63 176 63q61 0 108.5 -26t71.5 -74q5 -10 -4 -14l-52 -39q-10 -8 -15 3q-35 68 -123 68q-70 0 -119 -42.5t-60 -112.5t24.5 -113t105.5 -43q89 0 144 66q8 11 16 3l38 -39q5 -5 0 -14zM193 536
l127 133q4 6 14 6h64q8 0 13 -6l85 -132q6 -9 -5 -9h-68q-5 0 -10 5l-55 89l-83 -88q-6 -6 -13 -6h-67q-10 0 -2 8z" />
    <glyph glyph-name="Cdotaccent" unicode="&#x10a;" horiz-adv-x="679" 
d="M657 82q-112 -92 -265 -92q-157 0 -240 98q-82 98 -56 258q12 84 53 154t100 114q119 89 257 89q146 1 234 -93q4 -7 -3 -13l-49 -46q-6 -6 -15 -1q-66 68 -181 68q-120 0 -205 -75t-105 -197t42 -196q61 -73 182 -75q116 2 203 68q7 7 15 0l35 -47q7 -7 -2 -14zM501 858
q24 0 35.5 -14t7.5 -38t-20 -38.5t-40 -14.5q-23 0 -35.5 15t-8.5 38t21 37.5t40 14.5z" />
    <glyph glyph-name="cdotaccent" unicode="&#x10b;" horiz-adv-x="501" 
d="M479 86q-79 -96 -211 -96q-104 0 -160 65q-54 65 -37 171q18 113 97 174q80 63 176 63q61 0 108.5 -26t71.5 -74q5 -10 -4 -14l-52 -39q-10 -8 -15 3q-35 68 -123 68q-70 0 -119 -42.5t-60 -112.5t24.5 -113t105.5 -43q89 0 144 66q8 11 16 3l38 -39q5 -5 0 -14zM299 600
q0 22 19 37t39.5 14t34.5 -14q19 -22 0.5 -57t-50.5 -31q-23 0 -35 14t-8 37z" />
    <glyph glyph-name="Ccaron" unicode="&#x10c;" horiz-adv-x="679" 
d="M657 82q-112 -92 -265 -92q-157 0 -240 98q-82 98 -56 258q12 84 53 154t100 114q119 89 257 89q146 1 234 -93q4 -7 -3 -13l-49 -46q-6 -6 -15 -1q-66 68 -181 68q-120 0 -205 -75t-105 -197t42 -196q61 -73 182 -75q116 2 203 68q7 7 15 0l35 -47q7 -7 -2 -14zM425 847
l64 -61l82 61q8 5 15 5h79q16 0 2 -11l-140 -103q-8 -5 -15 -5h-64q-8 0 -13 5l-109 103q-11 11 6 11h80q8 0 13 -5z" />
    <glyph glyph-name="ccaron" unicode="&#x10d;" horiz-adv-x="501" 
d="M479 86q-79 -96 -211 -96q-104 0 -160 65q-54 65 -37 171q18 113 97 174q80 63 176 63q61 0 108.5 -26t71.5 -74q5 -10 -4 -14l-52 -39q-10 -8 -15 3q-35 68 -123 68q-70 0 -119 -42.5t-60 -112.5t24.5 -113t105.5 -43q89 0 144 66q8 11 16 3l38 -39q5 -5 0 -14zM225 677
h66q6 0 11 -5l56 -89l82 88q6 6 14 7h65q12 0 3 -9l-126 -132q-6 -6 -15 -6h-65q-8 0 -11 6l-85 132q-6 8 5 8z" />
    <glyph glyph-name="Dcaron" unicode="&#x10e;" horiz-adv-x="674" 
d="M375 614h-109l-85 -534h110q123 0 207 72q84 71 104 195q19 122 -43 195q-61 72 -184 72zM278 0h-186q-9 0 -8 10l106 674q1 10 12 10h186q161 0 243 -94q83 -95 58 -253q-25 -159 -138 -254q-113 -93 -273 -93zM400 847l63 -61l83 61q8 5 15 5h79q19 0 2 -11l-140 -103
q-8 -5 -15 -5h-64q-10 0 -13 5l-109 103q-11 11 6 11h80q8 0 13 -5z" />
    <glyph glyph-name="dcaron" unicode="&#x10f;" horiz-adv-x="723" 
d="M261 -10q-101 0 -154 65q-52 65 -35 171q17 105 89 170q73 66 175 66q112 0 153 -83l53 334q2 9 11 9h62q9 0 8 -9l-111 -703q-1 -10 -11 -10h-43q-8 0 -10 9l-3 68q-68 -87 -184 -87zM331 382q-69 0 -119 -43t-61 -113t25 -113t105 -43q71 0 121 43q52 43 63 113
q11 69 -26.5 112.5t-107.5 43.5zM641 453l-18 24q-6 6 4 13q71 49 91 118h-2q-24 2 -36.5 18.5t-8.5 41.5q5 27 23.5 43.5t45.5 16.5q46 0 51 -42q8 -59 -36 -134q-43 -74 -100 -102q-8 -5 -14 3z" />
    <glyph glyph-name="Dcroat" unicode="&#x110;" horiz-adv-x="674" 
d="M278 0h-186q-9 0 -8 10l47 300h-50q-8 0 -7 10l7 46q1 10 11 10h50l48 308q1 10 12 10h186q161 0 243 -94q83 -95 58 -253q-25 -159 -138 -254q-113 -93 -273 -93zM217 310l-36 -230h110q123 0 207 72q84 71 104 195q19 122 -43 195q-61 72 -184 72h-110l-37 -238h140
q8 0 7 -10l-7 -46q-1 -10 -11 -10h-140z" />
    <glyph glyph-name="dslash" unicode="&#x111;" horiz-adv-x="585" 
d="M419 605h106l17 108q2 9 11 9h62q9 0 8 -9l-17 -108h47q9 0 8 -10l-7 -47q-2 -9 -12 -9h-47l-83 -529q-1 -10 -11 -10h-43q-8 0 -10 9l-3 68q-71 -87 -184 -87q-101 0 -154 65q-52 65 -35 171q17 105 89 170q73 66 175 66q112 0 153 -83l25 160h-106q-10 0 -8 9l7 47
q1 10 12 10zM281 70q71 0 121 43q52 43 63 113q11 69 -26.5 112.5t-107.5 43.5q-69 0 -119 -43t-61 -113t25 -113t105 -43z" />
    <glyph glyph-name="Emacron" unicode="&#x112;" horiz-adv-x="519" 
d="M464 314h-246l-37 -234h303q9 0 8 -10l-10 -61q0 -9 -11 -9h-379q-9 0 -8 10l106 674q1 10 12 10h369q9 0 8 -10l-9 -61q-1 -10 -12 -10h-292l-35 -219h245q10 0 9 -10l-10 -60q-1 -10 -11 -10zM293 829h235q10 0 8 -9l-9 -52q-1 -10 -11 -10h-234q-9 0 -8 10l8 52
q2 9 11 9z" />
    <glyph glyph-name="emacron" unicode="&#x113;" horiz-adv-x="540" 
d="M159 259h303q0 57 -35 91t-96 34q-62 0 -108 -34t-64 -91zM525 192h-376q2 -57 40 -90.5t103 -33.5q79 0 130 45q11 9 16 1l35 -40q7 -6 -1 -14q-74 -70 -195 -70q-110 0 -167 65q-56 65 -39 171q17 105 92 170q75 66 180 66q111 0 162 -68.5t31 -191.5q-1 -10 -11 -10z
M256 649h233q9 0 8 -10l-8 -52q-1 -10 -11 -10h-233q-10 0 -9 10l8 52q1 10 12 10z" />
    <glyph glyph-name="Ebreve" unicode="&#x114;" horiz-adv-x="519" 
d="M464 314h-246l-37 -234h303q9 0 8 -10l-10 -61q0 -9 -11 -9h-379q-9 0 -8 10l106 674q1 10 12 10h369q9 0 8 -10l-9 -61q-1 -10 -12 -10h-292l-35 -219h245q10 0 9 -10l-10 -60q-1 -10 -11 -10zM506 861l46 1q8 0 7 -10q-12 -56 -56.5 -88.5t-108.5 -32.5q-62 0 -96 33
t-29 88q1 10 11 10h45q9 0 8 -10q-1 -24 19 -39.5t53 -15.5t58 15.5t32 39.5q3 9 11 9z" />
    <glyph glyph-name="ebreve" unicode="&#x115;" horiz-adv-x="540" 
d="M159 259h303q0 57 -35 91t-96 34q-62 0 -108 -34t-64 -91zM525 192h-376q2 -57 40 -90.5t103 -33.5q79 0 130 45q11 9 16 1l35 -40q7 -6 -1 -14q-74 -70 -195 -70q-110 0 -167 65q-56 65 -39 171q17 105 92 170q75 66 180 66q111 0 162 -68.5t31 -191.5q-1 -10 -11 -10z
M466 684h46q8 0 7 -10q-12 -65 -58 -104.5t-110 -39.5q-63 0 -96.5 39.5t-25.5 104.5q1 10 11 10h46q8 0 7 -10q-2 -32 17 -55t51 -23q34 0 60 22.5t36 56.5q0 9 9 9z" />
    <glyph glyph-name="Edotaccent" unicode="&#x116;" horiz-adv-x="519" 
d="M464 314h-246l-37 -234h303q9 0 8 -10l-10 -61q0 -9 -11 -9h-379q-9 0 -8 10l106 674q1 10 12 10h369q9 0 8 -10l-9 -61q-1 -10 -12 -10h-292l-35 -219h245q10 0 9 -10l-10 -60q-1 -10 -11 -10zM413 849q24 0 36 -14.5t8 -37.5q-4 -24 -20.5 -38.5t-40.5 -14.5
q-23 0 -35.5 15t-8.5 38t21 37.5t40 14.5z" />
    <glyph glyph-name="edotaccent" unicode="&#x117;" horiz-adv-x="540" 
d="M159 259h303q0 57 -35 91t-96 34q-62 0 -108 -34t-64 -91zM525 192h-376q2 -57 40 -90.5t103 -33.5q79 0 130 45q11 9 16 1l35 -40q7 -6 -1 -14q-74 -70 -195 -70q-110 0 -167 65q-56 65 -39 171q17 105 92 170q75 66 180 66q111 0 162 -68.5t31 -191.5q-1 -10 -11 -10z
M373 663q36 4 43 -31t-18 -60q-18 -17 -41 -15q-24 0 -36.5 14.5t-8.5 38.5t21 38.5t40 14.5z" />
    <glyph glyph-name="Eogonek" unicode="&#x118;" horiz-adv-x="519" 
d="M464 314h-246l-37 -234h303q9 0 8 -10l-10 -61q0 -9 -11 -9h-379q-9 0 -8 10l106 674q1 10 12 10h369q9 0 8 -10l-9 -61q-1 -10 -12 -10h-292l-35 -219h245q10 0 9 -10l-10 -60q-1 -10 -11 -10zM453 -170q-34 -37 -92 -37q-46 0 -70 25t-18 66q5 29 30 62q26 30 50 51
q23 18 60 45l30 -34q-53 -45 -72.5 -66.5t-25.5 -46.5q-11 -35 25 -41q24 -3 42 13q7 7 13 2l28 -26q7 -5 0 -13z" />
    <glyph glyph-name="eogonek" unicode="&#x119;" horiz-adv-x="540" 
d="M159 259h303q0 57 -35 91t-96 34q-62 0 -108 -34t-64 -91zM525 192h-376q2 -57 40 -90.5t103 -33.5q79 0 130 45q11 9 16 1l35 -40q7 -6 -1 -14q-74 -70 -195 -70q-110 0 -167 65q-56 65 -39 171q17 105 92 170q75 66 180 66q111 0 162 -68.5t31 -191.5q-1 -10 -11 -10z
M399 -168q-34 -37 -91 -37q-47 0 -71 25t-18 66q5 29 30 62q26 30 50 51q23 18 60 45l30 -34q-51 -42 -71.5 -65.5t-26.5 -48.5q-5 -15 2 -26.5t23 -13.5q26 -3 42 13q8 7 13 2l28 -27q6 -4 0 -12z" />
    <glyph glyph-name="Ecaron" unicode="&#x11a;" horiz-adv-x="519" 
d="M464 314h-246l-37 -234h303q9 0 8 -10l-10 -61q0 -9 -11 -9h-379q-9 0 -8 10l106 674q1 10 12 10h369q9 0 8 -10l-9 -61q-1 -10 -12 -10h-292l-35 -219h245q10 0 9 -10l-10 -60q-1 -10 -11 -10zM341 847l64 -61l82 61q8 5 15 5h79q16 0 2 -11l-140 -103q-8 -5 -15 -5h-64
q-8 0 -13 5l-109 103q-11 11 6 11h80q8 0 13 -5z" />
    <glyph glyph-name="ecaron" unicode="&#x11b;" horiz-adv-x="540" 
d="M159 259h303q0 57 -35 91t-97 34q-61 0 -107 -34t-64 -91zM525 192h-376q1 -57 39 -90.5t103 -33.5q81 0 130 45q11 9 17 1l34 -40q7 -7 -1 -14q-73 -70 -194 -70q-108 0 -167 65q-57 64 -40 171q17 105 92 170q76 66 181 66q111 0 162 -68.5t31 -191.5q-1 -10 -11 -10z
M230 678h66q7 0 10 -5l57 -89l82 88q6 6 14 7h65q10 0 3 -10l-126 -131q-6 -6 -15 -6h-65q-9 0 -11 5l-85 132q-6 9 5 9z" />
    <glyph glyph-name="Gcircumflex" unicode="&#x11c;" horiz-adv-x="760" 
d="M669 287h-215q-9 0 -8 10l9 56q1 10 12 10h290q9 0 8 -10q-30 -173 -128.5 -268t-251.5 -94q-154 0 -233 97t-53 259q25 159 139 258q113 98 273 98q147 0 233 -93q5 -6 -2 -13l-52 -47q-6 -6 -13 0q-65 68 -179 68q-121 0 -208 -75q-86 -75 -105 -196t39 -196t174 -75
q102 0 171 54.5t100 156.5zM568 749l-60 57l-79 -57q-8 -5 -14 -5h-77q-16 0 -2 9l136 99q8 5 14 5h60q8 0 13 -5l103 -98q5 -4 3.5 -7t-8.5 -3h-77q-4 0 -12 5z" />
    <glyph glyph-name="gcircumflex" unicode="&#x11d;" horiz-adv-x="579" 
d="M336 462q115 0 157 -88l26 68q3 10 13 10h42q8 0 7 -10l-69 -442q-17 -108 -94 -172q-79 -65 -185 -65q-95 0 -171 47q-9 5 -2 15l38 54q6 9 12 3q53 -36 134 -39q76 0 125 41t62 114l12 75q-71 -84 -182 -84q-103 2 -155 66t-35 170q17 107 90 171q73 66 175 66zM281 70
q72 0 122 43q53 44 63 113q11 69 -26.5 112.5t-108.5 43.5q-69 0 -119 -43t-61 -113t25 -113t105 -43zM212 531l133 139q6 6 15 6h66q10 0 14 -6l88 -138q6 -9 -5 -9h-70q-7 0 -10 5l-58 93l-87 -92q-4 -6 -13 -6h-70q-9 0 -3 8z" />
    <glyph glyph-name="Gbreve" unicode="&#x11e;" horiz-adv-x="760" 
d="M672 287h-215q-8 0 -7 10l9 56q1 10 11 10h290q10 0 9 -10q-30 -173 -128.5 -268t-252.5 -94q-154 0 -233 97q-78 97 -52 259q25 159 139 258q113 98 273 98q147 0 232 -93q5 -6 -2 -13l-51 -47q-8 -6 -13 0q-65 68 -179 68q-121 0 -208 -75q-86 -75 -105 -196t39 -196
t174 -75q102 0 171 54t99 157zM603 861l46 1q8 0 7 -10q-11 -55 -56 -88t-108 -33q-62 0 -96.5 33t-29.5 88q1 10 11 10h45q9 0 8 -10q0 -24 19.5 -39.5t52.5 -15.5q34 0 59 15.5t32 39.5q1 9 10 9z" />
    <glyph glyph-name="gbreve" unicode="&#x11f;" horiz-adv-x="579" 
d="M336 462q115 0 157 -88l26 68q3 10 13 10h42q8 0 7 -10l-69 -442q-17 -108 -94 -172q-79 -65 -185 -65q-95 0 -171 47q-9 5 -2 15l38 54q6 9 12 3q53 -36 134 -39q76 0 125 41t62 114l12 75q-71 -84 -182 -84q-103 2 -155 66t-35 170q17 107 90 171q73 66 175 66zM281 70
q72 0 122 43q53 44 63 113q11 69 -26.5 112.5t-108.5 43.5q-69 0 -119 -43t-61 -113t25 -113t105 -43zM484 684h46q8 0 7 -10q-13 -65 -59 -104.5t-109 -39.5t-96.5 39.5t-25.5 104.5q1 10 11 10h46q8 0 7 -10q-2 -33 16.5 -55.5t51.5 -22.5q34 0 60 22.5t35 56.5q2 9 10 9z
" />
    <glyph glyph-name="Gdotaccent" unicode="&#x120;" horiz-adv-x="760" 
d="M672 287h-215q-8 0 -7 10l9 56q1 10 11 10h290q10 0 9 -10q-30 -173 -128.5 -268t-252.5 -94q-154 0 -233 97q-78 97 -52 259q25 159 139 258q113 98 273 98q147 0 232 -93q5 -6 -2 -13l-51 -47q-8 -6 -13 0q-65 68 -179 68q-121 0 -208 -75q-86 -75 -105 -196t39 -196
t174 -75q102 0 171 54t99 157zM454 804q4 24 21 38.5t41 14.5t36 -14.5t8 -38.5q-4 -23 -20.5 -38t-40.5 -15q-23 0 -36 15t-9 38z" />
    <glyph glyph-name="gdotaccent" unicode="&#x121;" horiz-adv-x="579" 
d="M336 462q115 0 157 -88l26 68q3 10 13 10h42q8 0 7 -10l-69 -442q-17 -108 -94 -172q-79 -65 -185 -65q-95 0 -171 47q-9 5 -2 15l38 54q6 9 12 3q53 -36 134 -39q76 0 125 41t62 114l12 75q-71 -84 -182 -84q-103 2 -155 66t-35 170q17 107 90 171q73 66 175 66zM281 70
q72 0 122 43q53 44 63 113q11 69 -26.5 112.5t-108.5 43.5q-69 0 -119 -43t-61 -113t25 -113t105 -43zM318 625q4 23 21 37.5t41 14.5t36 -14.5t8 -37.5q-4 -24 -20.5 -38.5t-40.5 -14.5q-23 0 -36 14.5t-9 38.5z" />
    <glyph glyph-name="uni0122" unicode="&#x122;" horiz-adv-x="747" 
d="M665 287h-215q-8 0 -7 10l9 56q1 10 11 10h290q10 0 9 -10q-30 -173 -128.5 -268t-251.5 -94q-154 0 -233 97t-53 259q25 159 139 258q113 98 273 98q148 0 233 -93q5 -6 -2 -13l-52 -47q-8 -6 -13 0q-65 68 -179 68q-121 0 -208 -75q-86 -75 -105 -196t39 -196
q59 -75 174 -75q102 0 171 54t99 157zM344 -135q0 1 -3 1q-36 10 -30 52q4 25 21.5 40t42.5 15q43 0 44 -39q7 -46 -29 -90t-88 -63q-10 -4 -13 4l-11 24q-4 7 4 12q42 20 62 44z" />
    <glyph glyph-name="uni0123" unicode="&#x123;" horiz-adv-x="579" 
d="M336 462q115 0 157 -88l26 68q3 10 13 10h42q8 0 7 -10l-69 -442q-17 -108 -94 -172q-79 -65 -185 -65q-95 0 -171 47q-9 5 -2 15l38 54q6 9 12 3q53 -36 134 -39q76 0 125 41t62 114l12 75q-71 -84 -182 -84q-103 2 -155 66t-35 170q17 107 90 171q73 66 175 66zM281 70
q72 0 122 43q53 44 63 113q11 69 -26.5 112.5t-108.5 43.5q-69 0 -119 -43t-61 -113t25 -113t105 -43zM379 602q1 -1 4 -1q36 -10 30 -52q-4 -25 -21.5 -40t-42.5 -15q-40 0 -45 39q-6 47 30 90q36 44 88 63q10 4 13 -4l11 -24q3 -7 -5 -12q-42 -20 -62 -44z" />
    <glyph glyph-name="Hcircumflex" unicode="&#x124;" horiz-adv-x="674" 
d="M159 0h-67q-9 0 -9 10l107 674q1 10 12 10h67q9 0 8 -9l-47 -294h337l46 293q1 10 12 10h69q8 0 7 -9l-107 -675q0 -10 -11 -10h-68q-9 0 -9 10l49 304h-337l-49 -304q0 -10 -10 -10zM525 746l-60 57l-79 -57q-8 -5 -14 -5h-77q-15 0 -2 10l135 99q7 4 14 4h61q9 0 13 -4
l103 -98q9 -11 -6 -11h-76q-7 0 -12 5z" />
    <glyph glyph-name="hcircumflex" unicode="&#x125;" horiz-adv-x="545" 
d="M70 10l111 702q1 10 10 10h62q9 0 8 -10l-52 -336q62 86 165 86q83 0 122 -52t24 -150l-38 -250q-1 -10 -12 -10h-62q-8 0 -7 10l38 244q21 128 -92 128q-57 0 -103 -46q-47 -47 -60 -116l-33 -210q-1 -10 -12 -10h-62q-8 0 -7 10zM463 762l-61 57l-78 -57q-8 -5 -14 -5
h-77q-15 0 -2 9l135 99q8 5 14 5h61q7 0 12 -5l104 -98q10 -10 -6 -10h-77q-6 0 -11 5z" />
    <glyph glyph-name="Hbar" unicode="&#x126;" horiz-adv-x="669" 
d="M274 678l-18 -115h334l18 114q1 10 12 10h67q9 0 7 -9l-18 -115h27q10 0 9 -10l-8 -46q-1 -10 -11 -10h-27l-78 -488q0 -9 -11 -9h-66q-9 0 -8 10l47 301h-334l-48 -302q0 -9 -11 -9h-66q-8 0 -7 10l77 487h-33q-10 0 -9 10l8 46q1 10 11 10h33l18 114q1 10 12 10h66
q9 0 7 -9zM580 497h-334l-18 -110h334z" />
    <glyph glyph-name="hbar" unicode="&#x127;" horiz-adv-x="545" 
d="M380 575l-7 -46q-1 -10 -11 -10h-131l-22 -143q62 86 165 86q83 0 122 -52t24 -150l-38 -250q-1 -10 -12 -10h-62q-8 0 -7 10l38 244q21 128 -92 128q-57 0 -103 -46q-47 -47 -60 -116l-33 -210q-1 -10 -12 -10h-62q-8 0 -7 10l80 509h-41q-9 0 -8 10l7 46q1 10 12 10h41
l20 127q1 10 10 10h62q9 0 8 -10l-20 -127h132q8 0 7 -10z" />
    <glyph glyph-name="Itilde" unicode="&#x128;" horiz-adv-x="250" 
d="M276 684l-107 -675q0 -9 -10 -9h-68q-8 0 -8 9l107 675q1 10 11 10h68q8 0 7 -10zM142 751q-5 -11 -13 -4l-21 21q-6 6 -3 13q21 41 48.5 64t54.5 23q22 0 38 -11t23 -24.5t18.5 -24.5t25.5 -11q31 1 57 51q7 10 14 4l22 -22q7 -4 2 -12q-20 -40 -48 -63t-55 -23
q-22 0 -37.5 11t-23 24.5t-19 24.5t-25.5 11q-30 -1 -58 -52z" />
    <glyph glyph-name="itilde" unicode="&#x129;" horiz-adv-x="222" 
d="M222 443l-69 -434q-1 -9 -11 -9h-62q-10 0 -8 9l69 434q1 9 11 9h62q10 0 8 -9zM86 546q-7 -10 -14 -4l-24 23q-6 5 -2 10q22 42 51 67t56 25q23 0 39 -11.5t23.5 -25.5t19.5 -25.5t26 -11.5q33 1 61 55q6 10 11 2l26 -23q5 -3 1 -9q-18 -42 -47 -66.5t-59 -24.5
q-22 0 -38.5 11.5t-24 25.5t-20 25t-26.5 10q-31 -1 -59 -53z" />
    <glyph glyph-name="Imacron" unicode="&#x12a;" horiz-adv-x="250" 
d="M276 684l-107 -675q0 -9 -10 -9h-68q-8 0 -8 9l107 675q1 10 11 10h68q8 0 7 -10zM141 831h232q9 0 8 -10l-8 -53q-1 -9 -11 -9h-233q-11 0 -9 9l9 53q1 10 12 10z" />
    <glyph glyph-name="imacron" unicode="&#x12b;" horiz-adv-x="222" 
d="M222 443l-69 -434q-1 -9 -11 -9h-62q-10 0 -8 9l69 434q1 9 11 9h62q10 0 8 -9zM97 649h233q9 0 8 -10l-8 -53q-2 -9 -11 -9h-233q-10 0 -9 9l8 53q1 10 12 10z" />
    <glyph glyph-name="Ibreve" unicode="&#x12c;" horiz-adv-x="250" 
d="M276 684l-107 -675q0 -9 -10 -9h-68q-8 0 -8 9l107 675q1 10 11 10h68q8 0 7 -10zM359 864l49 1q8 0 7 -10q-12 -58 -59 -92.5t-114 -34.5q-65 0 -101 34.5t-31 92.5q1 10 12 10h47q9 0 8 -10q0 -26 20.5 -42t55.5 -16q36 0 62 16t33 42q3 9 11 9z" />
    <glyph glyph-name="ibreve" unicode="&#x12d;" horiz-adv-x="225" 
d="M222 442l-69 -433q-1 -9 -11 -9h-61q-11 0 -9 9l69 433q1 10 10 10h62q10 0 9 -10zM314 682h48q9 0 8 -10q-14 -69 -62 -110.5t-115 -41.5q-66 0 -101 42t-27 110q1 10 11 10h48q9 0 8 -10q-2 -35 17.5 -59t54.5 -24q36 0 63 24t37 60q2 9 10 9z" />
    <glyph glyph-name="Iogonek" unicode="&#x12e;" horiz-adv-x="250" 
d="M276 684l-107 -675q0 -9 -10 -9h-68q-8 0 -8 9l107 675q1 10 11 10h68q8 0 7 -10zM176 -175q-34 -37 -92 -37q-46 0 -70 25t-18 66q5 29 30 62q26 30 50 51q22 18 60 45l30 -34q-53 -45 -72.5 -66.5t-25.5 -46.5q-11 -35 25 -41q24 -3 42 13q7 7 13 2l28 -27q8 -3 0 -12z
" />
    <glyph glyph-name="iogonek" unicode="&#x12f;" horiz-adv-x="222" 
d="M222 442l-69 -433q-1 -9 -11 -9h-62q-10 0 -8 9l69 433q1 9 11 9h62q8 0 8 -9zM149 618q4 27 22.5 42.5t45.5 15.5q26 0 39 -15.5t9 -42.5q-12 -58 -66 -58q-27 0 -41 16t-9 42zM154 -168q-34 -37 -91 -37q-47 0 -71 25t-17 66q9 66 140 158l29 -34q-15 -12 -49 -43
q-41 -39 -48 -71q-5 -15 1.5 -26.5t22.5 -13.5q26 -3 42 13q7 7 13 2l28 -27q8 -4 0 -12z" />
    <glyph glyph-name="Idot" unicode="&#x130;" horiz-adv-x="250" 
d="M276 684l-107 -675q0 -9 -10 -9h-68q-8 0 -8 9l107 675q1 10 11 10h68q8 0 7 -10zM261 855q26 0 38.5 -15.5t8.5 -40.5q-1 -25 -22 -41.5t-43 -15.5t-38 16q-22 25 -1.5 63t57.5 34z" />
    <glyph glyph-name="dotlessi" unicode="&#x131;" horiz-adv-x="221" 
d="M219 432l-67 -422q-1 -10 -12 -10h-59q-9 0 -8 10l66 422q2 11 11 11h60q11 0 9 -11z" />
    <glyph glyph-name="IJ" unicode="&#x132;" horiz-adv-x="633" 
d="M276 684l-107 -674q-1 -10 -11 -10h-67q-8 0 -7 10l106 674q1 10 11 10h67q9 0 8 -10zM502 175l80 509q1 10 11 10h67q9 0 8 -10l-82 -520q-12 -83 -60.5 -128.5t-124.5 -45.5q-81 0 -134 56q-6 6 1 15l39 53q10 11 17 4q53 -43 88 -43q40 0 60 22.5t30 77.5z" />
    <glyph glyph-name="ij" unicode="&#x133;" horiz-adv-x="448" 
d="M222 442l-69 -433q-1 -9 -11 -9h-62q-10 0 -8 9l69 433q1 9 11 9h62q8 0 8 -9zM149 618q4 27 22.5 42.5t45.5 15.5q26 0 39 -15.5t9 -42.5q-12 -58 -66 -58q-27 0 -41 16t-9 42zM376 618q4 27 22 42t45 15q26 0 39 -15t9 -42q-5 -26 -23 -42t-43 -16q-27 0 -40.5 16
t-8.5 42zM286 -64l80 506q2 9 11 9h61q10 0 9 -9l-81 -514q-11 -77 -54.5 -121.5t-105.5 -43.5q-64 0 -100 33q-6 5 -1 13l37 50q6 10 15 4q28 -20 56 -20q58 0 73 93z" />
    <glyph glyph-name="Jcircumflex" unicode="&#x134;" horiz-adv-x="399" 
d="M260 175l79 509q1 10 12 10h66q9 0 8 -10l-81 -520q-13 -84 -61 -128.5t-124 -45.5q-81 2 -135 56q-6 6 1 15l40 54q8 11 17 3q56 -42 88 -42q39 0 59 22t31 77zM461 748l-60 57l-78 -57q-8 -5 -14 -5h-77q-16 0 -3 9l136 99q8 5 14 5h60q8 0 13 -5l103 -98
q10 -10 -5 -10h-77q-4 0 -12 5z" />
    <glyph glyph-name="jcircumflex" unicode="&#x135;" horiz-adv-x="245" 
d="M87 -64l79 506q1 10 12 10l60 -1q10 0 9 -9l-80 -514q-12 -76 -55.5 -121t-105.5 -45q-58 0 -99 33q-8 5 -1 14l36 51q7 9 16 3q28 -20 55 -20q57 0 74 93zM61 530l134 140q6 6 15 6h67q9 0 14 -6l89 -139q6 -9 -6 -9h-71q-5 0 -10 5l-58 94l-88 -93q-5 -6 -14 -6h-70
q-10 0 -2 8z" />
    <glyph glyph-name="uni0136" unicode="&#x136;" horiz-adv-x="566" 
d="M263 684l-50 -320l317 324q8 6 12 6h82q15 0 3 -12l-328 -334l255 -336q9 -12 -7 -12h-90q-8 0 -11 5l-238 326l-51 -322q-1 -9 -11 -9h-68q-8 0 -7 9l106 675q1 10 11 10h68q8 0 7 -10zM255 -135q-1 1 -4 1q-36 10 -30 52q4 25 21.5 40t42.5 15q40 0 45 -39
q6 -46 -30 -90t-88 -63q-10 -4 -13 4l-11 24q-3 7 5 12q43 22 62 44z" />
    <glyph glyph-name="uni0137" unicode="&#x137;" horiz-adv-x="463" 
d="M409 452h87q21 0 2 -14l-220 -195l186 -230q10 -13 -8 -13h-86q-9 0 -12 5l-174 217l-34 -213q0 -9 -11 -9h-62q-8 0 -8 9l112 704q1 9 10 9h62q11 0 9 -9l-72 -455l206 188q6 6 13 6zM210 -135q-1 1 -4 1q-36 10 -29 52q4 25 21 40t42 15q43 0 45 -39q7 -46 -29 -90
t-88 -63q-9 -4 -14 4l-11 24q-3 7 5 12q42 20 62 44z" />
    <glyph glyph-name="kgreenlandic" unicode="&#x138;" horiz-adv-x="450" 
d="M409 452h87q19 0 2 -14l-222 -209l188 -216q10 -13 -8 -13h-86q-9 0 -12 5l-176 203l-32 -199q0 -9 -11 -9h-62q-8 0 -8 9l69 433q1 10 11 10h62q9 0 8 -10l-31 -198l208 202q4 6 13 6z" />
    <glyph glyph-name="Lacute" unicode="&#x139;" horiz-adv-x="448" 
d="M276 684l-95 -606h241q9 0 8 -10l-10 -59q0 -9 -10 -9h-319q-8 0 -8 9l107 675q1 10 11 10h68q8 0 7 -10zM356 882l26 -57q3 -8 -6 -14l-199 -100q-9 -4 -14 4l-15 31q-3 8 5 14l189 124q10 7 14 -2z" />
    <glyph glyph-name="lacute" unicode="&#x13a;" horiz-adv-x="222" 
d="M265 712l-111 -702q-1 -10 -12 -10h-62q-8 0 -7 10l111 702q1 10 10 10h62q10 0 9 -10zM345 926l26 -56q5 -9 -6 -14l-197 -99q-10 -4 -13 4l-14 30q-4 9 4 14l188 123q7 7 12 -2z" />
    <glyph glyph-name="uni013B" unicode="&#x13b;" horiz-adv-x="448" 
d="M276 684l-95 -606h241q9 0 8 -10l-10 -59q0 -9 -10 -9h-319q-8 0 -8 9l107 675q1 10 11 10h68q8 0 7 -10zM218 -135q-1 1 -4 1q-36 10 -30 52q5 25 22.5 40t41.5 15q43 0 45 -39q7 -46 -29 -90t-88 -63q-10 -3 -14 4l-11 24q-3 7 5 12q42 20 62 44z" />
    <glyph glyph-name="uni013C" unicode="&#x13c;" horiz-adv-x="222" 
d="M265 712l-111 -702q-1 -10 -12 -10h-62q-8 0 -7 10l111 702q1 10 10 10h62q10 0 9 -10zM74 -135q0 1 -3 1q-36 10 -30 52q4 25 21.5 40t42.5 15q43 0 44 -39q7 -46 -29 -90t-88 -63q-10 -4 -13 4l-11 24q-4 7 4 12q42 20 62 44z" />
    <glyph glyph-name="Lcaron" unicode="&#x13d;" horiz-adv-x="448" 
d="M276 684l-95 -606h241q9 0 8 -10l-10 -59q0 -9 -10 -9h-319q-8 0 -8 9l107 675q1 10 11 10h68q8 0 7 -10zM339 441l-19 23q-5 9 3 14q73 51 94 118l-2 1q-25 1 -38 17t-9 42q4 28 23.5 44.5t47.5 16.5q22 0 36 -11.5t15 -31.5q7 -57 -37 -134q-43 -74 -100 -102
q-8 -5 -14 3z" />
    <glyph glyph-name="lcaron" unicode="&#x13e;" horiz-adv-x="364" 
d="M265 712l-111 -702q-1 -10 -12 -10h-62q-8 0 -7 10l111 702q1 10 10 10h62q10 0 9 -10zM286 441l-19 23q-5 9 3 14q73 52 93 118l-2 1q-54 5 -46 59q4 27 23.5 44t46.5 17q50 0 51 -43q7 -57 -37 -134q-43 -75 -99 -102q-9 -5 -14 3z" />
    <glyph glyph-name="Ldot" unicode="&#x13f;" horiz-adv-x="448" 
d="M276 684l-95 -606h241q9 0 8 -10l-10 -59q0 -9 -10 -9h-319q-8 0 -8 9l107 675q1 10 11 10h68q8 0 7 -10zM319 394q5 28 24.5 45t46.5 17t41 -17t10 -45q-5 -27 -24.5 -44t-46.5 -17q-28 0 -42 17t-9 44z" />
    <glyph glyph-name="ldot" unicode="&#x140;" horiz-adv-x="362" 
d="M265 712l-111 -702q-1 -10 -12 -10h-62q-8 0 -7 10l111 702q1 10 10 10h62q10 0 9 -10zM255 378q5 27 23.5 43t44.5 16t39.5 -16.5t8.5 -42.5q-4 -26 -22.5 -42t-44.5 -16t-39.5 16t-9.5 42z" />
    <glyph glyph-name="Lslash" unicode="&#x141;" horiz-adv-x="448" 
d="M95 313l288 115q5 2 7 0.5t1 -6.5l-7 -48q-2 -11 -11 -14l-289 -116q-4 -2 -6.5 0t-1.5 6l8 49q2 9 11 14zM276 684l-95 -606h241q9 0 8 -10l-10 -59q0 -9 -10 -9h-319q-8 0 -8 9l107 675q1 10 11 10h68q8 0 7 -10z" />
    <glyph glyph-name="lslash" unicode="&#x142;" horiz-adv-x="225" 
d="M195 715h61q9 0 8 -10l-53 -331l79 35q4 2 6.5 0t1.5 -6l-8 -48q-1 -9 -11 -14l-79 -35l-46 -296q-1 -10 -11 -10h-61q-8 0 -7 10l40 257l-75 -34q-6 -2 -8.5 0t-1.5 7l7 45q2 12 14 17l75 34l59 369q1 10 10 10z" />
    <glyph glyph-name="Nacute" unicode="&#x143;" horiz-adv-x="713" 
d="M665 694h67q9 0 8 -10l-108 -674q0 -10 -10 -10h-81q-7 0 -11 6l-273 551l-88 -547q0 -10 -10 -10h-68q-8 0 -8 10l107 674q1 10 12 10h81q7 0 11 -7l273 -550l86 547q1 10 12 10zM582 882l26 -57q5 -8 -6 -14l-199 -100q-9 -6 -13 4l-15 31q-3 8 5 14l189 124q8 7 13 -2
z" />
    <glyph glyph-name="nacute" unicode="&#x144;" horiz-adv-x="547" 
d="M70 10l68 432q1 10 11 10h45q10 0 10 -10v-70q64 90 170 90q83 0 122 -52t24 -150l-38 -250q-1 -10 -12 -10h-62q-8 0 -7 10l38 244q21 128 -92 128q-56 0 -103 -47t-60 -116l-33 -209q-1 -10 -12 -10h-61q-9 0 -8 10zM461 693l34 -52q6 -6 -3 -13l-177 -110q-9 -6 -14 2
l-19 27q-4 7 4 15l162 132q8 7 13 -1z" />
    <glyph glyph-name="uni0145" unicode="&#x145;" horiz-adv-x="713" 
d="M665 694h67q9 0 8 -10l-107 -674q-1 -10 -11 -10h-81q-7 0 -11 6l-273 551l-87 -547q-1 -10 -11 -10h-68q-8 0 -7 10l106 674q1 10 12 10h81q7 0 11 -7l273 -550l86 547q1 10 12 10zM313 -135q-1 1 -4 1q-36 10 -30 52q5 25 22.5 40t41.5 15q43 0 45 -39q7 -46 -29 -90
t-88 -63q-10 -3 -14 4l-11 24q-3 7 5 12q42 20 62 44z" />
    <glyph glyph-name="uni0146" unicode="&#x146;" horiz-adv-x="545" 
d="M70 10l68 432q1 10 11 10h45q10 0 10 -10v-70q64 90 170 90q83 0 122 -52t24 -150l-38 -250q-1 -10 -12 -10h-62q-8 0 -7 10l38 244q21 128 -93 128q-56 0 -103 -47q-46 -47 -59 -116l-33 -209q-1 -10 -12 -10h-61q-9 0 -8 10zM241 -135q-1 1 -4 1q-36 10 -29 52
q4 25 21 40t42 15q43 0 45 -39q7 -46 -29 -90t-88 -63q-9 -4 -14 4l-11 24q-3 7 5 12q42 20 62 44z" />
    <glyph glyph-name="Ncaron" unicode="&#x147;" horiz-adv-x="713" 
d="M665 694h67q9 0 8 -10l-108 -674q0 -10 -10 -10h-81q-7 0 -11 6l-273 551l-88 -547q0 -10 -10 -10h-68q-8 0 -8 10l107 674q1 10 12 10h81q7 0 11 -7l273 -550l86 547q1 10 12 10zM418 847l63 -61l83 61q5 5 15 5h79q19 0 2 -11l-140 -103q-8 -5 -15 -5h-64q-10 0 -13 5
l-109 103q-11 11 6 11h80q5 0 13 -5z" />
    <glyph glyph-name="ncaron" unicode="&#x148;" horiz-adv-x="547" 
d="M70 10l68 432q1 10 11 10h45q10 0 10 -10v-70q64 90 170 90q83 0 122 -52t24 -150l-38 -250q-1 -10 -12 -10h-62q-8 0 -7 10l38 244q21 128 -92 128q-56 0 -103 -47t-60 -116l-33 -209q-1 -10 -12 -10h-61q-9 0 -8 10zM225 678h69q7 0 12 -5l59 -94l86 93q5 6 16 7h68
q10 0 3 -10l-133 -138q-7 -7 -16 -7h-68q-9 0 -12 6l-89 139q-6 9 5 9z" />
    <glyph glyph-name="napostrophe" unicode="&#x149;" horiz-adv-x="579" 
d="M102 10l69 432q1 10 10 10h45q11 0 11 -10l-1 -70q64 90 171 90q83 0 122 -52t24 -150l-39 -250q-1 -10 -11 -10h-62q-9 0 -8 10l39 244q21 128 -93 128q-56 0 -103 -47t-60 -116l-33 -209q-1 -10 -11 -10h-61q-10 0 -9 10zM82 449l-19 23q-4 6 4 14q73 53 92 118h-2
q-24 2 -36.5 18t-8.5 41q4 28 23 44.5t46 16.5q22 0 35.5 -11.5t14.5 -31.5q8 -59 -36 -134q-44 -74 -99 -101q-8 -5 -14 3z" />
    <glyph glyph-name="Eng" unicode="&#x14a;" horiz-adv-x="691" 
d="M523 -64l10 60l-287 561l-88 -547q-1 -10 -10 -10h-68q-9 0 -8 10l107 674q1 10 11 10h81q7 0 11 -7l274 -542l86 539q1 10 11 10h67q10 0 9 -10l-120 -753q-11 -80 -59.5 -123.5t-123.5 -43.5q-39 0 -73 16.5t-54 38.5q-8 6 0 17l40 53q7 9 14 3q46 -43 86 -43
q37 0 56.5 20t27.5 67z" />
    <glyph glyph-name="eng" unicode="&#x14b;" horiz-adv-x="550" 
d="M208 -205q-8 5 0 14l36 52q7 9 14 2q29 -20 57 -20q57 0 74 93l50 318q21 128 -92 128q-56 0 -103 -47t-60 -116l-33 -209q-1 -10 -12 -10h-61q-9 0 -8 10l68 432q1 10 12 10h44q10 0 10 -10v-70q64 90 170 90q83 0 122 -52t24 -150l-51 -332q-13 -77 -56.5 -121.5
t-104.5 -44.5q-60 2 -100 33z" />
    <glyph glyph-name="Omacron" unicode="&#x14c;" horiz-adv-x="793" 
d="M96 347q25 159 139 258q113 98 273 98t243 -98q83 -97 57 -258t-139 -259q-112 -97 -273 -97q-160 0 -243 98q-83 97 -57 258zM409 76q120 0 206 74q85 75 105 197q19 121 -42 196q-62 75 -183 75t-208 -75q-85 -73 -105 -196q-19 -121 43 -197q62 -74 184 -74zM411 830
h235q10 0 8 -9l-8 -52q-1 -10 -11 -10h-235q-9 0 -8 10l8 52q2 9 11 9z" />
    <glyph glyph-name="omacron" unicode="&#x14d;" horiz-adv-x="541" 
d="M71 227q17 106 91 170q77 65 181 65q106 0 160 -65q55 -64 38 -170q-16 -105 -92 -172q-76 -65 -181 -65q-104 0 -160 65q-54 65 -37 172zM151 226q-11 -69 25 -112.5t105 -43.5q70 0 119 43q51 44 61 113q11 70 -24.5 113t-105.5 43q-69 0 -119 -43t-61 -113zM258 650
h233q9 0 8 -10l-8 -52q-1 -10 -11 -10h-233q-10 0 -9 10l8 52q1 10 12 10z" />
    <glyph glyph-name="Obreve" unicode="&#x14e;" horiz-adv-x="793" 
d="M96 347q25 159 139 258q113 98 273 98t243 -98q83 -97 57 -258t-139 -259q-112 -97 -273 -97q-160 0 -243 98q-83 97 -57 258zM409 76q120 0 206 74q85 75 105 197q19 121 -42 196q-62 75 -183 75t-208 -75q-85 -73 -105 -196q-19 -121 43 -197q62 -74 184 -74zM624 860
h44q9 0 7 -8q-11 -55 -55 -87.5t-108 -32.5q-61 0 -94.5 32.5t-28.5 87.5q0 8 9 8h45q10 0 8 -8q0 -24 19.5 -39.5t52.5 -15.5t58 15.5t32 39.5q3 8 11 8z" />
    <glyph glyph-name="obreve" unicode="&#x14f;" horiz-adv-x="541" 
d="M71 227q17 106 91 170q77 65 181 65q106 0 160 -65q55 -64 38 -170q-16 -105 -92 -172q-76 -65 -181 -65q-104 0 -160 65q-54 65 -37 172zM151 226q-11 -69 25 -112.5t105 -43.5q70 0 119 43q51 44 61 113q11 70 -24.5 113t-105.5 43q-69 0 -119 -43t-61 -113zM468 684
h46q8 0 7 -10q-12 -65 -58 -104.5t-110 -39.5q-63 0 -96.5 39.5t-25.5 104.5q1 10 11 10h46q8 0 7 -10q-2 -32 17 -55t51 -23q34 0 60 22.5t36 56.5q0 9 9 9z" />
    <glyph glyph-name="Ohungarumlaut" unicode="&#x150;" horiz-adv-x="793" 
d="M96 347q25 159 139 258q113 98 273 98t243 -98q83 -97 57 -258t-139 -259q-112 -97 -273 -97q-160 0 -243 98q-83 97 -57 258zM409 76q120 0 206 74q85 75 105 197q19 121 -42 196q-62 75 -183 75t-208 -75q-85 -73 -105 -196q-19 -121 43 -197q62 -74 184 -74zM649 880
l49 -39q8 -6 -1 -14l-111 -103q-9 -7 -15 -1l-28 22q-6 6 -1 14l93 118q8 8 14 3zM494 880l50 -39q7 -7 0 -13l-113 -104q-7 -8 -14 -1l-29 22q-5 6 0 14l93 118q6 7 13 3z" />
    <glyph glyph-name="ohungarumlaut" unicode="&#x151;" horiz-adv-x="541" 
d="M71 227q17 106 91 170q77 65 181 65q106 0 160 -65q55 -64 38 -170q-16 -105 -92 -172q-76 -65 -181 -65q-104 0 -160 65q-54 65 -37 172zM151 226q-11 -69 25 -112.5t105 -43.5q70 0 119 43q51 44 61 113q11 70 -24.5 113t-105.5 43q-69 0 -119 -43t-61 -113zM486 709
l50 -30q9 -7 1 -15l-122 -129q-6 -6 -14 -3l-27 20q-8 5 -2 14l99 138q7 10 15 5zM332 709l51 -31q8 -4 1 -14l-122 -129q-7 -7 -14 -2l-27 19q-7 4 -2 14l99 139q7 8 14 4z" />
    <glyph glyph-name="OE" unicode="&#x152;" horiz-adv-x="758" 
d="M711 0h-325q-156 1 -236 96q-79 94 -54 251t133 250q109 94 266 97h315q11 0 9 -11l-9 -57q-2 -11 -12 -11h-236l-35 -222h188q11 0 9 -11l-10 -57q0 -10 -11 -10h-188l-38 -237h245q10 0 9 -10l-9 -58q-1 -10 -11 -10zM391 85l83 523q-114 -4 -194 -75q-77 -70 -97 -186
q-19 -115 38 -186q57 -70 170 -76z" />
    <glyph glyph-name="oe" unicode="&#x153;" horiz-adv-x="930" 
d="M151 226q-11 -69 25 -112.5t105 -43.5q70 0 119 43q51 45 61 114q11 69 -24.5 112t-105.5 43q-69 0 -119 -43t-61 -113zM549 259h303q0 57 -35 91t-96 34q-62 0 -108 -34t-64 -91zM71 227q17 106 91 170q77 65 181 65q131 0 181 -98q77 98 209 98q114 0 164 -70.5
t29 -189.5q-1 -10 -12 -10h-375q2 -57 40 -90.5t103 -33.5q81 0 131 46q9 7 15 1l35 -41q7 -6 -1 -14q-76 -70 -195 -70q-137 0 -187 99q-79 -99 -212 -99q-104 0 -160 65q-54 65 -37 172z" />
    <glyph glyph-name="Racute" unicode="&#x154;" horiz-adv-x="524" 
d="M403 5l-125 284h-95l-44 -279q-1 -10 -11 -10h-67q-10 0 -9 10l107 674q1 10 11 10h214q104 0 154.5 -54t36.5 -148q-14 -83 -68 -134.5t-139 -63.5l135 -282q5 -12 -8 -12h-82q-7 0 -10 5zM373 614h-138l-39 -244h138q63 -1 103.5 30.5t49.5 90.5q10 58 -20.5 90.5
t-93.5 32.5zM509 882l26 -57q3 -10 -7 -14l-198 -100q-10 -4 -14 4l-15 31q-3 8 5 14l189 124q9 6 14 -2z" />
    <glyph glyph-name="racute" unicode="&#x155;" horiz-adv-x="347" 
d="M364 367q-30 13 -62 13q-61 0 -104 -70l-47 -300q-1 -10 -12 -10h-61q-9 0 -8 10l68 432q1 10 11 10h42q10 0 10 -10l2 -36q58 55 127 55q36 0 70 -12q9 -1 4 -12l-27 -64q-3 -9 -13 -6zM369 691l34 -52q6 -6 -3 -13l-177 -110q-9 -6 -14 2l-19 27q-4 6 3 15l163 132
q8 8 13 -1z" />
    <glyph glyph-name="uni0156" unicode="&#x156;" horiz-adv-x="564" 
d="M435 5l-125 284h-95l-44 -279q-1 -10 -12 -10h-67q-9 0 -8 10l106 674q1 10 11 10h214q104 0 154.5 -54t36.5 -148q-13 -82 -67.5 -134t-138.5 -64l134 -282q6 -12 -8 -12h-82q-7 0 -9 5zM404 614h-138l-38 -244h138q63 -1 103 30.5t50 90.5q9 58 -21.5 90.5t-93.5 32.5z
M256 -135q-1 1 -4 1q-36 10 -29 52q4 25 21 40t42 15q43 0 45 -39q7 -46 -29 -90t-88 -63q-9 -4 -14 4l-11 24q-3 7 5 12q42 20 62 44z" />
    <glyph glyph-name="uni0157" unicode="&#x157;" horiz-adv-x="347" 
d="M364 367q-30 13 -62 13q-61 0 -104 -70l-47 -300q-1 -10 -12 -10h-61q-9 0 -8 10l68 432q1 10 11 10h42q10 0 10 -10l2 -36q58 55 127 55q36 0 70 -12q9 -1 4 -12l-27 -64q-3 -9 -13 -6zM72 -135q-1 1 -4 1q-36 10 -30 52q4 25 21.5 40t42.5 15q43 0 45 -39
q6 -46 -30 -90t-87 -63q-11 -5 -14 4l-11 24q-3 7 5 12q42 20 62 44z" />
    <glyph glyph-name="Rcaron" unicode="&#x158;" horiz-adv-x="545" 
d="M424 5l-125 284h-95l-44 -279q-1 -10 -12 -10h-67q-9 0 -8 10l106 674q1 10 11 10h67h147q104 0 154.5 -54t36.5 -148q-13 -82 -67.5 -134t-138.5 -64l134 -282q6 -12 -8 -12h-82q-7 0 -9 5zM393 614h-138l-38 -244h138q63 -1 103 30.5t50 90.5q9 58 -21.5 90.5
t-93.5 32.5zM332 847l63 -61l83 61q8 5 15 5h79q19 0 2 -11l-140 -103q-8 -5 -15 -5h-64q-10 0 -13 5l-109 103q-11 11 6 11h80q8 0 13 -5z" />
    <glyph glyph-name="rcaron" unicode="&#x159;" horiz-adv-x="347" 
d="M364 367q-30 13 -62 13q-61 0 -104 -70l-47 -300q-1 -10 -12 -10h-61q-9 0 -8 10l68 432q1 10 11 10h42q10 0 10 -10l2 -36q58 55 127 55q36 0 70 -12q9 -1 4 -12l-27 -64q-3 -9 -13 -6zM142 678h69q7 0 12 -5l59 -94l86 93q6 6 15 7h68q11 0 4 -10l-133 -138
q-7 -7 -16 -7h-68q-9 0 -12 6l-89 139q-6 9 5 9z" />
    <glyph glyph-name="Sacute" unicode="&#x15a;" horiz-adv-x="566" 
d="M59 74q-8 5 0 14l43 58q7 10 15 2q15 -16 35 -29q23 -16 65.5 -29.5t86.5 -13.5q66 0 110 30t52 80q6 41 -27.5 66.5t-120.5 45.5q-110 26 -155 76.5t-34 131.5q11 86 87 141q77 57 182 56q51 0 98 -14q67 -21 95 -53q5 -5 -1 -15l-37 -61q-6 -9 -15 -2q-67 59 -158 59
q-64 0 -110 -31q-45 -29 -53 -76q-8 -45 22 -72q32 -26 125 -51q111 -30 155.5 -73.5t34.5 -117.5q-12 -95 -84 -151t-187 -55q-63 0 -115 18q-78 27 -109 66zM514 882l26 -57q3 -8 -6 -14l-199 -100q-9 -4 -13 4l-15 31q-5 8 5 14l188 124q10 7 14 -2z" />
    <glyph glyph-name="sacute" unicode="&#x15b;" horiz-adv-x="408" 
d="M43 41q-7 7 0 13l36 50q5 8 12 3q57 -38 118 -39q42 -1 71 14t34 40q3 25 -17.5 39.5t-79.5 30.5q-73 21 -102 52.5t-23 84.5q7 59 62 97t130 37q85 0 132 -44q7 -4 1 -14l-33 -50q-5 -9 -14 -3q-44 32 -97 33q-40 1 -67 -13.5t-31 -37.5q-4 -26 15 -40t74 -30
q78 -21 109 -51t24 -84q-9 -63 -63 -101t-133 -38q-101 2 -158 51zM379 693l34 -52q6 -6 -3 -13l-177 -110q-9 -8 -14 2l-18 27q-5 7 3 15l162 132q8 5 13 -1z" />
    <glyph glyph-name="Scircumflex" unicode="&#x15c;" horiz-adv-x="566" 
d="M59 74q-8 5 0 14l43 58q7 10 15 2q15 -16 35 -29q23 -16 65.5 -29.5t86.5 -13.5q66 0 110 30t52 80q6 41 -27.5 66.5t-120.5 45.5q-110 26 -155 76.5t-34 131.5q11 86 87 141q77 57 182 56q51 0 98 -14q67 -21 95 -53q5 -5 -1 -15l-37 -61q-6 -9 -15 -2q-67 59 -158 59
q-64 0 -110 -31q-45 -29 -53 -76q-8 -45 22 -72q32 -26 125 -51q111 -30 155.5 -73.5t34.5 -117.5q-12 -95 -84 -151t-187 -55q-63 0 -115 18q-78 27 -109 66zM471 740l-60 57l-79 -57q-8 -5 -14 -5h-77q-13 0 -2 10l136 99q4 4 14 4h60q9 0 13 -4l103 -98q11 -11 -5 -11
h-77q-4 0 -12 5z" />
    <glyph glyph-name="scircumflex" unicode="&#x15d;" horiz-adv-x="408" 
d="M43 40q-6 6 1 15l34 48q5 8 14 3q51 -36 117 -38q44 -1 72 14t32 40t-17 39.5t-80 30.5q-73 21 -102 52t-22 84q7 60 62 98t129 37q84 -2 132 -44q7 -4 1 -15l-32 -49q-5 -8 -14 -3q-48 32 -97 33q-40 1 -67.5 -13.5t-31.5 -37.5q-4 -26 15 -40t75 -30
q78 -22 108.5 -51.5t24.5 -83.5q-9 -63 -63.5 -101t-133.5 -37q-102 0 -157 49zM129 531l134 140q6 6 15 6h67q9 0 14 -6l89 -139q6 -9 -5 -9h-71q-6 0 -11 5l-58 94l-87 -93q-6 -6 -14 -6h-70q-11 0 -3 8z" />
    <glyph glyph-name="Scedilla" unicode="&#x15e;" horiz-adv-x="566" 
d="M59 74q-8 5 0 14l43 58q7 10 15 2q15 -16 35 -29q23 -16 65.5 -29.5t86.5 -13.5q66 0 110 30t52 80q6 41 -27.5 66.5t-120.5 45.5q-110 26 -155 76.5t-34 131.5q11 86 87 141q77 57 182 56q51 0 98 -14q67 -21 95 -53q5 -5 -1 -15l-37 -61q-6 -9 -15 -2q-67 59 -158 59
q-64 0 -110 -31q-45 -29 -53 -76q-8 -45 22 -72q32 -26 125 -51q111 -30 155.5 -73.5t34.5 -117.5q-12 -95 -84 -151t-187 -55q-63 0 -115 18q-78 27 -109 66zM254 0h63l-20 -35q85 -10 73 -81q-6 -40 -40 -65t-79 -24q-54 -1 -94 33q-6 4 0 12l25 28q4 5 11 1
q34 -20 63 -20q21 0 35 10t17 26q2 16 -10.5 23.5t-39.5 7.5h-44q-8 0 -4 9z" />
    <glyph glyph-name="scedilla" unicode="&#x15f;" horiz-adv-x="408" 
d="M43 40q-6 6 1 15l34 48q5 8 14 3q51 -36 117 -38q44 -1 72 14t32 40t-17 39.5t-80 30.5q-73 21 -102 52t-22 84q7 60 62 98t129 37q84 -2 132 -44q7 -4 1 -15l-32 -49q-5 -8 -14 -3q-48 32 -97 33q-40 1 -67.5 -13.5t-31.5 -37.5q-4 -26 15 -40t75 -30
q78 -22 108.5 -51.5t24.5 -83.5q-9 -63 -63.5 -101t-133.5 -37q-102 0 -157 49zM172 0h67l-22 -37q90 -11 78 -85q-7 -42 -42.5 -68.5t-83.5 -25.5q-59 -2 -98 35q-7 4 0 13l25 29q6 6 12 1q38 -21 67 -21q22 0 37 10.5t17 27.5q3 17 -11.5 25t-41.5 8h-46q-8 0 -4 9z" />
    <glyph glyph-name="Scaron" unicode="&#x160;" horiz-adv-x="566" 
d="M59 74q-8 5 0 14l43 58q7 10 15 2q15 -16 35 -29q23 -16 65.5 -29.5t86.5 -13.5q66 0 110 30t52 80q6 41 -27.5 66.5t-120.5 45.5q-110 26 -155 76.5t-34 131.5q11 86 87 141q77 57 182 56q51 0 98 -14q67 -21 95 -53q5 -5 -1 -15l-37 -61q-6 -9 -15 -2q-67 59 -158 59
q-64 0 -110 -31q-45 -29 -53 -76q-8 -45 22 -72q32 -26 125 -51q111 -30 155.5 -73.5t34.5 -117.5q-12 -95 -84 -151t-187 -55q-63 0 -115 18q-78 27 -109 66zM346 847l63 -61l83 61q5 5 15 5h79q19 0 2 -11l-141 -103q-8 -5 -14 -5h-64q-9 0 -14 5l-108 103q-11 11 6 11h80
q5 0 13 -5z" />
    <glyph glyph-name="scaron" unicode="&#x161;" horiz-adv-x="411" 
d="M46 40q-8 6 0 15l35 48q3 9 13 3q51 -36 117 -38q44 -1 72.5 14t32.5 40t-17 39t-80 31q-73 20 -102.5 51.5t-22.5 84.5q7 60 62 98t130 37q84 -2 132 -44q6 -6 0 -15l-32 -49q-5 -8 -14 -3q-45 32 -97 33q-40 1 -67.5 -13.5t-31.5 -37.5q-4 -26 15 -40t75 -30
q78 -22 108.5 -51.5t24.5 -83.5q-9 -63 -63 -101t-134 -37q-53 0 -94 14.5t-62 34.5zM153 678h69q7 0 12 -5l59 -94l87 93q6 6 15 7h68q10 0 3 -10l-133 -138q-7 -7 -16 -7h-68q-9 0 -12 6l-89 139q-6 9 5 9z" />
    <glyph glyph-name="uni0162" unicode="&#x162;" horiz-adv-x="538" 
d="M420 684q2 9 -8 9h-67q-11 0 -11 -9l-107 -675q-1 -9 8 -9h68q9 0 11 9zM110 623l10 61q2 9 12 9h495q9 0 8 -9l-10 -61q-1 -9 -12 -9h-495q-10 0 -8 9z" />
    <glyph glyph-name="uni0163" unicode="&#x163;" horiz-adv-x="319" 
d="M281 92q10 4 14 -2l20 -51q5 -9 -3 -14q-44 -34 -101 -34q-58 0 -82.5 41.5t-11.5 120.5l73 450q0 10 11 10h60q9 0 8 -10l-67 -427q-8 -61 -1 -83t33 -22q20 0 47 21zM74 389l8 53q2 9 11 9h261q8 0 8 -9l-9 -53q-2 -11 -11 -11h-260q-10 0 -8 11z" />
    <glyph glyph-name="Tcaron" unicode="&#x164;" horiz-adv-x="538" 
d="M227 9l95 604h-204q-8 0 -7 10l9 61q1 10 12 10h495q8 0 7 -10l-9 -61q-1 -10 -12 -10h-204l-96 -604q0 -9 -10 -9h-68q-8 0 -8 9zM330 847l63 -61l83 61q8 5 15 5h79q19 0 2 -11l-140 -103q-8 -5 -15 -5h-64q-10 0 -13 5l-109 103q-11 11 6 11h80q8 0 13 -5z" />
    <glyph glyph-name="tcaron" unicode="&#x165;" horiz-adv-x="392" 
d="M234 378l-32 -202q-9 -61 -2.5 -82.5t33.5 -22.5q21 0 49 21q10 4 13 -2l20 -51q3 -11 -4 -15q-49 -34 -99 -33q-59 0 -83.5 41.5t-11.5 120.5l36 226h-71q-9 0 -9 9l9 54q1 10 12 10h71l25 151q0 10 10 10h62q8 0 8 -10l-25 -152h108q11 0 9 -9l-9 -54q0 -10 -11 -10
h-108zM392 598q-1 1 -4 1q-36 10 -30 52q5 25 22.5 40t41.5 15q43 0 45 -39q6 -47 -30 -91q-35 -42 -87 -62q-11 -5 -14 4l-11 24q-3 7 5 12q42 20 62 44z" />
    <glyph glyph-name="Tbar" unicode="&#x166;" horiz-adv-x="538" 
d="M634 684l-9 -61q-1 -10 -12 -10h-204l-34 -217h112q9 0 7 -9l-7 -47q-1 -9 -11 -9h-112l-51 -322q0 -9 -10 -9h-68q-8 0 -8 9l50 322h-111q-10 0 -8 9l7 47q1 9 12 9h111l34 217h-204q-8 0 -7 10l9 61q1 10 12 10h495q8 0 7 -10z" />
    <glyph glyph-name="tbar" unicode="&#x167;" horiz-adv-x="318" 
d="M312 225h-102l-9 -55q-8 -57 -0.5 -77.5t32.5 -21.5q21 0 49 21q10 4 13 -2l20 -51q3 -11 -4 -15q-49 -34 -99 -33q-59 0 -83.5 41.5t-11.5 120.5l12 72h-67q-10 0 -9 9l8 47q0 9 11 9h67l14 88h-71q-9 0 -9 10l9 54q2 9 11 9h71l26 152q0 10 10 10h62q8 0 8 -10
l-24 -151h108q9 0 8 -10l-9 -54q0 -9 -11 -9h-108l-14 -89h102q8 0 8 -9l-8 -47q-2 -9 -10 -9z" />
    <glyph glyph-name="Utilde" unicode="&#x168;" horiz-adv-x="602" 
d="M91 272l66 412q1 9 10 9h68q9 0 9 -10l-66 -412q-15 -94 21.5 -144.5t113.5 -50.5q78 0 130 50t66 145l66 413q1 9 11 9h68q10 0 9 -9l-66 -413q-22 -136 -103 -208q-80 -72 -194 -72q-116 0 -173 73.5t-36 207.5zM308 748q-5 -12 -13 -4l-23 22q-5 5 -2 13q21 42 50 66
t57 24q23 0 39 -11.5t23.5 -25t19.5 -25t27 -11.5q35 2 59 52q6 12 15 5l24 -22q5 -7 1 -13q-20 -42 -49 -66t-58 -24q-22 0 -38.5 11.5t-24.5 25.5t-20 25.5t-26 11.5q-32 -1 -61 -54z" />
    <glyph glyph-name="utilde" unicode="&#x169;" horiz-adv-x="547" 
d="M414 9l1 71q-66 -91 -174 -91q-83 0 -121.5 52t-23.5 150l39 251q1 10 12 10h62q8 0 7 -10l-39 -244q-21 -130 94 -130q58 0 104 46t60 119l33 209q1 10 12 10h61q9 0 8 -10l-69 -433q0 -9 -10 -9h-45q-9 0 -11 9zM248 543q-5 -12 -14 -4l-24 23q-4 4 -2 10q21 42 51 67
t57 25q28 0 45 -18.5t30.5 -37t32.5 -18.5q33 1 61 55q5 8 11 2l25 -23q5 -3 2 -9q-19 -42 -48 -66.5t-59 -24.5q-22 0 -38 11.5t-24 25.5t-20 25t-26 10q-32 -2 -60 -53z" />
    <glyph glyph-name="Umacron" unicode="&#x16a;" horiz-adv-x="648" 
d="M114 272l65 412q1 9 11 9h68q9 0 8 -10l-65 -412q-15 -94 21.5 -144.5t113.5 -50.5q78 0 129.5 50t66.5 145l65 413q1 9 12 9h68q9 0 8 -9l-65 -413q-23 -134 -102 -207t-195 -73t-173 73.5t-36 207.5zM338 829h235q8 0 8 -9l-9 -52q-1 -10 -11 -10h-234q-9 0 -8 10l8 52
q1 9 11 9z" />
    <glyph glyph-name="umacron" unicode="&#x16b;" horiz-adv-x="547" 
d="M414 9l1 71q-66 -91 -174 -91q-83 0 -121.5 52t-23.5 150l39 251q1 10 12 10h62q8 0 7 -10l-39 -244q-21 -130 94 -130q58 0 104 46t60 119l33 209q1 10 12 10h61q9 0 8 -10l-69 -433q0 -9 -10 -9h-45q-9 0 -11 9zM260 650h233q10 0 8 -11l-9 -52q-1 -10 -11 -10h-233
q-9 0 -8 10l8 52q2 11 12 11z" />
    <glyph glyph-name="Ubreve" unicode="&#x16c;" horiz-adv-x="648" 
d="M114 272l65 412q1 9 11 9h68q9 0 8 -10l-65 -412q-15 -94 21.5 -144.5t113.5 -50.5q78 0 129.5 50t66.5 145l65 413q1 9 12 9h68q9 0 8 -9l-65 -413q-23 -134 -102 -207t-195 -73t-173 73.5t-36 207.5zM551 861l46 1q8 0 7 -10q-12 -56 -56.5 -88.5t-108.5 -32.5
q-62 0 -96 33t-29 88q1 10 11 10h45q9 0 8 -10q-1 -24 19 -39.5t53 -15.5t58 15.5t32 39.5q3 9 11 9z" />
    <glyph glyph-name="ubreve" unicode="&#x16d;" horiz-adv-x="547" 
d="M414 9l1 71q-66 -91 -174 -91q-83 0 -121.5 52t-23.5 150l39 251q1 10 12 10h62q8 0 7 -10l-39 -244q-21 -130 94 -130q58 0 104 46t60 119l33 209q1 10 12 10h61q9 0 8 -10l-69 -433q0 -9 -10 -9h-45q-9 0 -11 9zM469 676h45q8 0 7 -10q-12 -65 -58 -104.5t-110 -39.5
q-62 0 -95.5 39.5t-25.5 104.5q1 10 11 10h45q8 0 7 -10q-1 -34 17.5 -56.5t51.5 -22.5q34 0 60 23t35 57q1 9 10 9z" />
    <glyph glyph-name="Uring" unicode="&#x16e;" horiz-adv-x="648" 
d="M114 272l65 412q1 9 11 9h68q9 0 8 -10l-65 -412q-15 -94 21.5 -144.5t113.5 -50.5q78 0 129.5 50t66.5 145l65 413q1 9 12 9h68q9 0 8 -9l-65 -413q-23 -134 -102 -207t-195 -73t-173 73.5t-36 207.5zM360 809q6 41 35 66t70 25q42 0 64 -25t15 -66q-7 -42 -36.5 -67.5
t-71.5 -25.5q-41 0 -62 25.5t-14 67.5zM408 808q-3 -19 7 -30.5t30 -11.5q19 0 33 11.5t17 30.5q4 20 -6.5 32t-29.5 12q-44 0 -51 -44z" />
    <glyph glyph-name="uring" unicode="&#x16f;" horiz-adv-x="547" 
d="M414 9l1 71q-66 -91 -174 -91q-83 0 -121.5 52t-23.5 150l39 251q1 10 12 10h62q8 0 7 -10l-39 -244q-21 -130 94 -130q58 0 104 46t60 119l33 209q1 10 12 10h61q9 0 8 -10l-69 -433q0 -9 -10 -9h-45q-9 0 -11 9zM381 691q42 0 63.5 -25t15.5 -67q-7 -42 -36.5 -67.5
t-71.5 -25.5q-41 0 -62.5 25.5t-14.5 67.5t36 67t70 25zM324 598q-3 -19 7 -30.5t30 -11.5q19 0 33 11.5t17 30.5q3 20 -7 32t-30 12q-19 0 -33 -12t-17 -32z" />
    <glyph glyph-name="Uhungarumlaut" unicode="&#x170;" horiz-adv-x="648" 
d="M114 272l65 412q1 9 11 9h68q9 0 8 -10l-65 -412q-15 -94 21.5 -144.5t113.5 -50.5q78 0 129.5 50t66.5 145l65 413q1 9 12 9h68q9 0 8 -9l-65 -413q-23 -134 -102 -207t-195 -73t-173 73.5t-36 207.5zM566 882l49 -39q9 -6 0 -13l-112 -104q-9 -6 -15 -1l-28 22
q-7 7 -1 14l93 118q8 8 14 3zM411 882l50 -39q7 -6 -1 -13l-111 -104q-8 -6 -16 -1l-27 22q-6 6 -2 14l94 119q7 7 13 2z" />
    <glyph glyph-name="uhungarumlaut" unicode="&#x171;" horiz-adv-x="547" 
d="M414 9l1 71q-66 -91 -174 -91q-83 0 -121.5 52t-23.5 150l39 251q1 10 12 10h62q8 0 7 -10l-39 -244q-21 -130 94 -130q58 0 104 46t60 119l33 209q1 10 12 10h61q9 0 8 -10l-69 -433q0 -9 -10 -9h-45q-9 0 -11 9zM479 697l49 -31q10 -6 2 -14l-122 -129q-7 -6 -14 -3
l-27 20q-7 4 -2 13l99 139q8 8 15 5zM325 697l51 -32q8 -5 1 -13l-122 -129q-7 -7 -14 -2l-27 19q-7 4 -2 14l99 139q7 7 14 4z" />
    <glyph glyph-name="Uogonek" unicode="&#x172;" horiz-adv-x="648" 
d="M114 272l65 412q1 9 11 9h68q9 0 8 -10l-65 -412q-15 -94 21.5 -144.5t113.5 -50.5q78 0 129.5 50t66.5 145l65 413q1 9 12 9h68q9 0 8 -9l-65 -413q-23 -134 -102 -207t-195 -73t-173 73.5t-36 207.5zM362 -177q-37 -37 -92 -37q-46 0 -70 25t-18 66q5 29 30 62
q26 30 50 51q22 18 60 45l30 -34q-53 -45 -72.5 -66.5t-25.5 -46.5q-11 -35 25 -41q24 -3 42 13q7 7 13 2l28 -26q6 -5 0 -13z" />
    <glyph glyph-name="uogonek" unicode="&#x173;" horiz-adv-x="547" 
d="M414 9l1 71q-66 -91 -174 -91q-83 0 -121.5 52t-23.5 150l39 251q1 10 12 10h62q8 0 7 -10l-39 -244q-21 -130 94 -130q58 0 104 46t60 119l33 209q1 10 12 10h61q9 0 8 -10l-69 -433q0 -9 -10 -9h-45q-9 0 -11 9zM487 -174q-34 -37 -91 -37q-47 0 -71 25t-17 66
q9 66 140 158l30 -34q-51 -42 -71.5 -65.5t-26.5 -48.5q-5 -15 2 -26.5t23 -13.5q26 -3 42 13q6 8 12 2l29 -27q6 -5 -1 -12z" />
    <glyph glyph-name="Wcircumflex" unicode="&#x174;" horiz-adv-x="880" 
d="M208 8l-96 676q-1 10 9 10h70q9 0 10 -9l69 -541l231 541q5 9 14 9h68q9 0 9 -9l62 -545l243 547q1 7 10 7h72q9 0 5 -10l-311 -676q-5 -8 -13 -8h-58q-9 0 -11 8l-60 576l-243 -576q-3 -8 -12 -8h-58q-8 0 -10 8zM545 857h61q5 0 13 -5l103 -98q5 -4 3.5 -7t-8.5 -3h-77
q-7 0 -12 5l-60 57l-79 -57q-8 -5 -14 -5h-77q-16 0 -2 9l135 99q8 5 14 5z" />
    <glyph glyph-name="wcircumflex" unicode="&#x175;" horiz-adv-x="642" 
d="M497 0h-70q-9 0 -11 8l-40 338l-149 -338q-5 -8 -13 -8h-69q-10 0 -10 8l-59 435q0 8 7 8h73q10 0 10 -8l32 -340l151 340q5 8 13 8h60q9 0 11 -8l43 -344l139 344q5 8 12 8h73q9 0 6 -9l-197 -434q-5 -8 -12 -8zM318 522h-70q-11 0 -3 8l134 140q6 6 15 6h67q9 0 14 -6
l89 -139q6 -9 -5 -9h-71q-7 0 -10 5l-59 94l-87 -93q-6 -6 -14 -6z" />
    <glyph glyph-name="Ycircumflex" unicode="&#x176;" horiz-adv-x="575" 
d="M245 9l43 267l-174 405q-4 12 9 12h75q9 0 12 -8l134 -331l238 331q5 8 16 8h74q16 0 5 -12l-302 -404l-43 -268q0 -9 -10 -9h-68q-9 0 -9 9zM475 742l-60 57l-79 -57q-8 -5 -14 -5h-77q-15 0 -2 10l135 99q4 4 14 4h61q9 0 13 -4l103 -98q9 -11 -6 -11h-77q-6 0 -11 5z
" />
    <glyph glyph-name="ycircumflex" unicode="&#x177;" horiz-adv-x="468" 
d="M454 452h68q14 -2 5 -14l-374 -657q-5 -9 -15 -9h-62q-14 0 -7 13l122 217l-113 436q-2 13 11 14h69q10 0 11 -9l77 -342l193 342q5 9 15 9zM158 528l134 140q6 6 15 6h67q9 0 14 -6l89 -139q6 -9 -6 -9h-71q-5 0 -10 5l-58 94l-88 -93q-4 -6 -14 -6h-70q-10 0 -2 8z" />
    <glyph glyph-name="Ydieresis" unicode="&#x178;" horiz-adv-x="575" 
d="M245 9l43 267l-174 405q-4 12 9 12h75q9 0 12 -8l134 -331l238 331q5 8 16 8h74q16 0 5 -12l-302 -404l-43 -268q0 -9 -10 -9h-68q-9 0 -9 9zM273 794q4 26 22.5 42.5t44.5 16.5t39.5 -16.5t9.5 -42.5q-5 -26 -23.5 -42t-43.5 -16q-27 0 -40.5 16t-8.5 42zM437 794
q5 26 23.5 42.5t43.5 16.5q27 0 40.5 -16.5t8.5 -42.5q-4 -25 -22.5 -41.5t-44.5 -16.5q-25 0 -39 16t-10 42z" />
    <glyph glyph-name="Zacute" unicode="&#x179;" horiz-adv-x="567" 
d="M634 677l-455 -597h361q9 0 8 -10l-9 -60q-1 -10 -12 -10h-489q-19 0 -6 16l455 598h-337q-8 0 -7 9l9 61q1 10 11 10h464q19 0 7 -17zM512 882l26 -57q3 -8 -6 -14l-199 -100q-9 -4 -14 4l-15 31q-3 8 5 14l189 124q10 7 14 -2z" />
    <glyph glyph-name="zacute" unicode="&#x17a;" horiz-adv-x="450" 
d="M398 0h-344q-19 0 -7 15l287 363h-211q-10 0 -9 10l9 54q1 9 11 9l330 1q8 0 10 -5t-4 -12l-287 -362h226q9 0 8 -10l-9 -53q-1 -10 -10 -10zM426 683l33 -51q7 -7 -3 -13l-177 -110q-7 -7 -14 1l-18 28q-5 6 3 14l163 132q8 8 13 -1z" />
    <glyph glyph-name="Zdotaccent" unicode="&#x17b;" horiz-adv-x="567" 
d="M634 677l-455 -597h361q9 0 8 -10l-9 -60q-1 -10 -12 -10h-489q-19 0 -6 16l455 598h-337q-8 0 -7 9l9 61q1 10 11 10h464q19 0 7 -17zM420 850q24 0 36 -14.5t8 -37.5q-4 -24 -20.5 -38.5t-40.5 -14.5q-23 0 -35.5 15t-8.5 38t21 37.5t40 14.5z" />
    <glyph glyph-name="zdotaccent" unicode="&#x17c;" horiz-adv-x="450" 
d="M398 0h-344q-19 0 -7 15l287 363h-211q-10 0 -9 10l9 54q1 9 11 9l330 1q8 0 10 -5t-4 -12l-287 -362h226q9 0 8 -10l-9 -53q-1 -10 -10 -10zM379 617q-5 -24 -21.5 -39t-40.5 -15t-36.5 15t-8.5 39t21 38.5t41 14.5t36.5 -14.5t8.5 -38.5z" />
    <glyph glyph-name="Zcaron" unicode="&#x17d;" horiz-adv-x="567" 
d="M634 677l-455 -597h361q9 0 8 -10l-9 -60q-1 -10 -12 -10h-489q-19 0 -6 16l455 598h-337q-8 0 -7 9l9 61q1 10 11 10h464q19 0 7 -17zM345 847l63 -61l83 61q8 5 15 5h79q16 0 2 -11l-140 -103q-8 -5 -15 -5h-64q-10 0 -13 5l-109 103q-11 11 6 11h80q8 0 13 -5z" />
    <glyph glyph-name="zcaron" unicode="&#x17e;" horiz-adv-x="450" 
d="M398 0h-344q-19 0 -7 15l287 363h-211q-10 0 -9 10l9 54q1 9 11 9l330 1q8 0 10 -5t-4 -12l-287 -362h226q9 0 8 -10l-9 -53q-1 -10 -10 -10zM182 678h69q6 0 11 -5l59 -94l87 93q6 6 15 7h68q10 0 3 -10l-133 -138q-6 -7 -16 -7h-68q-7 0 -12 6l-89 139q-6 9 6 9z" />
    <glyph glyph-name="longs" unicode="&#x17f;" horiz-adv-x="306" 
d="M259 556l-86 -546q-1 -10 -11 -10h-62q-9 0 -8 10l86 553q13 81 56 125.5t107 44.5q60 0 103 -34q6 -5 1 -13l-38 -52q-4 -7 -13 -2q-29 21 -59 21q-61 0 -76 -97z" />
    <glyph glyph-name="florin" unicode="&#x192;" horiz-adv-x="461" 
d="M597 683l-45 -47q-7 -6 -17 -2q-24 21 -52 21q-25 0 -47.5 -23t-36.5 -67l-32 -113h112q12 0 7 -11l-15 -52q-3 -10 -14 -10h-113l-85 -287q-30 -100 -112 -137q-84 -38 -177 2q-10 5 -2 13l41 52q7 7 16 4q54 -24 97.5 -0.5t63.5 86.5l79 267h-67q-10 0 -7 10l16 52
q5 11 13 11h67l35 118q22 74 70 118.5t106 44.5q54 0 101 -34q5 -5 -2 -16z" />
    <glyph glyph-name="uni0218" unicode="&#x218;" horiz-adv-x="566" 
d="M59 74q-8 5 0 14l43 58q7 10 15 2q15 -16 35 -29q23 -16 65.5 -29.5t86.5 -13.5q66 0 110 30t52 80q6 41 -27.5 66.5t-120.5 45.5q-110 26 -155 76.5t-34 131.5q11 86 87 141q77 57 182 56q51 0 98 -14q67 -21 95 -53q5 -5 -1 -15l-37 -61q-6 -9 -15 -2q-67 59 -158 59
q-64 0 -110 -31q-45 -29 -53 -76q-8 -45 22 -72q32 -26 125 -51q111 -30 155.5 -73.5t34.5 -117.5q-12 -95 -84 -151t-187 -55q-63 0 -115 18q-78 27 -109 66zM246 -135q-1 1 -4 1q-36 10 -30 52q5 25 22.5 40t41.5 15q43 0 45 -39q6 -46 -30 -90q-35 -44 -87 -63
q-10 -3 -14 4l-11 24q-3 7 5 12q42 20 62 44z" />
    <glyph glyph-name="uni0219" unicode="&#x219;" horiz-adv-x="408" 
d="M43 40q-6 6 1 15l34 48q5 8 14 3q51 -36 117 -38q44 -1 72 14t32 40t-17 39.5t-80 30.5q-73 21 -102 52t-22 84q7 60 62 98t129 37q84 -2 132 -44q7 -4 1 -15l-32 -49q-5 -8 -14 -3q-48 32 -97 33q-40 1 -67.5 -13.5t-31.5 -37.5q-4 -26 15 -40t75 -30
q78 -22 108.5 -51.5t24.5 -83.5q-9 -63 -63.5 -101t-133.5 -37q-102 0 -157 49zM172 -135q-1 1 -4 1q-36 10 -30 52q4 25 21.5 40t42.5 15q43 0 45 -39q6 -46 -30 -90t-87 -63q-11 -5 -14 4l-11 24q-3 7 5 12q42 20 62 44z" />
    <glyph glyph-name="uni021A" unicode="&#x21a;" horiz-adv-x="538" 
d="M227 9l95 604h-204q-8 0 -7 10l9 61q1 10 12 10h495q8 0 7 -10l-9 -61q-1 -10 -12 -10h-204l-96 -604q0 -9 -10 -9h-68q-8 0 -8 9zM234 -135q-1 1 -4 1q-36 10 -29 52q4 25 21 40t42 15q43 0 45 -39q7 -46 -29 -90t-88 -63q-9 -4 -14 4l-11 24q-3 7 5 12q42 20 62 44z
" />
    <glyph glyph-name="uni021B" unicode="&#x21b;" horiz-adv-x="318" 
d="M234 378l-32 -202q-9 -61 -2.5 -82.5t33.5 -22.5q21 0 49 21q10 4 13 -2l20 -51q3 -11 -4 -15q-49 -34 -99 -33q-59 0 -83.5 41.5t-11.5 120.5l36 226h-71q-9 0 -9 9l9 54q1 10 12 10h71l25 151q0 10 10 10h62q8 0 8 -10l-25 -152h108q11 0 9 -9l-9 -54q0 -10 -11 -10
h-108zM158 -135q-1 1 -4 1q-36 10 -30 52q4 25 21.5 40t42.5 15q40 0 45 -39q6 -46 -30 -90t-88 -63q-10 -4 -13 4l-11 24q-3 7 5 12q43 22 62 44z" />
    <glyph glyph-name="uni0237" unicode="&#x237;" horiz-adv-x="232" 
d="M82 -67l83 527q1 10 12 10h62q11 0 10 -10l-84 -535q-13 -80 -57.5 -126.5t-108.5 -46.5q-59 0 -105 35q-6 4 -1 14l39 54q6 8 14 2q29 -21 59 -21q61 0 77 97z" />
    <glyph glyph-name="circumflex" unicode="&#x2c6;" horiz-adv-x="380" 
d="M114 532l134 140q6 6 15 6h67q10 0 14 -6l89 -139q6 -9 -5 -9h-71q-7 0 -10 5l-58 94l-88 -93q-6 -6 -14 -6h-70q-11 0 -3 8z" />
    <glyph glyph-name="caron" unicode="&#x2c7;" horiz-adv-x="395" 
d="M150 678h69q7 0 12 -5l59 -94l86 93q6 6 16 7h68q10 0 3 -10l-133 -138q-7 -7 -16 -7h-68q-9 0 -12 6l-89 139q-6 9 5 9z" />
    <glyph glyph-name="uni02C9" unicode="&#x2c9;" horiz-adv-x="325" 
d="M156 694h233q9 0 8 -10l-8 -50q-1 -10 -11 -10h-233q-10 0 -9 10l8 50q1 10 12 10z" />
    <glyph glyph-name="breve" unicode="&#x2d8;" horiz-adv-x="362" 
d="M382 693h45q9 0 7 -9q-12 -65 -58 -104.5t-111 -40.5q-62 1 -95 40.5t-26 104.5q2 9 11 9h45q8 0 8 -9q-2 -33 16.5 -55.5t51.5 -22.5q35 0 61 22.5t33 55.5q3 9 12 9z" />
    <glyph glyph-name="dotaccent" unicode="&#x2d9;" horiz-adv-x="184" 
d="M151 618q-13 15 -9 39t21 38q17 15 41 15t36 -15q13 -14 9 -38t-21 -39q-16 -15 -40 -15t-37 15z" />
    <glyph glyph-name="ring" unicode="&#x2da;" horiz-adv-x="256" 
d="M135 622q6 41 35 66t70 25q42 0 63.5 -25t15.5 -66q-7 -42 -36.5 -67t-71.5 -25q-41 0 -62 25t-14 67zM184 622q-4 -20 6 -32t30 -12q19 0 32.5 12t17.5 32q3 19 -7 31t-30 12q-19 0 -32.5 -11.5t-16.5 -31.5z" />
    <glyph glyph-name="ogonek" unicode="&#x2db;" horiz-adv-x="224" 
d="M187 -178q-34 -37 -91 -37q-47 0 -71 26t-17 66q8 55 105 132l34 25l30 -34q-51 -42 -71.5 -65t-26.5 -48q-5 -16 2 -27.5t24 -12.5q23 -5 42 12q4 7 12 2l29 -26q6 -6 -1 -13z" />
    <glyph glyph-name="tilde" unicode="&#x2dc;" horiz-adv-x="384" 
d="M173 580q-7 -12 -14 -4l-24 23q-4 3 -3 10q22 42 51.5 67t57.5 25q23 0 39 -11.5t23.5 -25t19.5 -25t27 -11.5q32 1 61 54q5 9 13 4l25 -25q4 -4 1 -8q-20 -43 -49.5 -68t-58.5 -25q-22 0 -38.5 11.5t-24.5 25.5t-20.5 25.5t-26.5 11.5q-34 -2 -59 -54z" />
    <glyph glyph-name="hungarumlaut" unicode="&#x2dd;" horiz-adv-x="380" 
d="M399 727l50 -32q11 -4 1 -14l-123 -130q-7 -7 -13 -2l-29 20q-5 5 -1 13l100 140q8 11 15 5zM243 727l52 -32q11 -4 1 -14l-124 -130q-6 -8 -12 -2l-28 19q-11 5 -2 14l100 141q2 4 6.5 5t6.5 -1z" />
    <glyph glyph-name="uni0313" unicode="&#x313;" horiz-adv-x="218" 
d="M76 -135q-1 1 -4 1q-36 10 -30 52q4 25 21.5 40t42.5 15q40 0 45 -39q6 -46 -30 -90t-88 -63q-10 -4 -13 4l-11 24q-3 7 5 12q43 22 62 44z" />
    <glyph glyph-name="uni0394" unicode="&#x394;" horiz-adv-x="658" 
d="M463 676l-369 -666l-2 -1q-4 -9 -14 -9h-53q-15 0 -8 13l380 670q6 10 16 10h52zM413 693h52h-1q10 0 13 -10l167 -668q3 -15 -12 -15h-45q-11 0 -12 10l-165 666zM591 0h-519l10 66h519z" />
    <glyph glyph-name="uni03A9" unicode="&#x3a9;" horiz-adv-x="797" 
d="M643 87l133 1q9 0 8 -10l-10 -67q-2 -11 -12 -11h-263q-10 0 -7 10l12 77q85 32 144 103q61 73 74 157q19 121 -43 196q-61 75 -182 75t-207 -75q-85 -73 -105 -196q-14 -88 26 -157q41 -71 119 -102l-12 -78q-3 -10 -12 -10h-263q-8 0 -7 10l10 68q1 10 11 10h124
q-51 48 -73 115t-10 144q25 159 139 258q113 98 273 98q159 0 242 -98t58 -258q-25 -156 -167 -260z" />
    <glyph glyph-name="uni03BC" unicode="&#x3bc;" horiz-adv-x="549" 
d="M100 -227h-57q-11 0 -9 12l104 656q2 11 12 11h61q10 0 8 -11l-39 -243q-21 -130 93 -130q58 0 104 46t61 119l33 208q2 11 12 11h60q10 0 9 -10l-68 -432q-1 -10 -12 -10h-45q-9 0 -9 10l-1 70q-66 -91 -174 -91q-61 0 -92 28l-37 -232q-2 -12 -14 -12z" />
    <glyph glyph-name="pi" unicode="&#x3c0;" horiz-adv-x="564" 
d="M87 383l9 60q1 10 12 10h492q9 0 8 -10l-9 -60q-1 -10 -12 -10h-68l-57 -363q-1 -10 -12 -10h-60q-9 0 -8 10l57 363h-196l-57 -363q-1 -10 -12 -10h-59q-9 0 -8 10l57 363h-69q-9 0 -8 10z" />
    <glyph glyph-name="Wgrave" unicode="&#x1e80;" horiz-adv-x="880" 
d="M208 8l-96 676q-1 10 9 10h70q9 0 10 -9l69 -541l231 541q5 9 14 9h68q9 0 9 -9l62 -545l243 547q1 7 10 7h72q9 0 5 -10l-311 -676q-5 -8 -13 -8h-58q-9 0 -11 8l-60 576l-243 -576q-3 -8 -12 -8h-58q-8 0 -10 8zM603 712l-167 100q-8 5 -2 14l44 57q8 7 13 2l151 -124
q6 -7 0 -13l-25 -33q-6 -8 -14 -3z" />
    <glyph glyph-name="wgrave" unicode="&#x1e81;" horiz-adv-x="642" 
d="M155 0l8 23l186 420q5 8 13 8h41q18 0 10 -17l-186 -425q-3 -9 -12 -9h-60zM205 12l-7 -12h-53q-8 0 -10 8l-58 435q-2 8 7 8h73q8 0 10 -8zM450 0l-8 11l173 432q6 8 13 8h72q10 0 5 -9l-196 -433q-3 -9 -12 -9h-47zM484 31l2 -31h-59q-9 0 -11 9l-47 412l-5 30h23h35
q9 0 11 -8zM444 515l-142 109q-7 6 1 13l50 53q8 5 13 0l121 -134q4 -4 0 -11l-31 -29q-6 -6 -12 -1z" />
    <glyph glyph-name="Wacute" unicode="&#x1e82;" horiz-adv-x="880" 
d="M208 8l-96 676q-1 10 9 10h70q9 0 10 -9l69 -541l231 541q5 9 14 9h68q9 0 9 -9l62 -545l243 547q1 7 10 7h72q9 0 5 -10l-311 -676q-5 -8 -13 -8h-58q-9 0 -11 8l-60 576l-243 -576q-3 -8 -12 -8h-58q-8 0 -10 8zM664 882l26 -57q3 -8 -6 -14l-199 -100q-9 -6 -13 4
l-15 31q-5 8 5 14l188 124q10 7 14 -2z" />
    <glyph glyph-name="wacute" unicode="&#x1e83;" horiz-adv-x="642" 
d="M497 0h-70q-9 0 -11 8l-40 338l-149 -338q-5 -8 -13 -8h-69q-10 0 -10 8l-59 435q0 8 7 8h73q10 0 10 -8l32 -340l151 340q5 8 13 8h60q9 0 11 -8l43 -344l139 344q5 8 12 8h73q9 0 6 -9l-197 -434q-5 -8 -12 -8zM499 684l33 -51q4 -7 -3 -14l-177 -110q-9 -8 -14 2
l-18 28q-5 6 3 14l162 132q8 6 14 -1z" />
    <glyph glyph-name="Wdieresis" unicode="&#x1e84;" horiz-adv-x="880" 
d="M208 8l-96 676q-1 10 9 10h70q9 0 10 -9l69 -541l231 541q5 9 14 9h68q9 0 9 -9l62 -545l243 547q1 7 10 7h72q9 0 5 -10l-311 -676q-5 -8 -13 -8h-58q-9 0 -11 8l-60 576l-243 -576q-3 -8 -12 -8h-58q-8 0 -10 8zM425 794q5 27 23 43t44 16t39.5 -16.5t9.5 -42.5
q-4 -25 -22.5 -41.5t-44.5 -16.5t-39.5 16t-9.5 42zM590 794q4 26 22.5 42.5t44.5 16.5t39.5 -16.5t8.5 -42.5q-4 -26 -22.5 -42t-44.5 -16t-39 16.5t-9 41.5z" />
    <glyph glyph-name="wdieresis" unicode="&#x1e85;" horiz-adv-x="642" 
d="M497 0h-70q-9 0 -11 8l-40 338l-149 -338q-5 -8 -13 -8h-69q-10 0 -10 8l-59 435q0 8 7 8h73q10 0 10 -8l32 -340l151 340q5 8 13 8h60q9 0 11 -8l43 -344l139 344q5 8 12 8h73q9 0 6 -9l-197 -434q-5 -8 -12 -8zM275 600q5 27 23 42.5t44 15.5q27 0 40.5 -16t8.5 -42
q-4 -25 -22.5 -41.5t-44.5 -16.5t-39.5 16t-9.5 42zM440 600q5 27 23 42.5t44 15.5t39.5 -16t8.5 -42q-4 -26 -22.5 -42t-44.5 -16t-39 16.5t-9 41.5z" />
    <glyph glyph-name="LatinCapitalLetterSharpS" unicode="&#x1e9e;" horiz-adv-x="624" 
d="M350 81q26 -21 65 -21t67.5 21.5t33.5 54.5q4 28 -9.5 55t-35.5 48t-43.5 42.5t-35 48t-9.5 54.5q2 19 21.5 43t41.5 42.5t40.5 39.5t19.5 36q6 35 -25 55.5t-79 20.5q-68 0 -115 -50.5t-61 -138.5l-66 -421q-2 -11 -13 -11h-65q-11 0 -9 11l71 451q18 110 92 177
q74 66 178 66q83 0 136 -44q53 -43 43 -116q-6 -39 -35.5 -69.5t-58 -53t-33.5 -41.5q-2 -15 13.5 -31.5t38.5 -35t45 -41t34.5 -58t6.5 -77.5q-12 -73 -70 -119t-133 -46q-53 0 -97 26q-9 5 -3 15l35 63q5 8 14 4z" />
    <glyph glyph-name="endash" unicode="&#x2013;" horiz-adv-x="579" 
d="M139 331h405q12 0 10 -11l-9 -56q-2 -11 -13 -11h-405q-11 0 -9 11l9 56q2 11 12 11z" />
    <glyph glyph-name="emdash" unicode="&#x2014;" horiz-adv-x="845" 
d="M139 330h671q11 0 10 -10l-9 -57q-2 -11 -13 -11h-671q-11 0 -9 11l9 57q1 10 12 10z" />
    <glyph glyph-name="quoteleft" unicode="&#x2018;" horiz-adv-x="207" 
d="M263 710l19 -23q4 -6 -4 -14q-73 -53 -92 -118h2q24 -1 37 -17.5t9 -41.5q-4 -27 -23.5 -44t-46.5 -17q-22 0 -35.5 11.5t-14.5 31.5q-9 57 35 133q43 74 100 102q8 5 14 -3z" />
    <glyph glyph-name="quoteright" unicode="&#x2019;" horiz-adv-x="207" 
d="M125 441l-19 23q-5 9 3 14q73 52 93 118l-2 1q-54 5 -46 59q4 27 23.5 44t46.5 17q48 0 51 -43q7 -57 -37 -134q-44 -75 -99 -102q-9 -5 -14 3z" />
    <glyph glyph-name="quotesinglbase" unicode="&#x201a;" horiz-adv-x="227" 
d="M40 -167l-19 23q-4 6 4 14q72 50 92 118h-1q-25 1 -38 17t-9 42q5 28 24 44.5t47 16.5q46 0 50 -43q7 -58 -36 -133q-43 -74 -100 -102q-9 -5 -14 3z" />
    <glyph glyph-name="quotedblleft" unicode="&#x201c;" horiz-adv-x="363" 
d="M263 710l19 -23q5 -8 -5 -14q-75 -55 -91 -118h2q24 -2 36.5 -18t8.5 -41q-4 -28 -23 -44.5t-46 -16.5q-22 0 -36 11.5t-16 30.5q-7 57 37 134q43 74 100 102q8 5 14 -3zM342 555h1q25 -2 37.5 -18t8.5 -41q-4 -28 -23 -44.5t-47 -16.5q-21 0 -35 11.5t-16 30.5
q-7 57 37 134q43 74 100 102q8 5 14 -3l19 -23q5 -8 -5 -14q-73 -52 -91 -118z" />
    <glyph glyph-name="quotedblright" unicode="&#x201d;" horiz-adv-x="394" 
d="M298 441l-19 23q-5 8 5 14q72 52 91 118h-2q-24 2 -36.5 18t-8.5 41q5 28 23.5 44.5t45.5 16.5q46 0 51 -43q7 -58 -36 -133q-43 -74 -100 -103q-9 -4 -14 4zM219 596h-1q-25 2 -37.5 18t-8.5 41q4 27 23 44t47 17q46 0 51 -43q7 -57 -37 -133q-43 -74 -100 -103
q-9 -4 -14 4l-19 23q-5 8 5 14q71 49 91 118z" />
    <glyph glyph-name="quotedblbase" unicode="&#x201e;" horiz-adv-x="383" 
d="M195 -169l-18 24q-4 7 4 13q71 52 92 118h-2q-25 1 -37.5 17.5t-8.5 42.5q4 27 23.5 43.5t46.5 16.5q45 2 50 -42q8 -59 -36 -133q-43 -74 -99 -103q-8 -4 -15 3zM117 -14h-1q-25 1 -38 17.5t-9 42.5q5 27 24.5 43.5t46.5 16.5q46 0 50 -42q7 -57 -37 -134
q-43 -75 -99 -102q-8 -4 -15 3l-18 24q-4 7 4 13q72 50 92 118z" />
    <glyph glyph-name="dagger" unicode="&#x2020;" horiz-adv-x="424" 
d="M454 435h-133l-85 -535q-1 -10 -11 -10h-60q-10 0 -9 10l85 535h-134q-8 0 -8 9l10 63q1 9 11 9h134l31 196q1 10 11 10h60q10 0 9 -10l-31 -196h133q9 0 8 -9l-10 -63q0 -9 -11 -9z" />
    <glyph glyph-name="daggerdbl" unicode="&#x2021;" horiz-adv-x="424" 
d="M192 124h-134q-10 0 -9 10l10 62q1 10 12 10h134l36 229h-134q-8 0 -8 9l10 63q1 9 11 9h134l31 196q1 10 11 10h60q10 0 9 -10l-31 -196h134q8 0 7 -9l-10 -63q0 -9 -10 -9h-134l-36 -229h133q9 0 8 -10l-10 -62q-1 -10 -11 -10h-133l-36 -224q-1 -10 -11 -10h-60
q-10 0 -9 10z" />
    <glyph glyph-name="bullet" unicode="&#x2022;" horiz-adv-x="375" 
d="M101 323q10 61 53.5 98.5t105.5 37.5t94 -37.5t22 -98.5q-10 -62 -54 -100t-106 -38t-93.5 38t-21.5 100z" />
    <glyph glyph-name="ellipsis" unicode="&#x2026;" horiz-adv-x="790" 
d="M727 51q-5 -27 -24.5 -44t-46.5 -17t-41 17t-9 44t24 44t46 17t41 -17t10 -44zM150 112q26 0 40 -17t10 -44t-24 -44t-46 -17q-28 0 -42 17t-9 44t24.5 44t46.5 17zM394 -10q-28 0 -42 17t-9 44t24.5 44t46.5 17q26 0 40 -17t10 -44t-24 -44t-46 -17z" />
    <glyph glyph-name="perthousand" unicode="&#x2030;" horiz-adv-x="1126" 
d="M145 433q-36 43 -25 116q10 72 61 116q52 44 123 44t109 -44q37 -43 26 -116q-11 -72 -62 -116q-50 -43 -123 -43q-72 0 -109 43zM200 549q-5 -35 13 -57t53 -22q36 0 61.5 21.5t31.5 57.5t-12.5 58t-54.5 22q-35 0 -60.5 -22t-31.5 -58zM506 150q-6 -36 12.5 -58
t54.5 -22q35 0 60.5 21.5t31.5 58.5q5 35 -13 57t-54 22t-61.5 -22t-30.5 -57zM451 34q-36 43 -25 116q10 71 62 115t123 44t109 -44q37 -42 26 -115t-63 -116q-52 -44 -123 -44t-109 44zM822 34q-36 43 -25 116q10 71 62 115t123 44t109 -44q37 -42 26 -115t-63 -116
q-52 -44 -123 -44t-109 44zM878 150q-6 -36 12.5 -58t53.5 -22q36 0 61.5 22t31.5 58q5 35 -13.5 57t-54.5 22q-35 0 -60.5 -22t-30.5 -57zM159 12l508 703q4 7 13 7h64q14 0 6 -11l-509 -704q-7 -7 -14 -7h-63q-14 0 -5 12z" />
    <glyph glyph-name="guilsinglleft" unicode="&#x2039;" horiz-adv-x="341" 
d="M300 441l32 -39q5 -8 -3 -16l-132 -120l94 -120q5 -9 -3 -15l-43 -39q-9 -7 -16 0l-114 150q-6 7 -4 18l2 13q1 9 10 18l161 150q10 7 16 0z" />
    <glyph glyph-name="guilsinglright" unicode="&#x203a;" horiz-adv-x="341" 
d="M139 402l43 39q9 7 16 -1l113 -149q6 -7 4 -18l-2 -13q-1 -10 -10 -19l-160 -148q-9 -10 -16 -1l-31 38q-6 9 1 16l132 120l-94 120q-5 8 4 16z" />
    <glyph glyph-name="fraction" unicode="&#x2044;" horiz-adv-x="485" 
d="M5 12l508 703q4 7 13 7h64q14 0 4 -12l-507 -703q-7 -7 -14 -7h-63q-14 0 -5 12z" />
    <glyph glyph-name="franc" unicode="&#x20a3;" horiz-adv-x="500" 
d="M195 161l-23 -151q-1 -10 -12 -10h-66q-9 0 -8 10l23 151h-55q-9 0 -8 10l7 44q1 10 12 10h55l72 459q1 10 12 10h369q9 0 8 -10l-9 -61q-1 -10 -12 -10h-293l-35 -219h245q10 0 9 -10l-10 -60q-1 -10 -11 -10h-245l-14 -89h136q9 0 8 -10l-7 -44q-1 -10 -12 -10h-136z
" />
    <glyph glyph-name="lira" unicode="&#x20a4;" horiz-adv-x="522" 
d="M206 78h239q11 0 10 -10l-9 -57q-2 -11 -13 -11h-343q-5 0 -7 4t1 8q62 101 85 163h-76q-10 0 -10 11l7 42q2 11 13 11h86q7 26 5 67h-79q-10 0 -8 11l7 42q2 11 12 11h56q-22 70 -11 140q13 85 75 139t145 54q110 0 169 -86q4 -9 -3 -15l-51 -47q-8 -8 -14 1
q-42 65 -115 65q-47 0 -80.5 -31t-41.5 -80q-6 -30 -1 -61q1 -6 2.5 -15.5t1.5 -10.5l13 -53h127q11 0 9 -11l-7 -42q-2 -11 -13 -11h-109q0 -35 -7 -67h104q10 0 8 -11l-7 -42q-2 -11 -11 -11h-113q-27 -60 -46 -97z" />
    <glyph glyph-name="peseta" unicode="&#x20a7;" horiz-adv-x="1064" 
d="M328 289h-132l-44 -279q-1 -10 -13 -10h-66q-10 0 -9 10l107 673q2 11 12 11h209q104 -1 155 -54.5t36 -147.5q-15 -95 -82.5 -149t-172.5 -54zM377 613h-130l-38 -243h130q66 -1 107 30.5t51 90.5q9 59 -22 91t-98 31zM646 613h60q9 0 9 -10l-24 -151h108q9 0 8 -10
l-9 -54q0 -9 -11 -9h-108l-32 -203q-9 -61 -2.5 -82.5t33.5 -22.5q24 0 50 23q10 6 13 -2l19 -53q4 -8 -4 -15q-48 -33 -99 -33q-59 0 -83.5 41.5t-11.5 120.5l36 226h-71q-9 0 -9 9l9 54q1 10 12 10h71l25 151q0 10 11 10zM699 40q-7 6 0 15l34 48q6 8 14 3q51 -36 117 -38
q44 -1 72.5 14t31.5 40q4 25 -17 39.5t-80 30.5q-73 21 -102 52t-22 84q7 60 61 98q55 38 130 37q87 -2 132 -44q7 -6 1 -15l-33 -49q-5 -10 -13 -3q-45 32 -97 33q-40 1 -67.5 -13.5t-31.5 -37.5q-4 -26 15 -40t75 -30q77 -21 107.5 -51t24.5 -84q-8 -64 -63 -101
q-55 -38 -133 -37q-53 0 -94 14.5t-62 34.5z" />
    <glyph glyph-name="Euro" unicode="&#x20ac;" horiz-adv-x="622" 
d="M526 182l48 -34q8 -6 2 -15q-88 -142 -221 -142q-84 0 -135 60t-58 165h-79q-10 0 -9 10l7 44q2 11 13 11h68q1 24 7 66v2h-65q-11 0 -9 11l7 43q2 11 13 11h68q35 133 110 210q76 79 174 79q70 0 117.5 -42.5t65.5 -119.5q2 -11 -8 -15l-60 -34q-13 -8 -14 5
q-26 122 -115 122q-59 0 -108 -55.5t-74 -149.5h121q11 0 9 -11l-7 -43q-2 -11 -13 -11h-125v-2q-6 -42 -7 -66h122q11 0 9 -11l-7 -44q-1 -10 -13 -10h-109q7 -67 37.5 -104.5t78.5 -37.5q82 0 142 103q8 11 17 5z" />
    <glyph glyph-name="uni2113" unicode="&#x2113;" horiz-adv-x="449" 
d="M358 703q62 0 84 -55q24 -55 13 -126q-24 -155 -226 -246q-29 -233 58 -233q35 0 76 56q5 9 13 5l48 -21q8 -3 3 -12q-28 -46 -68 -73.5t-84 -27.5q-149 0 -126 273q-21 -9 -57 -20q-10 -3 -12 5l-14 51q-1 10 7 13l86 29l3 21l8 57l12 64q8 41 18 71q27 83 58 118
q44 51 100 51zM348 627q-30 -3 -55 -64q-35 -84 -52 -205q118 57 136 157q11 31 6.5 72.5t-35.5 39.5z" />
    <glyph glyph-name="trademark" unicode="&#x2122;" horiz-adv-x="684" 
d="M448 692h35q10 0 13 -9l61 -170l117 171q5 8 16 8h41q9 0 8 -10l-45 -286q-1 -10 -12 -10h-40q-9 0 -8 10l29 183l-94 -138q-5 -9 -16 -9h-15q-8 0 -13 9l-50 137l-29 -182q-1 -10 -12 -10h-40q-9 0 -8 10l44 281q3 15 18 15zM394 684l-5 -33q-1 -10 -11 -10h-78
l-39 -243q-1 -10 -12 -10h-40q-9 0 -8 10l39 243h-77q-11 0 -9 9l5 33q2 11 12 11h215q9 0 8 -10z" />
    <glyph glyph-name="Omega" unicode="&#x2126;" horiz-adv-x="807" 
d="M62 88h124q-108 102 -84 259q25 159 139 258q115 98 274 98t242 -98q83 -97 57 -258q-12 -75 -55.5 -143t-110.5 -117l133 1q8 0 7 -10l-10 -67q-2 -11 -11 -11h-263q-9 0 -8 10l12 77q85 31 145 103q61 73 74 157q19 121 -43 196t-182 75q-121 0 -208 -75
q-85 -73 -105 -196q-13 -85 27 -157q41 -71 118 -102l-12 -78q-1 -10 -11 -10h-263q-9 0 -8 10l10 68q1 10 12 10z" />
    <glyph glyph-name="estimated" unicode="&#x212e;" horiz-adv-x="891" 
d="M450 34q208 0 315 132q6 6 12 6h46q13 0 6 -10q-63 -89 -165.5 -137.5t-222.5 -48.5q-175 0 -272 100q-98 101 -71 271q27 171 157 271t304 100q175 0 272 -100q99 -100 72 -271l-2 -12q0 -15 -16 -15h-639l-33 -204q81 -82 237 -82zM287 578l-32 -202h500l32 202
q-79 82 -237 82q-160 0 -263 -82z" />
    <glyph glyph-name="partialdiff" unicode="&#x2202;" horiz-adv-x="539" 
d="M382 702q211 0 164 -296q-19 -122 -59 -217q-27 -61 -58 -101q-76 -97 -195 -97q-87 0 -131 59q-43 58 -29 148q14 89 80 149q67 61 155 61q120 0 143 -101q16 74 19 99q13 88 2 147q-14 75 -104 75q-55 0 -107 -34q-10 -6 -13 3l-22 46q-3 8 4 15q65 44 151 44zM397 164
q16 72 -6 121t-94 49q-56 0 -98 -39t-51 -97q-9 -59 16.5 -95.5t80.5 -36.5q93 0 152 98z" />
    <glyph glyph-name="increment" unicode="&#x2206;" horiz-adv-x="658" 
d="M485 684l160 -670q3 -14 -12 -14h-610q-13 0 -7 13l372 671q6 9 17 9h68q11 0 12 -9zM148 81h396l-121 505z" />
    <glyph glyph-name="product" unicode="&#x220f;" horiz-adv-x="621" 
d="M446 -122l110 694h-311l-110 -694q-2 -11 -12 -11h-64q-10 0 -8 11l121 768q1 10 12 10h459q9 0 8 -10l-121 -768q-2 -11 -12 -11h-64q-10 0 -8 11z" />
    <glyph glyph-name="summation" unicode="&#x2211;" horiz-adv-x="604" 
d="M41 -119l327 380l-207 381q-4 6 -1 10t11 4h480q9 0 8 -10l-10 -64q-1 -10 -11 -10h-327l171 -303q4 -9 -3 -16l-267 -302h327q10 0 9 -10l-11 -65q-1 -10 -12 -10h-479q-17 0 -5 15z" />
    <glyph glyph-name="minus" unicode="&#x2212;" horiz-adv-x="579" 
d="M135 328h414q9 0 8 -10l-8 -52q-1 -10 -11 -10h-414q-11 0 -10 10l8 52q1 10 13 10z" />
    <glyph glyph-name="uni2215" unicode="&#x2215;" horiz-adv-x="485" 
d="M5 12l508 703q4 7 13 7h64q14 0 4 -12l-507 -703q-7 -7 -14 -7h-63q-14 0 -5 12z" />
    <glyph glyph-name="uni2219" unicode="&#x2219;" horiz-adv-x="263" 
d="M108 252q5 30 25 47.5t49 17.5q28 0 42.5 -18t10.5 -47q-5 -28 -25 -45.5t-48 -17.5q-29 0 -44 17.5t-10 45.5z" />
    <glyph glyph-name="radical" unicode="&#x221a;" horiz-adv-x="549" 
d="M231 10l-51 356h-85q-11 0 -9 11l8 54q2 12 13 12h135q10 0 12 -9l46 -322l279 600q4 10 15 10h58q10 0 7 -10l-327 -702q-4 -10 -15 -10h-74q-11 0 -12 10z" />
    <glyph glyph-name="infinity" unicode="&#x221e;" horiz-adv-x="920" 
d="M505 285q52 55 114.5 87t118.5 32q85 0 129 -53q45 -52 31 -137q-14 -86 -75 -138q-59 -52 -145 -52q-58 0 -109.5 32.5t-86.5 85.5q-50 -53 -112 -85.5t-120 -32.5q-85 0 -129 52.5t-31 137.5q14 84 74 137q62 53 146 53q56 0 108.5 -32t86.5 -87zM298 326
q-50 0 -86 -31t-44 -81t18 -81t76 -31q46 0 100 30q53 31 88 81q-22 50 -66 82q-43 31 -86 31zM538 213q18 -49 62 -81q44 -30 90 -30q51 0 86.5 31t43.5 81t-18 81t-76 31q-43 0 -96 -31q-56 -32 -92 -82z" />
    <glyph glyph-name="integral" unicode="&#x222b;" horiz-adv-x="398" 
d="M508 678l-37 -47q-6 -8 -14 -3q-35 26 -55 26q-32 0 -49 -22t-24 -73l-49 -304l-50 -328q-22 -163 -164 -165q-57 0 -97 37q-6 5 1 15l37 47q6 7 13 3q32 -24 56 -24q32 0 48.5 21.5t25.5 73.5l47 304l51 330q26 162 160 163q59 0 101 -39q6 -6 -1 -15z" />
    <glyph glyph-name="approxequal" unicode="&#x2248;" horiz-adv-x="596" 
d="M515 441q7 13 14 3l31 -36q4 -8 0 -15q-28 -53 -68 -85.5t-81 -32.5q-34 0 -60.5 14.5t-40 32t-32 32t-38.5 14.5q-45 -2 -87 -76q-7 -13 -16 -3l-28 35q-6 9 -1 17q27 49 66.5 79.5t80.5 30.5q33 0 60 -13.5t41 -33.5q33 -45 71 -45q45 2 88 82zM479 224q7 10 15 3
l30 -38q5 -8 1 -14q-27 -52 -67.5 -85t-82.5 -33q-34 0 -60 14.5t-39.5 32t-32 32t-38.5 14.5q-45 -2 -87 -76q-8 -14 -17 -3l-27 35q-5 10 -2 17q27 51 67 80.5t82 29.5q35 0 61 -15t39 -32.5t31 -31.5t39 -13q45 2 88 83z" />
    <glyph glyph-name="notequal" unicode="&#x2260;" horiz-adv-x="524" 
d="M401 420h107q11 0 9 -11l-9 -55q-2 -9 -13 -11h-141l-48 -81h176q12 0 10 -11l-9 -55q-2 -11 -13 -11h-209l-49 -84q-4 -7 -13 -7h-58q-13 0 -6 12l47 79h-70q-11 0 -9 11l9 55q2 11 12 11h103l48 81h-138q-11 0 -9 11l9 55q2 11 13 11h171l51 87q5 8 13 8h59q5 0 7 -3.5
t-2 -8.5z" />
    <glyph glyph-name="lessequal" unicode="&#x2264;" horiz-adv-x="541" 
d="M509 124l-413 184q-9 3 -7 15l13 78q1 10 11 15l471 182q5 2 8.5 -0.5t1.5 -7.5l-10 -69q-1 -9 -10 -12l-389 -148l342 -148q7 -4 6 -13l-11 -68q-2 -15 -13 -8zM493 -1h-445q-10 0 -9 10l9 54q1 10 12 10h445q9 0 8 -10l-9 -54q-1 -10 -11 -10z" />
    <glyph glyph-name="greaterequal" unicode="&#x2265;" horiz-adv-x="541" 
d="M543 308l-470 -184q-14 -5 -11 8l11 68q2 12 9 13l388 148l-341 148q-7 3 -5 12l10 69q1 13 14 8l412 -182q9 -3 7 -15l-13 -78q-1 -12 -11 -15zM493 -1h-445q-10 0 -9 10l9 54q1 10 12 10h445q9 0 8 -10l-9 -54q-1 -10 -11 -10z" />
    <glyph glyph-name="uni24C5" unicode="&#x24c5;" horiz-adv-x="826" 
d="M111 346q26 162 138 259q113 98 273 98t243 -98q83 -99 58 -259t-140 -258t-274 -98t-242 98q-82 97 -56 258zM760 346q21 132 -47 212q-67 81 -200 81q-132 0 -225 -81q-93 -79 -114 -212q-21 -130 47 -212q69 -80 200 -80t225 80q93 81 114 212zM329 171l56 356
q3 11 13 11h60h72q57 0 84.5 -29t19.5 -81q-8 -51 -45 -81t-94 -30h-72l-23 -147q-2 -11 -14 -11h-48q-10 0 -9 12zM518 472h-70l-15 -91h70q55 0 61 45q7 46 -46 46z" />
    <glyph glyph-name="lozenge" unicode="&#x25ca;" horiz-adv-x="525" 
d="M185 -32l-91 348q-2 11 3 19l201 349q6 9 17 9h24h58h23q12 0 13 -9l91 -349q3 -7 -2 -19l-202 -348q-4 -10 -16 -10h-24h-58h-24q-10 0 -13 10zM357 628l-174 -302l79 -302l175 302z" />
    <glyph glyph-name="ijacute" unicode="&#xe132;" horiz-adv-x="448" 
d="M378 452l60 -1q10 0 9 -9l-80 -514q-13 -77 -56 -121.5t-105 -44.5q-58 0 -99 33q-8 5 -1 14l36 51q8 9 16 3q29 -20 55 -20q57 0 74 93l79 506q1 10 12 10zM153 452h61q8 0 7 -10l-67 -432q-1 -10 -12 -10h-62q-8 0 -7 10l68 432q1 10 12 10zM126 560l162 133q6 6 13 -1
l33 -52q6 -6 -3 -13l-177 -110q-10 -6 -14 1l-19 28q-3 8 5 14zM533 690l34 -52q4 -7 -3 -13l-178 -111q-9 -5 -13 2l-18 28q-5 8 3 14l162 132q9 7 13 0z" />
    <glyph glyph-name="IJacute" unicode="&#xe133;" horiz-adv-x="626" 
d="M276 684l-107 -675q0 -9 -10 -9h-68q-8 0 -8 9l107 675q1 10 11 10h68q8 0 7 -10zM493 175l80 509q1 10 11 10h67q9 0 8 -10l-81 -520q-13 -83 -61.5 -128t-124.5 -46q-80 2 -134 56q-6 6 1 15l40 54q7 10 17 3q52 -42 88 -42q40 0 59.5 22.5t29.5 76.5zM728 869l25 -57
q5 -9 -7 -14l-198 -99q-11 -5 -14 3l-14 32q-3 7 4 14l190 124q8 5 14 -3zM355 869l25 -57q4 -10 -6 -13l-199 -100q-11 -5 -14 3l-14 32q-3 8 5 14l189 124q9 5 14 -3z" />
    <glyph glyph-name="_1" horiz-adv-x="0" 
 />
    <glyph glyph-name="CR" horiz-adv-x="333" 
 />
    <glyph glyph-name="grave.case" horiz-adv-x="300" 
d="M156 814l44 58q7 9 13 2l151 -124q6 -6 1 -14l-25 -32q-6 -8 -14 -3l-168 100q-8 5 -2 13z" />
    <glyph glyph-name="dieresis.case" horiz-adv-x="339" 
d="M153 785q5 27 23.5 43t44.5 16t39 -16t9 -43q-4 -25 -22.5 -41.5t-44.5 -16.5t-39.5 16t-9.5 42zM317 785q5 27 23.5 43t44.5 16t39.5 -16.5t8.5 -42.5q-4 -25 -22.5 -41.5t-44.5 -16.5t-39.5 16t-9.5 42z" />
    <glyph glyph-name="macron.case" horiz-adv-x="307" 
d="M164 810h234q10 0 9 -9l-9 -53q0 -9 -11 -9h-234q-8 0 -8 9l9 53q2 9 10 9z" />
    <glyph glyph-name="acute.case" horiz-adv-x="300" 
d="M350 872l26 -57q5 -9 -6 -14l-199 -100q-9 -6 -13 4l-14 31q-5 10 4 14l189 124q10 6 13 -2z" />
    <glyph glyph-name="circumflex.case" horiz-adv-x="378" 
d="M379 738l-64 60l-82 -60q-8 -5 -15 -5h-81q-15 0 -2 10l142 104q8 5 15 5h64q8 0 13 -5l109 -103q11 -11 -6 -11h-81q-7 0 -12 5z" />
    <glyph glyph-name="caron.case" horiz-adv-x="378" 
d="M250 847l63 -61l83 61q8 5 15 5h79q19 0 2 -11l-140 -103q-8 -5 -15 -5h-64q-10 0 -13 5l-109 103q-11 11 6 11h80q8 0 13 -5z" />
    <glyph glyph-name="breve.case" horiz-adv-x="343" 
d="M398 852h45q9 0 7 -9q-11 -56 -56 -88.5t-109 -32.5q-63 0 -96.5 32.5t-27.5 88.5q0 9 10 9h45q8 0 9 -9q-2 -24 18 -40t53 -16t58 15.5t33 40.5q1 9 11 9z" />
    <glyph glyph-name="dotaccent.case" horiz-adv-x="231" 
d="M196 758q-13 15 -9 39t21 38q18 15 42 15t36 -15q12 -14 8 -38t-21 -39q-16 -15 -40 -15t-37 15z" />
    <glyph glyph-name="ring.case" horiz-adv-x="237" 
d="M155 806q6 41 35 66.5t70 25.5q42 0 63.5 -25.5t15.5 -66.5q-7 -42 -36.5 -67t-71.5 -25q-41 0 -62 25t-14 67zM202 806q-4 -20 6.5 -32.5t30.5 -12.5q21 0 35 12.5t18 32.5q3 20 -7.5 32.5t-31.5 12.5q-20 0 -34 -12.5t-17 -32.5z" />
    <glyph glyph-name="tilde.case" horiz-adv-x="364" 
d="M188 738q-5 -12 -14 -4l-22 22q-8 5 -3 14q21 42 50 66t57 24q23 0 39.5 -12t24 -26t19.5 -25t27 -10q32 0 59 52q6 11 15 5l23 -22q6 -5 2 -13q-21 -42 -50 -66t-57 -24q-22 0 -38.5 12t-24.5 26t-20.5 25t-26.5 10q-33 0 -60 -54z" />
    <glyph glyph-name="hungarumlaut.case" horiz-adv-x="347" 
d="M404 872l49 -39q7 -7 -1 -14l-112 -103q-7 -7 -15 -1l-27 22q-7 6 -1 14l93 118q7 7 14 3zM249 872l50 -39q7 -7 0 -13l-114 -104q-7 -7 -14 -1l-28 22q-6 6 0 14l93 118q5 10 13 3z" />
    <glyph glyph-name="zero.onum" horiz-adv-x="580" 
d="M120 55q-58 64 -41 171q16 106 95 171q80 65 190 65q111 0 168 -65q57 -64 40 -171q-16 -106 -95 -171q-76 -64 -188 -64q-111 0 -169 64zM302 74q71 0 121.5 42t61.5 110t-26.5 110t-108.5 42q-72 0 -122.5 -42t-61.5 -110t26.5 -110t109.5 -42z" />
    <glyph glyph-name="one.onum" horiz-adv-x="433" 
d="M103 363l152 89h77q9 0 8 -10l-58 -368h131q9 0 8 -10l-8 -54q-1 -10 -12 -10h-353q-9 0 -8 10l8 54q1 10 12 10h135l47 299l-143 -84q-7 -4 -10.5 -2t-1.5 9l9 56q0 8 7 11z" />
    <glyph glyph-name="two.onum" horiz-adv-x="481" 
d="M426 0h-382q-9 0 -10 4.5t7 10.5l285 206q64 42 68 88q2 32 -21 50t-69 18q-72 0 -137 -66q-9 -9 -13 -1l-36 49q-5 9 2 16q86 87 199 87q81 0 124 -41t37 -105q-9 -79 -94 -142q-1 0 -22 -15l-56 -41l-63 -44h193q11 0 9 -11l-8 -52q-2 -11 -13 -11z" />
    <glyph glyph-name="three.onum" horiz-adv-x="497" 
d="M250 170q-9 0 -8 10l10 66l125 121h-239q-9 0 -8 10l10 65q1 10 12 10h338q9 0 8 -10l-12 -76l-140 -134q65 -21 95.5 -70.5t19.5 -117.5q-13 -87 -80 -142q-65 -54 -157 -54q-89 0 -136.5 52.5t-37.5 139.5q0 11 12 11h67q10 0 8 -11q-4 -48 23 -77.5t77 -29.5
q54 0 91 30.5t45 80.5q8 55 -24.5 89.5t-98.5 36.5z" />
    <glyph glyph-name="four.onum" horiz-adv-x="572" 
d="M427 452h84q10 -1 8 -10l-58 -367h77q9 0 8 -10l-8 -54q-1 -10 -12 -10h-77l-21 -133q-1 -10 -11 -10h-67q-10 0 -9 10l21 133h-332q-14 0 -4 13l383 430q8 8 18 8zM374 75l43 275l-245 -275h202z" />
    <glyph glyph-name="five.onum" horiz-adv-x="503" 
d="M293 260q93 0 141 -58t34 -150q-14 -93 -81 -148q-67 -56 -161 -56q-88 0 -138 54q-48 52 -37 140q0 11 11 11h67q11 0 9 -11q-5 -49 22.5 -79t78.5 -30q55 0 94 33t47 87q9 57 -18.5 90.5t-81.5 33.5q-50 0 -107 -28h-68q-11 0 -9 11l61 282q3 10 14 10h301q10 0 9 -10
l-9 -60q-2 -11 -13 -11h-238l-29 -133q45 22 101 22z" />
    <glyph glyph-name="six.onum" horiz-adv-x="505" 
d="M354 604h66q15 0 5 -13l-144 -197q15 4 42 4q91 -2 137 -58q46 -57 33 -144q-13 -88 -81 -147q-65 -58 -159 -58q-95 0 -143.5 56t-34.5 149q11 64 49 115l212 284q8 9 18 9zM406 197q8 54 -20 87.5t-82 33.5t-94 -33.5t-49 -87.5q-8 -54 20.5 -87t83.5 -33q53 0 93 34.5
t48 85.5z" />
    <glyph glyph-name="seven.onum" horiz-adv-x="454" 
d="M378 371h-289q-9 0 -8 10l9 60q1 10 12 10h395q16 0 8 -14l-308 -569q-4 -10 -16 -10h-70q-13 0 -5 11z" />
    <glyph glyph-name="eight.onum" horiz-adv-x="515" 
d="M72 176q14 102 117 152q-46 39 -34 114t67 119q55 46 131 46q78 0 118 -46q41 -46 29 -119t-71 -114q84 -47 70 -152q-13 -82 -81 -135q-68 -51 -163 -51q-96 0 -147 51q-50 53 -36 135zM160 180q-8 -47 22.5 -75.5t87.5 -28.5q56 0 95 28.5t47 75.5q7 50 -22.5 81
t-85.5 31q-55 0 -96 -31.5t-48 -80.5zM238 441q-6 -37 15 -60t62 -23q39 0 67.5 23t34.5 60q6 38 -15 60.5t-61 22.5q-41 0 -69 -22.5t-34 -60.5z" />
    <glyph glyph-name="nine.onum" horiz-adv-x="505" 
d="M224 -150h-66q-13 0 -6 13l146 197q-28 -5 -43 -5q-90 2 -137 59q-46 57 -33 144t81 146t159 59q94 0 142 -57q49 -55 35 -148q-10 -64 -49 -115l-211 -284q-8 -9 -18 -9zM171 257q-8 -54 20 -88t82 -34q55 0 94.5 34t48.5 88q8 54 -20.5 87t-83.5 33q-53 0 -93 -34.5
t-48 -85.5z" />
    <glyph glyph-name="zero.numr" horiz-adv-x="381" 
d="M106 474q16 101 70 166q54 63 126 63t106 -63q34 -61 17 -166q-16 -103 -70 -167q-53 -63 -125 -63t-106 63.5t-18 166.5zM176 474q-11 -72 6.5 -116t58.5 -44q40 0 71.5 44t42.5 116q11 71 -6.5 115t-57.5 44t-72 -44t-43 -115z" />
    <glyph glyph-name="one.numr" horiz-adv-x="216" 
d="M123 264l57 360h-52q-10 0 -9 10l7 49q2 11 12 11h116q10 0 10 -10l-67 -420q-2 -11 -13 -11h-52q-11 0 -9 11z" />
    <glyph glyph-name="two.numr" horiz-adv-x="348" 
d="M335 254h-254q-21 0 -6 18l210 230q0 1 9.5 13t20.5 30t14 33q4 24 -10 40t-39 16q-45 0 -82 -37q-6 -7 -12 0l-26 39q-6 6 2 13q55 55 129 55q59 0 89 -33t20 -95q-12 -60 -48 -101l-5 -7l-136 -146h135q9 0 8 -10l-7 -47q-2 -11 -12 -11z" />
    <glyph glyph-name="three.numr" horiz-adv-x="345" 
d="M205 467l6 36q1 10 11 10h28q24 1 42.5 19t23.5 48q4 25 -8.5 40t-36.5 16q-41 0 -78 -36q-7 -7 -12 -1l-26 37q-5 6 2 13q55 54 128 54q55 0 84 -33.5t20 -85.5q-9 -59 -56 -97q50 -35 38 -108q-9 -59 -54.5 -97t-109.5 -38q-61 0 -94.5 34t-27.5 90q0 10 11 10h53
q6 0 8 -8q-3 -25 14 -40.5t47 -15.5q31 0 53.5 19t27.5 50q5 33 -8.5 53t-41.5 21h-36q-9 0 -8 10z" />
    <glyph glyph-name="four.numr" horiz-adv-x="385" 
d="M173 405h119l32 202zM424 395l-7 -40q-1 -10 -11 -10h-49l-13 -81q0 -11 -12 -11h-54q-10 0 -8 11l13 81h-203q-20 0 -8 17l239 322q7 9 17 9h74q9 0 8 -10l-44 -278h49q10 0 9 -10z" />
    <glyph glyph-name="five.numr" horiz-adv-x="364" 
d="M162 369q1 -24 20 -39.5t49 -15.5q35 0 60 21.5t30 56.5q6 35 -13.5 55.5t-56.5 20.5q-35 0 -66 -16h-63q-6 0 -5 6l52 229q0 7 8 7h218q5 0 5 -7l-9 -56q-1 -6 -7 -6h-160l-25 -108q30 15 63 15q67 0 102 -38.5t26 -102.5q-10 -66 -57 -106.5t-114 -40.5q-64 0 -99 35
t-28 92q0 7 7 7h57q6 0 6 -9z" />
    <glyph glyph-name="six.numr" horiz-adv-x="361" 
d="M280 694l62 -1q9 0 4 -8l-100 -158l24 2q62 -2 94 -40.5t22 -101.5q-10 -65 -55.5 -104t-110.5 -39t-99 39t-24 104q7 42 30 74l143 227q2 6 10 6zM231 313q33 0 56.5 20.5t28.5 52.5q5 33 -12 53.5t-50 20.5q-34 0 -58 -20.5t-29 -53.5t12.5 -53t51.5 -20z" />
    <glyph glyph-name="seven.numr" horiz-adv-x="312" 
d="M304 624h-186q-6 0 -5 7l9 56q0 7 7 7h274q11 0 5 -11l-227 -424q-3 -5 -8 -5h-63q-5 0 -4 7z" />
    <glyph glyph-name="eight.numr" horiz-adv-x="378" 
d="M344 572q5 29 -9.5 46t-44.5 17q-29 0 -49.5 -17.5t-24.5 -45.5t10.5 -45t43.5 -17t49 17t25 45zM168 383q-5 -31 15 -50t57 -19t62 19t30 50q5 32 -14.5 52t-55.5 20t-62.5 -21t-31.5 -51zM97 381q11 69 77 104q-37 31 -28 90q9 58 51.5 93t102.5 35q61 0 92 -35t22 -93
t-56 -90q54 -36 43 -104q-10 -62 -57.5 -99.5t-115.5 -37.5t-104.5 37.5t-26.5 99.5z" />
    <glyph glyph-name="nine.numr" horiz-adv-x="361" 
d="M241 418q-62 2 -94 40.5t-22 101.5q10 65 56 104.5t111 39.5t98.5 -39.5t23.5 -104.5q-6 -34 -30 -74l-143 -226q-3 -6 -10 -6h-62q-9 0 -4 9l100 157q-4 0 -10 -0.5t-9 -1t-5 -0.5zM257 488q34 0 58 20.5t29 52.5q5 33 -12 53.5t-51 20.5q-33 0 -57 -20.5t-29 -53.5
t12 -53t50 -20z" />
    <glyph glyph-name="zero.dnom" horiz-adv-x="381" 
d="M66 220q16 101 70 166q54 63 126 63t106 -63q34 -61 17 -166q-16 -103 -71 -167q-52 -63 -125 -63q-72 0 -106 63t-17 167zM136 220q-11 -72 6.5 -116t58.5 -44q40 0 71.5 44t42.5 116q11 71 -6.5 115t-57.5 44t-72 -44t-43 -115z" />
    <glyph glyph-name="one.dnom" horiz-adv-x="216" 
d="M98 440l116 1q9 0 9 -11l-66 -419q-2 -11 -13 -11h-53q-11 0 -8 11l56 360h-51q-5 -1 -8 2t-2 8l8 49q1 10 12 10z" />
    <glyph glyph-name="two.dnom" horiz-adv-x="348" 
d="M99 0h-58q-21 0 -6 18l209 230l5 6q35 35 39 70q4 24 -9.5 40t-38.5 16q-45 0 -83 -37q-5 -7 -12 0l-25 39q-6 6 2 13q52 55 128 55q59 0 89.5 -33t20.5 -95q-12 -60 -48 -101l-5 -7l-135 -146h134q9 0 8 -10l-7 -47q-2 -11 -12 -11h-185h-11z" />
    <glyph glyph-name="three.dnom" horiz-adv-x="345" 
d="M164 213l5 36q1 10 12 10h29q24 1 42 19t23 48q4 24 -8.5 39.5t-35.5 16.5q-43 0 -79 -36q-7 -6 -12 -1l-26 38q-4 6 2 12q54 54 128 54q55 0 84 -33t20 -86q-9 -60 -56 -97q50 -35 38 -108q-10 -59 -55.5 -97t-108.5 -38q-61 0 -94 34t-28 90q1 10 12 10h52q7 0 7 -8
q-2 -26 15 -41t47 -15q32 0 54 19t26 50q5 33 -8 53t-41 21h-36q-9 0 -8 10z" />
    <glyph glyph-name="four.dnom" horiz-adv-x="385" 
d="M133 152h119l32 202zM383 142l-6 -40q-1 -10 -11 -10h-49l-13 -81q0 -11 -12 -11h-54q-10 0 -8 11l13 81h-203q-20 0 -8 17l239 322q7 9 17 9h74q9 0 8 -10l-44 -278h49q9 0 8 -10z" />
    <glyph glyph-name="five.dnom" horiz-adv-x="364" 
d="M120 115q0 -24 18.5 -39.5t50.5 -15.5q35 0 59.5 21.5t30.5 56.5t-13.5 55.5t-56.5 20.5q-36 0 -67 -16h-63q-5 0 -5 6l53 229q0 7 8 7h218q5 0 5 -7l-9 -56q-1 -6 -7 -6h-160l-25 -108q30 15 63 15q67 0 102 -38.5t26 -102.5q-10 -66 -57.5 -106.5t-114.5 -40.5
q-64 0 -99 35t-27 92q0 7 7 7h57q6 0 6 -9z" />
    <glyph glyph-name="six.dnom" horiz-adv-x="361" 
d="M240 440l62 -1q9 0 4 -8l-100 -158q22 2 24 2q62 -2 94 -40.5t22 -101.5q-11 -65 -56.5 -104t-110.5 -39t-98.5 39.5t-23.5 103.5q6 37 30 74l143 227q2 6 10 6zM190 59q33 0 57 20.5t29 52.5q5 33 -12 53.5t-50 20.5q-34 0 -58 -20.5t-29 -53.5t12 -53t51 -20z" />
    <glyph glyph-name="seven.dnom" horiz-adv-x="312" 
d="M264 370h-186q-6 0 -5 7l9 56q0 7 7 7h274q12 0 5 -10l-227 -425q-5 -5 -8 -5h-63q-8 0 -4 7z" />
    <glyph glyph-name="eight.dnom" horiz-adv-x="378" 
d="M303 318q5 29 -9.5 46t-44.5 17q-29 0 -49.5 -17.5t-24.5 -45.5t11 -45t44 -17t48.5 17t24.5 45zM127 129q-5 -31 15 -50t57 -19t62 19t30 50q5 32 -14 52t-55 20t-63 -21t-32 -51zM57 127q11 69 77 104q-38 32 -28 90q9 58 51.5 93t102.5 35q61 0 92 -35t22 -93
q-11 -61 -56 -90q54 -36 43 -104q-10 -62 -57.5 -99.5t-116.5 -37.5q-68 0 -104 37.5t-26 99.5z" />
    <glyph glyph-name="nine.dnom" horiz-adv-x="361" 
d="M201 164q-63 2 -94.5 40.5t-21.5 101.5q10 65 55.5 104.5t110.5 39.5t99 -39.5t24 -104.5q-6 -34 -30 -74l-143 -226q-3 -6 -10 -6h-62q-9 0 -4 9l99 157q-22 -2 -23 -2zM217 234q34 0 58 20.5t29 52.5q5 33 -12 53.5t-51 20.5q-33 0 -57 -20.5t-29 -53.5t12 -53t50 -20z
" />
    <glyph glyph-name="zero.tnum" 
d="M110 347q26 161 108 258q83 98 194 98q109 0 162 -98q52 -97 27 -258q-26 -161 -109 -258q-83 -98 -193 -98q-111 0 -163 97q-52 96 -26 259zM197 347q-20 -122 12 -197q32 -74 104 -74q70 0 126 74q55 75 75 197q19 119 -13 196q-31 75 -103 75t-127 -75
q-54 -72 -74 -196z" />
    <glyph glyph-name="one.tnum" 
d="M241 624l9 59q2 11 13 11h182q10 0 8 -11l-96 -610h145q9 0 8 -10l-8 -53q-1 -10 -12 -10h-380q-9 0 -8 10l8 53q1 10 12 10h149l85 541h-106q-10 0 -9 10z" />
    <glyph glyph-name="two.tnum" 
d="M540 390l-15 -18l-47 -50l-115 -123q-27 -29 -67 -71t-45 -48h272q10 0 8 -11l-9 -59q-1 -10 -12 -10h-331h-22h-68q-7 0 -8 4t4 9l375 405q42 48 50 94q8 48 -16.5 78.5t-73.5 30.5q-76 0 -140 -69q-8 -8 -15 0l-35 45q-5 8 4 17q87 89 202 89q84 0 128 -51t31 -138
q-6 -33 -22.5 -69t-32.5 -55z" />
    <glyph glyph-name="three.tnum" 
d="M319 396h49q47 0 83 33.5t44 82.5q7 49 -18 78t-73 29q-75 0 -140 -68q-8 -7 -14 -1l-36 49q-5 8 2 15q89 89 202 89q85 0 130 -52q45 -51 32 -135q-15 -100 -97 -152q87 -48 69 -166q-15 -92 -87 -154q-71 -60 -168 -60q-95 0 -148 54q-51 56 -41 144q1 10 12 10h66
q10 0 9 -10q-5 -50 27.5 -81.5t88.5 -31.5q59 0 102 37q44 38 52 94q9 54 -17 90t-77 38h-62q-10 0 -9 10l8 48q1 10 11 10z" />
    <glyph glyph-name="four.tnum" 
d="M504 226h80q10 0 9 -10l-9 -57q-1 -10 -12 -10h-80l-22 -139q-1 -10 -12 -10h-66q-9 0 -8 10l22 139h-254h-13h-62q-15 0 -5 13l400 523q8 9 16 9l81 -1q8 0 8 -10zM418 226l54 342l-261 -342h207z" />
    <glyph glyph-name="five.tnum" 
d="M559 614h-246l-49 -211q47 25 101 25q99 0 151 -61t37 -158q-17 -99 -87 -162t-169 -63q-96 0 -147.5 53.5t-40.5 142.5q1 10 12 10h66q9 0 9 -10q-5 -50 26.5 -81t87.5 -31q59 0 102 40q44 41 54 101q9 61 -23 100t-94 39q-68 0 -106 -37h-73q-11 0 -8 10l84 362
q2 11 13 11h313q10 0 8 -11l-10 -59q-1 -10 -11 -10z" />
    <glyph glyph-name="six.tnum" 
d="M550 206q-17 -99 -85 -158t-166 -59t-149 60q-50 61 -34 157q8 52 31 91l239 387q7 10 17 10h68q15 0 7 -14l-168 -268q37 8 60 8q96 -1 145.5 -59t34.5 -155zM466 206q10 61 -21 98t-91 37q-59 0 -102 -37.5t-52 -97.5q-10 -61 20.5 -97.5t90.5 -36.5q59 0 102 37.5
t53 96.5z" />
    <glyph glyph-name="seven.tnum" 
d="M203 694h410q15 0 8 -15l-359 -669q-7 -10 -16 -10h-75q-11 0 -4 10l327 604h-303q-10 0 -9 10l10 59q0 11 11 11z" />
    <glyph glyph-name="eight.tnum" 
d="M573 513q-15 -96 -94 -142q45 -24 66 -68.5t12 -101.5q-15 -95 -87 -153q-70 -58 -172 -58t-154 58t-37 153q9 57 44 101.5t88 68.5q-64 45 -49 142q13 85 74 138q61 52 147 52t130.5 -52.5t31.5 -137.5zM471 204q10 59 -22.5 95.5t-94.5 36.5q-60 0 -107 -38
q-45 -38 -54 -94q-9 -57 24 -93t96 -36q61 0 105 36t53 93zM273 514q-7 -49 18.5 -79.5t73.5 -30.5t82.5 30.5t41.5 79.5q8 50 -16 79.5t-73 29.5t-84 -30t-43 -79z" />
    <glyph glyph-name="nine.tnum" 
d="M548 372l-225 -363q-5 -9 -16 -9h-68q-13 0 -7 14l167 267q-29 -8 -58 -8q-97 0 -146.5 58.5t-34.5 155.5q17 99 84 157q70 59 166 59q98 0 149 -60q51 -59 35 -156q-8 -52 -46 -115zM356 352q59 0 102 37.5t52 97.5q10 60 -21 97t-91 37q-59 0 -101.5 -37t-52.5 -97
q-10 -61 21 -98t91 -37z" />
    <glyph glyph-name="zero.pnum" horiz-adv-x="597" 
d="M108 347q26 161 108 258q83 98 194 98q109 0 162 -98q52 -97 27 -258q-25 -160 -109 -259q-82 -97 -192 -97t-163 98q-53 97 -27 258zM311 76q70 0 126 74q55 75 75 197q19 119 -13 196q-31 75 -102 75t-127 -75q-55 -73 -75 -196q-20 -122 12 -197q32 -74 104 -74z" />
    <glyph glyph-name="one.pnum" horiz-adv-x="320" 
d="M165 624l9 59q5 11 13 11h166q10 0 8 -11l-106 -673q-1 -10 -12 -10h-66q-9 0 -8 10l95 604h-90q-10 0 -9 10z" />
    <glyph glyph-name="two.pnum" horiz-adv-x="550" 
d="M512 390l-14 -18q-22 -22 -274 -292h272q10 0 8 -11l-9 -59q-1 -10 -12 -10h-331h-22h-68q-7 0 -8 4t4 9l374 405q44 50 51 94q8 48 -17 78.5t-74 30.5q-72 0 -140 -69q-8 -8 -15 0l-34 45q-6 8 3 17q89 89 202 89q85 0 129 -51.5t30 -137.5q-13 -75 -55 -124z" />
    <glyph glyph-name="three.pnum" horiz-adv-x="545" 
d="M291 396h49q47 0 82.5 33.5t43.5 82.5q7 49 -18 78t-73 29q-74 0 -140 -68q-7 -7 -14 -1l-35 49q-5 8 1 15q89 89 202 89q85 0 130 -52q47 -51 33 -135q-16 -99 -97 -152q88 -49 68 -166q-13 -92 -86 -154q-71 -60 -169 -60q-96 0 -147.5 54.5t-40.5 143.5q1 10 11 10h66
q10 0 10 -10q-5 -50 27 -81.5t88 -31.5q59 0 102 37q44 38 53 94q8 54 -18 90t-77 38h-62q-9 0 -8 10l7 48q1 10 12 10z" />
    <glyph glyph-name="four.pnum" horiz-adv-x="612" 
d="M503 226h80q9 0 8 -10l-9 -57q-1 -10 -11 -10h-80l-22 -139q-1 -10 -12 -10h-66q-9 0 -8 10l22 139h-254h-13h-62q-15 0 -5 13l399 523q8 9 17 9l81 -1q8 0 7 -10zM417 226l54 342l-261 -342h207z" />
    <glyph glyph-name="five.pnum" horiz-adv-x="545" 
d="M531 614h-246l-48 -211q47 25 101 25q99 0 150 -61q52 -61 37 -158t-86 -162q-71 -63 -170 -63q-96 0 -147 53.5t-40 142.5q0 10 11 10h66q9 0 10 -10q-5 -50 26.5 -81t87.5 -31q59 0 102 40t53 101t-22.5 100t-94.5 39q-68 0 -106 -37h-73q-10 0 -7 10l83 362
q2 11 13 11h313q10 0 8 -11l-9 -59q-1 -10 -12 -10z" />
    <glyph glyph-name="six.pnum" horiz-adv-x="540" 
d="M520 206q-17 -99 -85 -158t-166 -59t-149 60q-50 61 -34 157q8 52 31 91l239 387q7 10 17 10h68q15 0 7 -14l-168 -268q37 8 60 8q96 -1 145.5 -59t34.5 -155zM436 206q9 61 -21.5 98t-90.5 37q-59 0 -102 -37.5t-52 -97.5q-10 -61 20.5 -97.5t90.5 -36.5q59 0 102 37.5
t53 96.5z" />
    <glyph glyph-name="seven.pnum" horiz-adv-x="485" 
d="M150 694h410q16 0 8 -15l-359 -669q-7 -10 -16 -10h-75q-11 0 -4 10l326 604h-303q-9 0 -8 10l9 59q2 11 12 11z" />
    <glyph glyph-name="eight.pnum" horiz-adv-x="556" 
d="M551 513q-15 -96 -94 -142q45 -24 66 -68.5t12 -101.5q-15 -95 -87 -153q-70 -58 -172 -58t-154 58t-37 153q9 57 44 101.5t88 68.5q-64 45 -49 142q13 85 74 138q61 52 147 52t130.5 -52.5t31.5 -137.5zM449 204q10 59 -22.5 95.5t-94.5 36.5q-60 0 -107 -38
q-45 -38 -54 -94q-9 -57 24 -93t96 -36q61 0 105 36t53 93zM251 514q-7 -49 18.5 -79.5t73.5 -30.5t82.5 30.5t41.5 79.5q8 50 -16 79.5t-73 29.5t-84 -30t-43 -79z" />
    <glyph glyph-name="nine.pnum" horiz-adv-x="540" 
d="M518 372l-225 -363q-5 -9 -16 -9h-68q-13 0 -7 14l167 267q-29 -8 -58 -8q-97 0 -146.5 58.5t-34.5 155.5q17 99 84 157q70 59 166 59q98 0 149 -60q51 -59 35 -156q-8 -52 -46 -115zM326 352q59 0 101.5 37.5t52.5 97.5t-21 97t-91 37q-59 0 -101.5 -37t-52.5 -97
q-10 -61 21 -98t91 -37z" />
    <glyph glyph-name="zero.onum.pnum" horiz-adv-x="570" 
d="M120 55q-58 64 -41 171q16 106 95 171q80 65 190 65q111 0 168 -65q57 -64 40 -171q-16 -106 -95 -171q-76 -64 -188 -64q-111 0 -169 64zM302 74q71 0 121.5 42t61.5 110t-26.5 110t-108.5 42q-72 0 -122.5 -42t-61.5 -110t26.5 -110t109.5 -42z" />
    <glyph glyph-name="one.onum.pnum" horiz-adv-x="433" 
d="M103 363l152 89h77q9 0 8 -10l-58 -368h131q9 0 8 -10l-8 -54q-1 -10 -12 -10h-353q-9 0 -8 10l8 54q1 10 12 10h135l47 299l-143 -84q-7 -4 -10.5 -2t-1.5 9l9 56q0 8 7 11z" />
    <glyph glyph-name="two.onum.pnum" horiz-adv-x="481" 
d="M426 0h-382q-9 0 -10 4.5t7 10.5l285 206q64 42 68 88q2 32 -21 50t-69 18q-72 0 -137 -66q-9 -9 -13 -1l-36 49q-5 9 2 16q86 87 199 87q81 0 124 -41t37 -105q-9 -79 -94 -142q-1 0 -22 -15l-56 -41l-63 -44h193q11 0 9 -11l-8 -52q-2 -11 -13 -11z" />
    <glyph glyph-name="three.onum.pnum" horiz-adv-x="497" 
d="M250 170q-9 0 -8 10l10 66l125 121h-239q-9 0 -8 10l10 65q1 10 12 10h338q9 0 8 -10l-12 -76l-140 -134q65 -21 95.5 -70.5t19.5 -117.5q-13 -87 -80 -142q-65 -54 -157 -54q-89 0 -136.5 52.5t-37.5 139.5q0 11 12 11h67q10 0 8 -11q-4 -48 23 -77.5t77 -29.5
q54 0 91 30.5t45 80.5q8 55 -24.5 89.5t-98.5 36.5z" />
    <glyph glyph-name="four.onum.pnum" horiz-adv-x="572" 
d="M427 452h84q10 -1 8 -10l-58 -367h77q9 0 8 -10l-8 -54q-1 -10 -12 -10h-77l-21 -133q-1 -10 -11 -10h-67q-10 0 -9 10l21 133h-332q-14 0 -4 13l383 430q8 8 18 8zM374 75l43 275l-245 -275h202z" />
    <glyph glyph-name="five.onum.pnum" horiz-adv-x="503" 
d="M293 260q93 0 141 -58t34 -150q-14 -93 -81 -148q-67 -56 -161 -56q-88 0 -138 54q-48 52 -37 140q0 11 11 11h67q11 0 9 -11q-5 -49 22.5 -79t78.5 -30q55 0 94 33t47 87q9 57 -18.5 90.5t-81.5 33.5q-50 0 -107 -28h-68q-11 0 -9 11l61 282q3 10 14 10h301q10 0 9 -10
l-9 -60q-2 -11 -13 -11h-238l-29 -133q45 22 101 22z" />
    <glyph glyph-name="six.onum.pnum" horiz-adv-x="505" 
d="M354 604h66q15 0 5 -13l-144 -197q15 4 42 4q91 -2 137 -58q46 -57 33 -144q-13 -88 -81 -147q-65 -58 -159 -58q-95 0 -143.5 56t-34.5 149q11 64 49 115l212 284q8 9 18 9zM406 197q8 54 -20 87.5t-82 33.5t-94 -33.5t-49 -87.5q-8 -54 20.5 -87t83.5 -33q53 0 93 34.5
t48 85.5z" />
    <glyph glyph-name="seven.onum.pnum" horiz-adv-x="454" 
d="M378 371h-289q-9 0 -8 10l9 60q1 10 12 10h395q16 0 8 -14l-308 -569q-4 -10 -16 -10h-70q-13 0 -5 11z" />
    <glyph glyph-name="eight.onum.pnum" horiz-adv-x="515" 
d="M72 176q14 102 117 152q-46 39 -34 114t67 119q55 46 131 46q78 0 118 -46q41 -46 29 -119t-71 -114q84 -47 70 -152q-13 -82 -81 -135q-68 -51 -163 -51q-96 0 -147 51q-50 53 -36 135zM160 180q-8 -47 22.5 -75.5t87.5 -28.5q56 0 95 28.5t47 75.5q7 50 -22.5 81
t-85.5 31q-55 0 -96 -31.5t-48 -80.5zM238 441q-6 -37 15 -60t62 -23q39 0 67.5 23t34.5 60q6 38 -15 60.5t-61 22.5q-41 0 -69 -22.5t-34 -60.5z" />
    <glyph glyph-name="nine.onum.pnum" horiz-adv-x="505" 
d="M224 -150h-66q-13 0 -6 13l146 197q-28 -5 -43 -5q-90 2 -137 59q-46 57 -33 144t81 146t159 59q94 0 142 -57q49 -55 35 -148q-10 -64 -49 -115l-211 -284q-8 -9 -18 -9zM171 257q-8 -54 20 -88t82 -34q55 0 94.5 34t48.5 88q8 54 -20.5 87t-83.5 33q-53 0 -93 -34.5
t-48 -85.5z" />
    <glyph glyph-name="zero.onum.tnum" 
d="M90 226q17 107 94 171q80 65 190 65q111 0 168 -65q57 -64 40 -171q-16 -106 -95 -171q-76 -64 -188 -64q-111 0 -169 64q-57 64 -40 171zM496 226q10 68 -27 110t-108 42q-72 0 -123 -42t-62 -110t27 -110q37 -42 109 -42q71 0 122 42t62 110z" />
    <glyph glyph-name="one.onum.tnum" 
d="M179 363l151 89h77q9 0 8 -10l-58 -368h131q9 0 8 -10l-8 -54q-1 -10 -12 -10h-353q-9 0 -8 10l8 54q1 10 12 10h135l47 299l-143 -84q-7 -4 -10 -2t-2 9l9 56q2 8 8 11z" />
    <glyph glyph-name="two.onum.tnum" 
d="M492 0h-382q-9 0 -9.5 4.5t7.5 10.5l284 206q65 42 68 88q3 31 -20.5 49.5t-69.5 18.5q-73 0 -136 -66q-8 -9 -13 -1l-37 49q-5 8 3 16q85 87 199 87q81 0 124 -40.5t37 -105.5q-9 -79 -95 -142l-141 -100h193q12 0 9 -11l-8 -52q-2 -11 -13 -11z" />
    <glyph glyph-name="three.onum.tnum" 
d="M301 170q-9 0 -8 10l10 66l126 121h-239q-10 0 -9 10l10 65q1 10 12 10h338q9 0 8 -10l-12 -76l-140 -134q66 -21 96 -70t19 -118q-13 -88 -79 -142q-65 -54 -158 -54q-89 0 -136 52.5t-37 139.5q0 11 11 11h67q11 0 9 -11q-4 -48 23 -77.5t77 -29.5q54 0 90.5 30
t44.5 81q9 56 -23.5 90t-99.5 36z" />
    <glyph glyph-name="four.onum.tnum" 
d="M449 452h84q11 -2 9 -10l-58 -367h77q9 0 8 -10l-8 -54q-1 -10 -12 -10h-77l-21 -133q-1 -10 -12 -10h-67q-9 0 -8 10l21 133h-332q-14 0 -4 13l383 430q8 8 17 8zM397 75l43 275l-245 -275h202z" />
    <glyph glyph-name="five.onum.tnum" 
d="M341 260q93 0 141 -59q49 -58 34 -149q-14 -93 -81 -148q-67 -56 -161 -56q-89 0 -137 53.5t-38 140.5q0 11 12 11h67q10 0 8 -11q-5 -49 23 -79t79 -30q55 0 93.5 33t47.5 87q9 56 -19 90t-82 34q-50 0 -107 -28h-68q-10 0 -8 11l60 282q3 10 14 10h301q10 0 9 -10
l-9 -60q-2 -11 -13 -11h-238l-29 -133q45 22 101 22z" />
    <glyph glyph-name="six.onum.tnum" 
d="M401 604h66q15 0 5 -13l-145 -197q17 4 43 4q91 -2 137 -58q47 -57 33 -144q-14 -88 -81 -147q-65 -58 -159 -58t-144 56q-49 55 -34 149q11 64 49 115l212 284q7 9 18 9zM453 197q8 54 -20.5 87.5t-82.5 33.5t-93.5 -33.5t-48.5 -87.5q-8 -54 20.5 -87t83.5 -33
q53 0 93 34.5t48 85.5z" />
    <glyph glyph-name="seven.onum.tnum" 
d="M449 371h-289q-10 0 -9 10l10 60q1 10 11 10h395q16 0 8 -14l-307 -569q-7 -10 -17 -10h-70q-13 0 -5 11z" />
    <glyph glyph-name="eight.onum.tnum" 
d="M115 176q14 102 117 152q-46 39 -34 114q11 74 66 119q55 46 132 46t117.5 -45.5t29.5 -119.5q-12 -73 -71 -114q84 -47 70 -152q-14 -82 -81 -135q-68 -51 -163 -51q-96 0 -147 51q-49 53 -36 135zM202 180q-7 -46 23.5 -75t87.5 -29q56 0 94.5 28.5t46.5 75.5
q8 50 -21.5 81t-85.5 31q-55 0 -96 -31.5t-49 -80.5zM357 358q39 0 68 23t35 60q6 38 -15 60.5t-61 22.5q-41 0 -69 -22.5t-34 -60.5t15 -60.5t61 -22.5z" />
    <glyph glyph-name="nine.onum.tnum" 
d="M272 -150h-66q-13 0 -6 13l145 197q-25 -5 -43 -5q-90 2 -137 59q-47 58 -33 144q13 87 81 146t160 59q94 0 142 -57q49 -55 34 -148q-11 -66 -49 -115l-211 -284q-7 -9 -17 -9zM218 257q-8 -52 20.5 -87t82.5 -35q55 0 94.5 34t47.5 88q9 54 -19.5 87t-84.5 33
q-53 0 -93 -34.5t-48 -85.5z" />
    </font>
</defs>
</svg>
