<?xml version="1.0" standalone="no"?>
<!DOCTYPE svg PUBLIC "-//W3C//DTD SVG 1.1//EN" "http://www.w3.org/Graphics/SVG/1.1/DTD/svg11.dtd" >
<svg xmlns="http://www.w3.org/2000/svg" xmlns:xlink="http://www.w3.org/1999/xlink" version="1.1">
<metadata>
Created by FontForge 20201107 at Mon Feb 25 03:00:00 2019
 By 
Copyright (c) 2019 by Eko Bimantara. All rights reserved.
</metadata>
<defs>
<font id="Ageo-LightItalic" horiz-adv-x="545" >
  <font-face 
    font-family="Ageo Light"
    font-weight="300"
    font-style="italic"
    font-stretch="normal"
    units-per-em="1000"
    panose-1="2 0 0 0 0 0 0 0 0 0"
    ascent="755"
    descent="-245"
    x-height="443"
    cap-height="694"
    bbox="-117.083 -250 1095.6 914.125"
    underline-thickness="50"
    underline-position="-225"
    unicode-range="U+000D-FB04"
  />
<missing-glyph horiz-adv-x="0" 
 />
    <glyph glyph-name="f_f" unicode="ff" horiz-adv-x="596" 
d="M647 434l-3 -20q-2 -9 -11 -9h-125l-63 -396q-1 -9 -10 -9h-24q-9 0 -7 9l62 396h-257l-63 -396q-2 -9 -10 -9h-24q-8 0 -7 9l62 396h-88q-9 0 -7 9l3 20q1 9 10 9h88l20 127q12 78 49 120.5t94 42.5q50 0 93 -36q5 -5 0 -12l-17 -22q-6 -7 -12 -1q-33 30 -69 30
q-39 0 -62.5 -30t-35.5 -97l-18 -122h257l20 127q12 78 49 120.5t94 42.5q49 0 93 -36q4 -5 0 -12l-17 -22q-6 -7 -12 -1q-33 30 -69 30q-39 0 -62.5 -30t-35.5 -97l-18 -122h125q9 0 8 -9z" />
    <glyph glyph-name="fi" unicode="fi" horiz-adv-x="515" 
d="M522 616l-26 -19q-6 -5 -8 3q-29 92 -116 92q-59 0 -93 -30t-46 -97l-18 -122h273q10 0 8 -8l-68 -426q-2 -9 -9 -9h-25q-8 0 -7 9l63 396h-241l-63 -396q-2 -9 -10 -9h-24q-8 0 -7 9l62 396h-88q-9 0 -7 9l3 20q1 9 10 9h88l20 127q27 163 185 163q81 0 116 -49
q25 -32 31 -58q1 -7 -3 -10z" />
    <glyph glyph-name="fl" unicode="fl" horiz-adv-x="515" 
d="M104 8l62 397h-88q-7 0 -7 8l4 21q1 9 9 9h88l20 127q12 75 62 119t123 43q68 0 153 -32q6 -2 6 -13l-108 -678q-1 -10 -9 -10h-24q-9 0 -8 10l103 655q-58 27 -118 27q-118 0 -139 -127l-19 -121h127q9 0 7 -8l-4 -22q-2 -8 -9 -8h-127l-63 -397q-2 -8 -9 -8h-24
q-10 0 -8 8z" />
    <glyph glyph-name="f_f_i" unicode="ffi" horiz-adv-x="813" 
d="M336 733q50 0 93 -36q5 -5 0 -12l-17 -22q-6 -6 -12 -1q-33 30 -69 30q-39 0 -62.5 -30t-35.5 -97l-18 -122h256l20 127q25 163 185 163q81 0 116 -49q25 -32 31 -58q1 -7 -3 -10l-26 -19q-6 -5 -8 3q-29 92 -116 92q-59 0 -93 -30t-46 -97l-18 -122h273q10 0 8 -9
l-68 -425q-2 -9 -9 -9h-25q-8 0 -7 9l63 396h-241l-63 -396q-2 -9 -10 -9h-24q-8 0 -7 9l62 396h-256l-63 -396q-2 -9 -10 -9h-24q-8 0 -7 9l62 396h-88q-9 0 -7 9l3 20q1 9 10 9h88l20 127q13 79 49.5 121t93.5 42z" />
    <glyph glyph-name="f_f_l" unicode="ffl" horiz-adv-x="813" 
d="M400 662q-33 30 -69 30q-39 0 -62.5 -30t-35.5 -97l-18 -122h255l20 127q12 75 62 119t123 43q48 0 81 -10q30 -7 72 -22q7 -1 6 -13l-108 -678q-1 -10 -9 -10h-24q-9 0 -8 10l103 655q-59 27 -118 27q-118 0 -139 -127l-19 -121h126q10 0 8 -8l-4 -22q-2 -8 -10 -7h-126
l-62 -398q-2 -8 -10 -8h-24q-10 0 -8 8l62 398l-255 -1l-63 -396q-2 -9 -10 -9h-24q-8 0 -7 9l62 396h-88q-9 0 -7 9l3 20q1 9 10 9h88l20 127q13 79 49.5 121t93.5 42q50 0 93 -36q5 -5 0 -12l-17 -22q-6 -6 -12 -1z" />
    <glyph glyph-name=".notdef" horiz-adv-x="0" 
 />
    <glyph glyph-name=".null" horiz-adv-x="0" 
 />
    <glyph glyph-name="nonmarkingreturn" horiz-adv-x="333" 
 />
    <glyph glyph-name="NULL" horiz-adv-x="0" 
 />
    <glyph glyph-name="NULL" horiz-adv-x="0" 
 />
    <glyph glyph-name="CR.001" unicode="&#xd;" horiz-adv-x="0" 
 />
    <glyph glyph-name="space" unicode=" " horiz-adv-x="250" 
 />
    <glyph glyph-name="exclam" unicode="!" horiz-adv-x="252" 
d="M170 188h-27q-9 0 -8 9l75 488q2 9 11 9h31q8 -2 6 -9l-79 -488q-1 -9 -9 -9zM172 32q-3 -19 -16 -30.5t-32 -11.5q-18 0 -27.5 11.5t-6.5 30.5q3 18 16 29t31 11q19 0 28.5 -11t6.5 -29z" />
    <glyph glyph-name="quotedbl" unicode="&#x22;" horiz-adv-x="381" 
d="M287 448l-8 12q-4 7 4 13q37 26 67 66t38 80l-8 -2q-19 0 -29.5 12t-7.5 32q3 19 17 31.5t34 12.5q32 0 36 -27q10 -55 -33 -127t-99 -105q-7 -4 -11 2zM235 619q-6 -2 -8 -2q-31 -3 -35 28.5t19 50.5q14 10 30 9q31 0 36 -27q11 -56 -32 -128q-44 -73 -99 -104
q-9 -4 -12 2l-8 13q-3 8 4 12q37 26 67 65.5t38 80.5z" />
    <glyph glyph-name="numbersign" unicode="#" horiz-adv-x="652" 
d="M76 224l12 22q3 6 14 8h102l75 177h-118q-10 0 -5 8l10 22q5 8 14 8h115l91 216q3 9 13 9h24q9 -2 5 -9l-91 -216h179l91 216q5 9 14 9h23q9 0 6 -9l-91 -216h119q10 0 6 -10l-10 -19q-6 -9 -14 -9h-118l-74 -177h131q12 0 6 -9l-11 -22q-5 -8 -14 -8h-129l-86 -205
q-3 -10 -13 -10h-25q-10 0 -4 10l86 205h-179l-87 -205q-3 -10 -12 -10h-26q-8 0 -4 10l87 205h-105q-11 0 -7 9zM246 254h179l75 177h-179z" />
    <glyph glyph-name="dollar" unicode="$" horiz-adv-x="560" 
d="M270 36l45 285q-108 29 -150 72.5t-32 118.5q11 77 78 131q70 55 164 59l5 30q2 9 9 9h18q9 0 9 -9l-5 -30q116 -4 172 -66q4 -4 1 -13l-18 -28q-4 -7 -11 -1q-58 58 -151 64l-47 -295q111 -30 153.5 -70t33.5 -108q-11 -86 -76 -138.5t-170 -56.5l-14 -93q-2 -9 -12 -9
h-17q-9 0 -7 9l15 94q-138 7 -202 82q-7 7 0 14l19 25q6 7 13 0q62 -69 177 -76zM349 312l-43 -277q77 2 129 40t63 99q8 53 -25 83t-124 55zM323 373l45 285q-73 -4 -127 -45q-53 -41 -62 -98q-9 -54 23 -84.5t121 -57.5z" />
    <glyph glyph-name="percent" unicode="%" horiz-adv-x="776" 
d="M125 549q11 70 59.5 112t118.5 42q69 0 104.5 -42t24.5 -112q-11 -69 -59.5 -111t-117.5 -42q-70 0 -105.5 42t-24.5 111zM169 549q-8 -49 17.5 -79t74.5 -30t84 29.5t43 79.5t-18 80t-75 30t-84 -30.5t-42 -79.5zM513 144q-8 -49 17.5 -79t74.5 -30t84 29.5t43 79.5
t-18 80t-75 30t-84 -30.5t-42 -79.5zM647 298q69 0 104.5 -42.5t24.5 -111.5t-60 -111.5t-118 -42.5q-70 0 -105 42.5t-24 111.5t60 111.5t118 42.5zM186 11l508 704q4 7 11 7h30q12 0 4 -11l-509 -704q-7 -7 -12 -7h-31q-10 0 -1 11z" />
    <glyph glyph-name="ampersand" unicode="&#x26;" horiz-adv-x="679" 
d="M374 660q-54 0 -90.5 -32t-46.5 -89q0 -2 -1 -23t4 -23q15 -36 19 -42q22 -31 29 -39l16 -18l34 -36l192 -211q68 90 90 222q2 9 11 9h28q9 0 7 -9q-27 -155 -106 -255l94 -104q10 -10 -6 -10h-33q-10 0 -17 7l-67 74q-94 -97 -220 -97q-121 0 -185 63t-48 162
q11 68 54.5 115.5t113.5 68.5q-32 39 -45 73t-7 76q12 75 63.5 118t128.5 43q103 0 128 -76q3 -9 -4 -13l-27 -17q-8 -5 -11 3q-25 60 -98 60zM502 112l-230 251q-58 -14 -99 -56t-50 -98q-13 -79 40 -131q55 -50 154 -50q103 0 185 84z" />
    <glyph glyph-name="quotesingle" unicode="'" horiz-adv-x="229" 
d="M130 448l-8 12q-4 7 4 13q37 25 67 65.5t38 80.5q-6 -2 -9 -2q-19 0 -29.5 12t-7.5 32q4 20 18 32t33 12q32 0 37 -27q12 -55 -32 -128q-44 -72 -101 -104q-5 -4 -10 2z" />
    <glyph glyph-name="parenleft" unicode="(" horiz-adv-x="302" 
d="M293 685q7 9 17 9h26q10 0 3 -9q-35 -47 -89 -142q-71 -132 -93 -277q-37 -223 49 -418q3 -8 -5 -8h-28q-11 0 -12 9q-23 50 -44 139q-23 99 -4 278q24 146 93 276q51 94 87 143z" />
    <glyph glyph-name="parenright" unicode=")" horiz-adv-x="302" 
d="M187 694h25q10 0 14 -9q22 -55 34 -104t17 -88q15 -114 -3 -227q-24 -156 -94 -280q-51 -92 -86 -137q-7 -9 -14 -9h-28q-10 0 -4 8q43 55 88 138q71 120 94 280q36 220 -50 419q-4 9 7 9z" />
    <glyph glyph-name="asterisk" unicode="*" horiz-adv-x="462" 
d="M380 340l-75 123l-114 -123q-7 -7 -13 0l-17 18q-6 6 0 13l113 112l-121 77q-10 3 -1 12l17 24q8 8 14 3l111 -79l21 163q1 9 12 9h29q10 0 8 -9l-31 -163l137 79q8 6 11 -3l12 -24q3 -9 -5 -12l-148 -77l79 -112q4 -6 -3 -13l-23 -18q-10 -7 -13 0z" />
    <glyph glyph-name="plus" unicode="+" horiz-adv-x="549" 
d="M300 73h-27q-9 0 -8 9l30 189h-187q-5 0 -7 1.5t-1 5.5l4 25q1 10 11 10h187l29 188q1 9 11 9h27q9 0 7 -9l-29 -188h187q8 0 7 -9l-4 -24q-1 -9 -10 -9h-187l-30 -189q-2 -9 -10 -9z" />
    <glyph glyph-name="comma" unicode="," horiz-adv-x="243" 
d="M39 -153l-8 11q-4 6 4 13q37 26 67 65.5t38 80.5q-6 -2 -9 -2q-19 0 -29 12t-7 32q4 20 17.5 32t32.5 12q33 0 37 -27q12 -55 -32 -127q-44 -74 -100 -105q-7 -4 -11 3z" />
    <glyph glyph-name="hyphen" unicode="-" horiz-adv-x="397" 
d="M101 281l3 25q2 9 10 9h268q8 0 7 -9l-3 -25q-2 -9 -11 -9h-268q-7 0 -6 9z" />
    <glyph glyph-name="period" unicode="." horiz-adv-x="263" 
d="M181 39q-3 -19 -17 -31t-34 -12q-29 -4 -35.5 25.5t15.5 49.5q23 22 51 10t20 -42z" />
    <glyph glyph-name="slash" unicode="/" horiz-adv-x="371" 
d="M12 9l416 704q6 9 14 9h26q10 0 5 -9l-416 -704q-5 -9 -13 -9h-28q-8 0 -4 9z" />
    <glyph glyph-name="zero" unicode="0" horiz-adv-x="597" 
d="M112 347q25 160 107 258q83 98 191 98q109 0 160 -98q51 -97 25 -258t-107 -259q-81 -97 -190 -97t-160 98t-26 258zM157 347q-23 -140 18 -226t130 -86q87 0 155 86q67 85 90 226q22 139 -19 226q-41 86 -128 86q-88 0 -156 -86q-67 -85 -90 -226z" />
    <glyph glyph-name="one" unicode="1" horiz-adv-x="312" 
d="M185 661l3 24q2 9 11 9h133q10 -1 8 -11l-106 -674q-2 -9 -10 -9h-28q-8 0 -7 9l101 643h-98q-8 0 -7 9z" />
    <glyph glyph-name="two" unicode="2" horiz-adv-x="549" 
d="M504 391l-16 -17l-329 -332h331q9 0 7 -8l-4 -26q-2 -8 -10 -8h-364h-10h-32q-14 0 -4 12l388 396q49 50 58 108q10 65 -22.5 104.5t-96.5 39.5q-94 0 -166 -77q-6 -7 -12 0l-14 20q-6 8 2 14q84 86 196 86q84 0 127.5 -51.5t29.5 -135.5q-5 -34 -23 -69.5t-36 -55.5z
" />
    <glyph glyph-name="three" unicode="3" 
d="M287 379h52q65 -1 110 37t55 100q10 65 -22.5 104.5t-96.5 39.5q-89 0 -166 -76q-6 -8 -12 -1l-15 20q-5 6 3 14q84 86 196 86q84 0 127 -51.5t30 -135.5q-18 -114 -118 -154q52 -19 75.5 -62t13.5 -105q-15 -94 -84 -152q-70 -59 -166 -59q-93 0 -144 53q-50 53 -40 140
q1 9 10 9h28q9 0 7 -9q-6 -67 34 -108t112 -41q75 0 131 47q57 47 67 120q10 63 -25 104t-102 43l-66 -1q-9 0 -8 9l4 21q2 8 10 8z" />
    <glyph glyph-name="four" unicode="4" horiz-adv-x="612" 
d="M491 198h86q10 0 8 -8l-4 -26q-2 -8 -10 -8h-86l-24 -147q-1 -9 -10 -9h-28q-9 0 -7 9l24 147h-314h-5h-29q-7 0 -8.5 4t3.5 9l417 516q8 9 17 9l39 -1q4 1 6.5 -2t1.5 -8zM446 198l70 439l-358 -439h288z" />
    <glyph glyph-name="five" unicode="5" 
d="M535 652h-277l-64 -280q68 52 139 52q99 0 151 -61t36 -158q-15 -98 -85 -159q-70 -62 -166 -62q-93 0 -144 53q-50 53 -40 140q1 9 9 9h29q8 0 8 -9q-7 -69 33 -109t112 -40q77 0 132 49t67 128q13 76 -29 126q-40 49 -121 49q-73 0 -144 -65h-32q-9 0 -9 10l82 358
q5 11 14 11h306q8 0 7 -9l-3 -23q-1 -10 -11 -10z" />
    <glyph glyph-name="six" unicode="6" horiz-adv-x="539" 
d="M514 201q-15 -95 -83 -154q-67 -58 -163 -58t-145 58t-34 154q8 49 30 89l245 396q5 8 13 8h30q11 0 3 -14l-184 -297q49 28 109 28q96 0 145 -57t34 -153zM471 201q12 76 -27 123t-115 47q-75 0 -130 -48q-55 -46 -67 -122t27 -122.5t116 -46.5q74 0 129 47
q55 46 67 122z" />
    <glyph glyph-name="seven" unicode="7" horiz-adv-x="483" 
d="M148 694h405q15 0 7 -15l-360 -670q-4 -9 -13 -9h-33q-8 0 -4 9l346 643h-355q-9 0 -7 9l3 24q1 9 11 9z" />
    <glyph glyph-name="eight" unicode="8" horiz-adv-x="561" 
d="M391 703q84 0 128 -50t31 -132q-8 -51 -39.5 -90.5t-79.5 -59.5q57 -21 85 -67.5t19 -109.5q-15 -92 -86 -148t-171 -56t-153 56q-52 55 -37 148q10 63 52 109.5t108 67.5q-41 20 -60 59.5t-11 90.5q13 83 72 132q59 50 142 50zM490 195q11 69 -31.5 112.5t-121.5 43.5
q-78 0 -136 -44q-57 -44 -68 -112q-11 -72 31 -116.5t122 -44.5t136 44q58 45 68 117zM221 521q-10 -58 24 -96t97 -38t108.5 38t55.5 96q10 63 -23 101t-97 38q-65 0 -110 -38t-55 -101z" />
    <glyph glyph-name="nine" unicode="9" horiz-adv-x="539" 
d="M516 381l-232 -373q-5 -8 -14 -8h-29q-11 0 -4 13l185 295q-50 -27 -108 -27q-96 0 -145 57q-49 58 -34 153t82 153q68 59 163 59t145 -59t35 -153q-9 -50 -44 -110zM374 661q-74 0 -129 -47q-54 -46 -66 -122q-12 -77 26 -124q39 -46 115 -46q75 0 130 47q55 46 67 123
q12 76 -27.5 122.5t-115.5 46.5z" />
    <glyph glyph-name="colon" unicode=":" horiz-adv-x="238" 
d="M142 441q2 33 38 42q34 9 51 -12q10 -12 5 -30q-3 -21 -18 -34t-36 -13t-32 13t-8 34zM78 37q2 34 38 43q34 9 51 -13q10 -12 5 -30q-3 -20 -18 -33t-36 -13t-32 13t-8 33z" />
    <glyph glyph-name="semicolon" unicode=";" horiz-adv-x="255" 
d="M152 441q4 20 19 32.5t36 12.5t31.5 -12.5t6.5 -32.5q-3 -21 -17.5 -34t-35.5 -13t-32 13t-8 34zM42 -153l-8 11q-3 6 4 13q37 26 67 65.5t38 80.5q-6 -2 -8 -2q-30 -3 -35 27q-6 31 18 51q13 12 31 10q31 0 37 -27q10 -55 -33 -127q-43 -73 -99 -105q-8 -4 -12 3z" />
    <glyph glyph-name="less" unicode="&#x3c;" horiz-adv-x="539" 
d="M83 282l6 37q0 7 11 13l476 207q10 3 10 -5l-5 -31q-2 -9 -12 -13l-448 -190l387 -194q9 -6 8 -13l-5 -31q-1 -10 -11 -5l-410 212q-8 3 -7 13z" />
    <glyph glyph-name="equal" unicode="=" horiz-adv-x="524" 
d="M497 364h-354q-10 0 -8 8l4 26q1 9 10 9h354q9 0 8 -9l-4 -26q-2 -8 -10 -8zM472 206h-354q-10 0 -8 9l4 26q2 8 10 8h354q10 0 8 -8l-4 -26q-2 -9 -10 -9z" />
    <glyph glyph-name="greater" unicode="&#x3e;" horiz-adv-x="539" 
d="M64 106l449 194l-388 190q-9 5 -7 13l5 31q1 10 9 5l412 -207q8 -5 8 -13l-6 -37q-1 -10 -12 -13l-478 -212q-8 -3 -8 5l5 31q2 9 11 13z" />
    <glyph glyph-name="question" unicode="?" horiz-adv-x="503" 
d="M471 516q10 64 -23 104t-96 40q-94 0 -167 -76q-6 -8 -11 -1l-16 19q-4 8 2 14q86 87 197 87q85 0 128 -52q45 -51 32 -135q-16 -95 -88 -153q-8 -7 -34.5 -27.5t-38.5 -31.5t-30.5 -30.5t-28.5 -38.5t-15 -41q-2 -9 -10 -9h-31q-9 0 -6 9q9 43 34 77.5t56 58t61.5 48
t54 59.5t30.5 79zM271 62q9 -11 6 -30t-16 -31q-13 -11 -32 -11t-29 11q-9 12 -6 31t16 30q14 11 33 11t28 -11z" />
    <glyph glyph-name="at" unicode="@" horiz-adv-x="906" 
d="M902 333q-13 -85 -65 -141q-51 -56 -121 -57q-81 0 -96 72q-56 -92 -165 -92q-80 0 -121 53q-41 54 -27 140q14 88 71 139q59 53 138 53q98 0 130 -77l14 52q4 6 8 6h21q7 0 5 -6l-32 -204q-8 -45 9 -70.5t56 -25.5q49 0 86 43.5t48 114.5q22 145 -57 236t-226 91
q-168 0 -286 -97q-117 -95 -143 -253q-25 -157 63 -254q88 -96 255 -96q137 0 238 87q10 6 15 1l15 -21q6 -6 -3 -13q-115 -97 -272 -97q-188 0 -285 108q-98 108 -69 284q28 177 159 285q131 109 319 109q166 0 255 -102q88 -102 63 -268zM467 158q62 0 104.5 42t52.5 109
q10 66 -19.5 107t-90.5 41q-64 0 -108.5 -41t-55.5 -109q-12 -67 20.5 -108t96.5 -41z" />
    <glyph glyph-name="A" unicode="A" horiz-adv-x="645" 
d="M588 6l-59 228h-340l-130 -227q-4 -7 -10 -7h-31q-10 0 -4 11l387 673q6 9 14 9h34q9 0 10 -9l175 -673q2 -5 0.5 -8.5t-7.5 -2.5h-31q-6 0 -8 6zM519 275l-95 367l-211 -367h306z" />
    <glyph glyph-name="B" unicode="B" horiz-adv-x="601" 
d="M391 361l-196 -1l-51 -319l188 1q84 0 141.5 44t68.5 116q10 67 -31 113q-40 46 -120 46zM364 396q77 0 127.5 37t59.5 96q9 57 -33.5 90t-125.5 33h-151l-40 -257q137 0 163 1zM214 694h185q102 0 155 -44t42 -120q-14 -103 -135 -146q69 -18 102.5 -65.5t23.5 -116.5
q-13 -92 -84 -147q-70 -55 -174 -55h-226q-9 0 -8 10l106 673q2 11 13 11z" />
    <glyph glyph-name="C" unicode="C" horiz-adv-x="693" 
d="M663 82q-112 -92 -265 -92q-158 0 -241 99q-82 98 -56 257q25 163 142 260q116 97 268 97q149 0 235 -93q5 -5 -2 -13l-22 -17q-7 -6 -13 0q-76 79 -205 79q-137 0 -237 -86q-97 -85 -120 -227q-22 -139 49 -226q70 -84 209 -86q128 2 231 79q8 6 12 0l18 -18
q4 -7 -3 -13z" />
    <glyph glyph-name="D" unicode="D" horiz-adv-x="683" 
d="M384 652l-143 1l-96 -611h143q141 0 239 83q97 83 120 222q21 139 -51 222q-71 83 -212 83zM281 0h-178q-9 0 -9 10l107 674q1 10 12 10h178q160 0 243 -95q82 -95 57 -252q-26 -160 -137 -253q-112 -94 -273 -94z" />
    <glyph glyph-name="E" unicode="E" horiz-adv-x="521" 
d="M470 333h-279l-46 -291h336q9 0 7 -8l-4 -26q-2 -8 -10 -8h-371q-9 0 -8 10l106 674q1 10 12 10h361q10 0 7 -9l-3 -25q-2 -8 -10 -8h-327l-44 -277h279q10 0 8 -8l-4 -26q-2 -8 -10 -8z" />
    <glyph glyph-name="F" unicode="F" horiz-adv-x="502" 
d="M470 333h-279l-51 -323q-3 -10 -11 -10h-27q-8 0 -7 10l106 673q2 11 13 11h361q9 0 7 -9l-3 -24q-1 -9 -12 -9h-326l-44 -277h279q10 0 8 -9l-4 -24q-2 -9 -10 -9z" />
    <glyph glyph-name="G" unicode="G" horiz-adv-x="758" 
d="M717 311h-256q-9 0 -7 9l3 24q1 9 11 9h290q12 0 7 -9q-29 -169 -127 -261.5t-250 -91.5q-154 0 -234 98q-78 98 -53 258q25 159 139 258q115 98 274 98q146 0 232 -92q5 -8 -1 -12l-23 -19q-7 -6 -13 0q-73 79 -202 79q-139 0 -239 -86q-98 -85 -121 -226
q-22 -139 46 -226q68 -86 202 -86q126 0 209 71.5t113 204.5z" />
    <glyph glyph-name="H" unicode="H" horiz-adv-x="674" 
d="M129 0h-27q-10 0 -8 9l107 676q1 9 11 9h28q8 0 6 -9l-49 -310h398l49 310q2 9 11 9h28q7 0 6 -9l-107 -676q-2 -9 -10 -9h-28q-8 0 -7 9l52 324h-398l-52 -324q-1 -9 -10 -9z" />
    <glyph glyph-name="I" unicode="I" horiz-adv-x="231" 
d="M247 685l-108 -677q-2 -8 -10 -8h-27q-10 0 -8 8l108 677q0 9 10 9h27q8 0 8 -9z" />
    <glyph glyph-name="J" unicode="J" horiz-adv-x="390" 
d="M278 156l82 529q2 9 11 9h27q8 0 7 -9l-82 -530q-11 -76 -57 -120t-115 -45q-70 2 -125 57q-4 3 0 12l18 23q8 8 13 2q56 -48 103 -50q95 2 118 122z" />
    <glyph glyph-name="K" unicode="K" horiz-adv-x="548" 
d="M246 685l-52 -330l366 333q8 6 13 6h38q16 0 2 -11l-371 -336l295 -336q9 -11 -6 -11h-41q-9 0 -12 5l-286 334l-53 -331q-2 -8 -10 -8h-27q-10 0 -8 8l107 677q1 9 11 9h27q9 0 7 -9z" />
    <glyph glyph-name="L" unicode="L" horiz-adv-x="451" 
d="M246 685l-102 -643h275q9 0 8 -9l-4 -25q-2 -8 -10 -8h-311q-10 0 -8 9l107 676q1 9 11 9h27q9 0 7 -9z" />
    <glyph glyph-name="M" unicode="M" horiz-adv-x="864" 
d="M214 694h29q7 0 10 -8l200 -538l376 539q6 7 12 7h31q8 0 7 -10l-107 -675q-2 -9 -10 -9h-27q-10 0 -7 10l94 594l-348 -492q-4 -6 -12 -8h-31q-5 0 -9 7l-188 492l-94 -593q-1 -10 -11 -10h-25q-10 0 -9 12l106 670q1 12 13 12z" />
    <glyph glyph-name="N" unicode="N" horiz-adv-x="725" 
d="M706 694h28q8 0 6 -9l-107 -675q0 -10 -11 -10h-37q-8 0 -11 6l-337 620l-98 -617q-1 -9 -10 -9h-27q-10 0 -8 9l107 675q1 10 12 10h36q7 0 11 -7l337 -622l98 620q1 9 11 9z" />
    <glyph glyph-name="O" unicode="O" horiz-adv-x="805" 
d="M101 347q25 159 139 258q115 98 274 98t242 -98q82 -97 57 -258q-26 -161 -139 -259q-112 -97 -272 -97q-161 0 -244 98q-82 97 -57 258zM409 35q139 0 237 86q99 86 122 226t-50 226q-71 86 -211 86q-139 0 -239 -86q-98 -85 -121 -226q-23 -140 50 -226q72 -86 212 -86
z" />
    <glyph glyph-name="P" unicode="P" horiz-adv-x="563" 
d="M357 299h-171l-47 -290q-1 -9 -10 -9h-27q-10 0 -8 9l107 674q2 11 12 11h207q102 0 153.5 -53t38.5 -144q-16 -91 -84.5 -144.5t-170.5 -53.5zM242 652l-49 -311h173q82 0 135.5 41.5t64.5 113.5t-29.5 114.5t-121.5 41.5h-173z" />
    <glyph glyph-name="Q" unicode="Q" horiz-adv-x="805" 
d="M551 16l173 -107q6 -4 1 -12l-20 -25q-7 -7 -13 -1l-199 129q-43 -9 -91 -9q-161 0 -244 98q-82 97 -57 258q25 159 139 258q115 98 274 98t242 -98q82 -97 57 -258q-19 -119 -88 -206t-174 -125zM768 347q23 140 -50 226q-71 86 -211 86q-139 0 -239 -86
q-98 -86 -121 -226t50 -226q72 -86 212 -86q139 0 237 86q99 86 122 226z" />
    <glyph glyph-name="R" unicode="R" horiz-adv-x="561" 
d="M459 5l-138 294h-135l-46 -290q-2 -9 -10 -9h-28q-10 0 -8 9l107 675q1 10 12 10h196q102 0 154 -53t39 -144q-15 -86 -77 -138.5t-154 -58.5l141 -289q5 -11 -7 -11h-38q-6 0 -8 5zM404 652h-162l-49 -311h162q83 0 136 41.5t64 113.5t-29.5 114.5t-121.5 41.5z" />
    <glyph glyph-name="S" unicode="S" horiz-adv-x="565" 
d="M64 74q-8 5 -1 13l19 24q6 9 14 0q68 -75 201 -77q81 0 136.5 38.5t66.5 101.5q9 57 -31 87q-37 30 -148 59t-153 72.5t-32 119.5q10 81 85 137q75 55 177 54q129 -2 187 -67q5 -5 2 -13l-18 -27q-5 -9 -13 -1q-63 63 -170 63q-77 0 -136 -41q-57 -40 -68 -102
q-10 -60 28 -91q40 -31 151 -61q110 -30 152 -70t33 -108q-10 -87 -79 -142q-68 -54 -183 -53q-62 0 -115 18q-72 25 -105 66z" />
    <glyph glyph-name="T" unicode="T" horiz-adv-x="533" 
d="M245 8l102 644h-226q-9 0 -7 9l3 24q1 9 11 9h497q9 0 7 -9l-3 -24q-1 -9 -11 -9h-226l-102 -644q-2 -8 -9 -8h-28q-10 0 -8 8z" />
    <glyph glyph-name="U" unicode="U" horiz-adv-x="680" 
d="M136 272l65 412q1 9 11 9h27q9 0 7 -9l-65 -413q-18 -110 26.5 -173t138.5 -63q93 0 156.5 62.5t81.5 173.5l65 414q2 8 11 8h28q9 0 7 -8l-65 -414q-21 -132 -100 -206q-80 -74 -191 -74q-113 -2 -169 74q-55 74 -34 207z" />
    <glyph glyph-name="V" unicode="V" horiz-adv-x="627" 
d="M286 9l-165 672q-3 12 8 12h34q5 0 9 -7l151 -632l350 632q3 7 11 7h34q9 0 3 -12l-379 -672q-4 -9 -13 -9h-32q-8 0 -11 9z" />
    <glyph glyph-name="W" unicode="W" horiz-adv-x="853" 
d="M595 8l-69 622l-267 -622q-3 -8 -11 -8h-27q-9 0 -11 8l-89 675q-2 11 8 11h30q8 0 9 -7l77 -614l264 613q2 8 11 8h32q7 0 9 -8l70 -615l272 616q1 7 10 7h31q9 0 4 -11l-303 -675q-5 -8 -13 -8h-26q-9 0 -11 8z" />
    <glyph glyph-name="X" unicode="X" horiz-adv-x="563" 
d="M55 0h-35q-13 0 -4 10l291 335l-177 339q-6 10 7 10h38q8 0 11 -6l154 -304l264 303q3 6 13 6h35q12 0 5 -9l-297 -339l176 -336q4 -9 -7 -9h-38q-7 0 -10 6l-154 301l-258 -301q-6 -6 -14 -6z" />
    <glyph glyph-name="Y" unicode="Y" 
d="M249 8l43 271l-170 404q-4 10 9 10h33q8 0 11 -8l147 -362l265 362q6 8 15 8h34q10 0 2 -11l-301 -402l-43 -272q-2 -8 -10 -8h-27q-10 0 -8 8z" />
    <glyph glyph-name="Z" unicode="Z" horiz-adv-x="560" 
d="M624 677l-516 -635h422q8 0 6 -9l-4 -24q-2 -9 -9 -9h-484q-19 0 -6 16l516 635h-399q-8 0 -7 9l3 25q2 8 11 8h461q19 0 6 -16z" />
    <glyph glyph-name="bracketleft" unicode="[" horiz-adv-x="332" 
d="M223 654l-123 -776h147q9 0 7 -9l-3 -22q-1 -9 -11 -9l-179 1q-11 0 -9 9l132 836q1 10 12 10h180q10 0 8 -8l-4 -23q-2 -9 -10 -9h-147z" />
    <glyph glyph-name="backslash" unicode="\" horiz-adv-x="367" 
d="M132 722h28q7 0 8 -7l193 -703q3 -12 -7 -12h-28q-8 0 -8 7l-193 704q-3 11 7 11z" />
    <glyph glyph-name="bracketright" unicode="]" horiz-adv-x="332" 
d="M47 -121h147l123 775h-147q-10 0 -8 9l4 23q2 8 10 8h180q9 0 8 -10l-132 -836q-2 -9 -11 -9h-180q-10 0 -8 8l3 23q2 9 11 9z" />
    <glyph glyph-name="asciicircum" unicode="^" horiz-adv-x="571" 
d="M104 270l256 414q8 9 16 9h38q10 0 12 -9l127 -414q3 -11 -8 -11h-31q-8 0 -9 7l-116 390l-240 -390q-4 -7 -11 -7h-30q-12 0 -4 11z" />
    <glyph glyph-name="underscore" unicode="_" horiz-adv-x="581" 
d="M51 -96h449q8 0 8 -8l-4 -22q-2 -8 -10 -8h-449q-9 0 -8 9l3 20q2 9 11 9z" />
    <glyph glyph-name="grave" unicode="`" horiz-adv-x="263" 
d="M284 557l-134 110q-8 5 0 11l27 30q7 6 13 0l123 -126q3 -3 -1 -10l-17 -14q-4 -5 -11 -1z" />
    <glyph glyph-name="a" unicode="a" horiz-adv-x="577" 
d="M515 338l21 97q3 9 10 9h18q8 0 7 -9l-68 -427q-2 -8 -10 -8h-17q-10 0 -8 8l10 97q-36 -55 -91.5 -85t-123.5 -30q-103 0 -155 64q-52 63 -35 168q17 104 89 167q73 64 175 64q68 0 114.5 -30t63.5 -85zM114 222q-14 -86 30 -138.5t129 -52.5q86 0 147 52t76 139
q13 86 -32 138t-131 52q-84 0 -146 -53q-60 -52 -73 -137z" />
    <glyph glyph-name="b" unicode="b" horiz-adv-x="582" 
d="M105 0h-16q-10 0 -8 8l112 705q1 9 9 9h25q9 0 7 -9l-59 -375q34 55 90 85t125 30q101 0 153 -64q53 -63 36 -167t-90 -168q-71 -64 -173 -64q-68 0 -114.5 30.5t-63.5 85.5l-22 -98q-3 -8 -11 -8zM379 412q-87 0 -148 -52q-62 -53 -75 -137q-14 -86 32 -139
q45 -53 131 -53q84 0 146 53q60 52 74 138q13 84 -31 138q-43 52 -129 52z" />
    <glyph glyph-name="c" unicode="c" horiz-adv-x="498" 
d="M473 85q-77 -95 -207 -95q-103 0 -157 64q-53 64 -36 168q18 110 96 171q77 61 172 61q58 0 105.5 -25t70.5 -71q3 -8 -3 -13l-21 -16q-7 -5 -12 3q-42 81 -148 81q-84 0 -145 -53t-74 -138q-14 -86 30 -138.5t129 -52.5q109 0 173 81q8 9 12 3l18 -17q5 -5 -3 -13z" />
    <glyph glyph-name="d" unicode="d" horiz-adv-x="582" 
d="M263 -10q-103 0 -155 64q-52 63 -35 168q17 104 89 167q73 64 175 64q68 0 114.5 -30t63.5 -84l59 374q2 9 9 9h25q8 0 7 -9l-112 -705q-2 -8 -9 -8h-17q-8 0 -8 8l9 97q-36 -55 -91.5 -85t-123.5 -30zM496 223q13 84 -32 136.5t-131 52.5q-84 0 -146 -53
q-60 -52 -73 -137q-14 -86 30 -138.5t129 -52.5q86 0 148 53q61 52 75 139z" />
    <glyph glyph-name="e" unicode="e" horiz-adv-x="537" 
d="M118 241h377q6 78 -37.5 124.5t-124.5 46.5q-80 0 -138.5 -46.5t-76.5 -124.5zM521 203h-409q-6 -78 41 -125t131 -47q96 0 157 58q10 7 14 2l17 -18q4 -5 -3 -12q-77 -71 -192 -71q-108 0 -165 64q-56 64 -39 168q16 102 90 167q73 64 177 64q106 0 158 -65t35 -175
q-1 -10 -12 -10z" />
    <glyph glyph-name="f" unicode="f" horiz-adv-x="298" 
d="M334 405h-125l-63 -396q-2 -9 -10 -9h-24q-8 0 -7 9l62 396h-88q-9 0 -7 9l3 20q1 9 10 9h88l20 127q12 78 49 120.5t94 42.5q50 0 93 -36q5 -5 0 -12l-17 -22q-4 -7 -12 -1q-33 30 -69 30q-39 0 -62.5 -30t-35.5 -97l-18 -122h125q10 0 8 -9l-3 -20q-1 -9 -11 -9z" />
    <glyph glyph-name="g" unicode="g" horiz-adv-x="577" 
d="M337 453q69 0 115.5 -31.5t62.5 -86.5l23 100q3 8 10 8h17q9 0 7 -8l-69 -441q-16 -102 -90 -167q-73 -64 -172 -64q-97 2 -176 50q-5 5 -1 12l17 23q7 6 11 2q67 -43 156 -46q82 0 140 51q60 50 73 134l19 120q-34 -56 -90.5 -87.5t-126.5 -31.5q-103 0 -155 64
q-52 63 -35 168q16 102 89 167q73 64 175 64zM114 222q-14 -86 30 -139q43 -52 129 -52q85 -1 148 52q62 52 76 139q14 84 -33 137q-45 53 -131 53q-84 0 -145 -53t-74 -137z" />
    <glyph glyph-name="h" unicode="h" horiz-adv-x="544" 
d="M81 8l112 705q1 9 9 9h25q9 0 7 -9l-60 -377q63 117 187 117q85 0 123 -50t22 -148l-39 -246q-1 -9 -8 -9h-26q-9 0 -7 9l40 247q22 156 -116 156q-69 0 -122 -53t-71 -132l-34 -219q-2 -8 -9 -8h-26q-9 0 -7 8z" />
    <glyph glyph-name="i" unicode="i" horiz-adv-x="207" 
d="M193 435l-68 -427q-2 -8 -9 -8h-25q-9 0 -7 8l68 427q2 8 9 8h25q9 0 7 -8zM165 582q-9 12 -6 31t16 30q14 11 33 11t28 -11t6 -30t-16 -31q-13 -11 -32 -11t-29 11z" />
    <glyph glyph-name="j" unicode="j" horiz-adv-x="236" 
d="M192 582q-9 12 -6 31t16 30q14 11 33 11t28 -11q10 -11 7 -30t-17 -31q-13 -11 -32 -11t-29 11zM102 -71l80 505q2 9 9 9h25q8 0 7 -9l-80 -509q-12 -78 -48.5 -120.5t-95.5 -42.5q-56 2 -97 31q-8 5 -1 13l17 21q3 6 14 1q31 -25 72 -25q78 0 98 126z" />
    <glyph glyph-name="k" unicode="k" horiz-adv-x="431" 
d="M413 443h39q19 0 2 -11l-249 -194l215 -228q10 -10 -7 -10h-39q-9 0 -12 5l-205 220l-35 -217q-2 -8 -9 -8h-25q-9 0 -7 8l112 706q2 8 10 8h23q10 0 8 -8l-74 -467l239 191q8 5 14 5z" />
    <glyph glyph-name="l" unicode="l" horiz-adv-x="207" 
d="M237 714l-112 -706q-2 -8 -9 -8h-25q-9 0 -7 8l112 706q2 8 9 8h25q9 0 7 -8z" />
    <glyph glyph-name="m" unicode="m" horiz-adv-x="827" 
d="M159 443h16q9 0 9 -8l-9 -97q58 115 169 115q126 0 133 -124q64 124 180 124q77 0 111 -50t19 -148l-39 -246q-2 -9 -8 -9h-25q-9 0 -8 9l40 247q23 156 -101 156q-65 0 -114 -55t-64 -141l-33 -207q-1 -9 -9 -9h-25q-9 0 -7 9l40 247q22 156 -101 156q-61 0 -111 -53
q-48 -51 -65 -133l-34 -217q-1 -9 -10 -9h-24q-9 0 -8 9l68 425q1 9 10 9z" />
    <glyph glyph-name="n" unicode="n" horiz-adv-x="544" 
d="M81 8l68 427q2 8 9 8h18q8 0 8 -8l-10 -101q28 56 76.5 87.5t110.5 31.5q85 0 123 -50t22 -148l-39 -246q-1 -9 -9 -9h-25q-9 0 -7 9l40 247q22 156 -116 156q-68 0 -123 -53q-53 -53 -70 -133l-34 -218q-2 -8 -9 -8h-25q-10 0 -8 8z" />
    <glyph glyph-name="o" unicode="o" horiz-adv-x="537" 
d="M73 222q16 102 90 167q73 64 177 64q103 0 157 -64q54 -63 37 -167q-16 -102 -91 -168q-73 -64 -177 -64q-103 0 -157 64q-53 64 -36 168zM114 222q-14 -86 30 -138.5t129 -52.5q86 0 145 52q61 52 75 139q13 84 -31 138q-43 52 -129 52q-84 0 -146 -53q-60 -52 -73 -137
z" />
    <glyph glyph-name="p" unicode="p" horiz-adv-x="582" 
d="M77 -228h-24q-9 0 -8 9l104 653q1 9 10 9h16q9 0 9 -9l-10 -98q36 55 92 86t124 31q102 0 154 -64t36 -167q-16 -104 -90 -168q-71 -64 -174 -64q-68 0 -114 30.5t-64 86.5l-52 -326q-2 -9 -9 -9zM320 31q86 0 145 52q60 51 74 139q14 85 -30 137.5t-129 52.5t-149 -53
q-62 -53 -75 -137q-13 -85 32 -138q47 -53 132 -53z" />
    <glyph glyph-name="q" unicode="q" horiz-adv-x="583" 
d="M572 434l-104 -653q-2 -9 -10 -9h-24q-8 0 -7 9l52 326q-34 -55 -90.5 -86t-125.5 -31q-103 0 -155 64q-52 63 -35 168q16 102 89 167q73 64 175 64q68 0 114.5 -31t63.5 -86l22 98q3 9 11 9h16q10 0 8 -9zM113 222q-13 -87 30.5 -139t129.5 -52q88 0 149 52t75 139
q13 85 -33 137q-45 53 -131 53q-84 0 -146 -53q-61 -53 -74 -137z" />
    <glyph glyph-name="r" unicode="r" horiz-adv-x="349" 
d="M374 399q-30 12 -66 12q-39 0 -76 -27.5t-62 -75.5l-48 -300q-2 -8 -8 -8h-26q-9 0 -7 8l68 427q2 8 9 8h18q8 0 8 -8l-7 -63q61 78 145 80q32 0 71 -12q9 -2 4 -10l-13 -27q-3 -7 -10 -4z" />
    <glyph glyph-name="s" unicode="s" horiz-adv-x="408" 
d="M50 40q-6 4 -1 12l15 21q4 7 11 2q55 -44 132 -44q55 0 94 23.5t44 58.5q6 35 -19.5 53.5t-97.5 38.5q-78 21 -106 47.5t-22 74.5q7 55 58 92q52 36 123 35q77 0 125 -42q6 -4 1 -12l-14 -21q-3 -8 -11 -3q-49 38 -111 38q-52 0 -87.5 -22.5t-41.5 -58.5q-6 -38 19 -54
q26 -17 97 -36q78 -23 107 -49.5t22 -75.5q-8 -57 -60 -92.5t-129 -34.5q-99 0 -148 49z" />
    <glyph glyph-name="t" unicode="t" horiz-adv-x="331" 
d="M222 405l-39 -246q-11 -69 1.5 -98t46.5 -30q29 0 63 28q7 5 11 0l13 -22q3 -7 -5 -12q-44 -34 -92 -34q-53 0 -73 42t-7 120l40 252h-88q-9 0 -7 9l3 21q2 8 10 8h88l26 155q1 9 9 9h24q10 0 8 -9l-26 -155h127q10 0 8 -8l-3 -21q-2 -9 -11 -9h-127z" />
    <glyph glyph-name="u" unicode="u" 
d="M432 8l10 101q-63 -119 -187 -119q-85 0 -123 50t-23 148l39 246q2 9 9 9h25q8 0 7 -9l-39 -247q-12 -77 18 -116.5t97 -39.5q68 0 123 53q53 52 70 133l35 218q2 8 9 8h25q9 0 7 -8l-68 -427q-2 -8 -9 -8h-17q-10 0 -8 8z" />
    <glyph glyph-name="v" unicode="v" horiz-adv-x="463" 
d="M517 432l-257 -423q-4 -9 -13 -9h-30q-9 0 -12 9l-123 423q-2 11 8 11h32q8 0 9 -7l108 -392l232 392q3 7 11 7h31q12 0 4 -11z" />
    <glyph glyph-name="w" unicode="w" horiz-adv-x="643" 
d="M130 435l57 -390l179 390q5 8 11 8h29q7 0 9 -8l55 -390l182 390q5 8 11 8h31q8 0 4 -10l-206 -425q-5 -8 -14 -8h-30q-11 0 -11 8l-54 379l-174 -379q-5 -8 -14 -8h-30q-9 0 -11 8l-71 425q-1 10 6 10h32q7 0 9 -8z" />
    <glyph glyph-name="x" unicode="x" horiz-adv-x="426" 
d="M239 187l-161 -180q-7 -7 -15 -7h-34q-14 0 -3 11l193 208l-127 214q-4 10 6 10h36q8 0 11 -7l106 -182l167 181q8 8 16 8h34q13 0 2 -11l-200 -210l129 -212q4 -10 -6 -10h-36q-11 0 -12 6z" />
    <glyph glyph-name="y" unicode="y" horiz-adv-x="443" 
d="M461 443h29q11 0 4 -13l-374 -649q-4 -9 -13 -9h-25q-12 0 -3 13l125 220l-119 425q-4 13 8 13h29q8 0 10 -9l100 -379l217 379q5 9 12 9z" />
    <glyph glyph-name="z" unicode="z" horiz-adv-x="451" 
d="M395 0h-335q-19 0 -6 16l342 389h-266q-9 0 -7 8l4 22q2 8 9 8h322q19 0 5 -17l-342 -388h280q9 0 7 -8l-4 -22q-2 -8 -9 -8z" />
    <glyph glyph-name="braceleft" unicode="{" horiz-adv-x="361" 
d="M128 287q30 2 54.5 31.5t32.5 76.5l26 164q20 134 121 134h43q9 0 7 -8l-3 -24q-1 -9 -11 -9h-41q-60 0 -73 -93l-26 -160q-15 -99 -86 -134q59 -35 44 -133l-25 -160q-16 -94 44 -94h41q9 0 7 -8l-3 -24q-2 -9 -11 -9h-43q-100 0 -78 135l25 163q8 47 -7 76.5t-45 31.5
q-6 2 -5 9l4 28q1 7 8 7z" />
    <glyph glyph-name="bar" unicode="|" horiz-adv-x="216" 
d="M242 713l-148 -932q-2 -9 -9 -9h-25q-10 0 -8 9l148 932q2 9 10 9h25q9 0 7 -9z" />
    <glyph glyph-name="braceright" unicode="}" horiz-adv-x="361" 
d="M210 652h-41q-9 0 -7 9l3 24q2 8 11 8h43q99 0 79 -134l-26 -164q-8 -47 7 -76.5t44 -31.5q8 0 6 -8l-4 -28q-1 -6 -9 -8q-30 -2 -54 -31t-32 -77l-25 -163q-23 -135 -122 -135h-43q-8 0 -7 9l3 24q2 8 11 8h41q59 2 74 94l25 160q15 98 86 133q-59 35 -44 134l26 160
q13 93 -45 93z" />
    <glyph glyph-name="asciitilde" unicode="~" horiz-adv-x="553" 
d="M102 180q-6 -14 -14 -4l-14 18q-5 5 0 13q28 55 68.5 85.5t84.5 30.5q38 0 64.5 -17t39 -36.5t34.5 -35.5t51 -15q63 2 113 92q7 11 14 4l14 -19q4 -4 1 -12q-27 -53 -67.5 -83.5t-86.5 -30.5q-31 0 -53.5 11t-36 27t-26.5 31.5t-31 25.5t-42 9q-67 -1 -113 -94z" />
    <glyph glyph-name="uni00A0" unicode="&#xa0;" horiz-adv-x="313" 
 />
    <glyph glyph-name="exclamdown" unicode="&#xa1;" horiz-adv-x="250" 
d="M192 505h27q9 0 7 -9l-76 -487q-2 -9 -9 -9h-31q-10 0 -8 9l80 487q2 9 10 9zM189 662q3 18 16 29.5t31 11.5q19 0 28.5 -11.5t6.5 -29.5q-8 -41 -48 -41q-18 0 -27.5 11t-6.5 30z" />
    <glyph glyph-name="cent" unicode="&#xa2;" horiz-adv-x="498" 
d="M378 408l-130 -376q5 -1 25 -1q109 0 173 81q8 9 12 3l18 -17q4 -4 -1 -12q-79 -96 -209 -96q-2 0 -32 2l-32 -91q-3 -9 -11 -9h-22q-9 0 -6 9l35 98q-71 20 -104.5 79.5t-20.5 143.5q18 108 95 170q77 60 171 62h16l30 89q5 9 11 9h22q10 0 6 -9l-33 -94q89 -18 127 -92
q3 -6 -3 -12l-22 -17q-8 -5 -12 4q-34 61 -103 76zM211 40l129 372h-11q-85 -2 -142 -53q-60 -54 -73 -137q-10 -69 15.5 -117t81.5 -65z" />
    <glyph glyph-name="sterling" unicode="&#xa3;" horiz-adv-x="522" 
d="M435 0h-348q-10 0 -4 11q123 199 114 303h-81q-10 0 -8 9l4 26q2 8 11 8h67l-5 20q-2 9 -3.5 16.5t-2.5 13.5t-2 15q-5 49 2 88q14 86 71 139q58 54 141 54q110 0 169 -86q5 -8 -1 -14l-22 -20q-8 -8 -14 2q-48 75 -139 75q-62 0 -106 -41.5t-55 -108.5q-5 -14 -3 -44
q2 -29 3 -38l6 -35l8 -36h153q9 0 7 -8l-4 -26q-1 -9 -10 -9h-142q2 -108 -93 -272h294q8 0 7 -9l-4 -25q-2 -8 -10 -8z" />
    <glyph glyph-name="currency" unicode="&#xa4;" horiz-adv-x="584" 
d="M369 466q78 0 125 -44l59 53q8 8 13 1l21 -23q4 -5 -4 -13l-63 -52q31 -50 19 -125q-14 -80 -66 -134l50 -55q6 -6 -1 -12l-27 -24q-7 -5 -13 1l-47 59q-56 -37 -130 -37q-71 0 -118 35l-66 -60q-8 -8 -13 -1l-20 24q-4 5 3 12l67 56q-39 52 -25 136q11 70 55 122l-48 52
q-4 7 1 13l27 23q8 5 13 -1l43 -53q62 47 145 47zM312 105q71 0 120 43q51 44 62 115t-25 114.5t-107 43.5q-72 0 -122.5 -43.5t-61.5 -114.5t25.5 -114.5t108.5 -43.5z" />
    <glyph glyph-name="yen" unicode="&#xa5;" horiz-adv-x="560" 
d="M257 9l20 122h-155q-10 0 -8 9l3 18q1 9 10 9h155l13 77h-155q-10 0 -8 9l3 18q1 9 10 9h148l3 8l-166 394q-6 11 10 11h30q9 0 12 -8l147 -362l265 362q6 8 17 8h30q13 0 5 -11l-294 -393v-9h147q10 0 8 -8l-3 -19q-2 -9 -10 -9h-154l-13 -77h154q9 0 8 -9l-3 -18
q-2 -9 -10 -9h-154l-20 -122q-2 -9 -10 -9h-27q-9 0 -8 9z" />
    <glyph glyph-name="brokenbar" unicode="&#xa6;" horiz-adv-x="218" 
d="M117 124h25q8 0 6 -9l-53 -334q-1 -9 -9 -9h-25q-9 0 -8 9l53 334q2 9 11 9zM211 722h25q8 0 7 -9l-53 -334q-2 -9 -9 -9h-25q-10 0 -8 9l53 334q1 9 10 9z" />
    <glyph glyph-name="section" unicode="&#xa7;" horiz-adv-x="506" 
d="M137 538q9 71 74 118q65 48 152 47q110 -1 160 -57q5 -5 1 -13l-14 -22q-4 -7 -14 -2q-46 49 -144 49q-65 0 -112.5 -32t-56.5 -85t24 -80q35 -26 124 -51q95 -27 131 -60.5t29 -92.5q-10 -75 -72 -122q47 -39 35 -110q-13 -77 -79 -118t-145 -40q-129 2 -190 71
q-6 7 0 13l17 22q5 8 13 1q59 -62 172 -62q62 0 109 28q49 28 58 85q8 50 -24 76q-33 26 -124 50q-95 25 -131.5 62.5t-27.5 102.5q8 68 69 114q-43 37 -34 108zM148 319q-9 -53 24 -79t124 -51q47 -12 85 -30q54 35 63 89q7 49 -24 74q-33 26 -124 50q-59 16 -91 33
q-50 -35 -57 -86z" />
    <glyph glyph-name="dieresis" unicode="&#xa8;" horiz-adv-x="356" 
d="M244 658q-2 -32 -36 -41q-33 -9 -48 12q-8 12 -4 29q2 33 36 42q32 9 47 -12q10 -12 5 -30zM408 658q-2 -32 -36 -41q-33 -9 -48 12q-8 12 -4 29q2 33 36 42q32 9 47 -12q10 -12 5 -30z" />
    <glyph glyph-name="copyright" unicode="&#xa9;" horiz-adv-x="826" 
d="M610 232q-65 -77 -169 -77q-85 0 -129.5 52.5t-30.5 138.5q11 74 60.5 123.5t108 62.5t115 -5.5t81.5 -67.5q3 -7 -2 -12l-20 -15q-5 -5 -10 3q-36 63 -119 63q-68 0 -116 -42t-59 -110t24 -110t103 -42q85 0 137 61q8 9 13 4l14 -16q4 -4 -1 -11zM112 346
q26 162 138 259q113 98 274 98q159 0 242 -98q83 -99 58 -259q-26 -161 -139 -258q-115 -98 -274 -98q-160 0 -243 98q-82 97 -56 258zM151 346q-22 -142 51 -229q74 -87 216 -87q144 0 244 87q101 87 123 229q23 143 -51 230q-73 88 -216 88t-243 -88q-102 -88 -124 -230z
" />
    <glyph glyph-name="ordfeminine" unicode="&#xaa;" horiz-adv-x="433" 
d="M458 696h17q9 0 7 -9l-48 -301q-1 -10 -9 -10h-17q-10 0 -8 9l5 55q-59 -71 -151 -71q-73 0 -110 46.5t-25 120.5q12 75 63.5 121t124.5 46q92 0 129 -70l12 54q2 9 10 9zM266 405q59 0 101.5 36.5t51.5 94.5t-21.5 94.5t-89.5 36.5q-58 0 -100 -36t-51 -95
q-10 -59 20.5 -95t88.5 -36z" />
    <glyph glyph-name="guillemotleft" unicode="&#xab;" horiz-adv-x="514" 
d="M289 262l2 9q1 9 8 16l158 148q7 7 13 2l16 -19q4 -6 -4 -14l-148 -138l104 -137q7 -7 0 -13l-22 -19q-7 -7 -12 1l-111 148q-4 7 -4 16zM298 437l16 -19q4 -6 -4 -14l-148 -138l104 -137q6 -7 0 -13l-22 -19q-7 -7 -12 1l-110 148q-5 8 -5 16l2 9q2 9 9 16l157 148
q8 8 13 2z" />
    <glyph glyph-name="logicalnot" unicode="&#xac;" horiz-adv-x="623" 
d="M606 371l-30 -191q-2 -9 -11 -9h-25q-8 0 -7 9l25 158h-419q-9 0 -8 9l4 25q1 9 10 9h453q9 0 8 -10z" />
    <glyph glyph-name="uni00AD" unicode="&#xad;" horiz-adv-x="333" 
 />
    <glyph glyph-name="registered" unicode="&#xae;" horiz-adv-x="812" 
d="M105 346q26 162 138 259q113 98 274 98q159 0 242 -98q83 -99 58 -259q-26 -161 -139 -258q-115 -98 -274 -98q-160 0 -243 98q-82 97 -56 258zM144 346q-22 -142 51 -229t216 -87t243 87q102 88 124 229q23 143 -51 230q-73 88 -216 88t-243 -88q-102 -88 -124 -230z
M605 430q-15 -95 -123 -101l77 -159q6 -11 -6 -11h-29q-6 0 -10 7l-74 162h-65l-25 -159q-3 -10 -11 -10h-22q-8 0 -7 10l57 359q1 10 12 10h121q57 0 85 -28.5t20 -79.5zM402 499l-21 -132l93 -1q82 0 92 64q5 33 -13.5 51.5t-57.5 18.5z" />
    <glyph glyph-name="overscore" unicode="&#xaf;" horiz-adv-x="325" 
d="M158 694h229q7 0 6 -9l-4 -26q-1 -9 -9 -9h-229q-7 0 -7 9l4 26q2 9 10 9z" />
    <glyph glyph-name="degree" unicode="&#xb0;" horiz-adv-x="422" 
d="M144 549q11 70 59.5 112t118.5 42q69 0 105 -42.5t25 -111.5q-10 -67 -60 -111q-50 -42 -118 -42q-69 0 -105 42t-25 111zM184 549q-8 -51 18 -82t78 -31q51 0 87.5 31t44.5 82q8 52 -18.5 83t-77.5 31t-87.5 -31t-44.5 -83z" />
    <glyph glyph-name="plusminus" unicode="&#xb1;" horiz-adv-x="589" 
d="M337 177h-28q-7 0 -7 9l27 169h-188q-9 0 -7 9l4 25q2 9 10 9h188l27 169q1 9 10 9h27q10 0 8 -9l-27 -169h186q10 0 8 -8l-4 -26q-1 -9 -11 -9h-186l-27 -169q0 -9 -10 -9zM524 87l-4 -26q-2 -8 -11 -8h-413q-9 0 -7 8l4 26q1 9 10 9h413q10 0 8 -9z" />
    <glyph glyph-name="twosuperior" unicode="&#xb2;" horiz-adv-x="336" 
d="M343 473l-192 -182h189q10 0 8 -8l-4 -21q0 -9 -10 -9h-256q-18 0 -4 14l231 223q48 48 54 90q6 38 -14 61t-58 23q-59 0 -102 -45q-7 -7 -11 0l-12 18q-4 7 3 13q56 53 123 53q60 0 90.5 -32.5t19.5 -95.5q-5 -31 -21.5 -59t-33.5 -43z" />
    <glyph glyph-name="threesuperior" unicode="&#xb3;" horiz-adv-x="332" 
d="M207 477l2 17q1 9 11 9h30q37 0 61.5 21t30.5 60q6 36 -12.5 58t-53.5 22q-53 0 -97 -44q-6 -8 -10 -1l-13 19q-5 6 2 11q54 54 124 54q53 0 81 -33t19 -86q-11 -66 -65 -97q59 -29 47 -108q-9 -60 -54 -97q-44 -38 -105 -38q-59 0 -91.5 33t-26.5 87q0 9 9 9h23
q8 0 7 -7q-2 -38 21 -60.5t64 -22.5q44 0 75 26.5t38 69.5q6 40 -13 64t-58 25h-39q-8 0 -7 9z" />
    <glyph glyph-name="acute" unicode="&#xb4;" horiz-adv-x="264" 
d="M310 707l18 -29q6 -8 -3 -12l-170 -111q-9 -6 -13 0l-9 15q-4 6 2 12l163 125q9 7 12 0z" />
    <glyph glyph-name="mu" unicode="&#xb5;" 
d="M459 217l35 217q2 9 10 9h23q9 0 8 -9l-67 -425q-2 -9 -10 -9h-16q-5 0 -7.5 2t-1.5 6l10 101q-63 -119 -187 -119q-96 0 -126 65l-44 -273q0 -9 -9 -9h-25q-7 0 -7 9l104 652q1 9 10 9h24q9 0 7 -9q-34 -210 -40 -252q-11 -75 19.5 -113t97.5 -38q69 0 122 53
q53 54 70 133z" />
    <glyph glyph-name="paragraph" unicode="&#xb6;" horiz-adv-x="559" 
d="M510 651h-126l-109 -690q-1 -9 -11 -9h-24q-8 0 -7 9l58 366q-82 0 -124 50.5t-29 132.5q14 83 71 132q58 51 140 51h22h2h230q9 0 7 -9l-3 -24q-1 -9 -11 -9h-44l-109 -690q-1 -9 -11 -9h-24q-8 0 -7 9z" />
    <glyph glyph-name="middot" unicode="&#xb7;" horiz-adv-x="211" 
d="M107 280q2 33 35 42q31 8 46 -12q8 -12 4 -30q-2 -32 -35 -40q-32 -8 -46 13q-8 11 -4 27z" />
    <glyph glyph-name="cedilla" unicode="&#xb8;" horiz-adv-x="284" 
d="M125 0h39l-30 -52q49 -3 72.5 -21t17.5 -55q-7 -40 -39 -64t-77 -24q-53 0 -94 35q-5 5 1 11l14 16q4 6 12 1q37 -27 72 -27q29 0 49 14t24 38q3 22 -17 31t-60 9h-26q-9 0 -5 9z" />
    <glyph glyph-name="onesuperior" unicode="&#xb9;" horiz-adv-x="221" 
d="M148 694h97q9 0 8 -10l-67 -422q0 -9 -10 -9h-22q-8 0 -8 9l63 393h-67q-10 0 -8 8l3 22q1 9 11 9z" />
    <glyph glyph-name="ordmasculine" unicode="&#xba;" horiz-adv-x="391" 
d="M307 704q75 0 113.5 -46t26.5 -121t-65.5 -121.5t-128.5 -46.5q-74 0 -112.5 46.5t-26.5 121.5q12 74 65 121q53 46 128 46zM151 537q-9 -59 20.5 -95.5t87.5 -36.5t99.5 36.5t50.5 95.5t-20.5 94.5t-87.5 35.5t-99.5 -36t-50.5 -94z" />
    <glyph glyph-name="guillemotright" unicode="&#xbb;" horiz-adv-x="500" 
d="M294 271l-2 -9q0 -8 -8 -16l-157 -148q-7 -8 -14 -1l-15 19q-6 4 3 13l148 137l-104 138q-6 8 1 14l21 19q9 5 13 -2l110 -148q6 -5 4 -16zM317 418l22 19q9 5 13 -2l109 -148q7 -7 5 -16l-2 -9q0 -8 -9 -16l-156 -148q-7 -8 -14 -1l-16 19q-5 4 4 13l148 137l-104 138
q-6 8 0 14z" />
    <glyph glyph-name="onequarter" unicode="&#xbc;" horiz-adv-x="788" 
d="M751 130l-3 -19q-2 -9 -11 -9h-53l-15 -93q-1 -9 -10 -9h-23q-10 0 -8 9l15 93h-220q-21 0 -6 17l257 312q8 8 18 8h36q9 0 8 -10l-46 -291h53q10 0 8 -8zM159 11l508 704q4 7 12 7h28q13 0 5 -11l-510 -704q-4 -7 -12 -7h-28q-12 0 -3 11zM176 262l63 393h-67
q-10 0 -8 8l3 22q1 9 11 9h97q9 0 8 -10l-67 -422q0 -9 -10 -9h-22q-8 0 -8 9zM474 138h175l41 258z" />
    <glyph glyph-name="onehalf" unicode="&#xbd;" horiz-adv-x="807" 
d="M159 12l508 703q4 7 12 7h27q6 0 7.5 -3.5t-3.5 -8.5l-508 -703q-4 -7 -12 -7h-27q-13 0 -4 12zM178 694h97q9 0 8 -10l-67 -422q0 -9 -10 -9h-22q-8 3 -8 9l63 393h-67q-10 0 -8 8l3 22q1 9 11 9zM745 220q-1 0 -36 -33q-25 -23 -81 -77q-62 -58 -76 -72h189q5 0 7.5 -2
t1.5 -6l-4 -21q-2 -9 -11 -9h-255q-17 0 -5 14l231 223q48 45 55 90q5 38 -14.5 61t-58.5 23q-57 0 -102 -45q-7 -7 -11 0l-12 18q-4 6 3 13q56 53 123 53q60 0 91 -32.5t20 -95.5q-5 -31 -21.5 -59t-33.5 -43z" />
    <glyph glyph-name="threequarters" unicode="&#xbe;" horiz-adv-x="912" 
d="M259 12l506 700q7 10 17 10h24q14 0 4 -12l-505 -700q-7 -10 -19 -10h-23q-13 0 -4 12zM237 477l2 17q1 9 11 9h30q37 0 61.5 21t30.5 60q6 36 -12.5 58t-53.5 22q-53 0 -97 -44q-6 -8 -10 -1l-13 19q-5 6 2 11q54 54 124 54q53 0 81 -33t19 -86q-11 -66 -65 -97
q59 -29 47 -108q-9 -60 -54 -97q-44 -38 -105 -38q-59 0 -91.5 33t-26.5 87q0 9 9 9h23q8 0 7 -7q-2 -38 21 -60.5t64 -22.5q44 0 75 26.5t38 69.5q6 40 -13 64.5t-58 24.5h-39q-8 0 -7 9zM870 130l-3 -19q-1 -9 -11 -9h-53l-15 -93q-2 -9 -10 -9h-23q-9 0 -8 9l15 93h-220
q-21 0 -6 17l257 312q8 8 18 8h36q9 0 8 -10l-46 -291h53q10 0 8 -8zM593 138h175l41 258z" />
    <glyph glyph-name="questiondown" unicode="&#xbf;" horiz-adv-x="503" 
d="M330 499q3 9 10 9h31q9 0 7 -9q-16 -78 -91 -136q-4 -3 -19.5 -15t-21 -16.5t-19.5 -16t-20.5 -18.5t-17.5 -18.5t-17 -22t-13 -23t-11.5 -26.5t-6.5 -29q-10 -65 23 -104.5t97 -40.5q93 0 165 77q8 6 13 1l15 -20q4 -7 -2 -14q-87 -87 -197 -87q-84 0 -128 51.5
t-31 135.5q15 94 87 153q9 8 43 35.5t48 40.5t32 39.5t24 53.5zM418 661q-3 -18 -16 -29.5t-32 -11.5t-28 11.5t-6 29.5q1 32 34 40q30 7 44 -12q8 -12 4 -28z" />
    <glyph glyph-name="Agrave" unicode="&#xc0;" horiz-adv-x="645" 
d="M588 6l-59 228h-340l-130 -227q-4 -7 -10 -7h-31q-10 0 -4 11l387 673q6 9 14 9h34q9 0 10 -9l175 -673q2 -5 0.5 -8.5t-7.5 -2.5h-31q-6 0 -8 6zM519 275l-95 367l-211 -367h306zM493 719l-165 105q-6 3 -1 12l24 31q5 7 13 2l154 -119q6 -4 0 -12l-13 -17q-6 -6 -12 -2
z" />
    <glyph glyph-name="Aacute" unicode="&#xc1;" horiz-adv-x="645" 
d="M588 6l-59 228h-340l-130 -227q-4 -7 -10 -7h-31q-10 0 -4 11l387 673q6 9 14 9h34q9 0 10 -9l175 -673q2 -5 0.5 -8.5t-7.5 -2.5h-31q-6 0 -8 6zM519 275l-95 367l-211 -367h306zM559 868l14 -32q5 -8 -5 -12l-197 -104q-8 -5 -12 2l-7 16q-4 8 3 12l193 120q7 4 11 -2z
" />
    <glyph glyph-name="Acircumflex" unicode="&#xc2;" horiz-adv-x="645" 
d="M588 6l-59 228h-340l-130 -227q-4 -7 -10 -7h-31q-10 0 -4 11l387 673q6 9 14 9h34q9 0 10 -9l175 -673q2 -5 0.5 -8.5t-7.5 -2.5h-31q-6 0 -8 6zM519 275l-95 367l-211 -367h306zM546 747l-93 76l-118 -76q-7 -4 -14 -4h-40q-14 0 0 10l147 96q8 5 13 5h32q7 0 12 -5
l117 -95q14 -11 -3 -11h-40q-8 0 -13 4z" />
    <glyph glyph-name="Atilde" unicode="&#xc3;" horiz-adv-x="645" 
d="M588 6l-59 228h-340l-130 -227q-4 -7 -10 -7h-31q-10 0 -4 11l387 673q6 9 14 9h34q9 0 10 -9l175 -673q2 -5 0.5 -8.5t-7.5 -2.5h-31q-6 0 -8 6zM519 275l-95 367l-211 -367h306zM330 759q-6 -8 -11 -3l-13 10q-4 2 -2 12q42 83 102 83q22 0 37.5 -13t23 -28.5t20 -28.5
t29.5 -13q36 1 68 63q4 10 11 4l14 -10q5 -7 1 -12q-41 -83 -103 -83q-21 0 -36.5 13t-23 28t-20 28t-28.5 13q-37 -2 -69 -63z" />
    <glyph glyph-name="Adieresis" unicode="&#xc4;" horiz-adv-x="645" 
d="M588 6l-59 228h-340l-130 -227q-4 -7 -10 -7h-31q-10 0 -4 11l387 673q6 9 14 9h34q9 0 10 -9l175 -673q2 -5 0.5 -8.5t-7.5 -2.5h-31q-6 0 -8 6zM519 275l-95 367l-211 -367h306zM322 791q3 20 17.5 32.5t34.5 12.5q19 0 29 -12.5t7 -32.5q-3 -19 -17 -31t-33 -12
q-20 0 -30.5 12t-7.5 31zM486 791q2 33 36 42q32 9 47 -12q10 -12 5 -30q-3 -19 -17.5 -31t-33.5 -12q-20 0 -30 12t-7 31z" />
    <glyph glyph-name="Aring" unicode="&#xc5;" horiz-adv-x="645" 
d="M588 6l-59 228h-340l-130 -227q-4 -7 -10 -7h-31q-10 0 -4 11l387 673q6 9 14 9h34q9 0 10 -9l175 -673q2 -5 0.5 -8.5t-7.5 -2.5h-31q-6 0 -8 6zM519 275l-95 367l-211 -367h306zM354 799q6 40 34.5 65t69.5 25t62.5 -25t14.5 -65q-7 -41 -35.5 -66t-70.5 -25
q-41 0 -61.5 25t-13.5 66zM503 799q5 26 -9 42.5t-41 16.5q-38 4 -59.5 -36t0.5 -66q13 -16 41 -16q27 0 45 16t23 43z" />
    <glyph glyph-name="AE" unicode="&#xc6;" horiz-adv-x="789" 
d="M43 0h-29q-12 0 -5 13l480 672q5 9 16 9h337q11 0 8 -9l-3 -24q-1 -9 -11 -9h-279l-43 -276h231q9 0 7 -8l-4 -25q-2 -9 -10 -9h-231l-46 -292h288q9 0 7 -9l-4 -24q-2 -9 -9 -9h-324q-10 0 -8 11l34 219h-232l-158 -223q-4 -7 -12 -7zM512 650l-268 -378h208z" />
    <glyph glyph-name="Ccedilla" unicode="&#xc7;" horiz-adv-x="693" 
d="M663 82q-112 -92 -265 -92q-158 0 -241 99q-82 98 -56 257q25 163 142 260q116 97 268 97q149 0 235 -93q5 -5 -2 -13l-22 -17q-7 -6 -13 0q-76 79 -205 79q-137 0 -237 -86q-97 -85 -120 -227q-22 -139 49 -226q70 -84 209 -86q128 2 231 79q8 6 12 0l18 -18
q4 -7 -3 -13zM383 0h37l-29 -49q47 -3 69 -20t17 -53q-6 -37 -36.5 -60t-73.5 -23q-51 0 -89 33q-5 5 1 11l12 15q6 6 12 1q34 -26 69 -26q27 0 46 13.5t23 35.5q3 21 -16 29.5t-57 8.5h-25q-9 0 -4 9z" />
    <glyph glyph-name="Egrave" unicode="&#xc8;" horiz-adv-x="509" 
d="M470 333h-279l-46 -291h336q9 0 7 -8l-4 -26q-2 -8 -10 -8h-371q-9 0 -8 10l106 674q1 10 12 10h361q10 0 7 -9l-3 -25q-2 -8 -10 -8h-327l-44 -277h279q10 0 8 -8l-4 -26q-2 -8 -10 -8zM446 719l-165 105q-6 3 -1 12l24 31q5 7 13 2l154 -119q6 -4 0 -12l-13 -17
q-7 -7 -12 -2z" />
    <glyph glyph-name="Eacute" unicode="&#xc9;" horiz-adv-x="509" 
d="M448 333h-279l-46 -291h336q10 0 8 -8l-4 -26q-2 -8 -11 -8h-371q-9 0 -8 10l107 674q1 10 11 10h361q10 0 8 -9l-4 -25q-2 -8 -9 -8h-327l-44 -277h279q10 0 8 -8l-5 -26q0 -8 -10 -8zM512 868l14 -32q4 -7 -5 -12l-197 -104q-8 -5 -12 2l-7 16q-4 7 2 12l193 120
q8 5 12 -2z" />
    <glyph glyph-name="Ecircumflex" unicode="&#xca;" horiz-adv-x="509" 
d="M470 333h-279l-46 -291h336q9 0 7 -8l-4 -26q-2 -8 -10 -8h-371q-9 0 -8 10l106 674q1 10 12 10h361q10 0 7 -9l-3 -25q-2 -8 -10 -8h-327l-44 -277h279q10 0 8 -8l-4 -26q-2 -8 -10 -8zM506 743l-94 76l-117 -76q-7 -4 -14 -4h-40q-16 0 0 10l147 96q8 5 13 5h31
q8 0 13 -5l117 -95q11 -11 -4 -11h-40q-7 0 -12 4z" />
    <glyph glyph-name="Edieresis" unicode="&#xcb;" horiz-adv-x="509" 
d="M470 333h-279l-46 -291h336q9 0 7 -8l-4 -26q-2 -8 -10 -8h-371q-9 0 -8 10l106 674q1 10 12 10h361q10 0 7 -9l-3 -25q-2 -8 -10 -8h-327l-44 -277h279q10 0 8 -8l-4 -26q-2 -8 -10 -8zM314 750q-31 -3 -34.5 28t19.5 49q13 10 29 8q31 3 35 -27q5 -31 -19 -50
q-13 -9 -30 -8zM438 793q2 31 35 40q32 7 46 -13q8 -11 4 -27q-2 -32 -35 -41q-32 -8 -46 13q-8 11 -4 28z" />
    <glyph glyph-name="Igrave" unicode="&#xcc;" horiz-adv-x="231" 
d="M247 685l-108 -677q-2 -8 -10 -8h-27q-10 0 -8 8l108 677q0 9 10 9h27q8 0 8 -9zM285 719l-164 105q-8 3 -1 12l24 31q5 8 12 2l154 -119q6 -4 0 -12l-13 -17q-4 -7 -12 -2z" />
    <glyph glyph-name="Iacute" unicode="&#xcd;" horiz-adv-x="231" 
d="M247 685l-108 -677q-2 -8 -10 -8h-27q-10 0 -8 8l108 677q0 9 10 9h27q8 0 8 -9zM351 868l14 -32q5 -8 -4 -12l-198 -104q-8 -5 -12 2l-7 16q-3 8 3 12l193 120q7 4 11 -2z" />
    <glyph glyph-name="Icircumflex" unicode="&#xce;" horiz-adv-x="231" 
d="M247 685l-108 -677q-2 -8 -10 -8h-27q-10 0 -8 8l108 677q0 9 10 9h27q8 0 8 -9zM228 845l10 15h29q6 0 12 -6l124 -100q16 -11 -3 -11h-43q-5 0 -13 5zM65 753l155 101q5 5 14 5h29l5 -14l-146 -97q-7 -6 -14 -6h-43q-5 0 -7 1.5t0 4.5t7 5z" />
    <glyph glyph-name="Idieresis" unicode="&#xcf;" horiz-adv-x="231" 
d="M247 685l-108 -677q-2 -8 -10 -8h-27q-10 0 -8 8l108 677q0 9 10 9h27q8 0 8 -9zM114 791q3 20 17.5 32.5t34.5 12.5q19 0 29.5 -12.5t6.5 -32.5q-3 -19 -17 -31t-33 -12q-20 0 -30.5 12t-7.5 31zM278 791q4 20 18 32.5t33 12.5q20 0 30 -12.5t7 -32.5q-3 -32 -37 -40
q-32 -8 -47 12q-8 11 -4 28z" />
    <glyph glyph-name="Eth" unicode="&#xd0;" horiz-adv-x="666" 
d="M271 0h-178q-9 0 -8 10l49 312h-52q-9 0 -7 8l4 26q2 8 10 8h52l50 320q1 10 12 10h178q160 0 243 -95q82 -95 57 -252q-24 -158 -137 -253q-112 -94 -273 -94zM179 322l-44 -280h143q140 0 238 83t120 222t-50 222q-71 83 -212 83l-143 1l-45 -289h171q8 0 8 -7l-5 -28
q-1 -7 -10 -7h-171z" />
    <glyph glyph-name="Ntilde" unicode="&#xd1;" horiz-adv-x="725" 
d="M706 694h28q8 0 6 -9l-107 -675q-1 -10 -11 -10h-37q-8 0 -11 6l-337 620l-98 -617q-1 -9 -10 -9h-27q-10 0 -8 9l107 675q1 10 12 10h36q7 0 11 -7l337 -622l98 620q1 9 11 9zM359 757q-5 -8 -12 -4l-13 12q-5 5 -1 11q20 41 48 64t56 23q22 0 38 -13.5t23.5 -30
t20.5 -29.5t30 -12q36 1 70 64q6 9 12 3l13 -11q6 -5 2 -10q-42 -87 -105 -87q-21 0 -37 13.5t-24 29t-21 29t-30 13.5q-39 -2 -70 -65z" />
    <glyph glyph-name="Ograve" unicode="&#xd2;" horiz-adv-x="797" 
d="M97 347q25 160 140 258t274 98t242 -98q82 -97 56 -258t-139 -259q-112 -97 -272 -97q-161 0 -244 98q-82 97 -57 258zM764 347q23 141 -49 226q-72 86 -211 86t-240 -86q-98 -85 -121 -226q-23 -140 50 -226q72 -86 212 -86t238 86q98 85 121 226zM569 719l-165 105
q-8 3 0 12l24 31q5 8 12 2l154 -119q6 -4 0 -12l-13 -17q-4 -7 -12 -2z" />
    <glyph glyph-name="Oacute" unicode="&#xd3;" horiz-adv-x="797" 
d="M97 347q25 160 140 258t274 98t242 -98q82 -97 56 -258t-139 -259q-112 -97 -272 -97q-161 0 -244 98q-82 97 -57 258zM764 347q23 141 -49 226q-72 86 -211 86t-240 -86q-98 -85 -121 -226q-23 -140 50 -226q72 -86 212 -86t238 86q98 85 121 226zM635 868l14 -32
q5 -8 -5 -12l-197 -104q-7 -4 -12 2l-7 16q-3 8 3 12l193 120q7 4 11 -2z" />
    <glyph glyph-name="Ocircumflex" unicode="&#xd4;" horiz-adv-x="797" 
d="M98 348q25 159 139 257q113 98 273 98q159 0 242 -98t57 -257q-26 -162 -138 -259q-113 -98 -274 -98q-159 0 -242 98t-57 259zM143 347q-23 -140 50 -226q72 -86 212 -86q138 0 238 86q99 86 122 226q22 140 -50 226q-73 86 -212 85q-141 0 -239 -85q-99 -85 -121 -226z
M623 748l-94 76l-117 -76q-9 -4 -14 -4h-40q-15 0 -1 10l148 96q8 5 13 5h31q5 0 13 -5l117 -95q11 -11 -4 -11h-40q-7 0 -12 4z" />
    <glyph glyph-name="Otilde" unicode="&#xd5;" horiz-adv-x="797" 
d="M97 347q25 160 140 258t274 98t242 -98q82 -97 56 -258t-139 -259q-112 -97 -272 -97q-161 0 -244 98q-82 97 -57 258zM764 347q23 141 -49 226q-72 86 -211 86t-240 -86q-98 -85 -121 -226q-23 -140 50 -226q72 -86 212 -86t238 86q98 85 121 226zM396 757q-5 -8 -12 -4
l-14 12q-4 4 -1 11q20 41 48 64t56 23q22 0 38.5 -13.5t24 -30t20 -29.5t29.5 -12q36 1 70 64q6 9 12 3l14 -11q4 -2 2 -10q-43 -87 -105 -87q-22 0 -38 13.5t-24 29t-21 29t-29 13.5q-39 -2 -70 -65z" />
    <glyph glyph-name="Odieresis" unicode="&#xd6;" horiz-adv-x="797" 
d="M97 347q25 160 140 258t274 98t242 -98q82 -97 56 -258t-139 -259q-112 -97 -272 -97q-161 0 -244 98q-82 97 -57 258zM764 347q23 141 -49 226q-72 86 -211 86t-240 -86q-98 -85 -121 -226q-23 -140 50 -226q72 -86 212 -86t238 86q98 85 121 226zM398 791
q3 20 17.5 32.5t34.5 12.5q19 0 29.5 -12.5t6.5 -32.5q-3 -19 -17 -31t-33 -12q-20 0 -30.5 12t-7.5 31zM562 791q4 20 18 32.5t33 12.5q20 0 30 -12.5t7 -32.5q-3 -32 -37 -40q-32 -8 -47 12q-8 11 -4 28z" />
    <glyph glyph-name="multiply" unicode="&#xd7;" horiz-adv-x="485" 
d="M264 319l-113 134q-6 6 2 12l20 18q7 6 13 0l112 -134l154 134q8 6 12 0l16 -18q4 -6 -2 -12l-154 -134l111 -133q6 -6 -1 -12l-21 -19q-8 -5 -12 1l-112 133l-155 -133q-8 -6 -12 0l-15 18q-5 6 1 12z" />
    <glyph glyph-name="Oslash" unicode="&#xd8;" horiz-adv-x="785" 
d="M101 347q25 159 139 258q115 98 274 98t242 -98q82 -97 57 -258q-26 -161 -139 -259q-112 -97 -272 -97q-161 0 -244 98q-82 97 -57 258zM409 35q139 0 237 86q99 86 122 226t-50 226q-71 86 -211 86q-139 0 -239 -86q-98 -85 -121 -226q-23 -140 50 -226q72 -86 212 -86
zM74 15l713 676q7 7 13 2l16 -16q5 -5 -4 -14l-712 -675q-8 -8 -12 0l-16 15q-3 4 2 12z" />
    <glyph glyph-name="Ugrave" unicode="&#xd9;" horiz-adv-x="666" 
d="M129 272l65 412q2 9 11 9h27q8 0 7 -9l-65 -413q-18 -110 27 -173t139 -63q92 0 155.5 62.5t81.5 173.5l65 414q2 8 11 8h28q9 0 7 -8l-65 -414q-21 -132 -100 -206t-190 -74q-114 -2 -170 74q-55 74 -34 207zM503 719l-164 105q-8 3 -1 12l24 31q5 8 12 2l154 -119
q6 -4 0 -12l-13 -17q-4 -7 -12 -2z" />
    <glyph glyph-name="Uacute" unicode="&#xda;" horiz-adv-x="666" 
d="M129 272l65 412q2 9 11 9h27q8 0 7 -9l-65 -413q-18 -110 27 -173t139 -63q92 0 155.5 62.5t81.5 173.5l65 414q2 8 11 8h28q9 0 7 -8l-65 -414q-21 -132 -100 -206t-190 -74q-114 -2 -170 74q-55 74 -34 207zM569 868l14 -32q5 -8 -4 -12l-198 -104q-8 -5 -12 2l-7 16
q-3 8 3 12l193 120q7 4 11 -2z" />
    <glyph glyph-name="Ucircumflex" unicode="&#xdb;" horiz-adv-x="666" 
d="M129 272l65 412q1 10 10 10h28q10 -2 8 -10l-65 -413q-18 -110 26.5 -172.5t137.5 -62.5q92 0 155.5 62.5t81.5 172.5l66 414q2 9 10 9h28q10 0 8 -9l-66 -414q-21 -132 -100 -206q-80 -74 -191 -74q-112 -1 -168 74q-55 76 -34 207zM557 751l-93 76l-117 -76
q-9 -4 -15 -4h-39q-15 0 -1 10l148 96q8 5 13 5h31q5 0 13 -5l117 -95q11 -11 -4 -11h-40q-6 0 -13 4z" />
    <glyph glyph-name="Udieresis" unicode="&#xdc;" horiz-adv-x="666" 
d="M129 272l65 412q2 9 11 9h27q8 0 7 -9l-65 -413q-18 -110 27 -173t139 -63q92 0 155.5 62.5t81.5 173.5l65 414q2 8 11 8h28q9 0 7 -8l-65 -414q-21 -132 -100 -206t-190 -74q-114 -2 -170 74q-55 74 -34 207zM332 791q3 20 17.5 32.5t34.5 12.5q19 0 29.5 -12.5
t6.5 -32.5q-3 -19 -17 -31t-33 -12q-20 0 -30.5 12t-7.5 31zM496 791q4 20 18 32.5t33 12.5q20 0 30 -12.5t7 -32.5q-3 -32 -37 -40q-32 -8 -47 12q-8 11 -4 28z" />
    <glyph glyph-name="Yacute" unicode="&#xdd;" 
d="M249 8l43 271l-170 404q-4 10 9 10h33q9 0 12 -8l146 -362l266 362q5 8 14 8h34q10 0 2 -11l-301 -402l-43 -272q0 -8 -10 -8h-27q-8 0 -8 8zM508 868l14 -32q5 -8 -4 -12l-198 -104q-8 -5 -12 2l-7 16q-3 8 3 12l193 120q7 4 11 -2z" />
    <glyph glyph-name="Thorn" unicode="&#xde;" horiz-adv-x="551" 
d="M77 9l107 675q1 10 11 10h28q9 0 7 -9l-23 -148h161q106 0 156.5 -49t36.5 -141q-16 -92 -81.5 -141t-171.5 -49h-161l-25 -148q-2 -9 -10 -9h-27q-9 0 -8 9zM363 495h-163l-46 -296h163q85 -1 136.5 37.5t62.5 109.5q11 72 -28 110.5t-125 38.5z" />
    <glyph glyph-name="germandbls" unicode="&#xdf;" horiz-adv-x="577" 
d="M283 42q36 -24 79 -24q54 0 95 32t49 80q6 37 -10 68t-42 52.5t-53 41t-44 43t-13 49.5q4 24 27 47.5t49.5 39.5t49.5 39.5t27 47.5q8 48 -22.5 75t-86.5 27q-153 0 -191 -245l-65 -406q-2 -9 -10 -9h-27q-9 0 -8 9l74 467q17 101 77 164q62 65 157 65q70 0 113 -40
q45 -39 34 -107q-5 -32 -27.5 -60.5t-51.5 -44.5q-68 -41 -74 -71q-3 -16 15 -34t44.5 -37t53 -42t41.5 -58.5t8 -78.5q-10 -69 -68 -114q-55 -45 -127 -45q-53 0 -97 26q-8 3 -4 13l15 27q5 8 13 3z" />
    <glyph glyph-name="agrave" unicode="&#xe0;" horiz-adv-x="577" 
d="M515 338l21 97q3 9 10 9h18q8 0 7 -9l-68 -427q-2 -8 -10 -8h-17q-10 0 -8 8l10 97q-36 -55 -91.5 -85t-123.5 -30q-103 0 -155 64q-52 63 -35 168q17 104 89 167q73 64 175 64q68 0 114.5 -30t63.5 -85zM114 222q-14 -86 30 -138.5t129 -52.5q86 0 147 52t76 139
q13 86 -32 138t-131 52q-84 0 -146 -53q-60 -52 -73 -137zM403 534l-135 110q-8 6 0 11l28 30q8 7 12 0l124 -125q3 -4 -2 -11l-16 -14q-6 -6 -11 -1z" />
    <glyph glyph-name="aacute" unicode="&#xe1;" horiz-adv-x="577" 
d="M515 338l21 97q3 9 10 9h18q8 0 7 -9l-68 -427q-2 -8 -10 -8h-17q-10 0 -8 8l10 97q-36 -55 -91.5 -85t-123.5 -30q-103 0 -155 64q-52 63 -35 168q17 104 89 167q73 64 175 64q68 0 114.5 -30t63.5 -85zM114 222q-14 -86 30 -138.5t129 -52.5q86 0 147 52t76 139
q13 86 -32 138t-131 52q-84 0 -146 -53q-60 -52 -73 -137zM487 675l20 -30q4 -7 -4 -12l-175 -114q-8 -5 -13 0l-9 16q-5 8 2 12l167 128q9 7 12 0z" />
    <glyph glyph-name="acircumflex" unicode="&#xe2;" horiz-adv-x="577" 
d="M515 338l21 97q3 9 10 9h18q8 0 7 -9l-68 -427q-2 -8 -10 -8h-17q-10 0 -8 8l10 97q-36 -55 -91.5 -85t-123.5 -30q-103 0 -155 64q-52 63 -35 168q17 104 89 167q73 64 175 64q68 0 114.5 -30t63.5 -85zM114 222q-14 -86 30 -138.5t129 -52.5q86 0 147 52t76 139
q13 86 -32 138t-131 52q-84 0 -146 -53q-60 -52 -73 -137zM218 530l128 133q4 7 14 7h32q6 0 13 -7l84 -132q5 -8 -5 -8h-33q-6 0 -9 4l-71 112l-106 -111q-5 -5 -12 -5h-32q-9 0 -3 7z" />
    <glyph glyph-name="atilde" unicode="&#xe3;" horiz-adv-x="602" 
d="M540 338l21 97q3 9 10 9h18q9 0 7 -9l-68 -427q-2 -8 -10 -8h-17q-10 0 -8 8l10 97q-36 -55 -91.5 -85t-123.5 -30q-103 0 -155 64q-52 63 -35 168q17 104 89 167q73 64 175 64q68 0 114.5 -30t63.5 -85zM139 222q-14 -86 30 -138.5t129 -52.5q86 0 147 52t76 139
q13 86 -32 138t-131 52q-84 0 -146 -53q-60 -52 -73 -137zM258 559q-4 -9 -12 -4l-14 12q-4 4 -1 10q43 87 106 87q22 0 37.5 -13.5t23 -29t20.5 -29t30 -13.5q37 1 71 65q4 8 11 4l15 -13q5 -3 0 -9q-18 -41 -46.5 -64t-58.5 -23q-22 0 -38 13t-24 29t-21 29t-29 13
q-36 -2 -70 -64z" />
    <glyph glyph-name="adieresis" unicode="&#xe4;" horiz-adv-x="577" 
d="M515 338l21 97q3 9 10 9h18q8 0 7 -9l-68 -427q-2 -8 -10 -8h-17q-10 0 -8 8l10 97q-36 -55 -91.5 -85t-123.5 -30q-103 0 -155 64q-52 63 -35 168q17 104 89 167q73 64 175 64q68 0 114.5 -30t63.5 -85zM114 222q-14 -86 30 -138.5t129 -52.5q86 0 147 52t76 139
q13 86 -32 138t-131 52q-84 0 -146 -53q-60 -52 -73 -137zM302 662q19 0 29.5 -12.5t6.5 -32.5q-3 -19 -17 -31t-33 -12q-43 0 -37 43q3 20 17 32.5t34 12.5zM414 617q2 34 36 42q32 9 48 -12q9 -13 5 -30q-3 -19 -17.5 -31t-34.5 -12t-30 12t-7 31z" />
    <glyph glyph-name="aring" unicode="&#xe5;" horiz-adv-x="577" 
d="M515 338l21 97q3 9 10 9h18q8 0 7 -9l-68 -427q-2 -8 -10 -8h-17q-10 0 -8 8l10 97q-36 -55 -91.5 -85t-123.5 -30q-103 0 -155 64q-52 63 -35 168q17 104 89 167q73 64 175 64q68 0 114.5 -30t63.5 -85zM114 222q-14 -86 30 -138.5t129 -52.5q86 0 147 52t76 139
q13 86 -32 138t-131 52q-84 0 -146 -53q-60 -52 -73 -137zM269 607q7 41 35.5 65.5t68.5 24.5q41 0 62 -24.5t15 -65.5q-7 -41 -36 -66t-70 -25q-40 0 -60.5 25t-14.5 66zM419 607q4 26 -10 42.5t-40 16.5t-45 -16.5t-23 -42.5t9.5 -42.5t39.5 -16.5t45 16.5t24 42.5z" />
    <glyph glyph-name="ae" unicode="&#xe6;" horiz-adv-x="942" 
d="M846 89q8 7 13 2l17 -18q4 -5 -3 -12q-74 -71 -191 -71q-134 0 -176 101l-7 -43q-5 -34 -6 -39q-1 -9 -9 -9h-19q-9 0 -7 8l9 92q-71 -110 -204 -110q-103 0 -155 64q-52 63 -35 168q17 104 89 167q73 64 175 64q133 0 168 -110l21 92q3 9 10 9h18q8 0 7 -9l-13 -79
q70 97 197 97q105 0 157 -66q53 -67 34 -176q-2 -8 -11 -8h-398q-6 -80 36.5 -126t125.5 -46q96 0 157 58zM273 31q83 0 140.5 51.5t72.5 140.5q13 85 -29 137t-124 52q-84 0 -146 -53q-60 -52 -73 -137q-14 -86 30 -138.5t129 -52.5zM533 241h367q6 77 -38 124t-124 47
q-78 0 -132.5 -46t-72.5 -125z" />
    <glyph glyph-name="ccedilla" unicode="&#xe7;" horiz-adv-x="498" 
d="M473 85q-77 -95 -207 -95q-103 0 -157 64q-53 64 -36 168q18 110 96 171q77 61 172 61q58 0 105.5 -25t70.5 -71q3 -8 -3 -13l-21 -16q-7 -5 -12 3q-42 81 -148 81q-84 0 -145 -53t-74 -138q-14 -86 30 -138.5t129 -52.5q109 0 173 81q8 9 12 3l18 -17q5 -5 -3 -13z
M235 0h37l-28 -49q47 -3 69 -20t16 -53q-6 -37 -36.5 -60t-73.5 -23q-51 0 -89 33q-5 5 1 11l13 15q4 5 11 1q35 -26 69 -26q27 0 46 13.5t23 35.5q3 21 -16 29.5t-57 8.5h-25q-9 0 -4 9z" />
    <glyph glyph-name="egrave" unicode="&#xe8;" horiz-adv-x="537" 
d="M118 241h377q6 78 -37.5 124.5t-124.5 46.5q-80 0 -138.5 -46.5t-76.5 -124.5zM521 203h-409q-6 -78 41 -125t131 -47q96 0 157 58q10 7 14 2l17 -18q4 -5 -3 -12q-77 -71 -192 -71q-108 0 -165 64q-56 64 -39 168q16 102 90 167q73 64 177 64q106 0 158 -65t35 -175
q-1 -10 -12 -10zM396 533l-135 110q-7 6 0 12l27 29q8 6 13 0l123 -125q3 -4 -1 -11l-17 -14q-5 -6 -10 -1z" />
    <glyph glyph-name="eacute" unicode="&#xe9;" horiz-adv-x="537" 
d="M118 241h377q6 78 -37.5 124.5t-124.5 46.5q-80 0 -138.5 -46.5t-76.5 -124.5zM521 203h-409q-6 -78 41 -125t131 -47q96 0 157 58q10 7 14 2l17 -18q4 -5 -3 -12q-77 -71 -192 -71q-108 0 -165 64q-56 64 -39 168q16 102 90 167q73 64 177 64q106 0 158 -65t35 -175
q-1 -10 -12 -10zM463 677l19 -29q5 -8 -4 -11l-171 -112q-7 -5 -12 0l-9 16q-4 6 2 12l163 124q7 6 12 0z" />
    <glyph glyph-name="ecircumflex" unicode="&#xea;" horiz-adv-x="536" 
d="M118 241h377q6 78 -37.5 124.5t-124.5 46.5q-80 0 -138.5 -46.5t-76.5 -124.5zM521 203h-409q-6 -78 41 -125t131 -47q96 0 157 58q10 7 14 2l16 -18q5 -5 -3 -12q-77 -71 -191 -71q-108 0 -165 64q-56 64 -39 168t90 167q73 64 176 64q107 0 159 -65t34 -175
q0 -10 -11 -10zM216 530l128 133q4 7 14 7h32q6 0 13 -7l84 -132q6 -8 -5 -8h-33q-5 0 -9 4l-71 113l-106 -112q-5 -5 -12 -5h-32q-10 0 -3 7z" />
    <glyph glyph-name="edieresis" unicode="&#xeb;" horiz-adv-x="537" 
d="M118 241h377q6 78 -37.5 124.5t-124.5 46.5q-80 0 -138.5 -46.5t-76.5 -124.5zM521 203h-409q-6 -78 41 -125t131 -47q96 0 157 58q10 7 14 2l17 -18q4 -5 -3 -12q-77 -71 -192 -71q-108 0 -165 64q-56 64 -39 168q16 102 90 167q73 64 177 64q106 0 158 -65t35 -175
q-1 -10 -12 -10zM291 658q19 0 29.5 -12.5t6.5 -31.5q-3 -20 -17 -32t-33 -12q-32 -3 -36.5 28.5t19.5 50.5q14 11 31 9zM403 614q2 32 36 42q32 8 48 -12q9 -12 5 -30q-3 -20 -17.5 -32t-34.5 -12t-30 12t-7 32z" />
    <glyph glyph-name="igrave" unicode="&#xec;" horiz-adv-x="207" 
d="M193 435l-68 -426q-1 -9 -9 -9h-24q-8 0 -7 9l67 426q2 9 10 9h24q8 -2 7 -9zM233 527l-134 111q-8 5 0 11l27 30q8 5 12 0l124 -126q3 -5 -2 -10l-16 -15q-4 -2 -11 -1z" />
    <glyph glyph-name="iacute" unicode="&#xed;" horiz-adv-x="207" 
d="M193 435l-68 -426q-1 -9 -9 -9h-24q-8 0 -7 9l67 426q2 9 10 9h24q8 -2 7 -9zM301 672l18 -28q4 -6 -3 -13l-172 -110q-7 -7 -11 0l-10 15q-5 4 2 11l164 125q9 8 12 0z" />
    <glyph glyph-name="icircumflex" unicode="&#xee;" horiz-adv-x="207" 
d="M193 435l-68 -426q-1 -9 -9 -9h-24q-8 0 -7 9l67 426q2 9 10 9h24q8 -2 7 -9zM42 521l134 140q7 7 16 7h34q8 0 12 -7l89 -139q6 -9 -5 -9h-35q-6 0 -9 5l-75 118l-112 -117q-5 -6 -12 -6h-34q-11 0 -3 8z" />
    <glyph glyph-name="idieresis" unicode="&#xef;" horiz-adv-x="207" 
d="M193 435l-68 -426q-1 -9 -9 -9h-24q-8 0 -7 9l67 426q2 9 10 9h24q8 -2 7 -9zM124 655q19 0 29 -12.5t7 -31.5q-3 -20 -17 -32t-33 -12q-32 -3 -36.5 28.5t19.5 50.5q14 11 31 9zM243 579q-10 12 -7 32t17 32t34 12t30 -12q11 -12 8 -32t-18 -32q-14 -12 -34 -12t-30 12z
" />
    <glyph glyph-name="eth" unicode="&#xf0;" horiz-adv-x="539" 
d="M267 -10q-95 0 -144 58t-34 154t82 153t163 57q90 0 135 -58q-20 112 -92 199l-140 -65q-6 -3 -10 1l-14 17q-5 7 5 11l134 63q-49 49 -112 80q-9 4 -4 12l16 24q5 8 14 3q77 -37 133 -96l112 53q7 3 12 -2l13 -16q4 -7 -5 -11l-110 -52q62 -78 86 -177t6 -203
q-16 -91 -85 -149q-68 -56 -161 -56zM471 204q11 76 -27 121.5t-116 45.5q-76 0 -129.5 -46.5t-65.5 -123.5q-12 -76 27 -122.5t114 -46.5t130 47t67 125z" />
    <glyph glyph-name="ntilde" unicode="&#xf1;" 
d="M81 8l68 427q2 8 9 8h18q8 0 8 -8l-10 -101q28 56 76.5 87.5t110.5 31.5q85 0 123 -50t22 -148l-39 -246q-1 -9 -9 -9h-25q-9 0 -7 9l39 247q12 77 -18 116.5t-97 39.5q-68 0 -123 -53q-53 -53 -70 -133l-34 -218q-2 -8 -9 -8h-25q-10 0 -8 8zM242 564q-4 -9 -12 -4
l-13 12q-4 4 -1 9q43 87 102 85q21 0 36.5 -13t23 -29t20 -28.5t29.5 -11.5q37 0 69 63q4 8 11 4l14 -13q4 -1 2 -8q-41 -86 -103 -86q-21 0 -37 13t-24 28.5t-20.5 28.5t-28.5 13q-37 -2 -68 -63z" />
    <glyph glyph-name="ograve" unicode="&#xf2;" horiz-adv-x="537" 
d="M73 222q16 102 90 167q73 64 177 64q103 0 157 -64q54 -63 37 -167q-16 -102 -91 -168q-73 -64 -177 -64q-103 0 -157 64q-53 64 -36 168zM114 222q-14 -86 30 -138.5t129 -52.5q86 0 145 52q61 52 75 139q13 84 -31 138q-43 52 -129 52q-84 0 -146 -53q-60 -52 -73 -137
zM381 533l-135 110q-8 6 0 12l27 29q8 6 13 0l123 -125q3 -4 -1 -11l-17 -14q-5 -6 -10 -1z" />
    <glyph glyph-name="oacute" unicode="&#xf3;" horiz-adv-x="537" 
d="M73 222q16 102 90 167q73 64 177 64q103 0 157 -64q54 -63 37 -167q-16 -102 -91 -168q-73 -64 -177 -64q-103 0 -157 64q-53 64 -36 168zM114 222q-14 -86 30 -138.5t129 -52.5q86 0 145 52q61 52 75 139q13 84 -31 138q-43 52 -129 52q-84 0 -146 -53q-60 -52 -73 -137
zM462 676l20 -29q5 -8 -4 -11l-171 -112q-7 -4 -12 0l-9 16q-5 6 2 12l163 124q7 7 11 0z" />
    <glyph glyph-name="ocircumflex" unicode="&#xf4;" horiz-adv-x="537" 
d="M73 222q16 102 90 167q73 64 177 64q103 0 157 -64q54 -63 37 -167q-16 -102 -91 -168q-73 -64 -177 -64q-103 0 -157 64q-53 64 -36 168zM114 222q-14 -86 30 -138.5t129 -52.5q86 0 145 52q61 52 75 139q13 84 -31 138q-43 52 -129 52q-84 0 -146 -53q-60 -52 -73 -137
zM216 530l128 133q4 6 14 6h33q7 0 12 -6l84 -132q6 -9 -5 -9h-33q-4 0 -9 5l-70 112l-107 -111q-5 -6 -12 -6h-32q-9 0 -3 8z" />
    <glyph glyph-name="otilde" unicode="&#xf5;" horiz-adv-x="537" 
d="M73 222q16 102 90 167q73 64 177 64q103 0 157 -64q54 -63 37 -167q-16 -102 -91 -168q-73 -64 -177 -64q-103 0 -157 64q-53 64 -36 168zM114 222q-14 -86 30 -138.5t129 -52.5q86 0 145 52q61 52 75 139q13 84 -31 138q-43 52 -129 52q-84 0 -146 -53q-60 -52 -73 -137
zM231 553q-4 -10 -12 -4l-14 12q-4 4 -1 10q44 87 106 87q22 0 37.5 -13.5t23 -29.5t20.5 -29t30 -12q37 0 71 64q4 8 11 4l15 -13q4 -1 1 -9q-41 -87 -105 -87q-22 0 -38 13t-24 29t-21 29t-29 13q-37 -2 -71 -64z" />
    <glyph glyph-name="odieresis" unicode="&#xf6;" horiz-adv-x="537" 
d="M73 222q16 102 90 167q73 64 177 64q103 0 157 -64q54 -63 37 -167q-16 -102 -91 -168q-73 -64 -177 -64q-103 0 -157 64q-53 64 -36 168zM114 222q-14 -86 30 -138.5t129 -52.5q86 0 145 52q61 52 75 139q13 84 -31 138q-43 52 -129 52q-84 0 -146 -53q-60 -52 -73 -137
zM329 621q-4 -20 -18 -31.5t-33 -11.5q-19 -2 -29.5 11t-7.5 32t17 32q23 22 51 10t20 -42zM405 621q3 20 17 32.5t33 12.5q20 0 30.5 -12.5t7.5 -32.5q-3 -19 -17.5 -31t-34.5 -12q-19 0 -29.5 12t-6.5 31z" />
    <glyph glyph-name="divide" unicode="&#xf7;" horiz-adv-x="539" 
d="M291 439q3 21 18 34t37 13t33 -13t8 -34q-4 -22 -19 -35.5t-37 -13.5t-33 13.5t-7 35.5zM246 158q4 22 19 35t37 13t33 -13t7 -35q-3 -21 -18.5 -34.5t-37.5 -13.5q-21 0 -32 13.5t-8 34.5zM121 282l4 26q2 10 10 8h370q9 0 7 -8l-4 -26q-2 -8 -10 -8h-370q-9 0 -7 8z
" />
    <glyph glyph-name="oslash" unicode="&#xf8;" horiz-adv-x="537" 
d="M473 412l53 49q7 7 12 2l16 -16q5 -6 -2 -13l-52 -49q50 -64 34 -163q-16 -102 -91 -168q-73 -64 -177 -64q-85 0 -136 45l-53 -49q-7 -6 -14 -2l-14 16q-5 6 2 13l53 50q-46 61 -31 159q16 102 90 167q73 64 177 64q80 0 133 -41zM466 353l-302 -286q41 -35 109 -35
q86 0 145 52q61 53 74 138q13 81 -26 131zM138 95l301 285q-41 31 -106 31q-86 0 -145 -52q-60 -54 -73 -137q-12 -77 23 -127z" />
    <glyph glyph-name="ugrave" unicode="&#xf9;" 
d="M432 8l10 101q-63 -119 -187 -119q-85 0 -123 50t-23 148l39 246q2 9 9 9h25q8 0 7 -9l-39 -247q-12 -77 18 -116.5t97 -39.5q68 0 123 53q53 52 70 133l35 218q2 8 9 8h25q9 0 7 -8l-68 -427q-2 -8 -9 -8h-17q-10 0 -8 8zM397 522l-134 111q-8 5 0 11l27 30q8 4 12 0
l124 -126q3 -5 -2 -10l-16 -15q-4 -2 -11 -1z" />
    <glyph glyph-name="uacute" unicode="&#xfa;" 
d="M432 8l10 101q-63 -119 -187 -119q-85 0 -123 50t-23 148l39 246q2 9 9 9h25q8 0 7 -9l-39 -247q-12 -77 18 -116.5t97 -39.5q68 0 123 53q53 52 70 133l35 218q2 8 9 8h25q9 0 7 -8l-68 -427q-2 -8 -9 -8h-17q-10 0 -8 8zM460 670l19 -29q4 -7 -4 -12l-170 -111
q-8 -5 -13 0l-9 15q-4 7 2 13l163 124q9 8 12 0z" />
    <glyph glyph-name="ucircumflex" unicode="&#xfb;" 
d="M432 8l10 101q-63 -119 -187 -119q-85 0 -123 50t-23 148l39 246q2 9 9 9h25q8 0 7 -9l-39 -247q-12 -77 18 -116.5t97 -39.5q68 0 123 53q53 52 70 133l35 218q2 8 9 8h25q9 0 7 -8l-68 -427q-2 -8 -9 -8h-17q-10 0 -8 8zM216 527l131 136q4 7 14 7h34q8 0 12 -7
l87 -136q6 -8 -5 -8h-35q-4 0 -9 5l-72 115l-110 -114q-3 -6 -11 -6h-33q-11 0 -3 8z" />
    <glyph glyph-name="udieresis" unicode="&#xfc;" 
d="M432 8l10 101q-63 -119 -187 -119q-85 0 -123 50t-23 148l39 246q2 9 9 9h25q8 0 7 -9l-39 -247q-12 -77 18 -116.5t97 -39.5q68 0 123 53q53 52 70 133l35 218q2 8 9 8h25q9 0 7 -8l-68 -427q-2 -8 -9 -8h-17q-10 0 -8 8zM294 655q19 0 29.5 -12t7.5 -32
q-2 -30 -33.5 -41t-47.5 9q-17 19 -1 49.5t45 26.5zM457 655q20 0 30.5 -12t7.5 -32t-17.5 -32t-34.5 -12q-31 -3 -35 28.5t19 50.5q14 10 30 9z" />
    <glyph glyph-name="yacute" unicode="&#xfd;" horiz-adv-x="443" 
d="M461 443h29q11 0 4 -13l-374 -649q-4 -9 -13 -9h-25q-12 0 -3 13l125 220l-119 425q-4 13 8 13h29q8 0 10 -9l100 -379l217 379q5 9 12 9zM427 656l19 -29q6 -8 -3 -11l-171 -112q-8 -4 -12 0l-9 16q-5 6 2 12l163 124q7 7 11 0z" />
    <glyph glyph-name="thorn" unicode="&#xfe;" horiz-adv-x="578" 
d="M197 722h25q10 0 8 -9l-60 -378q34 56 90 87t126 31q102 0 154 -64q53 -63 36 -167q-16 -104 -90 -168q-71 -64 -174 -64q-69 0 -115 31t-63 88l-52 -328q-2 -9 -10 -9h-25q-9 0 -7 9l148 932q2 9 9 9zM535 222q13 84 -31 138q-43 52 -129 52t-148 -52q-61 -52 -75 -138
t32 -139q45 -52 131 -52t145 52q61 52 75 139z" />
    <glyph glyph-name="ydieresis" unicode="&#xff;" horiz-adv-x="443" 
d="M461 443h29q11 0 4 -13l-374 -649q-4 -9 -13 -9h-25q-12 0 -3 13l125 220l-119 425q-4 13 8 13h29q8 0 10 -9l100 -379l217 379q5 9 12 9zM237 646q19 0 29 -12.5t7 -32.5q-3 -19 -17 -31t-33 -12q-43 0 -37 43q3 20 17 32.5t34 12.5zM349 601q2 33 36 42q32 9 48 -12
q9 -12 5 -30q-3 -31 -37 -40q-33 -9 -48 12q-8 11 -4 28z" />
    <glyph glyph-name="Amacron" unicode="&#x100;" horiz-adv-x="645" 
d="M588 6l-59 228h-340l-130 -227q-4 -7 -10 -7h-31q-10 0 -4 11l387 673q6 9 14 9h34q9 0 10 -9l175 -673q2 -5 0.5 -8.5t-7.5 -2.5h-31q-6 0 -8 6zM519 275l-95 367l-211 -367h306zM337 807h228q9 0 7 -8l-4 -26q-2 -9 -10 -9h-228q-8 0 -7 9l4 26q2 8 10 8z" />
    <glyph glyph-name="amacron" unicode="&#x101;" horiz-adv-x="577" 
d="M515 338l21 97q3 9 10 9h18q8 0 7 -9l-68 -427q-2 -8 -10 -8h-17q-10 0 -8 8l10 97q-36 -55 -91.5 -85t-123.5 -30q-103 0 -155 64q-52 63 -35 168q17 104 89 167q73 64 175 64q68 0 114.5 -30t63.5 -85zM114 222q-14 -86 30 -138.5t129 -52.5q86 0 147 52t76 139
q13 86 -32 138t-131 52q-84 0 -146 -53q-60 -52 -73 -137zM255 627h228q9 0 7 -9l-4 -26q-2 -8 -10 -8h-228q-9 0 -7 8l4 26q1 9 10 9z" />
    <glyph glyph-name="Abreve" unicode="&#x102;" horiz-adv-x="645" 
d="M588 6l-59 228h-340l-130 -227q-4 -7 -10 -7h-31q-10 0 -4 11l387 673q6 9 14 9h34q9 0 10 -9l175 -673q2 -5 0.5 -8.5t-7.5 -2.5h-31q-6 0 -8 6zM519 275l-95 367l-211 -367h306zM574 859l23 1q7 0 6 -10q-11 -53 -56 -86t-108 -33q-62 0 -96.5 33t-29.5 86q1 10 9 10
h25q6 0 6 -10q-1 -37 23.5 -57.5t68.5 -20.5q46 0 77 20.5t42 57.5q3 9 10 9z" />
    <glyph glyph-name="abreve" unicode="&#x103;" horiz-adv-x="577" 
d="M515 338l21 97q3 9 10 9h18q8 0 7 -9l-68 -427q-2 -8 -10 -8h-17q-10 0 -8 8l10 97q-36 -55 -91.5 -85t-123.5 -30q-103 0 -155 64q-52 63 -35 168q17 104 89 167q73 64 175 64q68 0 114.5 -30t63.5 -85zM114 222q-14 -86 30 -138.5t129 -52.5q86 0 147 52t76 139
q13 86 -32 138t-131 52q-84 0 -146 -53q-60 -52 -73 -137zM481 685h25q6 0 5 -9q-12 -63 -56 -101.5t-105 -38.5q-59 0 -90.5 38.5t-24.5 101.5q1 9 9 9h24q8 0 6 -8q-3 -44 19.5 -72.5t63.5 -28.5q40 0 71.5 28.5t43.5 72.5q2 8 9 8z" />
    <glyph glyph-name="Aogonek" unicode="&#x104;" horiz-adv-x="645" 
d="M588 6l-59 228h-340l-130 -227q-4 -7 -10 -7h-31q-10 0 -4 11l387 673q6 9 14 9h34q9 0 10 -9l175 -673q2 -5 0.5 -8.5t-7.5 -2.5h-31q-6 0 -8 6zM519 275l-95 367l-211 -367h306zM650 -176q-33 -36 -88 -36q-41 0 -63.5 23.5t-16.5 61.5q7 39 42 74q22 22 33 31l17 14
l18 13l16 12l24 -16q-60 -48 -82.5 -73.5t-26.5 -52.5q-4 -23 8.5 -37t36.5 -14q33 0 55 22q10 6 14 3l15 -13q5 -5 -2 -12z" />
    <glyph glyph-name="aogonek" unicode="&#x105;" horiz-adv-x="577" 
d="M515 338l21 97q3 9 10 9h18q8 0 7 -9l-68 -427q-2 -8 -10 -8h-17q-10 0 -8 8l10 97q-36 -55 -91.5 -85t-123.5 -30q-103 0 -155 64q-52 63 -35 168q17 104 89 167q73 64 175 64q68 0 114.5 -30t63.5 -85zM114 222q-14 -86 30 -138.5t129 -52.5q86 0 147 52t76 139
q13 86 -32 138t-131 52q-84 0 -146 -53q-60 -52 -73 -137zM521 -164q-33 -35 -86 -35q-41 0 -62.5 23t-15.5 60q0 5 11 34q15 26 38 46l30 27l15 11q2 2 15 12l14 10l21 -18q-37 -29 -55 -45q-44 -40 -50 -75q-4 -22 8.5 -36t35.5 -14q30 0 55 21q7 7 13 2l14 -12
q5 -5 -1 -11z" />
    <glyph glyph-name="Cacute" unicode="&#x106;" horiz-adv-x="693" 
d="M663 82q-112 -92 -265 -92q-158 0 -241 99q-82 98 -56 257q25 163 142 260q116 97 268 97q149 0 235 -93q5 -5 -2 -13l-22 -17q-7 -6 -13 0q-76 79 -205 79q-137 0 -237 -86q-97 -85 -120 -227q-22 -139 49 -226q70 -84 209 -86q128 2 231 79q8 6 12 0l18 -18
q4 -7 -3 -13zM605 868l14 -32q3 -7 -5 -12l-198 -104q-7 -4 -11 2l-8 16q-3 8 3 12l193 120q7 4 12 -2z" />
    <glyph glyph-name="cacute" unicode="&#x107;" horiz-adv-x="498" 
d="M473 85q-77 -95 -207 -95q-103 0 -157 64q-53 64 -36 168q18 110 96 171q77 61 172 61q58 0 105.5 -25t70.5 -71q3 -8 -3 -13l-21 -16q-7 -5 -12 3q-42 81 -148 81q-84 0 -145 -53t-74 -138q-14 -86 30 -138.5t129 -52.5q109 0 173 81q8 9 12 3l18 -17q5 -5 -3 -13z
M469 678l19 -29q4 -7 -4 -12l-170 -111q-9 -4 -13 0l-9 16q-4 6 2 12l163 124q7 6 12 0z" />
    <glyph glyph-name="Ccircumflex" unicode="&#x108;" horiz-adv-x="693" 
d="M663 82q-112 -92 -265 -92q-158 0 -241 99q-82 98 -56 257q25 163 142 260q116 97 268 97q149 0 235 -93q5 -5 -2 -13l-22 -17q-7 -6 -13 0q-76 79 -205 79q-137 0 -237 -86q-97 -85 -120 -227q-22 -139 49 -226q70 -84 209 -86q128 2 231 79q8 6 12 0l18 -18
q4 -7 -3 -13zM597 748l-98 80l-124 -80q-8 -5 -14 -5h-42q-5 0 -7.5 1.5t-0.5 4.5t7 5l155 101q8 5 14 5h33q8 0 13 -5l123 -100q14 -12 -3 -12h-42q-6 0 -14 5z" />
    <glyph glyph-name="ccircumflex" unicode="&#x109;" horiz-adv-x="498" 
d="M473 85q-77 -95 -207 -95q-103 0 -157 64q-53 64 -36 168q18 110 96 171q77 61 172 61q58 0 105.5 -25t70.5 -71q3 -8 -3 -13l-21 -16q-7 -5 -12 3q-42 81 -148 81q-84 0 -145 -53t-74 -138q-14 -86 30 -138.5t129 -52.5q109 0 173 81q8 9 12 3l18 -17q5 -5 -3 -13z
M208 530l128 133q6 6 14 6h32q6 0 13 -6l84 -132q6 -9 -5 -9h-33q-6 0 -9 5l-71 112l-106 -111q-5 -6 -12 -6h-32q-9 0 -3 8z" />
    <glyph glyph-name="Cdotaccent" unicode="&#x10a;" horiz-adv-x="693" 
d="M663 82q-112 -92 -265 -92q-158 0 -241 99q-82 98 -56 257q25 163 142 260q116 97 268 97q149 0 235 -93q5 -5 -2 -13l-22 -17q-7 -6 -13 0q-76 79 -205 79q-137 0 -237 -86q-97 -85 -120 -227q-22 -139 49 -226q70 -84 209 -86q128 2 231 79q8 6 12 0l18 -18
q4 -7 -3 -13zM455 804q3 18 16.5 29t30.5 11q19 0 28.5 -11t6.5 -29q-2 -31 -34 -39q-31 -8 -45 13q-7 11 -3 26z" />
    <glyph glyph-name="cdotaccent" unicode="&#x10b;" horiz-adv-x="498" 
d="M473 85q-77 -95 -207 -95q-103 0 -157 64q-53 64 -36 168q18 110 96 171q77 61 172 61q58 0 105.5 -25t70.5 -71q3 -8 -3 -13l-21 -16q-7 -5 -12 3q-42 81 -148 81q-84 0 -145 -53t-74 -138q-14 -86 30 -138.5t129 -52.5q109 0 173 81q8 9 12 3l18 -17q5 -5 -3 -13z
M316 603q8 39 45 39q18 0 27 -11t6 -28q-3 -18 -15.5 -28.5t-29.5 -10.5q-18 0 -27 10.5t-6 28.5z" />
    <glyph glyph-name="Ccaron" unicode="&#x10c;" horiz-adv-x="693" 
d="M663 82q-112 -92 -265 -92q-158 0 -241 99q-82 98 -56 257q25 163 142 260q116 97 268 97q149 0 235 -93q5 -5 -2 -13l-22 -17q-7 -6 -13 0q-76 79 -205 79q-137 0 -237 -86q-97 -85 -120 -227q-22 -139 49 -226q70 -84 209 -86q128 2 231 79q8 6 12 0l18 -18
q4 -7 -3 -13zM391 845l98 -81l124 81q8 5 14 5h42q19 0 0 -12l-154 -100q-8 -5 -15 -5h-33q-7 0 -12 5l-122 100q-13 12 3 12h41q6 0 14 -5z" />
    <glyph glyph-name="ccaron" unicode="&#x10d;" horiz-adv-x="498" 
d="M473 85q-77 -95 -207 -95q-103 0 -157 64q-53 64 -36 168q18 110 96 171q77 61 172 61q58 0 105.5 -25t70.5 -71q3 -8 -3 -13l-21 -16q-7 -5 -12 3q-42 81 -148 81q-84 0 -145 -53t-74 -138q-14 -86 30 -138.5t129 -52.5q109 0 173 81q8 9 12 3l18 -17q5 -5 -3 -13z
M240 669h31q5 0 11 -6l70 -112l107 112q6 6 11 6h32q12 0 3 -9l-127 -132q-6 -6 -13 -6h-33q-8 0 -13 6l-84 132q-7 9 5 9z" />
    <glyph glyph-name="Dcaron" unicode="&#x10e;" horiz-adv-x="665" 
d="M384 652l-143 1l-97 -611h143q141 0 239 83q98 82 121 222q21 139 -51 222q-71 83 -212 83zM281 0h-178q-10 0 -9 10l107 674q1 10 12 10h178q160 0 243 -95q82 -95 57 -252q-26 -160 -137 -253q-112 -94 -273 -94zM361 845l98 -81l124 81q8 5 15 5h42q15 0 2 -10l-3 -2
l-154 -100q-8 -5 -15 -5h-33q-7 0 -12 5l-122 100q-14 12 4 12h41q5 0 13 -5z" />
    <glyph glyph-name="dcaron" unicode="&#x10f;" horiz-adv-x="712" 
d="M263 -10q-103 0 -155 64q-52 63 -35 168q17 104 89 167q73 64 175 64q68 0 114.5 -30t63.5 -84l59 374q2 9 9 9h25q8 0 7 -9l-112 -705q-2 -8 -9 -8h-17q-8 0 -8 8l9 97q-36 -55 -91.5 -85t-123.5 -30zM496 223q13 84 -32 136.5t-131 52.5q-84 0 -146 -53
q-60 -52 -73 -137q-14 -86 30 -138.5t129 -52.5q86 0 148 53q61 52 75 139zM622 448l-8 12q-4 7 4 13q35 25 66 64q32 41 39 82q-6 -2 -8 -2q-19 0 -29.5 12t-7.5 32q3 19 17 31.5t34 12.5q31 0 37 -27q12 -55 -32 -128q-44 -72 -101 -104q-5 -4 -11 2z" />
    <glyph glyph-name="Dcroat" unicode="&#x110;" horiz-adv-x="669" 
d="M271 0h-178q-9 0 -8 10l49 312h-52q-9 0 -7 8l4 26q2 8 10 8h52l50 320q1 10 12 10h178q160 0 243 -95q82 -95 57 -252q-24 -158 -137 -253q-112 -94 -273 -94zM179 322l-44 -280h143q140 0 238 83t120 222t-50 222q-71 83 -212 83l-143 1l-45 -289h171q8 0 8 -7l-5 -28
q-1 -7 -10 -7h-171z" />
    <glyph glyph-name="dslash" unicode="&#x111;" horiz-adv-x="585" 
d="M429 596h126l19 117q2 9 9 9h25q8 0 7 -9l-19 -117h60q10 0 8 -8l-4 -26q-2 -8 -10 -8h-60l-87 -546q-2 -8 -9 -8h-17q-8 0 -8 8l9 97q-36 -55 -91.5 -85t-123.5 -30q-103 0 -155 64q-52 63 -35 168q17 104 89 167q73 64 175 64q68 0 114.5 -30t63.5 -84l34 215h-126
q-10 0 -8 8l4 26q2 8 10 8zM273 31q86 0 148 53q61 52 75 139q13 84 -32 136.5t-131 52.5q-84 0 -146 -53q-60 -52 -73 -137q-14 -86 30 -138.5t129 -52.5z" />
    <glyph glyph-name="Emacron" unicode="&#x112;" horiz-adv-x="509" 
d="M470 333h-279l-46 -291h336q9 0 7 -8l-4 -26q-2 -8 -10 -8h-371q-9 0 -8 10l106 674q1 10 12 10h361q10 0 7 -9l-3 -25q-2 -8 -10 -8h-327l-44 -277h279q10 0 8 -8l-4 -26q-2 -8 -10 -8zM289 807h228q8 0 8 -8l-4 -26q-1 -9 -10 -9h-228q-8 0 -8 9l4 26q2 8 10 8z" />
    <glyph glyph-name="emacron" unicode="&#x113;" horiz-adv-x="537" 
d="M118 241h377q6 78 -37.5 124.5t-124.5 46.5q-80 0 -138.5 -46.5t-76.5 -124.5zM521 203h-409q-6 -78 41 -125t131 -47q96 0 157 58q10 7 14 2l17 -18q4 -5 -3 -12q-77 -71 -192 -71q-108 0 -165 64q-56 64 -39 168q16 102 90 167q73 64 177 64q106 0 158 -65t35 -175
q-1 -10 -12 -10zM255 627h228q9 0 7 -8l-4 -27q-2 -8 -10 -8h-228q-8 0 -7 9l4 26q2 8 10 8z" />
    <glyph glyph-name="Ebreve" unicode="&#x114;" horiz-adv-x="509" 
d="M470 333h-279l-46 -291h336q9 0 7 -8l-4 -26q-2 -8 -10 -8h-371q-9 0 -8 10l106 674q1 10 12 10h361q10 0 7 -9l-3 -25q-2 -8 -10 -8h-327l-44 -277h279q10 0 8 -8l-4 -26q-2 -8 -10 -8zM527 859l22 1q7 0 7 -10q-12 -54 -57 -86.5t-108 -32.5q-61 0 -95.5 33t-29.5 86
q1 10 9 10h25q6 0 6 -10q-1 -37 23.5 -57.5t68.5 -20.5q46 0 77 20.5t42 57.5q1 9 10 9z" />
    <glyph glyph-name="ebreve" unicode="&#x115;" horiz-adv-x="537" 
d="M118 241h377q6 78 -37.5 124.5t-124.5 46.5q-80 0 -138.5 -46.5t-76.5 -124.5zM521 203h-409q-6 -78 41 -125t131 -47q96 0 157 58q10 7 14 2l17 -18q4 -5 -3 -12q-77 -71 -192 -71q-108 0 -165 64q-56 64 -39 168q16 102 90 167q73 64 177 64q106 0 158 -65t35 -175
q-1 -10 -12 -10zM483 684h24q7 0 5 -9q-12 -63 -55.5 -101.5t-104.5 -38.5q-59 0 -91 38.5t-25 101.5q2 9 10 9h23q8 0 6 -8q-2 -44 20.5 -72.5t62.5 -28.5q41 0 73 28.5t42 72.5q2 8 10 8z" />
    <glyph glyph-name="Edotaccent" unicode="&#x116;" horiz-adv-x="509" 
d="M470 333h-279l-46 -291h336q9 0 7 -8l-4 -26q-2 -8 -10 -8h-371q-9 0 -8 10l106 674q1 10 12 10h361q10 0 7 -9l-3 -25q-2 -8 -10 -8h-327l-44 -277h279q10 0 8 -8l-4 -26q-2 -8 -10 -8zM408 834q19 0 28.5 -11t6.5 -29q-8 -41 -48 -41q-29 -2 -33 26q-5 30 18 47
q13 9 28 8z" />
    <glyph glyph-name="edotaccent" unicode="&#x117;" horiz-adv-x="537" 
d="M118 241h377q6 78 -37.5 124.5t-124.5 46.5q-80 0 -138.5 -46.5t-76.5 -124.5zM521 203h-409q-6 -78 41 -125t131 -47q96 0 157 58q10 7 14 2l17 -18q4 -5 -3 -12q-77 -71 -192 -71q-108 0 -165 64q-56 64 -39 168q16 102 90 167q73 64 177 64q106 0 158 -65t35 -175
q-1 -10 -12 -10zM325 613q2 29 34 37q31 8 44 -12q7 -10 3 -25q-3 -19 -16 -30t-30 -11q-19 0 -28.5 11t-6.5 30z" />
    <glyph glyph-name="Eogonek" unicode="&#x118;" horiz-adv-x="509" 
d="M470 333h-279l-46 -291h336q9 0 7 -8l-4 -26q-2 -8 -10 -8h-371q-9 0 -8 10l106 674q1 10 12 10h361q10 0 7 -9l-3 -25q-2 -8 -10 -8h-327l-44 -277h279q10 0 8 -8l-4 -26q-2 -8 -10 -8zM455 -172q-34 -36 -88 -36q-42 0 -64 24t-16 63q5 29 30 60q24 30 42 46l54 42
l17 -22q-53 -43 -75.5 -69.5t-27.5 -55.5q-4 -23 9 -37.5t37 -14.5q33 0 56 22q7 7 13 3l15 -12q5 -5 -2 -13z" />
    <glyph glyph-name="eogonek" unicode="&#x119;" horiz-adv-x="537" 
d="M118 241h377q6 78 -37.5 124.5t-124.5 46.5q-80 0 -138.5 -46.5t-76.5 -124.5zM521 203h-409q-6 -78 41 -125t131 -47q96 0 157 58q10 7 14 2l17 -18q4 -5 -3 -12q-77 -71 -192 -71q-108 0 -165 64q-56 64 -39 168q16 102 90 167q73 64 177 64q106 0 158 -65t35 -175
q-1 -10 -12 -10zM402 -169q-34 -36 -87 -36q-42 0 -64.5 24t-16.5 63q8 44 51 86l35 31l40 31l18 -22q-53 -41 -76 -68.5t-27 -55.5q-4 -24 8.5 -38.5t36.5 -14.5q28 0 56 22q9 7 13 3l15 -12q6 -6 -2 -13z" />
    <glyph glyph-name="Ecaron" unicode="&#x11a;" horiz-adv-x="509" 
d="M470 333h-279l-46 -291h336q9 0 7 -8l-4 -26q-2 -8 -10 -8h-371q-9 0 -8 10l106 674q1 10 12 10h361q10 0 7 -9l-3 -25q-2 -8 -10 -8h-327l-44 -277h279q10 0 8 -8l-4 -26q-2 -8 -10 -8zM309 845l98 -81l124 81q8 5 15 5h42q15 0 2 -10l-3 -2l-154 -100q-8 -5 -15 -5h-33
q-4 0 -12 5l-122 100q-14 12 4 12h41q5 0 13 -5z" />
    <glyph glyph-name="ecaron" unicode="&#x11b;" horiz-adv-x="537" 
d="M118 241h377q6 78 -37.5 124.5t-124.5 46.5q-80 0 -138.5 -46.5t-76.5 -124.5zM521 203h-409q-6 -78 41 -125t131 -47q96 0 157 58q10 7 14 2l16 -18q5 -5 -3 -12q-77 -71 -191 -71q-108 0 -165 64q-56 64 -39 168t90 167q73 64 176 64q107 0 159 -65t34 -175
q0 -10 -11 -10zM244 670h31q5 0 10 -6l71 -112l106 112q6 6 11 6h33q10 0 3 -10l-127 -131q-7 -7 -14 -7h-33q-7 0 -12 6l-85 132q-7 10 6 10z" />
    <glyph glyph-name="Gcircumflex" unicode="&#x11c;" horiz-adv-x="760" 
d="M716 311h-256q-10 0 -8 9l4 24q2 9 11 9h290q11 0 7 -9q-29 -169 -127.5 -261.5t-250.5 -91.5q-154 0 -233 97t-53 259q26 161 138 258q115 98 275 98q147 0 231 -92q6 -6 0 -12l-23 -19q-7 -6 -13 0q-73 79 -202 79q-139 0 -240 -86q-99 -85 -120 -226q-23 -140 45 -226
t202 -86q126 0 209.5 71.5t113.5 204.5zM604 750l-93 76l-118 -76q-7 -4 -14 -4h-40q-14 0 0 10l147 96q8 5 13 5h32q7 0 12 -5l117 -95q14 -11 -3 -11h-40q-6 0 -13 4z" />
    <glyph glyph-name="gcircumflex" unicode="&#x11d;" horiz-adv-x="577" 
d="M337 453q69 0 115.5 -31.5t62.5 -86.5l23 100q3 8 10 8h17q9 0 7 -8l-69 -441q-16 -102 -90 -167q-73 -64 -172 -64q-97 2 -176 50q-5 5 -1 12l17 23q7 6 11 2q67 -43 156 -46q82 0 140 51q60 50 73 134l19 120q-34 -56 -90.5 -87.5t-126.5 -31.5q-103 0 -155 64
q-52 63 -35 168q16 102 89 167q73 64 175 64zM114 222q-14 -86 30 -139q43 -52 129 -52q85 -1 148 52q62 52 76 139q14 84 -33 137q-45 53 -131 53q-84 0 -145 -53t-74 -137zM226 526l131 136q4 7 14 7h33q9 0 13 -7l87 -135q6 -9 -5 -9h-35q-4 0 -9 5l-72 115l-110 -114
q-3 -6 -11 -6h-34q-10 0 -2 8z" />
    <glyph glyph-name="Gbreve" unicode="&#x11e;" horiz-adv-x="760" 
d="M720 311h-256q-10 0 -8 9l4 24q2 9 10 9h290q12 0 8 -9q-29 -170 -127 -262t-251 -91q-154 0 -234 98q-78 98 -53 258t140 258t274 98q145 0 231 -92q5 -8 -1 -12l-23 -19q-6 -4 -13 0q-73 79 -201 79q-139 0 -240 -86q-98 -85 -121 -226q-22 -139 46 -226
q69 -86 202 -86q126 0 209.5 71.5t113.5 204.5zM626 859l23 1q7 0 6 -10q-11 -53 -56 -86t-108 -33q-62 0 -96.5 32.5t-29.5 86.5q1 10 9 10h25q6 0 6 -10q-1 -37 23.5 -57.5t68.5 -20.5q46 0 77 20.5t42 57.5q3 9 10 9z" />
    <glyph glyph-name="gbreve" unicode="&#x11f;" horiz-adv-x="577" 
d="M337 453q69 0 115.5 -31.5t62.5 -86.5l23 100q3 8 10 8h17q9 0 7 -8l-69 -441q-16 -102 -90 -167q-73 -64 -172 -64q-97 2 -176 50q-5 5 -1 12l17 23q7 6 11 2q67 -43 156 -46q82 0 140 51q60 50 73 134l19 120q-34 -56 -90.5 -87.5t-126.5 -31.5q-103 0 -155 64
q-52 63 -35 168q16 102 89 167q73 64 175 64zM114 222q-14 -86 30 -139q43 -52 129 -52q85 -1 148 52q62 52 76 139q14 84 -33 137q-45 53 -131 53q-84 0 -145 -53t-74 -137zM495 684h25q6 0 5 -9q-12 -63 -56 -101.5t-105 -38.5q-59 0 -90.5 38.5t-24.5 101.5q1 9 9 9h24
q8 0 6 -8q-3 -44 19.5 -72.5t63.5 -28.5q40 0 71.5 28.5t43.5 72.5q2 8 9 8z" />
    <glyph glyph-name="Gdotaccent" unicode="&#x120;" horiz-adv-x="760" 
d="M718 311h-256q-8 0 -7 9l4 24q0 9 10 9h290q9 0 8 -9q-29 -169 -127.5 -261.5t-250.5 -91.5q-154 0 -234 98q-78 98 -53 258q25 159 139 258q115 98 274 98q146 0 232 -92q5 -8 -1 -12l-23 -19q-7 -6 -13 0q-73 79 -202 79q-139 0 -239 -86q-98 -85 -121 -226
q-22 -139 46 -226q68 -86 202 -86q126 0 209 71.5t113 204.5zM467 804q1 29 33 37q30 8 44 -11q8 -11 4 -26q-8 -41 -47 -41q-18 0 -27.5 11t-6.5 30z" />
    <glyph glyph-name="gdotaccent" unicode="&#x121;" horiz-adv-x="577" 
d="M337 453q69 0 115.5 -31.5t62.5 -86.5l23 100q3 8 10 8h17q9 0 7 -8l-69 -441q-16 -102 -90 -167q-73 -64 -172 -64q-97 2 -176 50q-5 5 -1 12l17 23q7 6 11 2q67 -43 156 -46q82 0 140 51q60 50 73 134l19 120q-34 -56 -90.5 -87.5t-126.5 -31.5q-103 0 -155 64
q-52 63 -35 168q16 102 89 167q73 64 175 64zM114 222q-14 -86 30 -139q43 -52 129 -52q85 -1 148 52q62 52 76 139q14 84 -33 137q-45 53 -131 53q-84 0 -145 -53t-74 -137zM330 628q2 29 34 37q31 8 44 -12q7 -10 3 -25q-3 -19 -16 -30t-30 -11q-19 0 -28.5 11t-6.5 30z
" />
    <glyph glyph-name="uni0122" unicode="&#x122;" horiz-adv-x="758" 
d="M717 311h-256q-9 0 -7 9l3 24q1 9 11 9h290q12 0 7 -9q-29 -169 -127 -261.5t-250 -91.5q-154 0 -234 98q-78 98 -53 258q25 159 139 258q115 98 274 98q146 0 232 -92q5 -8 -1 -12l-23 -19q-7 -6 -13 0q-73 79 -202 79q-139 0 -239 -86q-98 -85 -121 -226
q-22 -139 46 -226q68 -86 202 -86q126 0 209 71.5t113 204.5zM370 -112q-8 -2 -11 -2q-33 4 -28 41q3 19 16 30.5t32 11.5q29 0 35 -26q9 -47 -23 -91q-31 -43 -85 -66q-10 -4 -13 3l-7 14q-3 7 5 10q62 25 79 75z" />
    <glyph glyph-name="uni0123" unicode="&#x123;" horiz-adv-x="577" 
d="M337 453q69 0 115.5 -31.5t62.5 -86.5l23 100q3 8 10 8h17q9 0 7 -8l-69 -441q-16 -102 -90 -167q-73 -64 -172 -64q-97 2 -176 50q-5 5 -1 12l17 23q7 6 11 2q67 -43 156 -46q82 0 140 51q60 50 73 134l19 120q-34 -56 -90.5 -87.5t-126.5 -31.5q-103 0 -155 64
q-52 63 -35 168q16 102 89 167q73 64 175 64zM114 222q-14 -86 30 -139q43 -52 129 -52q85 -1 148 52q62 52 76 139q14 84 -33 137q-45 53 -131 53q-84 0 -145 -53t-74 -137zM360 575q8 2 10 2q34 -4 29 -41q-3 -19 -16 -30.5t-32 -11.5q-29 0 -35 26q-9 48 22 91t86 66
q9 4 13 -3l6 -14q4 -6 -4 -10q-62 -25 -79 -75z" />
    <glyph glyph-name="Hcircumflex" unicode="&#x124;" horiz-adv-x="674" 
d="M129 0h-27q-10 0 -8 9l107 676q1 9 11 9h28q8 0 6 -9l-49 -310h398l49 310q2 9 11 9h28q7 0 6 -9l-107 -676q-2 -9 -10 -9h-28q-8 0 -7 9l52 324h-398l-52 -324q-1 -9 -10 -9zM561 747l-94 76l-117 -76q-9 -4 -14 -4h-40q-15 0 -1 10l148 96q8 5 13 5h31q5 0 13 -5
l117 -95q11 -11 -4 -11h-40q-7 0 -12 4z" />
    <glyph glyph-name="hcircumflex" unicode="&#x125;" horiz-adv-x="543" 
d="M81 8l111 705q2 9 10 9h25q7 0 6 -9l-60 -377q63 117 187 117q85 0 123 -50t23 -148l-39 -246q-1 -9 -9 -9h-26q-8 0 -6 9l39 247q12 77 -18 116.5t-97 39.5q-68 0 -123 -53q-53 -53 -71 -132l-33 -219q-2 -8 -10 -8h-26q-8 0 -6 8zM498 760l-93 76l-118 -76
q-8 -5 -14 -5h-40q-17 0 0 11l147 96q7 4 13 4h32q7 0 12 -4l117 -95q14 -12 -3 -12h-40q-8 0 -13 5z" />
    <glyph glyph-name="Hbar" unicode="&#x126;" horiz-adv-x="674" 
d="M246 685l-21 -133h397l21 133q3 9 11 9h29q7 0 6 -9l-21 -133h38q9 0 7 -8l-4 -27q-2 -7 -9 -8h-38l-80 -500q-2 -9 -10 -9h-28q-10 0 -8 9l52 324h-397l-52 -324q-1 -9 -10 -9h-27q-10 0 -8 9l80 500h-42q-9 0 -7 8l4 27q2 8 9 8h42l21 133q1 9 11 9h28q8 0 6 -9z
M616 509h-397l-22 -134h397z" />
    <glyph glyph-name="hbar" unicode="&#x127;" horiz-adv-x="544" 
d="M374 563l-4 -26q-2 -8 -9 -8h-156l-31 -193q63 117 187 117q85 0 123 -50t22 -148l-39 -246q-1 -9 -8 -9h-26q-9 0 -7 9l40 247q22 156 -116 156q-69 0 -122 -53t-71 -132l-34 -219q-2 -8 -9 -8h-26q-9 0 -7 8l83 521h-52q-9 0 -7 8l4 26q2 8 9 8h52l23 142q1 9 9 9h25
q9 0 7 -9l-23 -142h156q9 0 7 -8z" />
    <glyph glyph-name="Itilde" unicode="&#x128;" horiz-adv-x="231" 
d="M247 685l-108 -677q-2 -8 -10 -8h-27q-10 0 -8 8l108 677q0 9 10 9h27q8 0 8 -9zM117 759q-6 -8 -11 -3l-12 10q-5 3 -2 12q42 83 101 83q22 0 37.5 -13t23 -28.5t20 -28.5t29.5 -13q35 2 69 63q4 10 11 4l13 -10q5 -7 1 -12q-41 -83 -102 -83q-21 0 -36.5 13t-23.5 28
t-20.5 28t-28.5 13q-38 -2 -69 -63z" />
    <glyph glyph-name="itilde" unicode="&#x129;" horiz-adv-x="207" 
d="M193 434l-68 -425q-1 -9 -9 -9h-24q-8 0 -8 9l68 425q2 9 9 9h25q8 0 7 -9zM64 547q-6 -9 -12 -4l-14 13q-4 3 -1 9q43 88 106 88q22 0 37.5 -13.5t23 -30t20.5 -29.5t30 -12q39 2 71 65q5 8 11 3l15 -13q5 -3 0 -8q-18 -41 -46.5 -64.5t-58.5 -23.5q-22 0 -38 13.5
t-24 29t-21 29t-29 13.5q-36 -2 -70 -65z" />
    <glyph glyph-name="Imacron" unicode="&#x12a;" horiz-adv-x="231" 
d="M247 685l-108 -677q-2 -8 -10 -8h-27q-10 0 -8 8l108 677q0 9 10 9h27q8 0 8 -9zM129 807h228q9 0 7 -8l-4 -27q-1 -7 -10 -7h-228q-9 0 -7 8l4 26q2 8 10 8z" />
    <glyph glyph-name="imacron" unicode="&#x12b;" horiz-adv-x="207" 
d="M193 434l-68 -425q-1 -9 -9 -9h-24q-8 0 -8 9l68 425q2 9 9 9h25q8 0 7 -9zM88 627h228q8 0 7 -9l-4 -26q-2 -8 -10 -8h-228q-9 0 -7 9l4 25q2 9 10 9z" />
    <glyph glyph-name="Ibreve" unicode="&#x12c;" horiz-adv-x="232" 
d="M247 685l-108 -677q-2 -8 -10 -8h-27q-10 0 -8 8l108 677q0 9 10 9h27q8 0 8 -9zM373 860l24 1q8 0 7 -10q-12 -56 -59 -90.5t-114 -34.5q-65 0 -101 34.5t-31 90.5q1 10 9 10h26q7 0 7 -10q-1 -39 24.5 -60.5t72.5 -21.5q48 0 81 21.5t44 60.5q3 9 10 9z" />
    <glyph glyph-name="ibreve" unicode="&#x12d;" horiz-adv-x="209" 
d="M193 435l-68 -427q0 -8 -9 -8h-25q-7 0 -7 8l68 427q2 8 9 8h25q9 0 7 -8zM321 683h25q6 0 5 -10q-12 -65 -57 -104t-107 -39q-61 0 -93.5 39t-25.5 104q1 10 10 10h24q7 0 7 -9q-4 -45 19.5 -74t64.5 -29q42 0 74.5 29t44.5 74q0 9 9 9z" />
    <glyph glyph-name="Iogonek" unicode="&#x12e;" horiz-adv-x="231" 
d="M247 685l-108 -677q-2 -8 -10 -8h-27q-10 0 -8 8l108 677q0 9 10 9h27q8 0 8 -9zM180 -168q-32 -35 -86 -35q-41 0 -62.5 23t-15.5 61q5 27 26 54q21 26 40 42q7 6 50 37q4 4 8 6l21 -18q-56 -44 -78.5 -68.5t-27.5 -50.5q-4 -23 8.5 -37t35.5 -14q29 0 55 21q8 8 13 3
l14 -12q5 -5 -1 -12z" />
    <glyph glyph-name="iogonek" unicode="&#x12f;" horiz-adv-x="207" 
d="M193 434l-68 -425q-1 -9 -10 -9h-23q-8 0 -8 9l68 425q2 9 9 9h25q8 0 7 -9zM158 614q2 18 15.5 29.5t32.5 11.5t28.5 -11.5t6.5 -29.5q-1 -32 -34 -40q-32 -8 -46 12q-7 12 -3 28zM145 -169q-33 -36 -87 -36q-42 0 -64.5 24t-15.5 62q5 30 29 60q25 31 43 46t54 42
l17 -21q-55 -44 -77 -70.5t-26 -54.5q-4 -23 8.5 -37.5t37.5 -14.5q32 0 55 22q8 8 13 3l15 -13q5 -5 -2 -12z" />
    <glyph glyph-name="Idot" unicode="&#x130;" horiz-adv-x="231" 
d="M247 685l-108 -677q-2 -8 -10 -8h-27q-10 0 -8 8l108 677q0 9 10 9h27q8 0 8 -9zM200 794q2 30 35 38q31 7 44 -13q7 -10 3 -25q-2 -31 -34 -39q-31 -8 -45 13q-7 11 -3 26z" />
    <glyph glyph-name="dotlessi" unicode="&#x131;" horiz-adv-x="207" 
d="M193 434l-67 -425q-2 -9 -10 -9h-25q-9 0 -7 9l68 425q0 9 9 9h25q8 0 7 -9z" />
    <glyph glyph-name="IJ" unicode="&#x132;" horiz-adv-x="617" 
d="M247 685l-107 -676q-2 -9 -10 -9h-27q-9 0 -7 9l107 676q2 8 10 8h27q9 0 7 -8zM504 156l84 529q2 8 10 8h27q10 0 8 -8l-83 -530q-11 -76 -57 -120t-114 -44q-70 0 -126 56q-5 3 0 12l18 23q5 5 14 2q51 -48 102 -50q97 1 117 122z" />
    <glyph glyph-name="ij" unicode="&#x133;" horiz-adv-x="434" 
d="M193 434l-68 -425q-1 -9 -10 -9h-23q-8 0 -8 9l68 425q2 9 9 9h25q8 0 7 -9zM158 614q2 18 15.5 29.5t32.5 11.5t28.5 -11.5t6.5 -29.5q-1 -32 -34 -40q-32 -8 -46 12q-7 12 -3 28zM383 613q5 27 33.5 38.5t44.5 -8.5q15 -17 0 -46.5t-41 -25.5q-19 0 -29 11.5t-8 30.5z
M300 -71l79 505q1 9 10 9h25q8 0 6 -9l-80 -509q-10 -75 -48 -119q-37 -43 -95 -43t-97 30q-8 6 -1 13l17 21q4 7 13 1q37 -26 72 -25q77 0 99 126z" />
    <glyph glyph-name="Jcircumflex" unicode="&#x134;" horiz-adv-x="390" 
d="M278 156l82 529q2 9 11 9h27q8 0 7 -9l-82 -530q-11 -76 -57 -120t-115 -45q-70 2 -125 57q-4 3 0 12l18 23q8 8 13 2q56 -48 103 -50q95 2 118 122zM498 747l-93 76l-118 -76q-7 -4 -14 -4h-40q-16 0 0 10l147 96q8 5 13 5h32q7 0 12 -5l117 -95q14 -11 -4 -11h-40
q-7 0 -12 4z" />
    <glyph glyph-name="jcircumflex" unicode="&#x135;" horiz-adv-x="236" 
d="M102 -71l80 505q2 9 9 9h25q8 0 7 -9l-80 -509q-12 -78 -48.5 -120.5t-95.5 -42.5q-56 2 -97 31q-8 5 -1 13l17 21q3 6 14 1q31 -25 72 -25q78 0 98 126zM74 522l134 140q7 7 15 7h34q9 0 13 -7l89 -139q6 -9 -5 -9h-35q-6 0 -9 5l-75 118l-112 -117q-5 -6 -12 -6h-34
q-11 0 -3 8z" />
    <glyph glyph-name="uni0136" unicode="&#x136;" horiz-adv-x="549" 
d="M230 685l-52 -330l366 333q8 6 13 6h38q16 0 2 -11l-371 -336l295 -336q9 -11 -6 -11h-41q-9 0 -12 5l-286 334l-53 -331q-2 -8 -10 -8h-27q-10 0 -8 8l107 677q1 9 11 9h27q9 0 7 -9zM259 -112q-8 -2 -10 -2q-34 4 -29 41q3 19 16 30.5t32 11.5q27 0 35 -26
q9 -47 -23 -91t-85 -66q-9 -4 -13 3l-6 14q-4 6 4 10q62 25 79 75z" />
    <glyph glyph-name="uni0137" unicode="&#x137;" horiz-adv-x="421" 
d="M403 443h39q16 0 2 -11l-249 -194l214 -228q10 -10 -6 -10h-39q-9 0 -12 5l-206 220l-34 -217q-2 -8 -9 -8h-25q-9 0 -7 8l112 706q2 8 10 8h23q10 0 8 -8l-74 -467l239 191q8 5 14 5zM209 -112q-8 -2 -11 -2q-15 2 -23 13.5t-5 27.5q3 19 16 30.5t32 11.5q29 0 34 -26
q9 -48 -22 -91q-32 -44 -85 -66q-10 -4 -13 3l-7 14q-3 7 5 10q62 25 79 75z" />
    <glyph glyph-name="kgreenlandic" unicode="&#x138;" horiz-adv-x="415" 
d="M413 443h39q16 0 2 -11l-252 -209l218 -213q10 -10 -7 -10h-39q-7 0 -12 5l-208 205l-32 -202q-2 -8 -9 -8h-25q-9 0 -7 8l68 427q1 9 10 9h23q9 -2 8 -9l-32 -203l241 206q8 5 14 5z" />
    <glyph glyph-name="Lacute" unicode="&#x139;" horiz-adv-x="451" 
d="M246 685l-102 -643h275q9 0 8 -9l-4 -25q-2 -8 -10 -8h-311q-10 0 -8 9l107 676q1 9 11 9h27q9 0 7 -9zM353 868l14 -32q3 -7 -5 -12l-197 -104q-8 -5 -12 2l-8 16q-3 8 3 12l193 120q8 5 12 -2z" />
    <glyph glyph-name="lacute" unicode="&#x13a;" horiz-adv-x="207" 
d="M237 714l-112 -706q-2 -8 -9 -8h-25q-9 0 -7 8l112 706q2 8 9 8h25q9 0 7 -8zM348 911l14 -32q1 -7 -6 -11l-192 -102q-7 -4 -11 2l-8 16q-5 6 3 12l188 117q7 3 12 -2z" />
    <glyph glyph-name="uni013B" unicode="&#x13b;" horiz-adv-x="451" 
d="M246 685l-101 -643h275q8 0 7 -9l-4 -25q-2 -8 -10 -8h-311q-10 0 -8 9l107 676q1 9 11 9h27q9 0 7 -9zM247 -112q-8 -2 -10 -2q-34 4 -29 41q3 19 16 30.5t32 11.5q30 0 35 -26q9 -47 -23 -91t-85 -66q-9 -4 -12 3l-7 14q-4 6 4 10q62 25 79 75z" />
    <glyph glyph-name="uni013C" unicode="&#x13c;" horiz-adv-x="207" 
d="M237 714l-112 -706q-2 -8 -9 -8h-25q-9 0 -7 8l112 706q2 8 9 8h25q9 0 7 -8zM90 -112q-8 -2 -10 -2q-15 2 -23 13.5t-5 27.5q3 19 15.5 30.5t31.5 11.5q30 0 35 -26q9 -47 -23 -91t-85 -66q-9 -4 -12 3l-7 14q-4 7 5 10q64 25 78 75z" />
    <glyph glyph-name="Lcaron" unicode="&#x13d;" horiz-adv-x="451" 
d="M246 685l-102 -643h275q9 0 8 -9l-4 -25q-2 -8 -10 -8h-311q-10 0 -8 9l107 676q1 9 11 9h27q9 0 7 -9zM327 449l-8 12q-4 7 4 13q37 25 67 65.5t38 80.5q-6 -2 -9 -2q-19 0 -29 12t-7 32q4 20 17.5 32t32.5 12q33 0 37 -27q12 -54 -32 -128q-44 -73 -100 -104
q-7 -4 -11 2z" />
    <glyph glyph-name="lcaron" unicode="&#x13e;" horiz-adv-x="344" 
d="M237 714l-112 -706q-2 -8 -9 -8h-25q-9 0 -7 8l112 706q2 8 9 8h25q9 0 7 -8zM259 449l-9 12q-4 7 4 13q38 26 68 65.5t38 80.5q-8 -2 -9 -2q-31 -3 -35 28.5t19 50.5q14 10 30 9q33 0 37 -27q12 -54 -32 -128q-44 -73 -100 -104q-7 -4 -11 2z" />
    <glyph glyph-name="Ldot" unicode="&#x13f;" horiz-adv-x="451" 
d="M246 685l-102 -643h275q9 0 8 -9l-4 -25q-2 -8 -10 -8h-311q-10 0 -8 9l107 676q1 9 11 9h27q9 0 7 -9zM378 442q19 0 29 -12t7 -32q-1 -29 -32.5 -40t-47.5 9q-17 20 -1 47.5t45 27.5z" />
    <glyph glyph-name="ldot" unicode="&#x140;" horiz-adv-x="329" 
d="M237 714l-112 -706q-2 -8 -9 -8h-25q-9 0 -7 8l112 706q2 8 9 8h25q9 0 7 -8zM295 423q32 2 36 -29t-20 -50q-13 -9 -29 -8q-20 0 -30.5 11.5t-7.5 31.5q7 44 51 44z" />
    <glyph glyph-name="Lslash" unicode="&#x141;" horiz-adv-x="451" 
d="M99 301l291 117q4 1 6 -0.5t1 -4.5l-4 -28q-2 -8 -10 -13l-291 -117q-4 -2 -6 -0.5t-1 5.5l5 29q2 7 9 12zM246 685l-102 -643h275q9 0 8 -9l-4 -25q-2 -8 -10 -8h-311q-10 0 -8 9l107 676q1 9 11 9h27q9 0 7 -9z" />
    <glyph glyph-name="lslash" unicode="&#x142;" horiz-adv-x="207" 
d="M205 722h25q9 0 7 -8l-57 -361l97 43q3 2 5.5 0.5t1.5 -5.5l-5 -28q0 -9 -10 -13l-96 -42l-48 -300q-2 -8 -9 -8h-25q-9 0 -7 8l45 280l-94 -42q-6 -1 -7.5 0t-0.5 6l4 27q1 9 11 13l94 42l60 380q2 8 9 8z" />
    <glyph glyph-name="Nacute" unicode="&#x143;" horiz-adv-x="725" 
d="M706 694h28q8 0 6 -9l-107 -675q-1 -10 -11 -10h-37q-8 0 -11 6l-337 620l-98 -617q-1 -9 -10 -9h-27q-10 0 -8 9l107 675q1 10 12 10h36q7 0 11 -7l337 -622l98 620q1 9 11 9zM599 868l14 -32q4 -7 -5 -12l-197 -104q-8 -5 -12 2l-8 16q-3 8 3 12l193 120q8 5 12 -2z
" />
    <glyph glyph-name="nacute" unicode="&#x144;" 
d="M81 8l68 427q2 8 9 8h18q8 0 8 -8l-10 -101q28 56 76.5 87.5t110.5 31.5q85 0 123 -50t22 -148l-39 -246q-1 -9 -9 -9h-25q-9 0 -7 9l40 247q22 156 -116 156q-68 0 -123 -53q-53 -53 -70 -133l-34 -218q-2 -8 -9 -8h-25q-10 0 -8 8zM467 677l19 -29q6 -8 -3 -11
l-171 -112q-8 -5 -12 0l-9 16q-5 8 2 12l163 124q7 7 11 0z" />
    <glyph glyph-name="uni0145" unicode="&#x145;" horiz-adv-x="725" 
d="M706 694h28q8 0 6 -9l-107 -675q0 -10 -11 -10h-37q-8 0 -11 6l-337 620l-98 -617q-1 -9 -10 -9h-27q-10 0 -8 9l107 675q1 10 12 10h36q7 0 11 -7l337 -622l98 620q1 9 11 9zM345 -112q-8 -2 -10 -2q-15 2 -23 13.5t-5 27.5q3 19 15.5 30.5t31.5 11.5q30 0 35 -26
q9 -47 -23 -91t-85 -66q-9 -4 -12 3l-7 14q-4 7 5 10q65 25 78 75z" />
    <glyph glyph-name="uni0146" unicode="&#x146;" horiz-adv-x="544" 
d="M81 8l68 427q2 8 9 8h18q8 0 8 -8l-10 -101q28 56 76.5 87.5t110.5 31.5q85 0 123 -50t22 -148l-39 -246q-1 -9 -9 -9h-25q-9 0 -7 9l39 247q12 77 -18 116.5t-97 39.5q-68 0 -123 -53q-53 -53 -70 -133l-34 -218q-2 -8 -9 -8h-25q-10 0 -8 8zM263 -112q-8 -2 -10 -2
q-34 4 -29 41q3 19 16 30.5t32 11.5q27 0 35 -26q9 -47 -23 -91q-31 -43 -85 -66q-9 -4 -13 3l-6 14q-4 6 4 10q62 25 79 75z" />
    <glyph glyph-name="Ncaron" unicode="&#x147;" horiz-adv-x="725" 
d="M706 694h28q8 0 6 -9l-107 -675q-1 -10 -11 -10h-37q-8 0 -11 6l-337 620l-98 -617q-1 -9 -10 -9h-27q-10 0 -8 9l107 675q1 10 12 10h36q7 0 11 -7l337 -622l98 620q1 9 11 9zM385 845l98 -81l124 81q8 5 15 5h42q15 0 2 -10l-3 -2l-154 -100q-8 -5 -15 -5h-33
q-4 0 -12 5l-122 100q-14 12 4 12h41q8 0 13 -5z" />
    <glyph glyph-name="ncaron" unicode="&#x148;" 
d="M81 8l68 427q2 8 9 8h18q8 0 8 -8l-10 -101q28 56 76.5 87.5t110.5 31.5q85 0 123 -50t22 -148l-39 -246q-1 -9 -9 -9h-25q-9 0 -7 9l40 247q22 156 -116 156q-68 0 -123 -53q-53 -53 -70 -133l-34 -218q-2 -8 -9 -8h-25q-10 0 -8 8zM241 669h33q5 0 11 -6l74 -118
l112 118q6 6 12 6h34q10 0 3 -10l-134 -138q-4 -7 -14 -7h-35q-9 0 -13 6l-89 139q-7 10 6 10z" />
    <glyph glyph-name="napostrophe" unicode="&#x149;" horiz-adv-x="551" 
d="M87 8l68 427q2 8 9 8h18q8 0 8 -8l-10 -101q28 56 76.5 87.5t110.5 31.5q85 0 123 -50t23 -148l-39 -246q-2 -9 -10 -9h-25q-7 0 -6 9l39 247q12 77 -18 116.5t-98 39.5t-123 -53q-53 -53 -70 -133l-34 -218q0 -8 -9 -8h-25q-8 0 -8 8zM70 449l-8 12q-4 7 4 13
q35 25 66 64q32 41 39 82q-6 -2 -8 -2q-31 -3 -35 28.5t19 50.5q14 10 30 9q31 0 37 -27q10 -55 -33 -128q-44 -73 -99 -104q-7 -3 -12 2z" />
    <glyph glyph-name="Eng" unicode="&#x14a;" horiz-adv-x="711" 
d="M569 -73l9 64l-348 635l-98 -617q-2 -9 -10 -9h-27q-9 0 -8 9l107 675q1 10 12 10h36q6 0 10 -7l339 -616l97 614q2 9 11 9h28q7 0 6 -9l-119 -758q-11 -76 -57 -120.5t-114 -44.5q-69 0 -125 56q-6 5 0 13l19 24q3 6 12 1q55 -50 103 -50q97 0 117 121z" />
    <glyph glyph-name="eng" unicode="&#x14b;" horiz-adv-x="548" 
d="M214 -207q-8 5 -1 13l18 21q4 6 12 1q31 -25 73 -25q76 0 99 126l51 327q22 156 -116 156q-68 0 -123 -53q-53 -53 -70 -133l-34 -217q-1 -9 -10 -9h-24q-9 0 -8 9l68 425q1 9 10 9h16q9 0 9 -8l-10 -101q28 56 76.5 87.5t110.5 31.5q85 0 123 -50t22 -148l-51 -330
q-12 -78 -49.5 -120.5t-94.5 -42.5q-56 2 -97 31z" />
    <glyph glyph-name="Omacron" unicode="&#x14c;" horiz-adv-x="797" 
d="M97 347q25 160 140 258t274 98t242 -98q82 -97 56 -258t-139 -259q-112 -97 -272 -97q-161 0 -244 98q-82 97 -57 258zM764 347q23 141 -49 226q-72 86 -211 86t-240 -86q-98 -85 -121 -226q-23 -140 50 -226q72 -86 212 -86t238 86q98 85 121 226zM413 807h228q9 0 7 -8
l-4 -26q-2 -9 -10 -9h-228q-8 0 -7 9l4 26q2 8 10 8z" />
    <glyph glyph-name="omacron" unicode="&#x14d;" horiz-adv-x="537" 
d="M73 222q16 102 90 167q73 64 177 64q103 0 157 -64q54 -63 37 -167q-16 -102 -91 -168q-73 -64 -177 -64q-103 0 -157 64q-53 64 -36 168zM114 222q-14 -86 30 -138.5t129 -52.5q86 0 145 52q61 52 75 139q13 84 -31 138q-43 52 -129 52q-84 0 -146 -53q-60 -52 -73 -137
zM255 628h228q9 0 7 -9l-4 -26q-2 -8 -10 -8h-228q-8 0 -7 9l4 25q1 9 10 9z" />
    <glyph glyph-name="Obreve" unicode="&#x14e;" horiz-adv-x="797" 
d="M97 347q25 160 140 258t274 98t242 -98q82 -97 56 -258t-139 -259q-112 -97 -272 -97q-161 0 -244 98q-82 97 -57 258zM764 347q23 141 -49 226q-72 86 -211 86t-240 -86q-98 -85 -121 -226q-23 -140 50 -226q72 -86 212 -86t238 86q98 85 121 226zM650 859l23 1
q7 0 6 -10q-11 -53 -56 -86t-108 -33q-62 0 -96.5 32.5t-29.5 86.5q1 10 9 10h25q6 0 6 -10q-1 -37 23.5 -57.5t68.5 -20.5q46 0 77 20.5t42 57.5q3 9 10 9z" />
    <glyph glyph-name="obreve" unicode="&#x14f;" horiz-adv-x="537" 
d="M73 222q16 102 90 167q73 64 177 64q103 0 157 -64q54 -63 37 -167q-16 -102 -91 -168q-73 -64 -177 -64q-103 0 -157 64q-53 64 -36 168zM114 222q-14 -86 30 -138.5t129 -52.5q86 0 145 52q61 52 75 139q13 84 -31 138q-43 52 -129 52q-84 0 -146 -53q-60 -52 -73 -137
zM483 684h24q7 0 5 -9q-12 -63 -55.5 -101.5t-104.5 -38.5q-59 0 -91 38.5t-25 101.5q2 9 10 9h23q8 0 6 -8q-2 -44 20.5 -72.5t62.5 -28.5q41 0 73 28.5t42 72.5q2 8 10 8z" />
    <glyph glyph-name="Ohungarumlaut" unicode="&#x150;" horiz-adv-x="797" 
d="M97 347q25 160 140 258t274 98t242 -98q82 -97 56 -258t-139 -259q-112 -97 -272 -97q-161 0 -244 98q-82 97 -57 258zM764 347q23 141 -49 226q-72 86 -211 86t-240 -86q-98 -85 -121 -226q-23 -140 50 -226q72 -86 212 -86t238 86q98 85 121 226zM663 865l29 -24
q8 -5 -1 -13l-107 -98q-8 -7 -15 -2l-13 11q-6 5 0 13l93 111q8 8 14 2zM508 866l29 -25q8 -5 -1 -12l-107 -99q-7 -7 -14 -2l-14 11q-8 5 0 13l94 111q7 7 13 3z" />
    <glyph glyph-name="ohungarumlaut" unicode="&#x151;" horiz-adv-x="537" 
d="M73 222q16 102 90 167q73 64 177 64q103 0 157 -64q54 -63 37 -167q-16 -102 -91 -168q-73 -64 -177 -64q-103 0 -157 64q-53 64 -36 168zM114 222q-14 -86 30 -138.5t129 -52.5q86 0 145 52q61 52 75 139q13 84 -31 138q-43 52 -129 52q-84 0 -146 -53q-60 -52 -73 -137
zM493 705l30 -18q7 -6 1 -13l-120 -133q-8 -6 -12 -3l-16 10q-5 2 1 12l103 140q8 9 13 5zM338 705l31 -19q6 -4 0 -12l-120 -133q-6 -6 -12 -2l-15 9q-6 2 0 12l103 140q8 9 13 5z" />
    <glyph glyph-name="OE" unicode="&#x152;" horiz-adv-x="764" 
d="M717 0h-327q-158 3 -237 96q-80 95 -55 251q26 159 136 251q111 94 270 96h313q10 0 8 -8l-4 -26q-2 -8 -11 -8h-279l-44 -277h230q11 0 9 -9l-4 -25q-2 -8 -11 -8h-230l-46 -291h289q9 0 7 -8l-4 -26q-2 -8 -10 -8zM390 45l96 604q-134 -4 -228 -86q-92 -80 -115 -216
q-22 -134 46 -216t201 -86z" />
    <glyph glyph-name="oe" unicode="&#x153;" horiz-adv-x="934" 
d="M269 31q84 0 142 52t72 139q14 85 -28 137.5t-126 52.5t-142 -52q-60 -54 -73 -138q-14 -86 29 -138.5t126 -52.5zM527 241h365q6 79 -36 125t-122 46q-78 0 -133.5 -46t-73.5 -125zM73 222q16 103 89 167t174 64q74 0 121.5 -34.5t61.5 -95.5q34 62 91.5 96t130.5 34
q107 0 156 -67q50 -68 32 -175q-2 -8 -11 -8h-397q-6 -79 37.5 -125.5t126.5 -46.5q92 0 154 58q7 7 13 2l17 -18q5 -5 -3 -12q-77 -71 -187 -71q-77 0 -127 34.5t-65 97.5q-34 -63 -92.5 -97.5t-132.5 -34.5q-101 0 -153 64q-53 64 -36 168z" />
    <glyph glyph-name="Racute" unicode="&#x154;" horiz-adv-x="537" 
d="M439 5l-137 294h-135l-46 -290q-1 -9 -11 -9h-28q-8 0 -7 9l107 675q1 10 11 10h196q102 0 154 -53t39 -144q-14 -86 -75.5 -138.5t-154.5 -58.5l140 -289q6 -11 -7 -11h-38q-5 0 -8 5zM385 652h-162l-50 -311h162q83 0 136.5 41.5t64.5 113.5t-29.5 114.5t-121.5 41.5z
M531 868l14 -32q4 -7 -5 -12l-197 -104q-8 -5 -12 2l-7 16q-4 7 2 12l193 120q8 5 12 -2z" />
    <glyph glyph-name="racute" unicode="&#x155;" horiz-adv-x="349" 
d="M374 399q-30 12 -66 12q-39 0 -76 -27.5t-62 -75.5l-48 -300q-2 -8 -8 -8h-26q-9 0 -7 8l68 427q2 8 9 8h18q8 0 8 -8l-7 -63q61 78 145 80q32 0 71 -12q9 -2 4 -10l-13 -27q-3 -7 -10 -4zM372 675l19 -29q6 -8 -3 -11l-171 -112q-7 -5 -12 0l-9 16q-5 8 2 12l163 124
q7 7 11 0z" />
    <glyph glyph-name="uni0156" unicode="&#x156;" horiz-adv-x="561" 
d="M459 5l-138 294h-135l-46 -290q-2 -9 -10 -9h-28q-10 0 -8 9l107 675q1 10 12 10h196q102 0 154 -53t39 -144q-15 -86 -77 -138.5t-154 -58.5l141 -289q5 -11 -7 -11h-38q-6 0 -8 5zM404 652h-162l-49 -311h162q83 0 136 41.5t64 113.5q12 72 -28 114.5t-123 41.5z
M264 -112q-8 -2 -10 -2q-15 2 -23 13.5t-5 27.5q3 19 15.5 30.5t31.5 11.5q30 0 35 -26q9 -47 -23 -91t-85 -66q-9 -4 -12 3l-7 14q-4 7 5 10q64 25 78 75z" />
    <glyph glyph-name="uni0157" unicode="&#x157;" horiz-adv-x="378" 
d="M404 399q-33 12 -66 12q-39 0 -77 -28t-62 -75l-47 -300q-2 -8 -8 -8h-26q-9 0 -7 8l67 427q2 8 10 8h18q7 0 7 -8l-7 -63q61 78 145 80q35 0 71 -12q8 -2 5 -10l-14 -27q-2 -8 -9 -4zM114 -112q-8 -2 -10 -2q-34 4 -29 41q3 19 16 30.5t32 11.5q30 0 35 -26
q9 -47 -23 -91t-85 -66q-9 -4 -12 3l-7 14q-4 6 4 10q62 25 79 75z" />
    <glyph glyph-name="Rcaron" unicode="&#x158;" horiz-adv-x="549" 
d="M452 5l-138 294h-135l-46 -290q-1 -9 -10 -9h-28q-9 0 -8 9l107 675q1 10 12 10h196q102 0 154 -53t39 -144q-14 -86 -75.5 -138.5t-154.5 -58.5l140 -289q5 -11 -7 -11h-38q-6 0 -8 5zM397 652h-162l-49 -311h162q83 0 136.5 41.5t64.5 113.5t-30 114.5t-122 41.5z
M301 845l98 -81l124 81q8 5 14 5h42q15 0 4 -9l-5 -3l-153 -100q-8 -5 -15 -5h-33q-7 0 -12 5l-123 100q-12 12 4 12h41q6 0 14 -5z" />
    <glyph glyph-name="rcaron" unicode="&#x159;" horiz-adv-x="349" 
d="M374 399q-30 12 -66 12q-39 0 -76 -27.5t-62 -75.5l-48 -300q-2 -8 -8 -8h-26q-9 0 -7 8l68 427q2 8 9 8h18q8 0 8 -8l-7 -63q61 78 145 80q32 0 71 -12q9 -2 4 -10l-13 -27q-3 -7 -10 -4zM161 670h33q6 0 11 -6l74 -118l112 118q7 6 12 6h34q10 0 3 -10l-133 -138
q-7 -7 -15 -7h-35q-7 0 -13 6l-89 139q-7 10 6 10z" />
    <glyph glyph-name="Sacute" unicode="&#x15a;" horiz-adv-x="565" 
d="M64 74q-8 5 -1 13l19 24q6 9 14 0q68 -75 201 -77q81 0 136.5 38.5t66.5 101.5q9 57 -31 87q-37 30 -148 59t-153 72.5t-32 119.5q10 81 85 137q75 55 177 54q129 -2 187 -67q5 -5 2 -13l-18 -27q-5 -9 -13 -1q-63 63 -170 63q-77 0 -136 -41q-57 -40 -68 -102
q-10 -60 28 -91q40 -31 151 -61q110 -30 152 -70t33 -108q-10 -87 -79 -142q-68 -54 -183 -53q-62 0 -115 18q-72 25 -105 66zM520 868l14 -32q3 -7 -5 -12l-198 -104q-7 -4 -11 2l-8 16q-3 8 3 12l193 120q7 4 12 -2z" />
    <glyph glyph-name="sacute" unicode="&#x15b;" horiz-adv-x="408" 
d="M50 40q-6 4 -1 12l15 21q4 7 11 2q55 -44 132 -44q55 0 94 23.5t44 58.5q6 35 -19.5 53.5t-97.5 38.5q-78 21 -106 47.5t-22 74.5q7 55 58 92q52 36 123 35q77 0 125 -42q6 -4 1 -12l-14 -21q-3 -8 -11 -3q-49 38 -111 38q-52 0 -87.5 -22.5t-41.5 -58.5q-6 -38 19 -54
q26 -17 97 -36q77 -22 106 -48.5t23 -76.5q-8 -57 -60 -92.5t-129 -34.5q-99 0 -148 49zM395 677l19 -29q5 -8 -4 -11l-170 -112q-7 -4 -13 0l-9 16q-4 6 2 12l163 124q7 6 12 0z" />
    <glyph glyph-name="Scircumflex" unicode="&#x15c;" horiz-adv-x="565" 
d="M64 74q-8 5 -1 13l19 24q6 9 14 0q68 -75 201 -77q81 0 136.5 38.5t66.5 101.5q9 57 -31 87q-37 30 -148 59t-153 72.5t-32 119.5q10 81 85 137q75 55 177 54q129 -2 187 -67q5 -5 2 -13l-18 -27q-5 -9 -13 -1q-63 63 -170 63q-77 0 -136 -41q-57 -40 -68 -102
q-10 -60 28 -91q40 -31 151 -61q110 -30 152 -70t33 -108q-10 -87 -79 -142q-68 -54 -183 -53q-62 0 -115 18q-72 25 -105 66zM506 740l-94 76l-117 -76q-7 -4 -14 -4h-40q-16 0 0 10l147 96q8 5 13 5h31q8 0 13 -5l117 -95q14 -11 -4 -11h-40q-7 0 -12 4z" />
    <glyph glyph-name="scircumflex" unicode="&#x15d;" horiz-adv-x="408" 
d="M50 40q-6 4 -1 12l15 21q4 7 11 2q55 -44 132 -44q55 0 94 23.5t44 58.5q6 35 -19.5 53.5t-97.5 38.5q-78 21 -106 47.5t-22 74.5q7 55 58 92q52 36 123 35q77 0 125 -42q6 -4 1 -12l-14 -21q-3 -8 -11 -3q-49 38 -111 38q-52 0 -87.5 -22.5t-41.5 -58.5q-6 -38 19 -54
q26 -17 97 -36q78 -23 107 -49.5t22 -75.5q-8 -57 -60 -92.5t-129 -34.5q-99 0 -148 49zM144 522l134 140q7 7 15 7h34q9 0 13 -7l89 -139q6 -9 -5 -9h-35q-6 0 -9 5l-75 118l-112 -117q-5 -6 -12 -6h-34q-11 0 -3 8z" />
    <glyph glyph-name="Scedilla" unicode="&#x15e;" horiz-adv-x="565" 
d="M64 74q-8 5 -1 13l19 24q6 9 14 0q68 -75 201 -77q81 0 136.5 38.5t66.5 101.5q9 57 -31 87q-37 30 -148 59t-153 72.5t-32 119.5q10 81 85 137q75 55 177 54q129 -2 187 -67q5 -5 2 -13l-18 -27q-5 -9 -13 -1q-63 63 -170 63q-77 0 -136 -41q-57 -40 -68 -102
q-10 -60 28 -91q40 -31 151 -61q110 -30 152 -70t33 -108q-10 -87 -79 -142q-68 -54 -183 -53q-62 0 -115 18q-72 25 -105 66zM267 0h38l-29 -49q48 -3 69.5 -19.5t15.5 -53.5t-36.5 -60t-73.5 -23q-51 0 -89 33q-4 4 1 11l13 15q4 5 11 1q35 -26 70 -26q27 0 45.5 13.5
t22.5 35.5q3 21 -16 29.5t-57 8.5h-24q-10 0 -5 9z" />
    <glyph glyph-name="scedilla" unicode="&#x15f;" horiz-adv-x="408" 
d="M50 40q-6 4 -1 12l15 21q4 7 11 2q55 -44 132 -44q55 0 94 23.5t44 58.5q6 35 -19.5 53.5t-97.5 38.5q-78 21 -106 47.5t-22 74.5q7 55 58 92q52 36 123 35q77 0 125 -42q6 -4 1 -12l-14 -21q-3 -8 -11 -3q-49 38 -111 38q-52 0 -87.5 -22.5t-41.5 -58.5q-6 -38 19 -54
q26 -17 97 -36q78 -23 107 -49.5t22 -75.5q-8 -57 -60 -92.5t-129 -34.5q-99 0 -148 49zM188 0h39l-31 -52q50 -3 73 -21t17 -55q-6 -39 -38.5 -63.5t-77.5 -24.5q-52 0 -93 35q-6 4 1 11l13 16q6 6 12 1q39 -27 73 -27q29 0 48.5 14t23.5 38q3 22 -16 31t-60 9h-26
q-10 0 -5 9z" />
    <glyph glyph-name="Scaron" unicode="&#x160;" horiz-adv-x="565" 
d="M64 74q-8 5 -1 13l19 24q6 9 14 0q68 -75 201 -77q81 0 136.5 38.5t66.5 101.5q9 57 -31 87q-37 30 -148 59t-153 72.5t-32 119.5q10 81 85 137q75 55 177 54q129 -2 187 -67q5 -5 2 -13l-18 -27q-5 -9 -13 -1q-63 63 -170 63q-77 0 -136 -41q-57 -40 -68 -102
q-10 -60 28 -91q40 -31 151 -61q110 -30 152 -70t33 -108q-10 -87 -79 -142q-68 -54 -183 -53q-62 0 -115 18q-72 25 -105 66zM306 845l98 -81l124 81q8 5 15 5h42q15 0 2 -10l-3 -2l-154 -100q-8 -5 -15 -5h-33q-4 0 -12 5l-122 100q-14 12 4 12h41q5 0 13 -5z" />
    <glyph glyph-name="scaron" unicode="&#x161;" horiz-adv-x="409" 
d="M52 40q-5 3 -2 12l16 21q4 6 11 2q55 -44 132 -44q55 0 94 23.5t44 58.5q6 35 -19.5 53.5t-97.5 38.5q-78 21 -106.5 47.5t-21.5 74.5q7 55 58 92q52 36 123 35q77 0 125 -42q5 -4 1 -12l-14 -21q-4 -7 -11 -3q-49 38 -111 38q-52 0 -87.5 -22.5t-41.5 -58.5
q-6 -38 19 -54q26 -17 97 -36q77 -22 106 -48.5t23 -76.5q-8 -57 -60 -92.5t-129 -34.5q-99 0 -148 49zM169 669h33q6 0 11 -6l74 -118l112 118q7 6 12 6h34q10 0 3 -10l-133 -138q-7 -7 -15 -7h-35q-7 0 -13 6l-89 139q-7 10 6 10z" />
    <glyph glyph-name="uni0162" unicode="&#x162;" horiz-adv-x="534" 
d="M397 684q1 9 -7 9h-26q-10 0 -11 -9l-107 -675q-2 -9 8 -9h27q9 0 10 9zM114 660l4 25q2 8 11 8h496q10 0 8 -8l-4 -24q-1 -9 -11 -9h-497q-9 0 -7 8z" />
    <glyph glyph-name="uni0163" unicode="&#x163;" horiz-adv-x="331" 
d="M292 58q11 8 13 1l13 -22q3 -7 -5 -12q-43 -34 -92 -34q-53 0 -73 42t-7 120l72 445q1 9 10 9h23q8 0 8 -9l-71 -439q-11 -69 1.5 -98.5t46.5 -29.5q31 0 61 27zM86 413l3 21q1 9 10 9h256q9 0 7 -9l-3 -21q-1 -7 -10 -7h-256q-8 0 -7 7z" />
    <glyph glyph-name="Tcaron" unicode="&#x164;" horiz-adv-x="533" 
d="M245 8l102 644h-226q-9 0 -7 9l3 24q1 9 11 9h497q9 0 7 -9l-3 -24q-1 -9 -11 -9h-226l-102 -644q-2 -8 -9 -8h-28q-10 0 -8 8zM289 845l98 -81l124 81q8 5 15 5h42q15 0 2 -10l-3 -2l-154 -100q-8 -5 -14 -5h-33q-5 0 -13 5l-122 100q-14 12 4 12h41q8 0 13 -5z" />
    <glyph glyph-name="tcaron" unicode="&#x165;" horiz-adv-x="376" 
d="M222 405l-39 -246q-11 -69 1.5 -98t46.5 -30q29 0 63 28q7 5 11 0l13 -22q3 -7 -5 -12q-44 -34 -92 -34q-53 0 -73 42t-7 120l40 252h-88q-9 0 -7 9l3 21q2 8 10 8h88l26 155q1 9 9 9h24q10 0 8 -9l-26 -155h127q10 0 8 -8l-3 -21q-2 -9 -11 -9h-127zM405 615
q-10 -2 -11 -2q-15 2 -23 13.5t-5 27.5q3 19 15.5 30.5t31.5 11.5q30 0 35 -26q9 -47 -23 -91t-85 -66q-9 -5 -12 3l-7 14q-4 7 5 10q62 25 79 75z" />
    <glyph glyph-name="Tbar" unicode="&#x166;" horiz-adv-x="533" 
d="M632 685l-3 -24q-1 -9 -11 -9h-226l-42 -268h132q9 0 7 -8l-5 -26q0 -8 -9 -8h-132l-53 -334q-2 -8 -9 -8h-28q-10 0 -8 8l53 334h-132q-9 0 -7 8l5 26q2 8 9 8h132l42 268h-226q-7 0 -6 9l3 24q2 9 10 9h497q9 0 7 -9z" />
    <glyph glyph-name="tbar" unicode="&#x167;" horiz-adv-x="331" 
d="M320 238h-124q-10 -72 -13 -79q-11 -69 1.5 -98t46.5 -30q29 0 63 28q7 5 11 0l13 -22q3 -7 -5 -12q-44 -34 -92 -34q-53 0 -73 42t-7 120l14 85h-84q-9 0 -7 8l4 26q2 8 9 8h84l20 125h-88q-9 0 -7 9l3 21q2 8 10 8h88l26 155q1 9 9 9h24q10 0 8 -9l-26 -155h127
q10 0 8 -8l-3 -21q-2 -9 -11 -9h-127l-20 -125h124q9 0 7 -8l-4 -26q-2 -8 -9 -8z" />
    <glyph glyph-name="Utilde" unicode="&#x168;" horiz-adv-x="666" 
d="M129 272l65 412q2 9 11 9h27q8 0 7 -9l-65 -413q-18 -110 27 -173t139 -63q92 0 155.5 62.5t81.5 173.5l65 414q2 8 11 8h28q9 0 7 -8l-65 -414q-21 -132 -100 -206t-190 -74q-114 -2 -170 74q-55 74 -34 207zM330 757q-5 -8 -12 -4l-14 12q-4 4 -1 11q20 41 48 64t56 23
q22 0 38.5 -13.5t24 -30t20 -29.5t29.5 -12q36 1 70 64q6 9 12 3l14 -11q4 -2 2 -10q-42 -87 -105 -87q-22 0 -38 13.5t-24 29t-21 29t-29 13.5q-39 -2 -70 -65z" />
    <glyph glyph-name="utilde" unicode="&#x169;" 
d="M432 8l10 101q-63 -119 -187 -119q-85 0 -123 50t-23 148l39 246q2 9 9 9h25q8 0 7 -9l-39 -247q-12 -77 18 -116.5t97 -39.5q68 0 123 53q53 52 70 133l35 218q2 8 9 8h25q9 0 7 -8l-68 -427q-2 -8 -9 -8h-17q-10 0 -8 8zM234 547q-6 -9 -12 -4l-14 13q-4 3 -1 9
q43 88 105 88q22 0 38 -13.5t23.5 -30t20.5 -29.5t30 -12q39 2 71 65q3 8 11 3l15 -13q5 -3 0 -8q-18 -41 -46.5 -64.5t-58.5 -23.5q-22 0 -38 13.5t-24 29t-21 29t-29 13.5q-36 -2 -70 -65z" />
    <glyph glyph-name="Umacron" unicode="&#x16a;" horiz-adv-x="666" 
d="M129 272l65 412q2 9 11 9h27q8 0 7 -9l-65 -413q-18 -110 27 -173t139 -63q92 0 155.5 62.5t81.5 173.5l65 414q2 8 11 8h28q9 0 7 -8l-65 -414q-21 -132 -100 -206t-190 -74q-114 -2 -170 74q-55 74 -34 207zM347 807h228q9 0 7 -8l-4 -26q-2 -9 -10 -9h-228q-8 0 -7 9
l4 26q2 8 10 8z" />
    <glyph glyph-name="umacron" unicode="&#x16b;" 
d="M432 8l10 101q-63 -119 -187 -119q-85 0 -123 50t-23 148l39 246q2 9 9 9h25q8 0 7 -9l-39 -247q-12 -77 18 -116.5t97 -39.5q68 0 123 53q53 52 70 133l35 218q2 8 9 8h25q9 0 7 -8l-68 -427q-2 -8 -9 -8h-17q-10 0 -8 8zM258 627h228q9 0 7 -8l-4 -27q-1 -7 -10 -7
h-228q-9 0 -7 8l4 26q2 8 10 8z" />
    <glyph glyph-name="Ubreve" unicode="&#x16c;" horiz-adv-x="666" 
d="M129 272l65 412q2 9 11 9h27q8 0 7 -9l-65 -413q-18 -110 27 -173t139 -63q92 0 155.5 62.5t81.5 173.5l65 414q2 8 11 8h28q9 0 7 -8l-65 -414q-21 -132 -100 -206t-190 -74q-114 -2 -170 74q-55 74 -34 207zM584 859l23 1q7 0 6 -10q-11 -53 -56 -86t-108 -33
q-62 0 -96.5 32.5t-29.5 86.5q1 10 9 10h25q6 0 6 -10q-1 -37 23.5 -57.5t68.5 -20.5q46 0 77 20.5t42 57.5q3 9 10 9z" />
    <glyph glyph-name="ubreve" unicode="&#x16d;" 
d="M432 8l10 101q-63 -119 -187 -119q-85 0 -123 50t-23 148l39 246q2 9 9 9h25q8 0 7 -9l-39 -247q-12 -77 18 -116.5t97 -39.5q68 0 123 53q53 52 70 133l35 218q2 8 9 8h25q9 0 7 -8l-68 -427q-2 -8 -9 -8h-17q-10 0 -8 8zM484 674h25q6 0 5 -10q-12 -62 -56 -100.5
t-105 -38.5q-59 0 -90.5 38t-24.5 101q1 10 9 10h24q7 0 6 -9q-3 -43 19.5 -71.5t63.5 -28.5q40 0 72 28t43 72q1 9 9 9z" />
    <glyph glyph-name="Uring" unicode="&#x16e;" horiz-adv-x="666" 
d="M129 272l65 412q2 9 11 9h27q8 0 7 -9l-65 -413q-18 -110 27 -173t139 -63q92 0 155.5 62.5t81.5 173.5l65 414q2 8 11 8h28q9 0 7 -8l-65 -414q-21 -132 -100 -206t-190 -74q-114 -2 -170 74q-55 74 -34 207zM370 804q7 41 35.5 66t68.5 25q41 0 62 -25t15 -66
q-7 -41 -36 -66t-70 -25q-40 0 -60.5 25t-14.5 66zM402 804q-4 -26 9.5 -42t39.5 -16t45 16t23 42q4 27 -9.5 43t-39.5 16q-27 0 -45.5 -16t-22.5 -43z" />
    <glyph glyph-name="uring" unicode="&#x16f;" 
d="M432 8l10 101q-63 -119 -187 -119q-85 0 -123 50t-23 148l39 246q2 9 9 9h25q8 0 7 -9l-39 -247q-12 -77 18 -116.5t97 -39.5q68 0 123 53q53 52 70 133l35 218q2 8 9 8h25q9 0 7 -8l-68 -427q-2 -8 -9 -8h-17q-10 0 -8 8zM276 596q7 41 35.5 65.5t68.5 24.5
q41 0 62 -24.5t15 -65.5q-7 -41 -36 -66.5t-70 -25.5q-40 0 -60.5 25.5t-14.5 66.5zM308 596q-4 -27 9.5 -43t39.5 -16q27 0 45.5 16t22.5 43q4 26 -9.5 42.5t-39.5 16.5t-45 -16.5t-23 -42.5z" />
    <glyph glyph-name="Uhungarumlaut" unicode="&#x170;" horiz-adv-x="666" 
d="M129 272l65 412q2 9 11 9h27q8 0 7 -9l-65 -413q-18 -110 27 -173t139 -63q92 0 155.5 62.5t81.5 173.5l65 414q2 8 11 8h28q9 0 7 -8l-65 -414q-21 -132 -100 -206t-190 -74q-114 -2 -170 74q-55 74 -34 207zM581 872l29 -25q8 -5 -1 -13l-107 -98q-7 -7 -14 -2l-14 11
q-6 6 0 13l93 111q8 8 14 3zM426 872l29 -25q7 -5 -1 -13l-107 -98q-7 -7 -14 -2l-14 11q-6 6 0 13l94 111q7 7 13 3z" />
    <glyph glyph-name="uhungarumlaut" unicode="&#x171;" 
d="M432 8l10 101q-63 -119 -187 -119q-85 0 -123 50t-23 148l39 246q2 9 9 9h25q8 0 7 -9l-39 -247q-12 -77 18 -116.5t97 -39.5q68 0 123 53q53 52 70 133l35 218q2 8 9 8h25q9 0 7 -8l-68 -427q-2 -8 -9 -8h-17q-10 0 -8 8zM489 694l29 -18q9 -5 1 -13l-120 -133
q-6 -6 -12 -3l-15 11q-7 2 1 11l103 141q6 8 13 4zM333 694l31 -19q8 -3 0 -12l-120 -133q-6 -6 -11 -2l-16 10q-7 3 1 11l103 141q7 8 12 4z" />
    <glyph glyph-name="Uogonek" unicode="&#x172;" horiz-adv-x="666" 
d="M129 272l65 412q2 9 11 9h27q8 0 7 -9l-65 -413q-18 -110 27 -173t139 -63q92 0 155.5 62.5t81.5 173.5l65 414q2 8 11 8h28q9 0 7 -8l-65 -414q-21 -132 -100 -206t-190 -74q-114 -2 -170 74q-55 74 -34 207zM370 -178q-36 -36 -87 -36q-43 0 -65 24t-16 63q8 44 51 86
l35 31l40 31l18 -22q-52 -41 -75.5 -68t-28.5 -56q-4 -24 9 -38.5t37 -14.5q28 0 56 22q8 8 13 3l15 -12q6 -5 -2 -13z" />
    <glyph glyph-name="uogonek" unicode="&#x173;" 
d="M432 8l10 101q-63 -119 -187 -119q-85 0 -123 50t-23 148l39 246q2 9 9 9h25q8 0 7 -9l-39 -247q-12 -77 18 -116.5t97 -39.5q68 0 123 53q53 52 70 133l35 218q2 8 9 8h25q9 0 7 -8l-68 -427q-2 -8 -9 -8h-17q-10 0 -8 8zM483 -167q-32 -35 -86 -35q-41 0 -62.5 23
t-15.5 60q3 31 41 72q22 22 33 31q12 8 17 13q21 12 33 24l21 -18l-55 -44q-46 -44 -51 -76q-3 -23 9 -36.5t36 -13.5q29 0 54 21q7 8 13 2l14 -12q5 -5 -1 -11z" />
    <glyph glyph-name="Wcircumflex" unicode="&#x174;" horiz-adv-x="853" 
d="M210 8l-89 675q-2 11 8 11h30q8 0 9 -7l77 -614l264 613q2 8 11 8h32q7 0 9 -8l70 -615l272 616q1 7 10 7h31q9 0 4 -11l-303 -675q-5 -8 -13 -8h-26q-9 0 -11 8l-69 622l-267 -622q-3 -8 -11 -8h-27q-9 0 -11 8zM546 854h31q7 0 12 -4l117 -95q14 -12 -3 -12h-40
q-5 0 -13 5l-93 76l-118 -76q-8 -5 -14 -5h-40q-17 0 0 11l147 96q9 4 14 4z" />
    <glyph glyph-name="wcircumflex" unicode="&#x175;" horiz-adv-x="643" 
d="M478 0h-30q-11 0 -11 8l-54 379l-174 -379q-5 -8 -14 -8h-30q-9 0 -11 8l-71 425q-1 10 6 10h32q7 0 9 -8l57 -390l179 390q5 8 11 8h29q7 0 9 -8l55 -390l182 390q5 8 11 8h31q8 0 4 -10l-206 -425q-5 -8 -14 -8zM298 515h-34q-9 0 -3 8l135 140q4 7 15 7h34q6 0 13 -7
l89 -139q6 -9 -6 -9h-35q-6 0 -9 5l-74 118l-113 -117q-4 -6 -12 -6z" />
    <glyph glyph-name="Ycircumflex" unicode="&#x176;" 
d="M249 8l43 271l-170 404q-4 10 9 10h33q9 0 12 -8l146 -362l266 362q5 8 14 8h34q10 0 2 -11l-301 -402l-43 -272q0 -8 -10 -8h-27q-8 0 -8 8zM495 743l-93 76l-118 -76q-8 -5 -14 -5h-40q-17 0 0 11l147 96q9 4 13 4h32q7 0 12 -4l117 -95q13 -12 -3 -12h-40q-8 0 -13 5z
" />
    <glyph glyph-name="ycircumflex" unicode="&#x177;" horiz-adv-x="443" 
d="M461 443h29q11 0 4 -13l-374 -649q-4 -9 -13 -9h-25q-12 0 -3 13l125 220l-119 425q-4 13 8 13h29q8 0 10 -9l100 -379l217 379q5 9 12 9zM162 522l134 140q4 7 15 7h34q6 0 13 -7l89 -139q6 -9 -6 -9h-35q-4 0 -9 5l-74 118l-113 -117q-3 -6 -12 -6h-34q-10 0 -2 8z" />
    <glyph glyph-name="Ydieresis" unicode="&#x178;" 
d="M249 8l43 271l-170 404q-4 10 9 10h33q9 0 12 -8l146 -362l266 362q5 8 14 8h34q10 0 2 -11l-301 -402l-43 -272q0 -8 -10 -8h-27q-8 0 -8 8zM271 791q3 20 17.5 32.5t34.5 12.5q19 0 29.5 -12.5t6.5 -32.5q-3 -19 -17 -31t-33 -12q-20 0 -30.5 12t-7.5 31zM435 791
q4 20 18 32.5t33 12.5q20 0 30 -12.5t7 -32.5q-3 -32 -37 -40q-32 -8 -47 12q-8 11 -4 28z" />
    <glyph glyph-name="Zacute" unicode="&#x179;" horiz-adv-x="560" 
d="M624 677l-516 -635h422q8 0 6 -9l-4 -24q-2 -9 -9 -9h-484q-19 0 -6 16l516 635h-399q-8 0 -7 9l3 25q2 8 11 8h461q19 0 6 -16zM514 868l14 -32q3 -7 -5 -12l-197 -104q-8 -5 -12 2l-8 16q-3 8 3 12l193 120q8 5 12 -2z" />
    <glyph glyph-name="zacute" unicode="&#x17a;" horiz-adv-x="451" 
d="M395 0h-335q-19 0 -6 16l342 389h-266q-9 0 -7 8l4 22q2 8 9 8h322q19 0 5 -17l-342 -388h280q9 0 7 -8l-4 -22q-2 -8 -9 -8zM437 666l19 -29q4 -7 -4 -12l-170 -111q-8 -5 -13 0l-9 15q-4 7 2 13l163 124q9 8 12 0z" />
    <glyph glyph-name="Zdotaccent" unicode="&#x17b;" horiz-adv-x="560" 
d="M624 677l-516 -635h422q8 0 6 -9l-4 -24q-2 -9 -9 -9h-484q-19 0 -6 16l516 635h-399q-8 0 -7 9l3 25q2 8 11 8h461q19 0 6 -16zM411 839q19 0 28.5 -11t6.5 -29q-8 -41 -48 -41q-29 -2 -33 26q-5 30 18 47q13 9 28 8z" />
    <glyph glyph-name="zdotaccent" unicode="&#x17c;" horiz-adv-x="451" 
d="M395 0h-335q-19 0 -6 16l342 389h-266q-9 0 -7 8l4 22q2 8 9 8h322q19 0 5 -17l-342 -388h280q9 0 7 -8l-4 -22q-2 -8 -9 -8zM286 617q3 19 15.5 29.5t30.5 10.5q40 0 34 -40q-3 -18 -15.5 -29t-30.5 -11q-19 0 -28 11t-6 29z" />
    <glyph glyph-name="Zcaron" unicode="&#x17d;" horiz-adv-x="560" 
d="M624 677l-516 -635h422q8 0 6 -9l-4 -24q-2 -9 -9 -9h-484q-19 0 -6 16l516 635h-399q-8 0 -7 9l3 25q2 8 11 8h461q19 0 6 -16zM302 845l98 -81l124 81q8 5 15 5h42q15 0 2 -10l-3 -2l-154 -100q-8 -5 -15 -5h-33q-7 0 -12 5l-122 100q-13 12 4 12h41q5 0 13 -5z" />
    <glyph glyph-name="zcaron" unicode="&#x17e;" horiz-adv-x="451" 
d="M395 0h-335q-19 0 -6 16l342 389h-266q-9 0 -7 8l4 22q2 8 9 8h322q19 0 5 -17l-342 -388h280q9 0 7 -8l-4 -22q-2 -8 -9 -8zM197 670h33q6 0 11 -6l75 -118l111 118q7 6 12 6h34q11 0 4 -10l-134 -138q-7 -7 -14 -7h-35q-8 0 -13 6l-89 139q-7 10 5 10z" />
    <glyph glyph-name="longs" unicode="&#x17f;" horiz-adv-x="305" 
d="M229 565l-87 -556q-2 -9 -8 -9h-26q-8 0 -7 9l88 561q12 75 53.5 119t100.5 44q57 0 97 -31q6 -4 2 -11l-18 -23q-4 -5 -11 -1q-34 25 -74 25q-42 0 -70.5 -32.5t-39.5 -94.5z" />
    <glyph glyph-name="florin" unicode="&#x192;" horiz-adv-x="455" 
d="M591 690l-20 -22q-5 -8 -14 0q-29 23 -71 23q-82 0 -123 -126l-39 -131h146q10 0 7 -9l-6 -22q-3 -8 -12 -8h-146l-90 -303q-30 -98 -96.5 -133.5t-157.5 -1.5q-9 4 -2 11l19 23q5 6 13 3q65 -26 112.5 2t71.5 107l87 292h-66q-9 0 -6 10l6 21q2 8 12 8h66l40 136
q23 77 70 120t106 43q56 0 92 -30q8 -6 1 -13z" />
    <glyph glyph-name="uni0218" unicode="&#x218;" horiz-adv-x="565" 
d="M64 74q-8 5 -1 13l19 24q6 9 14 0q68 -75 201 -77q81 0 136.5 38.5t66.5 101.5q9 57 -31 87q-37 30 -148 59t-153 72.5t-32 119.5q10 81 85 137q75 55 177 54q129 -2 187 -67q5 -5 2 -13l-18 -27q-5 -9 -13 -1q-63 63 -170 63q-77 0 -136 -41q-57 -40 -68 -102
q-10 -60 28 -91q40 -31 151 -61q110 -30 152 -70t33 -108q-10 -87 -79 -142q-68 -54 -183 -53q-62 0 -115 18q-72 25 -105 66zM263 -112q-8 -2 -10 -2q-34 4 -29 41q3 19 16 30.5t32 11.5q30 0 35 -26q9 -47 -23 -91t-85 -66q-9 -4 -12 3l-7 14q-4 6 4 10q62 25 79 75z" />
    <glyph glyph-name="uni0219" unicode="&#x219;" horiz-adv-x="408" 
d="M50 40q-6 4 -1 12l15 21q4 7 11 2q55 -44 132 -44q55 0 94 23.5t44 58.5q6 35 -19.5 53.5t-97.5 38.5q-78 21 -106 47.5t-22 74.5q7 55 58 92q52 36 123 35q77 0 125 -42q6 -4 1 -12l-14 -21q-3 -8 -11 -3q-49 38 -111 38q-52 0 -87.5 -22.5t-41.5 -58.5q-6 -38 19 -54
q26 -17 97 -36q78 -23 107 -49.5t22 -75.5q-8 -57 -60 -92.5t-129 -34.5q-99 0 -148 49zM188 -112q-8 -2 -11 -2q-15 2 -23 13.5t-5 27.5q3 19 16 30.5t32 11.5q29 0 34 -26q9 -48 -22 -91q-32 -44 -85 -66q-10 -4 -13 3l-7 14q-3 7 5 10q62 25 79 75z" />
    <glyph glyph-name="uni021A" unicode="&#x21a;" horiz-adv-x="533" 
d="M245 8l102 644h-226q-9 0 -7 9l3 24q1 9 11 9h497q9 0 7 -9l-3 -24q-1 -9 -11 -9h-226l-102 -644q-2 -8 -9 -8h-28q-10 0 -8 8zM251 -112q-8 -2 -10 -2q-15 2 -23 13.5t-5 27.5q3 19 15.5 30.5t31.5 11.5q30 0 35 -26q9 -47 -23 -91t-85 -66q-9 -4 -12 3l-7 14q-4 7 5 10
q65 25 78 75z" />
    <glyph glyph-name="uni021B" unicode="&#x21b;" horiz-adv-x="331" 
d="M222 405l-39 -246q-11 -69 1.5 -98t46.5 -30q29 0 63 28q7 5 11 0l13 -22q3 -7 -5 -12q-44 -34 -92 -34q-53 0 -73 42t-7 120l40 252h-88q-9 0 -7 9l3 21q2 8 10 8h88l26 155q1 9 9 9h24q10 0 8 -9l-26 -155h127q10 0 8 -8l-3 -21q-2 -9 -11 -9h-127zM190 -112
q-8 -2 -10 -2q-34 4 -29 41q3 19 16 30.5t32 11.5q30 0 35 -26q9 -47 -23 -91t-85 -66q-9 -4 -12 3l-7 14q-4 6 4 10q62 25 79 75z" />
    <glyph glyph-name="uni0237" unicode="&#x237;" horiz-adv-x="226" 
d="M106 -73l83 530q1 9 11 9h26q8 0 7 -9l-84 -536q-12 -78 -56 -124.5t-105 -46.5q-63 0 -101 35q-7 4 -2 12l20 24q4 6 12 1q32 -29 76 -29q42 0 72 34.5t41 99.5z" />
    <glyph glyph-name="circumflex" unicode="&#x2c6;" horiz-adv-x="394" 
d="M138 528l134 140q4 7 15 7h34q6 0 13 -7l89 -139q6 -9 -6 -9h-35q-4 0 -9 5l-74 118l-113 -117q-3 -6 -12 -6h-34q-10 0 -2 8z" />
    <glyph glyph-name="caron" unicode="&#x2c7;" horiz-adv-x="403" 
d="M171 675h33q5 0 11 -6l74 -118l112 118q6 6 12 6h34q10 0 3 -10l-134 -138q-4 -7 -14 -7h-35q-7 0 -13 6l-89 139q-7 10 6 10z" />
    <glyph glyph-name="uni02C9" unicode="&#x2c9;" horiz-adv-x="325" 
d="M159 694h227q8 0 7 -9l-3 -25q-2 -9 -11 -9h-227q-8 0 -7 9l3 25q2 9 11 9z" />
    <glyph glyph-name="breve" unicode="&#x2d8;" horiz-adv-x="370" 
d="M402 693h23q7 0 5 -9q-12 -63 -56 -101.5t-104 -38.5q-59 0 -90.5 38.5t-24.5 101.5q1 9 9 9h23q7 0 7 -8q-3 -45 19 -73t63 -28t73.5 29t41.5 72q3 8 11 8z" />
    <glyph glyph-name="dotaccent" unicode="&#x2d9;" horiz-adv-x="161" 
d="M192 698q29 3 33 -25q4 -30 -19 -48q-12 -9 -27 -8q-30 -2 -35 26q-4 30 19 47q13 10 29 8z" />
    <glyph glyph-name="ring" unicode="&#x2da;" horiz-adv-x="261" 
d="M242 709q41 0 62.5 -25t14.5 -65q-7 -41 -36 -66q-28 -25 -69 -25t-62 25q-21 26 -14 66q7 41 35.5 65.5t68.5 24.5zM170 618q-4 -26 9.5 -42t39.5 -16q27 0 45.5 15.5t23.5 42.5q4 27 -10 43t-41 16q-26 0 -44 -16t-23 -43z" />
    <glyph glyph-name="ogonek" unicode="&#x2db;" horiz-adv-x="217" 
d="M210 -178q-37 -37 -89 -37q-42 0 -64 24t-15 62q1 19 14 39q18 26 28 36q8 7 16 15.5t17 15.5l17 13l17 13l16 11l22 -18q-48 -39 -56 -46q-47 -45 -52 -77q-4 -23 9 -37t37 -14q31 0 55 21q9 8 14 3l15 -12q5 -5 -1 -12z" />
    <glyph glyph-name="tilde" unicode="&#x2dc;" horiz-adv-x="388" 
d="M163 588q-4 -10 -12 -4l-14 12q-5 5 0 10q21 42 49 65t56 22q22 0 38 -13.5t23.5 -29.5t20 -29t29.5 -12q37 1 71 64q4 10 11 4l15 -13q4 -3 2 -8q-42 -88 -106 -88q-22 0 -38 13t-24 29t-21 29t-29 13q-34 0 -71 -64z" />
    <glyph glyph-name="hungarumlaut" unicode="&#x2dd;" horiz-adv-x="368" 
d="M405 721l29 -18q9 -4 0 -13l-119 -133q-6 -6 -12 -3l-16 10q-4 4 1 11l103 141q6 10 14 5zM249 721l31 -19q8 -4 0 -12l-120 -133q-5 -8 -11 -3l-16 10q-5 4 0 12l104 141q4 9 12 4z" />
    <glyph glyph-name="uni0313" unicode="&#x313;" horiz-adv-x="236" 
d="M110 -112q-8 -2 -10 -2q-34 4 -29 41q3 19 16 30.5t32 11.5q30 0 35 -26q9 -47 -23 -91t-85 -66q-9 -4 -12 3l-7 14q-4 6 4 10q62 25 79 75z" />
    <glyph glyph-name="uni0394" unicode="&#x394;" horiz-adv-x="658" 
d="M463 676l-369 -666l-2 -1q-4 -9 -14 -9h-53q-15 0 -8 13l380 670q6 10 16 10h52zM413 693h52h-1q10 0 13 -10l167 -668q3 -15 -12 -15h-45q-11 0 -12 10l-165 666zM591 0h-519l10 66h519z" />
    <glyph glyph-name="uni03A9" unicode="&#x3a9;" horiz-adv-x="797" 
d="M577 45h193q10 0 8 -8l-5 -29q-2 -8 -10 -8h-264q-8 0 -7 10l5 35q106 40 179 122q74 83 89 180q23 140 -50 226q-72 86 -212 86q-138 0 -238 -86q-99 -86 -122 -226q-16 -100 33 -182q49 -81 147 -119l-5 -36q-1 -10 -12 -10h-264q-8 0 -7 9l5 29q2 8 9 8l185 -1
q-78 46 -114.5 126.5t-21.5 175.5q25 159 139 258q113 98 273 98q159 0 242 -98t58 -258q-16 -95 -78 -175.5t-155 -126.5z" />
    <glyph glyph-name="uni03BC" unicode="&#x3bc;" horiz-adv-x="546" 
d="M77 -227h-25q-7 0 -7 9l104 652q1 9 9 9h25q9 0 7 -9l-19 -114q-17 -100 -21 -138q-11 -75 19 -113t97 -38q68 0 123 53q53 52 70 133l35 217q2 9 10 9h23q9 0 8 -9l-68 -425q-1 -9 -10 -9h-15q-5 0 -7.5 2t-1.5 6l10 101q-63 -119 -187 -119q-96 0 -126 65l-44 -273
q0 -9 -9 -9z" />
    <glyph glyph-name="pi" unicode="&#x3c0;" horiz-adv-x="572" 
d="M95 410l4 26q2 8 10 8h494q10 0 8 -8l-4 -26q-2 -8 -10 -8h-87l-63 -393q-1 -9 -10 -9h-24q-9 0 -9 9l63 393h-234l-63 -393q-2 -9 -10 -9h-25q-9 0 -8 9l63 393h-87q-10 0 -8 8z" />
    <glyph glyph-name="Wgrave" unicode="&#x1e80;" horiz-adv-x="853" 
d="M210 8l-89 675q-2 11 8 11h30q8 0 9 -7l77 -614l264 613q2 8 11 8h32q7 0 9 -8l70 -615l272 616q1 7 10 7h31q9 0 4 -11l-303 -675q-5 -8 -13 -8h-26q-9 0 -11 8l-69 622l-267 -622q-3 -8 -11 -8h-27q-9 0 -11 8zM606 719l-164 105q-8 3 -1 12l24 31q5 8 12 2l154 -119
q6 -4 0 -12l-13 -17q-4 -7 -12 -2z" />
    <glyph glyph-name="wgrave" unicode="&#x1e81;" horiz-adv-x="643" 
d="M169 0l6 17l192 418q2 8 10 8h19q12 0 6 -15l-193 -419q-3 -9 -14 -9h-26zM191 11l-4 -11h-22q-9 0 -11 8l-71 425q-1 10 7 10h31q8 0 8 -8zM458 0l-3 11l197 424q3 8 10 8h32q8 0 4 -10l-206 -424q-4 -9 -14 -9h-20zM473 21l2 -21h-27q-10 0 -11 9l-58 413q-3 10 -3 20
q3 1 15 1h15q7 0 9 -8zM450 524l-135 110q-8 6 0 11l28 30q7 7 12 0l124 -125q3 -4 -2 -11l-16 -14q-5 -5 -11 -1z" />
    <glyph glyph-name="Wacute" unicode="&#x1e82;" horiz-adv-x="853" 
d="M210 8l-89 675q-2 11 8 11h30q8 0 9 -7l77 -614l264 613q2 8 11 8h32q7 0 9 -8l70 -615l272 616q1 7 10 7h31q9 0 4 -11l-303 -675q-5 -8 -13 -8h-26q-9 0 -11 8l-69 622l-267 -622q-3 -8 -11 -8h-27q-9 0 -11 8zM672 868l14 -32q5 -8 -5 -12l-197 -104q-8 -5 -12 2
l-7 16q-3 8 3 12l193 120q7 4 11 -2z" />
    <glyph glyph-name="wacute" unicode="&#x1e83;" horiz-adv-x="643" 
d="M478 0h-30q-11 0 -11 8l-54 379l-174 -379q-5 -8 -14 -8h-30q-9 0 -11 8l-71 425q-1 10 6 10h32q7 0 9 -8l57 -390l179 390q5 8 11 8h29q7 0 9 -8l55 -390l182 390q5 8 11 8h31q8 0 4 -10l-206 -425q-5 -8 -14 -8zM510 667l19 -29q5 -8 -4 -11l-170 -112q-7 -5 -12 0
l-9 16q-5 8 2 12l163 124q7 7 11 0z" />
    <glyph glyph-name="Wdieresis" unicode="&#x1e84;" horiz-adv-x="853" 
d="M210 8l-89 675q-2 11 8 11h30q8 0 9 -7l77 -614l264 613q2 8 11 8h32q7 0 9 -8l70 -615l272 616q1 7 10 7h31q9 0 4 -11l-303 -675q-5 -8 -13 -8h-26q-9 0 -11 8l-69 622l-267 -622q-3 -8 -11 -8h-27q-9 0 -11 8zM426 791q2 33 36 42q32 9 47 -12q10 -12 5 -30
q-3 -32 -37 -40q-32 -8 -47 12q-8 11 -4 28zM590 791q2 33 36 42q32 9 47 -12q10 -12 5 -30q-4 -19 -18 -31t-33 -12q-20 0 -30 12t-7 31z" />
    <glyph glyph-name="wdieresis" unicode="&#x1e85;" horiz-adv-x="643" 
d="M478 0h-30q-11 0 -11 8l-54 379l-174 -379q-5 -8 -14 -8h-30q-9 0 -11 8l-71 425q-1 10 6 10h32q7 0 9 -8l57 -390l179 390q5 8 11 8h29q7 0 9 -8l55 -390l182 390q5 8 11 8h31q8 0 4 -10l-206 -425q-5 -8 -14 -8zM294 612q1 33 35 42q32 9 47 -12q10 -12 5 -30
q-3 -19 -17 -31t-34 -12t-30 12t-6 31zM457 612q1 32 35 42q31 9 48 -11q10 -12 5 -31q-3 -19 -17.5 -31t-33.5 -12q-20 0 -30 12t-7 31z" />
    <glyph glyph-name="LatinCapitalLetterSharpS" unicode="&#x1e9e;" horiz-adv-x="627" 
d="M334 42q33 -24 79 -24q53 0 94 32t49 80q6 37 -9.5 68t-41 52.5t-51 41t-42 43t-12.5 49.5q7 45 73 86q67 43 74 88q7 44 -34 73t-100 29q-79 0 -138 -56q-58 -56 -71 -146l-71 -448q-1 -9 -11 -9h-28q-8 0 -6 9l72 457q16 107 87 171q71 65 173 67q73 0 128 -40.5
t44 -106.5q-5 -32 -27 -60.5t-49 -44.5q-65 -41 -71 -71q-3 -16 14.5 -34t43.5 -37t51.5 -42t40 -58.5t7.5 -78.5q-10 -69 -68 -114q-55 -45 -127 -45q-51 0 -98 26q-9 4 -3 13l15 27q4 7 13 3z" />
    <glyph glyph-name="endash" unicode="&#x2013;" horiz-adv-x="579" 
d="M135 314h409q9 0 7 -8l-4 -26q-2 -8 -10 -8h-409q-10 0 -8 8l4 26q2 8 11 8z" />
    <glyph glyph-name="emdash" unicode="&#x2014;" horiz-adv-x="845" 
d="M135 314h675q9 0 7 -8l-4 -26q-1 -9 -10 -9h-675q-10 0 -8 9l4 26q2 8 11 8z" />
    <glyph glyph-name="quoteleft" unicode="&#x2018;" horiz-adv-x="229" 
d="M277 703l7 -12q4 -7 -4 -13q-37 -26 -67 -66t-38 -80q8 2 9 2q20 0 30 -12t7 -32q-8 -44 -51 -44q-32 0 -36 27q-12 56 31 127q43 72 101 105q7 5 11 -2z" />
    <glyph glyph-name="quoteright" unicode="&#x2019;" horiz-adv-x="229" 
d="M134 449l-8 12q-4 7 4 13q37 25 67 65.5t38 80.5q-6 -2 -8 -2q-31 -3 -35 28.5t19 50.5q14 10 30 9q31 0 37 -27q10 -55 -33 -128q-44 -73 -99 -104q-7 -3 -12 2z" />
    <glyph glyph-name="quotesinglbase" unicode="&#x201a;" horiz-adv-x="250" 
d="M45 -161l-9 12q-4 7 4 13q38 26 68 65.5t38 80.5q-8 -2 -9 -2q-31 -3 -35 28.5t19 50.5q14 10 30 9q33 0 37 -27q12 -55 -32 -127q-44 -74 -100 -105q-7 -4 -11 2z" />
    <glyph glyph-name="quotedblleft" unicode="&#x201c;" horiz-adv-x="381" 
d="M277 702l8 -11q4 -7 -4 -13q-37 -26 -67 -65.5t-38 -80.5q6 2 8 2q30 3 35 -27q6 -31 -18 -51q-13 -12 -31 -10q-31 0 -37 27q-11 56 32 127q43 72 100 106q8 2 12 -4zM328 532q6 2 8 2q20 0 30 -12t7 -32q-8 -44 -51 -44q-31 0 -37 27q-11 56 32 127q43 72 101 106
q8 3 11 -4l8 -12q4 -7 -4 -12q-37 -25 -67 -65.5t-38 -80.5z" />
    <glyph glyph-name="quotedblright" unicode="&#x201d;" horiz-adv-x="401" 
d="M297 448l-8 12q-4 7 4 13q37 26 67 66t38 80l-8 -2q-19 0 -29.5 12t-7.5 32q3 19 17 31.5t34 12.5q32 0 36 -27q10 -55 -33 -127t-99 -105q-7 -4 -11 2zM245 619q-6 -2 -8 -2q-31 -3 -35 28.5t19 50.5q14 10 30 9q31 0 36 -27q11 -56 -32 -128q-44 -73 -99 -104
q-9 -4 -12 2l-8 13q-3 8 4 12q37 26 67 65.5t38 80.5z" />
    <glyph glyph-name="quotedblbase" unicode="&#x201e;" horiz-adv-x="401" 
d="M194 -162l-8 12q-3 6 4 13q38 25 68.5 65t36.5 81q-6 -2 -8 -2q-31 -3 -35 28.5t19 50.5q14 10 30 9q31 0 37 -27q12 -55 -32 -127q-44 -74 -100 -105q-6 -4 -12 2zM143 9l-8 -2q-19 0 -29.5 12t-7.5 32q3 19 17 31.5t34 12.5q31 0 37 -27q12 -55 -32 -127
q-43 -73 -101 -105q-7 -5 -11 2l-8 13q-4 5 4 12q37 26 67 65.5t38 80.5z" />
    <glyph glyph-name="dagger" unicode="&#x2020;" horiz-adv-x="424" 
d="M458 453h-153l-88 -554q-1 -9 -10 -9h-24q-9 0 -8 9l88 554h-154q-9 0 -7 8l4 26q2 9 10 9h154l34 217q2 9 10 9h24q10 0 8 -9l-34 -217h153q9 0 7 -9l-4 -26q-2 -8 -10 -8z" />
    <glyph glyph-name="daggerdbl" unicode="&#x2021;" horiz-adv-x="424" 
d="M214 143h-154q-10 0 -7 9l3 26q3 7 11 9h154l42 265h-154q-9 0 -7 9l4 26q2 8 9 8h154l35 218q2 9 10 9h24q10 0 8 -9l-35 -218h154q9 0 7 -8l-4 -26q-2 -9 -9 -9h-154l-42 -265h153q8 0 7 -9l-4 -26q-2 -8 -10 -9h-153l-39 -244q-1 -9 -10 -9h-24q-9 0 -8 9z" />
    <glyph glyph-name="bullet" unicode="&#x2022;" horiz-adv-x="375" 
d="M128 321q7 49 42 79.5t85 30.5t75.5 -30.5t18.5 -79.5q-8 -50 -44 -80.5t-85 -30.5t-74.5 30.5t-17.5 80.5z" />
    <glyph glyph-name="ellipsis" unicode="&#x2026;" horiz-adv-x="790" 
d="M620 39q2 33 36 42q32 9 47 -12q10 -12 5 -30q-3 -19 -17 -31t-34 -12t-30 12t-7 31zM181 39q-3 -19 -17 -31t-34 -12q-29 -4 -35.5 25.5t15.5 49.5q23 22 51 10t20 -42zM357 39q2 33 36 42q32 9 47 -12q10 -12 5 -30q-3 -19 -17 -31t-34 -12t-30 12t-7 31z" />
    <glyph glyph-name="perthousand" unicode="&#x2030;" horiz-adv-x="1108" 
d="M125 549q11 70 59.5 112t118.5 42q69 0 104.5 -42t24.5 -112q-11 -69 -59.5 -111t-117.5 -42q-70 0 -105.5 42t-24.5 111zM169 549q-8 -50 17 -79q26 -30 75 -30t84 29q36 31 43 80q8 50 -17.5 80t-75.5 30q-49 0 -84 -30.5t-42 -79.5zM556 35q49 0 83.5 30t42.5 79
q8 50 -18 80t-74 30q-50 0 -84 -31q-36 -31 -43 -79q-8 -49 17.5 -79t75.5 -30zM419 144q10 69 59.5 111.5t118.5 42.5t105 -42.5t25 -111.5t-60.5 -111.5t-118.5 -42.5t-104.5 42.5t-24.5 111.5zM963 298q70 0 105.5 -42.5t24.5 -111.5t-60 -111.5t-119 -42.5
q-69 0 -104 42.5t-24 111.5t59.5 111.5t117.5 42.5zM872 223q-35 -30 -42 -79q-8 -50 17 -79q25 -30 75 -30q49 0 84 29q36 31 43 80q8 50 -18 80q-25 30 -75 30t-84 -31zM177 12l508 703q4 7 12 7h28q13 0 5 -11l-509 -704q-7 -7 -12 -7h-29q-12 0 -3 12z" />
    <glyph glyph-name="guilsinglleft" unicode="&#x2039;" horiz-adv-x="341" 
d="M300 437l16 -19q4 -6 -4 -14l-148 -138l104 -137q8 -8 0 -13l-22 -19q-7 -7 -12 1l-110 148q-5 8 -5 16l2 9q2 9 9 16l157 148q7 7 13 2z" />
    <glyph glyph-name="guilsinglright" unicode="&#x203a;" horiz-adv-x="341" 
d="M158 417l22 20q9 5 13 -2l109 -148q5 -5 5 -16l-1 -8q-5 -13 -10 -18l-156 -147q-7 -7 -14 -2l-16 19q-5 6 3 14l148 137l-104 138q-4 9 1 13z" />
    <glyph glyph-name="fraction" unicode="&#x2044;" horiz-adv-x="471" 
d="M16 11l509 704q4 7 12 7h28q12 0 4 -11l-509 -704q-4 -7 -12 -7h-29q-11 0 -3 11z" />
    <glyph glyph-name="franc" unicode="&#x20a3;" horiz-adv-x="500" 
d="M162 181l-27 -171q-3 -10 -10 -10h-28q-8 0 -7 10l27 171h-60q-10 0 -8 8l4 25q2 8 10 8h60l73 461q2 11 13 11h361q8 0 7 -9l-3 -24q-2 -9 -11 -9h-327l-44 -277h279q9 0 8 -9l-4 -24q-1 -9 -10 -9h-279l-18 -111l168 1q10 0 8 -9l-4 -25q-2 -8 -10 -8h-168z" />
    <glyph glyph-name="lira" unicode="&#x20a4;" horiz-adv-x="522" 
d="M149 42h293q8 0 7 -9l-4 -25q-2 -8 -10 -8h-348q-12 0 -4 10q67 96 99 171h-90q-10 0 -8 8l4 25q2 9 10 9h98q16 48 7 92h-87q-10 0 -8 9l4 25q2 8 11 8h72l-6 17q-5 15 -12 38q-11 48 -3 98q13 84 74 139q60 54 143 54q110 0 169 -86q5 -8 -1 -14l-23 -21q-6 -6 -12 2
q-46 76 -140 76q-63 0 -109 -42t-57 -108q-6 -39 -1 -70q5 -16 6 -27q1 -5 8.5 -27.5l9.5 -28.5h149q9 0 7 -8l-4 -25q-1 -9 -10 -9l-136 1q7 -42 -8 -93h126q9 0 8 -9l-4 -25q-2 -8 -10 -8h-133q-23 -59 -77 -139z" />
    <glyph glyph-name="peseta" unicode="&#x20a7;" horiz-adv-x="1050" 
d="M325 299h-161l-45 -289q-1 -10 -10 -10h-28q-8 0 -7 10l106 673q2 11 12 11h196q103 0 154.5 -53t37.5 -144q-15 -91 -83.5 -144.5t-171.5 -53.5zM383 652l-163 -1l-49 -310h163q83 0 136.5 41.5t64.5 113.5t-30 114.5t-122 41.5zM656 607h24q10 0 8 -9l-26 -155h126
q10 0 9 -9l-3 -20q-2 -9 -12 -9h-126l-39 -246q-11 -69 1.5 -98t46.5 -30q27 0 56 23q7 7 12 1l12 -22q3 -8 -5 -13q-40 -29 -85 -29q-53 0 -73 42t-7 120l40 252h-77q-8 0 -7 9l3 20q2 9 10 9h77l26 155q1 9 9 9zM708 31q-4 3 0 10l18 21q5 5 11 1q47 -32 116 -32
q55 0 94 23.5t44 58.5q6 35 -19.5 53.5t-98.5 38.5q-77 21 -105.5 47.5t-21.5 74.5q7 55 58 92q52 36 123 35q72 0 124 -41q6 -5 1 -13l-13 -22q-4 -6 -11 -2q-53 38 -111 38q-52 0 -88 -22.5t-41 -58.5q-6 -37 18 -54q26 -17 97 -36q77 -22 106.5 -48.5t23.5 -76.5
q-7 -55 -61 -92q-53 -36 -128 -35q-89 0 -136 40z" />
    <glyph glyph-name="Euro" unicode="&#x20ac;" horiz-adv-x="622" 
d="M555 161l20 -14q7 -4 1 -14q-88 -142 -221 -142q-86 0 -137.5 62.5t-56.5 173.5h-78q-9 0 -8 9l4 26q2 8 11 8h71q2 41 8 77q2 14 2 15h-67q-9 0 -7 8l4 26q1 9 10 9h69q34 136 111 217q78 81 176 81q70 0 117.5 -42.5t65.5 -119.5q1 -10 -7 -14l-25 -15q-11 -5 -12 7
q-12 65 -51.5 102.5t-95.5 37.5q-78 0 -141 -69q-64 -70 -92 -185h158q10 0 8 -9l-4 -26q-2 -8 -11 -8h-161q0 -1 -2 -15q-6 -47 -7 -77h156q9 0 7 -8l-4 -26q-2 -9 -10 -9h-148q5 -90 45.5 -141t107.5 -51q53 0 100.5 32.5t78.5 87.5q8 11 15 6z" />
    <glyph glyph-name="uni2113" unicode="&#x2113;" horiz-adv-x="449" 
d="M360 703q41 0 63 -31q21 -27 23.5 -71t-3.5 -79q-25 -160 -241 -249q-26 -263 82 -263q52 0 100 65q4 9 12 6l21 -9q8 -2 3 -11q-62 -91 -143 -91q-146 0 -117 287l-68 -24q-10 -3 -13 3l-5 23q-2 8 7 11l37 13l46 16q22 185 58 277q51 127 138 127zM354 663
q-102 -6 -146 -347q173 74 195 206q9 56 -3 98q-10 43 -46 43z" />
    <glyph glyph-name="trademark" unicode="&#x2122;" horiz-adv-x="684" 
d="M451 692h19q10 0 11 -9l72 -201l136 201q7 9 16 9h22q10 0 8 -11l-45 -286q-2 -9 -11 -9h-17q-8 0 -7 9l37 236l-128 -190q-6 -7 -14 -9h-9q-7 0 -11 9l-68 191l-37 -237q-1 -9 -11 -9h-17q-9 0 -7 9l44 282q3 15 17 15zM392 685l-2 -16q-2 -9 -10 -9h-87l-42 -263
q-1 -9 -10 -9h-18q-9 0 -7 9l42 263h-87q-9 0 -8 9l2 16q1 9 11 9h209q9 0 7 -9z" />
    <glyph glyph-name="Omega" unicode="&#x2126;" horiz-adv-x="807" 
d="M54 46l185 -1q-78 46 -115 126.5t-22 175.5q25 159 139 258q115 98 274 98t242 -98q83 -97 57 -258q-15 -94 -77 -176q-61 -79 -155 -126h193q9 0 7 -8l-5 -29q-2 -8 -9 -8h-264q-8 0 -8 10l5 35q108 41 180 122q73 82 88 180q23 140 -50 226q-71 86 -211 86
q-138 0 -238 -86q-99 -86 -122 -226q-16 -100 33 -182t146 -119l-5 -36q-1 -10 -11 -10h-264q-9 0 -8 9l5 29q2 8 10 8z" />
    <glyph glyph-name="estimated" unicode="&#x212e;" horiz-adv-x="891" 
d="M450 34q208 0 315 132q6 6 12 6h46q13 0 6 -10q-63 -89 -165.5 -137.5t-222.5 -48.5q-175 0 -272 100q-98 101 -71 271q27 171 157 271t304 100q175 0 272 -100q99 -100 72 -271l-2 -12q0 -15 -16 -15h-639l-33 -204q81 -82 237 -82zM287 578l-32 -202h500l32 202
q-79 82 -237 82q-160 0 -263 -82z" />
    <glyph glyph-name="partialdiff" unicode="&#x2202;" horiz-adv-x="539" 
d="M382 702q211 0 164 -296q-19 -122 -59 -217q-27 -61 -58 -101q-76 -97 -195 -97q-87 0 -131 59q-43 58 -29 148q14 89 80 149q67 61 155 61q73 0 116 -37.5t47 -108.5q20 58 33 144q17 106 -2 172q-21 84 -127 84q-66 0 -128 -38q-9 -6 -13 1l-9 19q-3 6 5 14
q65 44 151 44zM432 162q22 93 -11.5 149.5t-118.5 56.5q-71 0 -123 -49q-53 -49 -65 -121q-11 -75 23 -120.5t103 -45.5q120 0 192 130z" />
    <glyph glyph-name="increment" unicode="&#x2206;" horiz-adv-x="658" 
d="M466 684l178 -670q5 -14 -11 -14h-608q-14 0 -7 13l391 671q5 9 14 9h33q8 0 10 -9zM85 43h505l-158 600z" />
    <glyph glyph-name="product" unicode="&#x220f;" horiz-adv-x="621" 
d="M472 -123l116 735h-361l-116 -735q-1 -10 -11 -10h-26q-8 0 -7 10l121 769q1 10 12 10h429q9 0 8 -10l-121 -769q-1 -10 -11 -10h-26q-8 0 -7 10z" />
    <glyph glyph-name="summation" unicode="&#x2211;" horiz-adv-x="604" 
d="M47 -119l337 380l-217 381q-4 6 -1 10t11 4h473q8 0 7 -9l-4 -27q-2 -8 -10 -8h-401l198 -343q5 -8 -3 -16l-306 -342h401q8 0 7 -9l-4 -28q-2 -8 -10 -8h-473q-17 0 -5 15z" />
    <glyph glyph-name="minus" unicode="&#x2212;" horiz-adv-x="579" 
d="M134 312h409q10 0 8 -8l-3 -23q-2 -9 -11 -9h-409q-8 0 -7 9l3 23q2 8 10 8z" />
    <glyph glyph-name="uni2215" unicode="&#x2215;" horiz-adv-x="471" 
d="M16 11l508 704q4 7 11 7h29q13 0 4 -11l-509 -704q-4 -7 -12 -7h-28q-12 0 -3 11z" />
    <glyph glyph-name="uni2219" unicode="&#x2219;" horiz-adv-x="263" 
d="M215 252q-3 -19 -17 -31.5t-34 -12.5q-19 -2 -29 11.5t-7.5 33t17.5 31.5q23 20 48.5 9t21.5 -41z" />
    <glyph glyph-name="radical" unicode="&#x221a;" 
d="M248 10l-68 392h-78q-10 0 -8 9l4 23q2 9 10 9h99q11 0 12 -9l66 -385l313 663q6 10 13 10h25q9 0 5 -10l-331 -702q-4 -10 -16 -10h-35q-10 0 -11 10z" />
    <glyph glyph-name="infinity" unicode="&#x221e;" horiz-adv-x="920" 
d="M500 253q55 65 121 104t123 39q81 0 123 -51q44 -51 30 -131q-13 -81 -72 -132q-59 -50 -139 -50q-61 -1 -115 40q-51 41 -83 102q-55 -64 -119 -103t-125 -39q-80 0 -124 50q-42 52 -29 132q14 81 71 131q58 51 140 51q57 0 109.5 -38.5t88.5 -104.5zM295 354
q-62 0 -107 -39t-55 -101q-10 -63 22.5 -101.5t95.5 -38.5q54 0 118 41q62 40 102 98q-29 64 -77 102q-50 39 -99 39zM517 213q19 -57 70 -98q52 -41 106 -41q63 0 107.5 38.5t54.5 101.5q10 62 -22.5 101t-95.5 39q-49 0 -111 -39q-61 -38 -109 -102z" />
    <glyph glyph-name="integral" unicode="&#x222b;" horiz-adv-x="398" 
d="M505 682l-16 -21q-5 -8 -13 -1q-40 30 -69 30q-42 0 -64.5 -28t-32.5 -91l-50 -316l-51 -330q-26 -161 -143 -163q-55 0 -94 36q-5 8 -1 14l17 21q4 6 12 1q38 -30 71 -30q38 0 61 27.5t34 91.5l50 316l51 330q14 85 48 123.5t97 39.5q52 0 92 -37q8 -5 1 -13z" />
    <glyph glyph-name="approxequal" unicode="&#x2248;" horiz-adv-x="596" 
d="M523 428q4 13 12 4l13 -16q4 -7 0 -13q-25 -52 -61.5 -82t-77.5 -30q-61 0 -92 49q-30 50 -75 49q-62 -1 -102 -84q-7 -13 -13 -4l-12 15q-4 6 -1 14q26 51 62.5 79t75.5 28q34 0 58 -15.5t35.5 -33.5t30.5 -33.5t44 -15.5q56 2 103 89zM488 216q7 12 13 3l12 -16
q5 -6 0 -12q-25 -52 -62 -82.5t-76 -30.5q-60 0 -93 49q-30 50 -75 49q-61 -2 -101 -84q-7 -14 -14 -3l-12 14q-4 5 1 14q24 50 60.5 78.5t75.5 28.5q34 0 58.5 -15.5t35.5 -33.5t30 -33.5t44 -15.5q60 2 103 90z" />
    <glyph glyph-name="notequal" unicode="&#x2260;" horiz-adv-x="524" 
d="M370 409h134q8 0 8 -8l-5 -26q-1 -9 -10 -9h-152l-74 -124h206q9 0 8 -9l-4 -26q-2 -8 -10 -8h-225l-54 -90q-5 -8 -11 -8h-27q-12 0 -4 12l51 86h-84q-10 0 -8 8l4 26q1 9 10 9h103l74 124h-157q-9 0 -8 9l5 26q0 8 10 8h175l58 98q5 8 12 8h27q12 0 4 -12z" />
    <glyph glyph-name="lessequal" unicode="&#x2264;" horiz-adv-x="541" 
d="M508 115l-409 211q-8 5 -7 14l6 37q2 9 11 12l475 207q5 2 8 0.5t2 -6.5l-4 -30q-2 -8 -11 -12l-449 -190l388 -195q8 -5 7 -11l-5 -31q-2 -11 -12 -6zM494 -1h-447q-10 0 -8 8l4 23q1 9 10 9h447q10 0 8 -8l-4 -24q-2 -8 -10 -8z" />
    <glyph glyph-name="greaterequal" unicode="&#x2265;" horiz-adv-x="541" 
d="M546 326l-477 -211q-11 -5 -9 6l5 31q2 8 10 11l450 195l-389 190q-8 3 -6 12l4 30q3 11 11 6l411 -207q8 -5 7 -12l-6 -37q-2 -9 -11 -14zM494 -1h-447q-10 0 -8 8l4 24q2 8 10 8h447q10 0 8 -9l-4 -23q-2 -8 -10 -8z" />
    <glyph glyph-name="uni24C5" unicode="&#x24c5;" horiz-adv-x="826" 
d="M112 346q26 162 138 259q113 98 274 98q159 0 242 -98q83 -99 58 -259q-26 -161 -139 -258q-115 -98 -274 -98q-160 0 -243 98q-82 97 -56 258zM785 346q23 143 -51 230q-73 88 -216 88q-144 0 -244 -88q-100 -87 -123 -230q-22 -142 51 -229q74 -87 216 -87t243 87
q102 88 124 229zM341 169l57 359q1 10 11 10h29h88q57 0 85 -28.5t20 -79.5t-45 -79t-94 -28h-88l-24 -154q-1 -10 -10 -10h-22q-8 0 -7 10zM521 500l-89 -1l-22 -138h89q39 0 63.5 18t29.5 51q5 34 -13.5 52t-57.5 18z" />
    <glyph glyph-name="lozenge" unicode="&#x25ca;" horiz-adv-x="525" 
d="M214 -32l-107 348q-5 11 3 19l218 349q4 9 16 9h11h26h11q9 0 12 -9l103 -349q2 -11 -3 -19l-213 -348q-7 -10 -17 -10h-10h-26h-11q-10 0 -13 10zM363 661l-210 -335l103 -336l206 336z" />
    <glyph glyph-name="ijacute" unicode="&#xe132;" horiz-adv-x="434" 
d="M389 443h24q9 0 7 -9l-79 -509q-12 -78 -49.5 -120.5t-94.5 -42.5q-56 2 -97 31q-8 6 -2 13l18 21q4 7 13 1q34 -25 73 -25q76 0 98 126l80 505q2 9 9 9zM161 443h25q9 0 7 -8l-68 -427q-2 -8 -9 -8h-25q-9 0 -7 8l68 427q2 8 9 8zM129 552l163 124q9 8 12 0l18 -29
q6 -6 -2 -12l-172 -111q-7 -4 -11 1l-9 15q-6 6 1 12zM540 673l18 -28q3 -9 -4 -13l-170 -111q-9 -5 -12 1l-10 15q-4 7 2 12l164 125q6 5 12 -1z" />
    <glyph glyph-name="IJacute" unicode="&#xe133;" horiz-adv-x="613" 
d="M247 685l-107 -677q-2 -8 -10 -8h-27q-10 0 -8 8l107 677q2 9 11 9h27q8 0 7 -9zM505 156l82 529q1 9 11 9h27q9 0 7 -9l-82 -530q-11 -76 -57 -120t-115 -45q-70 2 -125 57q-5 3 0 12l18 23q7 8 13 2q56 -48 103 -50q95 2 118 122zM725 853l13 -31q3 -8 -5 -13
l-196 -104q-7 -3 -12 2l-8 17q-5 8 4 12l191 119q10 4 13 -2zM352 854l14 -32q5 -8 -5 -12l-196 -104q-8 -5 -12 2l-8 16q-5 8 4 12l192 120q10 5 11 -2z" />
    <glyph glyph-name="_1" horiz-adv-x="0" 
 />
    <glyph glyph-name="CR" horiz-adv-x="333" 
 />
    <glyph glyph-name="grave.case" horiz-adv-x="292" 
d="M166 826l24 32q7 7 12 2l155 -120q5 -5 -1 -12l-12 -16q-7 -7 -13 -2l-164 104q-8 5 -1 12z" />
    <glyph glyph-name="dieresis.case" horiz-adv-x="320" 
d="M246 782q-3 -19 -17 -31.5t-34 -12.5q-29 -4 -36 26.5t16 49.5q23 22 51 10t20 -42zM410 782q-2 -32 -36 -41q-33 -9 -48 12q-8 12 -4 29q2 33 36 42q32 9 47 -12q10 -12 5 -30z" />
    <glyph glyph-name="macron.case" horiz-adv-x="302" 
d="M163 793h228q9 0 7 -8l-4 -26q-2 -9 -10 -9h-228q-8 0 -7 9l4 26q2 8 10 8z" />
    <glyph glyph-name="acute.case" horiz-adv-x="292" 
d="M359 858l14 -32q1 -8 -6 -12l-197 -104q-7 -4 -11 2l-9 16q-3 8 4 12l192 120q10 4 13 -2z" />
    <glyph glyph-name="circumflex.case" horiz-adv-x="402" 
d="M429 738l-98 80l-124 -80q-8 -5 -15 -5h-42q-19 0 0 11l155 101q8 5 14 5h33q5 0 13 -5l123 -100q14 -12 -4 -12h-42q-8 0 -13 5z" />
    <glyph glyph-name="caron.case" horiz-adv-x="402" 
d="M224 845l98 -81l124 81q8 5 15 5h42q15 0 2 -10l-3 -2l-154 -100q-8 -5 -15 -5h-33q-7 0 -12 5l-122 100q-14 12 4 12h41q5 0 13 -5z" />
    <glyph glyph-name="breve.case" horiz-adv-x="358" 
d="M427 850h25q6 0 5 -9q-11 -54 -56 -86.5t-109 -32.5q-62 0 -96 32.5t-29 86.5q1 9 9 9h25q6 0 6 -9q-1 -37 23.5 -58t68.5 -21q45 0 76.5 21t42.5 58q4 9 9 9z" />
    <glyph glyph-name="dotaccent.case" horiz-adv-x="238" 
d="M205 794q3 19 15.5 29.5t30.5 10.5q19 0 28.5 -10.5t6.5 -29.5q-3 -18 -16 -29t-32 -11q-18 0 -27 11t-6 29z" />
    <glyph glyph-name="ring.case" horiz-adv-x="250" 
d="M162 806q6 40 34.5 65t69.5 25t62.5 -24.5t15.5 -65.5q-7 -41 -36.5 -66t-70.5 -25t-61.5 25t-13.5 66zM194 806q-5 -27 8.5 -43t40.5 -16t46 16t23 43q4 26 -10 42t-40 16q-27 0 -45.5 -16t-22.5 -42z" />
    <glyph glyph-name="tilde.case" horiz-adv-x="376" 
d="M182 748q-4 -10 -11 -4l-13 11q-4 2 -2 12q44 86 105 86q22 0 38 -13.5t23.5 -29.5t20.5 -29t30 -12q37 1 70 63q5 10 11 4l15 -11q4 -4 1 -11q-20 -41 -47.5 -63.5t-57.5 -22.5q-22 0 -38 13t-24 29t-20.5 29t-28.5 13q-38 -2 -72 -64z" />
    <glyph glyph-name="hungarumlaut.case" horiz-adv-x="345" 
d="M413 861l30 -24q7 -5 -1 -13l-108 -98q-9 -7 -14 -2l-14 11q-4 4 0 13l93 111q8 8 14 2zM259 862l29 -25q6 -5 -1 -12l-108 -99q-7 -8 -13 -2l-15 11q-4 4 0 13l94 111q6 8 14 3z" />
    <glyph glyph-name="zero.onum" horiz-adv-x="587" 
d="M87 223q17 104 93 167q76 64 186 64t165 -64q56 -63 39 -167q-16 -103 -93 -168q-74 -64 -184 -64q-109 0 -166 64q-56 65 -40 168zM132 223q-13 -85 33 -136.5t135 -51.5q88 0 149 51q63 54 76 137q13 84 -32.5 135.5t-133.5 51.5q-89 0 -151 -52q-63 -52 -76 -135z" />
    <glyph glyph-name="one.onum" horiz-adv-x="426" 
d="M104 354l166 89h35q10 0 9 -10l-62 -392h151q10 0 8 -8l-4 -24q-1 -9 -10 -9h-348q-9 0 -8 9l4 24q2 8 10 8h152l56 358l-159 -84q-6 -4 -9 -3t-2 8l3 24q1 7 8 10z" />
    <glyph glyph-name="two.onum" horiz-adv-x="483" 
d="M422 0h-372q-18 0 -2 13l311 208q66 43 70 97q4 42 -27 66.5t-91 24.5q-91 0 -162 -74q-8 -8 -12 -2l-16 20q-5 8 3 14q84 86 193 86q79 0 120.5 -37.5t35.5 -97.5q-6 -74 -91 -129l-40 -26l-96 -63l-90 -59h272q10 0 8 -8l-4 -24q-2 -9 -10 -9z" />
    <glyph glyph-name="three.onum" horiz-adv-x="504" 
d="M262 192q-9 0 -8 10l5 29l174 168h-283q-8 0 -7 9l4 26q1 9 10 9h332q10 0 9 -10l-6 -34l-179 -173q81 -12 119.5 -60t26.5 -123q-14 -87 -78 -139q-65 -53 -155 -53q-86 0 -132 51t-36 135q2 9 10 9h28q8 0 7 -9q-6 -65 29.5 -103.5t100.5 -38.5q71 0 121 41t60 107
q10 68 -30 107t-122 42z" />
    <glyph glyph-name="four.onum" horiz-adv-x="566" 
d="M444 443h40q10 0 9 -10l-61 -380h86q10 0 8 -9l-4 -25q-2 -8 -10 -8h-86l-23 -141q-1 -9 -10 -9h-28q-9 0 -7 9l23 141h-340q-16 0 -4 12l390 412q8 8 17 8zM387 53l55 343l-328 -343h273z" />
    <glyph glyph-name="five.onum" horiz-adv-x="504" 
d="M289 251q91 0 138 -57q47 -56 33 -146q-13 -88 -78 -142q-64 -55 -156 -55q-86 0 -132 52q-46 51 -36 135q1 10 10 10h29q7 0 6 -10q-7 -64 29 -103.5t101 -39.5q71 0 121 42t62 111q10 72 -26 115.5t-106 43.5q-33 0 -60 -10q-26 -8 -40 -17l-38 -26h-33q-10 0 -7 10
l58 269q3 10 13 10h290q10 0 8 -8l-4 -25q-1 -9 -10 -9h-261l-42 -194q62 44 131 44z" />
    <glyph glyph-name="six.onum" horiz-adv-x="514" 
d="M353 594h29q13 0 3 -13l-154 -210q42 20 89 20q91 0 139 -56q48 -55 34 -143q-13 -87 -80 -144q-66 -57 -156 -57q-92 0 -140 55q-47 55 -34 146q9 61 47 111l209 282q7 9 14 9zM448 193q11 68 -26.5 112t-108.5 44q-70 0 -123 -44t-63 -112q-11 -71 26 -114.5t110 -43.5
q69 0 122 44q53 45 63 114z" />
    <glyph glyph-name="seven.onum" horiz-adv-x="453" 
d="M432 402l-334 -1q-9 2 -8 9l4 25q2 8 11 8h382q16 0 8 -14l-303 -558q-4 -10 -13 -10h-31q-8 0 -4 10z" />
    <glyph glyph-name="eight.onum" horiz-adv-x="509" 
d="M78 164q9 55 45.5 95.5t93.5 59.5q-69 34 -55 121q11 70 62 112.5t125 42.5q73 0 111 -42.5t27 -112.5q-13 -86 -93 -121q50 -20 73.5 -60.5t15.5 -94.5q-13 -79 -75.5 -126t-153.5 -47q-92 0 -140.5 47.5t-35.5 125.5zM123 167q-9 -61 28.5 -97t108.5 -36t120 36.5
t58 96.5q9 58 -28.5 95.5t-106.5 37.5q-68 0 -120 -38q-51 -37 -60 -95zM205 438q-7 -46 21.5 -74.5t81.5 -28.5t90 28.5t44 74.5q8 52 -19 82.5t-81 30.5t-91 -30t-46 -83z" />
    <glyph glyph-name="nine.onum" horiz-adv-x="514" 
d="M231 -149h-29q-13 0 -3 13l155 209q-42 -19 -89 -19q-91 0 -139 56q-48 55 -34 143q13 86 79 144q66 57 157 57q92 0 140 -55q47 -55 34 -146q-10 -61 -48 -111l-208 -282q-8 -9 -15 -9zM272 96q70 0 122 43t63 113q11 71 -25.5 114.5t-109.5 43.5q-70 0 -123 -45
q-51 -44 -62 -113t26 -112.5t109 -43.5z" />
    <glyph glyph-name="zero.numr" horiz-adv-x="381" 
d="M110 474q16 103 69 166t123 63t102.5 -63t16.5 -166q-17 -104 -69 -167t-122 -63t-103 63q-33 64 -17 167zM149 474q-13 -87 10.5 -139t76.5 -52q52 0 92 52t54 139q14 86 -10 138t-76 52q-53 0 -94 -53q-39 -51 -53 -137z" />
    <glyph glyph-name="one.numr" horiz-adv-x="216" 
d="M148 262l62 393h-67q-9 0 -7 9l3 21q1 9 10 9h97q10 0 9 -10l-67 -422q-2 -9 -10 -9h-22q-2 0 -5 2.5t-3 6.5z" />
    <glyph glyph-name="two.numr" horiz-adv-x="348" 
d="M334 254h-253q-8 0 -9.5 4.5t5.5 11.5l229 221q46 37 54 92q6 37 -15 59.5t-58 22.5q-57 0 -101 -44q-6 -7 -12 -1l-12 19q-3 6 3 12q56 53 124 53q60 0 90.5 -32t19.5 -95q-3 -26 -17 -52.5t-28 -40.5l-13 -13l-191 -179h191q10 0 8 -8l-4 -22q0 -8 -11 -8z" />
    <glyph glyph-name="three.numr" horiz-adv-x="345" 
d="M208 477l2 17q2 9 10 9h31q37 0 61 21t31 60q5 36 -13 58t-53 23q-49 0 -96 -44q-7 -7 -12 -2l-13 19q-4 4 2 11q56 54 125 54q53 0 80.5 -33t19.5 -86q-10 -67 -66 -97q59 -29 47 -108q-9 -60 -54 -97q-44 -38 -105 -38q-59 0 -91 33t-27 87q1 9 9 9h23q8 0 8 -7
q-3 -37 20 -60t64 -23q44 0 75 26.5t38 69.5q7 40 -12.5 64.5t-58.5 24.5h-39q-8 0 -6 9z" />
    <glyph glyph-name="four.numr" horiz-adv-x="385" 
d="M140 392h175l41 257zM416 383l-3 -18q-1 -9 -11 -9h-53l-14 -93q-1 -9 -10 -9h-24q-8 0 -6 8l14 94h-221q-18 0 -6 17l259 312q5 8 16 8h36q9 0 8 -10l-46 -291h53q10 0 8 -9z" />
    <glyph glyph-name="five.numr" horiz-adv-x="364" 
d="M133 364q-2 -38 22.5 -59.5t69.5 -21.5q47 0 80.5 28.5t40.5 75.5q7 48 -17.5 76t-74.5 28q-46 -2 -84 -29l-14 -8h-34q-6 0 -5 6l52 227q0 7 8 7h214q5 0 5 -7l-4 -25q-1 -7 -7 -7h-184l-36 -158q51 33 94 33q67 0 101.5 -39t24.5 -104q-10 -64 -56 -103.5t-111 -39.5
q-63 0 -97.5 33t-27.5 88q0 7 6 7h27q5 0 7 -8z" />
    <glyph glyph-name="six.numr" horiz-adv-x="361" 
d="M285 694h29q9 0 3 -9l-109 -174q26 12 56 12q63 0 95 -38q33 -38 23 -101q-11 -64 -55 -102t-107 -38t-96 38.5t-23 101.5q8 43 31 76l143 228q5 6 10 6zM226 283q45 0 77.5 27.5t39.5 72.5q7 46 -16 73.5t-69 27.5q-45 0 -78 -28t-40 -73t16.5 -72.5t69.5 -27.5z" />
    <glyph glyph-name="seven.numr" horiz-adv-x="312" 
d="M349 655h-224q-6 0 -5 7l4 25q0 7 7 7h268q11 0 5 -11l-227 -424q-3 -5 -8 -5h-30q-7 0 -4 7z" />
    <glyph glyph-name="eight.numr" horiz-adv-x="378" 
d="M189 577q-5 -35 16.5 -58.5t61.5 -23.5q41 0 70 23t34 59q7 40 -14.5 63.5t-62.5 23.5t-69.5 -23.5t-35.5 -63.5zM138 374q-6 -41 20.5 -66t76.5 -25q49 0 83 25t40 66q6 39 -20.5 63.5t-74.5 24.5t-83.5 -25.5t-41.5 -62.5zM99 373q14 77 94 108q-53 30 -42 99
q9 56 49.5 89.5t99.5 33.5t89.5 -33.5t21.5 -89.5q-11 -69 -75 -99q35 -15 51 -43.5t10 -64.5q-9 -58 -55.5 -93.5t-113.5 -35.5t-102.5 35.5t-26.5 93.5z" />
    <glyph glyph-name="nine.numr" horiz-adv-x="361" 
d="M247 424q-63 0 -95.5 38.5t-22.5 100.5q10 64 55 102.5t108 38.5t95.5 -39t22.5 -102q-6 -38 -31 -76l-143 -227q-2 -6 -10 -6h-28q-8 0 -4 9l109 173q-27 -12 -56 -12zM254 463q45 0 77.5 28t39.5 73q7 46 -16 73.5t-69 27.5q-45 0 -77.5 -28t-40.5 -73
q-7 -46 16.5 -73.5t69.5 -27.5z" />
    <glyph glyph-name="zero.dnom" horiz-adv-x="381" 
d="M70 220q16 103 69 166t123 63t102.5 -63t16.5 -166q-16 -102 -69 -167q-52 -63 -123 -63q-70 0 -103 63t-16 167zM109 220q-13 -87 10.5 -139t76.5 -52q52 0 92 52t54 139q14 86 -10 138t-76 52q-53 0 -94 -53q-39 -51 -53 -137z" />
    <glyph glyph-name="one.dnom" horiz-adv-x="216" 
d="M99 441h107q9 0 8 -10l-67 -422q-1 -9 -9 -9h-24q-8 0 -7 9l63 393h-77q-10 0 -8 8l3 22q2 9 11 9z" />
    <glyph glyph-name="two.dnom" horiz-adv-x="348" 
d="M65 0h-24q-20 0 -4 16q16 18 73 73l107 102l49 46q46 37 54 92q6 37 -15 59.5t-58 22.5q-57 0 -101 -44q-7 -7 -12 -1l-12 19q-3 6 3 12q56 53 123 53q62 0 92 -32t19 -95q-3 -26 -18 -52.5t-29 -40.5l-12 -13l-190 -179h191q10 0 8 -8l-4 -21q-1 -9 -11 -9h-222h-7z" />
    <glyph glyph-name="three.dnom" horiz-adv-x="345" 
d="M168 223l3 17q1 9 10 9h30q36 0 61.5 22.5t30.5 58.5q6 35 -12 57t-54 23q-48 1 -96 -43q-7 -5 -11 -1l-13 18q-6 5 2 11q53 54 124 54q53 0 81 -33t19 -86q-11 -66 -66 -97q60 -29 48 -108q-9 -58 -54 -97q-44 -38 -106 -38q-59 0 -91 32.5t-27 86.5q1 10 10 10h24
q6 0 6 -8q-2 -38 21 -60t64 -22q44 0 75 26.5t38 69.5q6 40 -13 64t-58 25h-38q-10 0 -8 9z" />
    <glyph glyph-name="four.dnom" horiz-adv-x="385" 
d="M100 138h175l41 257zM376 129l-3 -18q-1 -9 -11 -9h-53l-14 -93q-1 -9 -10 -9h-24q-9 0 -7 8l15 94h-221q-20 0 -6 17l258 312q6 8 17 8h36q9 0 8 -10l-46 -291h53q10 0 8 -9z" />
    <glyph glyph-name="five.dnom" horiz-adv-x="364" 
d="M92 110q-1 -38 23.5 -59.5t69.5 -21.5q47 0 80.5 28.5t40.5 75.5q7 48 -17.5 76t-74.5 28q-46 -2 -84 -29l-14 -8h-34q-6 0 -5 6l52 227q0 7 8 7h214q5 0 5 -7l-4 -25q-1 -7 -7 -7h-184l-37 -158q52 33 95 33q67 0 101.5 -39t24.5 -104q-10 -64 -56.5 -103.5
t-111.5 -39.5q-63 0 -97 33t-27 88q0 7 6 7h27q6 0 6 -8z" />
    <glyph glyph-name="six.dnom" horiz-adv-x="361" 
d="M245 440h29q9 0 3 -9l-109 -174q26 12 56 12q63 0 95.5 -38t22.5 -101q-11 -63 -55.5 -101.5t-107.5 -38.5t-95.5 38.5t-22.5 101.5q4 35 31 76l143 228q3 6 10 6zM99 129q-7 -45 17 -72.5t70 -27.5q45 0 77 27.5t39 72.5q7 46 -16 73.5t-69 27.5q-45 0 -78 -28t-40 -73z
" />
    <glyph glyph-name="seven.dnom" horiz-adv-x="312" 
d="M309 401h-223q-7 0 -6 7l4 25q0 6 8 6h267q12 0 5 -10l-227 -424q-5 -5 -8 -5h-30q-8 0 -4 7z" />
    <glyph glyph-name="eight.dnom" horiz-adv-x="378" 
d="M149 323q-5 -35 16.5 -58.5t61.5 -23.5q41 0 70 23t34 59q7 40 -14.5 63.5t-62.5 23.5t-69.5 -23.5t-35.5 -63.5zM98 120q-7 -41 20 -66t77 -25q49 0 82.5 25t40.5 66q6 39 -20.5 63.5t-74.5 24.5t-83.5 -25.5t-41.5 -62.5zM59 119q5 36 30 64.5t64 43.5q-53 30 -42 99
q9 56 49.5 89.5t99.5 33.5t89.5 -33.5t21.5 -89.5q-11 -69 -75 -99q72 -31 61 -108q-10 -58 -56.5 -93.5t-113.5 -35.5t-102.5 35.5t-25.5 93.5z" />
    <glyph glyph-name="nine.dnom" horiz-adv-x="361" 
d="M207 170q-63 0 -95.5 38.5t-22.5 100.5q10 64 54.5 102.5t107.5 38.5q64 0 96.5 -39t22.5 -102q-4 -31 -31 -76l-143 -227q-3 -6 -10 -6h-28q-10 0 -5 9l110 173q-27 -12 -56 -12zM214 209q45 0 77.5 28t39.5 73q7 46 -16 73.5t-69 27.5q-45 0 -77.5 -28t-40.5 -73
t16 -73t70 -28z" />
    <glyph glyph-name="zero.tnum" horiz-adv-x="600" 
d="M139 89q-50 99 -25 258q26 162 107 258q83 98 191 98q109 0 159 -98q51 -98 26 -258q-26 -162 -107 -258q-83 -98 -191 -98q-109 0 -160 98zM306 35q88 0 156 86q67 85 90 226q22 139 -19 226q-41 86 -128 86q-89 0 -157 -86q-66 -84 -89 -226q-23 -140 18 -226t129 -86z
" />
    <glyph glyph-name="one.tnum" horiz-adv-x="600" 
d="M252 661l3 24q1 9 11 9h158q10 -1 8 -11l-102 -643h167q9 0 8 -9l-4 -23q-2 -8 -10 -8h-382q-10 0 -8 8l4 23q1 9 10 9h170l97 612h-123q-9 0 -7 9z" />
    <glyph glyph-name="two.tnum" horiz-adv-x="600" 
d="M524 391l-15 -17l-329 -332h331q9 0 7 -8l-4 -26q-2 -8 -10 -8h-364h-10h-32q-14 0 -4 12l388 396q49 50 58 108q10 65 -22.5 104.5t-96.5 39.5q-94 0 -166 -77q-6 -7 -12 0l-14 20q-6 8 2 14q84 86 196 86q84 0 127.5 -51.5t29.5 -135.5q-6 -34 -24 -69.5t-36 -55.5z
" />
    <glyph glyph-name="three.tnum" horiz-adv-x="600" 
d="M315 379h52q64 -1 109 37t55 100q10 64 -23 104t-96 40q-88 0 -165 -76q-8 -8 -12 -1l-16 20q-5 6 3 14q86 86 197 86q83 0 126 -51t30 -136q-18 -113 -117 -154q52 -19 75 -62.5t13 -104.5q-14 -93 -83 -152q-70 -59 -166 -59q-94 0 -144.5 53t-39.5 140q1 9 10 9h28
q9 0 7 -9q-6 -67 34 -108t112 -41q75 0 131 47q55 47 66 120q11 63 -24 104t-102 43l-66 -1q-9 0 -8 9l3 21q2 8 11 8z" />
    <glyph glyph-name="four.tnum" horiz-adv-x="600" 
d="M487 198h86q9 0 7 -8l-4 -26q-2 -8 -10 -8h-86l-23 -147q-1 -9 -11 -9h-28q-8 0 -6 9l23 147h-314h-5h-29q-7 0 -8.5 4t3.5 9l418 516q8 9 16 9l39 -1q4 1 6.5 -2t1.5 -8zM442 198l69 439l-357 -439h288z" />
    <glyph glyph-name="five.tnum" horiz-adv-x="600" 
d="M563 652h-277l-64 -280q68 52 139 52q99 0 151 -61t36 -158q-15 -98 -85 -159q-70 -62 -166 -62q-94 0 -144.5 53t-39.5 140q1 9 9 9h29q8 0 8 -9q-7 -69 33 -109t112 -40q77 0 132 49t67 128q12 78 -29 126.5t-121 48.5q-72 0 -145 -65h-32q-9 0 -8 10l82 358
q5 11 14 11h306q8 0 7 -9l-4 -23q-1 -10 -10 -10z" />
    <glyph glyph-name="six.tnum" horiz-adv-x="600" 
d="M544 201q-15 -96 -82 -154t-163 -58t-145 58q-50 59 -35 154q9 52 30 89l245 396q6 8 13 8h30q12 0 3 -14l-184 -297q49 28 109 28q96 0 145 -57q50 -58 34 -153zM501 201q12 76 -27 123t-115 47q-75 0 -130 -48q-55 -46 -67 -122t27 -122.5t116 -46.5q74 0 129 47
q55 46 67 122z" />
    <glyph glyph-name="seven.tnum" horiz-adv-x="600" 
d="M206 694h405q15 0 7 -15l-360 -670q-4 -9 -13 -9h-33q-8 0 -4 9l346 643h-355q-9 0 -7 9l3 24q1 9 11 9z" />
    <glyph glyph-name="eight.tnum" horiz-adv-x="600" 
d="M411 703q84 0 127.5 -50t30.5 -132q-8 -51 -39.5 -90.5t-79.5 -59.5q58 -21 85.5 -67.5t18.5 -109.5q-14 -92 -85 -148t-171 -56t-153 56q-52 55 -38 148q10 62 52.5 109t107.5 68q-41 20 -60 59.5t-11 90.5q14 83 72 132q61 50 143 50zM509 195q11 69 -31.5 112.5
t-121.5 43.5q-78 0 -136 -44t-68 -112q-11 -72 31.5 -116.5t122.5 -44.5t136 44q57 46 67 117zM240 521q-9 -58 25 -96t97 -38t108.5 38t54.5 96q10 63 -23 101t-97 38q-65 0 -110 -38t-55 -101z" />
    <glyph glyph-name="nine.tnum" horiz-adv-x="600" 
d="M547 381l-232 -373q-5 -8 -15 -8h-29q-11 0 -4 13l185 295q-50 -27 -108 -27q-96 0 -145 57q-49 58 -34 153q15 94 83 153t163 59q94 0 144 -59t35 -153q-8 -50 -43 -110zM404 661q-74 0 -129 -47q-54 -46 -66 -122q-12 -77 26 -124q39 -46 115 -46q75 0 130 47
q55 46 67 123q12 76 -27.5 122.5t-115.5 46.5z" />
    <glyph glyph-name="zero.pnum" horiz-adv-x="597" 
d="M112 347q25 160 107 258q83 98 191 98q109 0 160 -98q51 -97 25 -258t-107 -259q-81 -97 -190 -97t-160 98t-26 258zM157 347q-23 -140 18 -226t130 -86q87 0 155 86q67 85 90 226q22 139 -19 226q-41 86 -128 86q-88 0 -156 -86q-67 -85 -90 -226z" />
    <glyph glyph-name="one.pnum" horiz-adv-x="312" 
d="M185 661l3 24q2 9 11 9h133q10 -1 8 -11l-106 -674q-2 -9 -10 -9h-28q-8 0 -7 9l101 643h-98q-8 0 -7 9z" />
    <glyph glyph-name="two.pnum" horiz-adv-x="549" 
d="M504 391l-16 -17l-329 -332h331q9 0 7 -8l-4 -26q-2 -8 -10 -8h-364h-10h-32q-14 0 -4 12l388 396q49 50 58 108q10 65 -22.5 104.5t-96.5 39.5q-94 0 -166 -77q-6 -7 -12 0l-14 20q-6 8 2 14q84 86 196 86q84 0 127.5 -51.5t29.5 -135.5q-5 -34 -23 -69.5t-36 -55.5z
" />
    <glyph glyph-name="three.pnum" 
d="M287 379h52q65 -1 110 37t55 100q10 65 -22.5 104.5t-96.5 39.5q-89 0 -166 -76q-6 -8 -12 -1l-15 20q-5 6 3 14q84 86 196 86q84 0 127 -51.5t30 -135.5q-18 -114 -118 -154q52 -19 75.5 -62t13.5 -105q-15 -94 -84 -152q-70 -59 -166 -59q-93 0 -144 53q-50 53 -40 140
q1 9 10 9h28q9 0 7 -9q-6 -67 34 -108t112 -41q75 0 131 47q57 47 67 120q10 63 -25 104t-102 43l-66 -1q-9 0 -8 9l4 21q2 8 10 8z" />
    <glyph glyph-name="four.pnum" horiz-adv-x="612" 
d="M491 198h86q10 0 8 -8l-4 -26q-2 -8 -10 -8h-86l-24 -147q-1 -9 -10 -9h-28q-9 0 -7 9l24 147h-314h-5h-29q-7 0 -8.5 4t3.5 9l417 516q8 9 17 9l39 -1q4 1 6.5 -2t1.5 -8zM446 198l70 439l-358 -439h288z" />
    <glyph glyph-name="five.pnum" 
d="M535 652h-277l-64 -280q68 52 139 52q99 0 151 -61t36 -158q-15 -98 -85 -159q-70 -62 -166 -62q-93 0 -144 53q-50 53 -40 140q1 9 9 9h29q8 0 8 -9q-7 -69 33 -109t112 -40q77 0 132 49t67 128q13 76 -29 126q-40 49 -121 49q-73 0 -144 -65h-32q-9 0 -9 10l82 358
q5 11 14 11h306q8 0 7 -9l-3 -23q-1 -10 -11 -10z" />
    <glyph glyph-name="six.pnum" horiz-adv-x="539" 
d="M514 201q-15 -95 -83 -154q-67 -58 -163 -58t-145 58t-34 154q8 49 30 89l245 396q5 8 13 8h30q11 0 3 -14l-184 -297q49 28 109 28q96 0 145 -57t34 -153zM471 201q12 76 -27 123t-115 47q-75 0 -130 -48q-55 -46 -67 -122t27 -122.5t116 -46.5q74 0 129 47
q55 46 67 122z" />
    <glyph glyph-name="seven.pnum" horiz-adv-x="483" 
d="M148 694h405q15 0 7 -15l-360 -670q-4 -9 -13 -9h-33q-8 0 -4 9l346 643h-355q-9 0 -7 9l3 24q1 9 11 9z" />
    <glyph glyph-name="eight.pnum" horiz-adv-x="561" 
d="M391 703q84 0 128 -50t31 -132q-8 -51 -39.5 -90.5t-79.5 -59.5q57 -21 85 -67.5t19 -109.5q-15 -92 -86 -148t-171 -56t-153 56q-52 55 -37 148q10 63 52 109.5t108 67.5q-41 20 -60 59.5t-11 90.5q13 83 72 132q59 50 142 50zM490 195q11 69 -31.5 112.5t-121.5 43.5
q-78 0 -136 -44q-57 -44 -68 -112q-11 -72 31 -116.5t122 -44.5t136 44q58 45 68 117zM221 521q-10 -58 24 -96t97 -38t108.5 38t55.5 96q10 63 -23 101t-97 38q-65 0 -110 -38t-55 -101z" />
    <glyph glyph-name="nine.pnum" horiz-adv-x="539" 
d="M516 381l-232 -373q-5 -8 -14 -8h-29q-11 0 -4 13l185 295q-50 -27 -108 -27q-96 0 -145 57q-49 58 -34 153t82 153q68 59 163 59t145 -59t35 -153q-9 -50 -44 -110zM374 661q-74 0 -129 -47q-54 -46 -66 -122q-12 -77 26 -124q39 -46 115 -46q75 0 130 47q55 46 67 123
q12 76 -27.5 122.5t-115.5 46.5z" />
    <glyph glyph-name="zero.onum.pnum" horiz-adv-x="587" 
d="M87 223q17 104 93 167q76 64 186 64t165 -64q56 -63 39 -167q-16 -103 -93 -168q-74 -64 -184 -64q-109 0 -166 64q-56 65 -40 168zM132 223q-13 -85 33 -136.5t135 -51.5q88 0 149 51q63 54 76 137q13 84 -32.5 135.5t-133.5 51.5q-89 0 -151 -52q-63 -52 -76 -135z" />
    <glyph glyph-name="one.onum.pnum" horiz-adv-x="426" 
d="M104 354l166 89h35q10 0 9 -10l-62 -392h151q10 0 8 -8l-4 -24q-1 -9 -10 -9h-348q-9 0 -8 9l4 24q2 8 10 8h152l56 358l-159 -84q-6 -4 -9 -3t-2 8l3 24q1 7 8 10z" />
    <glyph glyph-name="two.onum.pnum" horiz-adv-x="483" 
d="M422 0h-372q-18 0 -2 13l311 208q66 43 70 97q4 42 -27 66.5t-91 24.5q-91 0 -162 -74q-8 -8 -12 -2l-16 20q-5 8 3 14q84 86 193 86q79 0 120.5 -37.5t35.5 -97.5q-6 -74 -91 -129l-40 -26l-96 -63l-90 -59h272q10 0 8 -8l-4 -24q-2 -9 -10 -9z" />
    <glyph glyph-name="three.onum.pnum" horiz-adv-x="504" 
d="M262 192q-9 0 -8 10l5 29l174 168h-283q-8 0 -7 9l4 26q1 9 10 9h332q10 0 9 -10l-6 -34l-179 -173q81 -12 119.5 -60t26.5 -123q-14 -87 -78 -139q-65 -53 -155 -53q-86 0 -132 51t-36 135q2 9 10 9h28q8 0 7 -9q-6 -65 29.5 -103.5t100.5 -38.5q71 0 121 41t60 107
q10 68 -30 107t-122 42z" />
    <glyph glyph-name="four.onum.pnum" horiz-adv-x="566" 
d="M444 443h40q10 0 9 -10l-61 -380h86q10 0 8 -9l-4 -25q-2 -8 -10 -8h-86l-23 -141q-1 -9 -10 -9h-28q-9 0 -7 9l23 141h-340q-16 0 -4 12l390 412q8 8 17 8zM387 53l55 343l-328 -343h273z" />
    <glyph glyph-name="five.onum.pnum" horiz-adv-x="504" 
d="M289 251q91 0 138 -57q47 -56 33 -146q-13 -88 -78 -142q-64 -55 -156 -55q-86 0 -132 52q-46 51 -36 135q1 10 10 10h29q7 0 6 -10q-7 -64 29 -103.5t101 -39.5q71 0 121 42t62 111q10 72 -26 115.5t-106 43.5q-33 0 -60 -10q-26 -8 -40 -17l-38 -26h-33q-10 0 -7 10
l58 269q3 10 13 10h290q10 0 8 -8l-4 -25q-1 -9 -10 -9h-261l-42 -194q62 44 131 44z" />
    <glyph glyph-name="six.onum.pnum" horiz-adv-x="514" 
d="M353 594h29q13 0 3 -13l-154 -210q42 20 89 20q91 0 139 -56q48 -55 34 -143q-13 -87 -80 -144q-66 -57 -156 -57q-92 0 -140 55q-47 55 -34 146q9 61 47 111l209 282q7 9 14 9zM448 193q11 68 -26.5 112t-108.5 44q-70 0 -123 -44t-63 -112q-11 -71 26 -114.5t110 -43.5
q69 0 122 44q53 45 63 114z" />
    <glyph glyph-name="seven.onum.pnum" horiz-adv-x="453" 
d="M432 402l-334 -1q-9 2 -8 9l4 25q2 8 11 8h382q16 0 8 -14l-303 -558q-4 -10 -13 -10h-31q-8 0 -4 10z" />
    <glyph glyph-name="eight.onum.pnum" horiz-adv-x="509" 
d="M78 164q9 55 45.5 95.5t93.5 59.5q-69 34 -55 121q11 70 62 112.5t125 42.5q73 0 111 -42.5t27 -112.5q-13 -86 -93 -121q50 -20 73.5 -60.5t15.5 -94.5q-13 -79 -75.5 -126t-153.5 -47q-92 0 -140.5 47.5t-35.5 125.5zM123 167q-9 -61 28.5 -97t108.5 -36t120 36.5
t58 96.5q9 58 -28.5 95.5t-106.5 37.5q-68 0 -120 -38q-51 -37 -60 -95zM205 438q-7 -46 21.5 -74.5t81.5 -28.5t90 28.5t44 74.5q8 52 -19 82.5t-81 30.5t-91 -30t-46 -83z" />
    <glyph glyph-name="nine.onum.pnum" horiz-adv-x="514" 
d="M231 -149h-29q-13 0 -3 13l155 209q-42 -19 -89 -19q-91 0 -139 56q-48 55 -34 143q13 86 79 144q66 57 157 57q92 0 140 -55q47 -55 34 -146q-10 -61 -48 -111l-208 -282q-8 -9 -15 -9zM272 96q70 0 122 43t63 113q11 71 -25.5 114.5t-109.5 43.5q-70 0 -123 -45
q-51 -44 -62 -113t26 -112.5t109 -43.5z" />
    <glyph glyph-name="zero.onum.tnum" horiz-adv-x="600" 
d="M133 55q-55 65 -39 168q17 104 93 167q76 64 186 64t165 -64q56 -63 39 -167q-17 -103 -93 -168q-76 -64 -185 -64t-166 64zM139 223q-13 -85 32.5 -136.5t134.5 -51.5q88 0 150 51q63 54 76 137q13 84 -32.5 135.5t-133.5 51.5q-89 0 -151 -52q-63 -52 -76 -135z" />
    <glyph glyph-name="one.onum.tnum" horiz-adv-x="600" 
d="M181 354l166 89h35q10 0 9 -10l-62 -392h151q10 0 8 -8l-4 -24q-2 -9 -10 -9h-348q-10 0 -8 9l4 24q2 8 10 8h152l56 358l-159 -84q-6 -4 -9 -3t-2 8l3 24q1 7 8 10z" />
    <glyph glyph-name="two.onum.tnum" horiz-adv-x="600" 
d="M488 0h-372q-18 0 -2 13l311 208q66 43 70 97q4 42 -27 66.5t-91 24.5q-91 0 -162 -74q-8 -8 -12 -2l-16 20q-5 8 3 14q84 86 193 86q79 0 120.5 -37.5t35.5 -97.5q-6 -74 -91 -129l-40 -26l-96 -63l-90 -59h272q10 0 8 -8l-4 -24q-2 -9 -10 -9z" />
    <glyph glyph-name="three.onum.tnum" horiz-adv-x="600" 
d="M310 192q-9 0 -8 10l5 29l174 168h-283q-8 0 -7 9l4 26q1 9 10 9h332q9 0 9 -10l-6 -34l-179 -173q81 -12 119.5 -60t26.5 -123q-14 -87 -78 -139q-65 -53 -155 -53q-86 0 -132 51t-36 135q2 9 10 9h28q8 0 7 -9q-6 -65 29.5 -103.5t100.5 -38.5q71 0 121 41t60 107
q10 68 -30 107t-122 42z" />
    <glyph glyph-name="four.onum.tnum" horiz-adv-x="600" 
d="M471 443h40q9 0 9 -10l-61 -380h86q9 0 8 -9l-4 -25q-2 -8 -10 -8h-86l-23 -141q-2 -9 -10 -9h-28q-8 0 -7 9l23 141h-340q-7 0 -8.5 3.5t4.5 8.5l390 412q8 8 17 8zM414 53l55 343l-328 -343h273z" />
    <glyph glyph-name="five.onum.tnum" horiz-adv-x="600" 
d="M336 251q92 0 139 -57q47 -56 32 -146q-14 -89 -77 -142q-64 -55 -156 -55q-86 0 -132 52q-46 51 -36 135q1 10 9 10h29q8 0 7 -10q-7 -64 29 -103.5t101 -39.5q71 0 121 42t61 111q11 72 -25.5 115.5t-106.5 43.5q-33 0 -60 -10q-27 -9 -39 -17q-2 -1 -15 -9.5
t-23 -16.5h-33q-10 0 -7 10l57 269q3 10 14 10h290q10 0 8 -8l-4 -25q-1 -9 -11 -9h-261l-42 -194q64 44 131 44z" />
    <glyph glyph-name="six.onum.tnum" horiz-adv-x="600" 
d="M396 594h29q13 0 3 -13l-154 -210q42 20 89 20q91 0 138 -56q48 -55 34 -143q-13 -87 -80 -144q-65 -57 -155 -57q-92 0 -141 55q-47 55 -34 146q11 64 48 111l209 282q4 9 14 9zM491 193q11 68 -27 112t-109 44q-70 0 -123 -44q-51 -43 -62 -112q-11 -71 26 -114.5
t110 -43.5q69 0 122 44q52 45 63 114z" />
    <glyph glyph-name="seven.onum.tnum" horiz-adv-x="600" 
d="M505 402l-334 -1q-11 1 -9 9l4 25q2 8 11 8h382q16 0 8 -14l-302 -558q-4 -10 -14 -10h-31q-7 0 -3 10z" />
    <glyph glyph-name="eight.onum.tnum" horiz-adv-x="600" 
d="M123 164q9 55 45.5 95.5t93.5 59.5q-68 36 -55 121q11 70 62.5 112.5t125.5 42.5q73 0 110.5 -42.5t26.5 -112.5q-13 -86 -93 -121q51 -20 74.5 -60.5t14.5 -94.5q-12 -78 -75 -125.5t-154 -47.5q-92 0 -140 47t-36 126zM169 167q-10 -60 28 -96.5t109 -36.5t119.5 36.5
t58.5 96.5q9 58 -29 95.5t-107 37.5q-68 0 -120 -38q-50 -38 -59 -95zM251 438q-7 -46 21.5 -74.5t81.5 -28.5t89.5 28t44.5 75q8 52 -19 82.5t-81 30.5q-55 0 -92 -30t-45 -83z" />
    <glyph glyph-name="nine.onum.tnum" horiz-adv-x="600" 
d="M275 -149h-29q-13 0 -3 13l154 209q-42 -19 -89 -19q-91 0 -139 56q-48 55 -34 143q13 86 79 144q66 57 157 57q92 0 140 -55q47 -55 34 -146q-9 -61 -47 -111l-209 -282q-7 -9 -14 -9zM315 96q70 0 122 43t63 113q11 71 -25.5 114.5t-109.5 43.5q-71 0 -123 -45
q-51 -44 -62 -113t26.5 -112.5t108.5 -43.5z" />
    </font>
</defs>
</svg>
