<?xml version="1.0" standalone="no"?>
<!DOCTYPE svg PUBLIC "-//W3C//DTD SVG 1.1//EN" "http://www.w3.org/Graphics/SVG/1.1/DTD/svg11.dtd" >
<svg xmlns="http://www.w3.org/2000/svg" xmlns:xlink="http://www.w3.org/1999/xlink" version="1.1">
<metadata>
Created by FontForge 20201107 at Mon Feb 25 03:00:00 2019
 By 
Copyright (c) 2019 by Eko Bimantara. All rights reserved.
</metadata>
<defs>
<font id="Ageo-ExtraBold" horiz-adv-x="600" >
  <font-face 
    font-family="Ageo ExtraBold"
    font-weight="800"
    font-stretch="normal"
    units-per-em="1000"
    panose-1="2 0 0 0 0 0 0 0 0 0"
    ascent="755"
    descent="-245"
    x-height="478"
    cap-height="694"
    bbox="-55.6 -240.021 1161 929.368"
    underline-thickness="50"
    underline-position="-225"
    unicode-range="U+000D-FB04"
  />
<missing-glyph horiz-adv-x="0" 
 />
    <glyph glyph-name="f_f" unicode="ff" horiz-adv-x="665" 
d="M648 468v-101q0 -10 -10 -10h-111v-347q0 -10 -10 -10h-111q-10 0 -10 10v347h-186v-347q0 -10 -10 -10h-111q-10 0 -10 10l-1 347h-59q-10 0 -10 10v101q0 10 10 10h59v63q0 100 40.5 146t120.5 46q38 0 73.5 -13.5t50.5 -28.5q8 -5 3 -14l-40 -89q-3 -7 -13 -3
q-34 20 -53 20q-50 0 -51 -75v-52h186v63q0 100 40.5 146t120.5 46q39 0 73.5 -13t51.5 -29q7 -4 2 -14l-39 -89q-5 -8 -14 -3q-32 20 -53 20q-50 0 -50 -75v-52h111q10 0 10 -10z" />
    <glyph glyph-name="fi" unicode="fi" horiz-adv-x="573" 
d="M500 636l-42 -88q-5 -8 -13 -1q-81 59 -138 58q-97 0 -98 -75v-52h300q9 0 9 -9v-459q0 -10 -9 -10h-111q-10 0 -10 10v347h-178v-347q0 -10 -10 -10h-111q-10 0 -10 10l-1 347h-59q-10 0 -10 10v101q0 10 10 10h59v63q0 99 57 146q56 46 144 46q143 0 220 -83
q5 -8 1 -14z" />
    <glyph glyph-name="fl" unicode="fl" horiz-adv-x="587" 
d="M80 10l-1 347h-60q-10 0 -10 10v101q0 10 10 10h60v63q0 99 57 146q58 46 144 46q54 0 121 -14q19 -3 65 -15l53 -13q12 -5 12 -17l1 -662q0 -12 -14 -12h-104q-13 0 -13 12v571q-51 22 -100 22q-89 0 -91 -75v-52h125q10 0 10 -10v-101q0 -10 -10 -10h-125l1 -347
q0 -10 -10 -10h-111q-10 0 -10 10z" />
    <glyph glyph-name="f_f_i" unicode="ffi" horiz-adv-x="888" 
d="M239 733q38 0 73.5 -13.5t50.5 -28.5q8 -5 3 -14l-40 -89q-3 -7 -13 -3q-34 20 -53 20q-50 0 -51 -75v-52h184v63q0 99 57 146q56 46 144 46q150 0 219 -83q7 -7 2 -14l-42 -88q-5 -8 -13 -1l-8 6q-70 52 -130 52q-96 0 -98 -75v-52h299q10 0 10 -9v-459q0 -10 -10 -10
h-110q-10 0 -10 10v347h-179l1 -347q0 -10 -10 -10h-111q-10 0 -10 10l-1 347h-183v-347q0 -10 -10 -10h-111q-10 0 -10 10l-1 347h-59q-10 0 -10 10v101q0 10 10 10h59v63q0 100 40.5 146t120.5 46z" />
    <glyph glyph-name="f_f_l" unicode="ffl" horiz-adv-x="900" 
d="M313 585q-34 20 -53 20q-50 0 -51 -75v-52h183v63q0 99 57 146q58 46 144 46q51 0 102 -11q29 -4 45 -9q19 -3 49 -12q9 -2 19 -4.5t15.5 -4t8.5 -1.5q13 -3 13 -17v-662q0 -12 -14 -12h-104q-12 0 -12 12l-1 571q-51 22 -99 22q-91 0 -91 -75v-52h124q10 0 10 -10v-101
q0 -10 -10 -10h-124v-347q0 -10 -10 -10h-111q-10 0 -10 10v347h-183v-347q0 -10 -10 -10h-111q-10 0 -10 10l-1 347h-59q-10 0 -10 10v101q0 10 10 10h59v63q0 100 40.5 146t120.5 46q38 0 73.5 -13.5t50.5 -28.5q8 -5 3 -14l-40 -89q-3 -7 -13 -3z" />
    <glyph glyph-name=".notdef" horiz-adv-x="0" 
 />
    <glyph glyph-name=".null" horiz-adv-x="0" 
 />
    <glyph glyph-name="nonmarkingreturn" horiz-adv-x="333" 
 />
    <glyph glyph-name="NULL" horiz-adv-x="0" 
 />
    <glyph glyph-name="NULL" horiz-adv-x="0" 
 />
    <glyph glyph-name="CR.001" unicode="&#xd;" horiz-adv-x="0" 
 />
    <glyph glyph-name="space" unicode=" " horiz-adv-x="250" 
 />
    <glyph glyph-name="exclam" unicode="!" horiz-adv-x="252" 
d="M182 204h-114q-10 0 -10 10l-2 470q0 10 10 10h118q10 0 10 -10l-2 -470q0 -10 -10 -10zM199 65q0 -33 -20.5 -54t-53.5 -21t-53.5 21t-20.5 54q0 34 20.5 54t53.5 20q34 0 54 -20t20 -54z" />
    <glyph glyph-name="quotedbl" unicode="&#x22;" horiz-adv-x="368" 
d="M227 426l-42 34q-7 6 2 13q60 46 75 107h-2l-2 1q-25 5 -39.5 24t-13.5 47q0 33 20 53.5t53 20.5q31 0 51 -18.5t21 -49.5q7 -67 -27 -139q-35 -72 -82 -97q-7 -3 -14 4zM94 580h-1q-1 1 -2 1q-25 5 -39.5 24t-14.5 47q0 33 20 53.5t54 20.5q31 0 51 -18.5t21 -49.5
q7 -67 -27 -139q-35 -72 -82 -97q-7 -3 -14 4l-42 34q-7 4 1 13q60 45 75 107z" />
    <glyph glyph-name="numbersign" unicode="#" horiz-adv-x="651" 
d="M8 179l31 100q3 10 14 10h69l31 116h-76q-10 0 -7 10l31 100q5 9 13 9h71l42 160q1 10 12 10h108q10 0 7 -10l-42 -160h126l42 160q3 10 13 10h107q10 0 7 -10l-42 -160h71q10 0 6 -9l-30 -100q-3 -10 -14 -10h-64l-31 -116h71q11 0 7 -10l-31 -100q-4 -9 -13 -9h-66
l-42 -160q-3 -10 -13 -10h-107q-9 0 -8 10l43 160h-126l-43 -160q-1 -10 -12 -10h-107q-9 0 -8 10l43 160h-76q-11 0 -7 9zM250 289h125l31 116h-126z" />
    <glyph glyph-name="dollar" unicode="$" horiz-adv-x="588" 
d="M261 129v153q-112 23 -165.5 72t-55.5 133q-2 89 58 147q61 60 163 67v30q0 10 10 10h47q10 0 11 -10v-30q61 -5 112.5 -24.5t72.5 -40.5q8 -5 3 -14l-47 -107q-4 -9 -14 -2q-63 42 -127 51v-152q114 -27 166.5 -75.5t55.5 -134.5q2 -86 -58 -144t-164 -66v-94
q0 -10 -11 -10h-47q-10 0 -10 10v93q-75 6 -137 33q-62 28 -83 50q-7 4 -2 13l58 104q6 8 15 1q59 -50 149 -63zM329 267v-139q39 4 62 22t23 45q0 48 -85 72zM261 428v136q-38 -5 -61 -24t-23 -43q0 -25 18.5 -40t65.5 -29z" />
    <glyph glyph-name="percent" unicode="%" horiz-adv-x="791" 
d="M64 420q-48 50 -48 129t48 129q49 49 129 49t129 -49t49 -129t-49 -129q-50 -48 -129 -48t-129 48zM132 549q0 -27 16.5 -44t44.5 -17t45 16.5t17 44.5t-17 45t-45 17t-44.5 -17t-16.5 -45zM563 212q-17 -17 -17 -45t17 -45q17 -16 45 -16t44 16q17 17 17 45t-17 45
q-16 17 -44 17t-45 -17zM479 38q-49 49 -49 129t49 129t129 49t128 -49q49 -49 49 -129t-49 -129q-48 -48 -128 -48t-129 48zM143 14l395 701q4 7 14 7h107q5 0 8 -3.5t1 -7.5l-398 -704q-4 -7 -13 -7h-106q-16 0 -8 14z" />
    <glyph glyph-name="ampersand" unicode="&#x26;" horiz-adv-x="671" 
d="M275 567q-23 0 -37.5 -15.5t-14.5 -41.5q0 -28 25 -62q14 -16 24 -27q18 -18 33 -31t32 -30l119 -116q16 58 18 140q0 10 10 10h112q11 0 10 -10q-1 -161 -40 -249l124 -121q5 -5 3.5 -9.5t-8.5 -4.5h-147q-10 0 -18 7l-31 30q-70 -53 -182 -53q-127 0 -207 62
q-78 62 -78 163q0 116 114 173q-56 64 -56 141q0 81 51.5 130.5t136.5 49.5q70 0 112.5 -27.5t68.5 -81.5q4 -8 -4 -15l-91 -58q-8 -5 -13 3q-3 3 -11 13t-13.5 15t-16.5 10t-25 5zM394 130l-187 181q-50 -33 -50 -91q0 -53 41.5 -86.5t107.5 -33.5q52 0 88 30z" />
    <glyph glyph-name="quotesingle" unicode="'" horiz-adv-x="200" 
d="M60 426l-43 35q-6 5 1 12q59 46 76 108h-4q-53 14 -53 71q0 34 20 55t53 21q32 0 52 -19t22 -50q7 -65 -28 -139q-34 -71 -83 -97q-6 -4 -13 3z" />
    <glyph glyph-name="parenleft" unicode="(" horiz-adv-x="316" 
d="M155 686q5 8 16 8h111q9 -2 5 -9q-28 -45 -65 -143q-50 -129 -50 -276q-1 -226 114 -418q6 -8 -4 -8h-111q-11 0 -16 9q-27 41 -65 137q-49 123 -49 280q0 94 26 195q25 97 47 145q17 37 41 80z" />
    <glyph glyph-name="parenright" unicode=")" horiz-adv-x="316" 
d="M34 693l112 1q10 0 15 -8q24 -43 41 -80q22 -48 47 -145q26 -101 26 -195q0 -157 -49 -280q-38 -96 -65 -137q-5 -9 -15 -9h-112q-9 0 -4 8q115 192 114 418q0 94 -26 195q-25 98 -47 144t-42 80q-3 8 5 8z" />
    <glyph glyph-name="asterisk" unicode="*" horiz-adv-x="422" 
d="M275 313l-61 98l-61 -98q-3 -5 -9 -5t-10 5l-76 69q-4 3 -3.5 9t3.5 9l64 69l-101 50q-11 5 -6 14l58 93q7 7 16 3l68 -53l-10 103q0 13 9 13h115q10 0 10 -13l-11 -103l68 53q10 7 16 -3l59 -93q5 -11 -6 -14l-102 -50l64 -69q10 -10 1 -18l-77 -69q-3 -5 -9.5 -5
t-8.5 5z" />
    <glyph glyph-name="plus" unicode="+" horiz-adv-x="581" 
d="M340 73h-99q-10 0 -10 10v152h-149q-10 0 -10 10v94q0 10 10 10h149v151q0 10 10 10h99q10 0 10 -10v-151h149q10 0 10 -10v-94q0 -10 -10 -10h-149v-152q0 -10 -10 -10z" />
    <glyph glyph-name="comma" unicode="," horiz-adv-x="250" 
d="M74 -174l-46 38q-7 7 2 14q65 51 82 117h-4q-27 7 -43 27.5t-15 50.5q0 37 21.5 59t58.5 22q34 0 56 -20.5t23 -54.5q7 -72 -30 -150q-38 -78 -89 -106q-8 -5 -16 3z" />
    <glyph glyph-name="hyphen" unicode="-" horiz-adv-x="429" 
d="M56 248v89q0 11 12 12h293q12 -1 12 -12v-89q0 -12 -12 -12h-293q-12 0 -12 12z" />
    <glyph glyph-name="period" unicode="." horiz-adv-x="263" 
d="M58 64q0 34 20 54.5t54 21.5q33 0 53.5 -21t20.5 -55q0 -32 -21 -53t-53 -21q-33 0 -53.5 20.5t-20.5 53.5z" />
    <glyph glyph-name="slash" unicode="/" horiz-adv-x="434" 
d="M1 12l304 701q5 9 13 9h107q13 0 7 -13l-304 -699q-4 -10 -15 -10h-106q-5 0 -6.5 4t0.5 8z" />
    <glyph glyph-name="zero" unicode="0" horiz-adv-x="597" 
d="M556 347q0 -161 -71 -259q-70 -97 -186 -97t-187 98t-71 258t71 258t187 98q115 0 186 -98t71 -258zM177 347q0 -100 33.5 -160t88.5 -60q54 0 87 60.5t33 159.5t-33 159.5t-87 60.5q-55 0 -88.5 -60.5t-33.5 -159.5z" />
    <glyph glyph-name="one" unicode="1" horiz-adv-x="342" 
d="M52 576v107q2 11 10 11h218q10 0 10 -11v-673q0 -10 -10 -10h-116q-10 0 -10 10v556h-92q-10 0 -10 10z" />
    <glyph glyph-name="two" unicode="2" horiz-adv-x="553" 
d="M464 386l-12 -20l-173 -238h205q12 0 12 -12v-106q0 -10 -11 -10h-296h-38h-102q-7 0 -9 6t2 11l283 386q44 59 44 99q-1 32 -21.5 53t-57.5 20q-52 0 -108 -69q-8 -8 -18 4l-68 73q-7 7 3 20q79 100 206 100q83 0 139 -51q57 -51 57 -144q0 -30 -11.5 -65.5t-25.5 -56.5
z" />
    <glyph glyph-name="three" unicode="3" horiz-adv-x="545" 
d="M228 417h43q30 0 52.5 23.5t22.5 56.5q0 31 -22 50.5t-58 19.5q-52 0 -106 -64q-8 -7 -15 0l-74 87q-7 8 0 15q80 98 204 98q87 0 146 -52q61 -52 61 -135q0 -91 -67 -152q89 -54 89 -157q0 -97 -68 -160t-168 -63q-99 0 -166 59q-65 60 -69 157q0 10 10 10h114
q11 0 11 -9q2 -36 30.5 -58.5t71.5 -22.5q44 0 70.5 26t26.5 68q0 40 -23.5 66.5t-61.5 29.5h-54q-10 0 -10 10v87q0 10 10 10z" />
    <glyph glyph-name="four" unicode="4" horiz-adv-x="612" 
d="M489 265h64q10 0 10 -10v-96q0 -10 -10 -10h-64v-139q1 -10 -10 -10h-116q-10 0 -10 10v139h-208h-31h-91q-13 0 -7 13l316 523q4 9 15 9h132q10 -1 10 -11v-418zM353 265v229l-138 -229h138z" />
    <glyph glyph-name="five" unicode="5" horiz-adv-x="545" 
d="M443 566h-220l-11 -140q34 14 70 14q99 0 161 -59q61 -58 61 -160q0 -107 -64 -172q-65 -65 -168 -65q-100 0 -164 57q-63 57 -67 151q0 10 10 10h114q11 0 11 -10q2 -34 28.5 -55t67.5 -21q43 0 70 29t27 76q0 46 -27.5 74.5t-72.5 28.5q-46 0 -68 -25h-125
q-11 0 -10 10l31 374q2 11 12 11h334q10 0 10 -11v-107q0 -10 -10 -10z" />
    <glyph glyph-name="six" unicode="6" horiz-adv-x="542" 
d="M501 220q0 -105 -63 -168q-62 -63 -166 -63t-168 63q-63 64 -63 167q0 49 16 93q26 63 51 118l65 138l56 116q3 10 14 10h116q17 0 9 -14l-109 -236q18 2 20 2q101 -3 161 -65q61 -61 61 -161zM271 314q-42 0 -68 -26t-26 -69t26 -69t68 -26t68 26t26 69t-25.5 69
t-68.5 26z" />
    <glyph glyph-name="seven" unicode="7" horiz-adv-x="490" 
d="M46 694h426q18 0 10 -17l-252 -667q-3 -10 -14 -10h-123q-9 0 -6 10l213 556h-254q-11 0 -11 10v107q0 11 11 11z" />
    <glyph glyph-name="eight" unicode="8" horiz-adv-x="543" 
d="M478 504q0 -88 -66 -137q90 -55 90 -160q0 -98 -64 -158q-64 -59 -166 -59q-103 0 -168 59q-63 60 -63 158q0 105 90 160q-66 53 -66 137q0 90 57 144q56 55 150 55q93 0 149.5 -54.5t56.5 -144.5zM371 214q0 41 -28 67.5t-71 26.5q-42 0 -70.5 -27t-28.5 -67
q0 -39 28.5 -65.5t70.5 -26.5t70.5 26.5t28.5 65.5zM193 506q0 -37 21.5 -58t57.5 -21q35 0 56 21q22 22 22 58t-21 56q-21 21 -57 21t-57.5 -20.5t-21.5 -56.5z" />
    <glyph glyph-name="nine" unicode="9" horiz-adv-x="542" 
d="M465 337l-152 -328q-5 -9 -14 -9h-116q-17 0 -9 14l109 236q-8 -2 -17 -2q-102 2 -163 63q-62 62 -62 162q0 106 62 168q63 63 167 63t167 -64q64 -63 64 -166q0 -60 -36 -137zM271 379q42 0 68 26.5t26 68.5q0 43 -26 69t-68 26t-68 -26t-26 -69t25.5 -69t68.5 -26z" />
    <glyph glyph-name="colon" unicode=":" horiz-adv-x="238" 
d="M38 439q0 37 22 59.5t59 23.5q37 0 59.5 -23t22.5 -60q0 -36 -22.5 -58.5t-59.5 -22.5t-59 22.5t-22 58.5zM38 74q0 37 22 59.5t59 22.5q37 1 59.5 -22t22.5 -60q0 -36 -22.5 -58.5t-59.5 -22.5t-59 22.5t-22 58.5z" />
    <glyph glyph-name="semicolon" unicode=";" horiz-adv-x="255" 
d="M47 439q0 37 22.5 59.5t59.5 23.5q36 0 58.5 -23t22.5 -60q0 -36 -22.5 -58.5t-58.5 -22.5q-37 0 -59.5 22.5t-22.5 58.5zM80 -174l-46 38q-7 7 2 14q65 51 82 117h-4q-27 7 -43 27.5t-15 50.5q0 37 21.5 59t58.5 22q34 0 56 -20.5t23 -54.5q7 -72 -30 -150
q-38 -78 -89 -106q-7 -4 -16 3z" />
    <glyph glyph-name="less" unicode="&#x3c;" horiz-adv-x="539" 
d="M38 235v124q0 14 9 17l442 162q12 3 12 -9v-114q0 -13 -10 -17l-297 -101l297 -101q10 -4 10 -17v-114q0 -12 -12 -9l-442 162q-9 4 -9 17z" />
    <glyph glyph-name="equal" unicode="=" horiz-adv-x="524" 
d="M451 328h-378q-13 0 -13 13v83q0 13 13 13h378q13 0 13 -13v-83q0 -13 -13 -13zM451 146h-378q-13 0 -13 13v83q0 13 13 13h378q13 0 13 -13v-83q0 -13 -13 -13z" />
    <glyph glyph-name="greater" unicode="&#x3e;" horiz-adv-x="539" 
d="M48 196l297 101l-297 101q-10 4 -10 17v114q0 12 12 9l442 -162q9 -3 9 -17v-124q0 -13 -9 -17l-442 -162q-12 -3 -12 9v114q0 13 10 17z" />
    <glyph glyph-name="question" unicode="?" horiz-adv-x="473" 
d="M301 497q0 36 -22.5 56t-58.5 20q-56 0 -107 -62q-6 -8 -13 -1l-76 84q-8 8 0 15q76 94 206 94q88 0 147 -52q61 -53 60 -135q0 -89 -53 -147q-4 -4 -31.5 -31t-36.5 -38.5t-21.5 -37t-13.5 -51.5q0 -10 -10 -10h-120q-10 0 -10 10q4 88 59 146q7 8 33.5 33.5t36 37
t20.5 31.5t11 38zM213 -10q-35 0 -56 21t-21 56q0 34 21 55t56 21t55 -21q21 -20 21 -55t-21 -56t-55 -21z" />
    <glyph glyph-name="at" unicode="@" horiz-adv-x="906" 
d="M849 333q0 -86 -46.5 -140.5t-123.5 -57.5q-61 0 -108 47q-45 -67 -134 -67q-80 0 -131 54q-50 53 -52 139q0 86 51 139t132 53q75 0 118 -48l16 23q5 6 11 6h64q9 0 9 -10v-183q0 -56 44 -56q27 0 42 28.5t14 72.5q2 120 -78 194q-79 74 -204 74q-143 0 -229 -81
q-84 -79 -86 -210q2 -132 87 -211q86 -79 228 -79q99 0 181 66q9 9 18 2l56 -56q8 -12 0 -20q-98 -95 -255 -95q-187 0 -302 108q-114 108 -114 284q0 177 114 285q115 109 302 109q167 0 271 -102q105 -102 105 -268zM450 238q32 0 51 19.5t19 49.5q0 32 -19 51t-51 19
t-52 -20q-19 -19 -19 -50t19.5 -50.5t51.5 -18.5z" />
    <glyph glyph-name="A" unicode="A" horiz-adv-x="670" 
d="M532 7l-63 164h-268l-63 -164q-3 -7 -11 -7h-117q-11 0 -8 11l259 673q3 9 14 9h121q10 0 13 -9l258 -673q5 -11 -7 -11h-118q-9 0 -10 7zM425 287l-90 235l-90 -235h180z" />
    <glyph glyph-name="B" unicode="B" horiz-adv-x="608" 
d="M336 315h-130v-185h121q50 0 80 26.5t30 70.5q0 41 -27 64.5t-74 23.5zM304 417q90 0 90 79q0 32 -27 50.5t-73 17.5h-88v-148h49q26 1 49 1zM80 694h228q100 0 161 -51t62 -135q0 -79 -65 -130q105 -52 108 -171q1 -93 -65 -150q-65 -57 -175 -57h-254q-11 0 -11 10v673
q0 11 11 11z" />
    <glyph glyph-name="C" unicode="C" horiz-adv-x="668" 
d="M638 82q-98 -92 -250 -92q-159 0 -257 98q-97 98 -97 258q0 85 29.5 154.5t80.5 113.5q106 89 244 89q147 2 248 -93q6 -6 0 -13l-66 -90q-5 -9 -14 0q-70 61 -168 61q-97 1 -158 -61q-59 -62 -59 -161q0 -98 60 -160q60 -61 157 -61q94 0 168 62q8 8 14 0l67 -91
q7 -8 1 -14z" />
    <glyph glyph-name="D" unicode="D" horiz-adv-x="681" 
d="M292 564l-86 1v-435h86q98 0 159 59q60 59 60 158t-60 158q-60 60 -159 59zM292 0h-213q-10 0 -10 10l1 674q0 10 9 10h213q161 0 258 -94t97 -253q0 -160 -97 -254q-98 -93 -258 -93z" />
    <glyph glyph-name="E" unicode="E" horiz-adv-x="532" 
d="M427 290h-221v-160h278q10 0 10 -10v-111q0 -9 -9 -9h-406q-10 0 -10 10v674q0 10 10 10h395q10 0 10 -10v-111q0 -9 -9 -9h-269v-146h221q10 0 10 -10v-108q0 -10 -10 -10z" />
    <glyph glyph-name="F" unicode="F" horiz-adv-x="510" 
d="M427 290h-221v-279q0 -11 -11 -11h-116q-10 0 -10 10v674q0 10 10 10h395q10 0 10 -10v-111q0 -9 -9 -9h-269v-146h221q10 0 10 -10v-108q0 -10 -10 -10z" />
    <glyph glyph-name="G" unicode="G" horiz-adv-x="734" 
d="M560 267h-167q-10 0 -10 9v92q0 10 10 10h293q13 0 13 -13q-2 -181 -83.5 -278t-238.5 -96q-154 0 -249 98q-94 97 -94 258q0 160 98 258t259 98q146 0 250 -95q5 -5 0 -13l-70 -90q-7 -7 -14 0q-27 25 -72 43.5t-94 18.5q-99 0 -160 -61q-60 -60 -60 -159q0 -98 56 -160
q57 -60 150 -60q150 0 183 140z" />
    <glyph glyph-name="H" unicode="H" horiz-adv-x="688" 
d="M196 0h-117q-10 0 -10 10l1 674q0 10 9 10h118q9 0 9 -9v-279h277v278q0 10 10 10h117q10 0 10 -9l-1 -675q0 -10 -9 -10h-117q-10 0 -10 10v280h-277v-280q0 -10 -10 -10z" />
    <glyph glyph-name="I" unicode="I" horiz-adv-x="275" 
d="M206 684v-675q0 -9 -10 -9h-117q-10 0 -10 9v675q0 10 10 10h117q10 0 10 -10z" />
    <glyph glyph-name="J" unicode="J" horiz-adv-x="420" 
d="M214 226l-1 458q0 10 10 10h116q10 0 10 -10l2 -486q1 -99 -43.5 -153t-124.5 -55q-105 1 -173 57q-7 5 -2 15l54 97q5 12 17 4q1 0 7.5 -4t16 -9t14.5 -8q32 -15 51 -15q26 0 35 20t11 79z" />
    <glyph glyph-name="K" unicode="K" horiz-adv-x="585" 
d="M206 684v-298l219 302q5 6 12 6h129q13 0 6 -13l-242 -331l279 -338q9 -12 -6 -12h-142q-8 0 -13 5l-242 306v-302q0 -9 -10 -9h-117q-10 0 -10 9v675q0 10 10 10h117q10 0 10 -10z" />
    <glyph glyph-name="L" unicode="L" horiz-adv-x="461" 
d="M206 684v-562h217q10 0 10 -10v-103q0 -9 -9 -9h-345q-9 0 -9 9l-1 675q0 10 10 10h117q10 0 10 -10z" />
    <glyph glyph-name="M" unicode="M" horiz-adv-x="861" 
d="M84 694h115q9 0 12 -8l218 -443l213 444q3 7 11 7h129q10 0 10 -10v-674q0 -10 -10 -10h-116q-10 0 -10 10v424l-162 -322q-5 -8 -12 -8h-105q-8 0 -12 7l-159 318v-419q0 -10 -11 -10h-115q-11 0 -11 11v668q0 15 15 15z" />
    <glyph glyph-name="N" unicode="N" horiz-adv-x="720" 
d="M524 694h117q10 0 10 -10v-674q0 -10 -10 -10h-134q-7 0 -11 6l-290 462v-458q0 -10 -10 -10h-117q-10 0 -10 10l1 674q0 10 10 10h134q8 0 12 -7l288 -460l1 457q0 10 9 10z" />
    <glyph glyph-name="O" unicode="O" horiz-adv-x="780" 
d="M391 -9q-161 0 -259 98t-98 258t98 258q100 98 259 98t257 -98t98 -258t-98 -258t-257 -98zM391 127q98 0 158 60q61 61 61 160t-61 159q-60 61 -158 61q-99 0 -160 -61q-60 -60 -60 -159t60 -160q60 -60 160 -60z" />
    <glyph glyph-name="P" unicode="P" horiz-adv-x="559" 
d="M333 259h-127v-249q0 -10 -11 -10h-115q-11 0 -11 10v673q0 11 11 11h253q103 0 163 -61q60 -60 60 -156q0 -95 -60 -157q-60 -61 -163 -61zM206 564v-174l113 -1q46 0 73.5 22t27.5 65q0 44 -27.5 66.5t-73.5 21.5h-113z" />
    <glyph glyph-name="Q" unicode="Q" horiz-adv-x="782" 
d="M598 49l143 -86q8 -6 3 -14l-55 -91q-6 -9 -14 -4l-220 141q-25 -4 -64 -4q-161 0 -259 98t-98 258t98 258q100 98 259 98t257 -98t98 -258q0 -99 -38.5 -175.5t-109.5 -122.5zM610 347q0 99 -61 159q-60 61 -158 61q-99 0 -160 -61q-60 -60 -60 -159q0 -97 60 -159
q61 -61 160 -61t159 60t60 160z" />
    <glyph glyph-name="R" unicode="R" horiz-adv-x="596" 
d="M432 5l-145 254h-81v-249q0 -10 -10 -10h-117q-10 0 -10 10l1 674q0 10 9 10h263q102 0 162 -61q59 -59 61 -156q-1 -76 -39.5 -130.5t-106.5 -74.5l158 -260q7 -12 -6 -12h-129q-7 0 -10 5zM344 564l-138 1v-175l138 -1q34 0 59 22.5t25 64.5t-25 65t-59 23z" />
    <glyph glyph-name="S" unicode="S" horiz-adv-x="588" 
d="M41 74q-7 4 -2 13l58 103q7 10 16 2q23 -21 78 -44q53 -22 111 -22q49 0 80.5 18.5t31.5 50.5q0 59 -132 83q-123 22 -181 71t-61 138q-3 95 67 156q71 62 190 60q78 -2 136 -24q59 -23 81 -43q8 -5 3 -14l-47 -106q-4 -9 -14 -3q-80 54 -165 53q-50 1 -82 -19t-32 -50
t28 -46.5t106 -34.5q124 -27 180.5 -76t59.5 -138q3 -94 -68 -154q-72 -59 -192 -58q-85 2 -156 30q-68 28 -94 54z" />
    <glyph glyph-name="T" unicode="T" horiz-adv-x="550" 
d="M207 9v555h-180q-9 0 -9 9v111q0 10 10 10h495q9 0 9 -10v-111q0 -9 -9 -9h-180v-555q0 -9 -9 -9h-118q-9 0 -9 9z" />
    <glyph glyph-name="U" unicode="U" horiz-adv-x="680" 
d="M69 272v412q0 9 10 9h118q9 0 9 -9v-413q0 -66 37 -105t98 -39t97.5 39t35.5 105v413q0 9 10 9h118q9 0 9 -9v-413q0 -133 -78 -207q-76 -73 -192 -73q-114 0 -194 74q-78 73 -78 207z" />
    <glyph glyph-name="V" unicode="V" horiz-adv-x="672" 
d="M252 9l-250 672q-4 12 8 12h123q7 0 11 -7l192 -520l192 520q1 7 11 7h123q11 0 8 -12l-251 -672q-3 -9 -13 -9h-140q-10 0 -14 9z" />
    <glyph glyph-name="W" unicode="W" horiz-adv-x="942" 
d="M613 8l-142 514l-143 -514q-2 -8 -10 -8h-103q-8 0 -10 8l-204 676q-3 10 8 10h119q10 0 11 -9l130 -472l137 472q2 9 12 9h105q9 0 11 -9l139 -477l132 479q1 7 9 7h119q11 0 8 -10l-204 -676q-3 -8 -12 -8h-101q-8 0 -11 8z" />
    <glyph glyph-name="X" unicode="X" horiz-adv-x="604" 
d="M145 0h-137q-12 0 -5 10l222 333l-217 341q-7 10 6 10h140q9 0 12 -6l137 -223l142 222q4 6 13 6h138q12 0 5 -10l-225 -338l214 -335q7 -10 -5 -10h-140q-9 0 -12 6l-135 218l-141 -218q-3 -6 -12 -6z" />
    <glyph glyph-name="Y" unicode="Y" horiz-adv-x="619" 
d="M241 9v267l-238 405q-8 12 7 12h124q8 0 13 -8l163 -289l163 289q3 8 13 8h123q15 0 7 -12l-239 -404v-268q1 -9 -9 -9h-117q-10 0 -10 9z" />
    <glyph glyph-name="Z" unicode="Z" horiz-adv-x="602" 
d="M563 677l-317 -549h306q9 0 9 -10v-108q0 -10 -9 -10h-508q-16 0 -9 16l318 550h-275q-10 0 -10 9v109q0 10 10 10h476q20 0 9 -17z" />
    <glyph glyph-name="bracketleft" unicode="[" horiz-adv-x="333" 
d="M172 583l1 -633h84q11 0 11 -12v-87q0 -13 -11 -13l-200 1q-12 0 -12 11v832q0 12 12 12h199q12 0 12 -12v-87q0 -12 -12 -12h-84z" />
    <glyph glyph-name="backslash" unicode="\" horiz-adv-x="432" 
d="M9 722h107q8 0 12 -9l304 -700q6 -13 -6 -13h-106q-11 0 -14 9l-305 700q-3 5 -0.5 9t8.5 4z" />
    <glyph glyph-name="bracketright" unicode="]" horiz-adv-x="333" 
d="M52 -50h85v633h-84q-12 0 -12 12v87q0 12 12 12h199q12 0 12 -12v-832q0 -11 -12 -11h-200q-11 0 -11 12v87q0 12 11 12z" />
    <glyph glyph-name="asciicircum" unicode="^" horiz-adv-x="583" 
d="M33 272l181 412q4 9 14 9h127q11 0 14 -9l181 -412q3 -5 0 -9t-10 -4h-114q-12 0 -16 10l-119 287l-118 -287q-4 -10 -16 -10h-114q-7 0 -10 4t0 9z" />
    <glyph glyph-name="underscore" unicode="_" horiz-adv-x="597" 
d="M54 -28h489q13 0 13 -15v-76q0 -15 -13 -15h-489q-13 0 -13 14v79q0 13 13 13z" />
    <glyph glyph-name="grave" unicode="`" horiz-adv-x="277" 
d="M204 535l-175 116q-10 7 -2 14l57 71q7 8 17 1l148 -150q7 -7 1 -12l-32 -39q-8 -8 -14 -1z" />
    <glyph glyph-name="a" unicode="a" horiz-adv-x="590" 
d="M408 421l16 48q4 10 11 9h91q10 0 10 -10v-458q-1 -10 -11 -10h-91q-8 0 -11 10l-15 46q-51 -67 -140 -67q-108 -1 -174 68q-66 71 -66 181q0 111 66 179q66 69 174 69q89 2 140 -65zM157 238q0 -53 33 -86t85 -33q54 0 87 32.5t34 86.5q-1 54 -34.5 86.5t-86.5 32.5
t-85.5 -32.5t-32.5 -86.5z" />
    <glyph glyph-name="b" unicode="b" horiz-adv-x="581" 
d="M145 0h-81q-10 0 -10 9v704q0 10 11 10h109q11 0 11 -10v-280q47 53 128 53q108 1 174 -68t66 -180t-66 -180t-174 -69q-90 0 -141 68l-16 -47q-3 -10 -11 -10zM306 358q-54 0 -87.5 -33t-33.5 -87t33.5 -87t87.5 -33q52 0 84.5 33.5t32.5 86.5q0 54 -32 87t-85 33z" />
    <glyph glyph-name="c" unicode="c" horiz-adv-x="511" 
d="M478 88q-68 -99 -203 -99q-111 0 -179 69q-68 70 -68 180q0 116 71 181q73 67 172 68q142 3 215 -108q8 -9 0 -14l-84 -68q-9 -9 -16 3q-40 58 -111 58q-53 0 -85.5 -33t-32.5 -87t32.5 -87t85.5 -33q64 0 108 53q10 10 18 2l75 -71q7 -4 2 -14z" />
    <glyph glyph-name="d" unicode="d" horiz-adv-x="581" 
d="M268 -11q-108 0 -174 69t-66 180t66 180t174 68q81 0 129 -53v280q0 10 10 10h110q10 0 10 -10v-703q0 -10 -11 -10h-79q-9 0 -12 10l-16 47q-50 -68 -141 -68zM396 238q1 54 -32.5 87t-87.5 33q-53 0 -85.5 -33t-32.5 -87q0 -53 33 -86.5t85 -33.5q53 0 86.5 33t33.5 87
z" />
    <glyph glyph-name="e" unicode="e" horiz-adv-x="550" 
d="M164 281h221q-9 39 -37.5 61.5t-72.5 22.5t-73 -22t-38 -62zM512 188h-345q26 -77 120 -77q64 0 99 31q11 9 17 1l68 -71q7 -7 1 -15q-62 -67 -193 -68q-112 0 -182 68q-69 69 -69 181q0 110 68 180q68 69 179 69q119 0 183.5 -72.5t63.5 -216.5q0 -5 -3 -8t-7 -2z" />
    <glyph glyph-name="f" unicode="f" horiz-adv-x="354" 
d="M313 357h-103v-347q0 -10 -10 -10h-111q-10 0 -10 10l-1 347h-59q-10 0 -10 10v101q0 10 10 10h59v63q0 100 40.5 146t120.5 46q38 0 73.5 -13.5t50.5 -28.5q8 -5 3 -14l-39 -87q-3 -10 -14 -5q-34 20 -53 20q-50 0 -51 -75v-52h104q10 0 10 -10v-101q0 -10 -10 -10z" />
    <glyph glyph-name="g" unicode="g" horiz-adv-x="585" 
d="M269 489q95 0 144 -72l19 51q1 10 12 10h77q10 0 10 -10l1 -449q0 -115 -71 -186t-184 -71q-114 2 -195 51q-10 4 -5 16l47 96q4 9 14 4q57 -32 131 -37q63 1 97.5 36t34.5 96v20q-50 -56 -132 -55q-109 1 -175 69t-66 180t66 181q67 70 175 70zM158 239q0 -53 32.5 -86
t85.5 -33q55 0 89.5 33t34.5 86q0 55 -34 87.5t-90 32.5q-53 0 -85.5 -33t-32.5 -87z" />
    <glyph glyph-name="h" unicode="h" horiz-adv-x="552" 
d="M55 10l-1 702q0 10 11 10h109q11 0 11 -10v-280q48 58 135 58q81 0 130 -58q50 -59 50 -156v-266q0 -10 -10 -10h-110q-11 0 -10 10v239q0 51 -24.5 80.5t-64.5 29.5q-41 -1 -67 -33.5t-29 -92.5v-223q0 -10 -10 -10h-110q-10 0 -10 10z" />
    <glyph glyph-name="i" unicode="i" horiz-adv-x="240" 
d="M185 469v-459q0 -10 -10 -10h-110q-10 0 -10 10v458q0 10 11 10h110q9 0 9 -9zM60 574q-22 22 -22 60q0 37 22 59t60 22q37 0 59 -22t22 -59q0 -38 -22 -60t-59 -22q-38 0 -60 22z" />
    <glyph glyph-name="j" unicode="j" horiz-adv-x="274" 
d="M93 574q-22 22 -22 60q0 37 22 59t60 22q37 0 59 -22t22 -59q0 -38 -22 -60t-59 -22q-38 0 -60 22zM89 -47v515q0 10 10 10h110q10 0 10 -10l1 -531q0 -81 -40.5 -128t-112.5 -47q-75 0 -116 41q-4 4 -3 13l41 92q5 15 17 4q22 -17 42 -17q20 -1 30 13t11 45z" />
    <glyph glyph-name="k" unicode="k" horiz-adv-x="491" 
d="M326 477h147q15 0 5 -13l-166 -214l198 -237q10 -13 -5 -13h-144q-8 0 -13 5l-163 201v-197q0 -9 -9 -9h-112q-9 0 -9 9l-1 704q0 9 10 9h112q9 0 9 -9v-421l131 180q3 5 10 5z" />
    <glyph glyph-name="l" unicode="l" horiz-adv-x="241" 
d="M186 712v-702q0 -10 -10 -10h-111q-10 0 -10 10v702q0 10 10 10h110q11 0 11 -10z" />
    <glyph glyph-name="m" unicode="m" horiz-adv-x="810" 
d="M65 478h89q10 1 12 -10l10 -42q45 64 131 64q96 0 141 -90q45 90 149 90q76 0 122 -58t46 -156v-265q0 -11 -10 -11h-110q-11 0 -11 11v238q0 110 -76 110q-82 -1 -84 -138l1 -210q0 -11 -10 -11h-111q-10 0 -10 11v238q0 110 -76 110q-79 -2 -83 -124v-225
q0 -10 -10 -10h-111q-9 0 -9 10l-1 458q0 10 11 10z" />
    <glyph glyph-name="n" unicode="n" horiz-adv-x="552" 
d="M55 10l-1 458q0 10 11 10h88q10 0 13 -10l11 -46q47 68 143 68q81 0 130 -58q50 -59 50 -156v-266q0 -10 -10 -10h-110q-4 0 -7.5 3t-2.5 7v239q0 51 -24.5 80.5t-64.5 29.5q-41 -1 -67 -33.5t-29 -92.5v-223q0 -9 -10 -9h-110q-10 0 -10 9z" />
    <glyph glyph-name="o" unicode="o" horiz-adv-x="553" 
d="M276 490q112 0 180 -69q69 -69 69 -181t-69 -181q-68 -69 -180 -69q-111 0 -180 69q-68 70 -68 181t68 181q69 69 180 69zM276 120q54 0 86.5 33t32.5 87t-32.5 87t-86.5 33q-53 0 -85.5 -33t-32.5 -87t32.5 -87t85.5 -33z" />
    <glyph glyph-name="p" unicode="p" horiz-adv-x="583" 
d="M175 -228h-110q-11 0 -11 11v685q2 11 11 11h78q9 0 13 -10l16 -49q49 69 142 69q109 0 175 -69t66 -181t-66 -181t-175 -69q-80 0 -129 54v-261q0 -10 -10 -10zM306 359q-53 0 -86 -33t-33 -87t33 -87t86 -33t86 33t33 87t-32.5 87t-86.5 33z" />
    <glyph glyph-name="q" unicode="q" horiz-adv-x="583" 
d="M528 468v-685q0 -11 -10 -11h-108q-12 0 -12 11v260q-50 -54 -129 -54q-109 0 -175 69t-66 181t66 181t175 69q93 0 142 -69l16 49q4 10 11 10h80q10 -1 10 -11zM276 119q54 0 87 33t33 87t-33 87t-87 33q-53 0 -85.5 -33t-32.5 -87t32.5 -87t85.5 -33z" />
    <glyph glyph-name="r" unicode="r" horiz-adv-x="369" 
d="M323 342q-31 14 -62 14q-49 0 -75 -51v-295q0 -10 -11 -10h-110q-10 0 -10 10l-1 458q0 10 11 10h76q11 0 14 -10l11 -29q52 49 120 49q27 0 72 -12q10 -3 7 -13l-27 -115q-4 -10 -15 -6z" />
    <glyph glyph-name="s" unicode="s" horiz-adv-x="448" 
d="M37 43q-8 5 -3 14l44 88q3 8 14 3q59 -32 111 -37q34 -3 58 5.5t24 22.5q0 15 -19 24.5t-75 25.5l-13 4q-141 39 -144 143q-3 72 54 113q58 41 144 40q49 -1 94 -17.5t70 -35.5q8 -6 3 -14l-44 -83q-4 -8 -16 -4l-6 3l-14 7t-13 6q-26 12 -58 16q-34 5 -59 -4t-25 -24
q0 -14 19 -24t65 -22q87 -19 126.5 -52t40.5 -94q1 -72 -51 -115q-53 -42 -138 -41q-62 0 -116 18q-55 19 -73 34z" />
    <glyph glyph-name="t" unicode="t" horiz-adv-x="338" 
d="M216 357v-129q0 -63 6.5 -83.5t28.5 -20.5q12 0 38 14q10 5 14 -4l31 -95q5 -11 -3 -16q-43 -33 -106 -32q-65 0 -102 43.5t-36 118.5v204h-59q-10 0 -10 9v102q0 10 10 10h59l1 143q0 10 9 10h109q10 0 10 -10v-143h90q10 0 10 -10v-102q0 -9 -10 -9h-90z" />
    <glyph glyph-name="u" unicode="u" horiz-adv-x="559" 
d="M393 10l-10 45q-58 -67 -156 -67q-79 0 -127 58t-48 156l-1 265q0 11 10 11h111q10 0 10 -11v-238q0 -118 93 -118q42 0 69 33.5t31 99.5v223q0 11 10 11h110q10 0 10 -10v-458q0 -10 -10 -10h-89q-10 0 -13 10z" />
    <glyph glyph-name="v" unicode="v" horiz-adv-x="506" 
d="M504 465l-175 -456q-3 -9 -14 -9h-124q-11 0 -14 9l-175 456q-4 13 9 13h118q8 0 11 -8l113 -315l112 315q3 8 12 8h118q13 0 9 -13z" />
    <glyph glyph-name="w" unicode="w" horiz-adv-x="677" 
d="M144 469l60 -284l77 284q3 9 11 9h93q11 0 12 -9l77 -301l58 301q2 9 10 9h126q10 0 7 -10l-126 -460q-3 -8 -12 -8h-117q-9 0 -12 8l-70 282l-71 -282q-3 -8 -12 -8h-114q-9 0 -11 8l-128 460q-4 10 6 10h126q8 0 10 -9z" />
    <glyph glyph-name="x" unicode="x" horiz-adv-x="508" 
d="M250 134l-88 -126q-5 -8 -15 -8h-134q-5 0 -7 4t2 8l164 227l-165 226q-4 5 -2 9t7 4h136q10 0 16 -8l88 -124l88 124q6 8 16 8h133q6 0 8 -4t-2 -8l-165 -224l165 -230q4 -4 2.5 -8t-8.5 -4h-137q-9 0 -15 8z" />
    <glyph glyph-name="y" unicode="y" horiz-adv-x="505" 
d="M379 478h114q15 0 8 -13l-267 -684q-4 -9 -14 -9h-113q-14 0 -8 13l85 219l-181 461q-4 13 7 13h118q9 0 12 -9l106 -305l120 305q3 9 13 9z" />
    <glyph glyph-name="z" unicode="z" horiz-adv-x="459" 
d="M415 0h-374q-13 0 -7 13l188 344h-168q-10 0 -10 9v102q0 10 10 10h363q14 0 5 -17l-185 -340h178q9 0 9 -10v-101q0 -10 -9 -10z" />
    <glyph glyph-name="braceleft" unicode="{" horiz-adv-x="361" 
d="M67 316q69 26 69 79v156q0 54 16 95q20 47 84 47h71q13 0 13 -13v-89q0 -14 -13 -14h-28q-18 0 -18 -26v-152q0 -90 -77 -134q77 -44 77 -134v-152q0 -26 18 -26h28q13 0 13 -14v-89q0 -13 -13 -13h-71q-64 0 -84 47q-16 41 -16 95v156q0 53 -69 79q-7 3 -7 9v85q0 5 7 8
z" />
    <glyph glyph-name="bar" unicode="|" horiz-adv-x="216" 
d="M170 708v-922q0 -14 -13 -14h-96q-14 0 -14 14v922q-2 14 14 14h95q14 0 14 -14z" />
    <glyph glyph-name="braceright" unicode="}" horiz-adv-x="361" 
d="M81 577h-28q-13 0 -13 14v89q0 13 13 13h71q65 0 83 -47q17 -41 17 -95v-156q0 -53 69 -79q7 -3 7 -8v-85q0 -6 -7 -9q-69 -26 -69 -79v-156q0 -54 -17 -95q-18 -47 -83 -47h-71q-13 0 -13 13v90q0 13 13 13h28q18 1 18 26v152q0 90 77 134q-77 44 -77 134v152
q0 26 -18 26z" />
    <glyph glyph-name="asciitilde" unicode="~" horiz-adv-x="569" 
d="M112 143q-2 -6 -7 -6.5t-9 3.5l-67 71q-9 10 -4 20q21 58 63.5 94.5t95.5 36.5q37 0 69.5 -15.5t52.5 -37.5q51 -51 82 -50q15 0 27 13q18 18 36 68l3 8q7 16 19 4l67 -69q8 -8 4 -18q-22 -61 -64 -99.5t-95 -38.5q-70 0 -125 51q-48 52 -80 52q-10 0 -18 -4.5
t-15.5 -15.5t-11.5 -18t-12 -25t-11 -24z" />
    <glyph glyph-name="uni00A0" unicode="&#xa0;" horiz-adv-x="313" 
 />
    <glyph glyph-name="exclamdown" unicode="&#xa1;" horiz-adv-x="251" 
d="M67 489h114q10 0 10 -10l2 -469q0 -10 -10 -10h-118q-10 0 -10 10l2 469q0 10 10 10zM50 628q0 34 20.5 54.5t54.5 20.5t54 -20.5t20 -54.5q0 -33 -20 -53t-54 -20t-54.5 20t-20.5 53z" />
    <glyph glyph-name="cent" unicode="&#xa2;" horiz-adv-x="511" 
d="M312 353l-43 -235h6q64 0 108 53q10 10 16 4l78 -74q6 -5 1 -13q-64 -99 -203 -99q-24 0 -30 1l-17 -88q-1 -10 -12 -10h-37q-10 0 -9 10l19 100q-75 23 -118 86t-43 150q0 115 71 181q73 67 171 68h10l10 55q1 10 12 10h38q9 0 8 -10l-12 -61q94 -19 150 -102
q6 -8 0 -14l-86 -70q-7 -7 -14 5q-30 41 -74 53zM214 133l41 223h-2q-44 -7 -70 -38.5t-26 -79.5q0 -75 57 -105z" />
    <glyph glyph-name="sterling" unicode="&#xa3;" horiz-adv-x="491" 
d="M415 0h-339q-6 0 -8.5 4.5t-0.5 9.5q85 190 60 289h-74q-13 0 -13 14v37q0 14 13 14h48q-37 75 -37 142q2 84 58 138q56 55 142 55q110 0 182 -86q8 -7 -1 -16l-74 -79q-8 -8 -17 2q-42 51 -91 51q-30 -1 -48.5 -19t-18.5 -46q0 -22 7 -43q5 -16 20.5 -52t19.5 -47h101
q13 0 13 -14v-37q0 -14 -13 -14h-85q12 -77 -20 -181h177q12 0 12 -11v-98q0 -13 -13 -13z" />
    <glyph glyph-name="currency" unicode="&#xa4;" horiz-adv-x="584" 
d="M293 466q56 0 100 -23l56 61q7 6 13 0l76 -76q6 -6 0 -13l-62 -59q19 -38 19 -92q0 -58 -23 -102l65 -60q7 -6 0 -13l-76 -76q-7 -7 -14 0l-63 67q-39 -19 -91 -19q-47 0 -89 17l-63 -70q-7 -6 -13 0l-77 77q-7 7 0 13l63 60q-25 46 -25 106q0 46 17 88l-64 59q-7 6 0 13
l76 76q6 6 13 0l56 -59q46 25 106 25zM183 264q0 -49 30.5 -79t78.5 -30q49 0 79 30t31 79q0 48 -30 78t-80 31t-80 -29t-29 -80z" />
    <glyph glyph-name="yen" unicode="&#xa5;" horiz-adv-x="619" 
d="M241 10v113h-110q-10 0 -10 10v31q0 10 10 10h110v70h-110q-10 0 -10 10v31q0 10 10 10h95h4l-227 386q-8 12 7 12h123q9 0 14 -8l163 -289l163 289q3 8 14 8h122q15 0 7 -12l-227 -386h6h88q10 0 10 -10v-31q0 -10 -10 -10h-106v-70h106q10 0 10 -10v-31q0 -10 -10 -10
h-106v-113q1 -10 -9 -10h-117q-10 0 -10 10z" />
    <glyph glyph-name="brokenbar" unicode="&#xa6;" horiz-adv-x="215" 
d="M61 124h93q9 0 10 -10v-332q0 -10 -10 -10h-93q-10 0 -10 10v332q0 10 10 10zM61 722h93q10 0 10 -10v-332q0 -10 -10 -10h-92q-11 0 -11 10v332q0 10 10 10z" />
    <glyph glyph-name="section" unicode="&#xa7;" horiz-adv-x="580" 
d="M40 508q-3 92 64.5 144t185.5 51q77 -2 133 -23q58 -22 79 -42q8 -5 3 -14l-46 -97q-6 -7 -15 -3q-79 51 -160 51q-49 0 -78 -15t-29 -41q0 -22 21 -35q9 -5 40 -13l66 -14q119 -27 175 -74t59 -140q1 -63 -39 -115q38 -38 39 -110q1 -88 -69 -137q-70 -50 -184 -49
q-86 2 -152 29q-69 29 -92 52q-7 4 -2 13l58 94q4 10 15 2q27 -22 76 -41q52 -21 108 -21q105 0 105 55q0 24 -25 37q-24 14 -100 27q-120 21 -177 69.5t-59 134.5q-3 66 38 121q-36 36 -38 104zM304 208q48 -11 62 -16q35 18 35 49q0 65 -125 88q-59 12 -60 13
q-39 -18 -39 -49t29 -50.5t98 -34.5z" />
    <glyph glyph-name="dieresis" unicode="&#xa8;" horiz-adv-x="355" 
d="M50 600q-18 18 -18 47t18 47t47 18t47 -18t18 -47t-18 -47t-47 -18t-47 18zM208 600q-18 18 -18 47t18 47t47 18t47 -18t18 -47t-18 -47t-47 -18t-47 18z" />
    <glyph glyph-name="copyright" unicode="&#xa9;" horiz-adv-x="791" 
d="M557 228q-52 -76 -158 -76q-87 0 -139 54q-53 55 -53 140q0 58 27.5 104t71.5 67q60 34 137.5 18.5t115.5 -75.5q5 -8 -2 -14l-63 -56q-9 -8 -17 2q-34 37 -78 37q-37 1 -59.5 -22t-22.5 -61t22 -60.5t60 -22.5q50 0 79 35q8 11 18 2l59 -55q8 -8 2 -17zM39 346
q0 162 97 259q98 98 259 98t259 -98t98 -259q0 -160 -99 -258q-98 -98 -258 -98t-258 98t-98 258zM118 346q0 -124 76 -200t201 -76q126 0 202 76q77 77 77 200q0 124 -77 201t-202 77q-124 0 -201 -77q-76 -76 -76 -201z" />
    <glyph glyph-name="ordfeminine" unicode="&#xaa;" horiz-adv-x="433" 
d="M306 704h75q10 0 10 -10v-315q0 -11 -11 -11h-75q-8 0 -11 10l-10 28q-34 -45 -94 -45q-76 0 -122.5 48t-46.5 127t46.5 127t122.5 48q60 0 94 -45l10 28q3 10 12 10zM270 537q0 30 -19.5 47.5t-49.5 17.5q-31 0 -50 -18t-19 -48t19 -48t50 -18t50 18t19 49z" />
    <glyph glyph-name="guillemotleft" unicode="&#xab;" horiz-adv-x="514" 
d="M255 257v18q0 12 8 20l147 155q10 10 21 0l56 -55q8 -9 1 -19l-108 -110l108 -110q7 -10 -1 -19l-56 -55q-11 -10 -21 0l-147 155q-8 8 -8 20zM213 450l55 -55q10 -10 1 -19l-107 -110l107 -110q9 -9 -1 -19l-55 -55q-12 -10 -21 0l-148 155q-8 8 -8 20v18q0 12 8 20
l148 155q9 10 21 0z" />
    <glyph glyph-name="logicalnot" unicode="&#xac;" horiz-adv-x="630" 
d="M563 396l-1 -213q0 -12 -12 -12h-85q-12 0 -12 13v114h-373q-13 0 -13 13v83q0 14 13 15h469q13 0 14 -13z" />
    <glyph glyph-name="uni00AD" unicode="&#xad;" horiz-adv-x="333" 
 />
    <glyph glyph-name="registered" unicode="&#xae;" horiz-adv-x="788" 
d="M38 346q0 162 97 259q98 98 259 98q160 0 258 -98t98 -259q0 -160 -98 -258t-258 -98t-258 98t-98 258zM394 624q-124 0 -201 -77q-76 -76 -76 -201q0 -124 76 -200t201 -76q126 0 202 75q77 77 77 201q0 125 -77 202q-76 76 -202 76zM541 421q0 -39 -19.5 -69t-53.5 -43
l75 -137q4 -13 -9 -13h-84q-10 0 -15 8l-60 133h-20l-1 -128q1 -6 -3 -9.5t-11 -3.5h-80q-15 0 -15 15v352q0 12 13 12h161q56 0 89 -32.5t33 -84.5zM355 443v-56h55q30 0 30 29q0 27 -30 27h-55z" />
    <glyph glyph-name="overscore" unicode="&#xaf;" horiz-adv-x="325" 
d="M34 695h257q10 1 10 -9v-66q0 -10 -10 -10h-257q-10 0 -10 10v66q0 9 10 9z" />
    <glyph glyph-name="degree" unicode="&#xb0;" horiz-adv-x="425" 
d="M213 718q84 0 136 -52q53 -53 53 -137q0 -83 -53 -136q-52 -52 -136 -52q-85 0 -138 51q-52 52 -52 137t52 137t138 52zM140 528q0 -31 20.5 -51t52.5 -20q31 0 51.5 20t20.5 51q0 34 -20 54t-52 20q-34 0 -53.5 -20t-19.5 -54z" />
    <glyph glyph-name="plusminus" unicode="&#xb1;" horiz-adv-x="589" 
d="M344 177h-99q-10 0 -10 10v132h-149q-10 0 -10 10v94q0 10 10 10h149v132q0 9 10 10h99q10 0 10 -10v-132h149q10 0 10 -10v-94q0 -10 -10 -10h-149v-132q0 -10 -10 -10zM511 113v-77q0 -12 -12 -12h-407q-12 0 -12 12v77q0 12 12 12h407q12 0 12 -12z" />
    <glyph glyph-name="twosuperior" unicode="&#xb2;" horiz-adv-x="326" 
d="M288 478l-14 -28l-12 -17l-28 -42l-23 -33h88q9 0 9 -10v-83q0 -11 -9 -11h-261q-22 0 -12 22l154 228q26 40 26 63q-1 31 -35 31q-33 0 -58 -30q-6 -8 -12 1l-54 63q-5 5 0 10q50 62 138 62q59 0 93.5 -35.5t34.5 -93.5q0 -37 -17 -79q-3 -8 -8 -18z" />
    <glyph glyph-name="threesuperior" unicode="&#xb3;" horiz-adv-x="352" 
d="M126 455v60q0 10 10 10h25q40 0 40 44q0 16 -10.5 26.5t-26.5 10.5q-32 0 -59 -27q-7 -7 -12 0l-47 56q-4 7 0 12q50 56 131 56q60 0 98 -33.5t38 -85.5q0 -59 -41 -100q54 -32 54 -105q0 -60 -42.5 -97.5t-111.5 -37.5q-66 0 -108 38t-46 101q-1 10 9 10h87q8 0 8 -8
q0 -22 24 -31t47.5 2.5t21.5 39.5q0 46 -46 49h-33q-10 0 -10 10z" />
    <glyph glyph-name="acute" unicode="&#xb4;" horiz-adv-x="277" 
d="M192 737l58 -72q8 -8 -2 -15l-175 -115q-8 -6 -15 1l-32 38q-4 8 2 14l148 149q9 9 16 0z" />
    <glyph glyph-name="mu" unicode="&#xb5;" horiz-adv-x="563" 
d="M378 244v222q0 12 11 12h109q10 0 10 -10v-458q0 -10 -10 -10h-91q-9 0 -10 10l-11 45q-58 -67 -155 -67q-27 0 -47 9v-208q0 -16 -16 -16h-98q-16 0 -16 16v678q0 11 11 11h110q10 0 10 -11v-238q0 -118 93 -118q42 0 69.5 34t30.5 99z" />
    <glyph glyph-name="paragraph" unicode="&#xb6;" horiz-adv-x="580" 
d="M398 572h-82v-608q0 -12 -11 -12h-83q-12 0 -12 12v363q-82 0 -132.5 50.5t-50.5 132.5t50.5 132.5t132.5 50.5h38q2 1 3 0h290q11 0 11 -11v-98q0 -12 -11 -12h-37v-608q0 -12 -11 -12h-82q-13 0 -13 13v607z" />
    <glyph glyph-name="middot" unicode="&#xb7;" horiz-adv-x="211" 
d="M17 279q0 41 24.5 65.5t64.5 24.5t64.5 -25t24.5 -65t-24.5 -65t-64.5 -25t-64.5 25t-24.5 65z" />
    <glyph glyph-name="cedilla" unicode="&#xb8;" horiz-adv-x="297" 
d="M102 0h101l-16 -37q43 -5 65 -25.5t21 -58.5q-1 -46 -35 -71.5t-88 -25.5q-70 0 -122 38q-7 5 -2 13l22 37q5 5 13 2q42 -17 76 -17q19 0 30.5 8t11.5 21q0 28 -51 28h-54q-10 0 -6 9z" />
    <glyph glyph-name="onesuperior" unicode="&#xb9;" horiz-adv-x="216" 
d="M23 694h146q12 0 12 -12v-416q0 -13 -12 -13h-90q-13 0 -13 13v322h-41q-11 0 -13 12v82q0 12 11 12z" />
    <glyph glyph-name="ordmasculine" unicode="&#xba;" horiz-adv-x="391" 
d="M21 537q0 78 48 126.5t126 48.5q79 0 127 -48t48 -127t-48 -127.5t-127 -48.5q-78 0 -126 48.5t-48 127.5zM130 537q0 -30 18 -48.5t47 -18.5t47 18.5t18 48.5q0 29 -18 47t-47 18t-47 -18t-18 -47z" />
    <glyph glyph-name="guillemotright" unicode="&#xbb;" horiz-adv-x="516" 
d="M267 275v-18q0 -12 -8 -20l-148 -155q-9 -11 -20 0l-56 55q-12 11 -1 19l108 110l-108 110q-9 9 1 19l56 55q11 11 20 0l148 -155q8 -8 8 -20zM254 395l55 55q11 10 21 0l148 -155q8 -8 8 -20v-18q0 -12 -8 -20l-148 -155q-10 -10 -21 0l-55 55q-12 11 -1 19l107 110
l-107 110q-9 9 1 19z" />
    <glyph glyph-name="onequarter" unicode="&#xbc;" horiz-adv-x="824" 
d="M788 154v-66q1 -10 -9 -10h-39v-65q0 -13 -11 -13h-93q-11 0 -11 12v66h-199q-21 0 -12 18l175 335q4 10 15 8h125q10 0 11 -10v-266h38q10 0 10 -9zM134 14l396 701q3 7 14 7h105q6 0 9 -3.5t1 -7.5l-397 -704q-4 -7 -14 -7h-105q-17 0 -9 14zM89 266v322h-41
q-12 0 -12 12l-1 82q0 12 12 12h146q11 0 11 -12l1 -416q0 -13 -13 -13h-90q-13 0 -13 13zM543 163h82v157z" />
    <glyph glyph-name="onehalf" unicode="&#xbd;" horiz-adv-x="827" 
d="M134 14l396 701q3 7 14 7h105q15 0 10 -12l-397 -703q-4 -7 -14 -7h-104q-18 0 -10 14zM47 694h146q11 0 11 -12l1 -416q0 -13 -13 -13h-89q-14 0 -14 13v322h-41q-12 0 -12 12v82q0 12 11 12zM758 207l-6 -11l-63 -92h88q9 0 9 -9v-84q2 -11 -9 -11h-261q-22 1 -11 22
l54 84q34 52 69 100l30 44q28 47 26 64q0 13 -9.5 21.5t-24.5 8.5q-32 0 -58 -29q-6 -7 -13 0l-54 63q-5 6 0 11q52 61 138 61q60 0 94.5 -35t34.5 -93q0 -25 -9 -59q-1 -7 -8 -23q-6 -15 -17 -33z" />
    <glyph glyph-name="threequarters" unicode="&#xbe;" horiz-adv-x="928" 
d="M229 15l394 699q6 8 17 8h103q6 0 9 -3.5t1 -7.5l-396 -703q-6 -8 -16 -8h-103q-18 0 -9 15zM148 455v60q0 10 10 10h25q40 1 40 44q0 16 -10.5 26.5t-26.5 10.5q-32 0 -60 -27q-6 -8 -11 0l-47 56q-4 7 0 12q47 56 131 56q60 0 97.5 -33.5t37.5 -85.5q0 -60 -40 -100
q54 -32 54 -105q0 -60 -42.5 -97.5t-111.5 -37.5q-67 0 -109 38.5t-45 100.5q-1 10 9 10h87q8 0 8 -8q0 -22 24.5 -31t47.5 2.5t20 39.5q0 46 -45 49h-33q-11 0 -10 10zM892 154v-66q0 -10 -10 -10h-38v-65q0 -13 -12 -13h-92q-12 0 -11 12v66h-199q-21 0 -12 18l175 335
q4 10 15 8h125q10 0 11 -10v-266h38q10 0 10 -9zM647 163h82v157z" />
    <glyph glyph-name="questiondown" unicode="&#xbf;" horiz-adv-x="473" 
d="M192 482q1 10 11 10h119q10 0 10 -10q-4 -89 -60 -146q-10 -11 -33 -34t-34.5 -35.5t-22 -32t-10.5 -37.5q1 -37 22.5 -56.5t58.5 -20.5q57 0 107 63q6 8 14 0l75 -84q7 -6 0 -15q-78 -94 -206 -94q-86 0 -147 52q-60 52 -60 135q0 89 53 146q7 7 32 32.5t35.5 38.5
t22.5 37.5t13 50.5zM260 550q-34 0 -55 21t-21 55q0 35 21 56t55 21t55 -22q22 -21 22 -55t-21 -55t-56 -21z" />
    <glyph glyph-name="Agrave" unicode="&#xc0;" horiz-adv-x="670" 
d="M532 7l-63 164h-268l-63 -164q-3 -7 -11 -7h-117q-11 0 -8 11l259 673q3 9 14 9h120q11 0 14 -9l258 -673q5 -11 -7 -11h-118q-9 0 -10 7zM425 287l-90 235l-90 -235h180zM407 706l-192 93q-11 6 -3 14l47 79q6 10 16 3l170 -130q8 -6 3 -14l-26 -42q-4 -7 -15 -3z" />
    <glyph glyph-name="Aacute" unicode="&#xc1;" horiz-adv-x="670" 
d="M532 7l-63 164h-268l-63 -164q-3 -7 -11 -7h-117q-11 0 -8 11l259 673q3 9 14 9h120q11 0 14 -9l258 -673q5 -11 -7 -11h-118q-9 0 -10 7zM425 287l-90 235l-90 -235h180zM419 894l47 -78q6 -11 -4 -15l-192 -93q-10 -4 -15 3l-26 43q-4 7 3 13l171 130q9 7 16 -3z" />
    <glyph glyph-name="Acircumflex" unicode="&#xc2;" horiz-adv-x="670" 
d="M532 7l-63 164h-268l-63 -164q-3 -7 -11 -7h-117q-11 0 -8 11l259 673q3 9 14 9h120q11 0 14 -9l258 -673q5 -11 -7 -11h-118q-9 0 -10 7zM425 287l-90 235l-90 -235h180zM384 749l-49 45l-50 -45q-8 -5 -12 -5h-102q-13 0 -4 9l112 104q11 6 14 6h83q6 0 14 -6l112 -104
q5 -4 3.5 -6.5t-7.5 -2.5h-101q-5 0 -13 5z" />
    <glyph glyph-name="Atilde" unicode="&#xc3;" horiz-adv-x="670" 
d="M532 7l-63 164h-268l-63 -164q-3 -7 -11 -7h-117q-11 0 -8 11l259 673q3 9 14 9h120q11 0 14 -9l258 -673q5 -11 -7 -11h-118q-9 0 -10 7zM425 287l-90 235l-90 -235h180zM230 744q-4 -14 -14 -4l-32 35q-8 5 -4 10q14 41 42 66.5t56 25.5q22 0 40 -11.5t28 -25t23.5 -25
t28.5 -11.5q34 0 51 47q4 12 12 4l35 -36q4 -4 3 -10q-12 -41 -40 -66t-58 -25q-28 0 -49 18t-37.5 36.5t-33.5 18.5q-35 -2 -51 -47z" />
    <glyph glyph-name="Adieresis" unicode="&#xc4;" horiz-adv-x="670" 
d="M532 7l-63 164h-268l-63 -164q-3 -7 -11 -7h-117q-11 0 -8 11l259 673q3 9 14 9h120q11 0 14 -9l258 -673q5 -11 -7 -11h-118q-9 0 -10 7zM425 287l-90 235l-90 -235h180zM190 789q0 30 18 48t47 18t47 -19q18 -18 18 -47t-18 -47t-47 -18q-30 0 -48 18t-17 47zM348 789
q0 30 18 48t47 18t46.5 -18.5t17.5 -47.5t-17.5 -47t-46.5 -18t-47 18t-18 47z" />
    <glyph glyph-name="Aring" unicode="&#xc5;" horiz-adv-x="670" 
d="M532 7l-63 164h-268l-63 -164q-3 -7 -11 -7h-117q-11 0 -8 11l259 673q3 9 14 9h120q11 0 14 -9l258 -673q5 -11 -7 -11h-118q-9 0 -10 7zM425 287l-90 235l-90 -235h180zM260 735q-26 28 -26 70q0 43 26 69t69 26t69 -26q27 -26 27 -69t-27 -70q-26 -26 -69 -26t-69 26z
M290 805q0 -18 11 -29t28 -11q18 0 29 11t11 29q0 17 -11 28t-29 11q-17 0 -28 -11t-11 -28z" />
    <glyph glyph-name="AE" unicode="&#xc6;" horiz-adv-x="824" 
d="M133 0h-120q-18 0 -11 16l356 669q4 9 15 9h392q12 0 12 -13v-96q0 -13 -12 -13h-184v-159h138q10 0 10 -11v-99q0 -10 -10 -11h-138l-1 -169h196q10 -1 10 -11v-101q0 -11 -9 -11h-323q-10 1 -10 11v163h-211l-86 -166q-3 -8 -14 -8zM444 582l-151 -291h151v291z" />
    <glyph glyph-name="Ccedilla" unicode="&#xc7;" horiz-adv-x="668" 
d="M638 82q-98 -92 -250 -92q-159 0 -257 98q-97 98 -97 258q0 85 29.5 154.5t80.5 113.5q106 89 244 89q147 2 248 -93q6 -6 0 -13l-66 -90q-5 -9 -14 0q-70 61 -168 61q-97 1 -158 -61q-59 -62 -59 -161q0 -98 60 -160q60 -61 157 -61q94 0 168 62q8 8 14 0l67 -91
q7 -8 1 -14zM349 0h96l-15 -35q40 -5 61.5 -25t20.5 -55q-1 -43 -34 -67.5t-83 -24.5q-67 0 -116 36q-8 6 -2 12l21 36q4 4 12 1q44 -16 72 -16q18 0 29 8t11 20q0 26 -48 26h-51q-11 0 -6 9z" />
    <glyph glyph-name="Egrave" unicode="&#xc8;" horiz-adv-x="532" 
d="M427 290h-221v-160h278q10 0 10 -10v-111q0 -9 -9 -9h-406q-10 0 -10 10v674q0 10 10 10h395q10 0 10 -10v-111q0 -9 -9 -9h-269v-146h221q10 0 10 -10v-108q0 -10 -10 -10zM323 706l-192 93q-12 6 -4 14l47 79q5 11 17 3l170 -130q6 -7 2 -14l-25 -42q-6 -7 -15 -3z" />
    <glyph glyph-name="Eacute" unicode="&#xc9;" horiz-adv-x="532" 
d="M427 290h-221v-160h278q10 0 10 -10v-111q0 -9 -9 -9h-406q-10 0 -10 10v674q0 10 10 10h395q10 0 10 -10v-111q0 -9 -9 -9h-269v-146h221q10 0 10 -10v-108q0 -10 -10 -10zM380 894l47 -78q6 -11 -4 -15l-192 -93q-11 -4 -15 3l-26 43q-4 7 3 13l171 130q9 7 16 -3z" />
    <glyph glyph-name="Ecircumflex" unicode="&#xca;" horiz-adv-x="532" 
d="M427 290h-221v-160h278q10 0 10 -10v-111q0 -9 -9 -9h-406q-10 0 -10 10v674q0 10 10 10h395q10 0 10 -10v-111q0 -9 -9 -9h-269v-146h221q10 0 10 -10v-108q0 -10 -10 -10zM331 744l-50 44l-50 -44q-8 -5 -12 -5h-102q-13 0 -4 9l112 103q8 7 14 7h83q10 0 14 -7
l112 -103q5 -4 3.5 -6.5t-6.5 -2.5h-102q-7 0 -12 5z" />
    <glyph glyph-name="Edieresis" unicode="&#xcb;" horiz-adv-x="532" 
d="M427 290h-221v-160h278q10 0 10 -10v-111q0 -9 -9 -9h-406q-10 0 -10 10v674q0 10 10 10h395q10 0 10 -10v-111q0 -9 -9 -9h-269v-146h221q10 0 10 -10v-108q0 -10 -10 -10zM199 857q27 1 44 -16t17 -45t-17 -45t-44 -17q-28 0 -45 17t-17 45t17 44.5t45 16.5zM349 857
q28 1 45 -16t17 -45t-17.5 -45t-44.5 -17q-28 0 -45 17t-17 45t17 44.5t45 16.5z" />
    <glyph glyph-name="Igrave" unicode="&#xcc;" horiz-adv-x="275" 
d="M206 684v-675q0 -9 -10 -9h-117q-10 0 -10 9v675q0 10 10 10h117q10 0 10 -10zM203 706l-192 93q-11 6 -3 14l47 79q6 10 16 3l170 -130q8 -6 3 -14l-25 -42q-6 -7 -16 -3z" />
    <glyph glyph-name="Iacute" unicode="&#xcd;" horiz-adv-x="275" 
d="M206 684v-675q0 -9 -10 -9h-117q-10 0 -10 9v675q0 10 10 10h117q10 0 10 -10zM221 894l47 -78q6 -11 -4 -15l-192 -93q-10 -4 -15 3l-26 43q-4 7 3 13l171 130q9 7 16 -3z" />
    <glyph glyph-name="Icircumflex" unicode="&#xce;" horiz-adv-x="275" 
d="M207 684v-675q0 -9 -10 -9h-117q-10 0 -10 9v675q0 10 10 10h117q10 0 10 -10zM79 846l18 21h85q6 0 13 -6l118 -110q5 -3 3.5 -6t-7.5 -3h-107q-6 0 -13 6zM-40 751l118 110q10 6 14 6h85l18 -21l-110 -98q-11 -6 -13 -6h-108q-5 0 -6.5 3t2.5 6z" />
    <glyph glyph-name="Idieresis" unicode="&#xcf;" horiz-adv-x="275" 
d="M206 684v-675q0 -9 -10 -9h-117q-10 0 -10 9v675q0 10 10 10h117q10 0 10 -10zM-7 797q0 30 18 48t47 18q28 0 46 -18.5t18 -47.5t-18 -47t-46 -18q-30 0 -48 18t-17 47zM151 797q0 30 17.5 48t46.5 18t47 -18.5t18 -47.5t-18 -47t-47 -18t-46.5 18t-17.5 47z" />
    <glyph glyph-name="Eth" unicode="&#xd0;" horiz-adv-x="680" 
d="M291 0h-212q-10 0 -10 10v300h-46q-10 0 -10 10v46q0 10 10 10h46v308q0 10 10 10h212q161 0 258 -94q98 -95 98 -253q0 -160 -97 -254q-98 -93 -259 -93zM206 310v-180h86q98 0 159 59q60 59 60 158t-60 158q-60 60 -160 59l-85 1v-189h122q10 0 10 -10v-46
q0 -10 -10 -10h-122z" />
    <glyph glyph-name="Ntilde" unicode="&#xd1;" horiz-adv-x="720" 
d="M524 694h117q10 0 10 -10v-674q0 -10 -10 -10h-134q-7 0 -11 6l-290 462v-458q0 -10 -10 -10h-117q-10 0 -10 10l1 674q0 10 10 10h134q8 0 12 -7l288 -460l1 457q0 10 9 10zM248 743q-1 -5 -4.5 -6.5t-7.5 2.5l-33 35q-6 6 -4 12q14 41 42 66t57 25q23 0 41 -11.5
t28 -25t23.5 -25t28.5 -11.5q33 1 52 47q4 12 12 4l35 -36q6 -4 3 -10q-12 -41 -40.5 -66.5t-59.5 -25.5q-28 0 -48.5 18.5t-37 37t-34.5 18.5q-33 -1 -53 -48z" />
    <glyph glyph-name="Ograve" unicode="&#xd2;" horiz-adv-x="780" 
d="M391 -9q-161 0 -259 98t-98 258t98 258q100 98 259 98t257 -98t98 -258t-98 -258t-257 -98zM391 127q98 0 158 60q61 61 61 160t-61 159q-60 61 -158 61q-99 0 -160 -61q-60 -60 -60 -159t60 -160q60 -60 160 -60zM438 714l-191 93q-12 6 -4 14l47 79q6 10 16 3l170 -130
q8 -6 3 -14l-25 -42q-6 -7 -16 -3z" />
    <glyph glyph-name="Oacute" unicode="&#xd3;" horiz-adv-x="780" 
d="M391 -9q-161 0 -259 98t-98 258t98 258q100 98 259 98t257 -98t98 -258t-98 -258t-257 -98zM391 127q98 0 158 60q61 61 61 160t-61 159q-60 61 -158 61q-99 0 -160 -61q-60 -60 -60 -159t60 -160q60 -60 160 -60zM483 894l47 -78q6 -11 -4 -15l-192 -93q-10 -4 -15 3
l-26 43q-4 7 3 13l171 130q9 7 16 -3z" />
    <glyph glyph-name="Ocircumflex" unicode="&#xd4;" horiz-adv-x="780" 
d="M133 89q-98 98 -98 258t98 258t258 98q159 0 257 -98t98 -258t-98 -258t-257 -98q-160 0 -258 98zM170 347q0 -99 60 -160q62 -60 161 -60t159 60q61 61 61 160t-61 160q-60 61 -159 61q-100 0 -161 -61q-60 -60 -60 -160zM434 747l-49 45l-51 -45q-5 -4 -11 -4h-103
q-11 0 -3 8l112 104q6 6 14 6h83q8 0 14 -6l112 -104q11 -8 -4 -8h-102q-5 0 -12 4z" />
    <glyph glyph-name="Otilde" unicode="&#xd5;" horiz-adv-x="780" 
d="M391 -9q-161 0 -259 98t-98 258t98 258q100 98 259 98t257 -98t98 -258t-98 -258t-257 -98zM391 127q98 0 158 60q61 61 61 160t-61 159q-60 61 -158 61q-99 0 -160 -61q-60 -60 -60 -159t60 -160q60 -60 160 -60zM280 743q-1 -5 -4.5 -6.5t-7.5 2.5l-33 35q-6 6 -4 12
q14 41 42 66t57 25q23 0 41 -11.5t27.5 -25t23 -25t28.5 -11.5q34 1 53 47q4 12 12 4l35 -36q6 -4 3 -10q-12 -41 -40.5 -66.5t-59.5 -25.5q-28 0 -48.5 18.5t-37 37t-34.5 18.5q-33 -1 -53 -48z" />
    <glyph glyph-name="Odieresis" unicode="&#xd6;" horiz-adv-x="780" 
d="M391 -9q-161 0 -259 98t-98 258t98 258q100 98 259 98t257 -98t98 -258t-98 -258t-257 -98zM391 127q98 0 158 60q61 61 61 160t-61 159q-60 61 -158 61q-99 0 -160 -61q-60 -60 -60 -159t60 -160q60 -60 160 -60zM246 797q0 30 18 48t47 18q28 0 46 -18.5t18 -47.5
t-18 -47t-46 -18q-30 0 -48 18t-17 47zM404 797q0 30 17.5 48t46.5 18t47 -18.5t18 -47.5t-18 -47t-47 -18t-46.5 18t-17.5 47z" />
    <glyph glyph-name="multiply" unicode="&#xd7;" horiz-adv-x="471" 
d="M154 321l-106 106q-7 7 0 14l66 66q7 8 14 0l106 -106l107 108q8 6 14 0l69 -69q8 -6 0 -14l-107 -108l106 -106q8 -5 0 -14l-66 -66q-7 -7 -14 0l-106 106l-108 -107q-8 -8 -14 0l-69 69q-7 7 0 14z" />
    <glyph glyph-name="Oslash" unicode="&#xd8;" horiz-adv-x="772" 
d="M391 -9q-161 0 -259 98t-98 258t98 258q100 98 259 98t257 -98t98 -258t-98 -258t-257 -98zM391 127q98 0 158 60q61 61 61 160t-61 159q-60 61 -158 61q-99 0 -160 -61q-60 -60 -60 -159t60 -160q60 -60 160 -60zM66 23l604 674q6 8 15 1l30 -27q7 -7 0 -14l-604 -675
q-7 -7 -14 0l-30 27q-7 6 -1 14z" />
    <glyph glyph-name="Ugrave" unicode="&#xd9;" horiz-adv-x="675" 
d="M66 272v412q0 9 10 9h118q9 0 9 -9v-413q0 -66 37 -105t98 -39t97.5 39t35.5 105v413q0 9 10 9h118q9 0 9 -9v-413q0 -133 -78 -207q-76 -73 -192 -73q-114 0 -194 74q-78 73 -78 207zM371 706l-192 93q-11 6 -3 14l47 79q6 10 16 3l170 -130q8 -6 3 -14l-26 -42
q-4 -7 -15 -3z" />
    <glyph glyph-name="Uacute" unicode="&#xda;" horiz-adv-x="675" 
d="M66 272v412q0 9 10 9h118q9 0 9 -9v-413q0 -66 37 -105t98 -39t97.5 39t35.5 105v413q0 9 10 9h118q9 0 9 -9v-413q0 -133 -78 -207q-76 -73 -192 -73q-114 0 -194 74q-78 73 -78 207zM421 894l47 -78q6 -11 -4 -15l-192 -93q-10 -4 -15 3l-26 43q-4 7 3 13l171 130
q9 7 16 -3z" />
    <glyph glyph-name="Ucircumflex" unicode="&#xdb;" horiz-adv-x="675" 
d="M66 272v412q0 10 10 10h117q9 0 9 -10v-413q0 -66 37 -105t98 -39q62 0 98.5 38.5t35.5 105.5v413q0 10 10 10h117q10 0 10 -10v-413q0 -133 -78 -207q-77 -73 -193 -73q-114 0 -193 74q-78 73 -78 207zM387 747l-49 45l-51 -45q-7 -4 -11 -4h-103q-10 0 -4 8l113 104
q6 6 14 6h82q9 0 15 -6l112 -104q11 -8 -4 -8h-102q-5 0 -12 4z" />
    <glyph glyph-name="Udieresis" unicode="&#xdc;" horiz-adv-x="675" 
d="M66 272v412q0 9 10 9h118q9 0 9 -9v-413q0 -66 37 -105t98 -39t97.5 39t35.5 105v413q0 9 10 9h118q9 0 9 -9v-413q0 -133 -78 -207q-76 -73 -192 -73q-114 0 -194 74q-78 73 -78 207zM194 797q0 30 18 48t47 18q28 0 46 -18.5t18 -47.5t-18 -47t-46 -18q-30 0 -48 18
t-17 47zM352 797q0 30 17.5 48t46.5 18t47 -18.5t18 -47.5t-18 -47t-47 -18t-46.5 18t-17.5 47z" />
    <glyph glyph-name="Yacute" unicode="&#xdd;" horiz-adv-x="619" 
d="M241 9v267l-238 405q-8 12 7 12h124q8 0 13 -8l163 -289l163 289q3 8 13 8h123q15 0 7 -12l-239 -404v-268q1 -9 -9 -9h-117q-10 0 -10 9zM394 894l47 -78q6 -11 -4 -15l-192 -93q-11 -4 -15 3l-26 43q-4 7 3 13l171 130q9 7 16 -3z" />
    <glyph glyph-name="Thorn" unicode="&#xde;" horiz-adv-x="551" 
d="M60 11v671q0 12 12 12h114q11 0 11 -11v-119h98q102 0 162 -61q59 -59 61 -156q-2 -96 -61 -157q-59 -59 -162 -61h-98v-118q0 -11 -12 -11h-114q-11 0 -11 11zM281 434h-84v-174h84q45 0 72.5 21.5t27.5 64.5q0 44 -27.5 66.5t-72.5 21.5z" />
    <glyph glyph-name="germandbls" unicode="&#xdf;" horiz-adv-x="585" 
d="M307 127q26 -17 52 -17q26 1 40.5 14t14.5 30q0 40 -72 98q-72 62 -72 130q0 34 38 81q39 46 39 67q0 53 -55 53q-47 0 -67 -46.5t-21 -146.5v-379q0 -11 -12 -11h-113q-12 0 -12 12v464q0 107 60 167.5t161 61.5q84 -1 140 -48q55 -46 55 -127q2 -29 -19.5 -57.5
t-44.5 -52.5t-24 -41q0 -15 16 -30t39 -31t46 -35.5t39 -52.5t16 -74q1 -81 -53 -132t-141 -51q-50 0 -101 27q-9 3 -5 16l42 107q4 9 14 4z" />
    <glyph glyph-name="agrave" unicode="&#xe0;" horiz-adv-x="590" 
d="M408 421l16 48q4 10 11 9h91q10 0 10 -10v-458q-1 -10 -11 -10h-91q-8 0 -11 10l-15 46q-51 -67 -140 -67q-108 -1 -174 68q-66 71 -66 181q0 111 66 179q66 69 174 69q89 2 140 -65zM157 238q0 -53 33 -86t85 -33q54 0 87 32.5t34 86.5q-1 54 -34.5 86.5t-86.5 32.5
t-85.5 -32.5t-32.5 -86.5zM316 512l-175 116q-10 7 -2 14l57 71q7 8 17 1l148 -150q7 -6 1 -12l-32 -39q-7 -7 -14 -1z" />
    <glyph glyph-name="aacute" unicode="&#xe1;" horiz-adv-x="590" 
d="M408 421l16 48q4 10 11 9h91q10 0 10 -10v-458q-1 -10 -11 -10h-91q-8 0 -11 10l-15 46q-51 -67 -140 -67q-108 -1 -174 68q-66 71 -66 181q0 111 66 179q66 69 174 69q89 2 140 -65zM157 238q0 -53 33 -86t85 -33q54 0 87 32.5t34 86.5q-1 54 -34.5 86.5t-86.5 32.5
t-85.5 -32.5t-32.5 -86.5zM379 715l57 -72q4 -3 3.5 -7.5t-4.5 -6.5l-177 -118q-9 -5 -15 1l-32 40q-5 5 1 13l151 150q7 10 16 0z" />
    <glyph glyph-name="acircumflex" unicode="&#xe2;" horiz-adv-x="590" 
d="M408 421l16 48q4 10 11 9h91q10 0 10 -10v-458q-1 -10 -11 -10h-91q-8 0 -11 10l-15 46q-51 -67 -140 -67q-108 -1 -174 68q-66 71 -66 181q0 111 66 179q66 69 174 69q89 2 140 -65zM157 238q0 -53 33 -86t85 -33q54 0 87 32.5t34 86.5q-1 54 -34.5 86.5t-86.5 32.5
t-85.5 -32.5t-32.5 -86.5zM133 546l95 133q3 5 13 6h88q8 0 14 -6l94 -132q6 -9 -4 -9h-92q-7 0 -12 5l-44 69l-44 -68q-5 -6 -11 -6h-94q-9 0 -3 8z" />
    <glyph glyph-name="atilde" unicode="&#xe3;" horiz-adv-x="590" 
d="M408 421l16 48q4 10 11 9h91q10 0 10 -10v-458q-1 -10 -11 -10h-91q-8 0 -11 10l-15 46q-51 -67 -140 -67q-108 -1 -174 68q-66 71 -66 181q0 111 66 179q66 69 174 69q89 2 140 -65zM157 238q0 -53 33 -86t85 -33q54 0 87 32.5t34 86.5q-1 54 -34.5 86.5t-86.5 32.5
t-85.5 -32.5t-32.5 -86.5zM180 547q-6 -10 -13 -3l-33 34q-3 6 -2 9q12 40 39.5 65t55.5 25q22 0 39 -11.5t26.5 -24.5t23 -24.5t27.5 -11.5q34 2 50 47q3 10 11 4l34 -35q4 -5 3 -9q-12 -40 -39 -64.5t-57 -24.5q-21 0 -38.5 11t-27 24.5t-23 24.5t-27.5 11q-33 -2 -49 -47
z" />
    <glyph glyph-name="adieresis" unicode="&#xe4;" horiz-adv-x="590" 
d="M408 421l16 48q4 10 11 9h91q10 0 10 -10v-458q-1 -10 -11 -10h-91q-8 0 -11 10l-15 46q-51 -67 -140 -67q-108 -1 -174 68q-66 71 -66 181q0 111 66 179q66 69 174 69q89 2 140 -65zM157 238q0 -53 33 -86t85 -33q54 0 87 32.5t34 86.5q-1 54 -34.5 86.5t-86.5 32.5
t-85.5 -32.5t-32.5 -86.5zM210 543q-29 0 -47 18.5t-18 47.5t18 47t47 18t46.5 -18t17.5 -47t-18 -47.5t-46 -18.5zM320 561q-17 19 -17 48t17 47q18 18 47 18t47 -18q19 -18 19 -47t-19 -48q-18 -18 -47 -18t-47 18z" />
    <glyph glyph-name="aring" unicode="&#xe5;" horiz-adv-x="590" 
d="M408 421l16 48q4 10 11 9h91q10 0 10 -10v-458q-1 -10 -11 -10h-91q-8 0 -11 10l-15 46q-51 -67 -140 -67q-108 -1 -174 68q-66 71 -66 181q0 111 66 179q66 69 174 69q89 2 140 -65zM157 238q0 -53 33 -86t85 -33q54 0 87 32.5t34 86.5q-1 54 -34.5 86.5t-86.5 32.5
t-85.5 -32.5t-32.5 -86.5zM384 620q0 -44 -26 -70t-70 -26q-42 0 -70 26q-26 28 -26 70q0 43 26 69q27 27 70 27t69.5 -26.5t26.5 -69.5zM256 620q0 -15 9 -24t23 -9q15 0 24 9t9 24q0 14 -9 23.5t-24 9.5q-14 0 -23 -9.5t-9 -23.5z" />
    <glyph glyph-name="ae" unicode="&#xe6;" horiz-adv-x="928" 
d="M764 143q10 7 17 1l68 -72q7 -8 0 -15q-59 -67 -192 -68q-66 0 -122 29v-10q-2 -8 -10 -8h-91q-8 0 -11 10l-15 46q-51 -67 -140 -67q-108 -1 -174 68q-66 71 -66 181q0 111 66 179q66 69 174 69q89 2 140 -65l16 48q4 10 11 9h91q10 0 10 -9v-11q50 29 117 29
q126 0 186 -80q61 -79 61 -209q0 -10 -11 -10h-344q26 -77 119 -77q62 0 100 32zM275 119q54 0 87 32.5t34 86.5q-1 54 -34.5 86.5t-86.5 32.5t-85.5 -32.5t-32.5 -86.5q0 -53 33 -86t85 -33zM542 282h221q-9 39 -37.5 61t-72.5 22q-91 0 -111 -83z" />
    <glyph glyph-name="ccedilla" unicode="&#xe7;" horiz-adv-x="511" 
d="M478 88q-68 -99 -203 -99q-111 0 -179 69q-68 70 -68 180q0 116 71 181q73 67 172 68q142 3 215 -108q8 -9 0 -14l-84 -68q-9 -9 -16 3q-40 58 -111 58q-53 0 -85.5 -33t-32.5 -87t32.5 -87t85.5 -33q64 0 108 53q10 10 18 2l75 -71q7 -4 2 -14zM215 0h96l-16 -35
q40 -5 61.5 -24.5t20.5 -55.5q-1 -43 -33 -67.5t-84 -24.5q-66 0 -116 36q-6 6 -2 12l21 36q4 4 13 1q41 -16 72 -16q18 0 29 8t11 20q0 26 -49 26h-51q-10 0 -6 9z" />
    <glyph glyph-name="egrave" unicode="&#xe8;" horiz-adv-x="550" 
d="M164 281h221q-9 39 -37.5 61.5t-72.5 22.5t-73 -22t-38 -62zM512 188h-345q26 -77 120 -77q64 0 99 31q11 9 17 1l68 -71q7 -7 1 -15q-62 -67 -193 -68q-112 0 -182 68q-69 69 -69 181q0 110 68 180q68 69 179 69q119 0 183.5 -72.5t63.5 -216.5q0 -5 -3 -8t-7 -2z
M305 511l-175 116q-10 7 -2 14l57 71q7 10 17 1l148 -150q7 -6 1 -12l-32 -39q-7 -7 -14 -1z" />
    <glyph glyph-name="eacute" unicode="&#xe9;" horiz-adv-x="550" 
d="M164 281h221q-9 39 -37.5 61.5t-72.5 22.5t-73 -22t-38 -62zM512 188h-345q26 -77 120 -77q64 0 99 31q11 9 17 1l68 -71q7 -7 1 -15q-62 -67 -193 -68q-112 0 -182 68q-69 69 -69 181q0 110 68 180q68 69 179 69q119 0 183.5 -72.5t63.5 -216.5q0 -5 -3 -8t-7 -2z
M342 714l57 -71q8 -8 -2 -14l-175 -116q-8 -6 -15 1l-32 39q-4 4 1 13l150 148q7 10 16 0z" />
    <glyph glyph-name="ecircumflex" unicode="&#xea;" horiz-adv-x="549" 
d="M164 281h221q-9 39 -37.5 61.5t-72.5 22.5t-73 -22t-38 -62zM512 188h-345q26 -77 120 -77q64 0 99 31q11 9 17 1l68 -71q7 -7 1 -15q-62 -67 -193 -68q-112 0 -182 68q-69 69 -69 181q0 110 68 180q68 69 179 69q119 0 183.5 -72.5t63.5 -216.5q0 -5 -3 -8t-7 -2z
M116 538l95 133q4 6 13 7h89q6 0 13 -7l94 -132q8 -9 -4 -9h-92q-6 0 -11 5l-45 69l-44 -68q-5 -6 -11 -6h-93q-10 0 -4 8z" />
    <glyph glyph-name="edieresis" unicode="&#xeb;" horiz-adv-x="550" 
d="M164 281h221q-9 39 -37.5 61.5t-72.5 22.5t-73 -22t-38 -62zM512 188h-345q26 -77 120 -77q64 0 99 31q11 9 17 1l68 -71q7 -7 1 -15q-62 -67 -193 -68q-112 0 -182 68q-69 69 -69 181q0 110 68 180q68 69 179 69q119 0 183.5 -72.5t63.5 -216.5q0 -5 -3 -8t-7 -2z
M132 607q0 29 17.5 46.5t45.5 17.5t44.5 -17.5t16.5 -46.5q0 -27 -17 -44t-44 -17q-28 0 -45.5 17t-17.5 44zM284 607q0 29 17.5 46.5t45.5 17.5t44.5 -17.5t16.5 -46.5q0 -27 -17 -44t-44 -17q-28 0 -45.5 17t-17.5 44z" />
    <glyph glyph-name="igrave" unicode="&#xec;" horiz-adv-x="241" 
d="M186 469v-459q0 -10 -10 -10h-111q-10 0 -10 10v459q0 10 9 10h112q10 0 10 -10zM175 517l-174 116q-13 6 -2 14l57 71q7 10 17 1l148 -150q7 -7 1 -12l-32 -39q-7 -7 -15 -1z" />
    <glyph glyph-name="iacute" unicode="&#xed;" horiz-adv-x="240" 
d="M186 469v-459q0 -10 -10 -10h-111q-10 0 -10 10v459q0 10 9 10h112q10 0 10 -10zM175 715l59 -72q8 -7 -3 -15l-175 -116q-8 -6 -15 1l-32 40q-6 5 1 13l149 149q9 9 16 0z" />
    <glyph glyph-name="icircumflex" unicode="&#xee;" horiz-adv-x="241" 
d="M186 469v-459q0 -10 -10 -10h-111q-10 0 -10 10v459q0 10 9 10h112q10 0 10 -10zM-37 540l100 140q4 6 14 7h93q7 0 14 -7l99 -139q7 -9 -4 -9h-97q-7 0 -12 5l-47 73l-46 -72q-5 -6 -12 -6h-98q-10 0 -4 8z" />
    <glyph glyph-name="idieresis" unicode="&#xef;" horiz-adv-x="241" 
d="M186 469v-459q0 -10 -10 -10h-111q-10 0 -10 10v459q0 10 9 10h112q10 0 10 -10zM-8 552q-18 18 -18 47t18 47q17 19 46 19t47 -19q18 -18 18 -47t-18 -47t-47 -18t-46 18zM149 552q-18 18 -18 47t18 47q18 19 47 19t47 -19q18 -18 18 -47t-18 -47t-47 -18t-47 18z" />
    <glyph glyph-name="eth" unicode="&#xf0;" horiz-adv-x="539" 
d="M269 -10q-97 0 -162 61q-66 61 -66 156t57 154t151 59q35 0 69 -15q-33 59 -89 107l-94 -48q-5 -4 -11 2l-28 28q-7 7 2 12l83 43q-37 25 -83 49q-8 4 -4 13l51 91q5 8 14 5q83 -29 155 -90l87 44q8 5 13 -2l27 -28q7 -7 -2 -12l-83 -42q68 -74 106 -166t36 -188
q0 -110 -65 -172q-64 -61 -164 -61zM369 211q0 43 -26.5 67t-73.5 24q-44 0 -70.5 -25.5t-26.5 -67.5q0 -41 27 -66t70 -25q41 0 70.5 27t29.5 66z" />
    <glyph glyph-name="ntilde" unicode="&#xf1;" horiz-adv-x="548" 
d="M50 10l-1 458q0 10 11 10h88q10 0 13 -10l11 -46q47 68 143 68q81 0 130 -58q50 -59 50 -156v-266q0 -10 -10 -10h-110q-12 0 -10 10v239q0 51 -24.5 80.5t-64.5 29.5q-41 -1 -67 -33.5t-29 -92.5v-223q0 -9 -10 -9h-110q-10 0 -10 9zM167 566q-6 -12 -12 -4l-32 34
q-5 4 -4 10q12 39 39.5 63t55.5 24q26 0 46 -17.5t35.5 -34.5t32.5 -17q34 2 50 45q4 11 11 4l34 -35q5 -4 3 -9q-12 -39 -39 -63.5t-56 -24.5q-21 0 -38.5 11t-27 24t-23 24t-26.5 11q-33 -2 -49 -45z" />
    <glyph glyph-name="ograve" unicode="&#xf2;" horiz-adv-x="553" 
d="M276 490q112 0 180 -69q69 -69 69 -181t-69 -181q-68 -69 -180 -69q-111 0 -180 69q-68 70 -68 181t68 181q69 69 180 69zM276 120q54 0 86.5 33t32.5 87t-32.5 87t-86.5 33q-53 0 -85.5 -33t-32.5 -87t32.5 -87t85.5 -33zM303 511l-175 116q-10 7 -2 14l57 71q7 10 17 1
l148 -150q7 -6 1 -12l-32 -39q-7 -7 -14 -1z" />
    <glyph glyph-name="oacute" unicode="&#xf3;" horiz-adv-x="553" 
d="M27 240q0 112 68 182q69 69 181 69t181 -69t69 -182q0 -112 -69 -182q-69 -69 -181 -69t-181 69q-68 71 -68 182zM159 240q0 -54 32 -87t85 -32q53 0 86 33t33 86q0 54 -33 87t-86 33t-85.5 -33t-31.5 -87zM340 714l57 -71q9 -7 -2 -15l-174 -116q-8 -5 -16 1l-31 39
q-6 6 1 14l149 148q9 10 16 0z" />
    <glyph glyph-name="ocircumflex" unicode="&#xf4;" horiz-adv-x="553" 
d="M276 490q112 0 180 -69q69 -69 69 -181t-69 -181q-68 -69 -180 -69q-111 0 -180 69q-68 70 -68 181t68 181q69 69 180 69zM276 120q54 0 86.5 33t32.5 87t-32.5 87t-86.5 33q-53 0 -85.5 -33t-32.5 -87t32.5 -87t85.5 -33zM124 550l95 133q4 6 13 7h89q6 0 13 -7l94 -132
q8 -8 -4 -8h-92q-8 0 -11 4l-45 70l-44 -69q-5 -5 -11 -5h-93q-11 0 -4 7z" />
    <glyph glyph-name="otilde" unicode="&#xf5;" horiz-adv-x="553" 
d="M276 490q112 0 180 -69q69 -69 69 -181t-69 -181q-68 -69 -180 -69q-111 0 -180 69q-68 70 -68 181t68 181q69 69 180 69zM276 120q54 0 86.5 33t32.5 87t-32.5 87t-86.5 33q-53 0 -85.5 -33t-32.5 -87t32.5 -87t85.5 -33zM170 552q-5 -12 -14 -4l-32 34q-4 4 -3 10
q12 39 39.5 64t55.5 25q22 0 39.5 -11t27 -24.5t22.5 -24.5t27 -11q35 2 51 47q1 4 4.5 5t6.5 -2l34 -35q4 -4 3 -8q-12 -40 -39 -65t-57 -25q-21 0 -38.5 11.5t-27 24.5t-23 24.5t-27.5 11.5q-34 -1 -49 -47z" />
    <glyph glyph-name="odieresis" unicode="&#xf6;" horiz-adv-x="553" 
d="M276 490q112 0 180 -69q69 -69 69 -181t-69 -181q-68 -69 -180 -69q-111 0 -180 69q-68 70 -68 181t68 181q69 69 180 69zM276 120q54 0 86.5 33t32.5 87t-32.5 87t-86.5 33q-53 0 -85.5 -33t-32.5 -87t32.5 -87t85.5 -33zM149 562q-18 19 -18 48t18 47t47 18t47 -18
t18 -47t-18 -48q-18 -18 -47 -18t-47 18zM307 562q-18 19 -18 48t18 47t47 18t47 -18t18 -47t-18 -48q-18 -18 -47 -18t-47 18z" />
    <glyph glyph-name="divide" unicode="&#xf7;" horiz-adv-x="539" 
d="M270 526q33 0 53.5 -20.5t20.5 -54.5t-20.5 -54.5t-53.5 -20.5q-34 0 -54.5 20.5t-20.5 54.5t20.5 54.5t54.5 20.5zM195 133q0 34 20.5 55t54.5 21q33 0 53.5 -21t20.5 -55q0 -33 -20.5 -54t-53.5 -21q-34 0 -54.5 21t-20.5 54zM44 247v86q0 10 10 10h431q10 0 10 -10
v-86q0 -10 -10 -10h-431q-10 0 -10 10z" />
    <glyph glyph-name="oslash" unicode="&#xf8;" horiz-adv-x="553" 
d="M426 446l30 34q7 7 15 1l30 -27q7 -8 1 -14l-31 -35q54 -67 54 -165q0 -112 -69 -181q-68 -69 -180 -69q-82 0 -143 39l-46 -51q-7 -7 -14 0l-30 27q-7 6 -1 14l45 50q-59 68 -59 171q0 111 68 181q69 69 180 69q86 0 150 -44zM379 304l-155 -173q25 -11 52 -11
q54 0 86.5 33t32.5 87q0 39 -16 64zM177 170l159 176q-26 14 -60 14q-53 0 -85.5 -33t-32.5 -87q0 -41 19 -70z" />
    <glyph glyph-name="ugrave" unicode="&#xf9;" horiz-adv-x="559" 
d="M393 10l-10 45q-58 -67 -156 -67q-79 0 -127 58t-48 156l-1 265q0 11 10 11h111q10 0 10 -11v-238q0 -118 93 -118q42 0 69 33.5t31 99.5v223q0 11 10 11h110q10 0 10 -10v-458q0 -10 -10 -10h-89q-10 0 -13 10zM300 509l-175 116q-10 6 -2 14l57 71q7 9 18 1l148 -150
q6 -7 1 -12l-33 -39q-7 -8 -14 -1z" />
    <glyph glyph-name="uacute" unicode="&#xfa;" horiz-adv-x="559" 
d="M393 10l-10 45q-58 -67 -156 -67q-79 0 -127 58t-48 156l-1 265q0 11 10 11h111q10 0 10 -11v-238q0 -118 93 -118q42 0 69 33.5t31 99.5v223q0 11 10 11h110q10 0 10 -10v-458q0 -10 -10 -10h-89q-10 0 -13 10zM368 715l57 -71q7 -7 -1 -14l-175 -116q-9 -7 -15 1
l-32 39q-5 5 1 13l149 148q9 10 16 0z" />
    <glyph glyph-name="ucircumflex" unicode="&#xfb;" horiz-adv-x="559" 
d="M393 10l-10 45q-58 -67 -156 -67q-79 0 -127 58t-48 156l-1 265q0 11 10 11h111q10 0 10 -11v-238q0 -118 93 -118q42 0 69 33.5t31 99.5v223q0 11 10 11h110q10 0 10 -10v-458q0 -10 -10 -10h-89q-10 0 -13 10zM121 542l99 139q4 6 14 7h92q7 0 14 -7l98 -138
q7 -9 -4 -9h-96q-7 0 -12 5l-47 72l-45 -71q-4 -6 -12 -6h-97q-10 0 -4 8z" />
    <glyph glyph-name="udieresis" unicode="&#xfc;" horiz-adv-x="559" 
d="M393 10l-10 45q-58 -67 -156 -67q-79 0 -127 58t-48 156l-1 265q0 11 10 11h111q10 0 10 -11v-238q0 -118 93 -118q42 0 69 33.5t31 99.5v223q0 11 10 11h110q10 0 10 -10v-458q0 -10 -10 -10h-89q-10 0 -13 10zM201 665q28 0 46 -18.5t18 -47.5t-17.5 -47t-46.5 -18
t-47 18t-18 47t18 47.5t47 18.5zM312 552q-18 18 -18 47t18 47q18 19 47 19t47 -19q18 -18 18 -47t-18 -47t-47 -18t-47 18z" />
    <glyph glyph-name="yacute" unicode="&#xfd;" horiz-adv-x="505" 
d="M379 478h114q15 0 8 -13l-267 -684q-4 -9 -14 -9h-113q-14 0 -8 13l85 219l-181 461q-4 13 7 13h118q9 0 12 -9l106 -305l120 305q3 9 13 9zM339 702l57 -71q9 -7 -2 -15l-175 -115q-6 -6 -15 0l-31 39q-7 6 1 14l149 148q8 11 16 0z" />
    <glyph glyph-name="thorn" unicode="&#xfe;" horiz-adv-x="578" 
d="M63 722h105q10 0 10 -10v-276q48 53 128 53q109 0 175 -69t66 -181t-66 -181t-175 -69q-80 0 -128 53v-260q0 -10 -10 -10h-105q-10 0 -10 10v930q0 10 10 10zM417 239q0 53 -33 86.5t-85 33.5q-54 0 -87.5 -32.5t-33.5 -86.5q0 -55 33.5 -88t87.5 -33q53 0 85.5 33
t32.5 87z" />
    <glyph glyph-name="ydieresis" unicode="&#xff;" horiz-adv-x="505" 
d="M379 478h114q15 0 8 -13l-267 -684q-4 -9 -14 -9h-113q-14 0 -8 13l85 219l-181 461q-4 13 7 13h118q9 0 12 -9l106 -305l120 305q3 9 13 9zM92 542q-17 19 -17 48t17 47q18 18 47 18t47 -18t18 -47t-18 -48q-18 -18 -47 -18t-47 18zM250 542q-18 19 -18 48t18 47t47 18
t47 -18q19 -18 19 -47t-19 -48q-18 -18 -47 -18t-47 18z" />
    <glyph glyph-name="Amacron" unicode="&#x100;" horiz-adv-x="670" 
d="M532 7l-63 164h-268l-63 -164q-3 -7 -11 -7h-117q-11 0 -8 11l259 673q3 9 14 9h121q10 0 13 -9l258 -673q5 -11 -7 -11h-118q-9 0 -10 7zM425 287l-90 235l-90 -235h180zM207 835h258q9 0 9 -10v-70q0 -9 -9 -9h-258q-10 0 -10 9v70q0 10 10 10z" />
    <glyph glyph-name="amacron" unicode="&#x101;" horiz-adv-x="590" 
d="M408 421l16 48q4 10 11 9h91q10 0 10 -10v-458q-1 -10 -11 -10h-91q-8 0 -11 10l-15 46q-51 -67 -140 -67q-108 -1 -174 68q-66 71 -66 181q0 111 66 179q66 69 174 69q89 2 140 -65zM157 238q0 -53 33 -86t85 -33q54 0 87 32.5t34 86.5q-1 54 -34.5 86.5t-86.5 32.5
t-85.5 -32.5t-32.5 -86.5zM158 668h253q13 -1 13 -12v-69q0 -12 -13 -12h-253q-12 0 -12 11v70q0 12 12 12z" />
    <glyph glyph-name="Abreve" unicode="&#x102;" horiz-adv-x="670" 
d="M532 7l-63 164h-268l-63 -164q-3 -7 -11 -7h-117q-11 0 -8 11l259 673q3 9 14 9h121q10 0 13 -9l258 -673q5 -11 -7 -11h-118q-9 0 -10 7zM425 287l-90 235l-90 -235h180zM407 858l64 1q9 0 9 -9q-2 -62 -40.5 -95t-104.5 -33q-65 0 -103.5 33.5t-41.5 94.5q0 9 10 9h64
q8 0 10 -9q2 -21 19.5 -34.5t41.5 -13.5q25 0 42.5 14t19.5 34q2 8 10 8z" />
    <glyph glyph-name="abreve" unicode="&#x103;" horiz-adv-x="590" 
d="M408 421l16 48q4 10 11 9h91q10 0 10 -10v-458q-1 -10 -11 -10h-91q-8 0 -11 10l-15 46q-51 -67 -140 -67q-108 -1 -174 68q-66 71 -66 181q0 111 66 179q66 69 174 69q89 2 140 -65zM157 238q0 -53 33 -86t85 -33q54 0 87 32.5t34 86.5q-1 54 -34.5 86.5t-86.5 32.5
t-85.5 -32.5t-32.5 -86.5zM353 685h65q8 0 8 -10q-2 -65 -41.5 -104.5t-103.5 -39.5q-63 0 -102.5 39.5t-41.5 104.5q0 10 9 10h65q8 0 8 -10q4 -26 20.5 -42.5t41.5 -16.5q26 0 43 16t20 43q1 10 9 10z" />
    <glyph glyph-name="Aogonek" unicode="&#x104;" horiz-adv-x="688" 
d="M532 7l-63 164h-268l-63 -164q-3 -7 -11 -7h-117q-11 0 -8 11l259 673q3 9 14 9h121q10 0 13 -9l258 -673q5 -11 -7 -11h-118q-9 0 -10 7zM425 287l-90 235l-90 -235h180zM692 -177q-13 -17 -39.5 -27.5t-54.5 -10.5q-53 0 -81.5 26.5t-29.5 72.5q0 73 132 166l42 -50
q-57 -57 -70 -80q-20 -32 4 -48q9 -7 21.5 -6t21.5 11q4 6 9 1l45 -43q4 -5 0 -12z" />
    <glyph glyph-name="aogonek" unicode="&#x105;" horiz-adv-x="590" 
d="M408 421l16 48q4 10 11 9h91q10 0 10 -10v-458q-1 -10 -11 -10h-91q-8 0 -11 10l-15 46q-51 -67 -140 -67q-108 -1 -174 68q-66 71 -66 181q0 111 66 179q66 69 174 69q89 2 140 -65zM157 238q0 -53 33 -86t85 -33q54 0 87 32.5t34 86.5q-1 54 -34.5 86.5t-86.5 32.5
t-85.5 -32.5t-32.5 -86.5zM564 -172q-13 -17 -39.5 -27.5t-54.5 -10.5q-52 0 -80.5 26.5t-29.5 72.5q0 71 131 166l43 -50q-56 -56 -71 -80q-19 -31 4 -49q23 -15 43 6q4 6 9 1l45 -44q4 -4 0 -11z" />
    <glyph glyph-name="Cacute" unicode="&#x106;" horiz-adv-x="668" 
d="M638 82q-98 -92 -250 -92q-159 0 -257 98q-97 98 -97 258q0 85 29.5 154.5t80.5 113.5q106 89 244 89q147 2 248 -93q6 -6 0 -13l-66 -90q-5 -9 -14 0q-70 61 -168 61q-97 1 -158 -61q-59 -62 -59 -161q0 -98 60 -160q60 -61 157 -61q94 0 168 62q8 8 14 0l67 -91
q7 -8 1 -14zM449 894l47 -78q6 -11 -4 -15l-192 -93q-10 -4 -15 3l-26 43q-4 7 3 13l171 130q9 7 16 -3z" />
    <glyph glyph-name="cacute" unicode="&#x107;" horiz-adv-x="511" 
d="M478 88q-68 -99 -203 -99q-111 0 -179 69q-68 70 -68 180q0 116 71 181q73 67 172 68q142 3 215 -108q8 -9 0 -14l-84 -68q-9 -9 -16 3q-40 58 -111 58q-53 0 -85.5 -33t-32.5 -87t32.5 -87t85.5 -33q64 0 108 53q10 10 18 2l75 -71q7 -4 2 -14zM345 716l57 -71
q9 -7 -2 -15l-174 -116q-8 -5 -16 1l-31 39q-7 6 1 14l149 148q9 9 16 0z" />
    <glyph glyph-name="Ccircumflex" unicode="&#x108;" horiz-adv-x="668" 
d="M638 82q-98 -92 -250 -92q-159 0 -257 98q-97 98 -97 258q0 85 29.5 154.5t80.5 113.5q106 89 244 89q147 2 248 -93q6 -6 0 -13l-66 -90q-5 -9 -14 0q-70 61 -168 61q-97 1 -158 -61q-59 -62 -59 -161q0 -98 60 -160q60 -61 157 -61q94 0 168 62q8 8 14 0l67 -91
q7 -8 1 -14zM416 740l-50 45l-51 -45q-8 -5 -12 -5h-103q-13 0 -4 9l113 105q8 6 14 6h84q8 0 14 -6l114 -105q9 -9 -4 -9h-103q-7 0 -12 5z" />
    <glyph glyph-name="ccircumflex" unicode="&#x109;" horiz-adv-x="511" 
d="M478 88q-68 -99 -203 -99q-111 0 -179 69q-68 70 -68 180q0 116 71 181q73 67 172 68q142 3 215 -108q8 -9 0 -14l-84 -68q-9 -9 -16 3q-40 58 -111 58q-53 0 -85.5 -33t-32.5 -87t32.5 -87t85.5 -33q64 0 108 53q10 10 18 2l75 -71q7 -4 2 -14zM116 538l95 133q2 5 13 7
h88q7 0 14 -7l94 -132q6 -8 -4 -8h-92q-7 0 -12 5l-44 69l-44 -69q-5 -5 -12 -5h-93q-10 0 -3 7z" />
    <glyph glyph-name="Cdotaccent" unicode="&#x10a;" horiz-adv-x="668" 
d="M638 82q-98 -92 -250 -92q-159 0 -257 98q-97 98 -97 258q0 85 29.5 154.5t80.5 113.5q106 89 244 89q147 2 248 -93q6 -6 0 -13l-66 -90q-5 -9 -14 0q-70 61 -168 61q-97 1 -158 -61q-59 -62 -59 -161q0 -98 60 -160q60 -61 157 -61q94 0 168 62q8 8 14 0l67 -91
q7 -8 1 -14zM306 798q0 27 16.5 43t42.5 16t41.5 -16t15.5 -43q0 -26 -15.5 -42t-41.5 -16t-42.5 16t-16.5 42z" />
    <glyph glyph-name="cdotaccent" unicode="&#x10b;" horiz-adv-x="511" 
d="M478 88q-68 -99 -203 -99q-111 0 -179 69q-68 70 -68 180q0 116 71 181q73 67 172 68q142 3 215 -108q8 -9 0 -14l-84 -68q-9 -9 -16 3q-40 58 -111 58q-53 0 -85.5 -33t-32.5 -87t32.5 -87t85.5 -33q64 0 108 53q10 10 18 2l75 -71q7 -4 2 -14zM206 611q0 28 16 44
t44 16t43.5 -16t15.5 -44q0 -27 -16 -44t-43 -17t-43.5 17t-16.5 44z" />
    <glyph glyph-name="Ccaron" unicode="&#x10c;" horiz-adv-x="668" 
d="M638 82q-98 -92 -250 -92q-159 0 -257 98q-97 98 -97 258q0 85 29.5 154.5t80.5 113.5q106 89 244 89q147 2 248 -93q6 -6 0 -13l-66 -90q-5 -9 -14 0q-70 61 -168 61q-97 1 -158 -61q-59 -62 -59 -161q0 -98 60 -160q60 -61 157 -61q94 0 168 62q8 8 14 0l67 -91
q7 -8 1 -14zM310 852l53 -47l52 47q6 6 13 6h107q14 0 4 -10l-118 -109q-6 -6 -15 -6h-87q-7 0 -15 6l-117 109q-5 4 -3.5 7t7.5 3h107q4 0 12 -6z" />
    <glyph glyph-name="ccaron" unicode="&#x10d;" horiz-adv-x="511" 
d="M478 88q-68 -99 -203 -99q-111 0 -179 69q-68 70 -68 180q0 116 71 181q73 67 172 68q142 3 215 -108q8 -9 0 -14l-84 -68q-9 -9 -16 3q-40 58 -111 58q-53 0 -85.5 -33t-32.5 -87t32.5 -87t85.5 -33q64 0 108 53q10 10 18 2l75 -71q7 -4 2 -14zM119 689h91q7 0 12 -5
l44 -68l45 67q1 6 11 6h92q12 0 4 -7l-94 -133q-4 -6 -13 -6h-90q-7 0 -12 6l-95 132q-6 8 5 8z" />
    <glyph glyph-name="Dcaron" unicode="&#x10e;" horiz-adv-x="681" 
d="M292 564l-86 1v-435h86q98 0 159 59q60 59 60 158t-60 158q-60 60 -159 59zM292 0h-213q-10 0 -10 10l1 674q0 10 9 10h213q161 0 258 -94t97 -253q0 -160 -97 -254q-98 -93 -258 -93zM283 852l53 -47l52 47q6 6 13 6h107q14 0 4 -10l-118 -109q-6 -6 -15 -6h-87
q-8 0 -15 6l-117 109q-5 3 -3.5 6.5t7.5 3.5h107q5 0 12 -6z" />
    <glyph glyph-name="dcaron" unicode="&#x10f;" horiz-adv-x="755" 
d="M268 -11q-108 0 -174 69t-66 180t66 180t174 68q81 0 129 -53v280q0 10 10 10h110q10 0 10 -10v-703q0 -10 -11 -10h-79q-9 0 -12 10l-16 47q-50 -68 -141 -68zM396 238q1 54 -32.5 87t-87.5 33q-53 0 -85.5 -33t-32.5 -87q0 -53 33 -86.5t85 -33.5q53 0 86.5 33t33.5 87
zM598 475l-42 34q-7 7 2 13q61 47 74 108h-3q-25 6 -39.5 25t-14.5 46q1 34 21 54t53 20q30 1 50 -18t22 -49q7 -67 -27 -139t-82 -97q-7 -4 -14 3z" />
    <glyph glyph-name="Dcroat" unicode="&#x110;" horiz-adv-x="681" 
d="M291 0h-212q-10 0 -10 10v300h-46q-10 0 -10 10v46q0 10 10 10h46v308q0 10 10 10h212q161 0 258 -94q98 -95 98 -253q0 -160 -97 -254q-98 -93 -259 -93zM206 310v-180h86q98 0 159 59q60 59 60 158t-60 158q-60 60 -160 59l-85 1v-189h122q10 0 10 -10v-46
q0 -10 -10 -10h-122z" />
    <glyph glyph-name="dslash" unicode="&#x111;" horiz-adv-x="585" 
d="M305 605h92v108q0 10 10 10h110q10 0 10 -10v-108h36q10 0 10 -10v-47q0 -9 -10 -9h-36v-529q0 -10 -11 -10h-79q-9 0 -12 10l-16 47q-50 -68 -141 -68q-108 0 -174 69t-66 180t66 180t174 68q81 0 129 -53v106h-92q-10 0 -10 9v47q0 10 10 10zM276 118q53 0 86.5 33
t33.5 87q1 54 -32.5 87t-87.5 33q-53 0 -85.5 -33t-32.5 -87q0 -53 33 -86.5t85 -33.5z" />
    <glyph glyph-name="Emacron" unicode="&#x112;" horiz-adv-x="532" 
d="M427 290h-221v-160h278q10 0 10 -10v-111q0 -9 -9 -9h-406q-10 0 -10 10v674q0 10 10 10h395q10 0 10 -10v-111q0 -9 -9 -9h-269v-146h221q10 0 10 -10v-108q0 -10 -10 -10zM145 839h258q9 0 9 -10v-70q0 -9 -9 -9h-258q-10 0 -10 9v70q0 10 10 10z" />
    <glyph glyph-name="emacron" unicode="&#x113;" horiz-adv-x="550" 
d="M164 281h221q-9 39 -37.5 61.5t-72.5 22.5t-73 -22t-38 -62zM512 188h-345q26 -77 120 -77q64 0 99 31q11 9 17 1l68 -71q7 -7 1 -15q-62 -67 -193 -68q-112 0 -182 68q-69 69 -69 181q0 110 68 180q68 69 179 69q119 0 183.5 -72.5t63.5 -216.5q0 -5 -3 -8t-7 -2z
M143 668h253q12 -2 12 -12v-69q0 -12 -12 -12h-253q-12 0 -12 10v71q0 12 12 12z" />
    <glyph glyph-name="Ebreve" unicode="&#x114;" horiz-adv-x="532" 
d="M427 290h-221v-160h278q10 0 10 -10v-111q0 -9 -9 -9h-406q-10 0 -10 10v674q0 10 10 10h395q10 0 10 -10v-111q0 -9 -9 -9h-269v-146h221q10 0 10 -10v-108q0 -10 -10 -10zM345 866l64 1q9 0 9 -9q-2 -62 -40.5 -95t-104.5 -33q-65 0 -103.5 33.5t-41.5 94.5q0 9 10 9
h64q8 0 10 -9q2 -21 19.5 -34.5t41.5 -13.5q25 0 42.5 14t19.5 34q2 8 10 8z" />
    <glyph glyph-name="ebreve" unicode="&#x115;" horiz-adv-x="550" 
d="M164 281h221q-9 39 -37.5 61.5t-72.5 22.5t-73 -22t-38 -62zM512 188h-345q26 -77 120 -77q64 0 99 31q11 9 17 1l68 -71q7 -7 1 -15q-62 -67 -193 -68q-112 0 -182 68q-69 69 -69 181q0 110 68 180q68 69 179 69q119 0 183.5 -72.5t63.5 -216.5q0 -5 -3 -8t-7 -2z
M339 684h65q8 0 8 -10q-2 -65 -42 -104.5t-103 -39.5t-102.5 39.5t-41.5 104.5q0 10 9 10h65q8 0 8 -10q4 -26 20.5 -42.5t41.5 -16.5q26 0 43 16t20 43q1 10 9 10z" />
    <glyph glyph-name="Edotaccent" unicode="&#x116;" horiz-adv-x="532" 
d="M427 290h-221v-160h278q10 0 10 -10v-111q0 -9 -9 -9h-406q-10 0 -10 10v674q0 10 10 10h395q10 0 10 -10v-111q0 -9 -9 -9h-269v-146h221q10 0 10 -10v-108q0 -10 -10 -10zM211 798q0 28 17 44.5t44 16.5q28 0 44 -16.5t16 -44.5q0 -27 -16.5 -44t-43.5 -17t-44 17
t-17 44z" />
    <glyph glyph-name="edotaccent" unicode="&#x117;" horiz-adv-x="550" 
d="M164 281h221q-9 39 -37.5 61.5t-72.5 22.5t-73 -22t-38 -62zM512 188h-345q26 -77 120 -77q64 0 99 31q11 9 17 1l68 -71q7 -7 1 -15q-62 -67 -193 -68q-112 0 -182 68q-69 69 -69 181q0 110 68 180q68 69 179 69q119 0 183.5 -72.5t63.5 -216.5q0 -5 -3 -8t-7 -2z
M208 617q0 27 17 43.5t44 16.5q28 0 44 -16t16 -44t-16 -44.5t-44 -16.5q-27 0 -44 16.5t-17 44.5z" />
    <glyph glyph-name="Eogonek" unicode="&#x118;" horiz-adv-x="532" 
d="M427 290h-221v-160h278q10 0 10 -10v-111q0 -9 -9 -9h-406q-10 0 -10 10v674q0 10 10 10h395q10 0 10 -10v-111q0 -9 -9 -9h-269v-146h221q10 0 10 -10v-108q0 -10 -10 -10zM482 -174q-13 -16 -40 -27t-54 -11q-53 0 -81.5 26.5t-29.5 72.5q0 73 132 166l42 -50
q-57 -57 -70 -80q-20 -32 4 -48q23 -17 43 6q5 5 9 1l45 -44q4 -4 0 -12z" />
    <glyph glyph-name="eogonek" unicode="&#x119;" horiz-adv-x="550" 
d="M164 281h221q-9 39 -37.5 61.5t-72.5 22.5t-73 -22t-38 -62zM512 188h-345q26 -77 120 -77q64 0 99 31q11 9 17 1l68 -71q7 -7 1 -15q-62 -67 -193 -68q-112 0 -182 68q-69 69 -69 181q0 110 68 180q68 69 179 69q119 0 183.5 -72.5t63.5 -216.5q0 -5 -3 -8t-7 -2z
M430 -167q-13 -17 -39.5 -27.5t-54.5 -10.5q-52 0 -80.5 26.5t-29.5 72.5q0 71 131 166l43 -50q-54 -54 -71 -80q-19 -31 4 -49q25 -15 43 6q4 7 9 1l45 -44q5 -5 0 -11z" />
    <glyph glyph-name="Ecaron" unicode="&#x11a;" horiz-adv-x="532" 
d="M427 290h-221v-160h278q10 0 10 -10v-111q0 -9 -9 -9h-406q-10 0 -10 10v674q0 10 10 10h395q10 0 10 -10v-111q0 -9 -9 -9h-269v-146h221q10 0 10 -10v-108q0 -10 -10 -10zM224 852l53 -47l52 47q6 6 13 6h107q14 0 4 -10l-118 -109q-6 -6 -15 -6h-87q-7 0 -15 6
l-117 109q-5 4 -3.5 7t7.5 3h107q4 0 12 -6z" />
    <glyph glyph-name="ecaron" unicode="&#x11b;" horiz-adv-x="550" 
d="M164 281h221q-9 39 -37.5 61.5t-72.5 22.5t-73 -22t-38 -62zM512 188h-345q26 -77 120 -77q64 0 99 31q11 9 17 1l68 -71q7 -7 1 -15q-62 -67 -193 -68q-112 0 -182 68q-69 69 -69 181q0 110 68 180q68 69 179 69q119 0 183.5 -72.5t63.5 -216.5q0 -5 -3 -8t-7 -2z
M126 689h91q9 0 12 -5l44 -69l45 68q4 6 11 6h92q12 0 4 -8l-94 -132q-4 -7 -13 -7h-89q-9 0 -13 7l-95 131q-6 9 5 9z" />
    <glyph glyph-name="Gcircumflex" unicode="&#x11c;" horiz-adv-x="760" 
d="M572 267h-167q-10 0 -10 9v92q0 10 10 10h293q13 0 13 -13q-2 -181 -83.5 -278t-238.5 -96q-154 0 -249 98q-94 97 -94 258q0 160 98 258t259 98q146 0 250 -95q5 -5 0 -13l-70 -90q-7 -7 -14 0q-27 25 -72 43.5t-94 18.5q-99 0 -160 -61q-60 -60 -60 -159q0 -98 56 -160
q57 -60 150 -60q150 0 183 140zM430 746l-50 45l-50 -45q-8 -5 -12 -5h-102q-13 0 -4 9l112 104q10 6 14 6h83q7 0 14 -6l112 -104q5 -4 3.5 -6.5t-6.5 -2.5h-102q-7 0 -12 5z" />
    <glyph glyph-name="gcircumflex" unicode="&#x11d;" horiz-adv-x="585" 
d="M269 489q95 0 144 -72l19 51q1 10 12 10h77q10 0 10 -10l1 -449q0 -115 -71 -186t-184 -71q-114 2 -195 51q-10 4 -5 16l47 96q4 9 14 4q57 -32 131 -37q63 1 97.5 36t34.5 96v20q-50 -56 -132 -55q-109 1 -175 69t-66 180t66 181q67 70 175 70zM158 239q0 -53 32.5 -86
t85.5 -33q55 0 89.5 33t34.5 86q0 55 -34 87.5t-90 32.5q-53 0 -85.5 -33t-32.5 -87zM126 542l96 134q4 6 13 7h90q6 0 13 -7l95 -133q7 -9 -4 -9h-93q-6 0 -11 5l-45 70l-45 -69q-3 -6 -11 -6h-94q-10 0 -4 8z" />
    <glyph glyph-name="Gbreve" unicode="&#x11e;" horiz-adv-x="760" 
d="M573 267h-167q-10 0 -10 9v92q0 10 10 10h293q13 0 13 -13q-2 -181 -83.5 -278t-238.5 -96q-154 0 -249 98q-94 97 -94 258q0 160 98 258t259 98q146 0 250 -95q5 -5 0 -13l-70 -90q-7 -7 -14 0q-27 25 -72 43.5t-94 18.5q-99 0 -160 -61q-60 -60 -60 -159q0 -98 56 -160
q57 -60 150 -60q150 0 183 140zM451 866l64 1q9 0 9 -9q-2 -62 -40.5 -95t-105.5 -33q-65 0 -103 33t-41 95q0 9 9 9h65q8 0 10 -9q2 -20 19 -34t41 -14q26 0 43.5 13.5t19.5 34.5q2 8 10 8z" />
    <glyph glyph-name="gbreve" unicode="&#x11f;" horiz-adv-x="585" 
d="M269 489q95 0 144 -72l19 51q1 10 12 10h77q10 0 10 -10l1 -449q0 -115 -71 -186t-184 -71q-114 2 -195 51q-10 4 -5 16l47 96q4 9 14 4q57 -32 131 -37q63 1 97.5 36t34.5 96v20q-50 -56 -132 -55q-109 1 -175 69t-66 180t66 181q67 70 175 70zM158 239q0 -53 32.5 -86
t85.5 -33q55 0 89.5 33t34.5 86q0 55 -34 87.5t-90 32.5q-53 0 -85.5 -33t-32.5 -87zM346 684h65q9 0 9 -10q-2 -65 -42 -104.5t-104 -39.5q-62 0 -101.5 39.5t-42.5 104.5q0 10 9 10h65q8 0 8 -10q4 -26 20.5 -42.5t41.5 -16.5q26 0 43 16t20 43q1 10 9 10z" />
    <glyph glyph-name="Gdotaccent" unicode="&#x120;" horiz-adv-x="760" 
d="M573 267h-167q-10 0 -10 9v92q0 10 10 10h293q13 0 13 -13q-2 -181 -83.5 -278t-238.5 -96q-154 0 -249 98q-94 97 -94 258q0 160 98 258t259 98q146 0 250 -95q5 -5 0 -13l-70 -90q-7 -7 -14 0q-27 25 -72 43.5t-94 18.5q-99 0 -160 -61q-60 -60 -60 -159q0 -98 56 -160
q57 -60 150 -60q150 0 183 140zM320 797q0 28 16.5 44.5t43.5 16.5q28 0 44 -16.5t16 -44.5q0 -27 -16.5 -44t-43.5 -17t-43.5 17t-16.5 44z" />
    <glyph glyph-name="gdotaccent" unicode="&#x121;" horiz-adv-x="585" 
d="M269 489q95 0 144 -72l19 51q1 10 12 10h77q10 0 10 -10l1 -449q0 -115 -71 -186t-184 -71q-114 2 -195 51q-10 4 -5 16l47 96q4 9 14 4q57 -32 131 -37q63 1 97.5 36t34.5 96v20q-50 -56 -132 -55q-109 1 -175 69t-66 180t66 181q67 70 175 70zM158 239q0 -53 32.5 -86
t85.5 -33q55 0 89.5 33t34.5 86q0 55 -34 87.5t-90 32.5q-53 0 -85.5 -33t-32.5 -87zM215 616q0 28 17 44.5t44 16.5q28 0 44 -16.5t16 -44.5q0 -27 -16.5 -44t-43.5 -17t-44 17t-17 44z" />
    <glyph glyph-name="uni0122" unicode="&#x122;" horiz-adv-x="734" 
d="M560 267h-167q-10 0 -10 9v92q0 10 10 10h293q13 0 13 -13q-2 -181 -83.5 -278t-238.5 -96q-154 0 -249 98q-94 97 -94 258q0 160 98 258t259 98q146 0 250 -95q5 -5 0 -13l-70 -90q-7 -7 -14 0q-27 25 -72 43.5t-94 18.5q-99 0 -160 -61q-60 -60 -60 -159q0 -98 56 -160
q57 -60 150 -60q150 0 183 140zM349 -151q-3 0 -4 1q-37 13 -37 60q0 29 18 47.5t47 18.5q27 0 45 -17.5t20 -44.5q6 -56 -31 -99q-35 -42 -84 -50q-9 -2 -12 4l-18 35q-4 7 2 9q37 13 54 36z" />
    <glyph glyph-name="uni0123" unicode="&#x123;" horiz-adv-x="585" 
d="M269 489q95 0 144 -72l19 51q1 10 12 10h77q10 0 10 -10l1 -449q0 -115 -71 -186t-184 -71q-114 2 -195 51q-10 4 -5 16l47 96q4 9 14 4q57 -32 131 -37q63 1 97.5 36t34.5 96v20q-50 -56 -132 -55q-109 1 -175 69t-66 180t66 181q67 70 175 70zM158 239q0 -53 32.5 -86
t85.5 -33q55 0 89.5 33t34.5 86q0 55 -34 87.5t-90 32.5q-53 0 -85.5 -33t-32.5 -87zM302 646q3 0 4 -1q37 -13 37 -60q0 -29 -18 -47.5t-47 -18.5q-27 0 -45 17.5t-20 44.5q-6 55 30 99q37 42 85 50q9 2 12 -4l18 -35q4 -7 -2 -9q-38 -14 -54 -36z" />
    <glyph glyph-name="Hcircumflex" unicode="&#x124;" horiz-adv-x="688" 
d="M196 0h-117q-10 0 -10 10l1 674q0 10 9 10h118q9 0 9 -9v-279h277v278q0 10 10 10h117q10 0 10 -9l-1 -675q0 -10 -9 -10h-117q-10 0 -10 10v280h-277v-280q0 -10 -10 -10zM394 749l-50 44l-50 -44q-8 -5 -11 -5h-103q-5 0 -6.5 2.5t2.5 5.5l112 104q8 7 15 7h82
q10 0 14 -7l113 -104q4 -3 2.5 -5.5t-6.5 -2.5h-102q-4 0 -12 5z" />
    <glyph glyph-name="hcircumflex" unicode="&#x125;" horiz-adv-x="552" 
d="M55 10l-1 702q0 10 11 10h109q11 0 11 -10v-280q48 58 135 58q81 0 130 -58q50 -59 50 -156v-266q0 -10 -10 -10h-110q-11 0 -10 10v239q0 51 -24.5 80.5t-64.5 29.5q-41 -1 -67 -33.5t-29 -92.5v-223q0 -10 -10 -10h-110q-10 0 -10 10zM322 761l-49 45l-51 -45
q-8 -5 -11 -5h-103q-12 0 -4 9l113 103q7 7 14 7h82q8 0 15 -7l112 -103q9 -9 -4 -9h-102q-4 0 -12 5z" />
    <glyph glyph-name="Hbar" unicode="&#x126;" horiz-adv-x="666" 
d="M200 657v-94h266v94q0 9 10 9h112q9 0 9 -9v-94h17q10 0 10 -10v-46q0 -10 -10 -10h-17v-488q0 -9 -10 -9h-111q-10 0 -10 9v270h-267v-270q0 -9 -9 -9h-111q-10 0 -10 9v488h-20q-10 0 -10 10v46q0 10 10 10h20v94q0 9 10 9h112q9 0 9 -9zM466 497h-266v-107h266v107z
" />
    <glyph glyph-name="hbar" unicode="&#x127;" horiz-adv-x="552" 
d="M301 581v-46q0 -10 -9 -10h-107v-93q48 58 135 58q81 0 130 -58q50 -59 50 -156v-266q0 -10 -10 -10h-110q-11 0 -10 10v239q0 51 -24.5 80.5t-64.5 29.5q-41 -1 -67 -33.5t-29 -92.5v-223q0 -10 -10 -10h-110q-10 0 -10 10l-1 515h-35q-9 0 -9 10v46q0 10 9 10h35v121
q0 10 11 10h109q11 0 11 -10v-121h107q9 0 9 -10z" />
    <glyph glyph-name="Itilde" unicode="&#x128;" horiz-adv-x="275" 
d="M206 684v-675q0 -9 -10 -9h-117q-10 0 -10 9v675q0 10 10 10h117q10 0 10 -10zM30 744q-5 -12 -13 -4l-32 35q-8 5 -4 10q14 41 42 66.5t56 25.5t48.5 -18.5t37 -36.5t33.5 -18q35 0 52 47q5 11 12 4l35 -36q4 -4 3 -10q-12 -41 -40.5 -66t-58.5 -25q-19 -1 -37.5 10.5
t-30.5 26t-26 26t-25 10.5q-33 -1 -52 -47z" />
    <glyph glyph-name="itilde" unicode="&#x129;" horiz-adv-x="241" 
d="M185 469v-460q0 -9 -9 -9h-112q-9 0 -9 9v460q0 6 1.5 8t7.5 1h112q9 0 9 -9zM13 564q-5 -11 -13 -4l-32 34q-4 4 -3 10q12 39 39.5 64t55.5 25q22 0 39.5 -11t27 -24.5t22.5 -24.5t27 -11q35 2 50 47q4 11 12 3l34 -35q4 -4 3 -8q-12 -40 -39 -65t-57 -25
q-21 0 -38.5 11.5t-27 24.5t-23 24.5t-27.5 11.5q-34 -2 -50 -47z" />
    <glyph glyph-name="Imacron" unicode="&#x12a;" horiz-adv-x="275" 
d="M206 684v-675q0 -9 -10 -9h-117q-10 0 -10 9v675q0 10 10 10h117q10 0 10 -10zM11 845h253q12 -1 12 -12v-69q0 -12 -12 -12h-253q-12 0 -12 10v71q0 12 12 12z" />
    <glyph glyph-name="imacron" unicode="&#x12b;" horiz-adv-x="241" 
d="M185 469v-460q0 -9 -9 -9h-112q-9 0 -9 9v460q0 6 1.5 8t7.5 1h112q9 0 9 -9zM-7 668h253q12 -2 12 -13v-68q0 -13 -12 -13h-253q-12 0 -12 11v70q0 13 12 13z" />
    <glyph glyph-name="Ibreve" unicode="&#x12c;" horiz-adv-x="275" 
d="M206 684v-675q0 -9 -10 -9h-117q-10 0 -10 9v675q0 10 10 10h117q10 0 10 -10zM214 868l68 1q9 0 9 -10q-2 -65 -42.5 -100t-110.5 -35q-68 0 -108.5 35.5t-43.5 99.5q0 10 10 10h68q9 0 10 -10q2 -21 20 -35.5t44 -14.5q27 0 45.5 14.5t20.5 35.5q2 9 10 9z" />
    <glyph glyph-name="ibreve" unicode="&#x12d;" horiz-adv-x="241" 
d="M185 469v-459q0 -10 -9 -10h-111q-10 0 -10 10v459q0 9 10 9h111q9 0 9 -9zM197 687h68q9 0 9 -10q-2 -69 -44 -110.5t-109 -41.5q-66 0 -107.5 42t-44.5 110q0 10 10 10h68q9 0 9 -10q4 -28 21.5 -45.5t43.5 -17.5q27 0 45 17.5t21 45.5q1 10 10 10z" />
    <glyph glyph-name="Iogonek" unicode="&#x12e;" horiz-adv-x="275" 
d="M206 684v-675q0 -9 -10 -9h-117q-10 0 -10 9v675q0 10 10 10h117q10 0 10 -10zM234 -173q-13 -17 -39.5 -27.5t-54.5 -10.5q-52 0 -80.5 26t-29.5 72q0 72 131 167l43 -51q-56 -56 -70 -79q-22 -33 3 -49q26 -17 43 6q5 6 10 1l44 -44q5 -6 0 -11z" />
    <glyph glyph-name="iogonek" unicode="&#x12f;" horiz-adv-x="241" 
d="M185 468v-459q0 -9 -9 -9h-112q-8 0 -8 9l-1 459q0 10 9 10h112q9 0 9 -10zM38 635q0 36 22.5 58t59.5 22t59 -22t22 -58q0 -38 -22 -60.5t-59 -22.5t-59.5 23t-22.5 60zM191 -167q-32 -38 -95 -38q-52 0 -80.5 26.5t-29.5 72.5q0 71 131 166l43 -50q-55 -56 -70 -80
q-22 -31 4 -49q9 -6 21.5 -4.5t20.5 10.5q5 6 10 1l45 -44q2 -5 0 -11z" />
    <glyph glyph-name="Idot" unicode="&#x130;" horiz-adv-x="275" 
d="M206 684v-675q0 -9 -10 -9h-117q-10 0 -10 9v675q0 10 10 10h117q10 0 10 -10zM140 881q33 0 53.5 -20.5t20.5 -54.5t-20.5 -55t-53.5 -21q-34 0 -55 21t-21 55t21 54.5t55 20.5z" />
    <glyph glyph-name="dotlessi" unicode="&#x131;" horiz-adv-x="236" 
d="M181 430v-418q0 -4 -4.5 -8t-8.5 -4h-100q-4 0 -8.5 4t-4.5 8v419q0 4 3.5 8t7.5 4h102q4 1 8.5 -3.5t4.5 -9.5z" />
    <glyph glyph-name="IJ" unicode="&#x132;" horiz-adv-x="657" 
d="M205 684v-674q0 -10 -10 -10h-116q-9 0 -9 10v674q0 10 9 10h116q10 0 10 -10zM488 225l-1 459q0 10 9 10h116q10 0 10 -10l1 -486q1 -99 -43.5 -153t-123.5 -55q-109 1 -173 58q-7 3 -2 14l54 96q4 10 17 5q63 -36 89 -36q27 0 36.5 20t10.5 78z" />
    <glyph glyph-name="ij" unicode="&#x133;" horiz-adv-x="464" 
d="M185 468v-459q0 -9 -9 -9h-112q-8 0 -8 9l-1 459q0 10 9 10h112q9 0 9 -10zM38 635q0 36 22.5 58t59.5 22t59 -22t22 -58q0 -38 -22 -60.5t-59 -22.5t-59.5 23t-22.5 60zM344 714q36 0 58 -21.5t22 -58.5t-22 -59.5t-58 -22.5q-37 0 -60 22.5t-23 59.5t22.5 58.5
t60.5 21.5zM279 -47l-1 515q0 10 11 10h110q9 0 9 -11l1 -531q1 -81 -39.5 -127.5t-112.5 -45.5q-71 0 -117 39q-4 7 -1 15l39 92q8 12 18 3q22 -17 42 -17q40 0 41 58z" />
    <glyph glyph-name="Jcircumflex" unicode="&#x134;" horiz-adv-x="419" 
d="M214 226l-1 458q0 10 10 10h116q10 0 10 -10l2 -486q1 -99 -43.5 -153t-124.5 -55q-105 1 -173 57q-7 5 -2 15l54 97q5 12 17 4q1 0 7.5 -4t16 -9t14.5 -8q32 -15 51 -15q26 0 35 20t11 79zM331 745l-50 45l-50 -45q-8 -5 -11 -5h-103q-11 0 -4 9l112 104q11 6 15 6h82
q8 0 15 -6l112 -104q9 -9 -4 -9h-102q-4 0 -12 5z" />
    <glyph glyph-name="jcircumflex" unicode="&#x135;" horiz-adv-x="261" 
d="M89 -47v515q0 10 10 10h110q10 0 10 -10l1 -531q0 -81 -40.5 -128t-112.5 -47q-75 0 -116 41q-4 4 -3 13l41 92q5 15 17 4q22 -17 42 -17q20 -1 30 13t11 45zM-10 540l100 140q4 6 14 7h93q7 0 14 -7l99 -139q8 -9 -4 -9h-97q-7 0 -12 5l-47 73l-46 -72q-4 -6 -12 -6h-98
q-10 0 -4 8z" />
    <glyph glyph-name="uni0136" unicode="&#x136;" horiz-adv-x="585" 
d="M192 684v-298l219 302q5 6 12 6h129q13 0 6 -13l-242 -331l279 -338q9 -12 -6 -12h-142q-8 0 -13 5l-242 306v-302q0 -9 -10 -9h-117q-10 0 -10 9v675q0 10 10 10h117q10 0 10 -10zM279 -151q-3 0 -4 1q-37 13 -37 60q0 29 18 47.5t47 18.5q27 0 45 -17.5t20 -44.5
q6 -56 -31 -99q-35 -42 -84 -50q-9 -2 -12 4l-18 35q-4 7 2 9q37 13 54 36z" />
    <glyph glyph-name="uni0137" unicode="&#x137;" horiz-adv-x="491" 
d="M326 477h147q15 0 5 -13l-166 -214l198 -237q10 -13 -5 -13h-144q-8 0 -13 5l-163 201v-197q0 -9 -9 -9h-112q-9 0 -9 9l-1 704q0 9 10 9h112q9 0 9 -9v-421l131 180q3 5 10 5zM243 -151q-3 0 -4 1q-37 13 -37 60q0 29 18 47.5t47 18.5q27 0 45 -17.5t20 -44.5
q6 -56 -31 -99q-35 -42 -84 -50q-9 -2 -12 4l-18 35q-4 7 2 9q37 13 54 36z" />
    <glyph glyph-name="kgreenlandic" unicode="&#x138;" horiz-adv-x="483" 
d="M326 477h147q15 0 5 -13l-166 -225l198 -226q12 -13 -5 -13h-144q-8 0 -13 5l-163 190v-186q0 -9 -9 -9h-112q-9 0 -9 9l-1 459q0 9 10 9h112q9 0 9 -9v-187l131 191q3 5 10 5z" />
    <glyph glyph-name="Lacute" unicode="&#x139;" horiz-adv-x="461" 
d="M206 684v-562h217q10 0 10 -10v-103q0 -9 -9 -9h-345q-9 0 -9 9l-1 675q0 10 10 10h117q10 0 10 -10zM223 894l47 -78q6 -11 -4 -15l-192 -93q-10 -4 -15 3l-26 43q-4 7 3 13l171 130q9 7 16 -3z" />
    <glyph glyph-name="lacute" unicode="&#x13a;" horiz-adv-x="241" 
d="M186 712v-702q0 -10 -10 -10h-111q-10 0 -10 10v702q0 10 10 10h110q11 0 11 -10zM200 923l45 -75q7 -10 -4 -14l-184 -90q-8 -5 -13 3l-26 41q-5 8 3 13l164 125q11 8 15 -3z" />
    <glyph glyph-name="uni013B" unicode="&#x13b;" horiz-adv-x="462" 
d="M206 684v-562h217q10 0 10 -10v-103q0 -9 -9 -9h-345q-9 0 -9 9l-1 675q0 10 10 10h117q10 0 10 -10zM232 -151q-3 0 -4 1q-37 13 -37 60q0 29 18 47.5t47 18.5q27 0 45 -17.5t20 -44.5q6 -56 -31 -99q-35 -42 -84 -50q-9 -2 -12 4l-18 35q-4 7 2 9q38 13 54 36z" />
    <glyph glyph-name="uni013C" unicode="&#x13c;" horiz-adv-x="241" 
d="M186 712v-702q0 -10 -10 -10h-111q-10 0 -10 10v702q0 10 10 10h110q11 0 11 -10zM93 -151q-3 0 -4 1q-37 13 -37 60q0 29 18 47.5t47 18.5q27 0 45 -17.5t20 -44.5q6 -56 -31 -99q-35 -42 -84 -50q-9 -2 -12 4l-18 35q-4 7 2 9q37 13 54 36z" />
    <glyph glyph-name="Lcaron" unicode="&#x13d;" horiz-adv-x="461" 
d="M206 684v-562h217q10 0 10 -10v-103q0 -9 -9 -9h-345q-9 0 -9 9l-1 675q0 10 10 10h117q10 0 10 -10zM300 426l-42 35q-8 5 1 12q60 47 75 108h-4q-53 14 -53 72q0 34 20 54t53 20q32 0 52 -18.5t22 -50.5q7 -64 -28 -138q-35 -71 -82 -97q-7 -4 -14 3z" />
    <glyph glyph-name="lcaron" unicode="&#x13e;" horiz-adv-x="406" 
d="M186 712v-702q0 -10 -10 -10h-111q-10 0 -10 10v702q0 10 10 10h110q11 0 11 -10zM256 426l-43 35q-7 4 2 12q60 47 75 108h-4q-53 14 -53 72q0 34 20 54t53 20q32 0 52 -18.5t22 -50.5q7 -64 -28 -138q-35 -71 -82 -97q-7 -4 -14 3z" />
    <glyph glyph-name="Ldot" unicode="&#x13f;" horiz-adv-x="461" 
d="M206 684v-562h217q10 0 10 -10v-103q0 -9 -9 -9h-345q-9 0 -9 9l-1 675q0 10 10 10h117q10 0 10 -10zM340 463q34 0 56 -22t22 -57q0 -34 -22 -55.5t-56 -21.5q-35 0 -56 21t-21 56t21 57t56 22z" />
    <glyph glyph-name="ldot" unicode="&#x140;" horiz-adv-x="397" 
d="M186 712v-702q0 -10 -10 -10h-111q-10 0 -10 10v702q0 10 10 10h110q11 0 11 -10zM246 331q-18 18 -18 47t18 46q18 18 47 18t46 -18q18 -17 18 -46t-18 -47q-17 -18 -46 -18t-47 18z" />
    <glyph glyph-name="Lslash" unicode="&#x141;" horiz-adv-x="461" 
d="M46 313l270 115q9 4 9 -6v-48q0 -10 -9 -14l-270 -116q-9 -4 -9 6v49q0 9 9 14zM206 684v-562h217q10 0 10 -10v-103q0 -9 -9 -9h-345q-9 0 -9 9l-1 675q0 10 10 10h117q10 0 10 -10z" />
    <glyph glyph-name="lslash" unicode="&#x142;" horiz-adv-x="251" 
d="M73 693h105q10 0 10 -9v-297l60 30q9 3 9 -6v-49q0 -10 -9 -14l-60 -29v-309q0 -10 -10 -10h-105q-10 0 -10 10v246l-58 -29q-11 -5 -11 7v45q0 12 11 17l58 29v359q0 9 10 9z" />
    <glyph glyph-name="Nacute" unicode="&#x143;" horiz-adv-x="720" 
d="M524 694h117q10 0 10 -10v-674q0 -10 -10 -10h-134q-7 0 -11 6l-290 462v-458q0 -10 -10 -10h-117q-10 0 -10 10l1 674q0 10 10 10h134q8 0 12 -7l288 -460l1 457q0 10 9 10zM429 894l47 -78q6 -11 -4 -15l-192 -93q-10 -4 -15 3l-26 43q-4 7 3 13l171 130q9 7 16 -3z
" />
    <glyph glyph-name="nacute" unicode="&#x144;" horiz-adv-x="553" 
d="M55 10l-1 458q0 10 11 10h88q10 0 13 -10l11 -46q47 68 143 68q81 0 130 -58q50 -59 50 -156v-266q0 -10 -10 -10h-110q-4 0 -7.5 3t-2.5 7v239q0 51 -24.5 80.5t-64.5 29.5q-41 -1 -67 -33.5t-29 -92.5v-223q0 -9 -10 -9h-110q-10 0 -10 9zM347 715l57 -71q7 -7 -2 -15
l-175 -116q-8 -5 -15 1l-32 39q-4 4 1 14l150 148q7 10 16 0z" />
    <glyph glyph-name="uni0145" unicode="&#x145;" horiz-adv-x="720" 
d="M524 694h117q10 0 10 -10v-674q0 -10 -10 -10h-134q-7 0 -11 6l-290 462v-458q0 -10 -10 -10h-117q-10 0 -10 10l1 674q0 10 10 10h134q8 0 12 -7l288 -460l1 457q0 10 9 10zM338 -151q-3 0 -4 1q-37 13 -37 60q0 29 18 47.5t47 18.5q27 0 45 -17.5t20 -44.5
q6 -56 -31 -99q-35 -42 -84 -50q-9 -2 -12 4l-18 35q-4 7 2 9q38 13 54 36z" />
    <glyph glyph-name="uni0146" unicode="&#x146;" horiz-adv-x="553" 
d="M55 10l-1 458q0 10 11 10h88q10 0 13 -10l11 -46q47 68 143 68q81 0 130 -58q50 -59 50 -156v-266q0 -10 -10 -10h-110q-4 0 -7.5 3t-2.5 7v239q0 51 -24.5 80.5t-64.5 29.5q-41 -1 -67 -33.5t-29 -92.5v-223q0 -9 -10 -9h-110q-10 0 -10 9zM258 -151q-3 0 -4 1
q-37 13 -37 60q0 29 18 47.5t47 18.5q27 0 45 -17.5t20 -44.5q6 -56 -31 -99q-35 -42 -84 -50q-9 -2 -12 4l-18 35q-4 7 2 9q38 13 54 36z" />
    <glyph glyph-name="Ncaron" unicode="&#x147;" horiz-adv-x="720" 
d="M524 694h117q10 0 10 -10v-674q0 -10 -10 -10h-134q-7 0 -11 6l-290 462v-458q0 -10 -10 -10h-117q-10 0 -10 10l1 674q0 10 10 10h134q8 0 12 -7l288 -460l1 457q0 10 9 10zM307 852l53 -47l52 47q6 6 13 6h107q14 0 4 -10l-118 -109q-6 -6 -15 -6h-87q-8 0 -15 6
l-117 109q-5 3 -3.5 6.5t7.5 3.5h107q5 0 12 -6z" />
    <glyph glyph-name="ncaron" unicode="&#x148;" horiz-adv-x="553" 
d="M55 10l-1 458q0 10 11 10h88q10 0 13 -10l11 -46q47 68 143 68q81 0 130 -58q50 -59 50 -156v-266q0 -10 -10 -10h-110q-4 0 -7.5 3t-2.5 7v239q0 51 -24.5 80.5t-64.5 29.5q-41 -1 -67 -33.5t-29 -92.5v-223q0 -9 -10 -9h-110q-10 0 -10 9zM118 691h96q8 0 13 -5l46 -72
l47 71q4 6 12 6h97q12 0 4 -8l-99 -139q-4 -7 -14 -7h-94q-10 0 -13 7l-100 138q-6 9 5 9z" />
    <glyph glyph-name="napostrophe" unicode="&#x149;" horiz-adv-x="646" 
d="M148 10l-1 458q0 10 11 10h88q10 0 13 -10l11 -46q47 68 143 68q81 0 130 -58q50 -59 50 -156v-266q0 -10 -10 -10h-110q-12 0 -10 10v239q0 51 -24.5 80.5t-64.5 29.5q-41 -1 -67 -33.5t-29 -92.5v-223q0 -9 -10 -9h-110q-10 0 -10 9zM49 459l-42 34q-7 4 2 12
q60 47 75 108q-3 0 -4 1q-25 5 -39 24t-14 46q0 34 20 54.5t53 20.5q31 0 51 -18.5t22 -49.5q7 -64 -28 -138q-35 -73 -82 -98q-7 -3 -14 4z" />
    <glyph glyph-name="Eng" unicode="&#x14a;" horiz-adv-x="714" 
d="M511 -50v49l-308 469v-458q0 -10 -10 -10h-117q-10 0 -10 10l1 674q0 10 10 10h134q9 0 12 -7l288 -457l1 454q0 10 9 10h117q10 0 10 -10v-739q0 -85 -42.5 -132t-120.5 -46q-41 0 -86 20q-41 19 -62 36q-9 7 -3 19l53 87q6 11 15 5q44 -34 72 -34q37 0 37 50z" />
    <glyph glyph-name="eng" unicode="&#x14b;" horiz-adv-x="555" 
d="M232 -198q-8 5 -3 14l41 93q5 12 17 3q20 -17 42 -17q20 -1 30 13t11 45v296q0 51 -24.5 80.5t-64.5 29.5q-41 -1 -67 -33.5t-29 -92.5v-223q0 -9 -10 -9h-110q-10 0 -10 9l-1 458q0 10 11 10h88q10 0 13 -10l11 -46q47 68 143 68q81 0 130 -58q50 -59 50 -156v-339
q1 -79 -40 -127t-112 -48q-73 0 -116 40z" />
    <glyph glyph-name="Omacron" unicode="&#x14c;" horiz-adv-x="780" 
d="M391 -9q-161 0 -259 98t-98 258t98 258q100 98 259 98t257 -98t98 -258t-98 -258t-257 -98zM391 127q98 0 158 60q61 61 61 160t-61 159q-60 61 -158 61q-99 0 -160 -61q-60 -60 -60 -159t60 -160q60 -60 160 -60zM263 843h257q10 0 10 -10v-70q0 -9 -10 -9h-257
q-11 0 -11 9v70q0 10 11 10z" />
    <glyph glyph-name="omacron" unicode="&#x14d;" horiz-adv-x="553" 
d="M276 490q112 0 180 -69q69 -69 69 -181t-69 -181q-68 -69 -180 -69q-111 0 -180 69q-68 70 -68 181t68 181q69 69 180 69zM276 120q54 0 86.5 33t32.5 87t-32.5 87t-86.5 33q-53 0 -85.5 -33t-32.5 -87t32.5 -87t85.5 -33zM151 668h253q12 -2 12 -12v-69q0 -12 -12 -12
h-253q-12 0 -12 11v70q0 12 12 12z" />
    <glyph glyph-name="Obreve" unicode="&#x14e;" horiz-adv-x="780" 
d="M391 -9q-161 0 -259 98t-98 258t98 258q100 98 259 98t257 -98t98 -258t-98 -258t-257 -98zM391 127q98 0 158 60q61 61 61 160t-61 159q-60 61 -158 61q-99 0 -160 -61q-60 -60 -60 -159t60 -160q60 -60 160 -60zM459 865l62 1q8 0 8 -9q-1 -59 -38.5 -91.5
t-100.5 -32.5t-99.5 32t-39.5 92q0 9 9 9h61q9 0 10 -9q2 -19 19 -33t40 -14q24 0 41 13.5t20 32.5q0 9 8 9z" />
    <glyph glyph-name="obreve" unicode="&#x14f;" horiz-adv-x="553" 
d="M276 490q112 0 180 -69q69 -69 69 -181t-69 -181q-68 -69 -180 -69q-111 0 -180 69q-68 70 -68 181t68 181q69 69 180 69zM276 120q54 0 86.5 33t32.5 87t-32.5 87t-86.5 33q-53 0 -85.5 -33t-32.5 -87t32.5 -87t85.5 -33zM347 684h65q8 0 8 -10q-2 -65 -42 -104.5
t-103 -39.5t-102.5 39.5t-41.5 104.5q0 10 9 10h65q8 0 8 -10q4 -26 20.5 -42.5t41.5 -16.5q26 0 43 16t20 43q1 10 9 10z" />
    <glyph glyph-name="Ohungarumlaut" unicode="&#x150;" horiz-adv-x="780" 
d="M391 -9q-161 0 -259 98t-98 258t98 258q100 98 259 98t257 -98t98 -258t-98 -258t-257 -98zM391 127q98 0 158 60q61 61 61 160t-61 159q-60 61 -158 61q-99 0 -160 -61q-60 -60 -60 -159t60 -160q60 -60 160 -60zM497 903l66 -46q11 -6 3 -14l-101 -123q-4 -7 -13 -2
l-43 33q-9 5 -4 13l77 135q8 8 15 4zM341 903l70 -46q7 -7 2 -13l-101 -124q-6 -8 -13 -2l-44 32q-8 8 -4 14l77 135q5 9 13 4z" />
    <glyph glyph-name="ohungarumlaut" unicode="&#x151;" horiz-adv-x="553" 
d="M276 490q112 0 180 -69q69 -69 69 -181t-69 -181q-68 -69 -180 -69q-111 0 -180 69q-68 70 -68 181t68 181q69 69 180 69zM276 120q54 0 86.5 33t32.5 87t-32.5 87t-86.5 33q-53 0 -85.5 -33t-32.5 -87t32.5 -87t85.5 -33zM374 711l64 -42q9 -6 2 -13l-97 -125
q-5 -7 -13 -2l-42 30q-5 8 -2 13l74 135q6 10 14 4zM225 712l66 -43q10 -5 3 -13l-99 -125q-5 -6 -12 -2l-42 30q-7 4 -4 14l74 135q6 9 14 4z" />
    <glyph glyph-name="OE" unicode="&#x152;" horiz-adv-x="744" 
d="M696 0h-323q-151 2 -246 96q-93 95 -93 251q0 155 92 250q94 96 245 97h314q11 0 11 -13v-96q0 -13 -11 -13h-185v-159h139q10 0 10 -11v-99q0 -11 -10 -11h-139v-169h196q10 -1 10 -12v-100q0 -11 -10 -11zM363 134v425q-88 -8 -139.5 -64t-52.5 -148q0 -92 51 -148.5
t141 -64.5z" />
    <glyph glyph-name="oe" unicode="&#x153;" horiz-adv-x="918" 
d="M276 360q-53 0 -85.5 -33t-32.5 -87t32.5 -87t85.5 -33t86 33t33 87t-32.5 87t-86.5 33zM532 282h222q-20 83 -111 83t-111 -83zM276 490q119 0 186 -76q67 73 181 73q131 0 189 -79q59 -79 58 -210q0 -10 -10 -10h-344q24 -77 119 -77q61 0 99 32q10 7 17 1l69 -73
q6 -6 0 -14q-62 -67 -193 -68q-120 0 -187 76q-68 -75 -184 -75q-111 0 -180 69q-68 70 -68 181t68 181q69 69 180 69z" />
    <glyph glyph-name="Racute" unicode="&#x154;" horiz-adv-x="586" 
d="M424 5l-145 254h-81v-249q0 -10 -10 -10h-117q-10 0 -10 10l1 674q0 10 9 10h263q102 0 162 -61q59 -59 61 -156q-1 -76 -39.5 -130.5t-106.5 -74.5l158 -260q7 -12 -6 -12h-129q-7 0 -10 5zM336 564l-138 1v-175l138 -1q34 0 59 22.5t25 64.5t-25 65t-59 23zM391 894
l47 -78q6 -11 -4 -15l-192 -93q-10 -4 -15 3l-26 43q-4 7 3 13l171 130q9 7 16 -3z" />
    <glyph glyph-name="racute" unicode="&#x155;" horiz-adv-x="369" 
d="M323 342q-31 14 -62 14q-49 0 -75 -51v-295q0 -10 -11 -10h-110q-10 0 -10 10l-1 458q0 10 11 10h76q11 0 14 -10l11 -29q52 49 120 49q27 0 72 -12q10 -3 7 -13l-27 -115q-4 -10 -15 -6zM258 713l57 -71q8 -8 -2 -15l-175 -115q-8 -6 -15 0l-32 39q-4 4 1 14l150 148
q7 10 16 0z" />
    <glyph glyph-name="uni0156" unicode="&#x156;" horiz-adv-x="596" 
d="M432 5l-145 254h-81v-249q0 -10 -10 -10h-117q-10 0 -10 10l1 674q0 10 9 10h263q102 0 162 -61q59 -59 61 -156q-1 -76 -39.5 -130.5t-106.5 -74.5l158 -260q7 -12 -6 -12h-129q-7 0 -10 5zM344 564l-138 1v-175l138 -1q34 0 59 22.5t25 64.5t-25 65t-59 23zM282 -151
q-3 0 -4 1q-37 13 -37 60q0 29 18 47.5t47 18.5q27 0 45 -17.5t20 -44.5q6 -56 -31 -99q-35 -42 -84 -50q-9 -2 -12 4l-18 35q-4 7 2 9q38 13 54 36z" />
    <glyph glyph-name="uni0157" unicode="&#x157;" horiz-adv-x="369" 
d="M323 342q-31 14 -62 14q-49 0 -75 -51v-295q0 -10 -11 -10h-110q-10 0 -10 10l-1 458q0 10 11 10h76q11 0 14 -10l11 -29q52 49 120 49q27 0 72 -12q10 -3 7 -13l-27 -115q-4 -10 -15 -6zM92 -151q-3 0 -4 1q-37 13 -37 60q0 29 18 47.5t47 18.5q27 0 45 -17.5t20 -44.5
q6 -56 -31 -99q-35 -42 -84 -50q-9 -2 -12 4l-18 35q-4 7 2 9q38 13 54 36z" />
    <glyph glyph-name="Rcaron" unicode="&#x158;" horiz-adv-x="591" 
d="M429 5l-145 254h-81v-249q0 -10 -10 -10h-117q-10 0 -10 10l1 674q0 10 9 10h263q102 0 162 -61q59 -59 61 -156q-1 -76 -39.5 -130.5t-106.5 -74.5l158 -260q8 -12 -6 -12h-129q-7 0 -10 5zM341 564l-138 1v-175l138 -1q34 0 59 22.5t25 64.5t-25 65t-59 23zM237 852
l53 -47l52 47q6 6 13 6h107q14 0 4 -10l-118 -109q-6 -6 -15 -6h-87q-8 0 -15 6l-117 109q-5 3 -3.5 6.5t7.5 3.5h107q5 0 12 -6z" />
    <glyph glyph-name="rcaron" unicode="&#x159;" horiz-adv-x="369" 
d="M323 342q-31 14 -62 14q-49 0 -75 -51v-295q0 -10 -11 -10h-110q-10 0 -10 10l-1 458q0 10 11 10h76q11 0 14 -10l11 -29q52 49 120 49q27 0 72 -12q10 -3 7 -13l-27 -115q-4 -10 -15 -6zM33 690h96q8 0 13 -5l46 -72l47 71q5 6 12 6h97q12 0 4 -8l-99 -139q-4 -7 -14 -7
h-94q-9 0 -13 7l-100 138q-6 9 5 9z" />
    <glyph glyph-name="Sacute" unicode="&#x15a;" horiz-adv-x="588" 
d="M41 74q-7 4 -2 13l58 103q7 10 16 2q23 -21 78 -44q53 -22 111 -22q49 0 80.5 18.5t31.5 50.5q0 59 -132 83q-123 22 -181 71t-61 138q-3 95 67 156q71 62 190 60q78 -2 136 -24q59 -23 81 -43q8 -5 3 -14l-47 -106q-4 -9 -14 -3q-80 54 -165 53q-50 1 -82 -19t-32 -50
t28 -46.5t106 -34.5q124 -27 180.5 -76t59.5 -138q3 -94 -68 -154q-72 -59 -192 -58q-85 2 -156 30q-68 28 -94 54zM379 894l47 -78q6 -11 -4 -15l-192 -93q-10 -4 -15 3l-26 43q-4 7 3 13l171 130q9 7 16 -3z" />
    <glyph glyph-name="sacute" unicode="&#x15b;" horiz-adv-x="448" 
d="M37 43q-8 5 -3 14l45 89q3 9 12 3q61 -34 112 -38q34 -2 58 6t24 22q0 11 -14 20q-15 12 -82 31q-1 0 -5 1.5t-6 1.5q-141 39 -144 143q-2 74 55 114q58 41 143 40q49 -1 93.5 -17t71.5 -36q7 -6 3 -15l-44 -82q-5 -13 -17 -5q-54 28 -90 32q-35 4 -59.5 -4.5
t-24.5 -22.5q0 -15 19.5 -25.5t63.5 -20.5q87 -19 127 -52.5t41 -94.5q1 -72 -51 -115q-53 -44 -138 -42q-64 2 -115 19q-54 18 -75 34zM286 715l57 -71q9 -7 -2 -15l-175 -116q-8 -5 -15 1l-31 39q-6 7 1 14l149 148q7 10 16 0z" />
    <glyph glyph-name="Scircumflex" unicode="&#x15c;" horiz-adv-x="588" 
d="M41 74q-7 4 -2 13l58 103q7 10 16 2q23 -21 78 -44q53 -22 111 -22q49 0 80.5 18.5t31.5 50.5q0 59 -132 83q-123 22 -181 71t-61 138q-3 95 67 156q71 62 190 60q78 -2 136 -24q59 -23 81 -43q8 -5 3 -14l-47 -106q-4 -9 -14 -3q-80 54 -165 53q-50 1 -82 -19t-32 -50
t28 -46.5t106 -34.5q124 -27 180.5 -76t59.5 -138q3 -94 -68 -154q-72 -59 -192 -58q-85 2 -156 30q-68 28 -94 54zM345 740l-50 44l-50 -44q-8 -5 -12 -5h-102q-5 0 -6.5 2.5t2.5 5.5l112 104q8 7 14 7h83q7 0 14 -7l112 -104q5 -3 3.5 -5.5t-6.5 -2.5h-102q-7 0 -12 5z
" />
    <glyph glyph-name="scircumflex" unicode="&#x15d;" horiz-adv-x="448" 
d="M37 43q-8 5 -3 14l44 88q3 8 14 3q59 -32 111 -37q34 -3 58 5.5t24 22.5q0 15 -19 24.5t-75 25.5l-13 4q-141 39 -144 143q-3 72 54 113q58 41 144 40q49 -1 94 -17.5t70 -35.5q8 -6 3 -14l-44 -83q-4 -8 -16 -4l-6 3l-14 7t-13 6q-26 12 -58 16q-34 5 -59 -4t-25 -24
q0 -14 19 -24t65 -22q87 -19 126.5 -52t40.5 -94q1 -72 -51 -115q-53 -42 -138 -41q-62 0 -116 18q-55 19 -73 34zM63 542l100 140q4 6 14 7h93q7 0 14 -7l99 -139q7 -9 -4 -9h-97q-7 0 -12 5l-47 73l-46 -72q-5 -6 -12 -6h-98q-10 0 -4 8z" />
    <glyph glyph-name="Scedilla" unicode="&#x15e;" horiz-adv-x="588" 
d="M41 74q-7 4 -2 13l58 103q7 10 16 2q23 -21 78 -44q53 -22 111 -22q49 0 80.5 18.5t31.5 50.5q0 59 -132 83q-123 22 -181 71t-61 138q-3 95 67 156q71 62 190 60q78 -2 136 -24q59 -23 81 -43q8 -5 3 -14l-47 -106q-4 -9 -14 -3q-80 54 -165 53q-50 1 -82 -19t-32 -50
t28 -46.5t106 -34.5q124 -27 180.5 -76t59.5 -138q3 -94 -68 -154q-72 -59 -192 -58q-85 2 -156 30q-68 28 -94 54zM251 0h96l-15 -35q40 -5 61 -24.5t20 -55.5q0 -43 -32 -67.5t-84 -24.5q-69 0 -116 36q-8 6 -2 12l21 36q4 4 12 1q41 -16 72 -16q18 0 29 8t11 20
q0 26 -48 26h-52q-10 0 -5 9z" />
    <glyph glyph-name="scedilla" unicode="&#x15f;" horiz-adv-x="448" 
d="M37 43q-8 5 -3 14l44 88q3 8 14 3q59 -32 111 -37q34 -3 58 5.5t24 22.5q0 15 -19 24.5t-75 25.5l-13 4q-141 39 -144 143q-3 72 54 113q58 41 144 40q49 -1 94 -17.5t70 -35.5q8 -6 3 -14l-44 -83q-4 -8 -16 -4l-6 3l-14 7t-13 6q-26 12 -58 16q-34 5 -59 -4t-25 -24
q0 -14 19 -24t65 -22q87 -19 126.5 -52t40.5 -94q1 -72 -51 -115q-53 -42 -138 -41q-62 0 -116 18q-55 19 -73 34zM177 0h101l-16 -37q43 -5 65 -25.5t21 -58.5q-1 -46 -35 -71.5t-88 -25.5q-70 0 -122 38q-7 5 -2 13l22 37q5 5 13 2q42 -17 76 -17q19 0 30.5 8t11.5 21
q0 28 -51 28h-54q-11 0 -6 9z" />
    <glyph glyph-name="Scaron" unicode="&#x160;" horiz-adv-x="588" 
d="M41 74q-7 4 -2 13l58 103q7 10 16 2q23 -21 78 -44q53 -22 111 -22q49 0 80.5 18.5t31.5 50.5q0 59 -132 83q-123 22 -181 71t-61 138q-3 95 67 156q71 62 190 60q78 -2 136 -24q59 -23 81 -43q8 -5 3 -14l-47 -106q-4 -9 -14 -3q-80 54 -165 53q-50 1 -82 -19t-32 -50
t28 -46.5t106 -34.5q124 -27 180.5 -76t59.5 -138q3 -94 -68 -154q-72 -59 -192 -58q-85 2 -156 30q-68 28 -94 54zM242 852l53 -47l52 47q6 6 13 6h107q14 0 4 -10l-118 -109q-6 -6 -15 -6h-87q-7 0 -15 6l-117 109q-5 4 -3.5 7t7.5 3h107q4 0 12 -6z" />
    <glyph glyph-name="scaron" unicode="&#x161;" horiz-adv-x="449" 
d="M38 43q-8 5 -3 14l44 88q3 8 14 3q59 -32 111 -37q34 -3 58 5.5t24 22.5q0 15 -19 24.5t-75 25.5l-13 4q-141 39 -144 143q-3 72 54 113q58 41 144 40q49 -1 94 -17.5t70 -35.5q8 -6 3 -14l-44 -83q-4 -8 -16 -4l-6 3l-14 7t-13 6q-26 12 -58 16q-34 5 -59 -4t-25 -24
q0 -14 19 -24t65 -22q87 -19 126.5 -52t40.5 -94q1 -72 -51 -115q-53 -42 -138 -41q-62 0 -116 18q-55 19 -73 34zM65 691h96q8 0 13 -5l46 -72l47 71q5 6 12 6h97q12 0 4 -8l-99 -139q-4 -7 -14 -7h-94q-9 0 -13 7l-100 138q-6 9 5 9z" />
    <glyph glyph-name="uni0162" unicode="&#x162;" horiz-adv-x="550" 
d="M344 684v-675q0 -9 -10 -9h-118q-9 0 -9 9v675q0 9 9 9h118q10 0 10 -9zM18 573v111q0 9 10 9h495q10 0 10 -9v-111q0 -10 -11 -10h-495q-9 0 -9 10z" />
    <glyph glyph-name="uni0163" unicode="&#x163;" horiz-adv-x="339" 
d="M288 138q11 6 14 -1l33 -98q5 -11 -2 -14q-13 -12 -44.5 -23t-63.5 -11q-65 0 -102 43t-36 119l1 468q0 10 9 10h110q9 0 9 -10l-1 -393q1 -64 8 -84.5t28 -20.5q17 0 37 15zM18 367v101q0 10 10 10h278q10 0 10 -10v-101q0 -10 -10 -10h-278q-10 0 -10 10z" />
    <glyph glyph-name="Tcaron" unicode="&#x164;" horiz-adv-x="550" 
d="M207 9v555h-180q-9 0 -9 9v111q0 10 10 10h495q9 0 9 -10v-111q0 -9 -9 -9h-180v-555q0 -9 -9 -9h-118q-9 0 -9 9zM222 852l53 -47l52 47q6 6 13 6h107q14 0 4 -10l-118 -109q-6 -6 -15 -6h-87q-7 0 -15 6l-117 109q-5 4 -3.5 7t7.5 3h107q4 0 12 -6z" />
    <glyph glyph-name="tcaron" unicode="&#x165;" horiz-adv-x="425" 
d="M216 357v-129q0 -63 6.5 -83.5t28.5 -20.5q12 0 38 14q10 5 14 -4l31 -95q5 -11 -3 -16q-43 -33 -106 -32q-65 0 -102 43.5t-36 118.5v204h-59q-10 0 -10 9v102q0 10 10 10h59l1 143q0 10 9 10h109q10 0 10 -10v-143h90q10 0 10 -10v-102q0 -9 -10 -9h-90zM312 607
q-3 0 -4 1q-37 13 -37 60q0 29 18 47.5t47 18.5q27 0 45 -17.5t20 -44.5q6 -56 -31 -99q-35 -42 -84 -50q-9 -2 -12 4l-18 35q-4 7 2 9q38 13 54 36z" />
    <glyph glyph-name="Tbar" unicode="&#x166;" horiz-adv-x="550" 
d="M532 684v-111q0 -9 -9 -9h-180v-168h93q10 0 10 -9v-47q0 -9 -10 -9h-93v-322q0 -9 -9 -9h-118q-9 0 -9 9v322h-93q-9 0 -9 9v47q0 9 9 9h93v168h-180q-9 0 -9 9v111q0 10 10 10h495q9 0 9 -10z" />
    <glyph glyph-name="tbar" unicode="&#x167;" horiz-adv-x="338" 
d="M292 222h-76v-16q1 -48 8 -65t27 -17q12 0 38 14q10 5 14 -4l31 -95q5 -11 -3 -16q-43 -33 -106 -32q-65 0 -102 43.5t-36 118.5v69h-58q-9 0 -9 10v47q0 9 9 9h58v69h-59q-10 0 -10 9v102q0 10 10 10h59l1 143q0 10 9 10h109q10 0 10 -10v-143h90q10 0 10 -10v-102
q0 -9 -10 -9h-90v-69h76q9 0 9 -9v-47q0 -10 -9 -10z" />
    <glyph glyph-name="Utilde" unicode="&#x168;" horiz-adv-x="494" 
d="M-25 272v412q0 9 10 9h118q9 0 9 -9v-413q0 -66 37 -105t98 -39t97.5 39t35.5 105v413q0 9 10 9h118q9 0 9 -9v-413q0 -133 -78 -207q-76 -73 -192 -73q-114 0 -194 74q-78 73 -78 207zM135 743q-4 -12 -12 -4l-33 35q-6 6 -4 12q14 41 42 66t57 25q23 0 41 -11.5
t27.5 -25t23 -25t28.5 -11.5q34 1 53 47q1 5 4.5 6.5t7.5 -2.5l35 -36q6 -4 3 -10q-12 -41 -40.5 -66.5t-59.5 -25.5q-28 0 -48.5 18.5t-37 37t-34.5 18.5q-33 -1 -53 -48z" />
    <glyph glyph-name="utilde" unicode="&#x169;" horiz-adv-x="559" 
d="M393 10l-10 45q-58 -67 -156 -67q-79 0 -127 58t-48 156l-1 265q0 11 10 11h111q10 0 10 -11v-238q0 -118 93 -118q42 0 69 33.5t31 99.5v223q0 11 10 11h110q10 0 10 -10v-458q0 -10 -10 -10h-89q-10 0 -13 10zM173 552q-6 -11 -13 -4l-33 34q-4 4 -2 10q12 40 39 64.5
t56 24.5q22 0 39 -11t26.5 -24.5t22.5 -24.5t27 -11q35 2 51 47q4 10 11 3l34 -35q4 -4 3 -8q-12 -40 -39 -65t-57 -25q-21 0 -38.5 11.5t-27 24.5t-23 24.5t-27.5 11.5q-34 -1 -49 -47z" />
    <glyph glyph-name="Umacron" unicode="&#x16a;" horiz-adv-x="675" 
d="M66 272v412q0 9 10 9h118q9 0 9 -9v-413q0 -66 37 -105t98 -39t97.5 39t35.5 105v413q0 9 10 9h118q9 0 9 -9v-413q0 -133 -78 -207q-76 -73 -192 -73q-114 0 -194 74q-78 73 -78 207zM209 839h258q9 0 9 -10v-70q0 -9 -9 -9h-258q-10 0 -10 9v70q0 10 10 10z" />
    <glyph glyph-name="umacron" unicode="&#x16b;" horiz-adv-x="559" 
d="M393 10l-10 45q-58 -67 -156 -67q-79 0 -127 58t-48 156l-1 265q0 11 10 11h111q10 0 10 -11v-238q0 -118 93 -118q42 0 69 33.5t31 99.5v223q0 11 10 11h110q10 0 10 -10v-458q0 -10 -10 -10h-89q-10 0 -13 10zM150 667h253q12 -1 12 -12v-69q0 -12 -12 -12h-253
q-12 0 -12 10v71q0 12 12 12z" />
    <glyph glyph-name="Ubreve" unicode="&#x16c;" horiz-adv-x="675" 
d="M66 272v412q0 9 10 9h118q9 0 9 -9v-413q0 -66 37 -105t98 -39t97.5 39t35.5 105v413q0 9 10 9h118q9 0 9 -9v-413q0 -133 -78 -207q-76 -73 -192 -73q-114 0 -194 74q-78 73 -78 207zM409 866l65 1q8 0 8 -9q-2 -62 -40.5 -95t-104.5 -33q-65 0 -103.5 33.5t-41.5 94.5
q0 9 10 9h64q8 0 10 -9q2 -20 19.5 -34t41.5 -14q26 0 43 13.5t19 34.5q2 8 10 8z" />
    <glyph glyph-name="ubreve" unicode="&#x16d;" horiz-adv-x="559" 
d="M393 10l-10 45q-58 -67 -156 -67q-79 0 -127 58t-48 156l-1 265q0 11 10 11h111q10 0 10 -11v-238q0 -118 93 -118q42 0 69 33.5t31 99.5v223q0 11 10 11h110q10 0 10 -10v-458q0 -10 -10 -10h-89q-10 0 -13 10zM347 682h64q9 0 9 -10q-2 -65 -42 -104.5t-104 -39.5
q-62 0 -101.5 39.5t-42.5 104.5q0 10 10 10h64q9 0 9 -10q3 -27 20 -43.5t41 -16.5q26 0 43 16.5t20 43.5q1 10 10 10z" />
    <glyph glyph-name="Uring" unicode="&#x16e;" horiz-adv-x="675" 
d="M66 272v412q0 9 10 9h118q9 0 9 -9v-413q0 -66 37 -105t98 -39t97.5 39t35.5 105v413q0 9 10 9h118q9 0 9 -9v-413q0 -133 -78 -207q-76 -73 -192 -73q-114 0 -194 74q-78 73 -78 207zM267 737q-26 28 -26 70q0 43 26 69q27 27 70 27t69 -27q27 -26 27 -69t-27 -70
q-26 -26 -69 -26q-42 0 -70 26zM305 807q0 -15 9 -24.5t23 -9.5q15 0 24 9.5t9 24.5q0 14 -9 23t-24 9q-14 0 -23 -9t-9 -23z" />
    <glyph glyph-name="uring" unicode="&#x16f;" horiz-adv-x="559" 
d="M393 10l-10 45q-58 -67 -156 -67q-79 0 -127 58t-48 156l-1 265q0 11 10 11h111q10 0 10 -11v-238q0 -118 93 -118q42 0 69 33.5t31 99.5v223q0 11 10 11h110q10 0 10 -10v-458q0 -10 -10 -10h-89q-10 0 -13 10zM276 513q-43 0 -69.5 26.5t-26.5 69.5t26.5 69.5
t69.5 26.5t69.5 -26.5t26.5 -69.5t-26 -69.5t-70 -26.5zM244 609q0 -15 9 -24t23 -9q15 0 24.5 9t9.5 24q0 14 -9.5 23t-24.5 9q-14 0 -23 -9t-9 -23z" />
    <glyph glyph-name="Uhungarumlaut" unicode="&#x170;" horiz-adv-x="675" 
d="M66 272v412q0 9 10 9h118q9 0 9 -9v-413q0 -66 37 -105t98 -39t97.5 39t35.5 105v413q0 9 10 9h118q9 0 9 -9v-413q0 -133 -78 -207q-76 -73 -192 -73q-114 0 -194 74q-78 73 -78 207zM433 894l66 -46q11 -5 3 -14l-101 -123q-4 -7 -13 -2l-43 32q-8 8 -4 14l77 135
q8 8 15 4zM277 894l70 -46q7 -8 2 -13l-101 -124q-6 -8 -13 -2l-44 32q-8 8 -4 14l77 136q6 7 13 3z" />
    <glyph glyph-name="uhungarumlaut" unicode="&#x171;" horiz-adv-x="559" 
d="M393 10l-10 45q-58 -67 -156 -67q-79 0 -127 58t-48 156l-1 265q0 11 10 11h111q10 0 10 -11v-238q0 -118 93 -118q42 0 69 33.5t31 99.5v223q0 11 10 11h110q10 0 10 -10v-458q0 -10 -10 -10h-89q-10 0 -13 10zM373 692l64 -41q11 -6 3 -14l-98 -124q-6 -8 -12 -2
l-42 29q-7 7 -3 14l74 135q7 9 14 3zM224 693l67 -42q8 -6 2 -14l-98 -124q-6 -8 -13 -2l-42 29q-8 8 -3 15l74 135q7 7 13 3z" />
    <glyph glyph-name="Uogonek" unicode="&#x172;" horiz-adv-x="675" 
d="M66 272v412q0 9 10 9h118q9 0 9 -9v-413q0 -66 37 -105t98 -39t97.5 39t35.5 105v413q0 9 10 9h118q9 0 9 -9v-413q0 -133 -78 -207q-76 -73 -192 -73q-114 0 -194 74q-78 73 -78 207zM404 -176q-13 -17 -39.5 -27.5t-54.5 -10.5q-52 0 -80.5 26.5t-29.5 72.5q0 41 33 80
t98 86l43 -50q-57 -57 -70 -80q-22 -31 3 -48q10 -7 22.5 -6t20.5 11q5 6 10 1l44 -43q4 -4 0 -12z" />
    <glyph glyph-name="uogonek" unicode="&#x173;" horiz-adv-x="559" 
d="M393 10l-10 45q-58 -67 -156 -67q-79 0 -127 58t-48 156l-1 265q0 11 10 11h111q10 0 10 -11v-238q0 -118 93 -118q42 0 69 33.5t31 99.5v223q0 11 10 11h110q10 0 10 -10v-458q0 -10 -10 -10h-89q-10 0 -13 10zM533 -173q-13 -17 -39.5 -27.5t-54.5 -10.5
q-52 0 -80.5 26.5t-29.5 72.5q0 71 131 166l43 -50q-55 -56 -70 -80q-22 -31 4 -49q9 -6 21.5 -4.5t20.5 10.5q5 6 10 1l44 -44q5 -5 0 -11z" />
    <glyph glyph-name="Wcircumflex" unicode="&#x174;" horiz-adv-x="942" 
d="M205 8l-204 676q-3 10 8 10h119q10 0 11 -9l130 -472l137 472q2 9 12 9h105q9 0 11 -9l139 -477l132 479q1 7 9 7h119q11 0 8 -10l-204 -676q-3 -8 -12 -8h-101q-8 0 -11 8l-142 514l-143 -514q-2 -8 -10 -8h-103q-8 0 -10 8zM429 863h83q8 0 14 -6l112 -104
q5 -4 3.5 -6.5t-6.5 -2.5h-102q-7 0 -12 5l-50 45l-50 -45q-8 -5 -11 -5h-103q-13 0 -4 9l112 104q10 6 14 6z" />
    <glyph glyph-name="wcircumflex" unicode="&#x175;" horiz-adv-x="677" 
d="M537 0h-117q-9 0 -12 8l-70 282l-71 -282q-3 -8 -12 -8h-114q-9 0 -11 8l-128 460q-4 10 6 10h126q8 0 10 -9l60 -284l77 284q3 9 11 9h93q11 0 12 -9l77 -301l58 301q2 9 10 9h126q10 0 7 -10l-126 -460q-3 -8 -12 -8zM280 532h-98q-10 0 -4 8l100 140q4 6 14 7h93
q7 0 14 -7l99 -139q7 -9 -4 -9h-97q-7 0 -12 5l-47 73l-46 -72q-4 -6 -12 -6z" />
    <glyph glyph-name="Ycircumflex" unicode="&#x176;" horiz-adv-x="619" 
d="M241 9v267l-238 405q-8 12 7 12h124q8 0 13 -8l163 -289l163 289q3 8 13 8h123q15 0 7 -12l-239 -404v-268q1 -9 -9 -9h-117q-10 0 -10 9zM359 745l-49 44l-50 -44q-8 -5 -12 -5h-102q-5 0 -6.5 2.5t2.5 5.5l112 104q8 7 14 7h83q7 0 14 -7l112 -104q5 -3 3.5 -5.5
t-7.5 -2.5h-101q-5 0 -13 5z" />
    <glyph glyph-name="ycircumflex" unicode="&#x177;" horiz-adv-x="505" 
d="M379 478h114q15 0 8 -13l-267 -684q-4 -9 -14 -9h-113q-14 0 -8 13l85 219l-181 461q-4 13 7 13h118q9 0 12 -9l106 -305l120 305q3 9 13 9zM92 533l100 140q4 6 14 7h93q7 0 14 -7l99 -139q8 -9 -4 -9h-97q-7 0 -12 5l-47 73l-46 -72q-4 -6 -12 -6h-98q-10 0 -4 8z" />
    <glyph glyph-name="Ydieresis" unicode="&#x178;" horiz-adv-x="619" 
d="M241 9v267l-238 405q-8 12 7 12h124q8 0 13 -8l163 -289l163 289q3 8 13 8h123q15 0 7 -12l-239 -404v-268q1 -9 -9 -9h-117q-10 0 -10 9zM165 797q0 30 18 48t47 18t47 -19q18 -18 18 -47t-18.5 -47t-46.5 -18q-30 0 -47.5 18t-17.5 47zM323 797q0 30 18 48t47 18
t46.5 -18.5t17.5 -47.5t-17.5 -47t-46.5 -18t-47 18t-18 47z" />
    <glyph glyph-name="Zacute" unicode="&#x179;" horiz-adv-x="602" 
d="M563 677l-317 -549h306q9 0 9 -10v-108q0 -10 -9 -10h-508q-16 0 -9 16l318 550h-275q-10 0 -10 9v109q0 10 10 10h476q20 0 9 -17zM383 894l47 -78q6 -11 -4 -15l-192 -93q-10 -4 -15 3l-26 43q-4 7 3 13l171 130q9 7 16 -3z" />
    <glyph glyph-name="zacute" unicode="&#x17a;" horiz-adv-x="459" 
d="M415 0h-374q-13 0 -7 13l188 344h-168q-10 0 -10 9v102q0 10 10 10h363q14 0 5 -17l-185 -340h178q9 0 9 -10v-101q0 -10 -9 -10zM318 711l57 -71q8 -7 -2 -14l-175 -116q-8 -6 -15 1l-31 39q-6 6 1 13l149 148q7 10 16 0z" />
    <glyph glyph-name="Zdotaccent" unicode="&#x17b;" horiz-adv-x="602" 
d="M563 677l-317 -549h306q9 0 9 -10v-108q0 -10 -9 -10h-508q-16 0 -9 16l318 550h-275q-10 0 -10 9v109q0 10 10 10h476q20 0 9 -17zM251 802q0 28 17 44.5t44 16.5q28 0 44 -16.5t16 -44.5q0 -27 -16.5 -44t-43.5 -17t-44 17t-17 44z" />
    <glyph glyph-name="zdotaccent" unicode="&#x17c;" horiz-adv-x="459" 
d="M415 0h-374q-13 0 -7 13l188 344h-168q-10 0 -10 9v102q0 10 10 10h363q14 0 5 -17l-185 -340h178q9 0 9 -10v-101q0 -10 -9 -10zM231 553q-29 0 -46.5 17.5t-17.5 46.5t17.5 46t46.5 17t45.5 -17t16.5 -46t-17 -46.5t-45 -17.5z" />
    <glyph glyph-name="Zcaron" unicode="&#x17d;" horiz-adv-x="602" 
d="M563 677l-317 -549h306q9 0 9 -10v-108q0 -10 -9 -10h-508q-16 0 -9 16l318 550h-275q-10 0 -10 9v109q0 10 10 10h476q20 0 9 -17zM248 852l53 -47l52 47q6 6 13 6h107q14 0 4 -10l-118 -109q-6 -6 -15 -6h-87q-7 0 -15 6l-117 109q-5 4 -3.5 7t7.5 3h107q4 0 12 -6z
" />
    <glyph glyph-name="zcaron" unicode="&#x17e;" horiz-adv-x="459" 
d="M414 0h-374q-14 0 -7 13l188 344h-168q-10 0 -10 9v102q0 10 10 10h363q14 0 5 -17l-185 -340h178q9 0 9 -10v-101q0 -10 -9 -10zM80 689h96q8 0 13 -5l46 -72l47 71q4 6 12 6h97q12 0 4 -8l-99 -139q-4 -7 -14 -7h-94q-10 0 -13 7l-100 138q-6 9 5 9z" />
    <glyph glyph-name="longs" unicode="&#x17f;" horiz-adv-x="312" 
d="M191 530l1 -520q0 -10 -10 -10h-111q-10 0 -10 10l-1 531q0 100 40.5 146t119.5 46q38 0 74 -13.5t51 -28.5q6 -5 3 -14l-40 -89q-3 -7 -13 -3q-34 20 -54 20q-25 0 -37 -17t-13 -58z" />
    <glyph glyph-name="florin" unicode="&#x192;" horiz-adv-x="481" 
d="M514 668l-63 -74q-8 -9 -16 -3q-33 22 -44 20q-30 0 -37 -46l-12 -87h79q12 0 10 -10l-14 -101q-1 -10 -10 -10h-82l-37 -265q-16 -108 -111 -147q-94 -40 -199 12q-10 3 -4 15l54 89q4 7 13 3q52 -24 87.5 -4t43.5 78l30 219h-71q-11 0 -10 10l15 101q3 10 11 10h72
l13 92q10 69 51 116q42 47 99 47q76 0 132 -47q10 -8 0 -18z" />
    <glyph glyph-name="uni0218" unicode="&#x218;" horiz-adv-x="588" 
d="M41 74q-7 4 -2 13l58 103q7 10 16 2q23 -21 78 -44q53 -22 111 -22q49 0 80.5 18.5t31.5 50.5q0 59 -132 83q-123 22 -181 71t-61 138q-3 95 67 156q71 62 190 60q78 -2 136 -24q59 -23 81 -43q8 -5 3 -14l-47 -106q-4 -9 -14 -3q-80 54 -165 53q-50 1 -82 -19t-32 -50
t28 -46.5t106 -34.5q124 -27 180.5 -76t59.5 -138q3 -94 -68 -154q-72 -59 -192 -58q-85 2 -156 30q-68 28 -94 54zM275 -151q-3 0 -4 1q-37 13 -37 60q0 29 18 47.5t47 18.5q27 0 45 -17.5t20 -44.5q6 -56 -31 -99q-35 -42 -84 -50q-9 -2 -12 4l-18 35q-4 7 2 9
q37 13 54 36z" />
    <glyph glyph-name="uni0219" unicode="&#x219;" horiz-adv-x="448" 
d="M37 43q-8 5 -3 14l44 88q3 8 14 3q59 -32 111 -37q34 -3 58 5.5t24 22.5q0 15 -19 24.5t-75 25.5l-13 4q-141 39 -144 143q-3 72 54 113q58 41 144 40q49 -1 94 -17.5t70 -35.5q8 -6 3 -14l-44 -83q-4 -8 -16 -4l-6 3l-14 7t-13 6q-26 12 -58 16q-34 5 -59 -4t-25 -24
q0 -14 19 -24t65 -22q87 -19 126.5 -52t40.5 -94q1 -72 -51 -115q-53 -42 -138 -41q-62 0 -116 18q-55 19 -73 34zM205 -151q-3 0 -4 1q-37 13 -37 60q0 29 18 47.5t47 18.5q27 0 45 -17.5t20 -44.5q6 -56 -31 -99q-35 -42 -84 -50q-9 -2 -12 4l-18 35q-4 7 2 9q37 13 54 36
z" />
    <glyph glyph-name="uni021A" unicode="&#x21a;" horiz-adv-x="550" 
d="M207 9v555h-180q-9 0 -9 9v111q0 10 10 10h495q9 0 9 -10v-111q0 -9 -9 -9h-180v-555q0 -9 -9 -9h-118q-9 0 -9 9zM248 -151q-3 0 -4 1q-37 13 -37 60q0 29 18 47.5t47 18.5q27 0 45 -17.5t20 -44.5q6 -56 -31 -99q-35 -42 -84 -50q-9 -2 -12 4l-18 35q-4 7 2 9
q38 13 54 36z" />
    <glyph glyph-name="uni021B" unicode="&#x21b;" horiz-adv-x="338" 
d="M216 357v-129q0 -63 6.5 -83.5t28.5 -20.5q12 0 38 14q10 5 14 -4l31 -95q5 -11 -3 -16q-43 -33 -106 -32q-65 0 -102 43.5t-36 118.5v204h-59q-10 0 -10 9v102q0 10 10 10h59l1 143q0 10 9 10h109q10 0 10 -10v-143h90q10 0 10 -10v-102q0 -9 -10 -9h-90zM153 -151
q-3 0 -4 1q-37 13 -37 60q0 29 18 47.5t47 18.5q27 0 45 -17.5t20 -44.5q6 -56 -31 -99q-35 -42 -84 -50q-9 -2 -12 4l-18 35q-4 7 2 9q37 13 54 36z" />
    <glyph glyph-name="uni0237" unicode="&#x237;" horiz-adv-x="259" 
d="M88 -48v521q0 10 10 10l110 -1q10 0 10 -10l1 -536q0 -82 -41 -129.5t-112 -46.5q-75 0 -118 40q-6 6 -2 14l40 93q6 13 17 4q23 -18 44 -18q39 0 41 59z" />
    <glyph glyph-name="circumflex" unicode="&#x2c6;" horiz-adv-x="369" 
d="M24 544l100 140q4 6 14 7h93q7 0 14 -7l99 -139q8 -9 -4 -9h-97q-7 0 -12 5l-47 73l-46 -72q-4 -6 -12 -6h-98q-10 0 -4 8z" />
    <glyph glyph-name="caron" unicode="&#x2c7;" horiz-adv-x="373" 
d="M31 690h96q8 0 13 -5l46 -72l47 71q5 6 12 6h97q12 0 4 -8l-99 -139q-4 -7 -14 -7h-94q-9 0 -13 7l-100 138q-6 9 5 9z" />
    <glyph glyph-name="uni02C9" unicode="&#x2c9;" horiz-adv-x="325" 
d="M34 696h257q10 0 10 -10v-66q0 -10 -10 -10h-257q-10 0 -10 10v66q0 10 10 10z" />
    <glyph glyph-name="breve" unicode="&#x2d8;" horiz-adv-x="338" 
d="M241 693h64q9 0 9 -9q-2 -65 -42 -104.5t-104 -40.5q-62 1 -101.5 40.5t-42.5 104.5q0 9 9 9h64q9 0 10 -9q3 -27 20 -43.5t41 -16.5q26 0 43.5 17t19.5 43q1 9 10 9z" />
    <glyph glyph-name="dotaccent" unicode="&#x2d9;" horiz-adv-x="198" 
d="M98 589q-29 0 -46.5 17.5t-17.5 46.5t17.5 46t46.5 17t45.5 -17t16.5 -46t-17 -46.5t-45 -17.5z" />
    <glyph glyph-name="ring" unicode="&#x2da;" horiz-adv-x="240" 
d="M119 727q44 0 70.5 -26t26.5 -69q0 -44 -26.5 -70t-70.5 -26q-43 0 -69 26.5t-26 69.5t26 69t69 26zM87 631q0 -20 16.5 -28t33 0t16.5 28t-16.5 28.5t-33 0t-16.5 -28.5z" />
    <glyph glyph-name="ogonek" unicode="&#x2db;" horiz-adv-x="245" 
d="M226 -177q-14 -17 -40.5 -27.5t-53.5 -10.5q-51 1 -80.5 29t-29.5 70q0 33 32 78l46 46l27 22q19 15 25 21l43 -51q-57 -57 -70 -80q-20 -32 4 -48q23 -17 41 5q4 5 11 1l45 -44q4 -4 0 -11z" />
    <glyph glyph-name="tilde" unicode="&#x2dc;" horiz-adv-x="372" 
d="M75 576q-6 -11 -13 -4l-34 36q-5 4 -4 10q14 41 42 66.5t58 25.5q29 0 49 -18t36 -36.5t35 -18.5q35 2 53 48q5 11 11 4l36 -37q4 -4 3 -9q-12 -42 -40.5 -67.5t-59.5 -25.5q-22 0 -40 11.5t-28.5 25.5t-24.5 25.5t-28 11.5q-34 -2 -51 -48z" />
    <glyph glyph-name="hungarumlaut" unicode="&#x2dd;" horiz-adv-x="368" 
d="M272 733l67 -44q11 -6 3 -14l-102 -130q-7 -7 -13 -2l-44 32q-7 6 -3 13l78 140q4 10 14 5zM116 733l70 -44q9 -6 3 -14l-103 -130q-4 -7 -12 -2l-45 31q-8 8 -4 14l78 141q6 8 13 4z" />
    <glyph glyph-name="uni0313" unicode="&#x313;" horiz-adv-x="222" 
d="M65 -151q-3 0 -4 1q-37 13 -37 60q0 29 18 47.5t47 18.5q27 0 45 -17.5t20 -44.5q6 -56 -31 -99q-35 -42 -84 -50q-9 -2 -12 4l-18 35q-4 7 2 9q37 13 54 36z" />
    <glyph glyph-name="uni0394" unicode="&#x394;" horiz-adv-x="658" 
d="M356 676l-264 -666l-1 -1q-3 -9 -13 -9h-53q-14 0 -10 13l274 670q4 10 14 10h52zM303 693h52h-1q11 0 15 -10l273 -668q4 -15 -10 -15h-45q-11 0 -14 10l-270 666v17zM591 0h-519v66h519v-66z" />
    <glyph glyph-name="uni03A9" unicode="&#x3a9;" horiz-adv-x="797" 
d="M674 138l86 1q4 0 8 -4.5t4 -8.5v-113q0 -4 -4 -8.5t-8 -4.5h-261q-10 0 -9 10v126q57 23 91 81q35 61 35 130q0 99 -60 161q-59 62 -157 62q-97 0 -159 -62q-60 -62 -60 -161q0 -69 38 -128q38 -57 98 -80v-129q-1 -10 -10 -10h-261q-4 0 -7.5 4t-3.5 8v115q0 4 3.5 8
t7.5 4h77q-79 86 -79 208q0 161 97 258q98 98 259 98q159 0 257 -98q98 -97 99 -258q-2 -122 -81 -209z" />
    <glyph glyph-name="uni03BC" unicode="&#x3bc;" horiz-adv-x="562" 
d="M168 -227h-98q-16 0 -16 16v678q0 11 11 11h110q10 0 10 -11v-238q0 -118 93 -118q42 0 69.5 34t30.5 99v223q0 11 10 11h110q10 0 10 -10v-458q0 -10 -10 -10h-91q-9 0 -10 10l-11 45q-58 -67 -155 -67q-27 0 -47 9v-208q0 -16 -16 -16z" />
    <glyph glyph-name="pi" unicode="&#x3c0;" horiz-adv-x="540" 
d="M14 366v101q0 10 11 12h490q11 -2 11 -12v-101q0 -11 -10 -11h-47v-345q0 -10 -9 -10h-104q-10 0 -10 10v345h-151v-345q0 -10 -9 -10h-105q-9 0 -9 10v345h-47q-11 0 -11 11z" />
    <glyph glyph-name="Wgrave" unicode="&#x1e80;" horiz-adv-x="942" 
d="M205 8l-204 676q-3 10 8 10h119q10 0 11 -9l130 -472l137 472q2 9 12 9h105q9 0 11 -9l139 -477l132 479q1 7 9 7h119q11 0 8 -10l-204 -676q-3 -8 -12 -8h-101q-8 0 -11 8l-142 514l-143 -514q-2 -8 -10 -8h-103q-8 0 -10 8zM520 714l-192 93q-12 6 -4 14l47 79
q5 11 17 3l170 -130q6 -7 2 -14l-25 -42q-6 -7 -15 -3z" />
    <glyph glyph-name="wgrave" unicode="&#x1e81;" horiz-adv-x="677" 
d="M162 0l-1 23l120 446q3 9 11 9h75q7 0 11 -5t2 -12l-113 -452q-3 -9 -12 -9h-93zM239 12l-4 -12h-94q-9 0 -11 8l-128 461q-3 9 6 9h125q9 0 11 -9zM455 0l-10 11l87 458q2 9 11 9h126q7 0 6 -10l-126 -459q-3 -9 -11 -9h-83zM507 31l2 -31h-89q-10 0 -12 9l-108 438
q-5 30 -6 31h20h72q10 0 11 -9zM363 508l-174 116q-11 8 -2 15l57 71q6 10 17 1l148 -150q7 -7 1 -13l-32 -39q-7 -6 -15 -1z" />
    <glyph glyph-name="Wacute" unicode="&#x1e82;" horiz-adv-x="942" 
d="M205 8l-204 676q-3 10 8 10h119q10 0 11 -9l130 -472l137 472q2 9 12 9h105q9 0 11 -9l139 -477l132 479q1 7 9 7h119q11 0 8 -10l-204 -676q-3 -8 -12 -8h-101q-8 0 -11 8l-142 514l-143 -514q-2 -8 -10 -8h-103q-8 0 -10 8zM532 894l47 -78q6 -11 -4 -15l-192 -93
q-11 -4 -15 3l-26 43q-4 7 3 13l171 130q9 7 16 -3z" />
    <glyph glyph-name="wacute" unicode="&#x1e83;" horiz-adv-x="677" 
d="M537 0h-117q-9 0 -12 8l-70 282l-71 -282q-3 -8 -12 -8h-114q-9 0 -11 8l-128 460q-4 10 6 10h126q8 0 10 -9l60 -284l77 284q3 9 11 9h93q11 0 12 -9l77 -301l58 301q2 9 10 9h126q10 0 7 -10l-126 -460q-3 -8 -12 -8zM404 711l57 -71q7 -7 -1 -14l-175 -116
q-9 -7 -15 1l-32 39q-5 5 1 13l149 148q9 10 16 0z" />
    <glyph glyph-name="Wdieresis" unicode="&#x1e84;" horiz-adv-x="942" 
d="M205 8l-204 676q-3 10 8 10h119q10 0 11 -9l130 -472l137 472q2 9 12 9h105q9 0 11 -9l139 -477l132 479q1 7 9 7h119q11 0 8 -10l-204 -676q-3 -8 -12 -8h-101q-8 0 -11 8l-142 514l-143 -514q-2 -8 -10 -8h-103q-8 0 -10 8zM328 797q0 29 17 48q18 18 47 18t47 -19
q18 -18 18 -47t-18.5 -47t-46.5 -18q-30 0 -47.5 18t-16.5 47zM485 797q0 30 18 48t47 18t47 -18.5t18 -47.5t-18 -47t-47 -18t-47 18t-18 47z" />
    <glyph glyph-name="wdieresis" unicode="&#x1e85;" horiz-adv-x="677" 
d="M537 0h-117q-9 0 -12 8l-70 282l-71 -282q-3 -8 -12 -8h-114q-9 0 -11 8l-128 460q-4 10 6 10h126q8 0 10 -9l60 -284l77 284q3 9 11 9h93q11 0 12 -9l77 -301l58 301q2 9 10 9h126q10 0 7 -10l-126 -460q-3 -8 -12 -8zM211 552q-17 18 -17 47t17 47q18 19 47 19t47 -19
q18 -18 18 -47t-18 -47t-47 -18t-47 18zM369 552q-18 18 -18 47t18 47q18 19 47 19t47 -19q19 -18 19 -47t-19 -47q-18 -18 -47 -18t-47 18z" />
    <glyph glyph-name="LatinCapitalLetterSharpS" unicode="&#x1e9e;" horiz-adv-x="632" 
d="M347 127q26 -17 53 -17q26 1 40 14t14 30q0 40 -72 98q-72 62 -72 130q0 34 38 81q39 46 39 67q0 25 -19.5 39t-51.5 14q-58 0 -84.5 -41.5t-28.5 -134.5v-396q1 -5 -2.5 -8t-9.5 -3h-112q-13 0 -13 12v460q0 111 67 171q66 60 176 62q91 -1 153 -48q61 -46 61 -127
q2 -29 -19.5 -57.5t-44.5 -52.5t-24 -41q0 -15 16 -30t39 -31t46 -35.5t39 -52.5t16 -74q1 -81 -53 -132t-141 -51q-50 0 -101 27q-9 4 -5 16l42 107q4 9 14 4z" />
    <glyph glyph-name="endash" unicode="&#x2013;" horiz-adv-x="579" 
d="M88 348h401q12 0 12 -12v-88q0 -12 -12 -12h-401q-12 0 -12 12v88q0 12 12 12z" />
    <glyph glyph-name="emdash" unicode="&#x2014;" horiz-adv-x="845" 
d="M88 348h669q12 0 12 -12v-89q0 -11 -12 -11h-669q-12 0 -12 11v89q0 12 12 12z" />
    <glyph glyph-name="quoteleft" unicode="&#x2018;" horiz-adv-x="200" 
d="M141 720l41 -34q8 -4 -1 -13q-60 -46 -75 -107h2q1 -1 2 -1q25 -5 39 -24t14 -47q0 -33 -20 -53.5t-53 -20.5q-31 0 -51 18.5t-22 49.5q-7 68 27 138q34 71 83 97q5 5 14 -3z" />
    <glyph glyph-name="quoteright" unicode="&#x2019;" horiz-adv-x="200" 
d="M58 426l-42 35q-8 5 1 12q60 47 75 108h-4q-53 14 -53 72q0 34 20 54t54 20q31 0 51 -18.5t22 -50.5q7 -64 -28 -138q-35 -71 -82 -97q-6 -5 -14 3z" />
    <glyph glyph-name="quotesinglbase" unicode="&#x201a;" horiz-adv-x="220" 
d="M70 -176l-42 34q-8 4 1 13q60 45 75 107h-1q-1 1 -2 1q-25 5 -39.5 24t-14.5 47q0 33 20 53.5t54 20.5q31 0 51 -18.5t21 -49.5q7 -68 -27 -138q-34 -72 -82 -97q-7 -4 -14 3z" />
    <glyph glyph-name="quotedblleft" unicode="&#x201c;" horiz-adv-x="368" 
d="M140 720l42 -34q8 -4 -1 -13q-60 -45 -75 -107h1q1 -1 2 -1q25 -5 39.5 -24t14.5 -47q0 -33 -20 -53.5t-54 -20.5q-31 0 -51 18.5t-21 49.5q-7 68 27 138q34 72 82 97q7 4 14 -3zM273 566h1l2 -1q25 -5 39.5 -24t14.5 -47q0 -33 -20 -53.5t-53 -20.5q-31 0 -51 18.5
t-22 49.5q-8 68 27 138q34 71 83 97q5 5 14 -3l41 -34q7 -4 -1 -13q-60 -46 -75 -107z" />
    <glyph glyph-name="quotedblright" unicode="&#x201d;" horiz-adv-x="375" 
d="M231 426l-42 34q-7 6 2 13q60 46 75 107h-2l-2 1q-25 5 -39.5 24t-13.5 47q0 33 20 53.5t53 20.5q31 0 51 -18.5t21 -49.5q7 -67 -27 -139q-35 -72 -82 -97q-7 -3 -14 4zM98 580h-1q-1 1 -2 1q-25 5 -39.5 24t-14.5 47q0 33 20 53.5t54 20.5q31 0 51 -18.5t21 -49.5
q7 -67 -27 -139q-35 -72 -82 -97q-7 -3 -14 4l-42 34q-8 4 1 13q60 45 75 107z" />
    <glyph glyph-name="quotedblbase" unicode="&#x201e;" horiz-adv-x="388" 
d="M237 -179l-42 34q-7 6 2 13q60 46 75 107q-1 0 -2 1h-2q-25 5 -39.5 24t-13.5 47q0 33 20 53.5t53 20.5q31 0 51 -18.5t21 -49.5q8 -67 -27 -138q-35 -73 -82 -98q-7 -3 -14 4zM104 -25l-1 1h-2q-25 5 -39.5 24t-14.5 47q0 33 20 53.5t54 20.5q31 0 51 -18.5t21 -49.5
q7 -67 -27 -138q-35 -73 -82 -98q-7 -3 -14 4l-42 34q-7 5 1 13q60 45 75 107z" />
    <glyph glyph-name="dagger" unicode="&#x2020;" horiz-adv-x="424" 
d="M385 411h-109v-511q0 -10 -10 -10h-108q-10 0 -10 10v511h-110q-9 0 -9 9v111q0 9 9 9h110v172q0 10 10 10h108q10 0 10 -10v-172h109q10 0 10 -9v-111q0 -9 -10 -9z" />
    <glyph glyph-name="daggerdbl" unicode="&#x2021;" horiz-adv-x="424" 
d="M148 101h-110q-10 0 -10 9v110q0 10 10 10h110v181h-110q-9 0 -9 9v111q0 9 9 9h110v172q0 10 10 10h108q10 0 10 -10v-172h110q9 0 9 -9v-111q0 -9 -9 -9h-110v-181h109q10 0 10 -10v-110q0 -9 -10 -9h-109v-201q0 -10 -10 -10h-108q-10 0 -10 10v201z" />
    <glyph glyph-name="bullet" unicode="&#x2022;" horiz-adv-x="375" 
d="M346 324q0 -71 -43.5 -115t-114.5 -44t-114 44t-43 115t43 113.5t114 42.5t114.5 -43t43.5 -113z" />
    <glyph glyph-name="ellipsis" unicode="&#x2026;" horiz-adv-x="790" 
d="M584 64q0 34 20.5 54.5t53.5 20.5t53.5 -20.5t20.5 -54.5q0 -33 -20.5 -53.5t-53.5 -20.5t-53.5 20.5t-20.5 53.5zM132 139q33 0 53.5 -20.5t20.5 -54.5q0 -33 -21 -53.5t-53 -20.5q-34 0 -54.5 20.5t-19.5 53.5q0 34 20 54.5t54 20.5zM396 -10q-34 0 -54 20.5t-20 53.5
q0 34 20.5 54.5t53.5 20.5t53.5 -20.5t20.5 -54.5q0 -33 -20.5 -53.5t-53.5 -20.5z" />
    <glyph glyph-name="perthousand" unicode="&#x2030;" horiz-adv-x="1181" 
d="M65 420q-49 49 -49 129t49 129t129 49t128 -49q49 -49 49 -129t-49 -129q-48 -48 -128 -48t-129 48zM132 549q0 -27 17 -44t45 -17t44.5 16.5t16.5 44.5t-16.5 45t-44.5 17t-45 -17t-17 -45zM598 106q28 0 45 16.5t17 44.5t-17 45t-45 17t-44.5 -17t-16.5 -45t17 -44.5
t44 -16.5zM470 38q-49 49 -49 129t49 129t129 49t128 -49q49 -49 49 -129t-49 -129q-48 -48 -128 -48q-79 0 -129 48zM855 38q-49 49 -49 129t49 129t129 49t128 -49q49 -49 49 -129t-49 -129q-48 -48 -128 -48t-129 48zM939 212q-17 -17 -17 -45t17 -45q17 -16 45 -16
t44 16q17 17 17 45t-17 45q-16 17 -44 17t-45 -17zM138 14l396 701q4 7 14 7h106q5 0 8 -3.5t1 -7.5l-397 -704q-4 -7 -14 -7h-104q-18 0 -10 14z" />
    <glyph glyph-name="guilsinglleft" unicode="&#x2039;" horiz-adv-x="341" 
d="M229 450l55 -55q10 -10 1 -19l-107 -110l107 -110q10 -8 -1 -19l-55 -55q-12 -10 -21 0l-148 155q-8 8 -8 20v18q0 12 8 20l148 155q9 10 21 0z" />
    <glyph glyph-name="guilsinglright" unicode="&#x203a;" horiz-adv-x="341" 
d="M58 395l56 55q10 10 21 0l148 -155q8 -10 8 -20v-18q0 -10 -8 -20l-148 -155q-11 -10 -21 0l-56 55q-9 11 0 19l107 110l-107 110q-10 8 0 19z" />
    <glyph glyph-name="fraction" unicode="&#x2044;" horiz-adv-x="528" 
d="M3 14l395 701q4 7 14 7h106q14 0 8 -13l-396 -702q-4 -7 -14 -7h-104q-18 0 -9 14z" />
    <glyph glyph-name="franc" unicode="&#x20a3;" horiz-adv-x="500" 
d="M206 134v-123q0 -11 -10 -11h-116q-10 0 -10 10v124h-41q-10 0 -10 10v44q0 10 10 10h41v486q0 10 10 10h395q10 0 10 -10v-111q0 -9 -10 -9h-269v-146h221q10 0 10 -10v-108q0 -10 -10 -10h-221v-92h117q10 0 10 -10v-44q0 -10 -10 -10h-117z" />
    <glyph glyph-name="lira" unicode="&#x20a4;" horiz-adv-x="522" 
d="M255 122h177q12 0 12 -11v-98q0 -13 -13 -13h-339q-5 0 -8 5t-1 9q48 107 61 178h-76q-12 0 -12 13v37q0 14 12 14h82q-2 30 -9 54h-72q-13 0 -13 13v37q0 14 13 14h45q-34 71 -34 136q2 84 58 138q56 55 142 55q110 0 182 -86q8 -7 -1 -16l-74 -79q-8 -8 -17 2
q-41 51 -91 51q-30 -1 -48.5 -19t-18.5 -46q0 -21 6 -42q14 -36 20 -49q11 -24 19 -45h103q6 1 9.5 -3t3.5 -11v-37q0 -13 -13 -13h-86q4 -19 4 -54h82q12 0 12 -14v-37q0 -7 -3 -10.5t-9 -2.5h-88q-7 -37 -17 -70z" />
    <glyph glyph-name="peseta" unicode="&#x20a7;" horiz-adv-x="1106" 
d="M295 259h-124v-249q0 -10 -10 -10h-116q-11 0 -11 10l1 673q0 11 10 11h250q102 0 162 -61q59 -59 61 -156q-2 -96 -61 -157q-60 -61 -162 -61zM280 564h-109v-174l110 -1q46 0 73 22t27 65q0 44 -27.5 66.5t-73.5 21.5zM546 631h109q10 0 10 -9v-144h90q9 0 9 -10v-101
q0 -10 -9 -10h-91v-129q0 -64 6.5 -84t29.5 -20q10 0 41 21q8 7 13 -2l29 -104q3 -11 -1 -15q-44 -35 -109 -33q-64 0 -101 43.5t-37 118.5l1 204h-60q-9 0 -9 10v101q0 10 9 10h60v143q0 10 10 10zM701 43q-8 6 -3 14l44 89q4 7 13 2q59 -32 112 -37q34 -3 58 5.5t24 22.5
q0 11 -14 20q-15 12 -82 31q-1 0 -5 1.5t-6 1.5q-139 39 -144 143q-2 73 55 113q58 41 143 40q49 -1 94 -17t70 -35q8 -7 3 -15l-43 -82q-7 -10 -17 -5q-54 28 -90 32q-34 5 -59.5 -4t-24.5 -24q0 -15 18 -24.5t65 -21.5q87 -19 126.5 -52t41.5 -94q1 -72 -51 -115
q-53 -42 -138 -41q-62 0 -116 18q-56 19 -74 34z" />
    <glyph glyph-name="Euro" unicode="&#x20ac;" horiz-adv-x="622" 
d="M459 206l94 -59q7 -5 2 -14q-31 -68 -82.5 -105t-116.5 -37q-84 0 -144.5 59.5t-83.5 164.5h-76q-12 0 -12 14v37q0 14 12 14h65q-3 33 -3 67v2h-62q-12 0 -12 14v37q0 14 12 14h65q13 132 78 210q64 79 161 79q70 0 124 -42.5t84 -119.5q4 -10 -4 -15l-97 -59
q-10 -7 -15 4q-19 55 -40 79t-53 24q-38 0 -65 -43.5t-35 -116.5h94q13 0 13 -14v-37q0 -14 -13 -14h-98v-2q0 -42 4 -67h94q13 0 13 -14v-37q0 -14 -13 -14h-82q13 -45 36 -70.5t52 -25.5q53 0 88 84q5 11 16 3z" />
    <glyph glyph-name="uni2113" unicode="&#x2113;" horiz-adv-x="449" 
d="M240 703q71 0 119 -48q49 -46 49 -133q0 -152 -199 -264q0 -176 62 -176q17 0 35 23q4 6 13.5 25t10.5 20q2 5 10 3l90 -41q7 -4 4 -10q-52 -132 -162 -132q-155 0 -181 233l-28 -10q-10 -3 -13 5l-40 93q-4 11 5 13q43 13 69 23q1 34 -0.5 81t7 98.5t22.5 95.5t47 72.5
t80 28.5zM250 581q-45 -15 -42 -185q66 46 75 99q9 31 6.5 52t-13 30t-26.5 4z" />
    <glyph glyph-name="trademark" unicode="&#x2122;" horiz-adv-x="684" 
d="M326 692h60q10 0 15 -9l74 -141l74 142q5 8 14 8l70 1q10 0 10 -11v-286q0 -10 -10 -10h-68q-11 0 -11 10l1 140l-50 -95q-5 -9 -14 -9h-27q-10 0 -15 9l-48 91v-136q0 -10 -10 -10h-70q-10 0 -10 10v281q0 7 4 11.5t11 3.5zM292 684v-51q0 -10 -10 -10h-75v-225
q0 -10 -10 -10h-70q-10 0 -10 10v225h-74q-10 0 -10 9v51q0 11 10 11h239q10 0 10 -10z" />
    <glyph glyph-name="Omega" unicode="&#x2126;" horiz-adv-x="807" 
d="M50 139h77q-80 89 -80 208q0 160 98 258q100 98 259 98t257 -98t98 -258q0 -121 -81 -209l87 1q4 0 7.5 -4.5t3.5 -8.5v-113q0 -4 -3.5 -8.5t-7.5 -4.5h-261q-10 0 -10 10v126q58 23 92 81q35 61 35 130q0 99 -60 161t-157 62t-159 -62q-60 -62 -60 -161q0 -69 38 -128
q38 -57 97 -80v-129q-1 -10 -9 -10h-261q-4 0 -8 4t-4 8v115q0 4 4 8t8 4z" />
    <glyph glyph-name="estimated" unicode="&#x212e;" horiz-adv-x="891" 
d="M445 34q207 0 294 132q5 6 11 6h46q11 0 7 -10q-49 -88 -145 -138q-94 -48 -213 -48q-175 0 -288 100q-114 100 -114 271t114 271q115 100 288 100q175 0 288 -100q115 -100 115 -271v-12q2 -15 -14 -15h-639v-204q91 -82 250 -82zM195 578v-202h500v202q-91 82 -250 82
t-250 -82z" />
    <glyph glyph-name="partialdiff" unicode="&#x2202;" horiz-adv-x="539" 
d="M271 702q211 0 211 -296q0 -119 -26 -217q-47 -194 -221 -198q-87 0 -140 59q-52 58 -52 148q0 88 56 150q57 61 145 60q83 0 121 -56q1 13 1 54q0 58 -8 94q-14 82 -91 87q-39 0 -76 -28q-9 -5 -14 3l-53 81q-4 7 3 15q59 44 144 44zM335 179q3 51 -19.5 82.5
t-71.5 31.5q-39 0 -62.5 -26.5t-23.5 -68.5t20.5 -66.5t56.5 -24.5q67 0 100 72z" />
    <glyph glyph-name="increment" unicode="&#x2206;" horiz-adv-x="658" 
d="M402 683l245 -669q5 -14 -10 -14h-618q-13 0 -9 13l243 671q5 9 15 9h119q14 0 15 -10zM197 127l275 -1l-141 387z" />
    <glyph glyph-name="product" unicode="&#x220f;" horiz-adv-x="621" 
d="M429 -122v646h-245v-646q0 -11 -10 -11h-112q-10 0 -10 11v768q0 10 10 10h489q10 0 10 -10v-768q0 -11 -10 -11h-112q-10 0 -10 11z" />
    <glyph glyph-name="summation" unicode="&#x2211;" horiz-adv-x="604" 
d="M42 -119l237 380l-238 381q-8 14 8 14h503q11 0 11 -12v-109q0 -11 -11 -11h-260l168 -255q6 -8 0 -16l-166 -253h258q5 1 8 -2.5t3 -8.5v-111q0 -6 -3 -9.5t-9 -2.5h-502q-17 0 -7 15z" />
    <glyph glyph-name="minus" unicode="&#x2212;" horiz-adv-x="579" 
d="M72 348h435q13 -1 13 -12v-88q0 -12 -13 -12h-435q-12 0 -12 12v88q0 10 12 12z" />
    <glyph glyph-name="uni2215" unicode="&#x2215;" horiz-adv-x="528" 
d="M3 14l395 701q4 7 14 7h107q14 0 7 -13l-396 -702q-4 -7 -14 -7h-104q-18 0 -9 14z" />
    <glyph glyph-name="uni2219" unicode="&#x2219;" horiz-adv-x="263" 
d="M45 253q0 40 24 64.5t64 24.5q38 0 62.5 -24.5t24.5 -64.5q0 -38 -24.5 -62.5t-62.5 -24.5q-39 0 -63.5 24t-24.5 63z" />
    <glyph glyph-name="radical" unicode="&#x221a;" horiz-adv-x="560" 
d="M205 10l-82 313h-91q-13 0 -13 13v93q0 14 13 14h178q10 0 12 -9l63 -237l154 515q3 10 14 10h102q10 0 7 -10l-209 -702q-3 -10 -13 -10h-121q-11 0 -14 10z" />
    <glyph glyph-name="infinity" unicode="&#x221e;" horiz-adv-x="920" 
d="M460 329q75 99 193 99q96 0 155 -59t59 -155t-59 -155t-155 -59q-115 0 -193 99q-78 -99 -193 -99q-96 0 -155 59t-59 155t59 155t155 59q118 0 193 -99zM267 308q-42 0 -68 -26t-26 -68q0 -43 26 -68.5t68 -25.5q87 0 128 93q-44 95 -128 95zM525 213q41 -93 128 -93
q42 0 68 25.5t26 68.5q0 42 -26 68t-68 26q-84 0 -128 -95z" />
    <glyph glyph-name="integral" unicode="&#x222b;" horiz-adv-x="398" 
d="M416 673l-53 -84q-5 -7 -12 -3q-34 24 -46 24q-39 0 -37 -65v-290l3 -320q3 -171 -167 -173q-30 0 -62.5 12t-50.5 26q-7 4 -2 13l54 83q5 8 12 3q22 -15 41 -15q23 0 32.5 15.5t9.5 49.5l-1 290l-2 330q-1 79 39.5 120.5t112.5 42.5q69 0 128 -47q6 -6 1 -12z" />
    <glyph glyph-name="approxequal" unicode="&#x2248;" horiz-adv-x="596" 
d="M420 431l13 31q2 7 7.5 8t9.5 -4l60 -63q8 -7 4 -17q-19 -56 -57 -91t-87 -35q-66 0 -113 47t-73 47q-18 0 -33 -21q-23 -44 -28 -57q-7 -11 -16 -2l-60 63q-7 7 -4 19q19 53 57.5 85.5t86.5 32.5q67 0 112 -47q46 -46 74 -45q21 0 35 26q10 19 12 23zM432 227q7 15 17 4
l61 -62q8 -8 4 -17q-19 -56 -57.5 -91.5t-86.5 -35.5q-65 0 -114 47q-45 47 -72 47q-9 0 -16 -3.5t-14 -14t-10.5 -16.5t-11.5 -22.5t-10 -21.5q-4 -10 -15 -2l-60 64q-9 8 -4 19q19 53 57.5 85.5t86.5 32.5q33 0 63.5 -14t47.5 -33q46 -46 75 -46q14 0 26 14q13 16 33 66z
" />
    <glyph glyph-name="notequal" unicode="&#x2260;" horiz-adv-x="524" 
d="M378 437h73q13 0 13 -13v-83q0 -13 -13 -13h-121l-31 -73h152q13 0 13 -13v-83q0 -13 -13 -13h-199l-30 -68q-1 -7 -11 -7h-94q-13 0 -8 12l27 63h-63q-13 0 -13 13v83q0 13 13 13h110l32 73h-142q-13 0 -13 13v83q0 13 13 13h189l30 70q3 8 12 8h94q12 0 8 -12z" />
    <glyph glyph-name="lessequal" unicode="&#x2264;" horiz-adv-x="541" 
d="M488 149l-441 154q-9 3 -9 17v124q0 13 9 16l441 146q13 3 13 -9v-114q0 -13 -9 -16l-281 -87l281 -92q9 -3 9 -16v-114q0 -12 -13 -9zM493 -1h-445q-10 0 -10 10v96q0 10 10 10h445q10 0 10 -10v-96q0 -10 -10 -10z" />
    <glyph glyph-name="greaterequal" unicode="&#x2265;" horiz-adv-x="541" 
d="M494 303l-441 -154q-6 -1 -9.5 1.5t-2.5 7.5v114q0 13 8 16l281 92l-281 87q-8 3 -8 16v114q-1 6 2.5 8.5t9.5 0.5l441 -146q9 -3 9 -16v-124q0 -14 -9 -17zM493 -1h-445q-10 0 -10 10v96q0 10 10 10h445q10 0 10 -10v-96q0 -10 -10 -10z" />
    <glyph glyph-name="uni24C5" unicode="&#x24c5;" horiz-adv-x="826" 
d="M51 346q0 162 97 259q98 98 259 98t259 -98t98 -259q0 -160 -99 -258q-98 -98 -258 -98t-258 98t-98 258zM686 346q0 125 -77 202q-76 76 -202 76q-124 0 -201 -77q-76 -76 -76 -201q0 -124 76 -200t201 -76t202 75q77 77 77 201zM281 174v352q0 12 13 12h96h65
q56 0 88.5 -31.5t33.5 -85.5q-1 -54 -34 -87.5t-88 -33.5h-65v-128q0 -13 -15 -13h-79q-15 0 -15 15zM445 443h-55v-56h55q31 0 31 29q0 27 -31 27z" />
    <glyph glyph-name="lozenge" unicode="&#x25ca;" horiz-adv-x="525" 
d="M155 -32l-134 348q-3 10 0 19l134 349q5 9 16 9h38h97h39q11 0 16 -9l133 -349q5 -8 0 -19l-134 -348q-4 -10 -14 -10h-39h-98h-39q-11 0 -15 10zM258 588l-97 -262l97 -262l97 262z" />
    <glyph glyph-name="ijacute" unicode="&#xe132;" horiz-adv-x="467" 
d="M291 478h110q10 0 10 -10l1 -531q0 -81 -40 -128t-112 -47q-70 0 -116 41q-8 5 -3 13l40 92q6 12 18 4q20 -17 42 -17q20 -1 30 13t11 45l-1 515q0 10 10 10zM66 478h110q9 0 9 -9v-459q0 -10 -10 -10h-110q-10 0 -10 10v458q0 10 11 10zM29 558l149 149q9 9 16 0l58 -71
q8 -8 -2 -15l-175 -116q-9 -5 -15 1l-32 39q-5 7 1 13zM422 706l58 -71q8 -8 -2 -15l-175 -115q-9 -7 -15 1l-32 38q-4 8 2 14l148 149q8 7 16 -1z" />
    <glyph glyph-name="IJacute" unicode="&#xe133;" horiz-adv-x="631" 
d="M206 684v-675q0 -9 -10 -9h-117q-10 0 -10 9v675q0 10 10 10h117q10 0 10 -10zM452 226v458q0 10 9 10h117q10 0 10 -10l1 -486q1 -99 -43 -153t-125 -55q-105 1 -173 57q-7 7 -2 15l54 97q8 11 17 4q1 0 7.5 -4t16 -9t14.5 -8q32 -15 51 -15q27 0 36 20.5t10 78.5z
M593 889l47 -79q8 -9 -4 -14l-192 -94q-10 -4 -15 3l-26 43q-5 8 3 13l171 130q9 8 16 -2zM218 889l47 -79q8 -9 -4 -14l-192 -94q-10 -4 -15 4l-26 42q-5 8 3 13l171 130q8 8 16 -2z" />
    <glyph glyph-name="_1" horiz-adv-x="0" 
 />
    <glyph glyph-name="CR" horiz-adv-x="333" 
 />
    <glyph glyph-name="grave.case" horiz-adv-x="289" 
d="M23 804l48 79q5 10 16 2l170 -130q7 -6 3 -13l-26 -43q-4 -7 -15 -3l-192 94q-12 5 -4 14z" />
    <glyph glyph-name="dieresis.case" horiz-adv-x="350" 
d="M95 853q28 1 46.5 -17.5t18.5 -47.5t-18 -47t-47 -18t-47 18t-18 47t18 47t47 18zM253 853q29 1 47 -17.5t18 -47.5t-18 -47t-47 -18t-47 18t-18 47t18 47t47 18z" />
    <glyph glyph-name="macron.case" horiz-adv-x="321" 
d="M32 820h257q10 0 10 -10v-70q0 -10 -10 -10h-257q-10 0 -10 10v70q0 10 10 10z" />
    <glyph glyph-name="acute.case" horiz-adv-x="289" 
d="M209 884l47 -78q7 -9 -4 -15l-192 -93q-9 -5 -14 3l-27 43q-5 8 3 13l171 130q10 7 16 -3z" />
    <glyph glyph-name="circumflex.case" horiz-adv-x="396" 
d="M250 738l-52 47l-53 -47q-8 -5 -12 -5h-108q-13 0 -4 9l118 109q8 7 15 7h87q8 0 15 -7l118 -109q5 -4 3.5 -6.5t-7.5 -2.5h-107q-5 0 -13 5z" />
    <glyph glyph-name="caron.case" horiz-adv-x="396" 
d="M145 852l53 -47l52 47q6 6 13 6h107q14 0 4 -10l-118 -109q-6 -6 -15 -6h-87q-8 0 -15 6l-117 109q-5 3 -3.5 6.5t7.5 3.5h107q5 0 12 -6z" />
    <glyph glyph-name="breve.case" horiz-adv-x="333" 
d="M238 857l64 1q10 0 9 -9q-2 -62 -40.5 -95.5t-104.5 -33.5q-64 0 -102.5 33.5t-41.5 95.5q-2 9 9 9h64q9 0 10 -9q2 -20 19.5 -34t41.5 -14t42.5 14t20.5 33q0 9 9 9z" />
    <glyph glyph-name="dotaccent.case" horiz-adv-x="210" 
d="M39 795q0 28 17 45q18 18 47 18t46 -17t17 -46t-17.5 -46.5t-45.5 -17.5q-29 0 -46.5 17.5t-17.5 46.5z" />
    <glyph glyph-name="ring.case" horiz-adv-x="234" 
d="M21 806q0 43 26.5 69.5t69.5 26.5t69.5 -26.5t26.5 -69.5q0 -44 -26.5 -70t-69.5 -26t-69.5 26t-26.5 70zM78 806q0 -18 11 -29t28 -11q18 0 29 11t11 29q0 17 -11 28t-29 11q-17 0 -28 -11t-11 -28z" />
    <glyph glyph-name="tilde.case" horiz-adv-x="367" 
d="M72 733q-5 -11 -13 -4l-33 36q-5 5 -4 11q14 41 42 66.5t57 25.5t49.5 -18.5t37 -37t34.5 -18.5q36 2 52 48q4 12 12 4l35 -36q5 -7 4 -10q-14 -42 -42 -67t-58 -25q-25 -1 -47.5 18t-40.5 38t-33 17q-35 0 -52 -48z" />
    <glyph glyph-name="hungarumlaut.case" horiz-adv-x="360" 
d="M268 884l66 -46q11 -6 3 -14l-101 -123q-4 -7 -13 -2l-43 33q-9 5 -4 13l77 135q8 8 15 4zM112 884l70 -46q8 -8 2 -13l-101 -124q-6 -8 -13 -2l-44 32q-8 8 -4 14l77 135q5 9 13 4z" />
    <glyph glyph-name="zero.onum" horiz-adv-x="588" 
d="M33 240q0 112 72 179q72 69 190 69q117 0 188 -69q72 -67 72 -179q0 -113 -72 -182q-71 -68 -188 -68q-118 0 -190 69t-72 181zM172 240q0 -51 34 -82.5t89 -31.5q54 0 87.5 31.5t33.5 82.5q0 50 -33.5 80.5t-87.5 30.5q-56 0 -89.5 -30.5t-33.5 -80.5z" />
    <glyph glyph-name="one.onum" horiz-adv-x="455" 
d="M40 390l128 88h129q10 0 10 -10l1 -360h108q11 0 11 -11v-86q0 -11 -11 -11h-373q-11 0 -11 11v86q0 11 11 11h125v246l-121 -84q-13 -7 -13 8v101q0 8 6 11z" />
    <glyph glyph-name="two.onum" horiz-adv-x="502" 
d="M457 0h-417q-10 0 -12.5 8t5.5 14l246 212q37 33 46 49q6 14 5 26q-3 45 -71 45q-63 0 -110 -60q-7 -7 -15 -1l-75 87q-8 8 -1 17q35 42 89.5 67t118.5 25q88 0 142 -41.5t58 -107.5q5 -98 -75 -166q0 -1 -77 -66h143q12 0 12 -11v-86q0 -11 -12 -11z" />
    <glyph glyph-name="three.onum" horiz-adv-x="507" 
d="M212 133q-11 0 -11 11v116l77 81h-206q-11 0 -11 11v116q0 10 11 10h358q11 0 11 -10l-1 -127l-101 -108q64 -27 99.5 -75.5t35.5 -111.5q0 -93 -61 -150q-60 -57 -158 -57q-95 0 -156 60q-61 59 -66 156q0 11 11 11h118q11 0 11 -11q2 -35 25 -56.5t58 -21.5t56.5 19
t21.5 50q0 85 -122 87z" />
    <glyph glyph-name="four.onum" horiz-adv-x="595" 
d="M343 478h148q11 0 11 -10v-360h51q11 0 11 -11v-85q0 -11 -11 -11h-51v-140q0 -11 -11 -11h-117q-10 0 -10 11v140h-344q-8 0 -10 5t2 11l314 453q6 8 17 8zM364 108v208l-146 -208h146z" />
    <glyph glyph-name="five.onum" horiz-adv-x="531" 
d="M278 287q98 0 159 -63q61 -62 61 -161q0 -100 -65 -162t-170 -62q-97 0 -162 60q-63 59 -68 157q0 11 11 11h118q11 0 11 -11q2 -35 27.5 -57t63.5 -22q41 0 67.5 25t26.5 65q0 42 -24.5 67.5t-64.5 25.5q-43 0 -90 -25h-107q-11 0 -11 11l19 322q0 11 12 11h336
q12 0 12 -11v-111q0 -11 -12 -11h-237l-4 -75q42 16 91 16z" />
    <glyph glyph-name="six.onum" horiz-adv-x="509" 
d="M260 633h116q18 0 9 -14l-118 -200l14 2q89 -9 142 -68t53 -147q0 -93 -62 -155t-159 -62q-100 0 -161 60q-61 61 -61 158q0 69 38 127l172 289q4 10 17 10zM338 208q0 36 -23 59t-60 23t-59.5 -22.5t-22.5 -59.5q0 -36 22.5 -58t59.5 -22t60 22.5t23 57.5z" />
    <glyph glyph-name="seven.onum" horiz-adv-x="487" 
d="M290 345h-259q-11 0 -11 11v111q0 11 11 11h434q7 0 11 -5t2 -12l-230 -601q-4 -10 -15 -10h-121q-4 0 -7 4t-1 8z" />
    <glyph glyph-name="eight.onum" horiz-adv-x="531" 
d="M33 200q0 93 80 152q-36 42 -36 105q0 83 54 134q55 52 135 52q81 0 134 -52q54 -53 54 -134q0 -65 -36 -105q80 -59 80 -152q0 -88 -65 -150q-65 -60 -167 -60q-104 0 -168 60q-65 62 -65 150zM173 207q0 -35 26 -57t68 -22q40 0 65.5 22t25.5 57q0 38 -25 59.5
t-67 21.5t-67.5 -21.5t-25.5 -59.5zM206 457q0 -26 16.5 -42t43.5 -16q26 0 42.5 16t16.5 42q0 25 -16.5 40.5t-42.5 15.5q-27 0 -43.5 -15.5t-16.5 -40.5z" />
    <glyph glyph-name="nine.onum" horiz-adv-x="509" 
d="M250 -153h-117q-17 0 -8 14l117 200q-3 -1 -13 -1q-87 7 -142 67q-54 60 -54 146q0 95 61 156q62 62 160 62q100 0 161 -60t61 -158q0 -69 -37 -127l-172 -289q-7 -10 -17 -10zM172 272q0 -36 22.5 -59t59.5 -23t60 22.5t23 59.5q0 36 -23 58t-60 22q-36 0 -59 -22.5
t-23 -57.5z" />
    <glyph glyph-name="zero.numr" horiz-adv-x="381" 
d="M66 307q-47 65 -47 167t47 166q48 63 125 63t124 -63q47 -64 47 -166t-47 -167q-47 -63 -124 -63t-125 63zM191 350q29 0 47 34t18 90q0 55 -18 89t-47 34q-30 0 -48 -33.5t-18 -89.5t18 -90t48 -34z" />
    <glyph glyph-name="one.numr" horiz-adv-x="216" 
d="M64 266v322h-41q-12 0 -12 12l-1 82q0 12 11 12h146q12 0 12 -12v-416q0 -13 -12 -13h-90q-13 0 -13 13z" />
    <glyph glyph-name="two.numr" horiz-adv-x="348" 
d="M299 254h-261q-9 1 -13 7.5t2 14.5l153 228q6 6 17 28q9 18 9 36q0 13 -9.5 21.5t-24.5 8.5q-34 0 -58 -30q-6 -6 -13 1l-54 63q-5 6 0 11q52 61 138 61q60 0 94.5 -35t34.5 -93q0 -22 -9 -56q-1 -9 -8 -24q-7 -18 -17 -34l-6 -12l-63 -92h88q9 0 9 -9v-84q2 -11 -9 -11z
" />
    <glyph glyph-name="three.numr" horiz-adv-x="345" 
d="M126 455v60q0 10 10 10h25q40 1 40 44q0 16 -10.5 26.5t-26.5 10.5q-30 0 -59 -27q-7 -7 -12 -1l-47 57q-4 7 0 12q50 56 131 56q60 0 98 -33.5t38 -85.5q0 -59 -41 -100q54 -32 54 -105q0 -60 -42.5 -97.5t-111.5 -37.5q-67 0 -109 38.5t-45 100.5q-1 10 9 10h87
q8 0 8 -8q0 -22 24 -31t47.5 2.5t21.5 39.5q0 46 -46 49h-33q-10 0 -10 10z" />
    <glyph glyph-name="four.numr" horiz-adv-x="385" 
d="M134 417h82v156zM379 407v-65q0 -10 -10 -10h-38v-66q0 -13 -12 -13h-92q-13 0 -11 12v67h-199q-21 0 -12 17l175 335q4 9 15 9h125q9 -1 11 -10v-266h37q11 -2 11 -10z" />
    <glyph glyph-name="five.numr" horiz-adv-x="364" 
d="M134 387q12 -37 52 -37q23 0 37 15t13 41q1 24 -15.5 37t-39.5 13q-14 0 -38 -10h-93q-6 0 -6 6l16 235q0 7 7 7h231q6 0 6 -7v-91q0 -7 -6 -7h-145l-4 -57q20 6 35 6q71 0 114 -37.5t44 -99.5q0 -71 -43.5 -114t-114.5 -43q-68 0 -111 40t-46 105q0 7 6 7h93q6 0 8 -9z
" />
    <glyph glyph-name="six.numr" horiz-adv-x="361" 
d="M154 694l98 -1q9 0 6 -8l-66 -139h8q62 -5 99.5 -45.5t37.5 -104.5q0 -68 -43 -110t-113 -42t-113.5 42t-43.5 110q0 40 15 68l106 224q1 6 9 6zM130 395q0 -22 14 -35.5t37 -13.5t36.5 13.5t13.5 35.5q0 23 -13.5 36.5t-36.5 13.5t-37 -13.5t-14 -36.5z" />
    <glyph glyph-name="seven.numr" horiz-adv-x="312" 
d="M167 588h-154q-6 0 -6 7v92q0 7 6 7h292q12 0 7 -11l-160 -424q-3 -5 -7 -5h-99q-6 0 -5 7z" />
    <glyph glyph-name="eight.numr" horiz-adv-x="378" 
d="M149 565q-2 -24 19 -34.5t42 0t19 34.5q0 25 -20 35.5t-40 0t-20 -35.5zM134 395q0 -19 16 -32t40 -13t39 13t15 32q0 20 -15.5 33.5t-39.5 13.5t-39.5 -13.5t-15.5 -33.5zM28 391q0 59 48 96q-33 33 -33 79q0 62 40 99.5t106 37.5t106 -37.5t40 -99.5q0 -47 -33 -80
q48 -38 48 -95q0 -65 -44.5 -106t-116.5 -41t-116.5 40.5t-44.5 106.5z" />
    <glyph glyph-name="nine.numr" horiz-adv-x="361" 
d="M160 401q-63 6 -100.5 46.5t-37.5 103.5q0 69 43 111t113 42q71 0 114 -42t43 -111q0 -35 -14 -68l-106 -223q-3 -6 -10 -6h-98q-9 0 -5 9l65 139q-1 -1 -7 -1zM229 553q0 22 -14 35.5t-36 13.5q-34 4 -47 -29.5t10 -55.5q23 -23 57 -10.5t30 46.5z" />
    <glyph glyph-name="zero.dnom" horiz-adv-x="381" 
d="M66 53q-47 65 -47 167t47 166q48 63 125 63t124 -63q47 -64 47 -166t-47 -167q-47 -63 -124 -63t-125 63zM191 96q29 0 47 34t18 90q0 55 -18 89t-47 34q-30 0 -48 -33.5t-18 -89.5t18 -90t48 -34z" />
    <glyph glyph-name="one.dnom" horiz-adv-x="216" 
d="M22 440h146q11 0 11 -11l1 -417q0 -13 -13 -12h-90q-13 -1 -13 12v322h-41q-12 0 -12 12l-1 82q0 12 12 12z" />
    <glyph glyph-name="two.dnom" horiz-adv-x="348" 
d="M133 0h-95q-22 1 -11 22l54 84q34 52 69 100l30 44q28 47 26 64q0 13 -9.5 21.5t-24.5 8.5q-34 0 -58 -30q-6 -6 -13 1l-54 63q-5 6 0 11q52 61 138 61q60 0 94.5 -35t34.5 -93q0 -22 -9 -56q-1 -9 -8 -24q-7 -18 -17 -34l-6 -12l-60 -92h85q9 0 9 -9v-84q2 -11 -9 -11
h-155h-11z" />
    <glyph glyph-name="three.dnom" horiz-adv-x="345" 
d="M124 201v60q0 10 10 10h25q40 1 40 44q0 16 -10.5 26.5t-26.5 10.5q-32 0 -60 -27q-6 -8 -11 0l-47 56q-4 7 0 12q47 56 131 56q60 0 97.5 -33.5t37.5 -85.5q0 -60 -40 -100q54 -32 54 -105q0 -60 -42.5 -97.5t-111.5 -37.5q-67 0 -109 38.5t-45 100.5q-1 10 9 10h87
q8 0 8 -8q0 -22 24.5 -31t47.5 2.5t20 39.5q0 46 -45 49h-33q-11 0 -10 10z" />
    <glyph glyph-name="four.dnom" horiz-adv-x="385" 
d="M134 164h82v156zM379 154v-65q0 -10 -10 -10h-38v-66q0 -13 -12 -13h-92q-13 0 -11 12v67h-199q-21 0 -12 17l175 335q4 9 15 9h125q9 -1 11 -10v-266h37q11 -2 11 -10z" />
    <glyph glyph-name="five.dnom" horiz-adv-x="364" 
d="M126 133q12 -37 52 -37q23 0 37 15t13 41q1 24 -15.5 37t-39.5 13q-14 0 -38 -10h-93q-6 0 -6 6l16 235q0 7 7 7h231q6 0 6 -7v-91q0 -7 -6 -7h-145l-4 -57q19 6 35 6q71 0 114 -37.5t44 -99.5q0 -71 -43.5 -114t-114.5 -43q-68 0 -111 40t-46 105q0 7 6 7h93q6 0 8 -9z
" />
    <glyph glyph-name="six.dnom" horiz-adv-x="361" 
d="M153 440l99 -1q8 0 5 -8l-66 -139h8q62 -5 99.5 -45.5t37.5 -104.5q0 -68 -43 -110t-113 -42t-113.5 42t-43.5 110q0 35 15 68l106 224q4 6 9 6zM129 141q0 -22 14 -35.5t37 -13.5t36.5 13.5t13.5 35.5q0 23 -14 36.5t-36 13.5q-23 0 -37 -13.5t-14 -36.5z" />
    <glyph glyph-name="seven.dnom" horiz-adv-x="312" 
d="M167 335h-154q-6 0 -6 7v92q0 6 6 6h292q11 0 7 -10l-160 -425q-4 -4 -7 -4h-99q-6 0 -5 7z" />
    <glyph glyph-name="eight.dnom" horiz-adv-x="378" 
d="M149 310q-2 -24 19 -34.5t42 0t19 34.5q0 25 -20 35.5t-40 0t-20 -35.5zM134 140q0 -19 16 -32t40 -13t39 13t15 32q0 20 -15.5 33.5t-39.5 13.5t-39.5 -13.5t-15.5 -33.5zM28 136q0 58 48 96q-33 33 -33 79q0 62 40 99.5t106 37.5t106 -37.5t40 -99.5q0 -47 -33 -80
q48 -37 48 -95q0 -65 -44.5 -106t-116.5 -41t-116.5 40.5t-44.5 106.5z" />
    <glyph glyph-name="nine.dnom" horiz-adv-x="361" 
d="M161 147q-63 6 -100.5 46.5t-37.5 103.5q0 69 43 111t113 42q71 0 114 -42t43 -111q0 -35 -14 -68l-106 -223q-3 -6 -10 -6h-98q-10 0 -5 9l65 139q-1 -1 -7 -1zM230 299q0 22 -14 35.5t-36 13.5q-34 4 -47 -29.5t10 -55.5q23 -23 57 -10.5t30 46.5z" />
    <glyph glyph-name="zero.tnum" 
d="M558 347q0 -161 -71 -259q-70 -97 -186 -97t-187 98t-71 258t71 258t187 98q115 0 186 -98t71 -258zM179 347q0 -100 33.5 -160t88.5 -60q54 0 87 60.5t33 159.5t-33 159.5t-87 60.5q-55 0 -88.5 -60.5t-33.5 -159.5z" />
    <glyph glyph-name="one.tnum" 
d="M129 576v107q0 11 10 11h221q10 0 10 -11v-570h119q11 0 11 -11v-90q0 -12 -12 -12h-377q-11 0 -11 11v91q0 11 12 11h122v453h-95q-10 0 -10 10z" />
    <glyph glyph-name="two.tnum" 
d="M494 386l-12 -20l-173 -238h205q12 0 12 -12v-106q0 -10 -11 -10h-296h-38h-102q-7 0 -9 6t2 11l283 386q44 59 44 99q-1 32 -21.5 53t-57.5 20q-52 0 -108 -69q-8 -8 -18 4l-68 73q-7 7 3 20q79 100 206 100q83 0 139 -51q57 -51 57 -144q0 -30 -11.5 -65.5t-25.5 -56.5
z" />
    <glyph glyph-name="three.tnum" 
d="M260 417h43q30 0 52.5 23.5t22.5 56.5q0 31 -22 50.5t-58 19.5q-52 0 -106 -64q-8 -7 -15 0l-74 87q-7 8 0 15q80 98 204 98q87 0 146 -52q61 -52 61 -135q0 -91 -67 -152q89 -54 89 -157q0 -97 -68 -160t-168 -63q-99 0 -166 59q-65 60 -69 157q0 10 10 10h114
q11 0 11 -9q2 -36 30.5 -58.5t71.5 -22.5q44 0 70.5 26t26.5 68q0 40 -23.5 66.5t-61.5 29.5h-54q-10 0 -10 10v87q0 10 10 10z" />
    <glyph glyph-name="four.tnum" 
d="M502 265h64q10 0 10 -10v-96q0 -10 -10 -10h-64v-139q1 -10 -10 -10h-116q-10 0 -10 10v139h-208h-31h-91q-14 0 -7 13l316 523q5 9 15 9h132q10 -1 10 -11v-418zM366 265v229l-138 -229h138z" />
    <glyph glyph-name="five.tnum" 
d="M471 566h-220l-11 -140q34 14 70 14q99 0 161 -59q61 -58 61 -160q0 -107 -64 -172q-65 -65 -168 -65q-100 0 -164 57q-63 57 -67 151q0 10 10 10h114q11 0 11 -10q2 -34 28.5 -55t67.5 -21q43 0 70 29t27 76q0 46 -27.5 74.5t-72.5 28.5q-46 0 -68 -25h-125
q-11 0 -10 10l31 374q2 11 12 11h334q10 0 10 -11v-107q0 -10 -10 -10z" />
    <glyph glyph-name="six.tnum" 
d="M530 220q0 -105 -63 -168q-61 -63 -166 -63q-103 0 -168 63q-63 64 -63 167q0 49 16 93q26 63 51 118l65 138l56 116q3 10 14 10h116q17 0 9 -14l-109 -236q18 2 20 2q101 -3 161 -65q61 -61 61 -161zM300 314q-42 0 -68 -26t-26 -69t26 -69t68 -26t68 26t26 69t-25.5 69
t-68.5 26z" />
    <glyph glyph-name="seven.tnum" 
d="M85 694h426q18 0 10 -17l-252 -667q-3 -10 -14 -10h-123q-9 0 -6 10l213 556h-254q-11 0 -11 10v107q0 11 11 11z" />
    <glyph glyph-name="eight.tnum" 
d="M506 504q0 -88 -66 -137q90 -55 90 -160q0 -98 -64 -158q-64 -59 -166 -59q-103 0 -168 59q-63 60 -63 158q0 105 90 160q-66 53 -66 137q0 90 57 144q56 55 150 55q93 0 149.5 -54.5t56.5 -144.5zM399 214q0 41 -28 67.5t-71 26.5q-42 0 -70.5 -27t-28.5 -67
q0 -39 28.5 -65.5t70.5 -26.5t70.5 26.5t28.5 65.5zM221 506q0 -37 21.5 -58t57.5 -21q35 0 56 21q22 22 22 58t-21 56q-21 21 -57 21t-57.5 -20.5t-21.5 -56.5z" />
    <glyph glyph-name="nine.tnum" 
d="M494 337l-152 -328q-4 -9 -14 -9h-116q-17 0 -9 14l109 236q-8 -2 -17 -2q-102 2 -163 63q-62 62 -62 162q0 106 62 168q63 63 167 63t167 -64q64 -63 64 -166q0 -60 -36 -137zM300 379q42 0 68 26.5t26 68.5q0 43 -26 69t-68 26t-68 -26t-26 -69t25.5 -69t68.5 -26z" />
    <glyph glyph-name="zero.pnum" horiz-adv-x="597" 
d="M556 347q0 -161 -71 -259q-70 -97 -186 -97t-187 98t-71 258t71 258t187 98q115 0 186 -98t71 -258zM177 347q0 -100 33.5 -160t88.5 -60q54 0 87 60.5t33 159.5t-33 159.5t-87 60.5q-55 0 -88.5 -60.5t-33.5 -159.5z" />
    <glyph glyph-name="one.pnum" horiz-adv-x="342" 
d="M52 576v107q2 11 10 11h218q10 0 10 -11v-673q0 -10 -10 -10h-116q-10 0 -10 10v556h-92q-10 0 -10 10z" />
    <glyph glyph-name="two.pnum" horiz-adv-x="553" 
d="M464 386l-12 -20l-173 -238h205q12 0 12 -12v-106q0 -10 -11 -10h-296h-38h-102q-7 0 -9 6t2 11l283 386q44 59 44 99q-1 32 -21.5 53t-57.5 20q-52 0 -108 -69q-8 -8 -18 4l-68 73q-7 7 3 20q79 100 206 100q83 0 139 -51q57 -51 57 -144q0 -30 -11.5 -65.5t-25.5 -56.5
z" />
    <glyph glyph-name="three.pnum" horiz-adv-x="545" 
d="M228 417h43q30 0 52.5 23.5t22.5 56.5q0 31 -22 50.5t-58 19.5q-52 0 -106 -64q-8 -7 -15 0l-74 87q-7 8 0 15q80 98 204 98q87 0 146 -52q61 -52 61 -135q0 -91 -67 -152q89 -54 89 -157q0 -97 -68 -160t-168 -63q-99 0 -166 59q-65 60 -69 157q0 10 10 10h114
q11 0 11 -9q2 -36 30.5 -58.5t71.5 -22.5q44 0 70.5 26t26.5 68q0 40 -23.5 66.5t-61.5 29.5h-54q-10 0 -10 10v87q0 10 10 10z" />
    <glyph glyph-name="four.pnum" horiz-adv-x="612" 
d="M489 265h64q10 0 10 -10v-96q0 -10 -10 -10h-64v-139q1 -10 -10 -10h-116q-10 0 -10 10v139h-208h-31h-91q-13 0 -7 13l316 523q4 9 15 9h132q10 -1 10 -11v-418zM353 265v229l-138 -229h138z" />
    <glyph glyph-name="five.pnum" horiz-adv-x="545" 
d="M443 566h-220l-11 -140q34 14 70 14q99 0 161 -59q61 -58 61 -160q0 -107 -64 -172q-65 -65 -168 -65q-100 0 -164 57q-63 57 -67 151q0 10 10 10h114q11 0 11 -10q2 -34 28.5 -55t67.5 -21q43 0 70 29t27 76q0 46 -27.5 74.5t-72.5 28.5q-46 0 -68 -25h-125
q-11 0 -10 10l31 374q2 11 12 11h334q10 0 10 -11v-107q0 -10 -10 -10z" />
    <glyph glyph-name="six.pnum" horiz-adv-x="542" 
d="M501 220q0 -105 -63 -168q-62 -63 -166 -63t-168 63q-63 64 -63 167q0 49 16 93q26 63 51 118l65 138l56 116q3 10 14 10h116q17 0 9 -14l-109 -236q18 2 20 2q101 -3 161 -65q61 -61 61 -161zM271 314q-42 0 -68 -26t-26 -69t26 -69t68 -26t68 26t26 69t-25.5 69
t-68.5 26z" />
    <glyph glyph-name="seven.pnum" horiz-adv-x="490" 
d="M46 694h426q18 0 10 -17l-252 -667q-3 -10 -14 -10h-123q-9 0 -6 10l213 556h-254q-11 0 -11 10v107q0 11 11 11z" />
    <glyph glyph-name="eight.pnum" horiz-adv-x="543" 
d="M478 504q0 -88 -66 -137q90 -55 90 -160q0 -98 -64 -158q-64 -59 -166 -59q-103 0 -168 59q-63 60 -63 158q0 105 90 160q-66 53 -66 137q0 90 57 144q56 55 150 55q93 0 149.5 -54.5t56.5 -144.5zM371 214q0 41 -28 67.5t-71 26.5q-42 0 -70.5 -27t-28.5 -67
q0 -39 28.5 -65.5t70.5 -26.5t70.5 26.5t28.5 65.5zM193 506q0 -37 21.5 -58t57.5 -21q35 0 56 21q22 22 22 58t-21 56q-21 21 -57 21t-57.5 -20.5t-21.5 -56.5z" />
    <glyph glyph-name="nine.pnum" horiz-adv-x="542" 
d="M465 337l-152 -328q-5 -9 -14 -9h-116q-17 0 -9 14l109 236q-8 -2 -17 -2q-102 2 -163 63q-62 62 -62 162q0 106 62 168q63 63 167 63t167 -64q64 -63 64 -166q0 -60 -36 -137zM271 379q42 0 68 26.5t26 68.5q0 43 -26 69t-68 26t-68 -26t-26 -69t25.5 -69t68.5 -26z" />
    <glyph glyph-name="zero.onum.pnum" horiz-adv-x="550" 
d="M33 240q0 112 72 179q72 69 190 69q117 0 188 -69q72 -67 72 -179q0 -113 -72 -182q-71 -68 -188 -68q-118 0 -190 69t-72 181zM172 240q0 -51 34 -82.5t89 -31.5q54 0 87.5 31.5t33.5 82.5q0 50 -33.5 80.5t-87.5 30.5q-56 0 -89.5 -30.5t-33.5 -80.5z" />
    <glyph glyph-name="one.onum.pnum" horiz-adv-x="455" 
d="M40 390l128 88h129q10 0 10 -10l1 -360h108q11 0 11 -11v-86q0 -11 -11 -11h-373q-11 0 -11 11v86q0 11 11 11h125v246l-121 -84q-13 -7 -13 8v101q0 8 6 11z" />
    <glyph glyph-name="two.onum.pnum" horiz-adv-x="502" 
d="M457 0h-417q-10 0 -12.5 8t5.5 14l246 212q37 33 46 49q6 14 5 26q-3 45 -71 45q-63 0 -110 -60q-7 -7 -15 -1l-75 87q-8 8 -1 17q35 42 89.5 67t118.5 25q88 0 142 -41.5t58 -107.5q5 -98 -75 -166q0 -1 -77 -66h143q12 0 12 -11v-86q0 -11 -12 -11z" />
    <glyph glyph-name="three.onum.pnum" horiz-adv-x="507" 
d="M212 133q-11 0 -11 11v116l77 81h-206q-11 0 -11 11v116q0 10 11 10h358q11 0 11 -10l-1 -127l-101 -108q64 -27 99.5 -75.5t35.5 -111.5q0 -93 -61 -150q-60 -57 -158 -57q-95 0 -156 60q-61 59 -66 156q0 11 11 11h118q11 0 11 -11q2 -35 25 -56.5t58 -21.5t56.5 19
t21.5 50q0 85 -122 87z" />
    <glyph glyph-name="four.onum.pnum" horiz-adv-x="595" 
d="M343 478h148q11 0 11 -10v-360h51q11 0 11 -11v-85q0 -11 -11 -11h-51v-140q0 -11 -11 -11h-117q-10 0 -10 11v140h-344q-8 0 -10 5t2 11l314 453q6 8 17 8zM364 108v208l-146 -208h146z" />
    <glyph glyph-name="five.onum.pnum" horiz-adv-x="531" 
d="M278 287q98 0 159 -63q61 -62 61 -161q0 -100 -65 -162t-170 -62q-97 0 -162 60q-63 59 -68 157q0 11 11 11h118q11 0 11 -11q2 -35 27.5 -57t63.5 -22q41 0 67.5 25t26.5 65q0 42 -24.5 67.5t-64.5 25.5q-43 0 -90 -25h-107q-11 0 -11 11l19 322q0 11 12 11h336
q12 0 12 -11v-111q0 -11 -12 -11h-237l-4 -75q42 16 91 16z" />
    <glyph glyph-name="six.onum.pnum" horiz-adv-x="509" 
d="M260 633h116q18 0 9 -14l-118 -200l14 2q89 -9 142 -68t53 -147q0 -93 -62 -155t-159 -62q-100 0 -161 60q-61 61 -61 158q0 69 38 127l172 289q4 10 17 10zM338 208q0 36 -23 59t-60 23t-59.5 -22.5t-22.5 -59.5q0 -36 22.5 -58t59.5 -22t60 22.5t23 57.5z" />
    <glyph glyph-name="seven.onum.pnum" horiz-adv-x="487" 
d="M290 345h-259q-11 0 -11 11v111q0 11 11 11h434q7 0 11 -5t2 -12l-230 -601q-4 -10 -15 -10h-121q-4 0 -7 4t-1 8z" />
    <glyph glyph-name="eight.onum.pnum" horiz-adv-x="531" 
d="M33 200q0 93 80 152q-36 42 -36 105q0 83 54 134q55 52 135 52q81 0 134 -52q54 -53 54 -134q0 -65 -36 -105q80 -59 80 -152q0 -88 -65 -150q-65 -60 -167 -60q-104 0 -168 60q-65 62 -65 150zM173 207q0 -35 26 -57t68 -22q40 0 65.5 22t25.5 57q0 38 -25 59.5
t-67 21.5t-67.5 -21.5t-25.5 -59.5zM206 457q0 -26 16.5 -42t43.5 -16q26 0 42.5 16t16.5 42q0 25 -16.5 40.5t-42.5 15.5q-27 0 -43.5 -15.5t-16.5 -40.5z" />
    <glyph glyph-name="nine.onum.pnum" horiz-adv-x="509" 
d="M250 -153h-117q-17 0 -8 14l117 200q-3 -1 -13 -1q-87 7 -142 67q-54 60 -54 146q0 95 61 156q62 62 160 62q100 0 161 -60t61 -158q0 -69 -37 -127l-172 -289q-7 -10 -17 -10zM172 272q0 -36 22.5 -59t59.5 -23t60 22.5t23 59.5q0 36 -23 58t-60 22q-36 0 -59 -22.5
t-23 -57.5z" />
    <glyph glyph-name="zero.onum.tnum" 
d="M39 240q0 112 72 179q72 69 190 69q117 0 188 -69q72 -67 72 -179q0 -113 -72 -182q-71 -68 -188 -68q-118 0 -190 69t-72 181zM178 240q0 -51 34 -82.5t89 -31.5q54 0 87.5 31.5t33.5 82.5q0 50 -33.5 80.5t-87.5 30.5q-56 0 -89.5 -30.5t-33.5 -80.5z" />
    <glyph glyph-name="one.onum.tnum" 
d="M110 390l128 88h129q10 0 10 -10l1 -360h108q11 0 11 -11v-86q0 -11 -11 -11h-373q-11 0 -11 11v86q0 11 11 11h125v246l-121 -84q-13 -7 -13 8v101q0 8 6 11z" />
    <glyph glyph-name="two.onum.tnum" 
d="M510 0h-417q-10 0 -12.5 8t5.5 14l246 212q37 33 46 49q6 14 5 26q-3 45 -71 45q-64 0 -110 -60q-7 -7 -15 -1l-75 87q-8 8 -1 17q35 42 89.5 67t118.5 25q88 0 142 -41.5t58 -107.5q5 -98 -75 -166q0 -1 -77 -66h143q12 0 12 -11v-86q0 -11 -12 -11z" />
    <glyph glyph-name="three.onum.tnum" 
d="M259 133q-11 0 -11 11v116l77 81h-206q-11 0 -11 11v116q0 10 11 10h358q11 0 11 -10l-1 -127l-101 -108q64 -27 99.5 -75.5t35.5 -111.5q0 -93 -61 -150q-60 -57 -158 -57q-94 0 -156 60q-62 59 -66 156q0 11 11 11h118q11 0 11 -11q2 -35 25 -56.5t58 -21.5t56.5 19
t21.5 50q0 85 -122 87z" />
    <glyph glyph-name="four.onum.tnum" 
d="M358 478h148q11 0 11 -10v-360h51q11 0 11 -11v-85q0 -11 -11 -11h-51v-140q0 -11 -11 -11h-117q-10 0 -10 11v140h-344q-7 0 -10 5t2 11l314 453q6 8 17 8zM379 108v208l-146 -208h146z" />
    <glyph glyph-name="five.onum.tnum" 
d="M313 287q97 0 159 -63q61 -62 61 -161q0 -100 -65 -162t-170 -62q-98 0 -162 60q-63 59 -68 157q0 11 11 11h118q11 0 11 -11q2 -35 27.5 -57t63.5 -22q41 0 67.5 25t26.5 65q0 42 -24.5 67.5t-64.5 25.5q-43 0 -90 -25h-107q-11 0 -11 11l19 322q0 11 12 11h336
q12 0 12 -11v-111q0 -11 -12 -11h-237l-4 -75q42 16 91 16z" />
    <glyph glyph-name="six.onum.tnum" 
d="M305 633h116q18 0 9 -14l-118 -200l14 2q89 -9 142 -68t53 -147q0 -93 -62 -155t-159 -62q-100 0 -161 60q-61 61 -61 158q0 69 38 127l172 289q4 10 17 10zM383 208q0 36 -23 59t-60 23t-59.5 -22.5t-22.5 -59.5q0 -36 22.5 -58t59.5 -22t60 22.5t23 57.5z" />
    <glyph glyph-name="seven.onum.tnum" 
d="M339 345h-259q-11 0 -11 11v111q0 11 11 11h434q7 0 11 -5t2 -12l-230 -601q-4 -10 -15 -10h-121q-10 0 -8 12z" />
    <glyph glyph-name="eight.onum.tnum" 
d="M67 200q0 93 80 152q-36 42 -36 105q0 83 54 134q55 52 135 52q81 0 134 -52q54 -53 54 -134q0 -65 -36 -105q80 -59 80 -152q0 -88 -65 -150q-65 -60 -167 -60q-104 0 -168 60q-65 62 -65 150zM207 207q0 -35 26 -57t68 -22q40 0 65.5 22t25.5 57q0 38 -25 59.5
t-67 21.5t-67.5 -21.5t-25.5 -59.5zM240 457q0 -26 16.5 -42t43.5 -16q26 0 42.5 16t16.5 42q0 25 -16.5 40.5t-42.5 15.5q-27 0 -43.5 -15.5t-16.5 -40.5z" />
    <glyph glyph-name="nine.onum.tnum" 
d="M295 -153h-117q-17 0 -8 14l117 200q-3 -1 -13 -1q-87 7 -142 67q-54 60 -54 146q0 95 61 156q62 62 160 62q99 0 161 -60q61 -60 61 -158q0 -69 -37 -127l-172 -289q-7 -10 -17 -10zM217 272q0 -36 22.5 -59t59.5 -23t60 22.5t23 59.5q0 36 -23 58t-60 22
q-36 0 -59 -22.5t-23 -57.5z" />
    </font>
</defs>
</svg>
