<?xml version="1.0" standalone="no"?>
<!DOCTYPE svg PUBLIC "-//W3C//DTD SVG 1.1//EN" "http://www.w3.org/Graphics/SVG/1.1/DTD/svg11.dtd" >
<svg xmlns="http://www.w3.org/2000/svg" xmlns:xlink="http://www.w3.org/1999/xlink" version="1.1">
<metadata>
Created by FontForge 20201107 at Mon Feb 25 03:00:00 2019
 By 
Copyright (c) 2019 by Eko Bimantara. All rights reserved.
</metadata>
<defs>
<font id="Ageo-ThinItalic" horiz-adv-x="537" >
  <font-face 
    font-family="Ageo Thin"
    font-weight="250"
    font-style="italic"
    font-stretch="normal"
    units-per-em="1000"
    panose-1="2 0 0 0 0 0 0 0 0 0"
    ascent="755"
    descent="-245"
    x-height="443"
    cap-height="694"
    bbox="-116.778 -250 1095.6 897.286"
    underline-thickness="50"
    underline-position="-225"
    unicode-range="U+000D-FB04"
  />
<missing-glyph horiz-adv-x="0" 
 />
    <glyph glyph-name="f_f" unicode="ff" horiz-adv-x="596" 
d="M648 436l-1 -4q-1 -7 -9 -7h-137l-66 -417q-2 -8 -8 -8h-4q-8 0 -6 8l65 417h-281l-66 -417q-2 -8 -8 -8h-4q-8 0 -6 8l65 417h-101q-8 0 -7 7l1 3q2 8 9 8h101l20 127q24 163 134 163q54 0 87 -42q4 -4 1 -9l-5 -6q-3 -9 -10 0q-32 39 -77 39q-47 0 -72.5 -33.5
t-40.5 -116.5l-18 -122h281l20 127q24 163 134 163q54 0 87 -42q4 -4 1 -9l-5 -6q-3 -9 -10 0q-31 39 -77 39q-47 0 -72.5 -33.5t-40.5 -116.5l-18 -122h137q8 0 7 -7z" />
    <glyph glyph-name="fi" unicode="fi" horiz-adv-x="515" 
d="M509 620l-9 -7q-6 -5 -6 3q-6 29 -35 65q-28 34 -83 34q-67 0 -103 -34t-51 -116l-18 -122h274q7 0 7 -7l-68 -429q-1 -7 -9 -7h-4q-7 0 -6 7l66 418h-263l-66 -417q-2 -8 -8 -8h-4q-8 0 -6 8l65 417h-101q-8 0 -6 8v2q2 8 9 8h101l20 127q12 83 54 123t120 40
q70 0 102 -46q25 -36 30 -59q2 -5 -2 -8z" />
    <glyph glyph-name="fl" unicode="fl" horiz-adv-x="515" 
d="M116 7l65 418h-101q-7 0 -6 7l1 4q1 7 8 7h101l20 127q12 78 57 120.5t116 41.5q48 0 78 -10l27 -7q6 -2 15 -5.5t15 -5.5l7 -3q7 -1 5 -14l-107 -679q-1 -9 -8 -9h-3q-8 0 -7 9l106 676q-60 30 -129 30q-68 0 -105 -37t-50 -113l-18 -121h139q6 0 6 -3v-3l-1 -6
q-1 -6 -8 -6h-139l-66 -418q-1 -7 -8 -7h-4q-7 0 -6 7z" />
    <glyph glyph-name="f_f_i" unicode="ffi" horiz-adv-x="813" 
d="M339 733q54 0 87 -42q4 -4 1 -9l-5 -6q-3 -9 -10 0q-32 39 -77 39q-47 0 -72.5 -33.5t-40.5 -116.5l-18 -122h279l20 127q12 83 54 123t120 40q70 0 102 -46q25 -36 30 -59q2 -5 -2 -8l-9 -7q-6 -5 -6 3q-6 29 -35 65q-28 34 -83 34q-67 0 -103 -34t-51 -116l-18 -122
h274q7 0 7 -7l-68 -429q-1 -7 -9 -7h-4q-7 0 -6 7l66 418h-263l-66 -417q-2 -8 -8 -8h-4q-8 0 -6 8l65 417h-279l-66 -417q-2 -8 -8 -8h-4q-8 0 -6 8l65 417h-101q-8 0 -7 7l1 3q2 8 9 8h101l20 127q24 163 134 163z" />
    <glyph glyph-name="f_f_l" unicode="ffl" horiz-adv-x="813" 
d="M412 676q-32 39 -77 39q-47 0 -72.5 -33.5t-40.5 -116.5l-18 -122h277l20 127q12 77 57.5 120t115.5 42q57 0 92 -13q11 -3 31 -11l20 -7q7 -1 5 -14l-108 -679q-2 -9 -7 -9h-3q-10 0 -7 9l106 676q-60 30 -130 30q-68 0 -104.5 -37t-49.5 -113l-19 -121h139q7 0 7 -2v-4
l-1 -6q-1 -6 -9 -6h-139l-65 -418q-1 -7 -8 -7h-4q-8 0 -7 7l66 418h-278l-66 -417q-2 -8 -8 -8h-4q-8 0 -6 8l65 417h-101q-8 0 -7 7l1 3q2 8 9 8h101l20 127q24 163 134 163q54 0 87 -42q4 -4 1 -9l-5 -6q-3 -9 -10 0z" />
    <glyph glyph-name=".notdef" horiz-adv-x="0" 
 />
    <glyph glyph-name=".null" horiz-adv-x="0" 
 />
    <glyph glyph-name="nonmarkingreturn" horiz-adv-x="333" 
 />
    <glyph glyph-name="NULL" horiz-adv-x="0" 
 />
    <glyph glyph-name="NULL" horiz-adv-x="0" 
 />
    <glyph glyph-name="CR.001" unicode="&#xd;" horiz-adv-x="0" 
 />
    <glyph glyph-name="space" unicode=" " horiz-adv-x="250" 
 />
    <glyph glyph-name="exclam" unicode="!" horiz-adv-x="252" 
d="M159 188h-4q-9 0 -7 8l76 490q2 8 9 8h7q8 -2 7 -8l-80 -490q-2 -8 -8 -8zM125 -10q-24 0 -26 23q-2 25 19 37q9 4 18 4q30 0 25 -32t-36 -32z" />
    <glyph glyph-name="quotedbl" unicode="&#x22;" horiz-adv-x="401" 
d="M295 451l-3 4q-3 5 5 11q38 28 75 76q38 50 42 95q-6 -3 -15 -3q-24 0 -26 23q-2 25 19 37q8 4 18 4q22 0 25 -20q12 -55 -32 -123q-45 -70 -100 -106q-3 -3 -8 2zM261 637q-6 -3 -15 -3q-24 0 -26 23q-2 25 19 37q8 4 18 4q22 0 25 -20q12 -55 -32 -123
q-45 -70 -100 -106q-3 -3 -8 2l-3 5q-2 6 5 10q38 28 75 76q38 50 42 95z" />
    <glyph glyph-name="numbersign" unicode="#" horiz-adv-x="652" 
d="M81 232l3 7q3 6 13 6h113l83 197h-126q-6 0 -7 1t1 7l3 7q3 6 13 6h125l94 223q5 8 12 8h3q9 -1 7 -8l-95 -223h200l95 223q5 8 12 8h3q10 0 7 -8l-95 -223h130q11 0 6 -9l-3 -3q-4 -9 -11 -9h-131l-83 -197h143q11 0 6 -8l-5 -7q-5 -6 -13 -6h-141l-89 -214
q-4 -10 -11 -10h-8q-9 0 -3 10l90 214h-200l-90 -214q-4 -10 -11 -10h-8q-8 0 -2 10l89 214h-114q-6 0 -7 1t2 7zM231 245h201l83 197h-201z" />
    <glyph glyph-name="dollar" unicode="$" horiz-adv-x="560" 
d="M274 10l51 325q-116 32 -159 67q-42 38 -32 110q10 79 81 133t168 57l5 31q2 8 9 8h4q8 0 8 -8l-5 -31q114 -1 179 -66q4 -7 2 -11l-4 -8q-4 -7 -11 0q-58 63 -169 66l-53 -333q118 -32 162 -69q43 -37 33 -106q-11 -80 -76 -132q-65 -51 -176 -53l-14 -94q-2 -8 -11 -8
h-4q-8 0 -6 8l14 94q-138 5 -208 84q-7 4 -2 11l4 6q6 7 13 -1q65 -75 197 -80zM345 330l-50 -320q93 2 153 44q63 44 73 111q10 65 -28 100q-36 33 -148 65zM328 356l52 327q-86 -2 -151 -50t-75 -118t37 -103q44 -30 137 -56z" />
    <glyph glyph-name="percent" unicode="%" horiz-adv-x="810" 
d="M125 549q11 70 59.5 112t118.5 42q69 0 104.5 -42t24.5 -112q-11 -69 -59.5 -111t-117.5 -42q-70 0 -105.5 42t-24.5 111zM145 549q-10 -59 21.5 -96t90.5 -37q61 0 103 36.5t52 96.5q10 61 -21 97.5t-92 36.5q-60 0 -102 -36.5t-52 -97.5zM601 11q60 0 102.5 37t52.5 97
t-21 96.5t-92 36.5q-60 0 -102 -36.5t-52 -96.5t21.5 -97t90.5 -37zM776 145q-11 -70 -59.5 -112t-117.5 -42t-105 42.5t-25 111.5t60 111t118 42t104.5 -42t24.5 -111zM197 11l508 704q4 7 11 7h7q12 0 4 -11l-509 -704q-7 -7 -12 -7h-8q-10 0 -1 11z" />
    <glyph glyph-name="ampersand" unicode="&#x26;" horiz-adv-x="691" 
d="M392 683q-64 0 -107 -37t-53 -102q-4 -55 30 -104q4 -5 23 -28q10 -12 27 -29q22 -22 25 -26l216 -236q79 97 106 249q2 8 9 8h4q9 0 7 -8q-25 -155 -113 -263l88 -97q10 -10 -6 -10h-4q-10 0 -17 7l-76 83q-97 -106 -225 -106q-120 0 -185 62t-48 163q11 69 59 117
t122 66q-20 23 -36 44q-35 53 -26 111q12 74 62 115t127 41q103 0 128 -76q4 -7 -2 -12l-6 -4q-7 -4 -10 3q-8 19 -16 30q-10 15 -37.5 27t-65.5 12zM538 104l-249 273q-68 -12 -117 -58.5t-59 -109.5q-14 -92 45 -149q59 -56 171 -56q121 0 209 100z" />
    <glyph glyph-name="quotesingle" unicode="'" horiz-adv-x="249" 
d="M133 451l-3 4q-3 5 5 11q38 28 75 76q38 50 42 95q-8 -3 -15 -3q-24 0 -27 23q-2 25 19 37q9 4 18 4q23 0 26 -20q12 -55 -32 -123q-45 -70 -100 -106q-5 -3 -8 2z" />
    <glyph glyph-name="parenleft" unicode="(" horiz-adv-x="316" 
d="M318 685q8 9 17 9h5q10 0 3 -9q-150 -202 -184 -419q-38 -221 51 -418q3 -8 -5 -8h-8q-7 0 -11 9q-18 37 -34 99q-10 41 -18 86q-15 110 4 232q34 216 180 419z" />
    <glyph glyph-name="parenright" unicode=")" horiz-adv-x="316" 
d="M197 694h4q9 0 14 -9q82 -202 48 -419q-24 -156 -94 -280q-51 -92 -86 -137q-7 -9 -12 -9h-9q-9 0 -4 8q149 190 184 418q36 218 -52 419q-4 9 7 9z" />
    <glyph glyph-name="asterisk" unicode="*" horiz-adv-x="509" 
d="M416 347l-86 129l-125 -129q-5 -5 -12 1l-3 3q-6 6 -1 11l125 125l-132 81q-8 5 0 13l4 4q6 9 12 3l126 -83l25 179q2 8 12 8h9q9 0 7 -8l-30 -179l152 83q7 4 12 -3l1 -4q3 -9 -3 -13l-158 -81l84 -125q4 -4 -3 -11l-4 -3q-9 -7 -12 -1z" />
    <glyph glyph-name="plus" unicode="+" horiz-adv-x="549" 
d="M289 73h-4q-9 0 -7 8l32 201h-201q-8 0 -8 5l1 4q2 11 10 11h201l32 200q0 8 9 8h4q7 0 7 -8l-32 -200h200q9 0 7 -8l-1 -4q-2 -8 -9 -8h-200l-32 -201q-2 -8 -9 -8z" />
    <glyph glyph-name="comma" unicode="," horiz-adv-x="258" 
d="M37 -152l-3 4q-3 5 4 11q36 24 75 76q39 51 43 95q-8 -3 -16 -3q-14 0 -21 9t-5 23q5 32 36 32q24 0 27 -20q12 -55 -32 -123q-45 -70 -100 -106q-5 -3 -8 2z" />
    <glyph glyph-name="hyphen" unicode="-" horiz-adv-x="397" 
d="M102 292l1 4q2 8 8 8h270q9 0 7 -8l-1 -4q-2 -8 -9 -8h-269q-9 0 -7 8z" />
    <glyph glyph-name="period" unicode="." horiz-adv-x="263" 
d="M109 10q-7 9 -5 23t12 23q11 9 25 9t22 -9t6 -23t-13 -23t-25 -9t-22 9z" />
    <glyph glyph-name="slash" unicode="/" horiz-adv-x="368" 
d="M22 8l416 706q5 8 12 8h5q10 0 5 -8l-416 -706q-5 -8 -11 -8h-8q-8 0 -3 8z" />
    <glyph glyph-name="zero" unicode="0" horiz-adv-x="597" 
d="M112 347q25 160 107 258q83 98 191 98q109 0 160 -98q51 -97 25 -258t-107 -259q-81 -97 -190 -97t-160 98t-26 258zM575 347q24 152 -22 243q-47 93 -146 93t-176 -93q-75 -92 -99 -243q-24 -152 22 -244q47 -92 147 -92t175 92q75 91 99 244z" />
    <glyph glyph-name="one" unicode="1" horiz-adv-x="312" 
d="M196 682l1 4q3 8 9 8h118q10 -1 8 -11l-107 -675q-2 -8 -8 -8h-5q-9 0 -7 8l106 666h-108q-9 0 -7 8z" />
    <glyph glyph-name="two" unicode="2" horiz-adv-x="549" 
d="M500 391l-18 -17l-364 -354h369q7 0 7 -2v-4l-1 -8q-1 -6 -9 -6h-386h-4h-6q-14 0 -4 12q46 49 125 125q75 74 181 176l84 80l16 17q6 6 29 43q19 33 24 63q12 75 -26.5 121t-113.5 46q-106 0 -183 -83q-7 -7 -10 -1l-3 5q-4 6 3 13q84 86 196 86q84 0 127.5 -51.5
t29.5 -135.5q-6 -35 -26 -73q-19 -35 -37 -52z" />
    <glyph glyph-name="three" unicode="3" horiz-adv-x="545" 
d="M284 369l53 -1q77 -1 128.5 39t62.5 109q12 75 -26.5 121t-113.5 46q-100 0 -182 -82q-8 -8 -11 -2l-4 6q-5 5 3 11q86 87 197 87q84 0 127 -51.5t30 -135.5q-21 -125 -137 -157q62 -16 90 -58t18 -106q-15 -95 -84 -153q-68 -58 -166 -58q-93 0 -144 53q-50 55 -40 141
q2 8 8 8h6q6 0 6 -8q-7 -79 39 -126.5t129 -47.5q90 0 151 52t75 139q10 67 -31.5 109.5t-119.5 44.5h-67q-8 0 -7 7l1 7q1 6 9 6z" />
    <glyph glyph-name="four" unicode="4" horiz-adv-x="612" 
d="M489 184h87q7 0 7 -2v-4l-1 -8q-2 -6 -9 -6h-87l-25 -156q-2 -8 -8 -8h-6q-8 0 -6 8l25 156h-359h-2h-7q-15 0 -5 13l434 508q7 9 17 9h16q10 0 8 -11zM469 184l79 497l-424 -497h345z" />
    <glyph glyph-name="five" unicode="5" horiz-adv-x="545" 
d="M540 674h-299l-75 -326q76 76 167 76q100 0 151 -61q53 -60 36 -158q-16 -100 -85 -161q-67 -60 -166 -60q-93 0 -144 53q-50 55 -40 141q2 8 7 8h8q8 0 6 -8q-7 -81 38 -127.5t129 -46.5q89 0 150 55q64 56 77 146q14 89 -33 144q-46 55 -138 55q-22 0 -56 -9
q-9 -2 -27 -12l-19 -10q-2 -1 -37 -29q-3 -2 -17 -16l-14 -13h-10q-9 0 -9 10l82 358q5 12 14 11h307q7 0 7 -8l-1 -3q-1 -9 -9 -9z" />
    <glyph glyph-name="six" unicode="6" horiz-adv-x="539" 
d="M514 201q-15 -95 -83 -154q-67 -58 -163 -58t-145 58t-34 154q8 48 30 88l246 399q5 6 10 6h8q7 0 0 -13l-196 -317q67 47 148 47q96 0 145 -57t34 -153zM494 201q13 85 -31.5 137.5t-130.5 52.5q-84 0 -148 -53q-62 -53 -75 -137q-14 -86 30.5 -139t131.5 -53
q86 0 148 53q61 52 75 139z" />
    <glyph glyph-name="seven" unicode="7" horiz-adv-x="483" 
d="M147 694h406q15 0 7 -15l-360 -670q-4 -9 -11 -9h-7q-8 0 -3 9l357 665h-392q-8 0 -7 7l1 6q1 7 9 7z" />
    <glyph glyph-name="eight" unicode="8" horiz-adv-x="561" 
d="M391 703q84 0 128 -49t31 -128q-8 -54 -46 -96.5t-95 -61.5q68 -16 101.5 -64t23.5 -115q-13 -89 -84 -145q-70 -54 -172 -54q-100 0 -153 54q-52 55 -38 145q10 66 59 114t122 65q-51 19 -75 61.5t-16 96.5q13 78 72 128q58 49 142 49zM514 190q11 74 -38 120
q-49 47 -138 47q-91 0 -156 -47q-64 -46 -75 -120q-13 -81 35.5 -130.5t140.5 -49.5t154 49q63 49 77 131zM197 526q-9 -63 31 -106t113 -43q74 0 126 43q54 43 63 106q11 71 -27.5 114t-113.5 43q-76 0 -128 -43q-54 -44 -64 -114z" />
    <glyph glyph-name="nine" unicode="9" horiz-adv-x="539" 
d="M516 379l-234 -372q-4 -7 -12 -7h-6q-8 0 -1 13l196 312q-64 -44 -145 -44q-96 0 -145 58t-34 152q15 95 82 153q68 59 163 59t145 -59t35 -153q-9 -53 -44 -112zM317 301q87 0 148 52t75 139q14 86 -31 138.5t-132 52.5q-85 0 -147 -53q-62 -52 -75 -138t31.5 -138.5
t130.5 -52.5z" />
    <glyph glyph-name="colon" unicode=":" horiz-adv-x="238" 
d="M157 443q4 31 37 31q30 0 26 -31t-36 -31q-14 0 -21.5 8.5t-5.5 22.5zM91 22q4 31 37 31q30 0 26 -31q-4 -25 -29 -30q-26 -5 -33 16q-2 6 -1 14z" />
    <glyph glyph-name="semicolon" unicode=";" horiz-adv-x="255" 
d="M167 443q4 31 37 31q14 0 21.5 -8.5t5.5 -22.5q-4 -31 -37 -31q-14 0 -21.5 8.5t-5.5 22.5zM41 -152l-3 4q-4 6 4 11q38 28 75 76q38 50 42 95q-6 -3 -14 -3q-24 0 -27 23q-2 25 19 37q9 4 18 4q21 0 26 -20q11 -55 -33 -123q-45 -70 -100 -106q-2 -2 -7 2z" />
    <glyph glyph-name="less" unicode="&#x3c;" horiz-adv-x="539" 
d="M85 298l2 10q2 8 11 12l478 219q10 5 10 -4l-2 -8q0 -7 -11 -12l-478 -213l409 -222q10 -5 8 -11l-1 -8q-1 -8 -11 -4l-408 228q-8 7 -7 13z" />
    <glyph glyph-name="equal" unicode="=" horiz-adv-x="524" 
d="M500 379h-356q-8 0 -7 7l1 6q1 7 9 7h356q8 0 7 -7l-1 -6q-1 -7 -9 -7zM474 214h-356q-8 0 -7 7l1 6q1 7 9 7h356q8 0 7 -7l-1 -6q-1 -7 -9 -7z" />
    <glyph glyph-name="greater" unicode="&#x3e;" horiz-adv-x="539" 
d="M60 80l480 222l-411 213q-8 5 -8 12l2 8q1 10 9 4l410 -219q9 -5 8 -12l-2 -10q-2 -9 -12 -13l-480 -228q-8 -6 -8 4l1 8q2 7 11 11z" />
    <glyph glyph-name="question" unicode="?" horiz-adv-x="526" 
d="M512 516q11 75 -28 121t-114 46q-104 0 -183 -82q-6 -6 -10 -2l-3 4q-4 5 0 12q88 88 198 88q85 0 128 -52q45 -51 32 -135q-8 -51 -34 -90.5t-58 -64.5t-63.5 -47.5t-57.5 -53t-34 -67.5q-2 -8 -9 -8h-6q-7 0 -5 8q14 73 93 130q73 52 98 78q46 51 56 115zM283 23
q-2 -14 -13 -23.5t-25 -9.5q-32 0 -27 33q4 33 38 33q14 0 21.5 -9t5.5 -24z" />
    <glyph glyph-name="at" unicode="@" horiz-adv-x="906" 
d="M902 333q-13 -84 -64 -141q-49 -55 -118 -57q-86 0 -91 84q-59 -104 -174 -104q-80 0 -121 53q-41 54 -27 140q14 88 71 139q59 53 138 53q53 0 88.5 -24.5t48.5 -68.5l11 68q2 6 7 6h9q6 0 4 -6l-32 -204q-20 -116 72 -116q58 0 101.5 49.5t56.5 128.5q25 156 -58 253
q-82 97 -243 97q-179 0 -304 -103q-126 -104 -151 -270q-25 -168 66 -271q93 -102 271 -102q151 0 258 92q8 8 12 2l3 -5q4 -6 -4 -12q-115 -97 -272 -97q-188 0 -285 108q-98 108 -69 284q28 177 159 285q131 109 319 109q166 0 255 -102q88 -102 63 -268zM463 135
q71 0 118 50q46 51 57 125q11 72 -20 120q-32 50 -100 50q-74 0 -126.5 -47.5t-64.5 -125.5q-13 -77 24.5 -124.5t111.5 -47.5z" />
    <glyph glyph-name="A" unicode="A" horiz-adv-x="645" 
d="M608 5l-64 239h-365l-140 -237q-3 -7 -8 -7h-11q-7 0 -1 11l393 673q6 9 12 9h16q8 1 9 -9l181 -673q3 -12 -4 -12h-11q-5 0 -7 6zM539 264l-110 409l-239 -409h349z" />
    <glyph glyph-name="B" unicode="B" horiz-adv-x="612" 
d="M400 370l-222 -1l-55 -350l212 1q95 0 160 49q66 50 78 128q12 73 -36 123t-137 50zM369 388q85 0 144 43q60 43 71 106q10 61 -41 99q-50 38 -141 38h-175l-46 -287h94q53 1 94 1zM221 694h185q99 0 153.5 -43t44.5 -113q-8 -57 -50 -97t-111 -58q81 -14 120.5 -62.5
t29.5 -123.5q-12 -87 -84 -143q-72 -54 -176 -54h-223q-9 0 -8 10l106 673q2 11 13 11z" />
    <glyph glyph-name="C" unicode="C" horiz-adv-x="703" 
d="M666 82q-112 -92 -264 -92q-158 0 -241 98q-82 98 -56 258q25 159 139 258q113 99 271 99q149 0 234 -94q6 -7 -1 -11l-5 -4q-4 -3 -11 1q-85 88 -220 88q-150 0 -257 -93q-106 -91 -130 -244q-24 -151 53 -244q78 -92 228 -92q132 0 248 87q8 5 12 1l5 -5q5 -5 -5 -11z
" />
    <glyph glyph-name="D" unicode="D" horiz-adv-x="693" 
d="M395 674h-168l-104 -654h168q151 0 258 90q108 91 130 237q23 147 -55 237t-229 90zM288 0h-178q-9 0 -8 10l106 674q1 10 12 10h178q160 0 242 -96q83 -96 58 -251q-24 -156 -137 -252q-113 -95 -273 -95z" />
    <glyph glyph-name="E" unicode="E" horiz-adv-x="528" 
d="M478 343h-304l-51 -323h362q7 -3 7 -6l-1 -7q-1 -7 -9 -7h-372q-9 0 -8 10l106 674q1 10 12 10h362q8 0 7 -7l-1 -7q-2 -6 -9 -6h-352l-50 -311h304q9 0 9 -6l-2 -8q-2 -6 -10 -6z" />
    <glyph glyph-name="F" unicode="F" horiz-adv-x="509" 
d="M479 344h-305l-53 -335q-1 -9 -8 -9h-6q-7 0 -6 9l107 674q2 11 13 11h362q9 0 7 -8l-1 -4q-2 -8 -10 -8h-352l-49 -310h305q8 0 6 -8v-4q-2 -8 -10 -8z" />
    <glyph glyph-name="G" unicode="G" horiz-adv-x="765" 
d="M748 328h-281q-9 0 -7 8l1 4q2 8 9 8h291q8 0 8 -9q-29 -169 -126.5 -259t-251.5 -89q-153 0 -233 98q-78 98 -53 258q25 159 139 258q113 98 273 98q148 0 232 -92q7 -7 0 -11l-6 -5q-5 -5 -12 1q-81 87 -216 87q-153 0 -259 -93q-107 -92 -131 -243t50 -244
q74 -92 220 -92q143 0 233.5 81.5t119.5 235.5z" />
    <glyph glyph-name="H" unicode="H" horiz-adv-x="678" 
d="M112 0h-4q-9 0 -7 8l108 678q2 8 9 8h5q8 0 6 -8l-51 -321h438l51 321q2 8 9 8h5q8 0 6 -8l-108 -678q-2 -8 -9 -8h-4q-9 0 -7 8l54 337h-438l-54 -337q-2 -8 -9 -8z" />
    <glyph glyph-name="I" unicode="I" horiz-adv-x="220" 
d="M229 686l-108 -679q-1 -7 -9 -7h-4q-8 0 -7 7l108 679q2 8 9 8h4q9 0 7 -8z" />
    <glyph glyph-name="J" unicode="J" horiz-adv-x="388" 
d="M292 153l84 533q2 8 9 8h4q9 0 7 -8l-83 -529q-11 -75 -55 -120.5t-107 -46.5q-73 2 -125 58q-5 3 -1 9l5 6q6 5 10 1q57 -52 117 -54q50 0 87 39.5t48 103.5z" />
    <glyph glyph-name="K" unicode="K" horiz-adv-x="538" 
d="M229 686l-53 -332l398 334q8 6 14 6h10q13 0 2 -10l-404 -337l326 -337q10 -10 -5 -10h-11q-9 0 -12 5l-320 335l-53 -333q-1 -7 -9 -7h-4q-8 0 -7 7l108 679q2 8 9 8h4q9 0 7 -8z" />
    <glyph glyph-name="L" unicode="L" horiz-adv-x="458" 
d="M229 686l-106 -666h300q10 0 8 -8l-1 -5q-1 -7 -9 -7h-313q-9 0 -7 8l108 678q2 8 9 8h4q9 0 7 -8z" />
    <glyph glyph-name="M" unicode="M" horiz-adv-x="878" 
d="M218 694h8q6 0 9 -8l220 -561l406 562q6 7 12 7h7q8 0 6 -9l-107 -677q-2 -8 -8 -8h-6q-7 0 -6 9l103 647l-396 -544q-5 -6 -11 -8h-7q-5 2 -8 7l-216 543l-103 -645q-1 -9 -8 -9h-6q-8 0 -6 8l107 677q3 9 10 9z" />
    <glyph glyph-name="N" unicode="N" horiz-adv-x="739" 
d="M737 694h5q8 0 6 -8l-107 -676q-1 -10 -12 -10h-12q-8 0 -11 6l-381 658l-104 -656q-2 -8 -9 -8h-4q-9 0 -7 8l107 676q1 10 12 10h8q8 0 11 -7l384 -664l105 663q2 8 9 8z" />
    <glyph glyph-name="O" unicode="O" horiz-adv-x="812" 
d="M105 347q25 159 139 258q113 98 273 98t243 -98q82 -97 57 -258q-26 -161 -139 -259q-112 -97 -273 -97q-160 0 -243 98q-82 97 -57 258zM797 347q25 151 -53 243q-78 93 -229 93q-153 0 -259 -93q-107 -92 -131 -243t54 -244q80 -92 230 -92t257 92q107 94 131 244z" />
    <glyph glyph-name="P" unicode="P" horiz-adv-x="580" 
d="M354 299h-187l-46 -291q-2 -8 -9 -8h-4q-9 0 -7 8l107 675q2 11 12 11h197q99 0 152 -54q53 -55 40 -143q-15 -89 -85 -144q-70 -54 -170 -54zM227 673l-56 -354h189q90 0 152 48q62 49 76 129q13 81 -34.5 130t-137.5 48z" />
    <glyph glyph-name="Q" unicode="Q" horiz-adv-x="812" 
d="M541 12l179 -114q8 -4 1 -11l-6 -6q-5 -6 -12 0l-189 123q-49 -13 -109 -13q-160 0 -243 98q-82 97 -57 258q25 159 139 258q113 98 273 98t243 -98q82 -97 57 -258q-19 -123 -93 -212t-183 -123zM797 347q25 151 -53 243q-78 93 -229 93q-153 0 -259 -93
q-107 -92 -131 -243t54 -244q80 -92 230 -92t257 92q107 94 131 244z" />
    <glyph glyph-name="R" unicode="R" horiz-adv-x="569" 
d="M482 5l-143 294h-171l-46 -291q-2 -8 -9 -8h-5q-9 0 -7 8l107 676q1 10 12 10h196q100 0 153 -54t39 -143q-14 -87 -81 -141q-68 -54 -164 -57l141 -289q4 -10 -5 -10h-10q-5 0 -7 5zM415 674l-187 -1l-56 -354h187q91 0 153 48q62 49 76 129q13 81 -34.5 130t-138.5 48z
" />
    <glyph glyph-name="S" unicode="S" horiz-adv-x="571" 
d="M67 74q-7 4 -2 11l4 6q6 7 13 -1q71 -80 215 -80q93 0 155 43q64 44 74 112q11 69 -31 103q-43 35 -169 68q-116 32 -156 66q-41 37 -31 110q10 81 85 137q75 55 177 54q129 -2 187 -67q4 -7 2 -11l-4 -8q-4 -7 -11 0q-66 66 -181 66q-88 0 -156 -48q-67 -48 -79 -120
q-12 -74 44 -108q28 -17 64 -31q50 -16 95 -28q110 -30 153 -68q42 -38 33 -105q-9 -81 -78 -133q-70 -53 -183 -52q-95 0 -156 35q-46 26 -64 49z" />
    <glyph glyph-name="T" unicode="T" horiz-adv-x="533" 
d="M258 7l106 667h-240q-9 0 -7 8l1 4q2 8 9 8h498q10 0 8 -8l-1 -4q-2 -8 -10 -8h-238l-106 -667q-1 -7 -9 -7h-4q-8 0 -7 7z" />
    <glyph glyph-name="U" unicode="U" horiz-adv-x="694" 
d="M143 272l65 413q2 8 10 8h4q8 0 6 -8l-65 -414q-19 -116 32 -189q53 -71 155 -71q100 0 174 71q72 71 92 189l66 415q1 7 10 7h4q8 0 7 -7l-66 -415q-19 -125 -100 -203q-80 -77 -191 -77q-112 -1 -168 76q-55 77 -35 205z" />
    <glyph glyph-name="V" unicode="V" horiz-adv-x="615" 
d="M292 9l-163 672q-3 12 5 12h9q7 0 8 -7l161 -663l369 663q3 7 10 7h9q7 0 1 -12l-376 -672q-5 -9 -12 -9h-11q-8 0 -10 9z" />
    <glyph glyph-name="W" unicode="W" horiz-adv-x="847" 
d="M606 8l-78 648l-284 -648q-5 -8 -10 -8h-11q-10 0 -12 8l-82 674q-1 12 7 12h7q5 0 7 -6l80 -663l290 662q1 7 9 7h8q7 0 8 -7l81 -662l289 662q1 7 9 7h7q7 0 3 -12l-296 -674q-2 -8 -13 -8h-7q-9 0 -12 8z" />
    <glyph glyph-name="X" unicode="X" horiz-adv-x="554" 
d="M34 0h-6q-13 0 -5 9l292 336l-178 340q-3 9 7 9h9q5 0 10 -6l166 -326l288 326q5 5 13 5h6q11 0 5 -8l-302 -341l175 -336q5 -8 -7 -8h-8q-6 0 -9 6l-166 321l-277 -321q-5 -6 -13 -6z" />
    <glyph glyph-name="Y" unicode="Y" horiz-adv-x="529" 
d="M252 8l44 273l-166 403q-4 9 9 9h5q7 0 10 -8l155 -379l283 379q6 8 13 8h10q7 0 0 -10l-300 -401l-44 -275q-1 -7 -8 -7h-4q-9 0 -7 8z" />
    <glyph glyph-name="Z" unicode="Z" horiz-adv-x="564" 
d="M627 677l-562 -657h464q9 0 7 -8l-1 -4q-2 -8 -9 -8h-484q-19 0 -6 16l561 657h-441q-8 0 -7 7l1 6q1 7 9 7h462q19 0 6 -16z" />
    <glyph glyph-name="bracketleft" unicode="[" horiz-adv-x="332" 
d="M203 674l-129 -816h171q7 0 6 -7l-1 -6q0 -7 -9 -7l-180 1q-11 0 -9 9l132 836q1 10 12 10h181q8 0 7 -7l-1 -6q-1 -7 -9 -7h-171z" />
    <glyph glyph-name="backslash" unicode="\" horiz-adv-x="369" 
d="M141 722h8q5 0 5 -6l194 -704q4 -12 -4 -12h-9q-7 0 -7 7l-193 704q-3 11 6 11z" />
    <glyph glyph-name="bracketright" unicode="]" horiz-adv-x="332" 
d="M43 -142h171l129 816h-171q-8 0 -7 7l1 6q1 7 9 7h181q9 0 8 -10l-132 -836q-2 -9 -11 -9l-182 -1q-7 0 -7 7l1 6q1 7 10 7z" />
    <glyph glyph-name="asciicircum" unicode="^" horiz-adv-x="562" 
d="M105 270l264 414q5 9 16 9h12q11 0 12 -9l134 -414q3 -11 -5 -11h-9q-7 0 -8 6l-132 415l-264 -415q-5 -6 -10 -6h-8q-8 0 -2 11z" />
    <glyph glyph-name="underscore" unicode="_" horiz-adv-x="581" 
d="M47 -114h451q8 0 7 -7l-1 -6q-1 -7 -9 -7h-451q-9 0 -7 8l1 4q2 8 9 8z" />
    <glyph glyph-name="grave" unicode="`" horiz-adv-x="252" 
d="M284 564l-134 111q-5 5 1 13l11 12q5 6 11 0l128 -122q2 -2 -1 -10l-6 -5q-5 -4 -10 1z" />
    <glyph glyph-name="a" unicode="a" horiz-adv-x="577" 
d="M532 316l19 120q2 8 8 8h4q8 0 6 -8l-68 -429q-1 -7 -9 -7h-3q-7 0 -6 7l19 120q-36 -64 -97.5 -100.5t-138.5 -36.5q-103 0 -157 64q-53 64 -36 168q16 102 90 167q73 64 177 64q77 0 127.5 -36.5t64.5 -100.5zM269 8q96 0 164 59q69 58 84 155q15 96 -34 154.5
t-146 58.5q-95 0 -163 -59t-83 -154q-15 -97 34 -155q50 -59 144 -59z" />
    <glyph glyph-name="b" unicode="b" horiz-adv-x="587" 
d="M98 0h-2q-8 0 -7 7l112 707q2 8 7 8h5q7 0 5 -8l-62 -398q36 64 97.5 100.5t137.5 36.5q103 0 157 -64q54 -63 37 -167q-16 -102 -91 -168q-73 -64 -177 -64q-75 0 -126 36.5t-65 100.5l-19 -120q-1 -7 -9 -7zM142 225q-17 -98 33 -158q50 -59 145 -59t163 59
q69 58 84 155q15 96 -34 154q-50 59 -145 59q-97 0 -164 -58q-67 -56 -82 -152z" />
    <glyph glyph-name="c" unicode="c" horiz-adv-x="498" 
d="M473 85q-77 -95 -207 -95q-103 0 -157 64q-53 64 -36 168q18 108 95 170q77 60 171 62q59 1 106.5 -24.5t71.5 -71.5q3 -8 -1 -12l-5 -4q-5 -4 -10 4q-49 90 -164 90q-95 0 -163 -59q-67 -58 -83 -155q-15 -97 34 -155q50 -59 144 -59q119 -1 193 90q6 8 10 4l4 -5
q4 -5 -3 -12z" />
    <glyph glyph-name="d" unicode="d" horiz-adv-x="588" 
d="M266 -10q-103 0 -157 64q-53 64 -36 168q16 102 90 167q73 64 177 64q77 0 127.5 -36.5t64.5 -100.5l63 398q2 8 8 8h4q8 0 6 -8l-112 -707q-1 -7 -9 -7h-3q-7 0 -6 7l19 120q-35 -64 -98 -100.5t-138 -36.5zM518 225q15 94 -35 152q-49 58 -146 58q-95 0 -163 -59
t-83 -154q-15 -97 34 -155q50 -59 144 -59q96 0 164 59t85 158z" />
    <glyph glyph-name="e" unicode="e" 
d="M93 231h425q11 92 -38 148t-143 56q-92 0 -160 -56q-67 -55 -84 -148zM523 213h-433q-12 -92 40 -149q53 -56 150 -56q105 0 177 66q8 8 11 3l4 -5q4 -4 -3 -11q-77 -71 -192 -71q-108 0 -165 64q-56 64 -39 168q16 102 90 167q73 64 177 64t156 -64q54 -64 38 -167
q-2 -9 -11 -9z" />
    <glyph glyph-name="f" unicode="f" horiz-adv-x="298" 
d="M338 425h-137l-66 -417q-2 -8 -8 -8h-4q-8 0 -6 8l65 417h-101q-8 0 -7 7l1 3q2 8 9 8h101l20 127q24 163 134 163q54 0 87 -42q4 -4 1 -9l-5 -6q-3 -9 -10 0q-32 39 -77 39q-47 0 -72.5 -33.5t-40.5 -116.5l-18 -122h137q8 0 7 -7l-1 -4q-1 -7 -9 -7z" />
    <glyph glyph-name="g" unicode="g" horiz-adv-x="577" 
d="M340 453q78 0 129 -38t64 -105l20 126q1 7 8 7h3q8 0 7 -7l-69 -442q-16 -102 -88 -166q-71 -65 -163 -65q-94 1 -185 55q-6 2 -1 8l4 6q4 4 9 2l17 -10q8 -4 39 -19q24 -10 49 -15q32 -8 71 -9q85 0 149 58q65 59 80 150l23 145q-34 -67 -98 -105.5t-142 -38.5
q-103 0 -157 64q-53 64 -36 168q16 102 90 167q73 64 177 64zM269 8q96 0 166 59q69 58 84 155q15 95 -36 154q-50 59 -146 59q-95 0 -163 -59t-83 -154q-15 -97 34 -155q50 -59 144 -59z" />
    <glyph glyph-name="h" unicode="h" horiz-adv-x="546" 
d="M89 7l112 707q2 8 8 8h4q7 0 6 -7l-63 -402q28 65 79.5 102.5t118.5 37.5q85 0 123 -50t22 -148l-38 -247q-2 -8 -7 -8h-6q-7 0 -5 8l40 248q14 86 -20.5 132.5t-111.5 46.5q-75 0 -132 -54q-56 -54 -75 -142l-37 -232q-1 -7 -7 -7h-5q-7 0 -6 7z" />
    <glyph glyph-name="i" unicode="i" horiz-adv-x="198" 
d="M177 436l-68 -429q-1 -7 -8 -7h-4q-7 0 -6 7l68 429q1 7 9 7h4q6 0 5 -7zM168 588q-8 10 -6 25t13 24t26 9t22 -9q8 -9 6 -24t-13 -25q-10 -9 -25 -9t-23 9z" />
    <glyph glyph-name="j" unicode="j" horiz-adv-x="233" 
d="M196 613q4 33 38 33q22 0 27.5 -20.5t-12.5 -37.5q-16 -15 -37.5 -6t-15.5 31zM115 -73l81 508q2 8 8 8h4q7 0 5 -8l-80 -510q-25 -163 -133 -163q-57 2 -98 31q-6 4 -1 12l4 5q3 4 11 -1q37 -29 85 -29q50 0 76 35.5t38 111.5z" />
    <glyph glyph-name="k" unicode="k" horiz-adv-x="409" 
d="M415 443h10q15 0 3 -9l-272 -198l236 -230q3 -4 -5 -6h-13q-6 0 -11 5l-223 219l-34 -217q-1 -7 -8 -7h-3q-7 0 -6 7l112 708q1 7 9 7h2q7 0 6 -7l-74 -466l258 189q8 5 13 5z" />
    <glyph glyph-name="l" unicode="l" horiz-adv-x="198" 
d="M221 715l-112 -708q-1 -7 -8 -7h-4q-7 0 -6 7l112 708q1 7 7 7h6q6 0 5 -7z" />
    <glyph glyph-name="m" unicode="m" horiz-adv-x="827" 
d="M165 443h4q7 0 6 -7l-19 -119q28 64 73.5 100t105.5 36q137 0 133 -151q25 71 72.5 111t111.5 40q76 0 109.5 -50t18.5 -148l-39 -248q-1 -7 -8 -7h-4q-7 0 -6 7l40 249q14 86 -15.5 132.5t-98.5 46.5q-70 0 -124 -61q-54 -63 -67 -152l-34 -214q-2 -8 -7 -8h-6
q-7 0 -5 8l40 248q14 86 -15.5 132.5t-98.5 46.5q-65 0 -118 -56q-52 -55 -70 -141l-36 -231q-1 -7 -8 -7h-5q-7 0 -6 7l68 429q1 7 8 7z" />
    <glyph glyph-name="n" unicode="n" horiz-adv-x="546" 
d="M89 7l68 429q1 7 8 7h4q7 0 6 -7l-19 -123q28 66 79 103t119 37q85 0 123 -50t23 -148l-39 -247q-2 -8 -8 -8h-4q-8 0 -6 8l40 248q14 86 -20.5 132.5t-111.5 46.5q-73 0 -132 -56q-57 -55 -75 -142l-36 -230q-1 -7 -8 -7h-4q-8 0 -7 7z" />
    <glyph glyph-name="o" unicode="o" 
d="M73 222q16 102 90 167q73 64 177 64q103 0 157 -64q54 -63 37 -167q-16 -102 -91 -168q-73 -64 -177 -64q-103 0 -157 64q-53 64 -36 168zM91 222q-15 -98 34 -156t144 -58q97 0 164 58q68 59 83 156q15 96 -34 154.5t-145 58.5q-95 0 -163 -59t-83 -154z" />
    <glyph glyph-name="p" unicode="p" horiz-adv-x="587" 
d="M63 -228h-4q-8 0 -6 8l104 656q1 7 9 7h3q7 0 6 -7l-20 -124q34 66 97 103.5t141 37.5q104 0 156 -64q54 -63 37 -167q-16 -102 -91 -168q-73 -64 -176 -64q-78 0 -128.5 38t-63.5 104l-57 -353q-1 -7 -7 -7zM141 223q-15 -97 34.5 -156t146.5 -59q95 0 163 59
q69 59 83 155q15 96 -34 154q-50 59 -144 59q-98 0 -165 -58q-68 -59 -84 -154z" />
    <glyph glyph-name="q" unicode="q" horiz-adv-x="589" 
d="M570 436l-104 -656q-2 -8 -8 -8h-4q-7 0 -6 7l56 353q-34 -66 -97 -104t-141 -38q-103 0 -157 64t-37 168q16 102 90 167q73 64 178 64q77 0 127.5 -37t64.5 -104l20 124q1 7 9 7h2q8 0 7 -7zM269 8q97 0 165 59q69 58 84 155q15 95 -35 154t-146 59t-164 -59t-83 -154
q-15 -97 34 -155q50 -59 145 -59z" />
    <glyph glyph-name="r" unicode="r" horiz-adv-x="357" 
d="M388 422q-32 12 -69 12q-45 0 -91.5 -35t-73.5 -94l-48 -298q-1 -7 -5 -7h-7q-6 0 -5 7l68 429q1 7 8 7h4q7 0 6 -7l-14 -88q28 46 71 74.5t93 29.5q34 0 73 -12q7 -3 2 -8l-5 -7q-1 -6 -7 -3z" />
    <glyph glyph-name="s" unicode="s" horiz-adv-x="420" 
d="M55 40q-4 4 -2 10l4 6q5 5 10 1q59 -48 144 -48q63 0 109.5 29.5t53.5 71.5q8 49 -33 70q-35 19 -105 38q-80 21 -108 43t-22 67q8 57 58 91q52 36 123 35q80 0 125 -42q4 -4 2 -11l-3 -5q-3 -4 -9 -1l-7 5q-17 14 -40 23q-37 13 -74 13q-63 0 -106 -28t-50 -74
q-5 -31 14 -56q8 -8 27 -17q24 -10 35 -14l50 -13l11 -3q76 -21 106 -45q32 -23 24 -73q-6 -53 -59 -88q-54 -35 -129 -34q-97 0 -149 49z" />
    <glyph glyph-name="t" unicode="t" horiz-adv-x="349" 
d="M224 425l-43 -266q-12 -81 4 -115.5t56 -34.5q35 0 76 33q5 5 8 0l4 -6q3 -5 -6 -11q-44 -34 -88 -34q-48 0 -66 43t-6 119l43 272h-101q-8 0 -7 7l1 4q1 7 9 7h101l26 156q2 8 8 8h3q8 0 6 -8l-25 -156h138q5 0 7 -1.5t1 -5.5l-1 -4q-1 -7 -10 -7h-138z" />
    <glyph glyph-name="u" unicode="u" horiz-adv-x="548" 
d="M443 7l20 123q-28 -65 -79.5 -102.5t-119.5 -37.5q-85 0 -123 50t-23 148l39 247q3 8 8 8h5q7 0 5 -8l-39 -247q-14 -87 20 -133.5t111 -46.5q73 0 131 56q57 54 77 142l35 230q2 8 9 7h4q7 0 6 -7l-68 -429q-1 -7 -8 -7h-4q-7 0 -6 7z" />
    <glyph glyph-name="v" unicode="v" horiz-adv-x="478" 
d="M526 435l-269 -426q-6 -9 -11 -9h-14q-8 0 -9 9l-133 425q-4 9 4 9h10q6 0 7 -6l130 -423l264 424q5 5 9 5h10q7 0 2 -8z" />
    <glyph glyph-name="w" unicode="w" horiz-adv-x="657" 
d="M110 435l78 -420l197 421q3 7 9 7h9q6 0 7 -7l62 -421l213 420q5 8 9 8h8q9 0 1 -11l-216 -424q-3 -8 -14 -8h-6q-10 0 -12 8l-62 402l-189 -402q-5 -8 -15 -8h-7q-8 0 -11 8l-82 424q0 11 6 11h8q7 0 7 -8z" />
    <glyph glyph-name="x" unicode="x" horiz-adv-x="397" 
d="M227 207l-181 -201q-4 -6 -12 -6h-7q-12 0 -2 10l195 211l-126 215q-4 7 3 7h12q5 0 8 -5l116 -202l184 199q8 8 14 8h8q11 0 2 -10l-200 -211l129 -213q4 -9 -3 -9h-11q-8 0 -9 4z" />
    <glyph glyph-name="y" unicode="y" horiz-adv-x="432" 
d="M470 443h6q7 0 0 -13l-373 -649q-5 -9 -11 -9h-5q-8 0 -2 10q2 2 2 3l127 224l-123 421q-4 13 6 13h6q3 0 8 -9l116 -405l231 405q8 9 12 9z" />
    <glyph glyph-name="z" unicode="z" horiz-adv-x="455" 
d="M398 0h-336q-18 0 -6 16l383 409h-305q-6 0 -6 3v3l1 6q1 6 8 6h325q20 0 3 -17l-383 -408h319q6 0 6 -3v-3l-1 -6q-2 -6 -8 -6z" />
    <glyph glyph-name="braceleft" unicode="{" horiz-adv-x="361" 
d="M127 279q31 0 55 31t33 85l26 164q20 134 121 134h44q8 0 7 -7l-1 -6q-1 -7 -9 -7h-42q-82 0 -100 -114l-26 -160q-16 -109 -79 -134q54 -24 37 -134l-26 -160q-20 -113 65 -113h41q5 0 6 -1t0 -6l-1 -7q-1 -7 -9 -7h-43q-99 0 -79 134l26 164q8 56 -5.5 86t-45.5 30
q-7 0 -5 8l2 13q1 7 8 7z" />
    <glyph glyph-name="bar" unicode="|" horiz-adv-x="216" 
d="M231 714l-148 -934q-2 -8 -8 -8h-6q-8 0 -6 8l148 934q2 8 9 8h5q8 0 6 -8z" />
    <glyph glyph-name="braceright" unicode="}" horiz-adv-x="361" 
d="M214 673h-42q-8 0 -7 7l1 6q1 7 9 7h44q99 0 79 -134l-26 -164q-9 -54 5 -85t45 -31q6 0 6 -7l-2 -13q-2 -8 -8 -8q-33 0 -56 -30t-32 -86l-26 -164q-20 -134 -121 -134h-44q-8 0 -7 7l1 7q1 7 10 7h42q82 0 99 113l26 160q16 109 79 134q-54 26 -38 134l26 160
q19 114 -63 114z" />
    <glyph glyph-name="asciitilde" unicode="~" horiz-adv-x="544" 
d="M88 190q-5 -12 -13 -4l-3 4q-4 4 1 11q57 111 147 111q38 0 63.5 -17t36.5 -36.5t33.5 -35.5t55.5 -15q42 1 71 24t54 68q4 7 5.5 7.5t6.5 -2.5l4 -5q3 -4 -1 -11q-53 -107 -147 -107q-37 0 -62 17t-36 36.5t-34 35.5t-57 15q-80 -2 -125 -96z" />
    <glyph glyph-name="uni00A0" unicode="&#xa0;" horiz-adv-x="313" 
 />
    <glyph glyph-name="exclamdown" unicode="&#xa1;" horiz-adv-x="252" 
d="M205 505h4q8 0 6 -8l-76 -489q-2 -8 -9 -8h-7q-9 0 -7 8l80 489q2 8 9 8zM264 671q-4 -31 -36 -31q-21 0 -26.5 19t11.5 35q19 15 36.5 6.5t14.5 -29.5z" />
    <glyph glyph-name="cent" unicode="&#xa2;" horiz-adv-x="498" 
d="M376 433l-145 -422q17 -3 38 -3q119 -1 193 90q7 10 10 4l4 -5q4 -5 -3 -12q-77 -95 -207 -95q-21 0 -42 3l-32 -92q-3 -9 -9 -9h-7q-7 0 -4 9l34 96q-75 18 -110.5 78t-22.5 147q18 108 95 170q77 60 171 62q19 0 24 -1l31 90q3 9 9 9h7q7 0 4 -9l-32 -92
q94 -17 135 -93q3 -8 -2 -13l-4 -3q-5 -4 -10 4q-44 74 -125 87zM212 15l145 420q-4 1 -20 1q-95 0 -163 -59q-67 -58 -83 -155q-13 -80 19.5 -135t101.5 -72z" />
    <glyph glyph-name="sterling" unicode="&#xa3;" horiz-adv-x="522" 
d="M436 0h-351q-8 0 -2 11q77 124 99 193q23 71 17 122h-82q-8 0 -7 7l1 6q1 7 9 7h76q-1 9 -12 56q-6 67 0 108q14 88 70 140.5t137 52.5q110 0 169 -86q5 -8 0 -13l-5 -5q-6 -7 -13 3q-52 81 -155 81q-72 0 -121 -47t-62 -126q-10 -36 -1 -87q6 -28 8 -38l2.5 -15t3 -14.5
t1.5 -9.5h171q8 0 7 -7l-1 -6q-1 -7 -9 -7h-166q4 -117 -109 -306h328q9 0 7 -8l-1 -5q-1 -7 -9 -7z" />
    <glyph glyph-name="currency" unicode="&#xa4;" horiz-adv-x="584" 
d="M369 466q88 0 134 -52l57 53q7 7 12 2l10 -11q4 -4 -5 -11l-62 -49q36 -56 24 -135q-15 -89 -75 -143l49 -54q6 -7 2 -11l-13 -11q-6 -5 -12 2l-44 59q-62 -44 -141 -44q-81 0 -127 42l-64 -59q-7 -7 -12 -2l-10 11q-4 4 4 11l68 54q-46 55 -31 145q12 80 64 132l-49 50
q-5 6 0 11l13 11q5 5 12 -2l41 -53q64 54 155 54zM153 263q-14 -83 29 -132q44 -50 126 -50q81 0 139 50q59 49 72 132t-29 133t-124 50q-84 0 -142 -51q-57 -49 -71 -132z" />
    <glyph glyph-name="yen" unicode="&#xa5;" horiz-adv-x="559" 
d="M267 8l21 132h-168q-8 0 -7 7l1 6q1 7 9 7h168l14 84h-168q-8 0 -7 7l1 6q1 7 9 7h168l3 17l-166 403q-2 6 0.5 7.5t9.5 1.5h2q7 0 12 -8l155 -379l283 379q6 8 17 8h3q10 0 3 -10l-300 -401l-3 -18h169q7 0 7 -6l-1 -6q-2 -8 -9 -8h-169l-14 -84h169q8 0 7 -7l-1 -6
q-1 -7 -9 -7h-169l-21 -132q0 -8 -8 -8h-4q-9 0 -7 8z" />
    <glyph glyph-name="brokenbar" unicode="&#xa6;" horiz-adv-x="220" 
d="M127 124h6q6 0 4 -8l-53 -336q-2 -8 -7 -8h-6q-8 0 -6 8l53 336q2 8 9 8zM221 722h7q7 0 5 -8l-53 -336q-2 -8 -8 -8h-6q-8 0 -6 8l53 336q2 8 8 8z" />
    <glyph glyph-name="section" unicode="&#xa7;" horiz-adv-x="494" 
d="M362 703q112 -1 160 -57q6 -4 3 -10l-4 -6q-3 -8 -9 0q-61 53 -157 53q-70 0 -128 -37q-59 -38 -69 -105q-10 -63 36 -93q38 -23 135 -50q94 -25 130 -57q38 -32 30 -91q-10 -77 -79 -121q50 -38 43 -103q-11 -80 -76 -120q-65 -41 -148 -39q-129 2 -190 71q-4 7 -1 10
l5 7q6 7 12 -1q60 -67 182 -67q71 0 127 32q58 32 68 98q9 59 -26 88q-35 31 -143 59q-98 25 -135 56q-35 32 -26 94q8 71 75 119q-49 36 -40 106q9 71 73 117q65 48 152 47zM122 317q-7 -46 18 -78q10 -12 38 -24q24 -11 49 -19q9 -3 67 -19q59 -16 99 -37q65 39 74 101
q9 57 -26 86q-37 30 -143 58q-66 17 -105 38q-60 -43 -71 -106z" />
    <glyph glyph-name="dieresis" unicode="&#xa8;" horiz-adv-x="354" 
d="M170 670q2 15 12.5 24t24.5 9q15 0 22.5 -9t5.5 -24q-2 -14 -12.5 -23.5t-25.5 -9.5q-14 0 -21.5 9.5t-5.5 23.5zM331 670q5 33 37 33q14 0 22 -9t6 -24q-2 -14 -13 -23t-25 -9q-15 0 -22 9t-5 23z" />
    <glyph glyph-name="copyright" unicode="&#xa9;" horiz-adv-x="826" 
d="M610 234q-64 -78 -170 -78q-85 0 -129 52.5t-30 137.5q12 74 61 123q50 49 108 63t114 -6q57 -20 82 -68q2 -8 -2 -10l-7 -6q-4 -4 -8 2q-40 73 -132 73q-75 0 -130 -47q-54 -46 -66 -124q-12 -76 27 -123t115 -47q97 0 154 71q6 7 9 4l6 -8q3 -3 -2 -9zM112 346
q26 162 138 259q113 98 274 98q159 0 242 -98q83 -99 58 -259q-26 -161 -139 -258q-115 -98 -274 -98q-160 0 -243 98q-82 97 -56 258zM132 346q-24 -151 54 -244q78 -92 229 -92t258 92q107 94 131 244q24 152 -54 244q-77 93 -229 93q-151 0 -258 -93q-107 -92 -131 -244z
" />
    <glyph glyph-name="ordfeminine" unicode="&#xaa;" horiz-adv-x="433" 
d="M467 696h6q8 0 6 -8l-48 -303q-1 -9 -7 -9h-7q-8 0 -6 8l10 67q-55 -82 -161 -82q-73 0 -110 46.5t-25 120.5q12 75 63.5 121t124.5 46q49 0 84.5 -22t50.5 -61l11 68q2 8 8 8zM265 389q66 0 112.5 40.5t57.5 106.5q10 66 -24 106.5t-100 40.5q-64 0 -109 -40.5
t-56 -106.5q-10 -66 22.5 -106.5t96.5 -40.5z" />
    <glyph glyph-name="guillemotleft" unicode="&#xab;" horiz-adv-x="514" 
d="M289 264l1 5q1 10 9 16l157 148q8 11 12 3l4 -5q4 -5 -4 -13l-162 -152l114 -150q4 -9 0 -13l-5 -5q-7 -4 -12 2l-110 148q-5 9 -4 16zM297 436l4 -5q5 -5 -4 -13l-162 -152l114 -150q7 -7 0 -13l-5 -5q-8 -5 -12 2l-110 148q-5 9 -4 16l1 5q2 9 9 16l157 148q7 11 12 3z
" />
    <glyph glyph-name="logicalnot" unicode="&#xac;" horiz-adv-x="623" 
d="M605 364l-30 -185q-2 -8 -9 -8h-4q-9 0 -7 8l28 175h-443q-8 0 -7 7l1 5q2 8 9 8h454q9 0 8 -10z" />
    <glyph glyph-name="uni00AD" unicode="&#xad;" horiz-adv-x="333" 
 />
    <glyph glyph-name="registered" unicode="&#xae;" horiz-adv-x="812" 
d="M105 346q26 162 138 259q113 98 274 98q159 0 242 -98q83 -99 58 -259q-26 -161 -139 -258q-115 -98 -274 -98q-160 0 -243 98q-82 97 -56 258zM797 346q24 152 -54 244q-78 93 -229 93q-152 0 -258 -93q-107 -94 -131 -244q-24 -151 54 -244q78 -92 229 -92t258 92
q107 94 131 244zM605 430q-13 -94 -131 -96l79 -164q5 -11 -5 -11h-9q-5 0 -9 7l-80 168h-93l-26 -166q-3 -9 -9 -9h-6q-8 0 -5 9l57 360q1 10 11 10h121q57 0 85 -28.5t20 -79.5zM386 517l-26 -163h112q101 0 113 76q7 41 -16.5 65t-70.5 23z" />
    <glyph glyph-name="overscore" unicode="&#xaf;" horiz-adv-x="325" 
d="M157 694h231q8 0 6 -8l-1 -6q-1 -7 -8 -7h-231q-8 0 -6 8v4q2 9 9 9z" />
    <glyph glyph-name="degree" unicode="&#xb0;" horiz-adv-x="422" 
d="M144 549q11 70 59.5 112t118.5 42q69 0 105 -42.5t25 -111.5q-10 -67 -60 -111q-50 -42 -118 -42q-69 0 -105 42t-25 111zM164 549q-10 -60 21 -96.5t92 -36.5q60 0 102 36q42 37 53 97q10 59 -22 97q-31 37 -91 37t-102.5 -36.5t-52.5 -97.5z" />
    <glyph glyph-name="plusminus" unicode="&#xb1;" horiz-adv-x="589" 
d="M327 177h-6q-8 0 -6 8l29 182h-202q-9 0 -7 8l1 4q2 8 9 8h202l29 181q2 8 9 8h5q8 0 6 -8l-29 -181h199q8 0 7 -7l-1 -6q-1 -7 -9 -7h-199l-29 -182q-2 -8 -8 -8zM521 71l-1 -6q-1 -7 -9 -7h-415q-7 0 -7 7l1 6q1 7 9 7h415q8 0 7 -7z" />
    <glyph glyph-name="twosuperior" unicode="&#xb2;" horiz-adv-x="337" 
d="M341 473l-43 -38l-102 -88q-36 -31 -85 -74h229q8 0 7 -7l-1 -6q-1 -7 -10 -7h-259q-17 0 -3 12l245 214l12 11l25 26q20 26 25 64q7 47 -17.5 75t-72.5 28q-65 0 -115 -50q-7 -7 -10 -1l-4 6q-4 4 4 12q56 53 123 53q60 0 91 -32.5t20 -95.5q-7 -57 -59 -102z" />
    <glyph glyph-name="threesuperior" unicode="&#xb3;" horiz-adv-x="332" 
d="M207 483l1 6q1 7 9 7h32q100 0 113 88q7 44 -16 71.5t-67 27.5q-60 0 -110 -49q-7 -7 -10 -2l-4 6q-3 5 2 10q55 55 125 55q53 0 81 -33t19 -86q-10 -72 -75 -98q71 -24 57 -107q-9 -60 -54 -97q-44 -38 -105 -38q-59 0 -91.5 33.5t-26.5 87.5q0 8 8 8h4q8 0 8 -6
q-4 -47 24 -75t77 -28q52 0 90 32t46 83q7 44 -17 69.5t-72 27.5h-42q-6 0 -6 7z" />
    <glyph glyph-name="acute" unicode="&#xb4;" horiz-adv-x="253" 
d="M313 698l7 -12q4 -7 -4 -12l-170 -113q-8 -7 -10 -1l-4 5q-3 6 1 10l168 123q7 6 12 0z" />
    <glyph glyph-name="mu" unicode="&#xb5;" horiz-adv-x="545" 
d="M475 206l35 230q1 7 9 7h3q8 0 7 -7l-68 -429q-1 -7 -9 -7h-2q-8 0 -7 7l20 123q-28 -65 -79.5 -102.5t-119.5 -37.5q-122 0 -144 97l-49 -306q-2 -8 -7 -8h-6q-7 0 -5 8l104 654q2 8 8 8h4q8 0 6 -8l-41 -259q-10 -81 24 -124.5t109 -43.5q73 0 131 56q57 54 77 142z
" />
    <glyph glyph-name="paragraph" unicode="&#xb6;" horiz-adv-x="559" 
d="M527 673h-161l-113 -713q-2 -8 -10 -8h-4q-8 0 -6 8l58 367q-82 0 -124 50.5t-29 132.5q14 83 71 132q58 51 140 51h18h1h236q8 0 6 -8v-4q-2 -8 -9 -8h-54l-113 -713q-2 -8 -10 -8h-4q-8 0 -6 8z" />
    <glyph glyph-name="middot" unicode="&#xb7;" horiz-adv-x="211" 
d="M119 280q4 31 35 31q30 0 25 -31q-4 -30 -34 -30q-14 0 -21 8.5t-5 21.5z" />
    <glyph glyph-name="cedilla" unicode="&#xb8;" horiz-adv-x="278" 
d="M134 0h22l-41 -68q58 -1 83 -15t19 -50q-5 -38 -35 -60.5t-74 -22.5q-53 0 -93 35q-5 5 -1 10l4 5q4 6 11 1q41 -31 82 -31q36 0 59 17t27 47q3 25 -21 34.5t-75 9.5h-9q-10 0 -5 9z" />
    <glyph glyph-name="onesuperior" unicode="&#xb9;" horiz-adv-x="221" 
d="M147 694h88q9 0 8 -10l-67 -423q-2 -8 -9 -8h-4q-9 0 -7 8l66 413h-78q-8 0 -7 7l1 6q1 7 9 7z" />
    <glyph glyph-name="ordmasculine" unicode="&#xba;" horiz-adv-x="391" 
d="M307 704q75 0 113.5 -46t26.5 -121t-65.5 -121.5t-128.5 -46.5q-74 0 -112.5 46.5t-26.5 121.5q12 74 65 121q53 46 128 46zM134 537q-11 -67 23 -107.5t100 -40.5t113 40.5t57 107.5q10 66 -24 106.5t-100 40.5t-112 -40.5t-57 -106.5z" />
    <glyph glyph-name="guillemotright" unicode="&#xbb;" horiz-adv-x="485" 
d="M280 269l-1 -5q-1 -7 -10 -16l-156 -148q-8 -6 -12 -2l-5 5q-4 4 5 13l161 150l-113 152q-7 8 -1 13l6 5q8 3 12 -3l109 -148q7 -4 5 -16zM319 431l6 5q6 4 12 -3l109 -148q7 -8 5 -16l-1 -5q-1 -7 -10 -16l-156 -148q-7 -7 -12 -2l-5 5q-4 4 2 10l3 3l161 150l-113 152
q-7 8 -1 13z" />
    <glyph glyph-name="onequarter" unicode="&#xbc;" horiz-adv-x="791" 
d="M750 122l-1 -6q-1 -7 -9 -7h-54l-16 -101q-2 -8 -8 -8h-6q-8 0 -6 8l16 101h-237q-20 0 -5 17l272 305q8 8 17 8h16q9 0 8 -10l-48 -300h54q8 0 7 -7zM171 11l508 704q4 7 11 7h7q12 0 4 -11l-510 -704q-4 -7 -11 -7h-8q-10 0 -1 11zM189 261l66 413h-79q-8 0 -7 7l1 6
q1 7 9 7h88q9 0 8 -10l-67 -423q-2 -8 -9 -8h-4q-8 0 -6 8zM451 129h218l47 297z" />
    <glyph glyph-name="onehalf" unicode="&#xbd;" horiz-adv-x="809" 
d="M171 11l508 704q4 7 11 7h7q12 0 4 -11l-510 -704q-4 -7 -11 -7h-8q-10 0 -1 11zM178 694h88q9 0 8 -10l-67 -423q-2 -8 -9 -8h-4q1 0 0.5 0.5t-2.5 1.5q-6 3 -5 6l66 413h-78q-8 0 -7 7l1 6q1 7 9 7zM741 220l-43 -38l-102 -88l-84 -74h228q8 0 7 -7l-1 -6q-1 -7 -9 -7
h-260q-17 0 -3 12l245 214l12 11l25 26q20 26 25 64q7 47 -17.5 75t-71.5 28q-63 0 -116 -50q-6 -6 -10 -1l-4 6q-3 4 5 12q53 53 123 53q60 0 90.5 -32.5t19.5 -95.5q-8 -57 -59 -102z" />
    <glyph glyph-name="threequarters" unicode="&#xbe;" horiz-adv-x="915" 
d="M272 11l508 704q4 7 11 7h7q12 0 4 -11l-509 -704q-7 -7 -12 -7h-8q-10 0 -1 11zM238 483l1 6q1 7 9 7h32q101 2 113 88q7 44 -16 71.5t-67 27.5q-60 0 -110 -49q-7 -7 -10 -2l-4 6q-3 5 2 10q55 55 125 55q53 0 81 -33t19 -86q-10 -72 -75 -98q71 -24 57 -107
q-9 -60 -54 -97q-44 -38 -105 -38q-59 0 -91.5 33.5t-26.5 87.5q0 8 8 8h4q8 0 8 -6q-4 -47 24 -75t77 -28q52 0 90 32t46 83q7 44 -16.5 70t-72.5 27h-42q-6 0 -6 7zM865 122l-1 -6q-1 -7 -9 -7h-54l-16 -101q-2 -8 -8 -8h-6q-8 0 -6 8l16 101h-237q-20 0 -5 17l272 305
q8 8 17 8h16q9 0 8 -10l-48 -300h54q8 0 7 -7zM566 129h218l47 297z" />
    <glyph glyph-name="questiondown" unicode="&#xbf;" horiz-adv-x="526" 
d="M351 500q3 8 8 8h6q8 0 6 -8q-14 -72 -93 -129q-73 -52 -98 -78q-46 -51 -56 -115q-11 -76 28.5 -122t113.5 -46q104 0 183 82q6 7 10 2l3 -4q6 -6 -1 -12q-87 -88 -198 -88q-84 0 -128 51.5t-31 135.5q16 96 91 154q11 8 37.5 27.5t40.5 31t32.5 29.5t29.5 38t16 43z
M418 670q-2 -14 -12.5 -23t-25.5 -9q-14 0 -21.5 9t-5.5 23q2 15 12.5 24t24.5 9q15 0 22.5 -9t5.5 -24z" />
    <glyph glyph-name="Agrave" unicode="&#xc0;" horiz-adv-x="645" 
d="M608 5l-64 239h-365l-140 -237q-3 -7 -8 -7h-11q-7 0 -1 11l393 673q6 9 12 9h16q8 1 9 -9l181 -673q3 -12 -4 -12h-11q-5 0 -7 6zM539 264l-110 409l-239 -409h349zM500 727l-164 105q-7 4 -2 13l10 13q5 6 13 1l159 -117q3 -3 -2 -11l-4 -3q-6 -6 -10 -1z" />
    <glyph glyph-name="Aacute" unicode="&#xc1;" horiz-adv-x="645" 
d="M608 5l-64 239h-365l-140 -237q-3 -7 -8 -7h-11q-7 0 -1 11l393 673q6 9 12 9h16q8 1 9 -9l181 -673q3 -12 -4 -12h-11q-5 0 -7 6zM539 264l-110 409l-239 -409h349zM564 858l6 -13q4 -7 -4 -12l-198 -106q-7 -3 -10 1l-3 4q-3 6 2 11l197 116q8 7 10 -1z" />
    <glyph glyph-name="Acircumflex" unicode="&#xc2;" horiz-adv-x="645" 
d="M608 5l-64 239h-365l-140 -237q-3 -7 -8 -7h-11q-7 0 -1 11l393 673q6 9 12 9h16q8 1 9 -9l181 -673q3 -12 -4 -12h-11q-5 0 -7 6zM539 264l-110 409l-239 -409h349zM575 746l-120 92l-149 -92q-7 -4 -14 -4h-12q-17 0 2 11l156 95q12 5 14 5h10l12 -5l127 -95
q17 -11 0 -11h-13q-6 0 -13 4z" />
    <glyph glyph-name="Atilde" unicode="&#xc3;" horiz-adv-x="645" 
d="M608 5l-64 239h-365l-140 -237q-3 -7 -8 -7h-11q-7 0 -1 11l393 673q6 9 12 9h16q8 1 9 -9l181 -673q3 -12 -4 -12h-11q-5 0 -7 6zM539 264l-110 409l-239 -409h349zM308 765q-4 -7 -9 -3l-6 5q-3 2 0 8q41 83 104 83q22 0 37.5 -15t23 -33.5t21 -33t32.5 -13.5
q46 2 80 73q6 8 10 4l6 -7q4 -4 1 -7q-39 -83 -105 -83q-21 0 -36.5 15t-23.5 32.5t-22 32.5t-32 15q-41 -2 -81 -73z" />
    <glyph glyph-name="Adieresis" unicode="&#xc4;" horiz-adv-x="645" 
d="M608 5l-64 239h-365l-140 -237q-3 -7 -8 -7h-11q-7 0 -1 11l393 673q6 9 12 9h16q8 1 9 -9l181 -673q3 -12 -4 -12h-11q-5 0 -7 6zM539 264l-110 409l-239 -409h349zM336 789q4 34 37 34q14 0 21.5 -9.5t5.5 -24.5q-2 -14 -12.5 -23t-24.5 -9q-15 0 -22 9t-5 23zM496 790
q2 14 12.5 23.5t25.5 9.5q14 0 21.5 -9.5t5.5 -23.5q-2 -15 -13 -24t-25 -9q-31 0 -27 33z" />
    <glyph glyph-name="Aring" unicode="&#xc5;" horiz-adv-x="645" 
d="M608 5l-64 239h-365l-140 -237q-3 -7 -8 -7h-11q-7 0 -1 11l393 673q6 9 12 9h16q8 1 9 -9l181 -673q3 -12 -4 -12h-11q-5 0 -7 6zM539 264l-110 409l-239 -409h349zM349 799q6 40 34.5 65t69.5 25t62.5 -25t14.5 -65q-7 -41 -35.5 -66t-69.5 -25t-62 25t-14 66zM369 799
q-5 -32 11.5 -51t48.5 -19t54.5 19t27.5 51t-11.5 51t-48.5 19q-33 0 -55.5 -19t-26.5 -51z" />
    <glyph glyph-name="AE" unicode="&#xc6;" horiz-adv-x="770" 
d="M22 0h-5q-9 0 -2 13l479 672q9 9 16 9h314q5 0 7 -1.5t1 -5.5l-1 -6q-1 -7 -9 -7h-305l-49 -308h257q8 0 7 -7l-1 -6q-1 -7 -9 -7h-257l-52 -326h314q8 0 7 -7l-1 -6q-1 -7 -8 -7h-325q-10 0 -8 11l36 226h-230l-164 -230q-7 -7 -12 -7zM493 651l-280 -394h218z" />
    <glyph glyph-name="Ccedilla" unicode="&#xc7;" horiz-adv-x="703" 
d="M666 82q-112 -92 -264 -92q-158 0 -241 98q-82 98 -56 258q25 159 139 258q113 99 271 99q149 0 234 -94q6 -7 -1 -11l-5 -4q-4 -3 -11 1q-85 88 -220 88q-150 0 -257 -93q-106 -91 -130 -244q-24 -151 53 -244q78 -92 228 -92q132 0 248 87q8 5 12 1l5 -5q5 -5 -5 -11z
M395 0h21l-39 -65q55 -1 78.5 -14t18.5 -47q-5 -36 -33.5 -57.5t-70.5 -21.5q-52 0 -88 33q-6 6 -1 10l4 4q4 7 10 1q44 -29 78 -29t56 16t26 45q3 23 -19.5 32t-71.5 9h-9q-9 0 -4 9z" />
    <glyph glyph-name="Egrave" unicode="&#xc8;" horiz-adv-x="504" 
d="M478 343h-304l-51 -323h362q7 -3 7 -6l-1 -7q-1 -7 -9 -7h-372q-9 0 -8 10l106 674q1 10 12 10h362q8 0 7 -7l-1 -7q-2 -6 -9 -6h-352l-50 -311h304q9 0 9 -6l-2 -8q-2 -6 -10 -6zM447 727l-164 105q-7 4 -2 13l10 13q6 6 13 1l159 -117q3 -3 -2 -11l-4 -3q-5 -6 -10 -1z
" />
    <glyph glyph-name="Eacute" unicode="&#xc9;" horiz-adv-x="504" 
d="M435 343h-304l-51 -323h362q7 -3 7 -6l-1 -7q-1 -7 -9 -7h-372q-9 0 -8 10l106 674q1 10 12 10h362q8 0 7 -7l-1 -7q-1 -6 -9 -6h-352l-50 -311h304q9 0 9 -6l-2 -8q-1 -6 -10 -6zM512 858l6 -13q2 -8 -5 -12l-198 -106q-7 -3 -10 1l-3 4q-3 6 2 11l197 116q8 6 11 -1z
" />
    <glyph glyph-name="Ecircumflex" unicode="&#xca;" horiz-adv-x="504" 
d="M478 343h-304l-51 -323h362q7 -3 7 -6l-1 -7q-1 -7 -9 -7h-372q-9 0 -8 10l106 674q1 10 12 10h362q8 0 7 -7l-1 -7q-2 -6 -9 -6h-352l-50 -311h304q9 0 9 -6l-2 -8q-2 -6 -10 -6zM531 745l-121 92l-148 -92q-7 -4 -14 -4h-12q-16 0 1 11l157 95q8 5 14 5h10q3 0 11 -5
l128 -95q16 -11 0 -11h-14q-7 0 -12 4z" />
    <glyph glyph-name="Edieresis" unicode="&#xcb;" horiz-adv-x="504" 
d="M478 343h-304l-51 -323h362q7 -3 7 -6l-1 -7q-1 -7 -9 -7h-372q-9 0 -8 10l106 674q1 10 12 10h362q8 0 7 -7l-1 -7q-2 -6 -9 -6h-352l-50 -311h304q9 0 9 -6l-2 -8q-2 -6 -10 -6zM287 789q4 34 37 34q14 0 21.5 -9.5t5.5 -24.5q-2 -14 -12.5 -23t-24.5 -9q-15 0 -22 9
t-5 23zM447 790q2 14 12.5 23.5t25.5 9.5q14 0 21.5 -9.5t5.5 -23.5q-2 -26 -29 -31q-25 -6 -34 12q-5 8 -2 19z" />
    <glyph glyph-name="Igrave" unicode="&#xcc;" horiz-adv-x="220" 
d="M229 686l-108 -679q-1 -7 -9 -7h-4q-8 0 -7 7l108 679q2 8 9 8h4q9 0 7 -8zM285 727l-163 105q-9 5 -2 13l10 13q4 6 12 1l159 -117q4 -2 -1 -11l-5 -3q-5 -5 -10 -1z" />
    <glyph glyph-name="Iacute" unicode="&#xcd;" horiz-adv-x="220" 
d="M229 686l-108 -679q-1 -7 -9 -7h-4q-8 0 -7 7l108 679q2 8 9 8h4q9 0 7 -8zM350 858l6 -13q2 -8 -5 -12l-198 -106q-5 -5 -10 1l-3 4q-2 8 3 11l196 116q10 6 11 -1z" />
    <glyph glyph-name="Icircumflex" unicode="&#xce;" horiz-adv-x="220" 
d="M229 686l-108 -679q-1 -7 -9 -7h-4q-8 0 -7 7l108 679q2 8 9 8h4q9 0 7 -8zM241 845l3 15h6q4 0 12 -6l134 -100q8 -4 7.5 -7.5t-8.5 -3.5h-13q-8 0 -13 5zM60 754l165 100q7 5 14 5h5l-1 -14l-157 -97q-9 -6 -16 -6h-13q-14 0 -3 8q3 3 6 4z" />
    <glyph glyph-name="Idieresis" unicode="&#xcf;" horiz-adv-x="220" 
d="M229 686l-108 -679q-1 -7 -9 -7h-4q-8 0 -7 7l108 679q2 8 9 8h4q9 0 7 -8zM121 789q2 15 12.5 24.5t25.5 9.5q14 0 21.5 -9.5t5.5 -24.5q-2 -14 -13 -23t-25 -9q-15 0 -22 9t-5 23zM282 790q5 33 37 33q14 0 21.5 -9.5t5.5 -23.5q-2 -15 -12.5 -24t-24.5 -9
q-31 0 -27 33z" />
    <glyph glyph-name="Eth" unicode="&#xd0;" horiz-adv-x="666" 
d="M268 0h-178q-9 0 -8 10l51 323h-53q-7 0 -6 7l1 6q1 7 9 7h52l52 331q1 10 12 10h178q160 0 242 -96q83 -96 58 -251q-24 -156 -137 -252q-113 -95 -273 -95zM153 333l-50 -313h168q151 0 258 90q108 91 130 237q23 147 -55 237t-229 90h-168l-51 -321h197q7 0 7 -2v-4
l-1 -8q-1 -6 -9 -6h-197z" />
    <glyph glyph-name="Ntilde" unicode="&#xd1;" horiz-adv-x="739" 
d="M737 694h5q8 0 6 -8l-107 -676q-1 -10 -12 -10h-12q-8 0 -11 6l-381 658l-104 -656q-2 -8 -9 -8h-4q-9 0 -7 8l107 676q1 10 12 10h8q8 0 11 -7l384 -664l105 663q2 8 9 8zM354 765q-3 -7 -9 -3l-6 5q-3 2 0 8q41 83 104 83q22 0 37.5 -15t23 -33.5t21 -33t32.5 -13.5
q46 2 80 73q6 8 10 4l6 -7q4 -4 1 -7q-39 -83 -105 -83q-21 0 -36.5 15t-23.5 32.5t-22 32.5t-32 15q-41 -2 -81 -73z" />
    <glyph glyph-name="Ograve" unicode="&#xd2;" horiz-adv-x="797" 
d="M397 -9q-159 0 -242 98q-83 97 -57 258t138 258q115 98 274 98t242 -98t58 -258q-26 -161 -139 -258q-113 -98 -274 -98zM790 347q25 151 -53 243q-78 93 -229 93q-152 0 -259 -93q-107 -92 -131 -243t54 -244q80 -92 230 -92t257 92q107 94 131 244zM575 727l-163 105
q-9 5 -2 13l9 13q5 6 13 1l159 -117q3 -3 -2 -11l-4 -3q-5 -5 -10 -1z" />
    <glyph glyph-name="Oacute" unicode="&#xd3;" horiz-adv-x="797" 
d="M397 -9q-159 0 -242 98q-83 97 -57 258t138 258q115 98 274 98t242 -98t58 -258q-26 -161 -139 -258q-113 -98 -274 -98zM790 347q25 151 -53 243q-78 93 -229 93q-152 0 -259 -93q-107 -92 -131 -243t54 -244q80 -92 230 -92t257 92q107 94 131 244zM640 858l6 -13
q2 -8 -5 -12l-198 -106q-5 -5 -10 1l-3 4q-2 8 3 11l196 116q8 6 11 -1z" />
    <glyph glyph-name="Ocircumflex" unicode="&#xd4;" horiz-adv-x="797" 
d="M98 348q25 159 139 257q113 98 273 98q159 0 242 -98t57 -257q-26 -162 -138 -259q-113 -98 -274 -98q-159 0 -242 98t-57 259zM507 683q-151 0 -258 -93q-107 -92 -131 -243t54 -244q78 -92 229 -92t258 92q107 94 131 244q24 151 -54 243q-77 93 -229 93zM651 745
l-120 92l-149 -92q-7 -4 -14 -4h-12q-17 0 2 11l156 95q8 5 14 5h10q3 0 11 -5l128 -95q16 -11 0 -11h-13q-8 0 -13 4z" />
    <glyph glyph-name="Otilde" unicode="&#xd5;" horiz-adv-x="797" 
d="M397 -9q-159 0 -242 98q-83 97 -57 258t138 258q115 98 274 98t242 -98t58 -258q-26 -161 -139 -258q-113 -98 -274 -98zM790 347q25 151 -53 243q-78 93 -229 93q-152 0 -259 -93q-107 -92 -131 -243t54 -244q80 -92 230 -92t257 92q107 94 131 244zM384 765
q-4 -7 -9 -3l-6 5q-2 1 -1 8q41 83 104 83q22 0 37.5 -15t23 -33.5t21.5 -33t33 -13.5q46 2 80 73q5 8 10 4l5 -7q5 -3 1 -7q-38 -83 -104 -83q-21 0 -37 15t-24 32.5t-21.5 32.5t-31.5 15q-44 -2 -81 -73z" />
    <glyph glyph-name="Odieresis" unicode="&#xd6;" horiz-adv-x="797" 
d="M397 -9q-159 0 -242 98q-83 97 -57 258t138 258q115 98 274 98t242 -98t58 -258q-26 -161 -139 -258q-113 -98 -274 -98zM790 347q25 151 -53 243q-78 93 -229 93q-152 0 -259 -93q-107 -92 -131 -243t54 -244q80 -92 230 -92t257 92q107 94 131 244zM411 789
q2 15 12.5 24.5t25.5 9.5q14 0 21.5 -9.5t5.5 -24.5q-2 -14 -13 -23t-25 -9q-15 0 -22 9t-5 23zM572 790q5 33 37 33q14 0 21.5 -9.5t5.5 -23.5q-2 -15 -12.5 -24t-24.5 -9q-31 0 -27 33z" />
    <glyph glyph-name="multiply" unicode="&#xd7;" horiz-adv-x="471" 
d="M273 319l-120 142q-4 6 1 11l3 3q7 5 11 0l120 -142l164 142q8 5 11 1l4 -4q5 -5 -3 -11l-164 -142l119 -142q5 -5 -1 -10l-4 -4q-7 -6 -10 0l-121 143l-164 -143q-6 -4 -10 0l-4 4q-3 5 2 10z" />
    <glyph glyph-name="Oslash" unicode="&#xd8;" horiz-adv-x="812" 
d="M105 347q25 159 139 258q113 98 273 98t243 -98q82 -97 57 -258q-26 -161 -139 -259q-112 -97 -273 -97q-160 0 -243 98q-82 97 -57 258zM797 347q25 151 -53 243q-78 93 -229 93q-153 0 -259 -93q-107 -92 -131 -243t54 -244q80 -92 230 -92t257 92q107 94 131 244z
M79 7l714 677q9 9 12 4l6 -6q5 -4 -6 -12l-713 -676q-4 -4 -9 0l-5 4q-4 4 1 9z" />
    <glyph glyph-name="Ugrave" unicode="&#xd9;" horiz-adv-x="694" 
d="M143 272l65 413q2 8 10 8h4q8 0 6 -8l-65 -414q-19 -116 32 -189q53 -71 155 -71q100 0 174 71q72 71 92 189l66 415q1 7 10 7h4q8 0 7 -7l-66 -415q-19 -125 -100 -203q-80 -77 -191 -77q-112 -1 -168 76q-55 77 -35 205zM523 727l-163 105q-9 5 -2 13l9 13q5 6 13 1
l159 -117q3 -3 -2 -11l-4 -3q-5 -5 -10 -1z" />
    <glyph glyph-name="Uacute" unicode="&#xda;" horiz-adv-x="694" 
d="M143 272l65 413q2 8 10 8h4q8 0 6 -8l-65 -414q-19 -116 32 -189q53 -71 155 -71q100 0 174 71q72 71 92 189l66 415q1 7 10 7h4q8 0 7 -7l-66 -415q-19 -125 -100 -203q-80 -77 -191 -77q-112 -1 -168 76q-55 77 -35 205zM588 858l6 -13q2 -8 -5 -12l-198 -106
q-5 -5 -10 1l-3 4q-2 8 3 11l196 116q8 6 11 -1z" />
    <glyph glyph-name="Ucircumflex" unicode="&#xdb;" horiz-adv-x="694" 
d="M143 272l65 413q2 8 10 8h4q8 0 6 -8l-65 -414q-19 -116 32 -189q53 -71 155 -71q100 0 174 71q72 71 92 189l66 415q1 7 10 7h4q8 0 7 -7l-66 -415q-19 -125 -100 -203q-80 -77 -191 -77q-112 -1 -168 76q-55 77 -35 205zM600 751l-120 92l-149 -92q-7 -4 -14 -4h-12
q-17 0 2 11l156 95q12 5 15 5h9l12 -5l127 -95q17 -11 0 -11h-13q-6 0 -13 4z" />
    <glyph glyph-name="Udieresis" unicode="&#xdc;" horiz-adv-x="694" 
d="M143 272l65 413q2 8 10 8h4q8 0 6 -8l-65 -414q-19 -116 32 -189q53 -71 155 -71q100 0 174 71q72 71 92 189l66 415q1 7 10 7h4q8 0 7 -7l-66 -415q-19 -125 -100 -203q-80 -77 -191 -77q-112 -1 -168 76q-55 77 -35 205zM359 789q2 15 12.5 24.5t25.5 9.5
q14 0 21.5 -9.5t5.5 -24.5q-2 -14 -13 -23t-25 -9q-15 0 -22 9t-5 23zM520 790q5 33 37 33q14 0 21.5 -9.5t5.5 -23.5q-2 -15 -12.5 -24t-24.5 -9q-31 0 -27 33z" />
    <glyph glyph-name="Yacute" unicode="&#xdd;" horiz-adv-x="529" 
d="M253 8l43 273l-165 403q-5 9 8 9h5q8 0 11 -8l155 -379l283 379q6 8 12 8h10q7 0 0 -10l-300 -401l-44 -275q0 -7 -8 -7h-4q-8 0 -6 8zM505 858l6 -13q2 -8 -5 -12l-198 -106q-4 -5 -10 1l-3 4q-2 8 3 11l196 116q8 6 11 -1z" />
    <glyph glyph-name="Thorn" unicode="&#xde;" horiz-adv-x="551" 
d="M77 8l107 677q2 9 10 9h5q7 0 5 -9l-24 -155h187q108 0 158 -46t36 -137q-31 -183 -252 -183h-187l-25 -156q-2 -8 -9 -8h-4q-9 0 -7 8zM366 510h-189l-52 -326h189q97 -1 155.5 41t71.5 121q13 80 -32 122t-143 42z" />
    <glyph glyph-name="germandbls" unicode="&#xdf;" horiz-adv-x="594" 
d="M284 19q13 -9 40 -17.5t48 -8.5q64 0 113 39q50 41 60 98q13 80 -59 129q-13 9 -42.5 28.5t-44 30t-27 29t-9.5 37.5q7 45 86 86q33 17 59 42.5t29 52.5q9 55 -28 87.5t-104 32.5q-83 0 -138.5 -56t-71.5 -154l-74 -467q-2 -8 -8 -8h-6q-8 0 -6 8l74 468q17 101 77 164
q62 65 157 65q65 0 112 -38q47 -37 36 -102q-5 -34 -30.5 -62t-58.5 -45q-78 -38 -85 -76q-5 -29 66 -73q27 -16 46 -30t39 -36t28 -50t3 -61q-10 -69 -68 -114q-56 -45 -127 -45q-53 0 -97 26q-9 3 -4 11l4 7q3 7 11 2z" />
    <glyph glyph-name="agrave" unicode="&#xe0;" horiz-adv-x="577" 
d="M532 316l19 120q2 8 8 8h4q8 0 6 -8l-68 -429q-1 -7 -9 -7h-3q-7 0 -6 7l19 120q-36 -64 -97.5 -100.5t-138.5 -36.5q-103 0 -157 64q-53 64 -36 168q16 102 90 167q73 64 177 64q77 0 127.5 -36.5t64.5 -100.5zM269 8q96 0 164 59q69 58 84 155q15 96 -34 154.5
t-146 58.5q-95 0 -163 -59t-83 -154q-15 -97 34 -155q50 -59 144 -59zM403 541l-134 112q-6 5 1 12l11 12q5 6 11 0l128 -122q2 -2 -1 -10l-6 -4q-6 -4 -10 0z" />
    <glyph glyph-name="aacute" unicode="&#xe1;" horiz-adv-x="577" 
d="M532 316l19 120q2 8 8 8h4q8 0 6 -8l-68 -429q-1 -7 -9 -7h-3q-7 0 -6 7l19 120q-36 -64 -97.5 -100.5t-138.5 -36.5q-103 0 -157 64q-53 64 -36 168q16 102 90 167q73 64 177 64q77 0 127.5 -36.5t64.5 -100.5zM269 8q96 0 164 59q69 58 84 155q15 96 -34 154.5
t-146 58.5q-95 0 -163 -59t-83 -154q-15 -97 34 -155q50 -59 144 -59zM492 665l7 -13q5 -6 -3 -12l-170 -112q-8 -5 -11 -2l-3 6q-4 6 1 9l167 124q9 6 12 0z" />
    <glyph glyph-name="acircumflex" unicode="&#xe2;" horiz-adv-x="577" 
d="M532 316l19 120q2 8 8 8h4q8 0 6 -8l-68 -429q-1 -7 -9 -7h-3q-7 0 -6 7l19 120q-36 -64 -97.5 -100.5t-138.5 -36.5q-103 0 -157 64q-53 64 -36 168q16 102 90 167q73 64 177 64q77 0 127.5 -36.5t64.5 -100.5zM269 8q96 0 164 59q69 58 84 155q15 96 -34 154.5
t-146 58.5q-95 0 -163 -59t-83 -154q-15 -97 34 -155q50 -59 144 -59zM231 524l124 133q7 7 14 7h10q3 0 11 -7l81 -132q5 -8 -6 -8h-7q-5 0 -8 4l-79 129l-120 -128q-5 -5 -10 -5h-7q-10 0 -3 7z" />
    <glyph glyph-name="atilde" unicode="&#xe3;" horiz-adv-x="627" 
d="M582 316l19 120q2 8 8 8h4q8 0 6 -8l-68 -429q-1 -7 -9 -7h-3q-7 0 -6 7l19 120q-36 -64 -97.5 -100.5t-138.5 -36.5q-103 0 -157 64q-53 64 -36 168q16 102 90 167q73 64 177 64q77 0 127.5 -36.5t64.5 -100.5zM319 8q96 0 164 59q69 58 84 155q15 96 -34 154.5
t-146 58.5q-95 0 -163 -59t-83 -154q-15 -97 34 -155q50 -59 144 -59zM261 565q-5 -7 -9 -3l-5 5q-5 5 0 10q40 82 104 82q22 0 37.5 -15.5t22.5 -33.5t20.5 -33t32.5 -14q42 2 81 73q4 9 9 4l7 -5q3 -3 0 -9q-41 -83 -105 -83q-21 0 -36.5 15t-23.5 32.5t-22 32.5t-32 15
q-44 -2 -81 -73z" />
    <glyph glyph-name="adieresis" unicode="&#xe4;" horiz-adv-x="577" 
d="M532 316l19 120q2 8 8 8h4q8 0 6 -8l-68 -429q-1 -7 -9 -7h-3q-7 0 -6 7l19 120q-36 -64 -97.5 -100.5t-138.5 -36.5q-103 0 -157 64q-53 64 -36 168q16 102 90 167q73 64 177 64q77 0 127.5 -36.5t64.5 -100.5zM269 8q96 0 164 59q69 58 84 155q15 96 -34 154.5
t-146 58.5q-95 0 -163 -59t-83 -154q-15 -97 34 -155q50 -59 144 -59zM256 634q2 15 13 24t25 9q15 0 22.5 -9t5.5 -24q-2 -14 -13 -23.5t-26 -9.5q-14 0 -21.5 9.5t-5.5 23.5zM455 667q25 0 27 -24q2 -25 -20 -37q-7 -4 -17 -4q-26 0 -28 24q-2 25 20 37q8 4 18 4z" />
    <glyph glyph-name="aring" unicode="&#xe5;" horiz-adv-x="577" 
d="M532 316l19 120q2 8 8 8h4q8 0 6 -8l-68 -429q-1 -7 -9 -7h-3q-7 0 -6 7l19 120q-36 -64 -97.5 -100.5t-138.5 -36.5q-103 0 -157 64q-53 64 -36 168q16 102 90 167q73 64 177 64q77 0 127.5 -36.5t64.5 -100.5zM269 8q96 0 164 59q69 58 84 155q15 96 -34 154.5
t-146 58.5q-95 0 -163 -59t-83 -154q-15 -97 34 -155q50 -59 144 -59zM244 607q7 41 35.5 65.5t68.5 24.5q41 0 62 -24.5t15 -65.5q-7 -41 -36 -66t-70 -25q-40 0 -60.5 25t-14.5 66zM263 607q-4 -32 12.5 -51t48.5 -19t54.5 19t27.5 51t-11.5 51t-48.5 19t-55 -19t-28 -51z
" />
    <glyph glyph-name="ae" unicode="&#xe6;" horiz-adv-x="942" 
d="M861 74q8 8 11 3l4 -5q4 -4 -3 -11q-77 -71 -192 -71q-77 0 -123.5 34.5t-58.5 98.5l-18 -116q-1 -7 -8 -7h-5q-6 0 -5 7l18 111q-68 -128 -215 -128q-103 0 -157 64q-53 64 -36 168q16 102 90 167q73 64 177 64q148 0 173 -128l18 111q2 8 8 8h5q7 0 5 -8l-18 -112
q65 129 213 129q105 0 157 -64q53 -64 37 -170q-2 -6 -11 -6h-411q-13 -96 30.5 -150.5t137.5 -54.5q105 0 177 66zM269 8q91 0 151.5 57.5t76.5 158.5q16 96 -27.5 153.5t-132.5 57.5q-95 0 -163 -59t-83 -154q-15 -97 34 -155q50 -59 144 -59zM519 231h403q11 92 -38 148
t-143 56q-90 0 -147.5 -54t-74.5 -150z" />
    <glyph glyph-name="ccedilla" unicode="&#xe7;" horiz-adv-x="498" 
d="M473 85q-77 -95 -207 -95q-103 0 -157 64q-53 64 -36 168q18 108 95 170q77 60 171 62q59 1 106.5 -24.5t71.5 -71.5q3 -8 -1 -12l-5 -4q-5 -4 -10 4q-49 90 -164 90q-95 0 -163 -59q-67 -58 -83 -155q-15 -97 34 -155q50 -59 144 -59q119 -1 193 90q6 8 10 4l4 -5
q4 -5 -3 -12zM247 0h21l-39 -65q55 -1 78 -14t18 -47q-4 -36 -32.5 -57.5t-70.5 -21.5q-52 0 -88 33q-6 6 -1 10l3 4q4 6 11 1q41 -29 78 -29q34 0 56 16t26 45q3 23 -20 32t-72 9h-8q-9 0 -5 9z" />
    <glyph glyph-name="egrave" unicode="&#xe8;" 
d="M93 231h425q11 92 -38 148t-143 56q-92 0 -160 -56q-67 -55 -84 -148zM523 213h-433q-12 -92 40 -149q53 -56 150 -56q105 0 177 66q8 8 11 3l4 -5q4 -4 -3 -11q-77 -71 -192 -71q-108 0 -165 64q-56 64 -39 168q16 102 90 167q73 64 177 64t156 -64q54 -64 38 -167
q-2 -9 -11 -9zM402 541l-133 111q-5 6 1 12l11 12q5 6 11 0l128 -122q2 -2 -2 -10l-5 -4q-6 -4 -11 1z" />
    <glyph glyph-name="eacute" unicode="&#xe9;" 
d="M93 231h425q11 92 -38 148t-143 56q-92 0 -160 -56q-67 -55 -84 -148zM523 213h-433q-12 -92 40 -149q53 -56 150 -56q105 0 177 66q8 8 11 3l4 -5q4 -4 -3 -11q-77 -71 -192 -71q-108 0 -165 64q-56 64 -39 168q16 102 90 167q73 64 177 64t156 -64q54 -64 38 -167
q-2 -9 -11 -9zM469 668l7 -12q4 -7 -4 -13l-169 -112q-10 -6 -11 -2l-3 6q-5 8 1 9l167 124q7 4 12 0z" />
    <glyph glyph-name="ecircumflex" unicode="&#xea;" 
d="M93 231h425q11 92 -38 148t-143 56q-92 0 -160 -56q-67 -55 -84 -148zM523 213h-433q-12 -92 40 -149q53 -56 150 -56q105 0 177 66q8 8 11 3l4 -5q4 -4 -3 -11q-77 -71 -192 -71q-108 0 -165 64q-56 64 -39 168q16 102 90 167q73 64 177 64t156 -64q54 -64 38 -167
q-2 -9 -11 -9zM230 524l125 133q4 7 13 7h10q3 0 11 -7l81 -132q5 -8 -6 -8h-7q-5 0 -8 4l-79 129l-119 -128q-8 -5 -11 -5h-7q-10 0 -3 7z" />
    <glyph glyph-name="edieresis" unicode="&#xeb;" 
d="M93 231h425q11 92 -38 148t-143 56q-92 0 -160 -56q-67 -55 -84 -148zM523 213h-433q-12 -92 40 -149q53 -56 150 -56q105 0 177 66q8 8 11 3l4 -5q4 -4 -3 -11q-77 -71 -192 -71q-108 0 -165 64q-56 64 -39 168q16 102 90 167q73 64 177 64t156 -64q54 -64 38 -167
q-2 -9 -11 -9zM253 618q2 15 13 24t25 9q15 0 22.5 -9t5.5 -24q-2 -14 -13 -23.5t-26 -9.5q-14 0 -21.5 9.5t-5.5 23.5zM452 651q25 0 27 -24q2 -25 -20 -37q-7 -4 -17 -4q-26 0 -28 24q-2 25 20 37q8 4 18 4z" />
    <glyph glyph-name="igrave" unicode="&#xec;" horiz-adv-x="198" 
d="M177 435l-67 -427q-2 -8 -9 -8h-4q-8 0 -6 8l68 428q1 7 8 7h4q8 0 6 -8zM231 540l-133 111q-8 4 1 13l10 12q5 4 12 0l128 -123q2 -2 -2 -9l-5 -5q-7 -3 -11 1z" />
    <glyph glyph-name="iacute" unicode="&#xed;" horiz-adv-x="198" 
d="M177 435l-67 -427q-2 -8 -9 -8h-4q-8 0 -6 8l68 428q1 7 8 7h4q8 0 6 -8zM306 657l7 -12q5 -6 -3 -12l-170 -112q-7 -6 -11 -2l-3 5q-4 5 1 10l168 123q8 6 11 0z" />
    <glyph glyph-name="icircumflex" unicode="&#xee;" horiz-adv-x="198" 
d="M177 435l-67 -427q-2 -8 -9 -8h-4q-8 0 -6 8l68 428q1 7 8 7h4q8 0 6 -8zM53 517l131 140q7 7 14 7h11q3 0 11 -7l86 -139q6 -9 -6 -9h-8q-4 0 -9 5l-82 135l-127 -134q-5 -6 -10 -6h-7q-12 0 -4 8z" />
    <glyph glyph-name="idieresis" unicode="&#xef;" horiz-adv-x="198" 
d="M177 435l-67 -427q-2 -8 -9 -8h-4q-8 0 -6 8l68 428q1 7 8 7h4q8 0 6 -8zM82 622q2 15 13 24t25 9q15 0 22.5 -9t5.5 -24q-2 -14 -13 -23t-26 -9q-14 0 -21.5 9t-5.5 23zM281 655q25 2 28 -23q2 -25 -19 -37q-8 -5 -19 -4q-26 0 -28 23q-2 25 20 37q9 4 18 4z" />
    <glyph glyph-name="eth" unicode="&#xf0;" horiz-adv-x="539" 
d="M267 -10q-95 0 -144 58t-34 154t82 153t163 57q110 0 161 -79q-19 135 -108 236l-156 -74q-6 -3 -9 1l-5 5q-4 5 5 10l151 72q-51 55 -125 90q-9 3 -4 11l4 6q5 5 12 1q77 -35 136 -97l119 56q7 4 12 -1l4 -5q7 -5 -6 -10l-115 -55q139 -160 103 -384q-16 -91 -85 -149
q-68 -56 -161 -56zM493 204q13 85 -31.5 136.5t-130.5 51.5t-148 -53q-60 -52 -74 -138q-13 -86 31.5 -138.5t130.5 -52.5q85 0 147 53q62 54 75 141z" />
    <glyph glyph-name="ntilde" unicode="&#xf1;" horiz-adv-x="546" 
d="M89 7l68 429q1 7 8 7h4q7 0 6 -7l-19 -123q28 66 79 103t119 37q85 0 123 -50t23 -148l-39 -247q-2 -8 -8 -8h-4q-8 0 -6 8l40 248q14 86 -20.5 132.5t-111.5 46.5q-73 0 -132 -56q-57 -55 -75 -142l-36 -230q-1 -7 -8 -7h-4q-8 0 -7 7zM227 565q-5 -7 -9 -3l-5 5
q-5 5 -1 10q40 82 105 82q21 0 36.5 -15.5t22.5 -33.5t21 -33t33 -14q42 2 81 73q3 9 9 4l6 -5q4 -3 1 -9q-41 -83 -105 -83q-21 0 -37 15t-24 32.5t-21.5 32.5t-31.5 15q-44 -2 -81 -73z" />
    <glyph glyph-name="ograve" unicode="&#xf2;" 
d="M73 222q16 102 90 167q73 64 177 64q103 0 157 -64q54 -63 37 -167q-16 -102 -91 -168q-73 -64 -177 -64q-103 0 -157 64q-53 64 -36 168zM91 222q-15 -98 34 -156t144 -58q97 0 164 58q68 59 83 156q15 96 -34 154.5t-145 58.5q-95 0 -163 -59t-83 -154zM382 541
l-133 111q-5 6 1 12l11 12q5 6 11 0l128 -122q2 -2 -2 -10l-5 -4q-6 -4 -11 1z" />
    <glyph glyph-name="oacute" unicode="&#xf3;" 
d="M73 222q16 102 90 167q73 64 177 64q103 0 157 -64q54 -63 37 -167q-16 -102 -91 -168q-73 -64 -177 -64q-103 0 -157 64q-53 64 -36 168zM91 222q-15 -98 34 -156t144 -58q97 0 164 58q68 59 83 156q15 96 -34 154.5t-145 58.5q-95 0 -163 -59t-83 -154zM479 668l7 -12
q4 -7 -4 -13l-169 -112q-10 -6 -11 -2l-3 6q-5 8 1 9l167 124q7 4 12 0z" />
    <glyph glyph-name="ocircumflex" unicode="&#xf4;" 
d="M73 222q16 102 90 167q73 64 177 64q103 0 157 -64q54 -63 37 -167q-16 -102 -91 -168q-73 -64 -177 -64q-103 0 -157 64q-53 64 -36 168zM91 222q-15 -98 34 -156t144 -58q97 0 164 58q68 59 83 156q15 96 -34 154.5t-145 58.5q-95 0 -163 -59t-83 -154zM231 525
l124 133q7 7 14 7h10q3 0 10 -7l82 -132q6 -8 -6 -8h-8q-4 0 -7 4l-79 129l-120 -128q-5 -5 -10 -5h-7q-11 0 -3 7z" />
    <glyph glyph-name="otilde" unicode="&#xf5;" 
d="M73 222q16 102 90 167q73 64 177 64q103 0 157 -64q54 -63 37 -167q-16 -102 -91 -168q-73 -64 -177 -64q-103 0 -157 64q-53 64 -36 168zM91 222q-15 -98 34 -156t144 -58q97 0 164 58q68 59 83 156q15 96 -34 154.5t-145 58.5q-95 0 -163 -59t-83 -154zM218 554
q-3 -8 -9 -3l-4 5q-4 4 -1 10q40 82 104 82q22 0 37.5 -15.5t22.5 -33.5t20.5 -33t32.5 -14q44 2 81 74q4 7 10 3l6 -5q3 -1 1 -9q-41 -83 -105 -83q-21 0 -37 15t-24 32.5t-22 32.5t-32 15q-44 -2 -81 -73z" />
    <glyph glyph-name="odieresis" unicode="&#xf6;" 
d="M73 222q16 102 90 167q73 64 177 64q103 0 157 -64q54 -63 37 -167q-16 -102 -91 -168q-73 -64 -177 -64q-103 0 -157 64q-53 64 -36 168zM91 222q-15 -98 34 -156t144 -58q97 0 164 58q68 59 83 156q15 96 -34 154.5t-145 58.5q-95 0 -163 -59t-83 -154zM255 633
q7 33 38 33q15 0 22.5 -9t5.5 -24q-2 -14 -12.5 -23.5t-25.5 -9.5q-14 0 -22 9.5t-6 23.5zM455 666q25 0 26 -24q2 -25 -19 -37q-8 -4 -18 -4q-26 0 -28 24q-2 25 21 37q9 4 18 4z" />
    <glyph glyph-name="divide" unicode="&#xf7;" horiz-adv-x="539" 
d="M300 430q7 37 43 37q17 0 25.5 -10.5t5.5 -26.5q-2 -16 -14 -26.5t-29 -10.5q-16 0 -24.5 10t-6.5 27zM258 165q7 37 43 37q17 0 25.5 -10.5t5.5 -26.5q-2 -16 -14 -26.5t-29 -10.5q-16 0 -24.5 10t-6.5 27zM122 292l1 6q1 7 9 7h372q7 0 6 -7l-1 -6q-1 -7 -8 -7h-372
q-8 0 -7 7z" />
    <glyph glyph-name="oslash" unicode="&#xf8;" 
d="M480 406l52 50q8 8 11 1l5 -5q5 -5 -3 -10l-52 -49q58 -64 41 -171q-16 -102 -91 -168q-73 -64 -177 -64q-92 0 -144 52l-52 -49q-8 -7 -12 -3l-4 5q-5 5 3 11l52 50q-52 64 -36 166t90 167q73 64 177 64q87 0 140 -47zM478 378l-340 -321q50 -47 132 -47q95 0 162 58
t82 154q15 99 -36 156zM125 71l339 320q-48 42 -127 42q-95 0 -162 -58t-82 -153q-15 -94 32 -151z" />
    <glyph glyph-name="ugrave" unicode="&#xf9;" horiz-adv-x="548" 
d="M443 7l20 123q-28 -65 -79.5 -102.5t-119.5 -37.5q-85 0 -123 50t-23 148l39 247q3 8 8 8h5q7 0 5 -8l-39 -247q-14 -87 20 -133.5t111 -46.5q73 0 131 56q57 54 77 142l35 230q2 8 9 7h4q7 0 6 -7l-68 -429q-1 -7 -8 -7h-4q-7 0 -6 7zM405 530l-133 111q-8 5 1 13l10 12
q5 4 12 0l128 -123q2 -2 -2 -9l-5 -5q-7 -3 -11 1z" />
    <glyph glyph-name="uacute" unicode="&#xfa;" horiz-adv-x="548" 
d="M443 7l20 123q-28 -65 -79.5 -102.5t-119.5 -37.5q-85 0 -123 50t-23 148l39 247q3 8 8 8h5q7 0 5 -8l-39 -247q-14 -87 20 -133.5t111 -46.5q73 0 131 56q57 54 77 142l35 230q2 8 9 7h4q7 0 6 -7l-68 -429q-1 -7 -8 -7h-4q-7 0 -6 7zM471 657l8 -12q4 -7 -4 -12
l-170 -112q-8 -7 -10 -2l-3 5q-4 6 0 10l168 123q8 6 11 0z" />
    <glyph glyph-name="ucircumflex" unicode="&#xfb;" horiz-adv-x="548" 
d="M443 7l20 123q-28 -65 -79.5 -102.5t-119.5 -37.5q-85 0 -123 50t-23 148l39 247q3 8 8 8h5q7 0 5 -8l-39 -247q-14 -87 20 -133.5t111 -46.5q73 0 131 56q57 54 77 142l35 230q2 8 9 7h4q7 0 6 -7l-68 -429q-1 -7 -8 -7h-4q-7 0 -6 7zM227 518l131 140q7 7 14 7h11
q4 0 11 -7l86 -139q6 -9 -6 -9h-8q-6 0 -8 5l-83 135l-126 -134q-6 -6 -11 -6h-7q-12 0 -4 8z" />
    <glyph glyph-name="udieresis" unicode="&#xfc;" horiz-adv-x="548" 
d="M443 7l20 123q-28 -65 -79.5 -102.5t-119.5 -37.5q-85 0 -123 50t-23 148l39 247q3 8 8 8h5q7 0 5 -8l-39 -247q-14 -87 20 -133.5t111 -46.5q73 0 131 56q57 54 77 142l35 230q2 8 9 7h4q7 0 6 -7l-68 -429q-1 -7 -8 -7h-4q-7 0 -6 7zM258 622q2 15 12.5 24t24.5 9
q15 0 23 -9t5 -24q-2 -14 -12.5 -23t-25.5 -9q-14 0 -21.5 9t-5.5 23zM457 655q24 0 27 -23q2 -25 -19 -37q-8 -4 -18 -4q-26 0 -28 23q-2 25 20 37q9 4 18 4z" />
    <glyph glyph-name="yacute" unicode="&#xfd;" horiz-adv-x="432" 
d="M470 443h6q7 0 0 -13l-373 -649q-5 -9 -11 -9h-5q-8 0 -2 10q2 2 2 3l127 224l-123 421q-4 13 6 13h6q3 0 8 -9l116 -405l231 405q8 9 12 9zM422 648l8 -12q4 -7 -4 -13l-170 -112q-7 -6 -11 -2l-2 6q-6 6 0 9l168 124q8 6 11 0z" />
    <glyph glyph-name="thorn" unicode="&#xfe;" horiz-adv-x="578" 
d="M197 722h6q8 0 6 -8l-64 -403q34 66 97 104t141 38q103 0 157 -64q54 -63 37 -167q-16 -102 -91 -168q-73 -64 -177 -64q-78 0 -128.5 38t-63.5 105l-56 -353q-2 -8 -8 -8h-6q-8 0 -6 8l148 934q2 8 8 8zM131 222q-15 -97 34 -155q50 -59 147 -59q95 0 163 59
q69 58 84 155q15 96 -34 154q-50 59 -145 59t-165 -59q-69 -58 -84 -154z" />
    <glyph glyph-name="ydieresis" unicode="&#xff;" horiz-adv-x="432" 
d="M470 443h6q7 0 0 -13l-373 -649q-5 -9 -11 -9h-5q-8 0 -2 10q2 2 2 3l127 224l-123 421q-4 13 6 13h6q3 0 8 -9l116 -405l231 405q8 9 12 9zM189 613q2 15 12.5 24t24.5 9q15 0 22.5 -9t5.5 -24q-2 -14 -12.5 -23.5t-25.5 -9.5q-14 0 -21.5 9.5t-5.5 23.5zM388 646
q25 0 27 -24q2 -25 -20 -37q-7 -4 -17 -4q-27 0 -29 24q-2 25 21 37q9 4 18 4z" />
    <glyph glyph-name="Amacron" unicode="&#x100;" horiz-adv-x="645" 
d="M608 5l-64 239h-365l-140 -237q-3 -7 -8 -7h-11q-7 0 -1 11l393 673q6 9 12 9h16q8 1 9 -9l181 -673q3 -12 -4 -12h-11q-5 0 -7 6zM539 264l-110 409l-239 -409h349zM333 788h230q8 0 7 -7l-1 -6q-1 -7 -9 -7h-230q-7 0 -6 7l1 6q1 7 8 7z" />
    <glyph glyph-name="amacron" unicode="&#x101;" horiz-adv-x="577" 
d="M532 316l19 120q2 8 8 8h4q8 0 6 -8l-68 -429q-1 -7 -9 -7h-3q-7 0 -6 7l19 120q-36 -64 -97.5 -100.5t-138.5 -36.5q-103 0 -157 64q-53 64 -36 168q16 102 90 167q73 64 177 64q77 0 127.5 -36.5t64.5 -100.5zM269 8q96 0 164 59q69 58 84 155q15 96 -34 154.5
t-146 58.5q-95 0 -163 -59t-83 -154q-15 -97 34 -155q50 -59 144 -59zM250 609h230q7 0 6 -7v-6q-2 -8 -9 -8h-230q-7 0 -6 9v4q2 8 9 8z" />
    <glyph glyph-name="Abreve" unicode="&#x102;" horiz-adv-x="645" 
d="M608 5l-64 239h-365l-140 -237q-3 -7 -8 -7h-11q-7 0 -1 11l393 673q6 9 12 9h16q8 1 9 -9l181 -673q3 -12 -4 -12h-11q-5 0 -7 6zM539 264l-110 409l-239 -409h349zM592 859l6 1q6 0 5 -10q-11 -54 -56 -86.5t-108 -32.5q-61 0 -95.5 33t-29.5 86q3 10 7 10h11
q4 0 4 -10q-2 -47 26 -73t80 -26q111 0 142 99q2 9 8 9z" />
    <glyph glyph-name="abreve" unicode="&#x103;" horiz-adv-x="577" 
d="M532 316l19 120q2 8 8 8h4q8 0 6 -8l-68 -429q-1 -7 -9 -7h-3q-7 0 -6 7l19 120q-36 -64 -97.5 -100.5t-138.5 -36.5q-103 0 -157 64q-53 64 -36 168q16 102 90 167q73 64 177 64q77 0 127.5 -36.5t64.5 -100.5zM269 8q96 0 164 59q69 58 84 155q15 96 -34 154.5
t-146 58.5q-95 0 -163 -59t-83 -154q-15 -97 34 -155q50 -59 144 -59zM485 684h8q5 0 4 -9q-12 -61 -53.5 -98t-97.5 -37t-86 37t-23 98q1 9 6 9h8q8 0 6 -8q-4 -52 21 -84t71 -32t81 32t47 84q2 8 8 8z" />
    <glyph glyph-name="Aogonek" unicode="&#x104;" horiz-adv-x="645" 
d="M608 5l-64 239h-365l-140 -237q-3 -7 -8 -7h-11q-7 0 -1 11l393 673q6 9 12 9h16q8 1 9 -9l181 -673q3 -12 -4 -12h-11q-5 0 -7 6zM539 264l-110 409l-239 -409h349zM655 -175q-35 -36 -88 -36q-39 0 -59.5 22.5t-14.5 59.5q5 37 45 77l39 31l32 25l21 -3
q-40 -31 -58 -46q-54 -50 -59 -81q-4 -29 11.5 -47t45.5 -18q35 0 70 28q9 7 13 3l4 -4q3 -1 -2 -11z" />
    <glyph glyph-name="aogonek" unicode="&#x105;" horiz-adv-x="577" 
d="M532 316l19 120q2 8 8 8h4q8 0 6 -8l-68 -429q-1 -7 -9 -7h-3q-7 0 -6 7l19 120q-36 -64 -97.5 -100.5t-138.5 -36.5q-103 0 -157 64q-53 64 -36 168q16 102 90 167q73 64 177 64q77 0 127.5 -36.5t64.5 -100.5zM269 8q96 0 164 59q69 58 84 155q15 96 -34 154.5
t-146 58.5q-95 0 -163 -59t-83 -154q-15 -97 34 -155q50 -59 144 -59zM524 -160q-32 -33 -83 -35q-37 0 -56 22t-13 57t33 62l24 23l31 23l24 18l14 -8l-55 -43q-46 -37 -52 -73q-5 -27 10 -44.5t43 -17.5q32 0 67 27q7 7 12 4l5 -5q4 -4 -4 -10z" />
    <glyph glyph-name="Cacute" unicode="&#x106;" horiz-adv-x="703" 
d="M666 82q-112 -92 -264 -92q-158 0 -241 98q-82 98 -56 258q25 159 139 258q113 99 271 99q149 0 234 -94q6 -7 -1 -11l-5 -4q-4 -3 -11 1q-85 88 -220 88q-150 0 -257 -93q-106 -91 -130 -244q-24 -151 53 -244q78 -92 228 -92q132 0 248 87q8 5 12 1l5 -5q5 -5 -5 -11z
M613 858l6 -13q2 -8 -5 -12l-198 -106q-4 -5 -10 1l-3 4q-2 8 3 11l196 116q8 6 11 -1z" />
    <glyph glyph-name="cacute" unicode="&#x107;" horiz-adv-x="498" 
d="M473 85q-77 -95 -207 -95q-103 0 -157 64q-53 64 -36 168q18 108 95 170q77 60 171 62q59 1 106.5 -24.5t71.5 -71.5q3 -8 -1 -12l-5 -4q-5 -4 -10 4q-49 90 -164 90q-95 0 -163 -59q-67 -58 -83 -155q-15 -97 34 -155q50 -59 144 -59q119 -1 193 90q6 8 10 4l4 -5
q4 -5 -3 -12zM480 670l7 -13q5 -5 -3 -12l-170 -112q-7 -6 -11 -2l-3 6q-4 4 1 9l168 124q8 6 11 0z" />
    <glyph glyph-name="Ccircumflex" unicode="&#x108;" horiz-adv-x="703" 
d="M666 82q-112 -92 -264 -92q-158 0 -241 98q-82 98 -56 258q25 159 139 258q113 99 271 99q149 0 234 -94q6 -7 -1 -11l-5 -4q-4 -3 -11 1q-85 88 -220 88q-150 0 -257 -93q-106 -91 -130 -244q-24 -151 53 -244q78 -92 228 -92q132 0 248 87q8 5 12 1l5 -5q5 -5 -5 -11z
M632 748l-127 96l-156 -96q-8 -5 -15 -5h-13q-17 0 0 11q1 0 2 1l165 100q8 5 14 5h10q1 0 13 -5l134 -100q15 -12 0 -12h-14q-8 0 -13 5z" />
    <glyph glyph-name="ccircumflex" unicode="&#x109;" horiz-adv-x="498" 
d="M473 85q-77 -95 -207 -95q-103 0 -157 64q-53 64 -36 168q18 108 95 170q77 60 171 62q59 1 106.5 -24.5t71.5 -71.5q3 -8 -1 -12l-5 -4q-5 -4 -10 4q-49 90 -164 90q-95 0 -163 -59q-67 -58 -83 -155q-15 -97 34 -155q50 -59 144 -59q119 -1 193 90q6 8 10 4l4 -5
q4 -5 -3 -12zM226 524l124 133q7 7 14 7h10q3 0 11 -7l81 -132q5 -8 -6 -8h-7q-7 0 -8 4l-79 129l-120 -128q-5 -5 -10 -5h-7q-10 0 -3 7z" />
    <glyph glyph-name="Cdotaccent" unicode="&#x10a;" horiz-adv-x="703" 
d="M666 82q-112 -92 -264 -92q-158 0 -241 98q-82 98 -56 258q25 159 139 258q113 99 271 99q149 0 234 -94q6 -7 -1 -11l-5 -4q-4 -3 -11 1q-85 88 -220 88q-150 0 -257 -93q-106 -91 -130 -244q-24 -151 53 -244q78 -92 228 -92q132 0 248 87q8 5 12 1l5 -5q5 -5 -5 -11z
M469 801q5 30 36 30q20 0 25.5 -18.5t-11.5 -34.5q-17 -15 -35 -6.5t-15 29.5z" />
    <glyph glyph-name="cdotaccent" unicode="&#x10b;" horiz-adv-x="498" 
d="M473 85q-77 -95 -207 -95q-103 0 -157 64q-53 64 -36 168q18 108 95 170q77 60 171 62q59 1 106.5 -24.5t71.5 -71.5q3 -8 -1 -12l-5 -4q-5 -4 -10 4q-49 90 -164 90q-95 0 -163 -59q-67 -58 -83 -155q-15 -97 34 -155q50 -59 144 -59q119 -1 193 90q6 8 10 4l4 -5
q4 -5 -3 -12zM333 609q4 31 36 31q21 0 26.5 -19.5t-12.5 -34.5q-17 -14 -35 -6t-15 29z" />
    <glyph glyph-name="Ccaron" unicode="&#x10c;" horiz-adv-x="703" 
d="M666 82q-112 -92 -264 -92q-158 0 -241 98q-82 98 -56 258q25 159 139 258q113 99 271 99q149 0 234 -94q6 -7 -1 -11l-5 -4q-4 -3 -11 1q-85 88 -220 88q-150 0 -257 -93q-106 -91 -130 -244q-24 -151 53 -244q78 -92 228 -92q132 0 248 87q8 5 12 1l5 -5q5 -5 -5 -11z
M364 845l126 -96l157 96q8 5 15 5h14q14 0 1 -9l-5 -3l-166 -100q-8 -5 -14 -5h-10q-5 0 -13 5l-133 100q-16 12 2 12h13q5 0 13 -5z" />
    <glyph glyph-name="ccaron" unicode="&#x10d;" horiz-adv-x="498" 
d="M473 85q-77 -95 -207 -95q-103 0 -157 64q-53 64 -36 168q18 108 95 170q77 60 171 62q59 1 106.5 -24.5t71.5 -71.5q3 -8 -1 -12l-5 -4q-5 -4 -10 4q-49 90 -164 90q-95 0 -163 -59q-67 -58 -83 -155q-15 -97 34 -155q50 -59 144 -59q119 -1 193 90q6 8 10 4l4 -5
q4 -5 -3 -12zM255 664h7q3 0 9 -6l79 -127l119 127q5 5 9 5h8q14 0 3 -8l-123 -132q-8 -6 -12 -6h-11q-8 0 -11 6l-83 133q-6 8 6 8z" />
    <glyph glyph-name="Dcaron" unicode="&#x10e;" horiz-adv-x="658" 
d="M395 674h-168l-104 -654h168q151 0 258 90q108 91 130 237q23 147 -55 237t-229 90zM288 0h-178q-9 0 -8 10l106 674q1 10 12 10h178q160 0 242 -96q83 -96 58 -251q-24 -156 -137 -252q-113 -95 -273 -95zM329 845l126 -96l157 96q8 5 15 5h14q15 0 1 -9l-5 -3
l-166 -100q-8 -5 -14 -5h-10q-5 0 -13 5l-133 100q-16 12 2 12h13q8 0 13 -5z" />
    <glyph glyph-name="dcaron" unicode="&#x10f;" horiz-adv-x="712" 
d="M266 -10q-103 0 -157 64q-53 64 -36 168q16 102 90 167q73 64 177 64q77 0 127.5 -36.5t64.5 -100.5l63 398q2 8 8 8h4q8 0 6 -8l-112 -707q-1 -7 -9 -7h-3q-7 0 -6 7l19 120q-35 -64 -98 -100.5t-138 -36.5zM518 225q15 94 -35 152q-49 58 -146 58q-95 0 -163 -59
t-83 -154q-15 -97 34 -155q50 -59 144 -59q96 0 164 59t85 158zM614 450l-3 4q-4 4 4 11q37 25 75 75t42 96q-6 -3 -14 -3q-24 0 -27 23q-2 25 19 37q8 4 18 4q23 0 26 -20q12 -55 -32 -123q-45 -70 -100 -106q-6 -5 -8 2z" />
    <glyph glyph-name="Dcroat" unicode="&#x110;" horiz-adv-x="666" 
d="M268 0h-178q-9 0 -8 10l51 323h-53q-7 0 -6 7l1 6q1 7 9 7h52l52 331q1 10 12 10h178q160 0 242 -96q83 -96 58 -251q-24 -156 -137 -252q-113 -95 -273 -95zM153 333l-50 -313h168q151 0 258 90q108 91 130 237q23 147 -55 237t-229 90h-168l-51 -321h197q7 0 7 -2v-4
l-1 -8q-1 -6 -9 -6h-197z" />
    <glyph glyph-name="dslash" unicode="&#x111;" horiz-adv-x="585" 
d="M435 587h140l20 127q2 8 8 8h4q8 0 6 -8l-20 -127h68q9 -1 9 -6l-1 -6q-1 -6 -11 -6h-68l-89 -562q-1 -7 -9 -7h-3q-7 0 -6 7l19 120q-35 -64 -98 -100.5t-138 -36.5q-103 0 -157 64q-53 64 -36 168q16 102 90 167q73 64 177 64q77 0 127.5 -36.5t64.5 -100.5l40 253
h-140q-9 1 -9 6l1 6q2 6 11 6zM269 8q96 0 164 59t85 158q15 94 -35 152q-49 58 -146 58q-95 0 -163 -59t-83 -154q-15 -97 34 -155q50 -59 144 -59z" />
    <glyph glyph-name="Emacron" unicode="&#x112;" horiz-adv-x="504" 
d="M478 343h-304l-51 -323h362q7 -3 7 -6l-1 -7q-1 -7 -9 -7h-372q-9 0 -8 10l106 674q1 10 12 10h362q8 0 7 -7l-1 -7q-2 -6 -9 -6h-352l-50 -311h304q9 0 9 -6l-2 -8q-2 -6 -10 -6zM280 788h230q8 0 7 -7l-1 -6q-1 -7 -9 -7h-230q-7 0 -6 7l1 6q1 7 8 7z" />
    <glyph glyph-name="emacron" unicode="&#x113;" 
d="M93 231h425q11 92 -38 148t-143 56q-92 0 -160 -56q-67 -55 -84 -148zM523 213h-433q-12 -92 40 -149q53 -56 150 -56q105 0 177 66q8 8 11 3l4 -5q4 -4 -3 -11q-77 -71 -192 -71q-108 0 -165 64q-56 64 -39 168q16 102 90 167q73 64 177 64t156 -64q54 -64 38 -167
q-2 -9 -11 -9zM251 611h230q7 0 6 -7v-6q-2 -8 -9 -8h-230q-8 0 -6 9v4q2 8 9 8z" />
    <glyph glyph-name="Ebreve" unicode="&#x114;" horiz-adv-x="504" 
d="M478 343h-304l-51 -323h362q7 -3 7 -6l-1 -7q-1 -7 -9 -7h-372q-9 0 -8 10l106 674q1 10 12 10h362q8 0 7 -7l-1 -7q-2 -6 -9 -6h-352l-50 -311h304q9 0 9 -6l-2 -8q-2 -6 -10 -6zM539 859l6 1q6 0 6 -10q-11 -53 -56.5 -86t-108.5 -33q-61 0 -95.5 33t-29.5 86
q3 10 7 10h11q4 0 4 -10q-2 -47 26 -73t81 -26t89.5 26t51.5 73q1 9 8 9z" />
    <glyph glyph-name="ebreve" unicode="&#x115;" 
d="M93 231h425q11 92 -38 148t-143 56q-92 0 -160 -56q-67 -55 -84 -148zM523 213h-433q-12 -92 40 -149q53 -56 150 -56q105 0 177 66q8 8 11 3l4 -5q4 -4 -3 -11q-77 -71 -192 -71q-108 0 -165 64q-56 64 -39 168q16 102 90 167q73 64 177 64t156 -64q54 -64 38 -167
q-2 -9 -11 -9zM492 683h8q6 0 4 -9q-12 -61 -54 -98t-98 -37t-86 37t-22 98q2 9 6 9h8q8 0 6 -8q-4 -52 21 -84t71 -32t81 32t47 84q2 8 8 8z" />
    <glyph glyph-name="Edotaccent" unicode="&#x116;" horiz-adv-x="504" 
d="M478 343h-304l-51 -323h362q7 -3 7 -6l-1 -7q-1 -7 -9 -7h-372q-9 0 -8 10l106 674q1 10 12 10h362q8 0 7 -7l-1 -7q-2 -6 -9 -6h-352l-50 -311h304q9 0 9 -6l-2 -8q-2 -6 -10 -6zM366 791q4 30 36 30q20 0 25.5 -18.5t-11.5 -34.5q-17 -15 -35 -6.5t-15 29.5z" />
    <glyph glyph-name="edotaccent" unicode="&#x117;" 
d="M93 231h425q11 92 -38 148t-143 56q-92 0 -160 -56q-67 -55 -84 -148zM523 213h-433q-12 -92 40 -149q53 -56 150 -56q105 0 177 66q8 8 11 3l4 -5q4 -4 -3 -11q-77 -71 -192 -71q-108 0 -165 64q-56 64 -39 168q16 102 90 167q73 64 177 64t156 -64q54 -64 38 -167
q-2 -9 -11 -9zM335 617q4 31 36 31q30 0 26 -31q-1 -25 -28 -30q-25 -5 -33 13q-3 8 -1 17z" />
    <glyph glyph-name="Eogonek" unicode="&#x118;" horiz-adv-x="504" 
d="M478 343h-304l-51 -323h362q7 -3 7 -6l-1 -7q-1 -7 -9 -7h-372q-9 0 -8 10l106 674q1 10 12 10h362q8 0 7 -7l-1 -7q-2 -6 -9 -6h-352l-50 -311h304q9 0 9 -6l-2 -8q-2 -6 -10 -6zM458 -175q-36 -36 -87 -36q-39 0 -59.5 23t-14.5 60q1 9 6 19.5t8.5 17t12 18.5t10.5 16
q4 5 12.5 13t17.5 16t11 10l22 18l18 15l5 -15q-95 -72 -102 -126q-5 -29 10.5 -47t45.5 -18q35 0 70 28q7 7 13 4l5 -5q4 -4 -4 -11z" />
    <glyph glyph-name="eogonek" unicode="&#x119;" 
d="M93 231h425q11 92 -38 148t-143 56q-92 0 -160 -56q-67 -55 -84 -148zM523 213h-433q-12 -92 40 -149q53 -56 150 -56q105 0 177 66q8 8 11 3l4 -5q4 -4 -3 -11q-77 -71 -192 -71q-108 0 -165 64q-56 64 -39 168q16 102 90 167q73 64 177 64t156 -64q54 -64 38 -167
q-2 -9 -11 -9zM408 -168q-34 -36 -88 -36q-38 0 -58.5 22.5t-14.5 59.5q5 26 24 54q29 39 86 84q4 4 8 6l5 -15q-94 -73 -103 -127q-4 -29 11.5 -46.5t45.5 -17.5q33 0 69 27q8 8 13 4l5 -5q4 -2 -3 -10z" />
    <glyph glyph-name="Ecaron" unicode="&#x11a;" horiz-adv-x="504" 
d="M478 343h-304l-51 -323h362q7 -3 7 -6l-1 -7q-1 -7 -9 -7h-372q-9 0 -8 10l106 674q1 10 12 10h362q8 0 7 -7l-1 -7q-2 -6 -9 -6h-352l-50 -311h304q9 0 9 -6l-2 -8q-2 -6 -10 -6zM284 845l126 -96l157 96q8 5 15 5h14q14 0 1 -9l-5 -3l-166 -100q-8 -5 -14 -5h-10
q-5 0 -13 5l-133 100q-16 12 2 12h13q5 0 13 -5z" />
    <glyph glyph-name="ecaron" unicode="&#x11b;" 
d="M93 231h425q11 92 -38 148t-143 56q-92 0 -160 -56q-67 -55 -84 -148zM523 213h-433q-12 -92 40 -149q53 -56 150 -56q105 0 177 66q8 8 11 3l4 -5q4 -4 -3 -11q-77 -71 -192 -71q-108 0 -165 64q-56 64 -39 168q16 102 90 167q73 64 177 64t156 -64q54 -64 38 -167
q-2 -9 -11 -9zM258 664h7q3 0 9 -6l79 -127l119 127q5 5 10 5h7q12 0 4 -8l-124 -131q-7 -7 -12 -7h-11q-8 0 -11 7l-83 132q-2 3 0 5.5t6 2.5z" />
    <glyph glyph-name="Gcircumflex" unicode="&#x11c;" horiz-adv-x="760" 
d="M745 328h-281q-8 0 -6 8v4q2 8 10 8h291q9 0 7 -9q-29 -169 -126.5 -259t-251.5 -89q-153 0 -233 98q-78 98 -53 258q26 161 139 258q115 98 274 98q147 0 231 -92q8 -6 0 -11l-5 -5q-6 -6 -12 1q-83 87 -216 87q-152 0 -260 -93q-107 -92 -131 -243t50 -244
q74 -92 220 -92q143 0 233.5 81.5t119.5 235.5zM633 751l-120 92l-149 -92q-7 -4 -14 -4h-12q-17 0 2 11l156 95q12 5 15 5h9l12 -5l127 -95q17 -11 0 -11h-13q-6 0 -13 4z" />
    <glyph glyph-name="gcircumflex" unicode="&#x11d;" horiz-adv-x="577" 
d="M340 453q78 0 129 -38t64 -105l20 126q1 7 8 7h3q8 0 7 -7l-69 -442q-16 -102 -88 -166q-71 -65 -163 -65q-94 1 -185 55q-6 2 -1 8l4 6q4 4 9 2l17 -10q8 -4 39 -19q24 -10 49 -15q32 -8 71 -9q85 0 149 58q65 59 80 150l23 145q-34 -67 -98 -105.5t-142 -38.5
q-103 0 -157 64q-53 64 -36 168q16 102 90 167q73 64 177 64zM269 8q96 0 166 59q69 58 84 155q15 95 -36 154q-50 59 -146 59q-95 0 -163 -59t-83 -154q-15 -97 34 -155q50 -59 144 -59zM237 524l124 133q7 7 14 7h10q3 0 11 -7l81 -132q5 -8 -6 -8h-7q-5 0 -8 4l-79 129
l-120 -128q-5 -5 -10 -5h-7q-10 0 -3 7z" />
    <glyph glyph-name="Gbreve" unicode="&#x11e;" horiz-adv-x="760" 
d="M748 328h-281q-9 0 -7 8l1 4q2 8 9 8h291q8 0 8 -9q-29 -169 -126.5 -259t-251.5 -89q-153 0 -233 98q-78 98 -53 258q25 159 139 258q113 98 273 98q148 0 232 -92q7 -7 0 -11l-6 -5q-5 -5 -12 1q-81 87 -216 87q-153 0 -259 -93q-107 -92 -131 -243t50 -244
q74 -92 220 -92q143 0 233.5 81.5t119.5 235.5zM643 859l7 1q6 0 5 -10q-11 -53 -56 -86t-108 -33q-62 0 -96.5 32.5t-29.5 86.5q3 10 8 10h11q3 0 3 -10q-1 -47 27 -73t80 -26q53 0 90 26t51 73q3 9 8 9z" />
    <glyph glyph-name="gbreve" unicode="&#x11f;" horiz-adv-x="577" 
d="M340 453q78 0 129 -38t64 -105l20 126q1 7 8 7h3q8 0 7 -7l-69 -442q-16 -102 -88 -166q-71 -65 -163 -65q-94 1 -185 55q-6 2 -1 8l4 6q4 4 9 2l17 -10q8 -4 39 -19q24 -10 49 -15q32 -8 71 -9q85 0 149 58q65 59 80 150l23 145q-34 -67 -98 -105.5t-142 -38.5
q-103 0 -157 64q-53 64 -36 168q16 102 90 167q73 64 177 64zM269 8q96 0 166 59q69 58 84 155q15 95 -36 154q-50 59 -146 59q-95 0 -163 -59t-83 -154q-15 -97 34 -155q50 -59 144 -59zM496 683h8q6 0 4 -9q-12 -61 -54 -98t-98 -37t-86 37t-22 98q2 9 6 9h8q8 0 6 -8
q-4 -52 21 -84t71 -32t81 32t47 84q2 8 8 8z" />
    <glyph glyph-name="Gdotaccent" unicode="&#x120;" horiz-adv-x="760" 
d="M745 328h-281q-8 0 -6 8v4q2 8 10 8h291q9 0 7 -9q-29 -169 -126.5 -259t-251.5 -89q-153 0 -233 98q-78 98 -53 258q26 161 139 258q115 98 274 98q147 0 231 -92q8 -6 0 -11l-5 -5q-6 -6 -12 1q-83 87 -216 87q-152 0 -260 -93q-107 -92 -131 -243t50 -244
q74 -92 220 -92q143 0 233.5 81.5t119.5 235.5zM476 801q4 30 36 30q24 3 26 -21t-18 -37q-8 -5 -17 -4q-14 0 -21.5 9t-5.5 23z" />
    <glyph glyph-name="gdotaccent" unicode="&#x121;" horiz-adv-x="577" 
d="M340 453q78 0 129 -38t64 -105l20 126q1 7 8 7h3q8 0 7 -7l-69 -442q-16 -102 -88 -166q-71 -65 -163 -65q-94 1 -185 55q-6 2 -1 8l4 6q4 4 9 2l17 -10q8 -4 39 -19q24 -10 49 -15q32 -8 71 -9q85 0 149 58q65 59 80 150l23 145q-34 -67 -98 -105.5t-142 -38.5
q-103 0 -157 64q-53 64 -36 168q16 102 90 167q73 64 177 64zM269 8q96 0 166 59q69 58 84 155q15 95 -36 154q-50 59 -146 59q-95 0 -163 -59t-83 -154q-15 -97 34 -155q50 -59 144 -59zM339 627q4 31 36 31q30 0 26 -31q-1 -25 -28 -30q-25 -5 -33 13q-3 8 -1 17z" />
    <glyph glyph-name="uni0122" unicode="&#x122;" horiz-adv-x="765" 
d="M748 328h-281q-9 0 -7 8l1 4q2 8 9 8h291q8 0 8 -9q-29 -169 -126.5 -259t-251.5 -89q-153 0 -233 98q-78 98 -53 258q25 159 139 258q113 98 273 98q148 0 232 -92q7 -7 0 -11l-6 -5q-5 -5 -12 1q-81 87 -216 87q-153 0 -259 -93q-107 -92 -131 -243t50 -244
q74 -92 220 -92q143 0 233.5 81.5t119.5 235.5zM388 -95q-4 -4 -16 -4q-14 0 -21 9t-5 23q5 32 36 32q22 0 27 -20q9 -51 -20 -95t-85 -64q-8 -5 -11 2l-3 6q-2 5 4 8q40 14 65 42t29 61z" />
    <glyph glyph-name="uni0123" unicode="&#x123;" horiz-adv-x="577" 
d="M340 453q78 0 129 -38t64 -105l20 126q1 7 8 7h3q8 0 7 -7l-69 -442q-16 -102 -88 -166q-71 -65 -163 -65q-94 1 -185 55q-6 2 -1 8l4 6q4 4 9 2l17 -10q8 -4 39 -19q24 -10 49 -15q32 -8 71 -9q85 0 149 58q65 59 80 150l23 145q-34 -67 -98 -105.5t-142 -38.5
q-103 0 -157 64q-53 64 -36 168q16 102 90 167q73 64 177 64zM269 8q96 0 166 59q69 58 84 155q15 95 -36 154q-50 59 -146 59q-95 0 -163 -59t-83 -154q-15 -97 34 -155q50 -59 144 -59zM349 564q7 4 17 4q14 0 21 -9t5 -23q-5 -32 -36 -32q-24 0 -27 20q-9 51 19.5 95
t84.5 64q10 4 12 -2l3 -6q1 -4 -4 -8q-40 -14 -65.5 -42t-29.5 -61z" />
    <glyph glyph-name="Hcircumflex" unicode="&#x124;" horiz-adv-x="678" 
d="M112 0h-4q-9 0 -7 8l108 678q2 8 9 8h5q8 0 6 -8l-51 -321h438l51 321q2 8 9 8h5q8 0 6 -8l-108 -678q-2 -8 -9 -8h-4q-9 0 -7 8l54 337h-438l-54 -337q-2 -8 -9 -8zM592 749l-121 92l-148 -92q-7 -4 -14 -4h-12q-16 0 1 11l157 95q8 5 14 5h10q3 0 11 -5l128 -95
q16 -11 0 -11h-14q-7 0 -12 4z" />
    <glyph glyph-name="hcircumflex" unicode="&#x125;" horiz-adv-x="544" 
d="M88 7l112 707q2 8 8 8h4q7 0 6 -7l-64 -402q28 65 79.5 102.5t118.5 37.5q85 0 123 -50t23 -148l-38 -247q-2 -8 -7 -8h-6q-7 0 -5 8l39 248q14 86 -20.5 132.5t-111.5 46.5q-74 0 -131 -54q-57 -55 -76 -142l-36 -232q-1 -7 -7 -7h-5q-7 0 -6 7zM527 758l-121 91
l-148 -91q-8 -5 -14 -5h-13q-16 0 2 12l157 95q9 4 14 4h9q2 0 6.5 -2t5.5 -2l127 -95q9 -9 1 -12h-14q-7 0 -12 5z" />
    <glyph glyph-name="Hbar" unicode="&#x126;" horiz-adv-x="678" 
d="M229 686l-23 -145h438l23 145q2 8 9 8h5q8 0 6 -8l-23 -145h45q7 0 6 -7l-1 -6q-1 -6 -8 -7h-45l-82 -513q-2 -8 -9 -8h-4q-9 0 -7 8l54 337h-438l-54 -337q-2 -8 -9 -8h-4q-9 0 -7 8l82 513h-47q-7 0 -6 7l1 6q1 7 8 7h47l23 145q2 8 9 8h5q8 0 6 -8zM641 521h-438
l-25 -156h438z" />
    <glyph glyph-name="hbar" unicode="&#x127;" horiz-adv-x="546" 
d="M373 553l-1 -6q-1 -6 -8 -7h-172l-36 -227q28 65 79.5 102.5t118.5 37.5q85 0 123 -50t22 -148l-38 -247q-2 -8 -7 -8h-6q-7 0 -5 8l40 248q14 86 -20.5 132.5t-111.5 46.5q-75 0 -132 -54q-56 -54 -75 -142l-37 -232q-1 -7 -7 -7h-5q-7 0 -6 7l85 533h-60q-8 0 -7 7l1 6
q1 7 9 7h60l24 154q2 8 8 8h4q7 0 6 -7l-24 -155h172q7 0 6 -7z" />
    <glyph glyph-name="Itilde" unicode="&#x128;" horiz-adv-x="220" 
d="M229 686l-108 -679q-1 -7 -9 -7h-4q-8 0 -7 7l108 679q2 8 9 8h4q9 0 7 -8zM94 765q-4 -7 -9 -3l-6 5q-3 1 -1 8q41 83 105 83q21 0 36.5 -15t23 -33.5t21.5 -33t33 -13.5q46 2 80 73q5 8 10 4l5 -7q5 -3 1 -7q-38 -83 -104 -83q-21 0 -37 15t-24 32.5t-21.5 32.5
t-31.5 15q-41 -2 -81 -73z" />
    <glyph glyph-name="itilde" unicode="&#x129;" horiz-adv-x="198" 
d="M177 435l-67 -427q-2 -8 -9 -8h-4q-8 0 -6 8l68 428q1 7 8 7h4q8 0 6 -8zM47 554q-5 -8 -9 -3l-5 5q-3 4 0 9q41 83 104 83q22 0 37.5 -15.5t22.5 -33.5t20.5 -33t32.5 -14q42 2 81 73q4 9 9 4l7 -6q3 -3 1 -8q-42 -83 -106 -83q-21 0 -36.5 15t-23.5 32.5t-22 32.5
t-32 15q-44 -2 -81 -73z" />
    <glyph glyph-name="Imacron" unicode="&#x12a;" horiz-adv-x="220" 
d="M229 686l-108 -679q-1 -7 -9 -7h-4q-8 0 -7 7l108 679q2 8 9 8h4q9 0 7 -8zM119 788h230q7 0 6 -7l-1 -6q-1 -7 -9 -7h-229q-9 0 -7 8l1 4q2 8 9 8z" />
    <glyph glyph-name="imacron" unicode="&#x12b;" horiz-adv-x="198" 
d="M177 435l-67 -427q-2 -8 -9 -8h-4q-8 0 -6 8l68 428q1 7 8 7h4q8 0 6 -8zM80 611h230q8 0 6 -8l-1 -6q-1 -7 -8 -7h-230q-7 0 -7 8l1 4q1 9 9 9z" />
    <glyph glyph-name="Ibreve" unicode="&#x12c;" horiz-adv-x="221" 
d="M229 686l-108 -679q-1 -7 -9 -7h-4q-8 0 -7 7l108 679q2 8 9 8h4q9 0 7 -8zM384 857l7 1q7 0 6 -10q-12 -56 -59 -90.5t-114 -34.5q-65 0 -101 34.5t-31 90.5q3 10 7 10h12q4 0 4 -10q-1 -51 27.5 -77.5t84.5 -26.5q116 0 149 104q3 9 8 9z" />
    <glyph glyph-name="ibreve" unicode="&#x12d;" horiz-adv-x="198" 
d="M177 436l-68 -429q-1 -7 -8 -7h-4q-7 0 -6 7l68 429q1 7 8 7h4q7 0 6 -7zM324 683h8q6 0 4 -9q-12 -61 -54 -98t-98 -37t-86 37t-22 98q2 9 6 9h8q8 0 6 -8q-4 -52 21 -84t71 -32t81 32t47 84q2 8 8 8z" />
    <glyph glyph-name="Iogonek" unicode="&#x12e;" horiz-adv-x="220" 
d="M229 686l-108 -679q-1 -7 -9 -7h-4q-8 0 -7 7l108 679q2 8 9 8h4q9 0 7 -8zM195 -160q-33 -33 -84 -35q-36 0 -55 22t-14 57q6 35 33 62l24 23l31 23l24 18l14 -8l-54 -43q-47 -38 -53 -73q-5 -27 10 -44.5t43 -17.5q36 0 67 27q7 7 12 4l5 -5q4 -4 -3 -10z" />
    <glyph glyph-name="iogonek" unicode="&#x12f;" horiz-adv-x="198" 
d="M177 435l-67 -427q-2 -8 -9 -8h-4q-8 0 -6 8l68 428q1 7 8 7h4q8 0 6 -8zM230 613q-7 -34 -39 -34q-22 0 -28.5 21.5t12.5 36.5q20 15 39 7t16 -31zM141 -169q-35 -36 -88 -36q-38 0 -58.5 22.5t-14.5 59.5q4 25 24 54q29 39 86 84q4 4 8 6l5 -15q-94 -73 -103 -127
q-4 -29 11.5 -46.5t44.5 -17.5q34 0 70 27q8 8 13 4l5 -5q4 -2 -3 -10z" />
    <glyph glyph-name="Idot" unicode="&#x130;" horiz-adv-x="220" 
d="M229 686l-108 -679q-1 -7 -9 -7h-4q-8 0 -7 7l108 679q2 8 9 8h4q9 0 7 -8zM204 791q4 30 37 30q29 0 25 -30q-2 -14 -12 -23t-23 -9q-14 0 -21.5 9t-5.5 23z" />
    <glyph glyph-name="dotlessi" unicode="&#x131;" horiz-adv-x="198" 
d="M177 435l-68 -427q0 -8 -8 -8h-4q-8 0 -6 8l68 428q1 7 9 7h3q8 0 6 -8z" />
    <glyph glyph-name="IJ" unicode="&#x132;" horiz-adv-x="610" 
d="M230 686l-107 -679q0 -7 -9 -7h-4q-7 0 -6 7l106 679q1 7 10 7h4q4 1 5.5 -0.5t0.5 -6.5zM514 153l83 533q1 7 10 7h4q8 0 7 -7l-83 -529q-11 -75 -55 -120.5t-106 -45.5q-70 0 -126 56q-5 5 -1 10l6 7q3 4 10 0q59 -54 115 -54q50 0 87 39t49 104z" />
    <glyph glyph-name="ij" unicode="&#x133;" horiz-adv-x="425" 
d="M177 435l-67 -427q-2 -8 -9 -8h-4q-8 0 -6 8l68 428q1 7 8 7h4q8 0 6 -8zM230 613q-7 -34 -39 -34q-22 0 -28.5 21.5t12.5 36.5q20 15 39 7t16 -31zM393 588q-7 9 -5 24.5t13 24.5t26 9t22 -9q8 -9 6 -24t-13 -25q-11 -9 -26 -9t-23 9zM308 -73l81 508q2 8 7 8h4
q8 0 6 -8l-80 -510q-13 -81 -44.5 -121.5t-89.5 -40.5t-97 30q-7 4 -2 12l4 5q3 5 11 -1q41 -29 85 -29q49 0 76 36t39 111z" />
    <glyph glyph-name="Jcircumflex" unicode="&#x134;" horiz-adv-x="388" 
d="M292 153l84 533q2 8 9 8h4q9 0 7 -8l-83 -529q-11 -75 -55 -120.5t-107 -46.5q-73 2 -125 58q-5 3 -1 9l5 6q6 5 10 1q57 -52 117 -54q50 0 87 39.5t48 103.5zM530 746l-120 92l-148 -92q-9 -4 -14 -4h-13q-15 0 2 11l157 95q8 5 14 5h9l12 -5l127 -95q17 -11 0 -11h-13
q-6 0 -13 4z" />
    <glyph glyph-name="jcircumflex" unicode="&#x135;" horiz-adv-x="233" 
d="M115 -73l81 508q2 8 8 8h4q7 0 5 -8l-80 -510q-25 -163 -133 -163q-57 2 -98 31q-6 4 -1 12l4 5q3 4 11 -1q37 -29 85 -29q50 0 76 35.5t38 111.5zM92 517l131 140q7 7 14 7h11q3 0 11 -7l86 -139q6 -9 -7 -9h-8q-3 0 -8 5l-82 135l-127 -134q-5 -6 -11 -6h-7q-11 0 -3 8
z" />
    <glyph glyph-name="uni0136" unicode="&#x136;" horiz-adv-x="538" 
d="M209 686l-53 -332l398 334q8 6 14 6h10q13 0 2 -10l-404 -337l326 -337q10 -10 -5 -10h-11q-9 0 -12 5l-320 335l-53 -333q-1 -7 -9 -7h-4q-8 0 -7 7l108 679q2 8 9 8h4q9 0 7 -8zM263 -95q-4 -4 -16 -4q-14 0 -21 9t-5 23q5 32 36 32q24 0 27 -20q9 -51 -19.5 -95
t-84.5 -64q-10 -4 -12 2l-3 6q-2 5 4 8q40 14 65 42t29 61z" />
    <glyph glyph-name="uni0137" unicode="&#x137;" horiz-adv-x="388" 
d="M395 443h10q15 0 3 -9l-272 -198l236 -230q3 -4 -5 -6h-13q-6 0 -11 5l-223 219l-34 -217q-1 -7 -8 -7h-3q-7 0 -6 7l112 708q1 7 9 7h2q7 0 6 -7l-74 -466l258 189q8 5 13 5zM210 -95q-7 -4 -17 -4q-14 0 -21 9t-5 23q5 32 36 32q24 0 27 -20q9 -51 -19.5 -95t-84.5 -64
q-7 -4 -12 2l-3 6q-2 5 5 8q40 14 65 42t29 61z" />
    <glyph glyph-name="kgreenlandic" unicode="&#x138;" horiz-adv-x="392" 
d="M415 443h10q15 0 3 -9l-274 -213l238 -215q3 -4 -5 -6h-13q-6 0 -11 5l-225 204l-32 -202q-1 -7 -8 -7h-3q-7 0 -6 7l68 430q1 7 9 7h2q7 0 6 -7l-32 -203l260 204q8 5 13 5z" />
    <glyph glyph-name="Lacute" unicode="&#x139;" horiz-adv-x="458" 
d="M229 686l-106 -666h300q10 0 8 -8l-1 -5q-1 -7 -9 -7h-313q-9 0 -7 8l108 678q2 8 9 8h4q9 0 7 -8zM352 858l6 -13q2 -8 -5 -12l-198 -106q-5 -5 -10 1l-3 4q-2 8 3 11l196 116q10 6 11 -1z" />
    <glyph glyph-name="lacute" unicode="&#x13a;" horiz-adv-x="198" 
d="M221 715l-112 -708q-1 -7 -8 -7h-4q-7 0 -6 7l112 708q1 7 7 7h6q6 0 5 -7zM350 895l5 -13q3 -7 -4 -11l-188 -101q-7 -4 -10 1l-3 5q-3 4 3 9l186 111q8 3 11 -1z" />
    <glyph glyph-name="uni013B" unicode="&#x13b;" horiz-adv-x="458" 
d="M229 686l-106 -666h300q10 0 8 -8l-1 -5q-1 -7 -9 -7h-313q-9 0 -7 8l108 678q2 8 9 8h4q9 0 7 -8zM273 -95q-7 -4 -17 -4q-14 0 -21 9t-5 23q5 32 36 32q24 0 27 -20q9 -51 -19.5 -95t-84.5 -64q-9 -5 -12 2l-3 6q-1 4 4 8q40 14 65.5 42t29.5 61z" />
    <glyph glyph-name="uni013C" unicode="&#x13c;" horiz-adv-x="198" 
d="M221 715l-112 -708q-1 -7 -8 -7h-4q-7 0 -6 7l112 708q1 7 7 7h6q6 0 5 -7zM104 -95q-4 -4 -16 -4q-14 0 -21 9t-5 23q5 32 36 32q24 0 27 -20q9 -51 -19.5 -95t-84.5 -64q-10 -4 -12 2l-3 6q-2 5 4 8q40 14 65 42t29 61z" />
    <glyph glyph-name="Lcaron" unicode="&#x13d;" horiz-adv-x="458" 
d="M229 686l-106 -666h300q10 0 8 -8l-1 -5q-1 -7 -9 -7h-313q-9 0 -7 8l108 678q2 8 9 8h4q9 0 7 -8zM322 453l-3 4q-3 5 4 11q37 26 75 75q39 51 43 96q-8 -3 -16 -3q-14 0 -21 9t-5 23q5 32 36 32q24 0 27 -20q12 -55 -32 -123q-45 -70 -100 -106q-4 -2 -8 2z" />
    <glyph glyph-name="lcaron" unicode="&#x13e;" horiz-adv-x="338" 
d="M221 715l-112 -708q-1 -7 -8 -7h-4q-7 0 -6 7l112 708q1 7 7 7h6q6 0 5 -7zM243 453l-4 4q-3 5 4 11q37 26 75 75q39 51 43 96q-6 -3 -15 -3q-14 0 -21 9t-5 23q5 32 36 32q24 0 27 -20q10 -55 -33 -124q-44 -68 -100 -105q-5 -5 -7 2z" />
    <glyph glyph-name="Ldot" unicode="&#x13f;" horiz-adv-x="458" 
d="M229 686l-106 -666h300q10 0 8 -8l-1 -5q-1 -7 -9 -7h-313q-9 0 -7 8l108 678q2 8 9 8h4q9 0 7 -8zM337 399q5 30 36 30t26 -30q-5 -32 -36 -32q-14 0 -21 9t-5 23z" />
    <glyph glyph-name="ldot" unicode="&#x140;" horiz-adv-x="308" 
d="M221 715l-112 -708q-1 -7 -8 -7h-4q-7 0 -6 7l112 708q1 7 7 7h6q6 0 5 -7zM245 380q5 30 35 30t27 -30q-2 -14 -12.5 -23t-24.5 -9q-30 0 -25 32z" />
    <glyph glyph-name="Lslash" unicode="&#x141;" horiz-adv-x="458" 
d="M103 288l293 119q7 3 7 -3l-2 -9q0 -7 -8 -10l-293 -119q-3 -2 -4.5 -2t-2 2t-0.5 5l1 9q2 5 9 8zM229 686l-106 -666h300q10 0 8 -8l-1 -5q-1 -7 -9 -7h-313q-9 0 -7 8l108 678q2 8 9 8h4q9 0 7 -8z" />
    <glyph glyph-name="lslash" unicode="&#x142;" horiz-adv-x="198" 
d="M210 722h6q6 0 5 -7l-60 -378l110 48q3 2 5 1t1 -5l-1 -8q-2 -9 -9 -10l-109 -49l-49 -307q-1 -7 -8 -7h-4q-7 0 -6 7l47 299l-108 -48q-5 -2 -6 -1t-1 5l2 9q2 5 8 9l109 48l61 387q1 7 7 7z" />
    <glyph glyph-name="Nacute" unicode="&#x143;" horiz-adv-x="739" 
d="M737 694h5q8 0 6 -8l-107 -676q-1 -10 -12 -10h-12q-8 0 -11 6l-381 658l-104 -656q-2 -8 -9 -8h-4q-9 0 -7 8l107 676q1 10 12 10h8q8 0 11 -7l384 -664l105 663q2 8 9 8zM611 858l5 -13q4 -7 -4 -12l-198 -106q-7 -3 -10 1l-3 4q-3 6 2 11l197 116q8 6 11 -1z" />
    <glyph glyph-name="nacute" unicode="&#x144;" horiz-adv-x="546" 
d="M89 7l68 429q1 7 8 7h4q7 0 6 -7l-19 -123q28 66 79 103t119 37q85 0 123 -50t23 -148l-39 -247q-2 -8 -8 -8h-4q-8 0 -6 8l40 248q14 86 -20.5 132.5t-111.5 46.5q-73 0 -132 -56q-57 -55 -75 -142l-36 -230q-1 -7 -8 -7h-4q-8 0 -7 7zM473 669l8 -13q5 -6 -4 -12
l-170 -112q-8 -7 -10 -2l-3 6q-4 6 0 9l168 124q8 6 11 0z" />
    <glyph glyph-name="uni0145" unicode="&#x145;" horiz-adv-x="739" 
d="M737 694h5q8 0 6 -8l-107 -676q-1 -10 -12 -10h-12q-8 0 -11 6l-381 658l-104 -656q-2 -8 -9 -8h-4q-9 0 -7 8l107 676q1 10 12 10h8q8 0 11 -7l384 -664l105 663q2 8 9 8zM378 -95q-7 -4 -17 -4q-14 0 -21 9t-5 23q5 32 36 32q24 0 27 -20q9 -51 -19.5 -95t-84.5 -64
q-7 -4 -12 2l-3 6q-2 5 5 8q40 14 65 42t29 61z" />
    <glyph glyph-name="uni0146" unicode="&#x146;" horiz-adv-x="546" 
d="M89 7l68 429q1 7 8 7h4q7 0 6 -7l-20 -123q28 66 79.5 103t119.5 37q85 0 123 -50t23 -148l-39 -247q-2 -8 -8 -8h-4q-8 0 -6 8l39 248q14 86 -20 132.5t-111 46.5q-73 0 -132 -56q-56 -55 -76 -142l-35 -230q-1 -7 -8 -7h-4q-8 0 -7 7zM282 -95q-4 -4 -16 -4
q-14 0 -21 9t-5 23q5 32 36 32q22 0 27 -20q9 -51 -20 -95t-85 -64q-8 -5 -11 2l-3 6q-2 5 4 8q40 14 65 42t29 61z" />
    <glyph glyph-name="Ncaron" unicode="&#x147;" horiz-adv-x="739" 
d="M737 694h5q8 0 6 -8l-107 -676q-1 -10 -12 -10h-12q-8 0 -11 6l-381 658l-104 -656q-2 -8 -9 -8h-4q-9 0 -7 8l107 676q1 10 12 10h8q8 0 11 -7l384 -664l105 663q2 8 9 8zM362 845l126 -96l157 96q8 5 15 5h14q14 0 1 -9l-5 -3l-166 -100q-8 -5 -14 -5h-10q-5 0 -13 5
l-133 100q-16 12 2 12h13q5 0 13 -5z" />
    <glyph glyph-name="ncaron" unicode="&#x148;" horiz-adv-x="546" 
d="M89 7l68 429q1 7 8 7h4q7 0 6 -7l-19 -123q28 66 79 103t119 37q85 0 123 -50t23 -148l-39 -247q-2 -8 -8 -8h-4q-8 0 -6 8l40 248q14 86 -20.5 132.5t-111.5 46.5q-73 0 -132 -56q-57 -55 -75 -142l-36 -230q-1 -7 -8 -7h-4q-8 0 -7 7zM256 664h7q4 0 10 -6l83 -134
l126 134q5 5 9 5h8q13 0 4 -9l-130 -138q-8 -7 -13 -7h-11q-9 0 -12 7l-87 139q-4 9 6 9z" />
    <glyph glyph-name="napostrophe" unicode="&#x149;" horiz-adv-x="546" 
d="M89 7l68 429q1 7 8 7h4q7 0 6 -7l-19 -123q28 66 79 103t119 37q85 0 123 -50t23 -148l-39 -247q-2 -8 -8 -8h-4q-8 0 -6 8l40 248q14 86 -20.5 132.5t-111.5 46.5q-73 0 -132 -56q-57 -55 -75 -142l-36 -230q-1 -7 -8 -7h-4q-8 0 -7 7zM73 453l-4 4q-3 5 4 11
q37 26 75 75q39 51 43 96q-6 -3 -15 -3q-14 0 -21 9t-5 23q5 32 36 32q24 0 27 -20q10 -55 -33 -124q-44 -68 -100 -105q-5 -5 -7 2z" />
    <glyph glyph-name="Eng" unicode="&#x14a;" horiz-adv-x="740" 
d="M607 -77l10 64l-392 677l-104 -656q-2 -8 -9 -8h-4q-9 0 -7 8l107 676q1 10 12 10h8q7 0 11 -7l384 -662l105 661q2 8 9 8h5q8 0 6 -8l-120 -759q-10 -73 -55 -119q-44 -47 -106 -47q-65 0 -126 57q-5 4 0 9l5 7q2 5 11 0l7 -6q20 -20 41 -30q43 -18 67 -18q50 0 87 39.5
t48 103.5z" />
    <glyph glyph-name="eng" unicode="&#x14b;" horiz-adv-x="548" 
d="M218 -207q-7 5 -2 12l4 5q3 4 11 -1q41 -29 85 -29q49 0 76 36t39 111l52 329q14 86 -20.5 132.5t-111.5 46.5q-73 0 -132 -56q-57 -55 -75 -142l-36 -230q-1 -7 -8 -7h-4q-8 0 -7 7l68 429q1 7 9 7h2q8 0 7 -7l-19 -123q28 66 79 103t119 37q85 0 123 -50t23 -148
l-51 -330q-13 -82 -45 -122.5t-89 -40.5q-56 2 -97 31z" />
    <glyph glyph-name="Omacron" unicode="&#x14c;" horiz-adv-x="797" 
d="M397 -9q-159 0 -242 98q-83 97 -57 258t138 258q115 98 274 98t242 -98t58 -258q-26 -161 -139 -258q-113 -98 -274 -98zM790 347q25 151 -53 243q-78 93 -229 93q-152 0 -259 -93q-107 -92 -131 -243t54 -244q80 -92 230 -92t257 92q107 94 131 244zM409 788h230
q7 0 6 -7l-1 -6q-1 -7 -9 -7h-229q-8 0 -7 7l1 6q1 7 9 7z" />
    <glyph glyph-name="omacron" unicode="&#x14d;" 
d="M73 222q16 102 90 167q73 64 177 64q103 0 157 -64q54 -63 37 -167q-16 -102 -91 -168q-73 -64 -177 -64q-103 0 -157 64q-53 64 -36 168zM91 222q-15 -98 34 -156t144 -58q97 0 164 58q68 59 83 156q15 96 -34 154.5t-145 58.5q-95 0 -163 -59t-83 -154zM251 611h230
q7 0 6 -7v-6q-2 -8 -9 -8h-230q-8 0 -6 9v4q2 8 9 8z" />
    <glyph glyph-name="Obreve" unicode="&#x14e;" horiz-adv-x="797" 
d="M397 -9q-159 0 -242 98q-83 97 -57 258t138 258q115 98 274 98t242 -98t58 -258q-26 -161 -139 -258q-113 -98 -274 -98zM790 347q25 151 -53 243q-78 93 -229 93q-152 0 -259 -93q-107 -92 -131 -243t54 -244q80 -92 230 -92t257 92q107 94 131 244zM667 859l7 1
q6 0 5 -10q-11 -53 -56 -86t-108 -33q-62 0 -96.5 32.5t-29.5 86.5q3 10 7 10h12q3 0 3 -10q-1 -48 26.5 -73.5t80.5 -25.5t89.5 26t51.5 73q3 9 8 9z" />
    <glyph glyph-name="obreve" unicode="&#x14f;" 
d="M73 222q16 102 90 167q73 64 177 64q103 0 157 -64q54 -63 37 -167q-16 -102 -91 -168q-73 -64 -177 -64q-103 0 -157 64q-53 64 -36 168zM91 222q-15 -98 34 -156t144 -58q97 0 164 58q68 59 83 156q15 96 -34 154.5t-145 58.5q-95 0 -163 -59t-83 -154zM492 683h8
q6 0 4 -9q-12 -61 -54 -98t-98 -37t-86 37t-22 98q2 9 6 9h8q8 0 6 -8q-4 -52 21 -84t71 -32t81 32t47 84q2 8 8 8z" />
    <glyph glyph-name="Ohungarumlaut" unicode="&#x150;" horiz-adv-x="797" 
d="M397 -9q-159 0 -242 98q-83 97 -57 258t138 258q115 98 274 98t242 -98t58 -258q-26 -161 -139 -258q-113 -98 -274 -98zM790 347q25 151 -53 243q-78 93 -229 93q-152 0 -259 -93q-107 -92 -131 -243t54 -244q80 -92 230 -92t257 92q107 94 131 244zM672 859l14 -12
q8 -5 -1 -12l-105 -100q-9 -9 -13 -3l-3 2q-5 5 1 12l94 111q7 7 13 2zM517 859l14 -12q8 -5 -1 -12l-105 -100q-9 -9 -13 -4l-3 3q-5 5 1 12l94 111q8 7 13 2z" />
    <glyph glyph-name="ohungarumlaut" unicode="&#x151;" 
d="M73 222q16 102 90 167q73 64 177 64q103 0 157 -64q54 -63 37 -167q-16 -102 -91 -168q-73 -64 -177 -64q-103 0 -157 64q-53 64 -36 168zM91 222q-15 -98 34 -156t144 -58q97 0 164 58q68 59 83 156q15 96 -34 154.5t-145 58.5q-95 0 -163 -59t-83 -154zM500 701l14 -9
q6 -4 -1 -11l-117 -136q-5 -5 -10 -4l-6 4q-3 2 2 10l106 140q8 9 12 6zM346 701l13 -9q4 -4 0 -11l-118 -136q-5 -5 -10 -4l-6 4q-3 3 2 10l106 140q7 9 13 6z" />
    <glyph glyph-name="OE" unicode="&#x152;" horiz-adv-x="765" 
d="M718 0h-327q-159 2 -238 96q-80 95 -55 251q26 159 137 253q112 94 274 94h309q7 0 7 -2v-4l-1 -8q-2 -6 -9 -6h-305l-51 -311h256q10 0 10 -6l-2 -8q-1 -6 -11 -6h-256l-51 -323h316q8 -2 8 -6l-1 -7q-1 -7 -10 -7zM385 20l105 654q-148 -5 -248 -93q-102 -90 -124 -234
q-23 -147 50 -234q74 -89 217 -93z" />
    <glyph glyph-name="oe" unicode="&#x153;" horiz-adv-x="934" 
d="M261 8q93 0 156 58t78 156t-29 155.5t-137 57.5q-91 0 -158 -59q-65 -59 -80 -154q-15 -96 32 -155t138 -59zM515 231h400q11 94 -35 149t-138 55q-90 0 -150 -54.5t-77 -149.5zM73 222q16 103 88 167q70 64 171 64q81 0 128.5 -40.5t55.5 -114.5q30 73 89.5 114
t139.5 41q102 0 152 -65q50 -66 34 -169q-1 -6 -11 -6h-408q-13 -95 32.5 -150t140.5 -55q97 0 169 66q8 8 11 3l4 -5q4 -4 -3 -11q-77 -71 -184 -71q-84 0 -133 41t-57 116q-30 -74 -91.5 -115.5t-142.5 -41.5q-100 0 -151 63q-50 65 -34 169z" />
    <glyph glyph-name="Racute" unicode="&#x154;" horiz-adv-x="569" 
d="M482 5l-143 294h-171l-46 -291q-2 -8 -9 -8h-5q-9 0 -7 8l107 676q1 10 12 10h196q100 0 153 -54t39 -143q-14 -87 -81 -141q-68 -54 -164 -57l141 -289q4 -10 -5 -10h-10q-5 0 -7 5zM415 674l-187 -1l-56 -354h187q91 0 153 48q62 49 76 129q13 81 -34.5 130t-138.5 48z
M561 858l5 -13q4 -7 -4 -12l-198 -106q-7 -3 -10 1l-3 4q-3 6 2 11l197 116q8 6 11 -1z" />
    <glyph glyph-name="racute" unicode="&#x155;" horiz-adv-x="357" 
d="M388 422q-32 12 -69 12q-45 0 -91.5 -35t-73.5 -94l-48 -298q-1 -7 -5 -7h-7q-6 0 -5 7l68 429q1 7 8 7h4q7 0 6 -7l-14 -88q28 46 71 74.5t93 29.5q34 0 73 -12q7 -3 2 -8l-5 -7q-1 -6 -7 -3zM376 667l8 -12q4 -7 -4 -13l-170 -112q-7 -6 -11 -2l-2 6q-6 6 0 9l168 124
q8 6 11 0z" />
    <glyph glyph-name="uni0156" unicode="&#x156;" horiz-adv-x="569" 
d="M482 5l-143 294h-171l-46 -291q-2 -8 -9 -8h-5q-9 0 -7 8l107 676q1 10 12 10h196q100 0 153 -54t39 -143q-14 -87 -81 -141q-68 -54 -164 -57l141 -289q4 -10 -5 -10h-10q-5 0 -7 5zM415 674l-187 -1l-56 -354h187q91 0 153 48q62 49 76 129q13 81 -34.5 130t-138.5 48z
M273 -95q-7 -4 -17 -4q-14 0 -21 9t-5 23q5 32 36 32q24 0 27 -20q9 -51 -19.5 -95t-84.5 -64q-7 -4 -12 2l-3 6q-2 5 5 8q40 14 65 42t29 61z" />
    <glyph glyph-name="uni0157" unicode="&#x157;" horiz-adv-x="416" 
d="M447 422q-31 12 -69 12q-45 0 -91.5 -35t-73.5 -94l-48 -298q-1 -7 -5 -7h-7q-6 0 -5 7l68 429q1 7 8 7h4q7 0 6 -7l-14 -88q28 46 71 74.5t93 29.5q34 0 73 -12q7 -3 2 -8l-5 -7q-1 -6 -7 -3zM155 -95q-7 -4 -17 -4q-14 0 -21 9t-5 23q5 32 36 32q24 0 27 -20
q10 -51 -19 -95t-85 -64q-7 -4 -12 2l-3 6q-2 5 5 8q40 14 65 42t29 61z" />
    <glyph glyph-name="Rcaron" unicode="&#x158;" horiz-adv-x="569" 
d="M482 5l-143 294h-171l-46 -291q-2 -8 -9 -8h-5q-9 0 -7 8l107 676q1 10 12 10h196q100 0 153 -54t39 -143q-14 -87 -81 -141q-68 -54 -164 -57l141 -289q4 -10 -5 -10h-10q-5 0 -7 5zM415 674l-187 -1l-56 -354h187q91 0 153 48q62 49 76 129q13 81 -34.5 130t-138.5 48z
M283 845l126 -96l157 96q8 5 15 5h14q15 0 1 -9l-5 -3l-165 -100q-8 -5 -14 -5h-10q-5 0 -13 5l-134 100q-16 12 2 12h13q8 0 13 -5z" />
    <glyph glyph-name="rcaron" unicode="&#x159;" horiz-adv-x="357" 
d="M388 422q-32 12 -69 12q-45 0 -91.5 -35t-73.5 -94l-48 -298q-1 -7 -5 -7h-7q-6 0 -5 7l68 429q1 7 8 7h4q7 0 6 -7l-14 -88q28 46 71 74.5t93 29.5q34 0 73 -12q7 -3 2 -8l-5 -7q-1 -6 -7 -3zM180 664h7q3 0 9 -6l83 -134l126 134q5 5 9 5h8q13 0 4 -9l-130 -138
q-7 -7 -13 -7h-11q-9 0 -12 7l-87 139q-5 9 7 9z" />
    <glyph glyph-name="Sacute" unicode="&#x15a;" horiz-adv-x="571" 
d="M67 74q-7 4 -2 11l4 6q6 7 13 -1q71 -80 215 -80q93 0 155 43q64 44 74 112q11 69 -31 103q-43 35 -169 68q-116 32 -156 66q-41 37 -31 110q10 81 85 137q75 55 177 54q129 -2 187 -67q4 -7 2 -11l-4 -8q-4 -7 -11 0q-66 66 -181 66q-88 0 -156 -48q-67 -48 -79 -120
q-12 -74 44 -108q28 -17 64 -31q50 -16 95 -28q110 -30 153 -68q42 -38 33 -105q-9 -81 -78 -133q-70 -53 -183 -52q-95 0 -156 35q-46 26 -64 49zM527 858l6 -13q2 -8 -5 -12l-198 -106q-4 -5 -10 1l-3 4q-2 9 2 11l197 116q8 6 11 -1z" />
    <glyph glyph-name="sacute" unicode="&#x15b;" horiz-adv-x="420" 
d="M55 40q-4 4 -2 10l4 6q5 5 10 1q59 -48 144 -48q63 0 109.5 29.5t53.5 71.5q8 49 -33 70q-35 19 -105 38q-80 21 -108 43t-22 67q8 57 58 91q52 36 123 35q80 0 125 -42q4 -4 2 -11l-3 -5q-3 -4 -9 -1l-7 5q-17 14 -40 23q-37 13 -74 13q-63 0 -106 -28t-50 -74
q-5 -31 14 -56q8 -8 27 -17q24 -10 35 -14l50 -13l11 -3q76 -21 106 -45q32 -23 24 -73q-6 -53 -59 -88q-54 -35 -129 -34q-97 0 -149 49zM417 669l8 -13q4 -6 -4 -12l-170 -112q-7 -6 -11 -2l-3 6q-4 4 1 9l168 124q8 6 11 0z" />
    <glyph glyph-name="Scircumflex" unicode="&#x15c;" horiz-adv-x="571" 
d="M67 74q-7 4 -2 11l4 6q6 7 13 -1q71 -80 215 -80q93 0 155 43q64 44 74 112q11 69 -31 103q-43 35 -169 68q-116 32 -156 66q-41 37 -31 110q10 81 85 137q75 55 177 54q129 -2 187 -67q4 -7 2 -11l-4 -8q-4 -7 -11 0q-66 66 -181 66q-88 0 -156 -48q-67 -48 -79 -120
q-12 -74 44 -108q28 -17 64 -31q50 -16 95 -28q110 -30 153 -68q42 -38 33 -105q-9 -81 -78 -133q-70 -53 -183 -52q-95 0 -156 35q-46 26 -64 49zM537 740l-120 92l-148 -92q-9 -4 -15 -4h-12q-17 0 2 11l157 95q8 5 14 5h9l12 -5l127 -95q17 -11 0 -11h-13q-6 0 -13 4z
" />
    <glyph glyph-name="scircumflex" unicode="&#x15d;" horiz-adv-x="420" 
d="M55 40q-4 4 -2 10l4 6q5 5 10 1q59 -48 144 -48q63 0 109.5 29.5t53.5 71.5q8 49 -33 70q-35 19 -105 38q-80 21 -108 43t-22 67q8 57 58 91q52 36 123 35q80 0 125 -42q4 -4 2 -11l-3 -5q-3 -4 -9 -1l-7 5q-17 14 -40 23q-37 13 -74 13q-63 0 -106 -28t-50 -74
q-5 -31 14 -56q8 -8 27 -17q24 -10 35 -14l50 -13l11 -3q76 -21 106 -45q32 -23 24 -73q-6 -53 -59 -88q-54 -35 -129 -34q-97 0 -149 49zM165 517l131 140q7 7 14 7h11q4 0 11 -7l86 -139q6 -9 -6 -9h-8q-6 0 -8 5l-83 135l-126 -134q-6 -6 -11 -6h-7q-12 0 -4 8z" />
    <glyph glyph-name="Scedilla" unicode="&#x15e;" horiz-adv-x="571" 
d="M67 74q-7 4 -2 11l4 6q6 7 13 -1q71 -80 215 -80q93 0 155 43q64 44 74 112q11 69 -31 103q-43 35 -169 68q-116 32 -156 66q-41 37 -31 110q10 81 85 137q75 55 177 54q129 -2 187 -67q4 -7 2 -11l-4 -8q-4 -7 -11 0q-66 66 -181 66q-88 0 -156 -48q-67 -48 -79 -120
q-12 -74 44 -108q28 -17 64 -31q50 -16 95 -28q110 -30 153 -68q42 -38 33 -105q-9 -81 -78 -133q-70 -53 -183 -52q-95 0 -156 35q-46 26 -64 49zM281 0h21l-39 -65q55 -1 78.5 -14t18.5 -47q-5 -36 -33.5 -57.5t-70.5 -21.5q-52 0 -88 33q-6 6 -1 10l4 4q4 7 10 1
q44 -29 78 -29t56 16t26 45q3 23 -19.5 32t-71.5 9h-9q-9 0 -4 9z" />
    <glyph glyph-name="scedilla" unicode="&#x15f;" horiz-adv-x="420" 
d="M55 40q-4 4 -2 10l4 6q5 5 10 1q59 -48 144 -48q63 0 109.5 29.5t53.5 71.5q8 49 -33 70q-35 19 -105 38q-80 21 -108 43t-22 67q8 57 58 91q52 36 123 35q80 0 125 -42q4 -4 2 -11l-3 -5q-3 -4 -9 -1l-7 5q-17 14 -40 23q-37 13 -74 13q-63 0 -106 -28t-50 -74
q-5 -31 14 -56q8 -8 27 -17q24 -10 35 -14l50 -13l11 -3q76 -21 106 -45q32 -23 24 -73q-6 -53 -59 -88q-54 -35 -129 -34q-97 0 -149 49zM206 0h22l-41 -68q58 -1 82.5 -15t18.5 -50q-4 -37 -34.5 -60t-74.5 -23q-52 0 -92 35q-6 5 -2 10l4 5q5 8 11 1q44 -31 82 -31
q36 0 59.5 17t27.5 47q3 25 -21 34.5t-75 9.5h-9q-10 0 -5 9z" />
    <glyph glyph-name="Scaron" unicode="&#x160;" horiz-adv-x="571" 
d="M67 74q-7 4 -2 11l4 6q6 7 13 -1q71 -80 215 -80q93 0 155 43q64 44 74 112q11 69 -31 103q-43 35 -169 68q-116 32 -156 66q-41 37 -31 110q10 81 85 137q75 55 177 54q129 -2 187 -67q4 -7 2 -11l-4 -8q-4 -7 -11 0q-66 66 -181 66q-88 0 -156 -48q-67 -48 -79 -120
q-12 -74 44 -108q28 -17 64 -31q50 -16 95 -28q110 -30 153 -68q42 -38 33 -105q-9 -81 -78 -133q-70 -53 -183 -52q-95 0 -156 35q-46 26 -64 49zM278 845l126 -96l157 96q8 5 15 5h14q14 0 1 -9l-5 -3l-166 -100q-8 -5 -14 -5h-10q-5 0 -13 5l-133 100q-17 12 2 12h13
q8 0 13 -5z" />
    <glyph glyph-name="scaron" unicode="&#x161;" horiz-adv-x="421" 
d="M56 40q-4 4 -2 10l4 6q5 5 10 1q58 -48 144 -48q63 0 109.5 29.5t53.5 71.5q8 49 -33 70q-35 19 -105 38q-80 21 -108 43t-22 67q8 57 58 91q52 36 123 35q80 0 125 -42q3 -4 2 -11l-3 -5q-3 -4 -9 -1l-7 5q-18 14 -40 23q-37 13 -74 13q-63 0 -106 -28t-50 -74
q-5 -31 14 -56q8 -8 27 -17q24 -10 35 -14l50 -13l11 -3q76 -21 106 -45q32 -23 24 -73q-6 -53 -59 -88q-54 -35 -129 -34q-97 0 -149 49zM191 665h7q4 0 9 -6l84 -134l125 134q5 5 10 5h8q13 0 4 -9l-130 -138q-8 -7 -13 -7h-11q-9 0 -12 7l-87 139q-5 9 6 9z" />
    <glyph glyph-name="uni0162" unicode="&#x162;" horiz-adv-x="534" 
d="M385 684q1 9 -8 9h-1q-10 0 -11 -9l-107 -676q-2 -8 7 -8h4q7 0 9 8zM118 682l1 4q0 7 8 7h499q8 0 7 -7v-4q-2 -8 -11 -8h-498q-8 0 -6 8z" />
    <glyph glyph-name="uni0163" unicode="&#x163;" horiz-adv-x="349" 
d="M313 40q7 8 12 3l3 -7q3 -6 -5 -11q-43 -34 -88 -34q-48 0 -66.5 43t-6.5 119l72 446q2 8 9 8h3q8 0 6 -8l-71 -440q-23 -150 60 -150q38 0 72 31zM98 432l1 4q1 7 9 7h257q5 0 7 -1.5t1 -5.5l-1 -4q-1 -7 -10 -7h-257q-7 0 -7 7z" />
    <glyph glyph-name="Tcaron" unicode="&#x164;" horiz-adv-x="533" 
d="M258 7l106 667h-240q-9 0 -7 8l1 4q2 8 9 8h498q10 0 8 -8l-1 -4q-2 -8 -10 -8h-238l-106 -667q-1 -7 -9 -7h-4q-8 0 -7 7zM259 845l126 -96l157 96q8 5 15 5h14q15 0 1 -9l-5 -3l-166 -100q-8 -5 -14 -5h-10q-5 0 -13 5l-133 100q-17 12 2 12h13q5 0 13 -5z" />
    <glyph glyph-name="tcaron" unicode="&#x165;" horiz-adv-x="372" 
d="M224 425l-43 -266q-12 -81 4 -115.5t56 -34.5q35 0 76 33q5 5 8 0l4 -6q3 -5 -6 -11q-44 -34 -88 -34q-48 0 -66 43t-6 119l43 272h-101q-8 0 -7 7l1 4q1 7 9 7h101l26 156q2 8 8 8h3q8 0 6 -8l-25 -156h138q5 0 7 -1.5t1 -5.5l-1 -4q-1 -7 -10 -7h-138zM422 635
q-4 -4 -16 -4q-14 0 -21 9t-5 23q5 32 36 32q24 0 27 -20q9 -51 -20 -95t-85 -64q-8 -5 -11 2l-3 6q-2 5 4 8q40 14 65 42t29 61z" />
    <glyph glyph-name="Tbar" unicode="&#x166;" horiz-adv-x="533" 
d="M633 686l-1 -4q-2 -8 -10 -8h-238l-48 -301h145q7 0 6 -7l-1 -6q-1 -7 -8 -7h-145l-55 -346q-1 -7 -9 -7h-4q-8 0 -7 7l55 346h-146q-7 0 -6 7l1 6q1 7 8 7h146l48 301h-240q-9 0 -7 8l1 4q2 8 9 8h498q10 0 8 -8z" />
    <glyph glyph-name="tbar" unicode="&#x167;" horiz-adv-x="349" 
d="M333 250h-136q-12 -62 -16 -91q-12 -81 4 -115.5t56 -34.5q35 0 76 33q5 5 8 0l4 -6q3 -5 -6 -11q-44 -34 -88 -34q-48 0 -66 43t-6 119l16 97h-97q-8 0 -6 6v6q1 7 9 7h97l24 156h-101q-8 0 -7 7l1 4q1 7 9 7h101l26 156q2 8 8 8h3q8 0 6 -8l-25 -156h138q5 0 7 -1.5
t1 -5.5l-1 -4q-1 -7 -10 -7h-138l-24 -156h136q5 0 5.5 -1.5t-0.5 -5.5v-6q-1 -6 -8 -6z" />
    <glyph glyph-name="Utilde" unicode="&#x168;" horiz-adv-x="694" 
d="M143 272l65 413q2 8 10 8h4q8 0 6 -8l-65 -414q-19 -116 32 -189q53 -71 155 -71q100 0 174 71q72 71 92 189l66 415q1 7 10 7h4q8 0 7 -7l-66 -415q-19 -125 -100 -203q-80 -77 -191 -77q-112 -1 -168 76q-55 77 -35 205zM332 765q-4 -7 -9 -3l-6 5q-2 1 -1 8
q41 83 105 83q21 0 36.5 -15t23 -33.5t21.5 -33t33 -13.5q46 2 80 73q5 8 10 4l5 -7q5 -3 1 -7q-38 -83 -104 -83q-21 0 -37 15t-24 32.5t-21.5 32.5t-31.5 15q-44 -2 -81 -73z" />
    <glyph glyph-name="utilde" unicode="&#x169;" horiz-adv-x="548" 
d="M443 7l20 123q-28 -65 -79.5 -102.5t-119.5 -37.5q-85 0 -123 50t-23 148l39 247q3 8 8 8h5q7 0 5 -8l-39 -247q-14 -87 20 -133.5t111 -46.5q73 0 131 56q57 54 77 142l35 230q2 8 9 7h4q7 0 6 -7l-68 -429q-1 -7 -8 -7h-4q-7 0 -6 7zM223 554q-5 -8 -9 -3l-5 5
q-3 4 -1 9q42 83 105 83q21 0 36.5 -15.5t22.5 -33.5t21 -33t33 -14q42 2 81 73q4 9 9 4l7 -6q3 -3 0 -8q-41 -83 -105 -83q-21 0 -37 15t-24 32.5t-21.5 32.5t-31.5 15q-44 -2 -81 -73z" />
    <glyph glyph-name="Umacron" unicode="&#x16a;" horiz-adv-x="694" 
d="M143 272l65 413q2 8 10 8h4q8 0 6 -8l-65 -414q-19 -116 32 -189q53 -71 155 -71q100 0 174 71q72 71 92 189l66 415q1 7 10 7h4q8 0 7 -7l-66 -415q-19 -125 -100 -203q-80 -77 -191 -77q-112 -1 -168 76q-55 77 -35 205zM357 788h230q7 0 6 -7l-1 -6q-1 -7 -9 -7h-229
q-8 0 -7 7l1 6q1 7 9 7z" />
    <glyph glyph-name="umacron" unicode="&#x16b;" horiz-adv-x="548" 
d="M443 7l20 123q-28 -65 -79.5 -102.5t-119.5 -37.5q-85 0 -123 50t-23 148l39 247q3 8 8 8h5q7 0 5 -8l-39 -247q-14 -87 20 -133.5t111 -46.5q73 0 131 56q57 54 77 142l35 230q2 8 9 7h4q7 0 6 -7l-68 -429q-1 -7 -8 -7h-4q-7 0 -6 7zM256 611h229q9 0 7 -8l-1 -6
q-1 -7 -9 -7h-230q-8 0 -6 8l1 4q0 9 9 9z" />
    <glyph glyph-name="Ubreve" unicode="&#x16c;" horiz-adv-x="694" 
d="M143 272l65 413q2 8 10 8h4q8 0 6 -8l-65 -414q-19 -116 32 -189q53 -71 155 -71q100 0 174 71q72 71 92 189l66 415q1 7 10 7h4q8 0 7 -7l-66 -415q-19 -125 -100 -203q-80 -77 -191 -77q-112 -1 -168 76q-55 77 -35 205zM615 859l7 1q6 0 5 -10q-11 -53 -56 -86
t-108 -33q-62 0 -96.5 32.5t-29.5 86.5q3 10 7 10h12q3 0 3 -10q-1 -48 26.5 -73.5t80.5 -25.5t89.5 26t51.5 73q3 9 8 9z" />
    <glyph glyph-name="ubreve" unicode="&#x16d;" horiz-adv-x="548" 
d="M443 7l20 123q-28 -65 -79.5 -102.5t-119.5 -37.5q-85 0 -123 50t-23 148l39 247q3 8 8 8h5q7 0 5 -8l-39 -247q-14 -87 20 -133.5t111 -46.5q73 0 131 56q57 54 77 142l35 230q2 8 9 7h4q7 0 6 -7l-68 -429q-1 -7 -8 -7h-4q-7 0 -6 7zM495 673h8q5 0 3 -9
q-12 -61 -53.5 -98t-97.5 -37t-86 37t-23 98q2 9 7 9h8q7 0 5 -8q-4 -52 21 -84t71 -32t81 32t47 84q2 8 9 8z" />
    <glyph glyph-name="Uring" unicode="&#x16e;" horiz-adv-x="694" 
d="M143 272l65 413q2 8 10 8h4q8 0 6 -8l-65 -414q-19 -116 32 -189q53 -71 155 -71q100 0 174 71q72 71 92 189l66 415q1 7 10 7h4q8 0 7 -7l-66 -415q-19 -125 -100 -203q-80 -77 -191 -77q-112 -1 -168 76q-55 77 -35 205zM383 799q7 41 35.5 66t68.5 25q41 0 62.5 -25
t14.5 -66t-36 -66t-70 -25q-40 0 -60.5 25t-14.5 66zM545 799q5 32 -11.5 51.5t-48.5 19.5t-55 -19.5t-28 -51.5t11.5 -51t49.5 -19q32 0 54.5 19.5t27.5 50.5z" />
    <glyph glyph-name="uring" unicode="&#x16f;" horiz-adv-x="548" 
d="M443 7l20 123q-28 -65 -79.5 -102.5t-119.5 -37.5q-85 0 -123 50t-23 148l39 247q3 8 8 8h5q7 0 5 -8l-39 -247q-14 -87 20 -133.5t111 -46.5q73 0 131 56q57 54 77 142l35 230q2 8 9 7h4q7 0 6 -7l-68 -429q-1 -7 -8 -7h-4q-7 0 -6 7zM277 596q7 41 35.5 65.5t68.5 24.5
q41 0 62 -24.5t15 -65.5q-7 -41 -36 -66.5t-70 -25.5q-40 0 -60.5 25.5t-14.5 66.5zM296 596q-4 -33 12 -52t48 -19t55 19.5t28 51.5t-11.5 51t-48.5 19t-55 -19t-28 -51z" />
    <glyph glyph-name="Uhungarumlaut" unicode="&#x170;" horiz-adv-x="694" 
d="M143 272l65 413q2 8 10 8h4q8 0 6 -8l-65 -414q-19 -116 32 -189q53 -71 155 -71q100 0 174 71q72 71 92 189l66 415q1 7 10 7h4q8 0 7 -7l-66 -415q-19 -125 -100 -203q-80 -77 -191 -77q-112 -1 -168 76q-55 77 -35 205zM597 865l14 -12q7 -5 0 -12l-106 -100
q-9 -9 -13 -4l-2 3q-6 4 0 12l94 111q8 7 13 2zM442 865l14 -12q8 -5 0 -12l-106 -100q-8 -9 -13 -4l-2 3q-6 4 0 12l94 111q7 7 13 2z" />
    <glyph glyph-name="uhungarumlaut" unicode="&#x171;" horiz-adv-x="548" 
d="M443 7l20 123q-28 -65 -79.5 -102.5t-119.5 -37.5q-85 0 -123 50t-23 148l39 247q3 8 8 8h5q7 0 5 -8l-39 -247q-14 -87 20 -133.5t111 -46.5q73 0 131 56q57 54 77 142l35 230q2 8 9 7h4q7 0 6 -7l-68 -429q-1 -7 -8 -7h-4q-7 0 -6 7zM499 691l14 -10q6 -4 -1 -10
l-117 -136q-5 -8 -10 -4l-6 4q-3 1 2 9l106 141q7 7 12 6zM345 691l13 -10q4 -4 0 -10l-118 -136q-5 -8 -10 -4l-6 4q-2 2 2 9l106 141q7 7 13 6z" />
    <glyph glyph-name="Uogonek" unicode="&#x172;" horiz-adv-x="694" 
d="M143 272l65 413q2 8 10 8h4q8 0 6 -8l-65 -414q-19 -116 32 -189q53 -71 155 -71q100 0 174 71q72 71 92 189l66 415q1 7 10 7h4q8 0 7 -7l-66 -415q-19 -125 -100 -203q-80 -77 -191 -77q-112 -1 -168 76q-55 77 -35 205zM384 -178q-36 -36 -88 -36q-38 0 -58.5 23
t-14.5 60q6 26 14 39q20 29 26 35q5 5 13.5 14.5t17.5 17.5l16 13l16 12l15 12l5 -15q-94 -70 -103 -126q-4 -29 11.5 -47t45.5 -18q38 0 69 28q8 8 13 4l5 -5q5 -3 -3 -11z" />
    <glyph glyph-name="uogonek" unicode="&#x173;" horiz-adv-x="548" 
d="M443 7l20 123q-28 -65 -79.5 -102.5t-119.5 -37.5q-85 0 -123 50t-23 148l39 247q3 8 8 8h5q7 0 5 -8l-39 -247q-14 -87 20 -133.5t111 -46.5q73 0 131 56q57 54 77 142l35 230q2 8 9 7h4q7 0 6 -7l-68 -429q-1 -7 -8 -7h-4q-7 0 -6 7zM485 -160q-32 -33 -83 -35
q-37 0 -56 22t-13 57t33 62l24 23l31 23l24 18l14 -8l-55 -43q-46 -37 -52 -73q-5 -27 10 -44.5t43 -17.5q33 0 67 27q7 7 12 4l5 -5q4 -4 -4 -10z" />
    <glyph glyph-name="Wcircumflex" unicode="&#x174;" horiz-adv-x="847" 
d="M211 8l-82 674q-1 12 7 12h7q5 0 7 -6l80 -663l290 662q1 7 9 7h8q7 0 8 -7l81 -662l289 662q1 7 9 7h7q7 0 3 -12l-296 -674q-2 -8 -13 -8h-7q-9 0 -12 8l-78 648l-284 -648q-3 -8 -10 -8h-11q-9 0 -12 8zM554 854h9l12 -5l127 -95q17 -11 0 -11h-13q-6 0 -13 4l-120 92
l-149 -92q-7 -4 -14 -4h-12q-17 0 2 11l156 95q12 5 15 5z" />
    <glyph glyph-name="wcircumflex" unicode="&#x175;" horiz-adv-x="657" 
d="M473 0h-6q-10 0 -12 8l-62 402l-189 -402q-5 -8 -15 -8h-7q-8 0 -11 8l-82 424q0 11 6 11h8q7 0 7 -8l78 -420l197 421q3 7 9 7h9q6 0 7 -7l62 -421l213 420q5 8 9 8h8q9 0 1 -11l-216 -424q-3 -8 -14 -8zM294 510h-7q-12 0 -4 8l131 140q7 7 14 7h11q4 0 11 -7l86 -139
q6 -9 -6 -9h-8q-4 0 -9 5l-82 135l-126 -134q-6 -6 -11 -6z" />
    <glyph glyph-name="Ycircumflex" unicode="&#x176;" horiz-adv-x="529" 
d="M253 8l43 273l-165 403q-5 9 8 9h5q8 0 11 -8l155 -379l283 379q6 8 12 8h10q7 0 0 -10l-300 -401l-44 -275q0 -7 -8 -7h-4q-8 0 -6 8zM516 744l-120 92l-149 -92q-7 -4 -14 -4h-12q-17 0 2 11l156 95q12 5 14 5h10q3 0 11 -5l128 -95q17 -11 0 -11h-13q-6 0 -13 4z" />
    <glyph glyph-name="ycircumflex" unicode="&#x177;" horiz-adv-x="432" 
d="M470 443h6q7 0 0 -13l-373 -649q-5 -9 -11 -9h-5q-8 0 -2 10q2 2 2 3l127 224l-123 421q-4 13 6 13h6q3 0 8 -9l116 -405l231 405q8 9 12 9zM171 518l131 140q4 7 14 7h11q3 0 11 -7l86 -139q6 -9 -7 -9h-8q-5 0 -8 5l-82 135l-127 -134q-4 -6 -11 -6h-7q-11 0 -3 8z" />
    <glyph glyph-name="Ydieresis" unicode="&#x178;" horiz-adv-x="529" 
d="M253 8l43 273l-165 403q-5 9 8 9h5q8 0 11 -8l155 -379l283 379q6 8 12 8h10q7 0 0 -10l-300 -401l-44 -275q0 -7 -8 -7h-4q-8 0 -6 8zM276 789q4 28 30 33q25 5 33 -16q3 -7 2 -17q-2 -14 -13 -23t-25 -9q-15 0 -22 9t-5 23zM437 790q5 33 37 33q14 0 21.5 -9.5
t5.5 -23.5q-2 -15 -12.5 -24t-24.5 -9q-15 0 -22.5 9t-4.5 24z" />
    <glyph glyph-name="Zacute" unicode="&#x179;" horiz-adv-x="564" 
d="M627 677l-562 -657h464q9 0 7 -8l-1 -4q-2 -8 -9 -8h-484q-19 0 -6 16l561 657h-441q-8 0 -7 7l1 6q1 7 9 7h462q19 0 6 -16zM519 858l6 -13q4 -7 -4 -12l-198 -106q-7 -3 -10 1l-3 4q-3 6 2 11l197 116q8 7 10 -1z" />
    <glyph glyph-name="zacute" unicode="&#x17a;" horiz-adv-x="455" 
d="M398 0h-336q-18 0 -6 16l383 409h-305q-6 0 -6 3v3l1 6q1 6 8 6h325q20 0 3 -17l-383 -408h319q6 0 6 -3v-3l-1 -6q-2 -6 -8 -6zM450 657l8 -12q4 -5 -4 -12l-170 -112q-7 -6 -11 -2l-3 5q-4 5 1 10l168 123q8 6 11 0z" />
    <glyph glyph-name="Zdotaccent" unicode="&#x17b;" horiz-adv-x="564" 
d="M627 677l-562 -657h464q9 0 7 -8l-1 -4q-2 -8 -9 -8h-484q-19 0 -6 16l561 657h-441q-8 0 -7 7l1 6q1 7 9 7h462q19 0 6 -16zM376 801q5 30 37 30q29 0 25 -30q-2 -14 -12 -23t-23 -9q-14 0 -21.5 9t-5.5 23z" />
    <glyph glyph-name="zdotaccent" unicode="&#x17c;" horiz-adv-x="455" 
d="M398 0h-336q-18 0 -6 16l383 409h-305q-6 0 -6 3v3l1 6q1 6 8 6h325q20 0 3 -17l-383 -408h319q6 0 6 -3v-3l-1 -6q-2 -6 -8 -6zM296 617q4 31 37 31q30 0 26 -31q-4 -25 -29 -30q-24 -5 -32 14q-3 7 -2 16z" />
    <glyph glyph-name="Zcaron" unicode="&#x17d;" horiz-adv-x="564" 
d="M627 677l-562 -657h464q9 0 7 -8l-1 -4q-2 -8 -9 -8h-484q-19 0 -6 16l561 657h-441q-8 0 -7 7l1 6q1 7 9 7h462q19 0 6 -16zM272 845l126 -96l157 96q8 5 15 5h14q14 0 1 -9l-5 -3l-166 -100q-8 -5 -13 -5h-10q-6 0 -14 5l-133 100q-16 12 2 12h13q8 0 13 -5z" />
    <glyph glyph-name="zcaron" unicode="&#x17e;" horiz-adv-x="455" 
d="M398 0h-336q-18 0 -6 16l383 409h-305q-6 0 -6 3v3l1 6q1 6 8 6h325q20 0 3 -17l-383 -408h319q6 0 6 -3v-3l-1 -6q-2 -6 -8 -6zM215 665h7q3 0 9 -6l84 -134l125 134q5 5 10 5h8q12 0 3 -9l-129 -138q-8 -7 -14 -7h-11q-8 0 -11 7l-87 139q-7 9 6 9z" />
    <glyph glyph-name="longs" unicode="&#x17f;" horiz-adv-x="305" 
d="M206 565l-87 -557q-2 -8 -6 -8h-7q-7 0 -5 8l88 562q12 75 53.5 119t100.5 44q54 0 97 -31q7 -4 4 -9l-5 -7q-3 -4 -9 0q-41 29 -88 29q-53 0 -88 -39t-48 -111z" />
    <glyph glyph-name="florin" unicode="&#x192;" horiz-adv-x="455" 
d="M594 692l-7 -7q-5 -5 -11 2q-26 26 -84 26q-103 0 -151 -148l-42 -140h169q8 0 7 -7l-2 -7q-1 -6 -11 -6h-169l-92 -313q-60 -199 -232 -135q-9 4 -3 10l6 7q2 2 10 1q74 -29 123 2t78 126l90 302h-67q-8 0 -6 8l2 6q2 6 9 6h67l44 145q23 78 69.5 120.5t106.5 42.5
q56 0 92 -30q7 -4 4 -11z" />
    <glyph glyph-name="uni0218" unicode="&#x218;" horiz-adv-x="571" 
d="M67 74q-7 4 -2 11l4 6q6 7 13 -1q71 -80 215 -80q93 0 155 43q64 44 74 112q11 69 -31 103q-43 35 -169 68q-116 32 -156 66q-41 37 -31 110q10 81 85 137q75 55 177 54q129 -2 187 -67q4 -7 2 -11l-4 -8q-4 -7 -11 0q-66 66 -181 66q-88 0 -156 -48q-67 -48 -79 -120
q-12 -74 44 -108q28 -17 64 -31q50 -16 95 -28q110 -30 153 -68q42 -38 33 -105q-9 -81 -78 -133q-70 -53 -183 -52q-95 0 -156 35q-46 26 -64 49zM282 -95q-7 -4 -17 -4q-14 0 -21 9t-5 23q5 32 36 32q24 0 27 -20q9 -51 -19.5 -95t-84.5 -64q-9 -5 -12 2l-3 6q-1 4 4 8
q40 14 65.5 42t29.5 61z" />
    <glyph glyph-name="uni0219" unicode="&#x219;" horiz-adv-x="420" 
d="M55 40q-4 4 -2 10l4 6q5 5 10 1q59 -48 144 -48q63 0 109.5 29.5t53.5 71.5q8 49 -33 70q-35 19 -105 38q-80 21 -108 43t-22 67q8 57 58 91q52 36 123 35q80 0 125 -42q4 -4 2 -11l-3 -5q-3 -4 -9 -1l-7 5q-17 14 -40 23q-37 13 -74 13q-63 0 -106 -28t-50 -74
q-5 -31 14 -56q8 -8 27 -17q24 -10 35 -14l50 -13l11 -3q76 -21 106 -45q32 -23 24 -73q-6 -53 -59 -88q-54 -35 -129 -34q-97 0 -149 49zM206 -95q-4 -4 -16 -4q-14 0 -21 9t-5 23q5 32 36 32q22 0 27 -20q9 -51 -20 -95t-85 -64q-8 -5 -11 2l-3 6q-2 5 4 8q40 14 65 42
t29 61z" />
    <glyph glyph-name="uni021A" unicode="&#x21a;" horiz-adv-x="533" 
d="M258 7l106 667h-240q-9 0 -7 8l1 4q2 8 9 8h498q10 0 8 -8l-1 -4q-2 -8 -10 -8h-238l-106 -667q-1 -7 -9 -7h-4q-8 0 -7 7zM265 -95q-7 -4 -17 -4q-14 0 -21 9t-5 23q5 32 36 32q24 0 27 -20q10 -51 -19 -95t-85 -64q-7 -4 -12 2l-3 6q-2 5 5 8q40 14 65 42t29 61z" />
    <glyph glyph-name="uni021B" unicode="&#x21b;" horiz-adv-x="349" 
d="M224 425l-43 -266q-12 -81 4 -115.5t56 -34.5q35 0 76 33q5 5 8 0l4 -6q3 -5 -6 -11q-44 -34 -88 -34q-48 0 -66 43t-6 119l43 272h-101q-8 0 -7 7l1 4q1 7 9 7h101l26 156q2 8 8 8h3q8 0 6 -8l-25 -156h138q5 0 7 -1.5t1 -5.5l-1 -4q-1 -7 -10 -7h-138zM213 -95
q-7 -4 -17 -4q-14 0 -21 9t-5 23q5 32 36 32q24 0 27 -20q10 -51 -19 -95t-85 -64q-7 -4 -12 2l-3 6q-2 5 5 8q40 14 65 42t29 61z" />
    <glyph glyph-name="uni0237" unicode="&#x237;" horiz-adv-x="229" 
d="M129 -73l85 531q0 8 9 8h5q5 0 5 -8l-85 -537q-11 -78 -55.5 -124.5t-105.5 -46.5q-58 0 -101 37q-5 6 -1 10l6 8q3 3 10 -1q1 0 7 -5t9.5 -7.5t12 -7t16.5 -7.5t19.5 -5t23.5 -2q54 0 91 41t49 116z" />
    <glyph glyph-name="circumflex" unicode="&#x2c6;" horiz-adv-x="404" 
d="M159 528l131 140q4 7 14 7h11q3 0 11 -7l86 -139q6 -9 -7 -9h-8q-3 0 -8 5l-82 135l-127 -134q-4 -6 -11 -6h-7q-11 0 -3 8z" />
    <glyph glyph-name="caron" unicode="&#x2c7;" horiz-adv-x="404" 
d="M188 675h7q3 0 9 -6l84 -134l125 134q5 5 10 5h8q12 0 3 -9l-130 -138q-7 -7 -13 -7h-11q-8 0 -12 7l-87 139q-5 9 7 9z" />
    <glyph glyph-name="uni02C9" unicode="&#x2c9;" horiz-adv-x="325" 
d="M158 694h229q8 0 7 -7l-1 -6q-1 -7 -9 -7h-229q-8 0 -7 7l1 6q1 7 9 7z" />
    <glyph glyph-name="breve" unicode="&#x2d8;" horiz-adv-x="370" 
d="M411 693h8q5 0 3 -9q-11 -61 -53 -98t-98 -37t-86 37t-23 98q2 9 7 9h8q7 0 5 -8q-4 -52 21 -84t71 -32t81 32t47 84q2 8 9 8z" />
    <glyph glyph-name="dotaccent" unicode="&#x2d9;" horiz-adv-x="142" 
d="M180 689q31 0 26 -31q-5 -32 -36 -32q-24 -2 -26 22q-2 25 18 37q8 5 18 4z" />
    <glyph glyph-name="ring" unicode="&#x2da;" horiz-adv-x="261" 
d="M242 709q41 0 62.5 -25t14.5 -65q-7 -41 -36 -66q-28 -25 -69 -25t-62 25q-21 26 -14 66q7 41 35.5 65.5t68.5 24.5zM158 618q-5 -31 11 -50.5t48 -19.5t55 19t28 51t-12 51.5t-49 19.5t-54.5 -19.5t-26.5 -51.5z" />
    <glyph glyph-name="ogonek" unicode="&#x2db;" horiz-adv-x="217" 
d="M235 -178q-36 -36 -88 -37q-38 0 -58.5 23t-14.5 60q11 45 48 78l23 20q1 1 10 7.5t15 11.5l22 15l15 -8l-58 -44q-50 -43 -55 -78q-5 -29 10.5 -47t45.5 -18q43 0 71 28q8 8 12 4l5 -5q4 -3 -3 -10z" />
    <glyph glyph-name="tilde" unicode="&#x2dc;" horiz-adv-x="389" 
d="M152 595q-4 -7 -9 -3l-5 5q-4 3 -1 9q40 84 104 82q22 0 37.5 -15t23 -33.5t21 -33t32.5 -13.5q44 2 80 73q5 9 10 4l6 -6q3 -1 1 -8q-38 -83 -105 -83q-21 0 -36.5 15t-23.5 32.5t-22 32.5t-32 15q-44 -2 -81 -73z" />
    <glyph glyph-name="hungarumlaut" unicode="&#x2dd;" horiz-adv-x="352" 
d="M407 717l13 -9q6 -4 -1 -11l-117 -136q-6 -6 -10 -3l-6 4q-3 1 2 9l107 141q6 8 12 5zM252 717l13 -9q4 -4 -1 -11l-117 -136q-6 -6 -10 -3l-6 4q-3 1 2 9l107 141q6 8 12 5z" />
    <glyph glyph-name="uni0313" unicode="&#x313;" horiz-adv-x="255" 
d="M133 -95q-7 -4 -17 -4q-14 0 -21 9t-5 23q5 32 36 32q24 0 27 -20q10 -51 -19 -95t-85 -64q-7 -4 -12 2l-3 6q-2 5 5 8q40 14 65 42t29 61z" />
    <glyph glyph-name="uni0394" unicode="&#x394;" horiz-adv-x="658" 
d="M463 676l-369 -666l-2 -1q-4 -9 -14 -9h-53q-15 0 -8 13l380 670q6 10 16 10h52zM413 693h52h-1q10 0 13 -10l167 -668q3 -15 -12 -15h-45q-11 0 -12 10l-165 666zM591 0h-519l10 66h519z" />
    <glyph glyph-name="uni03A9" unicode="&#x3a9;" horiz-adv-x="797" 
d="M529 20h238q8 0 7 -7l-1 -6q-1 -7 -9 -7h-265q-8 0 -7 10l1 10q119 45 199 134q81 89 98 193q24 151 -54 243q-77 93 -229 93q-151 0 -258 -93q-107 -92 -131 -243q-17 -110 37 -198q56 -89 164 -129l-1 -10q-1 -10 -12 -10h-265q-8 0 -6 8l1 5q1 7 8 7h232
q-99 42 -147 130t-31 197q25 159 139 258q113 98 273 98q159 0 242 -98t58 -258q-18 -108 -95 -197q-76 -88 -186 -130z" />
    <glyph glyph-name="uni03BC" unicode="&#x3bc;" horiz-adv-x="548" 
d="M64 -227h-6q-7 0 -5 8l104 654q2 8 8 8h4q8 0 6 -8q-40 -247 -41 -259q-10 -81 24 -124.5t109 -43.5q73 0 131 56q57 54 77 142l35 230q1 7 9 7h3q8 0 7 -7l-68 -429q-1 -7 -9 -7h-2q-8 0 -7 7l20 123q-28 -65 -79.5 -102.5t-119.5 -37.5q-122 0 -144 97l-49 -306
q-2 -8 -7 -8z" />
    <glyph glyph-name="pi" unicode="&#x3c0;" horiz-adv-x="572" 
d="M98 431l1 6q1 7 9 7h496q8 0 7 -7l-1 -6q-1 -7 -9 -7h-99l-66 -416q-2 -8 -9 -8h-4q-9 0 -7 8l66 416h-258l-66 -416q-2 -8 -9 -8h-4q-9 0 -7 8l66 416h-99q-8 0 -7 7z" />
    <glyph glyph-name="Wgrave" unicode="&#x1e80;" horiz-adv-x="847" 
d="M211 8l-82 674q-1 12 7 12h7q5 0 7 -6l80 -663l290 662q1 7 9 7h8q7 0 8 -7l81 -662l289 662q1 7 9 7h7q7 0 3 -12l-296 -674q-2 -8 -13 -8h-7q-9 0 -12 8l-78 648l-284 -648q-3 -8 -10 -8h-11q-9 0 -12 8zM618 727l-163 105q-9 5 -2 13l9 13q6 6 13 1l159 -117
q3 -3 -2 -11l-4 -3q-5 -5 -10 -1z" />
    <glyph glyph-name="wgrave" unicode="&#x1e81;" horiz-adv-x="657" 
d="M186 0l2 11l197 425q1 7 10 7h7q7 0 2 -11l-200 -423q-3 -9 -14 -9h-4zM189 11l-1 -11h-5q-9 0 -11 9l-82 423q-3 11 5 11h8q5 0 7 -8zM469 0l2 11l214 424q5 8 9 8h7q9 0 3 -11l-216 -423q-6 -9 -14 -9h-5zM473 11l-2 -11h-4q-9 0 -11 9l-66 423q-2 6 0 9q2 2 5 2h8
q5 0 6 -4q1 -1 1 -3zM456 532l-134 111q-6 5 1 12l11 13q5 6 11 0l128 -123q3 -2 -1 -9l-6 -5q-5 -4 -10 1z" />
    <glyph glyph-name="Wacute" unicode="&#x1e82;" horiz-adv-x="847" 
d="M211 8l-82 674q-1 12 7 12h7q5 0 7 -6l80 -663l290 662q1 7 9 7h8q7 0 8 -7l81 -662l289 662q1 7 9 7h7q7 0 3 -12l-296 -674q-2 -8 -13 -8h-7q-9 0 -12 8l-78 648l-284 -648q-3 -8 -10 -8h-11q-9 0 -12 8zM683 858l6 -13q2 -8 -5 -12l-198 -106q-4 -5 -10 1l-3 4
q-2 8 3 11l196 116q8 6 11 -1z" />
    <glyph glyph-name="wacute" unicode="&#x1e83;" horiz-adv-x="657" 
d="M473 0h-6q-10 0 -12 8l-62 402l-189 -402q-5 -8 -15 -8h-7q-8 0 -11 8l-82 424q0 11 6 11h8q7 0 7 -8l78 -420l197 421q3 7 9 7h9q6 0 7 -7l62 -421l213 420q5 8 9 8h8q9 0 1 -11l-216 -424q-3 -8 -14 -8zM528 659l8 -12q4 -7 -4 -12l-170 -113q-9 -5 -10 -1l-3 5
q-4 6 0 10l168 123q8 6 11 0z" />
    <glyph glyph-name="Wdieresis" unicode="&#x1e84;" horiz-adv-x="847" 
d="M211 8l-82 674q-1 12 7 12h7q5 0 7 -6l80 -663l290 662q1 7 9 7h8q7 0 8 -7l81 -662l289 662q1 7 9 7h7q7 0 3 -12l-296 -674q-2 -8 -13 -8h-7q-9 0 -12 8l-78 648l-284 -648q-3 -8 -10 -8h-11q-9 0 -12 8zM436 789q2 15 12.5 24.5t25.5 9.5q14 0 21.5 -9.5t5.5 -24.5
q-2 -14 -13 -23t-25 -9q-15 0 -22 9t-5 23zM597 790q5 33 37 33q14 0 22 -9.5t6 -23.5q-8 -33 -38 -33q-32 0 -27 33z" />
    <glyph glyph-name="wdieresis" unicode="&#x1e85;" horiz-adv-x="657" 
d="M473 0h-6q-10 0 -12 8l-62 402l-189 -402q-5 -8 -15 -8h-7q-8 0 -11 8l-82 424q0 11 6 11h8q7 0 7 -8l78 -420l197 421q3 7 9 7h9q6 0 7 -7l62 -421l213 420q5 8 9 8h8q9 0 1 -11l-216 -424q-3 -8 -14 -8zM315 624q2 15 12.5 24t24.5 9q15 0 23 -9t5 -24
q-2 -14 -12.5 -23t-25.5 -9q-14 0 -21.5 9t-5.5 23zM475 625q8 32 39 32q24 0 27 -23q2 -25 -19 -37q-8 -4 -18 -4q-15 0 -23 9t-6 23z" />
    <glyph glyph-name="LatinCapitalLetterSharpS" unicode="&#x1e9e;" horiz-adv-x="633" 
d="M323 19q13 -9 40 -17.5t48 -8.5q63 0 113 39q50 41 60 98q6 40 -9.5 73.5t-45.5 55.5q-13 10 -36 25t-39.5 27.5t-27.5 24.5q-18 22 -14 48t28 48q27 24 53 36q73 40 83 97q8 50 -37 84q-45 36 -115 36q-90 0 -152 -58q-63 -57 -78 -152l-74 -466q-2 -8 -8 -8h-6
q-8 0 -6 8l74 467q16 102 87 165q70 63 167 64q67 1 123 -38q55 -37 45 -102q-5 -34 -29 -62t-55 -45q-74 -39 -80 -76q-5 -29 63 -73q35 -22 58 -41.5t40.5 -56.5t10.5 -79q-10 -69 -68 -114q-56 -45 -127 -45q-53 0 -97 26q-8 4 -4 11l4 7q3 7 11 2z" />
    <glyph glyph-name="endash" unicode="&#x2013;" horiz-adv-x="579" 
d="M132 304h411q8 0 7 -7l-1 -6q-1 -7 -9 -7h-411q-8 0 -7 7l1 6q1 7 9 7z" />
    <glyph glyph-name="emdash" unicode="&#x2014;" horiz-adv-x="845" 
d="M132 304h677q8 0 7 -7l-1 -6q-1 -7 -9 -7h-677q-8 0 -7 7l1 6q1 7 9 7z" />
    <glyph glyph-name="quoteleft" unicode="&#x2018;" horiz-adv-x="249" 
d="M288 699l3 -4q4 -7 -5 -11q-38 -28 -75 -76q-38 -50 -42 -95q7 3 15 3q24 0 27 -23q2 -25 -19 -37q-9 -4 -18 -4q-23 0 -26 19q-12 56 31 123q44 69 101 107q5 1 8 -2z" />
    <glyph glyph-name="quoteright" unicode="&#x2019;" horiz-adv-x="249" 
d="M143 453l-4 4q-3 5 4 11q37 26 75 75q39 51 43 96q-6 -3 -15 -3q-14 0 -21 9t-5 23q5 32 36 32q24 0 27 -20q10 -55 -33 -124q-44 -68 -100 -105q-5 -5 -7 2z" />
    <glyph glyph-name="quotesinglbase" unicode="&#x201a;" horiz-adv-x="271" 
d="M50 -157l-3 4q-3 5 4 11q36 24 75 76q39 51 43 95q-7 -3 -16 -3q-14 0 -21 9t-5 23q5 32 36 32q24 0 27 -20q12 -55 -32 -123q-45 -70 -100 -106q-5 -3 -8 2z" />
    <glyph glyph-name="quotedblleft" unicode="&#x201c;" horiz-adv-x="401" 
d="M288 699l2 -4q5 -7 -4 -11q-38 -28 -75 -76q-38 -50 -42 -95q7 3 15 3q24 0 27 -23q2 -25 -19 -37q-9 -4 -18 -4q-23 0 -27 19q-11 56 32 124t101 106q2 2 8 -2zM322 513q8 3 15 3q24 0 27 -23q2 -25 -19 -37q-8 -4 -18 -4q-23 0 -27 19q-11 56 32 124t101 106q3 3 8 -2
l2 -5q4 -5 -4 -10q-38 -28 -75 -76q-38 -50 -42 -95z" />
    <glyph glyph-name="quotedblright" unicode="&#x201d;" horiz-adv-x="401" 
d="M295 451l-3 4q-3 5 5 11q38 28 75 76q38 50 42 95q-6 -3 -15 -3q-24 0 -26 23q-2 25 19 37q8 4 18 4q22 0 25 -20q12 -55 -32 -123q-45 -70 -100 -106q-4 -2 -8 2zM261 637q-6 -3 -15 -3q-24 0 -26 23q-2 25 19 37q8 4 18 4q22 0 25 -20q12 -55 -32 -123
q-45 -70 -100 -106q-4 -2 -8 2l-3 5q-2 6 5 10q38 28 75 76q38 50 42 95z" />
    <glyph glyph-name="quotedblbase" unicode="&#x201e;" horiz-adv-x="420" 
d="M198 -158l-3 4q-4 4 4 11q36 24 75 76q38 50 42 95q-6 -3 -14 -3q-24 0 -27 23q-2 25 19 37q8 4 18 4q23 0 26 -20q12 -55 -32 -123q-45 -70 -100 -106q-5 -3 -8 2zM163 28q-6 -3 -14 -3q-24 0 -27 23q-2 25 19 37q9 4 18 4q23 0 26 -20q12 -55 -32 -123
q-45 -70 -100 -106q-5 -3 -8 2l-3 5q-2 6 4 10q36 24 75 76q38 50 42 95z" />
    <glyph glyph-name="dagger" unicode="&#x2020;" horiz-adv-x="424" 
d="M460 463h-165l-89 -565q-2 -8 -9 -8h-4q-9 0 -7 8l89 565h-166q-7 0 -6 7l1 6q1 7 8 7h166l37 231q2 8 9 8h4q9 0 7 -8l-37 -231h165q8 0 7 -7l-1 -6q-1 -7 -9 -7z" />
    <glyph glyph-name="daggerdbl" unicode="&#x2021;" horiz-adv-x="424" 
d="M227 155h-166q-7 0 -6 7l1 6q1 7 8 7h166l45 287h-166q-7 0 -6 7l1 6q1 7 8 7h166l37 232q2 8 9 8h4q9 0 7 -8l-37 -232h165q8 0 7 -7l-1 -6q-1 -7 -9 -7h-165l-45 -287h165q8 0 7 -7l-1 -6q-1 -7 -9 -7h-165l-41 -257q-2 -8 -9 -8h-4q-9 0 -7 8z" />
    <glyph glyph-name="bullet" unicode="&#x2022;" horiz-adv-x="375" 
d="M148 320q6 40 34.5 65t69.5 25q40 0 61 -24.5t15 -65.5q-7 -41 -36 -66t-69 -25t-61 25t-14 66z" />
    <glyph glyph-name="ellipsis" unicode="&#x2026;" horiz-adv-x="790" 
d="M636 10q-7 9 -5 23t12 23q11 9 25 9t22 -9t6 -23t-13 -23t-25 -9t-22 9zM116 56q11 9 25 9t22 -9t6 -23t-13 -23t-25 -9t-22 9q-7 9 -5 23t12 23zM420 10q-11 -9 -25 -9t-22 9q-7 9 -5 23t12 23q11 9 25 9t22 -9t6 -23t-13 -23z" />
    <glyph glyph-name="perthousand" unicode="&#x2030;" horiz-adv-x="1108" 
d="M125 549q11 70 59.5 112t118.5 42q69 0 104.5 -42t24.5 -112q-11 -69 -59.5 -111t-117.5 -42q-70 0 -105.5 42t-24.5 111zM145 549q-10 -59 21.5 -96t90.5 -37q61 0 103 36.5t52 96.5q10 61 -21 97.5t-92 36.5q-59 0 -101.5 -37t-52.5 -97zM439 144q-10 -59 21.5 -96
t91.5 -37t102 36.5t52 96.5q10 61 -21 97.5t-91 36.5t-103 -37t-52 -97zM419 144q10 69 59.5 111.5t118.5 42.5t105 -42.5t25 -111.5t-60.5 -111.5t-118.5 -42.5t-104.5 42.5t-24.5 111.5zM963 298q70 0 105.5 -42.5t24.5 -111.5t-60 -111.5t-119 -42.5q-69 0 -104 42.5
t-24 111.5t59.5 111.5t117.5 42.5zM806 144q-10 -59 21 -96t91 -37q61 0 103 36.5t52 96.5q10 61 -21.5 97.5t-91.5 36.5q-59 0 -102 -37t-52 -97zM189 11l508 704q4 7 11 7h7q12 0 4 -11l-509 -704q-7 -7 -12 -7h-8q-10 0 -1 11z" />
    <glyph glyph-name="guilsinglleft" unicode="&#x2039;" horiz-adv-x="341" 
d="M301 436l4 -5q5 -5 -4 -13l-162 -152l114 -150q4 -9 0 -13l-5 -5q-8 -5 -12 2l-110 148q-5 9 -4 16l1 5q2 9 9 16l157 148q7 7 12 3z" />
    <glyph glyph-name="guilsinglright" unicode="&#x203a;" horiz-adv-x="341" 
d="M172 431l7 5q5 5 11 -3l110 -148q5 -10 4 -16l-1 -5q-2 -9 -9 -16l-157 -148q-7 -6 -11 -2l-6 5q-4 4 3 11l2 2l162 150l-114 152q-7 8 -1 13z" />
    <glyph glyph-name="fraction" unicode="&#x2044;" horiz-adv-x="471" 
d="M28 11l508 704q4 7 11 7h7q12 0 4 -11l-509 -704q-7 -7 -12 -7h-8q-10 0 -1 11z" />
    <glyph glyph-name="franc" unicode="&#x20a3;" horiz-adv-x="500" 
d="M138 191l-29 -182q-1 -9 -8 -9h-6q-7 0 -6 9l29 182h-61q-8 0 -7 7l1 6q1 7 9 7h61l75 472q2 11 13 11h362q9 0 7 -8l-1 -4q-2 -8 -9 -8h-353l-49 -310h305q8 0 6 -8v-4q-2 -8 -10 -8h-305l-21 -133h194q8 0 7 -7l-1 -6q0 -7 -9 -7h-194z" />
    <glyph glyph-name="lira" unicode="&#x20a4;" horiz-adv-x="522" 
d="M113 20h326q8 0 7 -7l-1 -6q-1 -7 -9 -7h-350q-10 0 -5 9q83 105 115 183h-104q-7 0 -6 7v6q1 7 10 7h108q21 61 7 114h-94q-8 0 -7 7l1 6q1 7 9 7h85q-1 5 -11 26l-11 28l-8 31q-6 23 -4 36l3 43q13 84 74 139q60 54 143 54q110 0 169 -86q5 -8 0 -13l-6 -5q-4 -5 -11 2
q-49 82 -156 82q-74 0 -128 -48q-53 -48 -65 -125q-5 -54 1 -76l8 -31q1 -4 6.5 -16.5t9.5 -23.5t6 -17h164q8 0 7 -7l-1 -6q-1 -7 -9 -7l-155 1q12 -55 -7 -115h141q7 0 6 -7v-6q-1 -7 -10 -7h-145q-31 -77 -103 -172z" />
    <glyph glyph-name="peseta" unicode="&#x20a7;" horiz-adv-x="1050" 
d="M325 299h-186l-46 -290q-1 -9 -8 -9h-6q-7 0 -6 9l107 674q2 11 12 11h196q100 0 153 -54t39 -143t-84 -144q-70 -54 -171 -54zM387 674l-188 -1l-56 -354h188q91 0 153 48q62 49 76 129q13 81 -34.5 130t-138.5 48zM667 607h3q8 0 6 -8l-25 -156h138q5 0 7 -1.5t1 -5.5
l-1 -4q-1 -7 -10 -7h-138l-42 -266q-22 -150 59 -150q35 0 60 22q9 8 11 3l4 -7q3 -5 -6 -12q-33 -24 -74 -24q-48 0 -66.5 43t-6.5 119l43 272h-79q-8 0 -7 7l1 4q1 7 9 7h80l25 156q2 8 8 8zM718 22q0 6 3 6l8 7q3 5 9 0q37 -26 111 -26q64 0 111 29q47 30 53 72
q8 49 -33 70q-18 11 -42 20q-19 7 -62 18q-80 21 -108 43t-22 67q8 56 58 91q50 36 123 35q76 0 124 -42q5 -3 2 -11l-3 -5q-4 -5 -8 -1q-1 1 -7.5 5.5t-11 7.5t-13 7.5t-17 7.5t-19.5 6.5t-25 5t-29 1.5q-62 0 -105 -28t-50 -74q-8 -48 36 -71q26 -12 100 -32
q76 -21 106 -45q31 -22 25 -73q-7 -52 -60 -88q-54 -35 -128 -34q-74 0 -126 31z" />
    <glyph glyph-name="Euro" unicode="&#x20ac;" horiz-adv-x="622" 
d="M573 149l4 -3q5 -3 -1 -13q-88 -142 -221 -142q-89 0 -140.5 66.5t-53.5 181.5h-77q-8 0 -7 7l1 6q1 7 9 7h74q0 35 8 88l4 28h-68q-7 0 -6 7v6q1 7 10 7h70q31 139 110 224q78 84 178 84q70 0 117.5 -42.5t65.5 -119.5q1 -10 -4 -13l-6 -3q-8 -5 -11 8q-12 67 -58 108.5
t-108 41.5q-91 0 -163 -78q-71 -79 -101 -210h185q7 0 6 -7v-6q-1 -7 -10 -7h-186q-2 -8 -5 -28q-8 -53 -8 -88h181q8 0 7 -7l-1 -6q-1 -7 -9 -7h-177q3 -106 49 -167t126 -61q61 0 114.5 36t87.5 94q8 13 14 8z" />
    <glyph glyph-name="uni2113" unicode="&#x2113;" horiz-adv-x="449" 
d="M360 703q41 0 63 -31q21 -27 23.5 -71t-3.5 -79q-17 -98 -86 -157q-73 -61 -175 -100q-24 -275 98 -275q65 0 122 78q7 9 11 6l5 -3q5 -3 2 -10q-62 -91 -143 -91q-144 0 -117 287l-69 -24q-10 -3 -11 1l-2 8q-1 7 7 10l77 26l7 61l11 73q5 31 16 83q10 37 25 76
q17 45 34 69q45 63 105 63zM357 683q-41 -2 -69 -35q-18 -22 -26 -33q-15 -22 -38 -93q-5 -12 -14 -53q-7 -40 -10 -51l-7 -51l-5 -44l-4 -37q213 84 239 236q11 73 -6.5 117t-59.5 44z" />
    <glyph glyph-name="trademark" unicode="&#x2122;" horiz-adv-x="684" 
d="M449 692h12q7 0 10 -9l79 -223l150 223q6 9 14 9h14q9 0 7 -11l-46 -287q-2 -8 -8 -8h-6q-8 0 -6 8l44 275l-152 -228q-7 -7 -12 -9h-7q-7 2 -8 9l-81 229l-44 -276q-2 -8 -9 -8h-4q-9 0 -7 8l45 283q3 15 15 15zM393 687l-1 -6q-1 -7 -9 -7h-96l-43 -278q-2 -8 -9 -8h-6
q-7 0 -5 8l44 278h-96q-8 0 -7 7l1 5q2 8 9 8h211q8 0 7 -7z" />
    <glyph glyph-name="Omega" unicode="&#x2126;" horiz-adv-x="807" 
d="M49 20h232q-99 42 -148 130q-48 88 -31 197q26 161 138 258q115 98 275 98q159 0 242 -98q83 -97 57 -258q-16 -107 -94 -197q-76 -88 -187 -130h239q7 0 6 -7l-1 -6q-1 -7 -8 -7h-265q-8 0 -8 10l1 10q120 45 200 134q81 89 98 193q24 151 -54 243q-77 93 -229 93
q-151 0 -258 -92t-131 -244q-17 -110 37 -198q54 -89 163 -129l-1 -10q0 -10 -11 -10h-265q-9 0 -7 8l1 5q1 7 9 7z" />
    <glyph glyph-name="estimated" unicode="&#x212e;" horiz-adv-x="891" 
d="M450 34q208 0 315 132q6 6 12 6h46q13 0 6 -10q-63 -89 -165.5 -137.5t-222.5 -48.5q-175 0 -272 100q-98 101 -71 271q27 171 157 271t304 100q175 0 272 -100q99 -100 72 -271l-2 -12q0 -15 -16 -15h-639l-33 -204q81 -82 237 -82zM287 578l-32 -202h500l32 202
q-79 82 -237 82q-160 0 -263 -82z" />
    <glyph glyph-name="partialdiff" unicode="&#x2202;" horiz-adv-x="539" 
d="M382 702q211 0 164 -296q-19 -122 -59 -217q-27 -61 -58 -101q-76 -97 -195 -97q-87 0 -131 59q-43 58 -29 148q14 89 80 149q67 61 155 61q83 0 130.5 -45.5t44.5 -130.5q28 86 42 174q45 276 -147 276q-76 0 -140 -41q-9 -5 -11 1l-2 3q-3 5 5 13q65 44 151 44z
M454 164q24 104 -15 164t-134 60q-77 0 -138 -54q-60 -54 -73 -136q-13 -84 26.5 -135.5t116.5 -51.5q137 0 217 153z" />
    <glyph glyph-name="increment" unicode="&#x2206;" horiz-adv-x="658" 
d="M455 684l189 -670q5 -14 -10 -14h-609q-13 0 -7 13l402 671q8 9 12 9h15q7 0 8 -9zM45 20h574l-183 655z" />
    <glyph glyph-name="product" unicode="&#x220f;" horiz-adv-x="621" 
d="M485 -124l121 760h-389l-121 -760q-2 -9 -9 -9h-4q-9 0 -7 9l122 770q1 10 12 10h409q9 0 8 -10l-122 -770q-1 -9 -9 -9h-4q-8 0 -7 9z" />
    <glyph glyph-name="summation" unicode="&#x2211;" horiz-adv-x="604" 
d="M47 -119l337 380l-217 381q-4 6 -1 10t11 4h474q8 0 7 -7l-1 -6q-1 -7 -9 -7h-453l211 -367q3 -8 -3 -16l-327 -367h453q8 0 7 -7l-1 -6q-1 -7 -9 -7h-474q-17 0 -5 15z" />
    <glyph glyph-name="minus" unicode="&#x2212;" horiz-adv-x="579" 
d="M132 303h411q8 0 7 -7l-1 -6q-1 -7 -9 -7h-411q-8 0 -7 7l1 6q1 7 9 7z" />
    <glyph glyph-name="uni2215" unicode="&#x2215;" horiz-adv-x="471" 
d="M27 11l508 704q4 7 10 7h8q12 0 3 -11l-509 -704q-7 -7 -11 -7h-7q-11 0 -2 11z" />
    <glyph glyph-name="uni2219" unicode="&#x2219;" horiz-adv-x="263" 
d="M139 251q4 26 29 31.5t33 -14.5q3 -8 2 -17q-4 -25 -30 -30q-26 -4 -33 16q-2 6 -1 14z" />
    <glyph glyph-name="radical" unicode="&#x221a;" horiz-adv-x="545" 
d="M256 10l-79 413h-73q-9 0 -7 8l1 4q2 8 9 8h78q9 0 11 -9l80 -419l332 697q3 10 12 10h6q7 0 3 -10l-334 -702q-4 -10 -16 -10h-11q-11 0 -12 10z" />
    <glyph glyph-name="infinity" unicode="&#x221e;" horiz-adv-x="920" 
d="M497 236q58 75 123 117.5t124 42.5q81 0 123 -51q44 -51 30 -131q-13 -81 -72 -132q-59 -50 -139 -50q-124 -1 -196 159q-122 -159 -246 -159q-80 0 -124 50q-42 52 -29 132q14 81 71 131q58 51 140 51q60 0 110.5 -43t84.5 -117zM299 376q-73 0 -125 -44.5t-63 -117.5
t26 -117.5t110 -44.5q64 0 130 48q67 50 108 113q-34 76 -82.5 119.5t-103.5 43.5zM502 213q22 -63 72 -113q51 -48 115 -48q73 0 125 44.5t63 117.5t-26 117.5t-110 44.5q-56 0 -119 -43.5t-120 -119.5z" />
    <glyph glyph-name="integral" unicode="&#x222b;" horiz-adv-x="398" 
d="M506 683l-4 -5q-3 -4 -12 0q-34 34 -77 34q-50 0 -75.5 -32t-37.5 -103l-51 -322l-52 -330q-26 -161 -131 -163q-55 0 -94 36q-5 8 -2 12l4 6q5 5 10 1q12 -12 28 -21q22 -14 55 -14q86 0 109 134l51 323l52 330q14 87 44.5 124.5t90.5 38.5q50 0 90 -37q7 -4 2 -12z" />
    <glyph glyph-name="approxequal" unicode="&#x2248;" horiz-adv-x="596" 
d="M527 422q6 13 12 5l3 -5q2 -5 -1 -11q-51 -109 -133 -109q-31 0 -53.5 15.5t-33.5 36.5q-23 52 -78 51q-68 -1 -112 -93q-5 -12 -11 -4l-3 4q-2 5 1 12q51 106 132 106q32 0 55 -15.5t33 -37.5q27 -51 77 -50q66 1 112 95zM493 209q7 13 12 5l3 -5q2 -4 -1 -11
q-51 -109 -133 -109q-31 0 -53.5 15.5t-33.5 36.5q-23 52 -78 51q-71 -2 -111 -93q-6 -13 -12 -4l-2 4q-4 4 1 12q49 106 131 106q34 0 56.5 -16.5t32.5 -36.5t29 -35.5t47 -14.5q66 1 112 95z" />
    <glyph glyph-name="notequal" unicode="&#x2260;" horiz-adv-x="524" 
d="M356 404h148q8 0 7 -7l-1 -6q-1 -7 -9 -7h-157l-98 -165h229q8 0 7 -7l-1 -6q-1 -7 -9 -7h-238l-53 -90q-6 -8 -11 -8h-7q-9 0 -2 12l51 86h-96q-8 0 -7 7l1 6q1 7 9 7h105l97 165h-176q-8 0 -7 7l1 6q1 7 9 7h185l61 103q5 8 11 8h8q9 0 1 -12z" />
    <glyph glyph-name="lessequal" unicode="&#x2264;" horiz-adv-x="541" 
d="M509 115l-408 228q-8 7 -7 13l2 10q2 8 11 12l479 219q9 3 9 -4l-1 -8q-2 -7 -12 -12l-478 -213l409 -222q10 -5 8 -11l-1 -8q-1 -8 -11 -4zM495 -1h-449q-8 0 -7 7l1 6q1 7 9 7h449q7 0 7 -2v-4l-1 -8q-2 -6 -9 -6z" />
    <glyph glyph-name="greaterequal" unicode="&#x2265;" horiz-adv-x="541" 
d="M548 343l-480 -228q-8 -5 -8 4l1 8q1 7 11 11l479 222l-410 213q-8 5 -7 12l1 8q2 8 10 4l409 -219q8 -7 7 -12l-2 -10q-2 -9 -11 -13zM495 -1h-449q-7 0 -7 2v4l1 8q2 6 9 6h449q8 0 7 -7l-1 -6q-1 -7 -9 -7z" />
    <glyph glyph-name="uni24C5" unicode="&#x24c5;" horiz-adv-x="826" 
d="M112 346q26 162 138 259q113 98 274 98q159 0 242 -98q83 -99 58 -259q-26 -161 -139 -258q-115 -98 -274 -98q-160 0 -243 98q-82 97 -56 258zM804 346q24 152 -54 244q-77 93 -229 93t-259 -93q-106 -91 -130 -244q-24 -151 53 -244q78 -92 230 -92q151 0 258 92
q107 94 131 244zM346 168l57 360q1 10 11 10h10h102q57 0 85 -28.5t20 -79.5t-45 -79t-94 -28h-102l-24 -155q-4 -9 -8 -9h-7q-8 0 -5 9zM524 518l-103 -1l-28 -174h103q48 0 78 23t37 64q7 42 -16 65.5t-71 22.5z" />
    <glyph glyph-name="lozenge" unicode="&#x25ca;" horiz-adv-x="525" 
d="M232 -32l-120 348q-5 11 3 19l230 349q7 9 16 9h3h7h4q8 0 11 -9l111 -349q2 -11 -3 -19l-221 -348q-7 -10 -16 -10h-3h-6h-4q-9 0 -12 10zM366 681l-234 -355l121 -356l225 356z" />
    <glyph glyph-name="ijacute" unicode="&#xe132;" horiz-adv-x="426" 
d="M396 443h4q8 0 6 -8l-80 -510q-13 -82 -45 -122.5t-89 -40.5q-56 2 -97 31q-7 5 -2 12l4 5q3 4 11 -1q41 -29 85 -29q49 0 76 36t39 111l81 508q2 8 7 8zM168 443h4q6 0 5 -7l-68 -429q-1 -7 -8 -7h-4q-7 0 -6 7l68 429q1 7 9 7zM131 542l167 123q8 6 11 0l7 -12
q5 -7 -2 -12l-170 -113q-8 -5 -11 -1l-3 6q-3 6 1 9zM546 662l7 -12q3 -8 -4 -12l-170 -113q-8 -5 -11 -1l-3 5q-4 5 1 10l168 123q8 6 12 0z" />
    <glyph glyph-name="IJacute" unicode="&#xe133;" horiz-adv-x="602" 
d="M231 686l-108 -679q-1 -7 -9 -7h-4q-8 0 -7 7l108 679q2 8 9 8h4q9 0 7 -8zM514 153l84 533q2 8 9 8h4q9 0 7 -8l-83 -529q-11 -75 -55 -120.5t-107 -46.5q-73 2 -125 58q-5 3 -1 9l5 6q6 5 10 1q57 -52 117 -54q50 0 87 39.5t48 103.5zM725 844l5 -13q4 -7 -5 -12
l-198 -106q-1 -2 -4.5 -1.5t-4.5 2.5l-3 4q-3 8 1 11l197 116q8 6 12 -1zM352 845l6 -13q2 -8 -5 -12l-198 -106q-5 -4 -10 1l-3 4q-2 8 3 11l196 116q8 6 11 -1z" />
    <glyph glyph-name="_1" horiz-adv-x="0" 
 />
    <glyph glyph-name="CR" horiz-adv-x="333" 
 />
    <glyph glyph-name="grave.case" horiz-adv-x="281" 
d="M173 835l10 13q6 6 12 1l160 -116q3 -1 -2 -11l-4 -4q-2 -2 -5.5 -2.5t-4.5 1.5l-165 106q-5 5 -1 12z" />
    <glyph glyph-name="dieresis.case" horiz-adv-x="306" 
d="M164 780q4 33 38 33q14 0 21.5 -9t5.5 -24q-2 -14 -13 -23.5t-25 -9.5q-32 0 -27 33zM325 780q2 15 12.5 24t24.5 9q15 0 22.5 -9t5.5 -24q-2 -14 -13 -23t-26 -9q-14 0 -21 9t-5 23z" />
    <glyph glyph-name="macron.case" horiz-adv-x="302" 
d="M159 779h230q8 0 7 -7l-1 -6q-1 -7 -9 -7h-230q-7 0 -6 7l1 6q1 7 8 7z" />
    <glyph glyph-name="acute.case" horiz-adv-x="281" 
d="M366 848l6 -13q4 -7 -5 -12l-197 -106q-9 -3 -10 1l-3 5q-6 5 2 10l196 116q10 6 11 -1z" />
    <glyph glyph-name="circumflex.case" horiz-adv-x="433" 
d="M475 738l-127 96l-156 -96q-8 -5 -15 -5h-13q-17 0 0 11l2 1l165 100q8 5 15 5h10l12 -5l134 -100q15 -12 0 -12h-14q-8 0 -13 5z" />
    <glyph glyph-name="caron.case" horiz-adv-x="433" 
d="M209 845l126 -96l157 96q8 5 15 5h14q15 0 1 -9l-5 -3l-166 -100q-8 -5 -14 -5h-10q-5 0 -13 5l-133 100q-17 12 2 12h13q5 0 13 -5z" />
    <glyph glyph-name="breve.case" horiz-adv-x="370" 
d="M449 850h10q5 0 4 -9q-11 -54 -56 -86.5t-109 -32.5q-62 0 -96 33t-29 86q1 9 6 9h12q5 0 3 -9q-1 -48 27 -73.5t81 -25.5q111 0 139 99q5 9 8 9z" />
    <glyph glyph-name="dotaccent.case" horiz-adv-x="238" 
d="M213 791q4 31 37 31q25 0 26 -23.5t-20 -34.5q-8 -4 -16 -4q-14 0 -21.5 8.5t-5.5 22.5z" />
    <glyph glyph-name="ring.case" horiz-adv-x="261" 
d="M168 806q6 40 34.5 65t69.5 25t62 -24.5t15 -65.5q-7 -41 -36 -66t-70 -25t-61.5 25t-13.5 66zM246 735q32 0 55.5 19.5t27.5 50.5q5 31 -12 51t-48 20q-32 0 -55 -20q-22 -20 -27 -51q-5 -32 11.5 -51t47.5 -19z" />
    <glyph glyph-name="tilde.case" horiz-adv-x="389" 
d="M178 755q-4 -6 -10 -3l-5 5q-3 1 -1 9q42 84 104 82q22 0 37.5 -15t23 -33.5t21 -33t32.5 -13.5q43 1 81 73q4 9 9 4l7 -6q3 -4 0 -8q-38 -83 -105 -83q-21 0 -36.5 15t-23.5 32.5t-22 32.5t-32 15q-44 -2 -80 -73z" />
    <glyph glyph-name="hungarumlaut.case" horiz-adv-x="348" 
d="M422 855l15 -12q7 -4 -1 -12l-106 -100q-8 -8 -13 -3l-2 2q-7 4 1 12l93 111q7 7 13 2zM267 855l15 -12q7 -4 -1 -12l-106 -100q-9 -9 -13 -4l-2 3q-7 4 1 12l93 111q8 7 13 2z" />
    <glyph glyph-name="zero.onum" horiz-adv-x="597" 
d="M92 223q17 104 93 167q76 64 186 64t165 -64q56 -63 39 -167q-17 -103 -93 -168q-74 -64 -184 -64q-109 0 -166 64q-56 65 -40 168zM555 223q15 95 -37 153q-51 58 -150 58q-101 0 -171 -58t-85 -153q-15 -96 37 -154t152 -58q101 0 169 58q70 58 85 154z" />
    <glyph glyph-name="one.onum" horiz-adv-x="426" 
d="M104 354l179 89h10q10 0 9 -10l-66 -413h165q8 0 7 -7l-1 -6q-1 -7 -9 -7h-350q-8 0 -7 7l1 6q1 7 9 7h165l64 400l-173 -85q-4 -2 -6.5 -2.5t-3.5 1t-1 3.5v2l1 6q0 5 7 9z" />
    <glyph glyph-name="two.onum" horiz-adv-x="493" 
d="M428 0h-373q-18 0 -2 13q36 25 112 73l153 97l70 43q37 24 52.5 45.5t19.5 56.5q5 48 -32 76.5t-107 28.5q-103 0 -180 -80q-7 -7 -12 -3l-4 5q-4 4 4 12q84 86 194 86q80 0 121.5 -34t35.5 -92q-8 -74 -91 -123q-1 0 -293 -184h335q8 0 7 -7l-1 -6q-1 -7 -9 -7z" />
    <glyph glyph-name="three.onum" horiz-adv-x="514" 
d="M269 202q-9 0 -8 10l1 9l212 202h-316q-9 0 -7 8l1 4q2 8 9 8h333q10 0 9 -10l-2 -10l-212 -203q97 -5 142.5 -50.5t32.5 -126.5q-14 -87 -78 -139q-65 -53 -155 -53q-86 0 -132 51t-36 136q2 8 9 8h6q7 0 5 -8q-7 -76 34.5 -121.5t117.5 -45.5q82 0 139 47t70 125
q12 76 -33 115.5t-142 43.5z" />
    <glyph glyph-name="four.onum" horiz-adv-x="568" 
d="M459 443h17q10 0 9 -10l-63 -392h87q5 1 6.5 -0.5t0.5 -6.5l-1 -6q-1 -7 -9 -7h-87l-24 -152q-2 -8 -8 -8h-6q-8 0 -6 8l24 152h-352q-16 0 -4 12l399 402q8 8 17 8zM402 41l62 390l-387 -390h325z" />
    <glyph glyph-name="five.onum" horiz-adv-x="515" 
d="M294 251q92 0 139 -57q47 -56 33 -146q-13 -88 -79 -143q-65 -54 -156 -54q-85 0 -131 52t-37 136q1 9 8 9h8q5 0 4 -9q-8 -75 34.5 -121.5t118.5 -46.5q82 0 139.5 48.5t70.5 128.5q13 82 -29.5 132.5t-123.5 50.5q-37 0 -73 -14q-31 -12 -48 -24.5t-43 -38.5h-10
q-9 0 -8 10l58 269q3 10 13 10h291q8 0 7 -7l-1 -6q-1 -7 -9 -7h-283l-50 -236q65 64 157 64z" />
    <glyph glyph-name="six.onum" horiz-adv-x="524" 
d="M355 594h8q12 0 2 -13l-165 -223q60 33 124 33q91 0 139 -56q48 -55 34 -143q-13 -87 -80 -144q-65 -57 -156 -57q-92 0 -140 55q-46 55 -33 146q11 64 46 111l210 282q8 9 11 9zM477 193q13 78 -31 128t-125 50q-79 0 -141 -50q-59 -49 -73 -128q-13 -82 30 -132
t127 -50q82 0 141 50q59 51 72 132z" />
    <glyph glyph-name="seven.onum" horiz-adv-x="463" 
d="M476 423h-370q-8 0 -7 7l1 6q1 7 9 7h384q13 0 6 -15l-301 -558q-7 -9 -13 -9h-7q-8 0 -3 9z" />
    <glyph glyph-name="eight.onum" horiz-adv-x="509" 
d="M82 159q10 60 50.5 101.5t103.5 56.5q-39 15 -57.5 47.5t-11.5 77.5q11 71 60.5 112t121.5 41t108 -41t25 -112q-7 -44 -36 -77t-73 -48q57 -17 85 -59t19 -99q-12 -76 -73 -122t-150 -46q-90 0 -137 46t-35 122zM103 162q-11 -69 31.5 -110.5t122.5 -41.5q79 0 134 42
q57 43 67 110q11 62 -33 103t-122 41q-79 0 -135 -41q-54 -40 -65 -103zM187 441q-8 -52 25 -83.5t95 -31.5q63 0 105 31t50 84q10 62 -21.5 98t-94.5 36t-106 -35.5t-53 -98.5z" />
    <glyph glyph-name="nine.onum" horiz-adv-x="524" 
d="M238 -149h-8q-11 0 -1 13l165 223q-58 -33 -124 -33q-91 0 -139 56q-48 55 -34 143q13 86 79 144q66 57 157 57q92 0 140 -55q47 -55 34 -146q-11 -61 -48 -111l-208 -282q-7 -9 -13 -9zM117 252q-13 -79 31 -129q43 -49 126 -49q78 0 139 50q60 48 74 128
q13 83 -29.5 132.5t-126.5 49.5q-82 0 -142 -51q-58 -49 -72 -131z" />
    <glyph glyph-name="zero.numr" horiz-adv-x="381" 
d="M110 474q16 103 69 166t123 63t102.5 -63t16.5 -166q-17 -104 -69 -167t-122 -63t-103 63q-33 64 -17 167zM130 474q-15 -95 13.5 -152.5t89.5 -57.5t107 57q46 58 61 153q15 94 -13 151.5t-89 57.5t-107.5 -57.5t-61.5 -151.5z" />
    <glyph glyph-name="one.numr" horiz-adv-x="216" 
d="M168 261l65 413h-78q-8 0 -7 7l1 6q1 7 9 7h88q10 0 9 -10l-67 -423q-2 -8 -9 -8h-4q1 0 0.5 0.5t-2.5 1.5q-6 3 -5 6z" />
    <glyph glyph-name="two.numr" horiz-adv-x="348" 
d="M335 254h-255q-7 0 -9 5t6 11l243 210q1 1 5.5 4.5t7.5 6.5q12 11 27 38t20 55q8 47 -18.5 73.5t-71.5 26.5q-65 0 -113 -48q-8 -8 -12 -2l-4 6q-3 4 4 11q56 53 124 53q61 0 90.5 -31.5t20.5 -94.5q-5 -29 -20.5 -57t-31.5 -41l-13 -11q-14 -14 -227 -195h231q7 0 7 -2
v-4l-1 -8q-1 -6 -10 -6z" />
    <glyph glyph-name="three.numr" horiz-adv-x="345" 
d="M208 483l1 6q1 7 8 7h32q100 1 114 88q7 44 -16.5 71.5t-67.5 27.5q-60 0 -109 -49q-8 -6 -11 -2l-4 6q-4 4 2 10q56 55 125 55q54 0 81.5 -33t19.5 -86q-12 -73 -76 -98q70 -24 56 -107q-9 -60 -53 -97.5t-106 -37.5q-58 0 -90 33.5t-27 87.5q0 8 8 8h4q8 0 8 -6
q-3 -47 24.5 -75t76.5 -28q52 0 90 32t46 83q7 44 -17 70t-72 27h-41q-7 0 -6 7z" />
    <glyph glyph-name="four.numr" horiz-adv-x="385" 
d="M116 383h218l47 297zM415 376l-1 -6q-1 -7 -9 -7h-54l-16 -101q-2 -8 -9 -8h-6q-6 0 -6 7l17 102h-237q-20 0 -6 17l273 305q6 8 17 8h15q9 0 8 -10l-47 -300h54q8 0 7 -7z" />
    <glyph glyph-name="five.numr" horiz-adv-x="364" 
d="M113 364q-2 -48 26 -74t83 -26q56 0 95.5 34t47.5 89q9 56 -20.5 89.5t-87.5 33.5q-15 1 -32 -4t-32 -13.5t-27.5 -16.5t-21.5 -15l-8 -7h-14q-6 0 -5 6l52 227q0 7 8 7h214q5 0 5 -7l-1 -6q-1 -7 -7 -7h-202l-44 -193q59 49 117 49q67 0 101.5 -39t24.5 -104
q-10 -64 -56 -103.5t-111 -39.5q-63 0 -97.5 33t-27.5 88q0 7 5 7h10q5 0 5 -8z" />
    <glyph glyph-name="six.numr" horiz-adv-x="361" 
d="M285 694h7q8 0 5 -8l-117 -185q37 22 84 22q63 0 95 -38q33 -38 23 -101q-11 -64 -55 -102t-107 -38t-96 38.5t-23 101.5q6 37 31 76l143 228q5 6 10 6zM121 383q-9 -54 19.5 -86.5t82.5 -32.5q54 -1 92 32t47 87q9 55 -18.5 87.5t-82.5 33.5q-54 0 -93 -33.5t-47 -87.5z
" />
    <glyph glyph-name="seven.numr" horiz-adv-x="312" 
d="M380 674h-252q-6 0 -5 7l1 6q0 7 7 7h268q11 0 5 -11l-227 -424q-3 -5 -8 -5h-10q-5 0 -4 7z" />
    <glyph glyph-name="eight.numr" horiz-adv-x="378" 
d="M171 579q-6 -40 21 -67t74 -27t83 27.5t42 66.5q7 48 -18.5 76t-75.5 28q-51 0 -85 -28t-41 -76zM119 370q-8 -48 23 -77t90 -29q57 0 97.5 29.5t47.5 76.5q6 40 -25.5 67.5t-87.5 27.5t-97.5 -27.5t-47.5 -67.5zM98 368q6 37 35 66.5t73 42.5q-31 14 -45.5 42.5
t-9.5 62.5q9 56 49.5 88.5t99.5 32.5q60 0 90 -32.5t21 -88.5q-5 -34 -29.5 -63t-59.5 -43q40 -13 60 -42t14 -66q-8 -55 -54.5 -89.5t-113.5 -34.5t-102.5 34t-27.5 90z" />
    <glyph glyph-name="nine.numr" horiz-adv-x="361" 
d="M247 424q-63 0 -95.5 38.5t-22.5 100.5q10 64 55 102.5t108 38.5t95.5 -39t22.5 -102q-6 -36 -31 -76l-143 -227q-2 -6 -10 -6h-6q-10 0 -4 9l116 183q-43 -22 -85 -22zM251 444q53 0 92 33t47 87q9 54 -19 87t-82 33q-55 0 -93 -33t-47 -87q-8 -55 19.5 -87.5
t82.5 -32.5z" />
    <glyph glyph-name="zero.dnom" horiz-adv-x="381" 
d="M70 220q16 103 69 166t123 63t102.5 -63t16.5 -166q-16 -102 -69 -167q-52 -63 -123 -63q-70 0 -103 63t-16 167zM90 220q-15 -95 13.5 -152.5t89.5 -57.5t107 57q46 58 61 153q15 94 -13 151.5t-89 57.5t-107.5 -57.5t-61.5 -151.5z" />
    <glyph glyph-name="one.dnom" horiz-adv-x="216" 
d="M98 441l108 1q9 0 8 -10l-66 -424q-2 -8 -9 -8h-6q-8 0 -6 8l66 412h-98q-9 0 -7 8l1 5q2 8 9 8z" />
    <glyph glyph-name="two.dnom" horiz-adv-x="348" 
d="M42 0h-2q-19 0 -3 16q24 26 83 76q14 12 37 32t40.5 35t32.5 27l50 40q1 1 5.5 4.5t7.5 6.5q12 11 27 38t20 55q8 47 -18.5 73.5t-71.5 26.5q-66 0 -113 -48q-8 -8 -12 -2l-4 6q-2 5 4 11q56 53 123 53q62 0 92 -31.5t19 -94.5q-5 -29 -20.5 -57t-30.5 -41l-13 -11
l-43 -37l-100 -86l-84 -72h231q7 0 7 -2v-4l-1 -7q-1 -7 -10 -7h-250h-3z" />
    <glyph glyph-name="three.dnom" horiz-adv-x="345" 
d="M169 229l1 6q1 7 9 7h31q45 1 76 24.5t37 63.5q7 44 -15.5 71t-67.5 28q-58 1 -110 -48q-7 -7 -10 -2l-4 5q-5 5 3 11q53 54 124 54q53 0 81 -33t19 -86q-10 -70 -77 -97q72 -23 59 -108q-9 -58 -54 -97q-44 -38 -106 -38q-59 0 -91 32.5t-27 86.5q1 10 8 10h8q4 0 4 -8
q-3 -47 24.5 -74t77.5 -27q52 0 90 32t46 83q7 44 -17 70t-73 27h-39q-8 0 -7 7z" />
    <glyph glyph-name="four.dnom" horiz-adv-x="385" 
d="M76 129h218l47 297zM374 122v-6q-1 -7 -10 -7h-54l-16 -101q-2 -8 -8 -8h-6q-7 0 -6 7l16 102h-237q-19 0 -5 17l272 305q8 8 18 8h15q9 0 8 -10l-47 -300h54q7 0 6 -7z" />
    <glyph glyph-name="five.dnom" horiz-adv-x="364" 
d="M72 110q-2 -48 26.5 -74t83.5 -26q56 0 95 33.5t48 89.5t-20.5 89.5t-87.5 33.5q-15 1 -32 -4t-32 -13.5t-27.5 -16.5t-21.5 -15l-8 -7h-14q-6 0 -5 6l52 227q0 7 8 7h214q5 0 5 -7l-1 -6q-1 -7 -7 -7h-202l-44 -193q59 49 117 49q67 0 101.5 -39t24.5 -104
q-10 -64 -56.5 -103.5t-111.5 -39.5q-63 0 -97 33t-27 88q0 7 5 7h10q6 0 4 -8z" />
    <glyph glyph-name="six.dnom" horiz-adv-x="361" 
d="M245 440h7q9 0 3 -8l-115 -185q37 22 84 22q63 0 95.5 -38t22.5 -101q-11 -63 -55.5 -101.5t-107.5 -38.5t-95.5 38.5t-22.5 101.5q4 34 31 76l143 228q3 6 10 6zM80 129q-8 -54 20.5 -86.5t82.5 -32.5q53 -1 91.5 32t46.5 87q10 54 -18 87t-82 34q-54 0 -93 -33.5
t-48 -87.5z" />
    <glyph glyph-name="seven.dnom" horiz-adv-x="312" 
d="M340 420h-251q-7 0 -7 6l2 7q0 6 8 6h267q12 0 5 -10l-227 -425q-3 -4 -8 -4h-10q-8 0 -4 7z" />
    <glyph glyph-name="eight.dnom" horiz-adv-x="378" 
d="M130 325q-5 -40 22 -67t74 -27q49 0 83 28q37 29 41 66q8 48 -17.5 76t-75.5 28t-84.5 -28t-42.5 -76zM78 116q-7 -48 24 -77t90 -29q57 0 96.5 29.5t47.5 76.5q7 40 -25 67.5t-88 27.5t-97.5 -27.5t-47.5 -67.5zM58 114q6 37 35 66.5t72 42.5q-30 14 -44.5 42.5
t-9.5 62.5q9 56 49.5 88.5t99.5 32.5q60 0 90 -32.5t21 -88.5q-5 -34 -29.5 -63t-59.5 -43q40 -13 60 -42t14 -66q-9 -56 -55.5 -90t-113.5 -34t-102.5 34t-26.5 90z" />
    <glyph glyph-name="nine.dnom" horiz-adv-x="361" 
d="M207 170q-63 0 -95.5 38.5t-22.5 100.5q10 64 54.5 102.5t107.5 38.5q64 0 96.5 -39t22.5 -102q-6 -36 -31 -76l-143 -227q-3 -6 -10 -6h-6q-11 0 -5 9l116 183q-40 -22 -84 -22zM211 190q53 0 92 33t47 87q9 54 -19 87t-82 33q-55 0 -93 -33t-47 -87q-8 -55 19.5 -87.5
t82.5 -32.5z" />
    <glyph glyph-name="zero.tnum" horiz-adv-x="600" 
d="M139 89q-50 99 -25 258q26 162 107 258q83 98 191 98q109 0 159 -98q51 -98 26 -258q-26 -162 -107 -258q-83 -98 -191 -98q-109 0 -160 98zM233 590q-75 -92 -99 -243q-24 -152 22 -244q47 -92 146 -92q100 0 175 92q76 92 100 244t-22 243q-47 93 -146 93t-176 -93z
" />
    <glyph glyph-name="one.tnum" horiz-adv-x="600" 
d="M255 681l1 5q2 8 9 8h147q10 -1 8 -11l-105 -663h180q8 0 7 -7l-1 -6q-1 -7 -9 -7h-384q-8 0 -7 7l1 6q1 7 9 7h184l104 654h-137q-8 0 -7 7z" />
    <glyph glyph-name="two.tnum" horiz-adv-x="600" 
d="M515 391l-17 -17l-364 -354h369q7 0 7 -2v-4l-2 -8q0 -6 -8 -6h-386h-4h-6q-16 0 -5 12q34 36 126 125q75 74 181 176l84 80l16 17q8 8 28 43q20 33 24 63q12 75 -26 121t-113 46q-106 0 -183 -83q-7 -7 -11 -1l-3 5q-4 6 3 13q86 86 197 86q84 0 127 -51.5t29 -135.5
q-6 -35 -26 -73q-20 -35 -37 -52z" />
    <glyph glyph-name="three.tnum" horiz-adv-x="600" 
d="M312 369l53 -1q77 -1 128 39t62 109q12 75 -26 121t-113 46q-100 0 -182 -82q-8 -8 -12 -2l-4 6q-3 5 3 11q87 87 198 87q83 0 126 -51t30 -136q-20 -126 -137 -157q62 -16 90 -58.5t18 -105.5q-13 -94 -83 -153q-68 -58 -166 -58q-93 0 -144 53q-50 55 -40 141q2 8 8 8
h6q6 0 6 -8q-7 -79 38.5 -126.5t128.5 -47.5q90 0 151 52t75 139q11 67 -30.5 109.5t-119.5 44.5h-67q-8 0 -7 7l1 7q1 6 9 6z" />
    <glyph glyph-name="four.tnum" horiz-adv-x="600" 
d="M482 184h87q7 0 7 -2v-4l-1 -8q-1 -6 -9 -6h-87l-25 -156q-2 -8 -8 -8h-6q-8 0 -6 8l25 156h-359h-2h-7q-15 0 -5 13l434 508q8 9 17 9h16q10 0 8 -11zM462 184l79 497l-424 -497h345z" />
    <glyph glyph-name="five.tnum" horiz-adv-x="600" 
d="M567 674h-299l-74 -326q76 76 167 76q100 0 151 -61q53 -60 36 -158q-16 -100 -85 -161q-67 -60 -166 -60q-93 0 -144 53q-50 55 -40 141q2 8 7 8h8q8 0 6 -8q-8 -81 36.5 -127.5t129.5 -46.5q90 0 151 55q64 56 77 146q14 89 -33 144q-46 55 -138 55q-41 0 -89 -24
q-6 -2 -15 -8.5t-19 -14.5t-11 -9l-21 -18l-16 -15h-10q-9 0 -8 10l82 358q5 12 14 11h307q8 0 6 -8v-3q-1 -9 -10 -9z" />
    <glyph glyph-name="six.tnum" horiz-adv-x="600" 
d="M544 201q-15 -96 -82 -154t-163 -58t-145 58q-50 59 -35 154q9 51 30 88l246 399q5 6 10 6h8q10 0 0 -13l-196 -317q67 47 148 47q96 0 145 -57q50 -58 34 -153zM524 201q13 85 -31.5 137.5t-130.5 52.5q-84 0 -148 -53q-62 -53 -75 -137q-14 -86 31 -139t132 -53
q85 0 147 53q61 52 75 139z" />
    <glyph glyph-name="seven.tnum" horiz-adv-x="600" 
d="M205 694h406q15 0 7 -15l-360 -670q-4 -9 -11 -9h-7q-8 0 -3 9l357 665h-392q-8 0 -7 7l1 6q1 7 9 7z" />
    <glyph glyph-name="eight.tnum" horiz-adv-x="600" 
d="M410 703q84 0 128 -49t31 -128q-8 -54 -46 -96.5t-95 -61.5q68 -16 101.5 -64t23.5 -115q-13 -89 -84 -145q-71 -54 -172 -54t-153 54q-52 55 -38 145q10 66 59 114t122 65q-51 19 -75 61.5t-16 96.5q13 78 72 128q58 49 142 49zM533 190q11 74 -38 120q-49 47 -138 47
q-91 0 -156 -47q-65 -46 -75 -120q-13 -81 35.5 -130.5t140.5 -49.5t154 49q63 49 77 131zM216 526q-9 -63 31 -106t113 -43q74 0 126 43q54 43 63 106q11 71 -27.5 114t-113.5 43q-76 0 -128 -43q-54 -44 -64 -114z" />
    <glyph glyph-name="nine.tnum" horiz-adv-x="600" 
d="M546 379l-233 -372q-4 -7 -13 -7h-6q-8 0 -1 13l197 312q-65 -44 -146 -44q-96 0 -145 58t-34 152t83 153t163 59q94 0 144 -59t35 -153q-8 -53 -44 -112zM347 301q87 0 148 52t75 139q14 86 -30.5 138.5t-131.5 52.5q-86 0 -148 -53q-62 -52 -75 -138t31.5 -138.5
t130.5 -52.5z" />
    <glyph glyph-name="zero.pnum" horiz-adv-x="597" 
d="M112 347q25 160 107 258q83 98 191 98q109 0 160 -98q51 -97 25 -258t-107 -259q-81 -97 -190 -97t-160 98t-26 258zM575 347q24 152 -22 243q-47 93 -146 93t-176 -93q-75 -92 -99 -243q-24 -152 22 -244q47 -92 147 -92t175 92q75 91 99 244z" />
    <glyph glyph-name="one.pnum" horiz-adv-x="312" 
d="M196 682l1 4q3 8 9 8h118q10 -1 8 -11l-107 -675q-2 -8 -8 -8h-5q-9 0 -7 8l106 666h-108q-9 0 -7 8z" />
    <glyph glyph-name="two.pnum" horiz-adv-x="549" 
d="M500 391l-18 -17l-364 -354h369q7 0 7 -2v-4l-1 -8q-1 -6 -9 -6h-386h-4h-6q-14 0 -4 12q46 49 125 125q75 74 181 176l84 80l16 17q6 6 29 43q19 33 24 63q12 75 -26.5 121t-113.5 46q-106 0 -183 -83q-7 -7 -10 -1l-3 5q-4 6 3 13q84 86 196 86q84 0 127.5 -51.5
t29.5 -135.5q-6 -35 -26 -73q-19 -35 -37 -52z" />
    <glyph glyph-name="three.pnum" horiz-adv-x="545" 
d="M284 369l53 -1q77 -1 128.5 39t62.5 109q12 75 -26.5 121t-113.5 46q-100 0 -182 -82q-8 -8 -11 -2l-4 6q-5 5 3 11q86 87 197 87q84 0 127 -51.5t30 -135.5q-21 -125 -137 -157q62 -16 90 -58t18 -106q-15 -95 -84 -153q-68 -58 -166 -58q-93 0 -144 53q-50 55 -40 141
q2 8 8 8h6q6 0 6 -8q-7 -79 39 -126.5t129 -47.5q90 0 151 52t75 139q10 67 -31.5 109.5t-119.5 44.5h-67q-8 0 -7 7l1 7q1 6 9 6z" />
    <glyph glyph-name="four.pnum" horiz-adv-x="612" 
d="M489 184h87q7 0 7 -2v-4l-1 -8q-2 -6 -9 -6h-87l-25 -156q-2 -8 -8 -8h-6q-8 0 -6 8l25 156h-359h-2h-7q-15 0 -5 13l434 508q7 9 17 9h16q10 0 8 -11zM469 184l79 497l-424 -497h345z" />
    <glyph glyph-name="five.pnum" horiz-adv-x="545" 
d="M540 674h-299l-75 -326q76 76 167 76q100 0 151 -61q53 -60 36 -158q-16 -100 -85 -161q-67 -60 -166 -60q-93 0 -144 53q-50 55 -40 141q2 8 7 8h8q8 0 6 -8q-7 -81 38 -127.5t129 -46.5q89 0 150 55q64 56 77 146q14 89 -33 144q-46 55 -138 55q-22 0 -56 -9
q-9 -2 -27 -12l-19 -10q-2 -1 -37 -29q-3 -2 -17 -16l-14 -13h-10q-9 0 -9 10l82 358q5 12 14 11h307q7 0 7 -8l-1 -3q-1 -9 -9 -9z" />
    <glyph glyph-name="six.pnum" horiz-adv-x="539" 
d="M514 201q-15 -95 -83 -154q-67 -58 -163 -58t-145 58t-34 154q8 48 30 88l246 399q5 6 10 6h8q7 0 0 -13l-196 -317q67 47 148 47q96 0 145 -57t34 -153zM494 201q13 85 -31.5 137.5t-130.5 52.5q-84 0 -148 -53q-62 -53 -75 -137q-14 -86 30.5 -139t131.5 -53
q86 0 148 53q61 52 75 139z" />
    <glyph glyph-name="seven.pnum" horiz-adv-x="483" 
d="M147 694h406q15 0 7 -15l-360 -670q-4 -9 -11 -9h-7q-8 0 -3 9l357 665h-392q-8 0 -7 7l1 6q1 7 9 7z" />
    <glyph glyph-name="eight.pnum" horiz-adv-x="561" 
d="M391 703q84 0 128 -49t31 -128q-8 -54 -46 -96.5t-95 -61.5q68 -16 101.5 -64t23.5 -115q-13 -89 -84 -145q-70 -54 -172 -54q-100 0 -153 54q-52 55 -38 145q10 66 59 114t122 65q-51 19 -75 61.5t-16 96.5q13 78 72 128q58 49 142 49zM514 190q11 74 -38 120
q-49 47 -138 47q-91 0 -156 -47q-64 -46 -75 -120q-13 -81 35.5 -130.5t140.5 -49.5t154 49q63 49 77 131zM197 526q-9 -63 31 -106t113 -43q74 0 126 43q54 43 63 106q11 71 -27.5 114t-113.5 43q-76 0 -128 -43q-54 -44 -64 -114z" />
    <glyph glyph-name="nine.pnum" horiz-adv-x="539" 
d="M516 379l-234 -372q-4 -7 -12 -7h-6q-8 0 -1 13l196 312q-64 -44 -145 -44q-96 0 -145 58t-34 152q15 95 82 153q68 59 163 59t145 -59t35 -153q-9 -53 -44 -112zM317 301q87 0 148 52t75 139q14 86 -31 138.5t-132 52.5q-85 0 -147 -53q-62 -52 -75 -138t31.5 -138.5
t130.5 -52.5z" />
    <glyph glyph-name="zero.onum.pnum" horiz-adv-x="597" 
d="M92 223q17 104 93 167q76 64 186 64t165 -64q56 -63 39 -167q-17 -103 -93 -168q-74 -64 -184 -64q-109 0 -166 64q-56 65 -40 168zM555 223q15 95 -37 153q-51 58 -150 58q-101 0 -171 -58t-85 -153q-15 -96 37 -154t152 -58q101 0 169 58q70 58 85 154z" />
    <glyph glyph-name="one.onum.pnum" horiz-adv-x="426" 
d="M104 354l179 89h10q10 0 9 -10l-66 -413h165q8 0 7 -7l-1 -6q-1 -7 -9 -7h-350q-8 0 -7 7l1 6q1 7 9 7h165l64 400l-173 -85q-4 -2 -6.5 -2.5t-3.5 1t-1 3.5v2l1 6q0 5 7 9z" />
    <glyph glyph-name="two.onum.pnum" horiz-adv-x="493" 
d="M428 0h-373q-18 0 -2 13q36 25 112 73l153 97l70 43q37 24 52.5 45.5t19.5 56.5q5 48 -32 76.5t-107 28.5q-103 0 -180 -80q-7 -7 -12 -3l-4 5q-4 4 4 12q84 86 194 86q80 0 121.5 -34t35.5 -92q-8 -74 -91 -123q-1 0 -293 -184h335q8 0 7 -7l-1 -6q-1 -7 -9 -7z" />
    <glyph glyph-name="three.onum.pnum" horiz-adv-x="514" 
d="M269 202q-9 0 -8 10l1 9l212 202h-316q-9 0 -7 8l1 4q2 8 9 8h333q10 0 9 -10l-2 -10l-212 -203q97 -5 142.5 -50.5t32.5 -126.5q-14 -87 -78 -139q-65 -53 -155 -53q-86 0 -132 51t-36 136q2 8 9 8h6q7 0 5 -8q-7 -76 34.5 -121.5t117.5 -45.5q82 0 139 47t70 125
q12 76 -33 115.5t-142 43.5z" />
    <glyph glyph-name="four.onum.pnum" horiz-adv-x="568" 
d="M459 443h17q10 0 9 -10l-63 -392h87q5 1 6.5 -0.5t0.5 -6.5l-1 -6q-1 -7 -9 -7h-87l-24 -152q-2 -8 -8 -8h-6q-8 0 -6 8l24 152h-352q-16 0 -4 12l399 402q8 8 17 8zM402 41l62 390l-387 -390h325z" />
    <glyph glyph-name="five.onum.pnum" horiz-adv-x="515" 
d="M294 251q92 0 139 -57q47 -56 33 -146q-13 -88 -79 -143q-65 -54 -156 -54q-85 0 -131 52t-37 136q1 9 8 9h8q5 0 4 -9q-8 -75 34.5 -121.5t118.5 -46.5q82 0 139.5 48.5t70.5 128.5q13 82 -29.5 132.5t-123.5 50.5q-37 0 -73 -14q-31 -12 -48 -24.5t-43 -38.5h-10
q-9 0 -8 10l58 269q3 10 13 10h291q8 0 7 -7l-1 -6q-1 -7 -9 -7h-283l-50 -236q65 64 157 64z" />
    <glyph glyph-name="six.onum.pnum" horiz-adv-x="524" 
d="M355 594h8q12 0 2 -13l-165 -223q60 33 124 33q91 0 139 -56q48 -55 34 -143q-13 -87 -80 -144q-65 -57 -156 -57q-92 0 -140 55q-46 55 -33 146q11 64 46 111l210 282q8 9 11 9zM477 193q13 78 -31 128t-125 50q-79 0 -141 -50q-59 -49 -73 -128q-13 -82 30 -132
t127 -50q82 0 141 50q59 51 72 132z" />
    <glyph glyph-name="seven.onum.pnum" horiz-adv-x="463" 
d="M476 423h-370q-8 0 -7 7l1 6q1 7 9 7h384q13 0 6 -15l-301 -558q-7 -9 -13 -9h-7q-8 0 -3 9z" />
    <glyph glyph-name="eight.onum.pnum" horiz-adv-x="509" 
d="M82 159q10 60 50.5 101.5t103.5 56.5q-39 15 -57.5 47.5t-11.5 77.5q11 71 60.5 112t121.5 41t108 -41t25 -112q-7 -44 -36 -77t-73 -48q57 -17 85 -59t19 -99q-12 -76 -73 -122t-150 -46q-90 0 -137 46t-35 122zM103 162q-11 -69 31.5 -110.5t122.5 -41.5q79 0 134 42
q57 43 67 110q11 62 -33 103t-122 41q-79 0 -135 -41q-54 -40 -65 -103zM187 441q-8 -52 25 -83.5t95 -31.5q63 0 105 31t50 84q10 62 -21.5 98t-94.5 36t-106 -35.5t-53 -98.5z" />
    <glyph glyph-name="nine.onum.pnum" horiz-adv-x="524" 
d="M238 -149h-8q-11 0 -1 13l165 223q-58 -33 -124 -33q-91 0 -139 56q-48 55 -34 143q13 86 79 144q66 57 157 57q92 0 140 -55q47 -55 34 -146q-11 -61 -48 -111l-208 -282q-7 -9 -13 -9zM117 252q-13 -79 31 -129q43 -49 126 -49q78 0 139 50q60 48 74 128
q13 83 -29.5 132.5t-126.5 49.5q-82 0 -142 -51q-58 -49 -72 -131z" />
    <glyph glyph-name="zero.onum.tnum" horiz-adv-x="600" 
d="M133 55q-55 65 -39 168q17 104 93 167q76 64 186 64t165 -64q56 -63 39 -167q-17 -103 -93 -168q-76 -64 -185 -64t-166 64zM557 223q15 94 -37 152q-53 59 -151 59q-100 0 -170 -58t-85 -153t36 -154q52 -58 152 -58t170 58t85 154z" />
    <glyph glyph-name="one.onum.tnum" horiz-adv-x="600" 
d="M181 354l179 89h10q10 0 9 -10l-66 -413h165q8 0 7 -7l-1 -6q-1 -7 -9 -7h-350q-8 0 -7 7l1 6q1 7 9 7h165l64 400l-173 -85q-4 -2 -6.5 -2.5t-3.5 1t-1 3.5v2l1 6q0 5 7 9z" />
    <glyph glyph-name="two.onum.tnum" horiz-adv-x="600" 
d="M489 0h-373q-18 0 -2 13q36 25 112 73q77 49 154 97l69 43q37 24 52.5 45.5t19.5 56.5q5 48 -32.5 76.5t-107.5 28.5q-102 0 -179 -80q-8 -7 -12 -3l-4 5q-4 4 4 12q84 86 194 86q80 0 121.5 -34t35.5 -92q-8 -74 -91 -123q-1 0 -293 -184h335q8 0 7 -7l-1 -6
q-1 -7 -9 -7z" />
    <glyph glyph-name="three.onum.tnum" horiz-adv-x="600" 
d="M312 202q-9 0 -9 10l2 9l212 202h-316q-9 0 -7 8l1 4q2 8 9 8h333q9 0 8 -10l-1 -10l-212 -203q97 -5 142.5 -50.5t32.5 -126.5q-14 -87 -78 -139q-65 -53 -155 -53q-86 0 -132 51t-36 136q2 8 9 8h6q7 0 5 -8q-7 -76 34 -121.5t117 -45.5q82 0 139.5 47t70.5 125
q12 76 -33 115.5t-142 43.5z" />
    <glyph glyph-name="four.onum.tnum" horiz-adv-x="600" 
d="M488 443h17q9 0 8 -10l-62 -392h87q4 1 6 -1t1 -6l-1 -6q-1 -7 -9 -7h-87l-24 -152q-2 -8 -9 -8h-6q-7 0 -5 8l24 152h-352q-16 0 -4 12l398 402q8 8 18 8zM431 41l62 390l-387 -390h325z" />
    <glyph glyph-name="five.onum.tnum" horiz-adv-x="600" 
d="M336 251q92 0 139 -57q47 -56 33 -146q-13 -88 -78 -142q-64 -55 -156 -55q-85 0 -131 52t-37 136q2 9 7 9h8q7 0 5 -9q-8 -76 34 -122t118 -46q82 0 139.5 48.5t70.5 128.5q13 82 -29.5 132.5t-123.5 50.5q-88 0 -163 -77h-10q-9 0 -8 10l57 269q3 10 14 10h291
q8 0 7 -7l-1 -6q-1 -7 -9 -7h-283l-51 -236q65 64 157 64z" />
    <glyph glyph-name="six.onum.tnum" horiz-adv-x="600" 
d="M393 594h8q12 0 2 -13l-165 -223q60 33 124 33q91 0 139 -56q48 -55 34 -143q-13 -87 -80 -144q-65 -57 -156 -57q-92 0 -140 55q-46 55 -33 146q11 64 46 111l210 282q8 9 11 9zM515 193q12 79 -31 128.5t-125 49.5q-79 0 -141 -50q-61 -49 -73 -128q-13 -82 30 -132
t127 -50q82 0 141 50q59 51 72 132z" />
    <glyph glyph-name="seven.onum.tnum" horiz-adv-x="600" 
d="M543 423h-370q-8 0 -7 7l1 6q1 7 9 7h384q14 0 7 -15l-302 -558q-5 -9 -12 -9h-7q-8 0 -4 9z" />
    <glyph glyph-name="eight.onum.tnum" horiz-adv-x="600" 
d="M128 159q10 60 50.5 101.5t103.5 56.5q-40 15 -58 48t-11 77q11 71 60.5 112t121.5 41t108 -41t25 -112q-7 -45 -35.5 -77.5t-73.5 -47.5q57 -17 85 -59t19 -99q-12 -75 -74 -122q-61 -46 -150 -46t-136 46t-35 122zM148 162q-11 -69 31.5 -110.5t122.5 -41.5t135 42
t66 110q11 62 -33 103q-43 41 -121 41q-79 0 -135 -41q-55 -40 -66 -103zM232 441q-8 -52 25 -83.5t95 -31.5q63 0 105 31t50 84q10 62 -21.5 98t-93.5 36q-64 0 -107 -36t-53 -98z" />
    <glyph glyph-name="nine.onum.tnum" horiz-adv-x="600" 
d="M277 -149h-8q-11 0 -1 13l164 223q-58 -33 -124 -33q-91 0 -139 56q-48 55 -34 143q13 86 79 144q66 57 157 57q92 0 140 -55q47 -55 34 -146q-9 -61 -47 -111l-209 -282q-7 -9 -12 -9zM155 252q-13 -79 31 -129q43 -49 126 -49q78 0 139 50q60 48 74 128
q13 82 -29.5 132t-126.5 50q-82 0 -142 -51q-58 -49 -72 -131z" />
    </font>
</defs>
</svg>
