<?xml version="1.0" standalone="no"?>
<!DOCTYPE svg PUBLIC "-//W3C//DTD SVG 1.1//EN" "http://www.w3.org/Graphics/SVG/1.1/DTD/svg11.dtd" >
<svg xmlns="http://www.w3.org/2000/svg" xmlns:xlink="http://www.w3.org/1999/xlink" version="1.1">
<metadata>
Created by FontForge 20201107 at Mon Feb 25 03:00:00 2019
 By 
Copyright (c) 2019 by Eko Bimantara. All rights reserved.
</metadata>
<defs>
<font id="Ageo-Light" horiz-adv-x="545" >
  <font-face 
    font-family="Ageo Light"
    font-weight="300"
    font-stretch="normal"
    units-per-em="1000"
    panose-1="2 0 0 0 0 0 0 0 0 0"
    ascent="755"
    descent="-245"
    x-height="443"
    cap-height="694"
    bbox="-84.3333 -250 1070 914.125"
    underline-thickness="50"
    underline-position="-225"
    unicode-range="U+000D-FB04"
  />
<missing-glyph horiz-adv-x="0" 
 />
    <glyph glyph-name="f_f" unicode="ff" horiz-adv-x="596" 
d="M578 434v-20q0 -9 -9 -9h-125v-396q0 -9 -9 -9h-24q-8 0 -8 9l-1 396h-257v-396q0 -9 -9 -9h-24q-8 0 -8 9l-1 396h-88q-9 0 -9 9v20q0 9 9 9h88v127q-1 78 29 120.5t88 42.5q46 0 99 -36q6 -6 2 -12l-14 -22q-5 -8 -12 -1q-37 30 -74 30q-76 0 -77 -127l1 -122h257v127
q-1 78 29 120.5t88 42.5q47 0 99 -36q6 -6 2 -12l-14 -22q-5 -8 -12 -1q-38 30 -74 30q-76 0 -77 -127l1 -122h125q9 0 9 -9z" />
    <glyph glyph-name="fi" unicode="fi" horiz-adv-x="515" 
d="M424 616l-23 -19q-4 -4 -8 3q-44 92 -131 92q-58 0 -87.5 -30t-30.5 -97l1 -122h273q9 0 9 -8v-426q0 -9 -8 -9h-25q-8 0 -8 9v396h-241v-396q0 -9 -9 -9h-24q-8 0 -8 9l-1 396h-88q-9 0 -9 9v20q0 9 9 9h88v127q0 163 159 163q40 0 73 -14t51.5 -34.5t27 -34.5t12.5 -24
q3 -7 -2 -10z" />
    <glyph glyph-name="fl" unicode="fl" horiz-adv-x="515" 
d="M103 8l-1 397h-88q-8 0 -8 8v21q0 9 8 9h88v127q0 75 43 119t116 43q68 0 158 -32q7 -2 8 -13v-678q0 -10 -8 -10h-24q-9 0 -9 10l-1 655q-65 27 -122 27q-118 0 -119 -127v-121h127q8 0 8 -8v-22q0 -8 -8 -8h-127v-397q0 -8 -8 -8h-24q-9 0 -9 8z" />
    <glyph glyph-name="f_f_i" unicode="ffi" horiz-adv-x="813" 
d="M220 733q46 0 99 -36q6 -6 2 -12l-14 -22q-4 -6 -12 -1q-37 30 -74 30q-76 0 -77 -127l1 -122h256v127q-1 163 159 163q40 0 73 -14t51.5 -34.5t27 -34.5t12.5 -24q3 -7 -2 -10l-23 -19q-4 -4 -8 3q-44 92 -131 92q-58 0 -87.5 -30t-30.5 -97l1 -122h273q9 0 9 -9v-425
q0 -9 -8 -9h-25q-8 0 -8 9v396h-241v-396q0 -9 -9 -9h-24q-8 0 -8 9l-1 396h-256v-396q0 -9 -9 -9h-24q-8 0 -8 9l-1 396h-88q-9 0 -9 9v20q0 9 9 9h88v127q0 79 30 121t87 42z" />
    <glyph glyph-name="f_f_l" unicode="ffl" horiz-adv-x="813" 
d="M295 662q-37 30 -74 30q-76 0 -77 -127l1 -122h255v127q0 75 43 119t116 43q49 0 83 -10q7 -2 75 -22q8 -2 8 -13v-678q0 -10 -8 -10h-24q-9 0 -9 10l-1 655q-65 27 -122 27q-118 0 -119 -127v-121h126q9 0 9 -8v-22q0 -9 -9 -7h-126l1 -398q0 -8 -9 -8h-24q-9 0 -9 8
l-1 398l-255 -1v-396q0 -9 -9 -9h-24q-8 0 -8 9l-1 396h-88q-9 0 -9 9v20q0 9 9 9h88v127q0 79 30 121t87 42q46 0 99 -36q6 -6 2 -12l-14 -22q-4 -6 -12 -1z" />
    <glyph glyph-name=".notdef" horiz-adv-x="0" 
 />
    <glyph glyph-name=".null" horiz-adv-x="0" 
 />
    <glyph glyph-name="nonmarkingreturn" horiz-adv-x="333" 
 />
    <glyph glyph-name="NULL" horiz-adv-x="0" 
 />
    <glyph glyph-name="NULL" horiz-adv-x="0" 
 />
    <glyph glyph-name="CR.001" unicode="&#xd;" horiz-adv-x="0" 
 />
    <glyph glyph-name="space" unicode=" " horiz-adv-x="250" 
 />
    <glyph glyph-name="exclam" unicode="!" horiz-adv-x="252" 
d="M140 188h-27q-9 0 -9 9l-2 488q0 9 9 9h31q8 -2 8 -9l-2 -488q0 -9 -8 -9zM167 32q0 -19 -11 -30.5t-30 -11.5q-18 0 -29.5 11.5t-11.5 30.5q0 18 11.5 29t29.5 11q19 0 30 -11t11 -29z" />
    <glyph glyph-name="quotedbl" unicode="&#x22;" horiz-adv-x="381" 
d="M216 448l-10 12q-6 7 2 13q33 26 57 66t25 80l-8 -2q-27 -2 -38.5 21t0 46t38.5 21q30 0 41 -27q19 -55 -12 -128q-32 -73 -84 -104q-5 -4 -11 2zM137 619q-6 -2 -8 -2q-26 -3 -37 20.5t0 47t37 20.5q31 0 41 -27q19 -55 -12 -128q-32 -72 -83 -104q-7 -4 -12 2l-10 13
q-4 6 2 12q33 26 57 66t25 80z" />
    <glyph glyph-name="numbersign" unicode="#" horiz-adv-x="652" 
d="M41 224l8 22q2 6 13 8h102l47 177h-118q-9 0 -7 8l7 22q3 8 13 8h115l57 216q2 9 11 9h24q9 -1 7 -9l-57 -216h179l57 216q3 9 12 9h23q10 0 8 -9l-57 -216h119q10 0 7 -10l-7 -19q-4 -9 -12 -9h-118l-46 -177h131q11 0 7 -9l-7 -22q-3 -8 -13 -8h-129l-54 -205
q-1 -10 -11 -10h-25q-9 0 -6 10l54 205h-179l-55 -205q-1 -10 -10 -10h-26q-7 0 -6 10l55 205h-105q-11 0 -8 9zM206 254h179l47 177h-179z" />
    <glyph glyph-name="dollar" unicode="$" horiz-adv-x="560" 
d="M264 36v285q-112 29 -161 72.5t-51 118.5q-2 77 58 131q61 55 154 59v30q0 9 8 9h18q8 0 10 -9v-30q118 -5 182 -66q6 -5 3 -13l-13 -28q-4 -7 -11 -1q-67 58 -161 64v-295q115 -30 164 -70q50 -41 51 -108q2 -85 -54.5 -138t-160.5 -57v-93q0 -9 -10 -9h-17q-9 0 -9 9
v94q-136 6 -215 82q-7 6 -2 14l15 25q4 7 13 0q73 -69 189 -76zM300 312v-277q77 2 123 40t47 99q0 53 -38 83q-37 29 -132 55zM264 373v285q-72 -4 -120 -45q-47 -41 -47 -98q0 -55 37 -85t130 -57z" />
    <glyph glyph-name="percent" unicode="%" horiz-adv-x="776" 
d="M38 549q0 70 42 112t112 42q69 0 111 -42t42 -112q0 -69 -42 -111t-111 -42q-70 0 -112 42t-42 111zM191 440q50 0 80 30t30 79t-30.5 79.5t-79.5 30.5t-79 -30.5t-30 -79.5t30 -79t79 -30zM599 35q50 0 80 30t30 79q0 50 -31 80q-30 30 -79 30t-79 -31q-30 -30 -30 -79
t30 -79t79 -30zM600 298q69 0 111 -42.5t42 -111.5t-42 -111.5t-111 -42.5q-70 0 -112 42.5t-42 111.5t42 111.5t112 42.5zM184 11l397 704q3 7 10 7h30q11 0 5 -11l-397 -704q-4 -7 -11 -7h-31q-11 0 -3 11z" />
    <glyph glyph-name="ampersand" unicode="&#x26;" horiz-adv-x="679" 
d="M269 660q-54 0 -85.5 -32t-31.5 -89q-4 -27 32 -84q4 -6 13.5 -16.5t20 -21t12.5 -13.5l27 -24l24 -22l226 -211q53 89 55 222q0 9 9 9h28q9 0 9 -9q-3 -155 -66 -255l110 -104q11 -10 -4 -10h-33q-10 0 -18 7l-79 74q-79 -97 -204 -97q-122 0 -195 63q-74 63 -74 162
q0 68 36 115.5t103 68.5q-76 76 -76 149q0 75 45 118t122 43q103 0 140 -76q5 -9 -2 -13l-25 -17q-6 -5 -11 3q-35 60 -108 60zM484 112l-269 251q-57 -14 -91 -56t-34 -98q0 -80 61 -131q62 -50 162 -50q103 0 171 84z" />
    <glyph glyph-name="quotesingle" unicode="'" horiz-adv-x="229" 
d="M59 448l-10 12q-6 7 2 13q33 26 57 66t25 80q-6 -2 -8 -2q-27 -2 -38 21t0 46t38 21q31 0 41 -27q20 -56 -12 -128q-32 -73 -84 -104q-4 -4 -11 2z" />
    <glyph glyph-name="parenleft" unicode="(" horiz-adv-x="302" 
d="M185 685q5 9 15 9h26q10 0 5 -9q-26 -43 -66 -142q-50 -123 -50 -277q-2 -225 115 -418q5 -8 -4 -8h-28q-8 0 -13 9q-21 34 -42 76q-22 45 -47 142t-25 199q0 94 26 195q25 97 47 144q17 37 41 80z" />
    <glyph glyph-name="parenright" unicode=")" horiz-adv-x="302" 
d="M77 694h25q12 0 16 -9q24 -43 41 -80q22 -47 47 -144q26 -101 26 -195q0 -157 -49 -280q-38 -96 -65 -137q-4 -9 -13 -9h-28q-10 0 -5 8q32 49 66 138q52 121 50 280q0 154 -50 277q-40 99 -66 142q-4 9 5 9z" />
    <glyph glyph-name="asterisk" unicode="*" horiz-adv-x="462" 
d="M326 340l-94 123l-95 -123q-6 -7 -13 0l-20 18q-6 6 -2 13l96 112l-134 77q-10 3 -3 12l14 24q6 7 13 3l124 -79l-5 163q0 9 10 9h29q10 0 10 -9l-5 -163l124 79q7 5 12 -3l15 -24q4 -9 -3 -12l-135 -77l96 -112q4 -7 -1 -13l-20 -18q-8 -8 -13 0z" />
    <glyph glyph-name="plus" unicode="+" horiz-adv-x="549" 
d="M288 73h-27q-9 0 -9 9v189h-187q-9 0 -9 7v25q0 10 9 10h187v188q0 9 9 9h27q9 0 9 -9v-188h187q9 0 9 -9v-24q0 -9 -9 -9h-187v-189q0 -9 -9 -9z" />
    <glyph glyph-name="comma" unicode="," horiz-adv-x="243" 
d="M63 -153l-10 11q-5 6 2 13q33 26 57 66t25 80q-6 -2 -8 -2q-26 -3 -37.5 20.5t-0.5 47t38 20.5q31 0 41 -27q19 -55 -12 -127q-31 -73 -83 -105q-7 -4 -12 3z" />
    <glyph glyph-name="hyphen" unicode="-" horiz-adv-x="397" 
d="M56 281v25q0 9 8 9h268q9 0 9 -9v-25q0 -9 -9 -9h-268q-8 0 -8 9z" />
    <glyph glyph-name="period" unicode="." horiz-adv-x="263" 
d="M88 39q0 20 12 32.5t31 12.5q20 0 32 -12.5t12 -32.5q0 -19 -12 -31t-32 -12q-19 0 -31 12t-12 31z" />
    <glyph glyph-name="slash" unicode="/" horiz-adv-x="371" 
d="M11 9l304 704q5 9 13 9h26q9 0 6 -9l-304 -704q-3 -9 -12 -9h-28q-8 0 -5 9z" />
    <glyph glyph-name="zero" unicode="0" horiz-adv-x="597" 
d="M540 347q0 -161 -66 -259q-66 -97 -175 -97q-108 0 -176 98q-66 97 -66 258t66 258q68 98 176 98q109 0 175 -98q66 -97 66 -258zM299 35q88 0 142 86t54 226q0 141 -54 226q-54 86 -142 86q-89 0 -143 -86q-54 -85 -54 -226q0 -140 54 -226t143 -86z" />
    <glyph glyph-name="one" unicode="1" horiz-adv-x="312" 
d="M80 661v24q0 9 9 9h133q10 -1 10 -11l1 -674q0 -9 -9 -9h-28q-8 0 -8 9l-1 643h-98q-9 0 -9 9z" />
    <glyph glyph-name="two" unicode="2" horiz-adv-x="549" 
d="M442 391l-13 -17q-21 -21 -277 -332h331q9 0 9 -8v-26q0 -8 -9 -8h-364h-10h-32q-15 0 -6 12l325 396q41 52 41 108q0 65 -39 104.5t-103 39.5q-94 0 -153 -77q-6 -7 -12 0l-18 20q-6 8 0 14q72 86 183 86q84 0 135 -52q52 -51 51 -135q0 -34 -12 -69.5t-27 -55.5z" />
    <glyph glyph-name="three" unicode="3" 
d="M227 379h52q65 -1 104 37t39 100q0 65 -39 104.5t-103 39.5q-89 0 -153 -76q-6 -8 -12 -1l-19 20q-5 7 1 14q72 86 183 86q84 0 135 -51.5t51 -135.5q0 -114 -93 -154q55 -19 85 -62t30 -105q0 -93 -60 -152q-59 -59 -156 -59q-94 0 -152.5 53t-62.5 140q0 9 9 9h28
q8 0 8 -9q5 -67 51.5 -108t118.5 -41q76 0 123 47q48 47 48 120q0 63 -41.5 104t-108.5 43l-66 -1q-9 0 -9 9v21q0 8 9 8z" />
    <glyph glyph-name="four" unicode="4" horiz-adv-x="612" 
d="M460 198h86q9 0 9 -8v-26q0 -8 -9 -8h-86v-147q0 -9 -9 -9h-28q-8 0 -8 9v147h-314h-5h-29q-7 0 -9 4t2 9l336 516q4 9 15 9l39 -1q4 1 7 -2t3 -8v-485zM415 198v439l-288 -439h288z" />
    <glyph glyph-name="five" unicode="5" 
d="M432 652h-277l-20 -280q61 52 131 52q99 0 160 -61q62 -62 62 -158q0 -97 -60 -159q-59 -62 -156 -62q-94 0 -152.5 53t-62.5 140q0 9 8 9h29q8 0 9 -9q4 -68 50 -108.5t119 -40.5q78 0 124 49q47 50 47 128q0 77 -49 126t-129 49q-72 0 -134 -65h-32q-10 0 -10 10
l25 358q2 11 12 11h306q9 0 9 -9v-23q0 -10 -9 -10z" />
    <glyph glyph-name="six" unicode="6" horiz-adv-x="539" 
d="M482 201q0 -96 -58 -154t-154 -58t-154 58q-59 59 -59 154q0 50 16 89l182 396q5 8 12 8h30q11 0 5 -14l-137 -297q46 28 105 28q96 0 154 -57t58 -153zM439 201q0 76 -46.5 123t-122.5 47q-75 0 -123 -48q-47 -47 -47 -122q0 -76 46.5 -122.5t123.5 -46.5q75 0 122 47
t47 122z" />
    <glyph glyph-name="seven" unicode="7" horiz-adv-x="483" 
d="M38 694h405q13 0 9 -15l-253 -670q-3 -9 -12 -9h-33q-8 0 -5 9l244 643h-355q-9 0 -9 9v24q0 9 9 9z" />
    <glyph glyph-name="eight" unicode="8" horiz-adv-x="561" 
d="M280 703q84 0 135.5 -50t51.5 -132q0 -51 -25 -90.5t-70 -59.5q61 -21 96 -67.5t36 -109.5q0 -92 -62 -148t-162 -56t-162 56q-61 55 -61 148q0 63 35 109.5t97 67.5q-45 20 -70 59.5t-25 90.5q0 83 51 132q53 50 135 50zM459 195q0 68 -50 112t-128 44q-79 0 -129 -44
t-50 -112q0 -72 49.5 -116.5t129.5 -44.5t129 44.5t49 116.5zM138 521q0 -58 40 -96t103 -38t102.5 38t39.5 96q0 63 -39 101t-103 38q-65 0 -104 -38t-39 -101z" />
    <glyph glyph-name="nine" unicode="9" horiz-adv-x="539" 
d="M456 381l-173 -373q-5 -8 -13 -8h-29q-13 0 -6 13l138 295q-45 -27 -104 -27q-95 0 -154 57q-58 58 -58 153t58 153q59 59 154 59t154 -59t59 -153q0 -50 -26 -110zM269 661q-75 0 -121.5 -47t-46.5 -122q0 -78 46 -124t122 -46t123 47t47 123t-47 122.5t-123 46.5z" />
    <glyph glyph-name="colon" unicode=":" horiz-adv-x="238" 
d="M72 441q-3 28 22 39.5t50 0t22 -39.5q3 -29 -22 -41t-50 0t-22 41zM72 37q-3 28 22 40t50 0t22 -40q3 -28 -22 -40t-50 0t-22 40z" />
    <glyph glyph-name="semicolon" unicode=";" horiz-adv-x="255" 
d="M83 441q-3 28 22 39.5t49.5 0t21.5 -39.5q0 -21 -12.5 -34t-33.5 -13t-34 13t-13 34zM67 -153l-10 11q-5 6 2 13q33 26 57 66t25 80q-6 -2 -8 -2q-26 -3 -37.5 20.5t-0.5 47t38 20.5q31 0 41 -27q19 -55 -12 -127q-31 -73 -83 -105q-7 -4 -12 3z" />
    <glyph glyph-name="less" unicode="&#x3c;" horiz-adv-x="539" 
d="M38 282v37q0 9 9 13l444 207q10 4 10 -5v-31q0 -9 -10 -13l-418 -190l418 -194q10 -4 10 -13v-31q0 -9 -10 -5l-444 212q-9 5 -9 13z" />
    <glyph glyph-name="equal" unicode="=" horiz-adv-x="524" 
d="M439 364h-354q-9 0 -9 8v26q0 9 9 9h354q9 0 9 -9v-26q0 -8 -9 -8zM439 206h-354q-9 0 -9 9v26q0 8 9 8h354q9 0 9 -8v-26q0 -9 -9 -9z" />
    <glyph glyph-name="greater" unicode="&#x3e;" horiz-adv-x="539" 
d="M47 106l418 194l-418 190q-9 4 -9 13v31q0 10 9 5l444 -207q10 -4 10 -13v-37q0 -10 -10 -13l-444 -212q-9 -5 -9 5v31q0 9 9 13z" />
    <glyph glyph-name="question" unicode="?" horiz-adv-x="503" 
d="M389 516q0 64 -39.5 104t-102.5 40q-93 0 -154 -76q-6 -8 -11 -1l-19 19q-7 7 -1 14q72 87 184 87q84 0 136 -52q53 -51 53 -135q0 -94 -63 -153q-8 -8 -30.5 -28t-33.5 -31.5t-26 -30t-22.5 -38t-8.5 -41.5q0 -9 -8 -9h-31q-10 0 -8 9q4 80 68 135q2 2 20 17t21.5 18.5
l18.5 18.5t19.5 22t14.5 22t13.5 27t6.5 28.5t3 33.5zM261 62q11 -11 11 -30t-11 -31q-11 -11 -30 -11t-31 11q-11 12 -11 31t11 30q12 11 31 11t30 -11z" />
    <glyph glyph-name="at" unicode="@" horiz-adv-x="906" 
d="M849 333q0 -86 -43 -141q-42 -56 -111 -57q-79 0 -108 72q-42 -92 -150 -92q-79 0 -129 53q-48 53 -50 140q0 87 49 139q50 53 130 53q97 0 142 -77l6 52q1 6 7 6h21q6 0 6 -6v-204q-1 -45 20 -70.5t60 -25.5q49 0 79 43.5t30 114.5q0 145 -94 236t-241 91
q-167 0 -270 -97q-103 -96 -103 -253t103 -254q103 -96 270 -96q138 0 225 87q8 7 14 1l19 -21q6 -6 -1 -13q-100 -97 -257 -97q-187 0 -302 108q-114 108 -114 284q0 177 114 285q115 109 302 109q167 0 271 -102q105 -102 105 -268zM442 158q62 0 97.5 42t35.5 109
q0 66 -36 107t-97 41q-64 0 -102.5 -41t-38.5 -109q-1 -67 38 -108t103 -41z" />
    <glyph glyph-name="A" unicode="A" horiz-adv-x="645" 
d="M587 6l-95 228h-340l-94 -227q-4 -7 -9 -7h-31q-11 0 -6 11l281 673q5 9 12 9h34q9 0 12 -9l281 -673q3 -5 2 -8.5t-7 -2.5h-31q-6 0 -9 6zM475 275l-153 367l-153 -367h306z" />
    <glyph glyph-name="B" unicode="B" horiz-adv-x="601" 
d="M334 361l-196 -1v-319l187 1q84 0 134.5 44t50.5 116q-2 68 -49 113q-47 46 -127 46zM301 396q77 0 121.5 37t44.5 96q0 57 -47.5 90t-130.5 33h-151v-257q137 0 163 1zM104 694h185q102 0 162 -44t61 -120q2 -103 -112 -146q73 -18 113.5 -65.5t41.5 -116.5
q2 -92 -61 -147q-61 -55 -165 -55h-226q-10 0 -10 10v673q0 11 11 11z" />
    <glyph glyph-name="C" unicode="C" horiz-adv-x="693" 
d="M650 82q-97 -92 -250 -92q-158 0 -256 99q-98 100 -98 257q0 164 101 260q101 97 253 97q150 0 249 -93q6 -6 0 -13l-19 -17q-6 -6 -13 0q-88 79 -217 79q-137 0 -223 -86q-85 -85 -85 -227q0 -140 84 -226q84 -84 224 -86q127 1 218 79q6 6 12 0l21 -18q6 -6 -1 -13z
" />
    <glyph glyph-name="D" unicode="D" horiz-adv-x="683" 
d="M281 652l-143 1v-611h143q140 0 226 83q85 82 85 222q-2 140 -86 222q-85 83 -225 83zM281 0h-178q-10 0 -10 10v674q0 10 10 10h178q160 0 258 -95q97 -94 97 -252q2 -158 -97 -253q-97 -94 -258 -94z" />
    <glyph glyph-name="E" unicode="E" horiz-adv-x="521" 
d="M417 333h-279v-291h336q9 0 9 -8v-26q0 -8 -9 -8h-371q-10 0 -10 10v674q0 10 10 10h361q9 0 9 -9v-25q0 -8 -8 -8h-327v-277h279q9 0 9 -8v-26q0 -8 -9 -8z" />
    <glyph glyph-name="F" unicode="F" horiz-adv-x="502" 
d="M417 333h-279v-323q0 -10 -9 -10h-27q-9 0 -9 10v673q0 11 11 11h361q9 0 9 -9v-24q0 -9 -10 -9h-326v-277h279q9 0 9 -9v-24q0 -9 -9 -9z" />
    <glyph glyph-name="G" unicode="G" horiz-adv-x="758" 
d="M668 311h-256q-9 0 -9 9v24q0 9 9 9h290q10 0 9 -9q-2 -170 -85.5 -262t-236.5 -91q-154 0 -249 98q-94 97 -94 258q0 160 98 258q100 98 259 98q145 0 246 -92q7 -7 1 -12l-20 -19q-6 -6 -13 0q-85 79 -214 79q-140 0 -226 -86q-87 -87 -85 -226q0 -141 81 -226
q83 -86 216 -86q126 0 198 71.5t81 204.5z" />
    <glyph glyph-name="H" unicode="H" horiz-adv-x="674" 
d="M129 0h-27q-9 0 -9 9v676q0 9 9 9h28q8 0 8 -9v-310h398v310q0 9 9 9h28q8 0 8 -9v-676q0 -9 -9 -9h-28q-8 0 -8 9v324h-398v-324q0 -9 -9 -9z" />
    <glyph glyph-name="I" unicode="I" horiz-adv-x="231" 
d="M138 685v-677q0 -8 -9 -8h-27q-9 0 -9 8v677q0 9 9 9h27q9 0 9 -9z" />
    <glyph glyph-name="J" unicode="J" horiz-adv-x="390" 
d="M253 156l-1 529q0 9 9 9h27q9 0 9 -9l1 -530q1 -76 -38 -120t-107 -45q-71 2 -134 57q-5 3 -2 12l14 23q5 8 13 2q63 -48 111 -50q95 2 98 122z" />
    <glyph glyph-name="K" unicode="K" horiz-adv-x="548" 
d="M138 685v-330l313 333q7 6 12 6h38q15 0 4 -11l-318 -336l348 -336q11 -11 -4 -11h-41q-8 0 -13 5l-339 334v-331q0 -8 -9 -8h-27q-9 0 -9 8v677q0 9 9 9h27q9 0 9 -9z" />
    <glyph glyph-name="L" unicode="L" horiz-adv-x="451" 
d="M138 685v-643h275q9 0 9 -9v-25q0 -8 -9 -8h-311q-9 0 -9 9v676q0 9 9 9h27q9 0 9 -9z" />
    <glyph glyph-name="M" unicode="M" horiz-adv-x="864" 
d="M104 694h29q6 0 11 -8l286 -538l290 539q4 7 11 7h31q9 0 9 -10v-675q0 -9 -9 -9h-27q-9 0 -9 10v594l-270 -492q-5 -7 -10 -8h-31q-7 0 -11 7l-266 492v-593q0 -10 -9 -10h-25q-11 0 -11 12v670q0 12 11 12z" />
    <glyph glyph-name="N" unicode="N" horiz-adv-x="725" 
d="M596 694h28q8 0 8 -9v-675q0 -10 -10 -10h-37q-7 0 -12 6l-435 620v-617q0 -9 -9 -9h-27q-9 0 -9 9v675q0 10 10 10h36q8 0 12 -7l436 -622v620q0 9 9 9z" />
    <glyph glyph-name="O" unicode="O" horiz-adv-x="805" 
d="M758 347q0 -161 -98 -259q-97 -97 -257 -97q-161 0 -259 98t-98 258t98 258q100 98 259 98t257 -98t98 -258zM92 347q0 -141 85 -226q86 -86 226 -86q138 0 224 86t86 226t-86 226t-224 86q-140 0 -226 -86q-87 -87 -85 -226z" />
    <glyph glyph-name="P" unicode="P" horiz-adv-x="563" 
d="M310 299h-171l-1 -290q0 -9 -9 -9h-27q-9 0 -9 9v674q0 11 10 11h207q102 0 162 -53t61 -144q-1 -91 -61 -144.5t-162 -53.5zM139 652v-311h173q82 0 128.5 41.5t46.5 113.5t-47 114.5t-128 41.5h-173z" />
    <glyph glyph-name="Q" unicode="Q" horiz-adv-x="805" 
d="M548 16l190 -107q8 -5 3 -12l-16 -25q-5 -8 -13 -1l-219 129q-42 -9 -90 -9q-161 0 -259 98t-98 258t98 258q100 98 259 98t257 -98t98 -258q0 -119 -55.5 -206t-154.5 -125zM403 659q-140 0 -226 -86q-85 -85 -85 -226t85 -226q86 -86 226 -86q138 0 224 86t86 226
t-86 226t-224 86z" />
    <glyph glyph-name="R" unicode="R" horiz-adv-x="561" 
d="M458 5l-184 294h-135v-290q0 -9 -9 -9h-28q-9 0 -9 9v675q0 10 10 10h196q103 0 163 -53t61 -144q-1 -86 -54.5 -138.5t-144.5 -58.5l186 -289q8 -11 -5 -11h-38q-6 0 -9 5zM301 652h-162v-311h162q83 0 129.5 41.5t46.5 113.5t-47.5 114.5t-128.5 41.5z" />
    <glyph glyph-name="S" unicode="S" horiz-adv-x="565" 
d="M52 74q-7 6 -3 13l15 24q5 9 14 0q81 -75 214 -77q82 0 131 38.5t49 101.5q0 57 -44 87q-41 30 -158 59q-116 28 -165 72q-48 43 -50 120q-1 82 64 137q66 55 168 54q127 -1 197 -67q7 -4 4 -13l-13 -27q-5 -8 -13 -1q-74 63 -180 63q-77 0 -130 -41q-52 -40 -52 -102
q-1 -59 43 -91q44 -30 161 -61q114 -30 162.5 -70t50.5 -108q3 -89 -57.5 -142.5t-173.5 -52.5q-152 2 -234 84z" />
    <glyph glyph-name="T" unicode="T" horiz-adv-x="533" 
d="M244 8v644h-226q-9 0 -9 9v24q0 9 9 9h497q9 0 9 -9v-24q0 -9 -9 -9h-226v-644q0 -8 -8 -8h-28q-9 0 -9 8z" />
    <glyph glyph-name="U" unicode="U" horiz-adv-x="680" 
d="M93 272v412q0 9 9 9h27q9 0 9 -9v-413q0 -110 54.5 -173t148.5 -63q92 0 146 62.5t54 173.5v414q0 8 9 8h28q9 0 9 -8v-414q0 -132 -67 -206q-68 -74 -179 -74q-113 -2 -181 74q-67 74 -67 207z" />
    <glyph glyph-name="V" unicode="V" horiz-adv-x="627" 
d="M285 9l-272 672q-5 12 6 12h34q7 0 10 -7l251 -632l250 632q4 7 10 7h34q10 0 5 -12l-272 -672q-3 -9 -12 -9h-32q-7 0 -12 9z" />
    <glyph glyph-name="W" unicode="W" horiz-adv-x="853" 
d="M594 8l-168 622l-168 -622q-2 -8 -10 -8h-27q-9 0 -12 8l-196 675q-3 11 6 11h30q9 0 10 -7l174 -614l167 613q2 8 10 8h32q8 0 10 -8l168 -615l174 616q1 7 9 7h31q9 0 6 -11l-196 -675q-3 -8 -12 -8h-26q-9 0 -12 8z" />
    <glyph glyph-name="X" unicode="X" horiz-adv-x="563" 
d="M55 0h-35q-12 0 -6 10l238 335l-230 339q-7 10 5 10h38q7 0 12 -6l202 -304l216 303q3 6 12 6h35q13 0 7 -9l-244 -339l230 -336q6 -9 -6 -9h-38q-7 0 -11 6l-202 301l-210 -301q-5 -6 -13 -6z" />
    <glyph glyph-name="Y" unicode="Y" 
d="M248 8v271l-234 404q-6 10 7 10h33q8 0 13 -8l204 -362l208 362q5 8 13 8h34q10 0 4 -11l-237 -402v-272q0 -8 -9 -8h-27q-9 0 -9 8z" />
    <glyph glyph-name="Z" unicode="Z" horiz-adv-x="560" 
d="M517 677l-416 -635h422q8 0 8 -9v-24q0 -9 -8 -9h-484q-19 0 -9 16l416 635h-399q-9 0 -9 9v25q0 8 9 8h461q19 0 9 -16z" />
    <glyph glyph-name="bracketleft" unicode="[" horiz-adv-x="332" 
d="M119 654v-776h147q9 0 9 -9v-22q0 -9 -9 -9l-180 1q-10 0 -10 9v836q0 10 10 10h180q9 0 9 -8v-23q0 -9 -9 -9h-147z" />
    <glyph glyph-name="backslash" unicode="\" horiz-adv-x="367" 
d="M18 722h28q6 0 9 -7l304 -703q5 -12 -5 -12h-28q-8 0 -9 7l-305 704q-5 11 6 11z" />
    <glyph glyph-name="bracketright" unicode="]" horiz-adv-x="332" 
d="M66 -121h147v775h-147q-9 0 -9 9v23q0 8 9 8h180q10 0 10 -10v-836q0 -9 -10 -9h-180q-9 0 -9 8v23q0 9 9 9z" />
    <glyph glyph-name="asciicircum" unicode="^" horiz-adv-x="571" 
d="M61 270l191 414q4 9 14 9h38q10 0 14 -9l192 -414q5 -11 -6 -11h-31q-7 0 -10 7l-178 390l-178 -390q-3 -7 -10 -7h-30q-12 0 -6 11z" />
    <glyph glyph-name="underscore" unicode="_" horiz-adv-x="581" 
d="M66 -96h449q9 0 9 -8v-22q0 -8 -9 -8h-449q-9 0 -9 9v20q0 9 9 9z" />
    <glyph glyph-name="grave" unicode="`" horiz-adv-x="263" 
d="M196 557l-152 110q-7 4 -2 11l23 30q7 6 13 0l143 -126q4 -4 0 -10l-14 -14q-4 -5 -11 -1z" />
    <glyph glyph-name="a" unicode="a" horiz-adv-x="577" 
d="M461 338l6 97q1 9 9 9h18q8 0 8 -9v-427q0 -8 -9 -8h-17q-9 0 -9 8l-6 97q-26 -54 -77 -84.5t-119 -30.5q-102 0 -165 64q-62 65 -62 168t62 167q63 64 165 64q68 0 119 -30.5t77 -84.5zM79 222q0 -87 52 -139t137 -52q87 0 139 52t54 139q-1 86 -54 138q-52 52 -139 52
q-85 0 -137 -52.5t-52 -137.5z" />
    <glyph glyph-name="b" unicode="b" horiz-adv-x="582" 
d="M105 0h-16q-9 0 -9 8v705q0 9 8 9h25q8 0 8 -9v-375q26 55 77 85t120 30q102 0 163 -64q63 -65 63 -167q0 -104 -63 -168q-61 -64 -163 -64q-68 0 -119.5 30.5t-77.5 85.5l-6 -98q-2 -8 -10 -8zM121 223q0 -86 53 -139q55 -53 140 -53q84 0 137 53t53 138q0 86 -52 138
t-138 52q-87 0 -140 -52q-53 -53 -53 -137z" />
    <glyph glyph-name="c" unicode="c" horiz-adv-x="498" 
d="M460 85q-63 -95 -192 -95q-103 0 -167 64q-63 64 -63 168q0 109 68 171q68 61 163 61q59 0 110 -25t81 -71q5 -8 -1 -13l-18 -16q-7 -6 -13 3q-56 81 -160 81q-84 0 -137 -53q-52 -52 -52 -138q0 -87 52 -139t137 -52q53 0 94.5 22t65.5 59q6 9 12 3l20 -17q5 -5 0 -13z
" />
    <glyph glyph-name="d" unicode="d" horiz-adv-x="582" 
d="M265 -10q-102 0 -165 64q-62 65 -62 168t62 167q63 64 165 64q68 0 119 -30t77 -84v374q0 9 8 9h25q8 0 8 -9v-705q0 -8 -8 -8h-17q-7 0 -9 8l-7 97q-26 -54 -77 -84.5t-119 -30.5zM461 223q0 84 -54 137q-52 52 -139 52q-85 0 -137 -52.5t-52 -137.5q0 -87 52 -139
t137 -52q86 0 139 53q54 52 54 139z" />
    <glyph glyph-name="e" unicode="e" horiz-adv-x="537" 
d="M80 241h377q-6 78 -57 124.5t-132 46.5q-80 0 -131 -46.5t-57 -124.5zM489 203h-409q6 -78 60.5 -125t138.5 -47q96 0 148 58q8 8 14 2l19 -18q6 -5 -1 -12q-65 -71 -180 -71q-108 0 -175 64q-66 64 -66 168q0 102 63 167q64 64 167 64q106 0 168 -65q63 -64 63 -175
q0 -10 -10 -10z" />
    <glyph glyph-name="f" unicode="f" horiz-adv-x="298" 
d="M270 405h-125v-396q0 -9 -9 -9h-24q-8 0 -8 9l-1 396h-88q-9 0 -9 9v20q0 9 9 9h88v127q-1 78 29 120.5t88 42.5q46 0 99 -36q6 -6 2 -12l-14 -22q-3 -7 -12 -1q-37 30 -74 30q-76 0 -77 -127l1 -122h125q9 0 9 -9v-20q0 -9 -9 -9z" />
    <glyph glyph-name="g" unicode="g" horiz-adv-x="577" 
d="M265 453q70 0 121 -31t76 -87l7 100q2 8 9 8h17q8 0 8 -8l1 -441q1 -103 -63 -167q-63 -64 -162 -64q-99 2 -184 50q-6 5 -3 12l13 23q4 6 11 2q74 -43 163 -46q82 0 132.5 50.5t51.5 134.5v120q-56 -119 -198 -119q-102 0 -165 64q-62 65 -62 168q0 102 62 167
q63 64 165 64zM79 222q0 -87 52 -139t137 -52q85 -1 140 52q54 53 54 139q0 84 -54 137q-55 53 -140 53t-137 -52.5t-52 -137.5z" />
    <glyph glyph-name="h" unicode="h" horiz-adv-x="544" 
d="M80 8v705q0 9 8 9h25q8 0 8 -9v-377q43 117 168 117q85 0 131 -50t46 -148v-246q0 -9 -7 -9h-26q-8 0 -8 9v247q0 77 -36 116.5t-104 39.5q-69 0 -114 -53q-46 -53 -50 -132l1 -219q0 -8 -8 -8h-26q-8 0 -8 8z" />
    <glyph glyph-name="i" unicode="i" horiz-adv-x="207" 
d="M124 435v-427q0 -8 -8 -8h-25q-8 0 -8 8v427q0 8 8 8h25q8 0 8 -8zM73 582q-11 12 -11 31t11 30q12 11 31 11t30 -11t11 -30t-11 -31q-11 -11 -30 -11t-31 11z" />
    <glyph glyph-name="j" unicode="j" horiz-adv-x="236" 
d="M100 582q-11 12 -11 31t11 30q12 11 31 11t30 -11q12 -11 12 -30t-12 -31q-11 -11 -30 -11t-31 11zM113 -71v505q0 9 8 9h25q8 0 8 -9l1 -509q0 -78 -30 -120.5t-88 -42.5q-58 2 -102 31q-8 5 -3 13l13 21q3 6 14 1q37 -25 76 -25q78 0 78 126z" />
    <glyph glyph-name="k" unicode="k" horiz-adv-x="431" 
d="M343 443h39q18 0 4 -11l-219 -194l251 -228q11 -10 -5 -10h-39q-8 0 -13 5l-240 220v-217q0 -8 -8 -8h-25q-8 0 -8 8v706q0 8 9 8h23q9 0 9 -8v-467l209 191q8 5 13 5z" />
    <glyph glyph-name="l" unicode="l" horiz-adv-x="207" 
d="M124 714v-706q0 -8 -8 -8h-25q-8 0 -8 8v706q0 8 8 8h25q8 0 8 -8z" />
    <glyph glyph-name="m" unicode="m" horiz-adv-x="827" 
d="M89 443h16q8 0 10 -8l6 -97q40 115 151 115q126 0 153 -124q44 124 160 124q77 0 119.5 -50t42.5 -148v-246q0 -9 -7 -9h-25q-9 0 -9 9v247q0 156 -125 156q-65 0 -105 -55t-42 -141v-207q0 -9 -8 -9h-25q-8 0 -8 9v247q0 156 -125 156q-62 0 -103 -53q-39 -51 -44 -133
l1 -217q0 -9 -9 -9h-24q-9 0 -9 9v425q0 9 9 9z" />
    <glyph glyph-name="n" unicode="n" horiz-adv-x="544" 
d="M80 8v427q0 8 8 8h18q7 0 9 -8l6 -101q44 119 168 119q85 0 131 -50t46 -148v-246q0 -9 -8 -9h-25q-8 0 -8 9v247q0 77 -36 116.5t-104 39.5q-69 0 -114 -53t-50 -133l1 -218q0 -8 -8 -8h-25q-9 0 -9 8z" />
    <glyph glyph-name="o" unicode="o" horiz-adv-x="537" 
d="M38 222q0 102 63 167q64 64 167 64q104 0 167 -64q64 -63 64 -167t-64 -168t-167 -64t-167 64q-63 64 -63 168zM79 222q0 -87 52 -139t137 -52t137 52q53 53 53 139t-52 138t-138 52q-85 0 -137 -52.5t-52 -137.5z" />
    <glyph glyph-name="p" unicode="p" horiz-adv-x="582" 
d="M113 -228h-24q-9 0 -9 9v653q0 9 9 9h16q9 0 10 -9l6 -98q27 55 78 86t119 31q103 0 164 -64q63 -65 63 -167q0 -104 -63 -168q-61 -64 -164 -64q-68 0 -119 31t-78 86v-326q0 -9 -8 -9zM315 31q85 0 137 52q54 53 52 139q0 85 -52 137.5t-137 52.5q-86 0 -141 -53
q-53 -53 -53 -137q0 -86 54 -138q55 -53 140 -53z" />
    <glyph glyph-name="q" unicode="q" horiz-adv-x="583" 
d="M503 434v-653q0 -9 -9 -9h-24q-8 0 -8 9v326q-27 -55 -78 -86t-119 -31q-102 0 -165 64q-62 65 -62 168q0 102 62 167q63 64 165 64q68 0 119 -31t78 -86l6 98q2 9 10 9h16q9 0 9 -9zM78 222q0 -86 52 -138.5t138 -52.5q88 0 140 52q54 53 54 139q0 84 -54 137
q-55 53 -140 53t-138 -53q-52 -52 -52 -137z" />
    <glyph glyph-name="r" unicode="r" horiz-adv-x="349" 
d="M311 399q-33 12 -68 12q-39 0 -72 -27.5t-50 -75.5v-300q0 -8 -7 -8h-26q-8 0 -8 8v427q0 8 8 8h18q7 0 9 -8l3 -63q22 36 56.5 57.5t75.5 22.5q34 0 73 -12q9 -2 6 -10l-9 -27q-1 -7 -9 -4z" />
    <glyph glyph-name="s" unicode="s" horiz-adv-x="408" 
d="M43 40q-6 4 -3 12l12 21q3 7 11 2q62 -44 139 -44q55 0 90 23.5t35 58.5t-28 53.5t-104 38.5q-79 21 -113 47q-32 25 -34 75q-2 56 43 92t118 35q75 0 131 -42q6 -3 3 -12l-10 -21q-3 -8 -11 -3q-56 38 -117 38q-52 0 -84 -22.5t-32 -58.5q0 -37 27 -54t103 -36
q82 -23 115 -49.5t34 -75.5q2 -57 -45 -93q-48 -35 -124 -34q-98 0 -156 49z" />
    <glyph glyph-name="t" unicode="t" horiz-adv-x="331" 
d="M158 405v-246q1 -69 17.5 -98t50.5 -30q28 0 59 28q5 5 11 0l16 -22q4 -7 -3 -12q-40 -34 -87 -34q-52 0 -79 42t-26 120v252h-88q-9 0 -9 9v21q0 8 9 8h88l1 155q0 9 8 9h24q9 0 9 -9l-1 -155h127q9 0 9 -8v-21q0 -9 -9 -9h-127z" />
    <glyph glyph-name="u" unicode="u" 
d="M431 8l-6 101q-44 -119 -168 -119q-85 0 -131.5 50t-46.5 148v246q0 9 8 9h25q8 0 8 -9v-247q0 -77 36 -116.5t104 -39.5q69 0 114 53q45 51 50 133v218q0 8 8 8h25q8 0 8 -8v-427q0 -8 -8 -8h-17q-9 0 -9 8z" />
    <glyph glyph-name="v" unicode="v" horiz-adv-x="463" 
d="M449 432l-190 -423q-3 -9 -12 -9h-30q-9 0 -13 9l-190 423q-5 11 6 11h32q6 0 10 -7l170 -392l170 392q1 7 10 7h31q11 0 6 -11z" />
    <glyph glyph-name="w" unicode="w" horiz-adv-x="643" 
d="M61 435l119 -390l117 390q3 8 10 8h29q7 0 10 -8l117 -390l120 390q3 8 10 8h31q8 0 5 -10l-138 -425q-3 -8 -13 -8h-30q-10 0 -12 8l-114 379l-114 -379q-3 -8 -13 -8h-30q-9 0 -12 8l-139 425q-3 10 5 10h32q7 0 10 -8z" />
    <glyph glyph-name="x" unicode="x" horiz-adv-x="426" 
d="M209 187l-132 -180q-6 -7 -14 -7h-34q-13 0 -5 11l160 208l-161 214q-7 10 5 10h36q8 0 12 -7l135 -182l138 181q6 8 15 8h34q12 0 4 -11l-167 -210l162 -212q7 -10 -4 -10h-36q-9 0 -13 6z" />
    <glyph glyph-name="y" unicode="y" horiz-adv-x="443" 
d="M391 443h29q12 0 6 -13l-271 -649q-5 -9 -12 -9h-25q-12 0 -5 13l90 220l-186 425q-7 13 6 13h29q6 0 11 -9l160 -379l157 379q4 9 11 9z" />
    <glyph glyph-name="z" unicode="z" horiz-adv-x="451" 
d="M395 0h-335q-19 0 -9 16l281 389h-266q-8 0 -8 8v22q0 8 8 8h322q20 0 8 -17l-281 -388h280q8 0 8 -8v-22q0 -8 -8 -8z" />
    <glyph glyph-name="braceleft" unicode="{" horiz-adv-x="361" 
d="M83 287q30 2 49.5 31t19.5 77v164q0 134 100 134h43q9 0 9 -8v-24q0 -9 -9 -9h-41q-59 0 -59 -93v-160q0 -99 -65 -134q65 -35 65 -133v-160q-1 -94 59 -94h41q9 0 9 -8v-24q0 -9 -9 -9h-43q-100 0 -100 135v163q0 48 -19.5 77t-49.5 31q-7 1 -7 9v28q0 7 7 7z" />
    <glyph glyph-name="bar" unicode="|" horiz-adv-x="216" 
d="M129 713v-932q0 -9 -8 -9h-25q-9 0 -9 9v932q0 9 9 9h25q8 0 8 -9z" />
    <glyph glyph-name="braceright" unicode="}" horiz-adv-x="361" 
d="M107 652h-41q-9 0 -9 9v24q0 8 9 8h43q100 0 100 -134v-164q0 -48 19.5 -77t49.5 -31q7 0 7 -8v-28q0 -7 -7 -8q-30 -2 -49.5 -31t-19.5 -77v-163q0 -135 -100 -135h-43q-9 0 -9 9v24q0 8 9 8h41q59 2 59 94v160q0 98 65 133q-65 35 -65 134v160q0 93 -59 93z" />
    <glyph glyph-name="asciitilde" unicode="~" horiz-adv-x="553" 
d="M73 180q-3 -14 -13 -4l-17 18q-5 5 -2 13q20 55 55.5 85.5t79.5 30.5q38 0 67.5 -17t44.5 -36.5t39.5 -35.5t53.5 -15q63 2 99 92q5 12 13 4l17 -19q4 -4 3 -12q-19 -54 -54.5 -84t-81.5 -30q-37 0 -66 17t-45 36.5t-40.5 35.5t-53.5 15q-65 -2 -99 -94z" />
    <glyph glyph-name="uni00A0" unicode="&#xa0;" horiz-adv-x="313" 
 />
    <glyph glyph-name="exclamdown" unicode="&#xa1;" horiz-adv-x="250" 
d="M112 505h27q8 0 8 -9l2 -487q0 -9 -8 -9h-31q-9 0 -9 9l2 487q0 9 9 9zM84 662q0 18 11.5 29.5t29.5 11.5q19 0 30 -11.5t11 -29.5q0 -19 -11 -30t-30 -11q-18 0 -29.5 11t-11.5 30z" />
    <glyph glyph-name="cent" unicode="&#xa2;" horiz-adv-x="498" 
d="M313 408l-70 -376q5 -1 25 -1q53 0 94.5 22t65.5 59q6 9 12 3l20 -17q6 -6 1 -12q-65 -96 -193 -96q-3 0 -33 2l-17 -91q-2 -9 -10 -9h-22q-8 0 -7 9l19 98q-74 20 -117 79.5t-43 143.5q0 108 68 170q66 60 161 62h16l16 89q1 9 10 9h22q9 0 7 -9l-18 -94q91 -18 141 -92
q5 -6 -1 -12l-19 -17q-7 -4 -13 4q-43 61 -115 76zM205 40l70 372h-11q-83 -1 -134 -53t-51 -137q0 -68 33.5 -116.5t92.5 -65.5z" />
    <glyph glyph-name="sterling" unicode="&#xa3;" horiz-adv-x="522" 
d="M435 0h-348q-11 0 -6 11q36 80 54 139q27 91 12 164h-81q-9 0 -9 9v26q0 8 9 8h67l-9 24l-10 28q-16 53 -16 101q0 87 49.5 140t132.5 53q110 0 182 -86q8 -7 1 -14l-18 -20q-8 -8 -15 2q-60 75 -151 75q-62 0 -99 -41.5t-38 -108.5q0 -35 12 -81l26 -72h153q9 0 9 -8
v-26q0 -9 -9 -9h-142q20 -108 -50 -272h294q9 0 9 -9v-25q0 -8 -9 -8z" />
    <glyph glyph-name="currency" unicode="&#xa4;" horiz-adv-x="584" 
d="M295 466q79 0 132 -44l51 53q7 7 13 1l24 -23q5 -5 -2 -13l-54 -52q38 -50 38 -125q0 -78 -44 -134l58 -55q8 -8 1 -12l-23 -24q-6 -6 -13 1l-57 59q-50 -37 -124 -37q-73 0 -123 35l-57 -60q-7 -7 -13 -1l-23 24q-5 5 1 12l58 56q-47 53 -47 136q0 69 36 122l-56 52
q-7 7 -1 13l23 23q7 5 13 -1l52 -53q53 47 137 47zM295 105q70 0 113.5 43.5t43.5 114.5t-43 114.5t-114 43.5q-72 0 -115.5 -43.5t-43.5 -114.5t43.5 -114.5t115.5 -43.5z" />
    <glyph glyph-name="yen" unicode="&#xa5;" horiz-adv-x="560" 
d="M256 9v122h-155q-9 0 -9 9v18q0 9 9 9h155v77h-155q-9 0 -9 9v18q0 9 9 9h148l1 8l-228 394q-8 11 8 11h30q9 0 14 -8l204 -362l208 362q5 8 15 8h30q13 0 7 -11l-232 -393l2 -9h147q9 0 9 -8v-19q0 -9 -9 -9h-154v-77h154q9 0 9 -9v-18q0 -9 -9 -9h-154v-122q0 -9 -9 -9
h-27q-9 0 -9 9z" />
    <glyph glyph-name="brokenbar" unicode="&#xa6;" horiz-adv-x="218" 
d="M97 124h25q8 0 8 -9v-334q0 -9 -8 -9h-25q-9 0 -9 9v334q0 9 9 9zM97 722h25q8 0 8 -9v-334q0 -9 -8 -9h-25q-9 0 -9 9v334q0 9 9 9z" />
    <glyph glyph-name="section" unicode="&#xa7;" horiz-adv-x="506" 
d="M52 538q-2 72 55 118q58 48 145 47q111 -2 169 -57q6 -4 3 -13l-11 -22q-4 -7 -13 -2q-55 49 -152 49q-65 0 -108 -32t-43 -85q-1 -52 37 -80q38 -25 132 -51q100 -27 141.5 -61t42.5 -92q1 -76 -52 -122q54 -39 52 -110q-1 -77 -60 -118q-60 -41 -139 -40
q-129 2 -201 71q-7 7 -2 13l13 22q4 7 13 1q70 -62 182 -62q62 0 105 28q44 29 44 85q0 51 -36 76q-37 26 -132 50q-99 25 -141.5 62.5t-43.5 102.5q-3 68 51 114q-49 38 -51 108zM97 319q-2 -53 36 -79q37 -25 133 -51q51 -13 90 -30q49 34 49 89q0 48 -36 74t-132 50
q-61 16 -96 33q-44 -33 -44 -86z" />
    <glyph glyph-name="dieresis" unicode="&#xa8;" horiz-adv-x="356" 
d="M64 626q-12 12 -12 32t12 32q12 13 32 13t32 -13q12 -12 12 -32t-12 -32t-32 -12t-32 12zM228 626q-12 12 -12 32t12 32q12 13 32 13t32 -13q12 -12 12 -32t-12 -32t-32 -12t-32 12z" />
    <glyph glyph-name="copyright" unicode="&#xa9;" horiz-adv-x="826" 
d="M573 232q-51 -77 -157 -77q-86 0 -138 52t-52 139q0 73 41 123q42 49 98 63t115 -6q60 -18 93 -67q5 -7 0 -12l-17 -15q-5 -5 -11 3q-45 63 -129 63q-68 0 -109.5 -42t-41.5 -110t41.5 -110t109.5 -42q85 0 128 61q8 8 12 4l17 -16q5 -3 0 -11zM57 346q0 162 97 259
q98 98 259 98q160 0 258 -98t98 -259q0 -160 -98 -258t-258 -98t-258 98t-98 258zM96 346q0 -142 87 -229t230 -87t230 87t87 229q0 143 -87 230q-87 88 -230 88q-142 0 -230 -88q-87 -87 -87 -230z" />
    <glyph glyph-name="ordfeminine" unicode="&#xaa;" horiz-adv-x="433" 
d="M348 696h17q8 0 8 -9v-301q0 -10 -8 -10h-17q-9 0 -9 9l-4 55q-47 -71 -139 -71q-73 0 -118 46q-44 47 -44 121q0 75 44.5 121t117.5 46q92 0 140 -70l3 54q0 9 9 9zM202 405q59 0 95.5 36.5t36.5 94.5t-36.5 94.5t-95.5 36.5q-58 0 -94 -36t-36 -95t36 -95t94 -36z" />
    <glyph glyph-name="guillemotleft" unicode="&#xab;" horiz-adv-x="514" 
d="M248 262v9q0 10 6 16l134 148q5 7 13 2l19 -19q4 -8 -2 -14l-126 -138l126 -137q8 -7 2 -13l-19 -19q-7 -7 -13 1l-134 148q-6 8 -6 16zM229 437l19 -19q4 -8 -2 -14l-126 -138l126 -137q7 -7 2 -13l-19 -19q-7 -7 -13 1l-133 148q-7 7 -7 16v9q0 9 7 16l133 148
q8 7 13 2z" />
    <glyph glyph-name="logicalnot" unicode="&#xac;" horiz-adv-x="623" 
d="M547 371v-191q0 -9 -9 -9h-25q-9 0 -9 9v158h-419q-9 0 -9 9v25q0 9 9 9h453q9 0 9 -10z" />
    <glyph glyph-name="uni00AD" unicode="&#xad;" horiz-adv-x="333" 
 />
    <glyph glyph-name="registered" unicode="&#xae;" horiz-adv-x="812" 
d="M50 346q0 162 97 259q98 98 259 98q160 0 258 -98t98 -259q0 -160 -98 -258t-258 -98t-258 98t-98 258zM89 346q0 -142 87 -229t230 -87q142 0 229 87q88 87 88 229q0 143 -88 230q-87 88 -229 88t-230 -88q-87 -87 -87 -230zM537 430q0 -95 -107 -101l102 -159
q8 -11 -4 -11h-29q-7 0 -11 7l-100 162h-65v-159q-1 -10 -9 -10h-22q-9 0 -9 10v359q0 10 11 10h121q57 0 89.5 -28.5t32.5 -79.5zM323 499v-132l93 -1q82 0 82 64q0 33 -21.5 51.5t-60.5 18.5z" />
    <glyph glyph-name="overscore" unicode="&#xaf;" horiz-adv-x="325" 
d="M48 694h229q8 0 8 -9v-26q0 -9 -8 -9h-229q-8 0 -8 9v26q0 9 8 9z" />
    <glyph glyph-name="degree" unicode="&#xb0;" horiz-adv-x="422" 
d="M57 549q0 70 42 112t112 42q69 0 111.5 -42.5t42.5 -111.5q0 -68 -43 -110.5t-111 -42.5q-69 0 -111.5 42t-42.5 111zM97 549q0 -51 31 -82t83 -31q51 0 82.5 31t31.5 82q0 52 -31.5 83t-82.5 31t-82.5 -31t-31.5 -83z" />
    <glyph glyph-name="plusminus" unicode="&#xb1;" horiz-adv-x="589" 
d="M309 177h-28q-8 0 -8 9v169h-188q-9 0 -9 9v25q0 9 9 9h188v169q0 9 9 9h27q9 0 9 -9v-169h186q9 0 9 -8v-26q0 -9 -9 -9h-186v-169q0 -9 -9 -9zM510 87v-26q0 -8 -9 -8h-413q-9 0 -9 8v26q0 9 9 9h413q9 0 9 -9z" />
    <glyph glyph-name="twosuperior" unicode="&#xb2;" horiz-adv-x="336" 
d="M268 473l-163 -182h189q9 0 9 -8v-21q0 -9 -9 -9h-256q-18 0 -6 14l195 223q41 46 40 90q0 38 -23.5 61t-61.5 23q-58 0 -95 -45q-5 -8 -11 0l-15 18q-5 7 1 13q47 53 115 53q60 0 95 -32.5t35 -95.5q1 -61 -39 -102z" />
    <glyph glyph-name="threesuperior" unicode="&#xb3;" horiz-adv-x="332" 
d="M131 477v17q0 9 9 9h30q37 0 58.5 21t21.5 60q0 36 -22 58t-57 22q-52 0 -90 -44q-5 -8 -10 -1l-16 19q-5 6 0 11q45 54 116 54q53 0 86 -33t33 -86q0 -65 -50 -97q64 -28 64 -108q0 -60 -38 -97.5t-100 -37.5q-59 0 -96.5 33t-40.5 87q-1 9 8 9h23q8 0 8 -7
q4 -38 30.5 -60.5t67.5 -22.5q44 0 71 26.5t27 69.5q0 40 -23 64t-62 25h-39q-9 0 -9 9z" />
    <glyph glyph-name="acute" unicode="&#xb4;" horiz-adv-x="264" 
d="M198 707l23 -29q6 -8 -1 -12l-153 -111q-7 -6 -13 0l-11 15q-6 6 0 12l143 125q8 6 12 0z" />
    <glyph glyph-name="mu" unicode="&#xb5;" 
d="M425 217v217q0 9 9 9h23q9 0 9 -9l1 -425q0 -9 -9 -9h-16q-10 0 -10 8l-6 101q-44 -119 -168 -119q-96 0 -137 65v-273q0 -9 -8 -9h-25q-8 0 -8 9v652q0 9 9 9h24q8 0 8 -9v-252q3 -151 141 -151q69 0 114 53q44 53 49 133z" />
    <glyph glyph-name="paragraph" unicode="&#xb6;" horiz-adv-x="559" 
d="M407 651h-126v-690q0 -9 -9 -9h-24q-9 0 -9 9v366q-82 0 -132 50.5t-50 132.5t50 132.5t132 50.5h22h2h230q9 0 9 -9v-24q0 -9 -9 -9h-44v-690q0 -9 -9 -9h-24q-9 0 -9 9v690z" />
    <glyph glyph-name="middot" unicode="&#xb7;" horiz-adv-x="211" 
d="M63 280q-3 27 19.5 38.5t45 0t20.5 -38.5q2 -26 -20.5 -37t-45 0t-19.5 37z" />
    <glyph glyph-name="cedilla" unicode="&#xb8;" horiz-adv-x="284" 
d="M125 0h39l-22 -52q100 -4 102 -76q0 -40 -28.5 -64t-73.5 -24q-53 0 -99 35q-5 4 -1 11l11 16q4 6 12 1q42 -27 77 -27q29 0 46.5 14t17.5 38q-1 40 -83 40h-26q-11 0 -6 9z" />
    <glyph glyph-name="onesuperior" unicode="&#xb9;" horiz-adv-x="221" 
d="M38 694h97q10 0 10 -10v-422q0 -9 -9 -9h-22q-9 0 -9 9v393h-67q-9 0 -9 8v22q0 9 9 9z" />
    <glyph glyph-name="ordmasculine" unicode="&#xba;" horiz-adv-x="391" 
d="M195 704q75 0 121 -46t46 -121t-46 -121.5t-121 -46.5q-74 0 -120 46.5t-46 121.5t46 121t120 46zM66 537q0 -59 35.5 -95.5t93.5 -36.5t93.5 36.5t35.5 95.5q0 58 -35.5 94t-93.5 36t-93.5 -36t-35.5 -94z" />
    <glyph glyph-name="guillemotright" unicode="&#xbb;" horiz-adv-x="500" 
d="M251 271v-9q0 -8 -6 -16l-134 -148q-6 -8 -13 -1l-18 19q-8 4 1 13l126 137l-126 138q-7 8 -1 14l18 19q8 5 13 -2l134 -148q6 -6 6 -16zM251 418l19 19q8 5 13 -2l133 -148q7 -7 7 -16v-9q0 -9 -7 -16l-133 -148q-6 -8 -13 -1l-19 19q-6 5 2 13l126 137l-126 138
q-7 6 -2 14z" />
    <glyph glyph-name="onequarter" unicode="&#xbc;" horiz-adv-x="788" 
d="M730 130v-19q0 -9 -9 -9h-53v-93q0 -9 -9 -9h-23q-9 0 -9 9v93h-220q-21 0 -9 17l208 312q6 8 16 8h36q10 0 10 -10v-291h53q9 0 9 -8zM157 11l397 704q4 7 11 7h28q12 0 6 -11l-398 -704q-3 -7 -11 -7h-28q-13 0 -5 11zM135 262v393h-67q-9 0 -9 8v22q0 9 9 9h97
q10 0 10 -10v-422q0 -9 -9 -9h-22q-9 0 -9 9zM452 138h175v258z" />
    <glyph glyph-name="onehalf" unicode="&#xbd;" horiz-adv-x="807" 
d="M157 12l397 703q4 7 11 7h27q15 0 6 -12l-397 -703q-3 -7 -11 -7h-27q-13 0 -6 12zM68 694h97q10 0 10 -10v-422q0 -9 -9 -9h-22q-9 3 -9 9v393h-67q-9 0 -9 8v22q0 9 9 9zM710 220q-1 0 -31 -33l-69 -77q-35 -38 -64 -72h189q10 0 10 -8v-21q0 -9 -10 -9h-255
q-18 0 -7 14l195 223q41 41 41 90q-1 38 -24 61t-62 23q-57 0 -95 -45q-6 -8 -11 0l-15 18q-5 6 1 13q47 53 115 53q60 0 95.5 -32.5t35.5 -95.5q0 -31 -12 -59t-27 -43z" />
    <glyph glyph-name="threequarters" unicode="&#xbe;" horiz-adv-x="912" 
d="M257 12l395 700q4 10 16 10h24q14 0 6 -12l-395 -700q-4 -10 -17 -10h-23q-13 0 -6 12zM161 477v17q0 9 9 9h30q37 0 58.5 21t21.5 60q0 36 -22 58t-57 22q-52 0 -90 -44q-5 -8 -10 -1l-16 19q-5 6 0 11q45 54 116 54q53 0 86 -33t33 -86q0 -65 -50 -97q64 -28 64 -108
q0 -60 -38 -97.5t-100 -37.5q-59 0 -96.5 33t-40.5 87q-1 9 8 9h23q8 0 8 -7q4 -38 30.5 -60.5t67.5 -22.5q44 0 71 26.5t27 69.5q0 40 -23 64.5t-62 24.5h-39q-9 0 -9 9zM849 130v-19q0 -9 -9 -9h-53v-93q0 -9 -9 -9h-23q-9 0 -9 9v93h-220q-21 0 -9 17l208 312q6 8 16 8
h36q10 0 10 -10v-291h53q9 0 9 -8zM571 138h175v258z" />
    <glyph glyph-name="questiondown" unicode="&#xbf;" horiz-adv-x="503" 
d="M251 499q1 9 9 9h31q8 0 8 -9q-4 -78 -69 -136q-60 -51 -79 -75q-38 -50 -38 -110q1 -65 40 -104.5t103 -40.5q91 0 153 77q7 6 12 1l19 -20q6 -7 0 -14q-74 -87 -183 -87q-85 0 -137 51q-52 52 -52 136q0 95 62 153q9 9 38 35.5t41.5 40.5t26.5 40t15 53zM313 661
q0 -18 -11 -29.5t-30 -11.5t-30 11.5t-11 29.5q-3 26 19 37t44 0t19 -37z" />
    <glyph glyph-name="Agrave" unicode="&#xc0;" horiz-adv-x="645" 
d="M587 6l-95 228h-340l-94 -227q-4 -7 -9 -7h-31q-11 0 -6 11l281 673q5 9 12 9h34q9 0 12 -9l281 -673q3 -5 2 -8.5t-7 -2.5h-31q-6 0 -9 6zM475 275l-153 367l-153 -367h306zM379 719l-181 105q-8 3 -3 12l19 31q5 8 12 2l173 -119q7 -4 2 -12l-10 -17q-4 -7 -12 -2z" />
    <glyph glyph-name="Aacute" unicode="&#xc1;" horiz-adv-x="645" 
d="M587 6l-95 228h-340l-94 -227q-4 -7 -9 -7h-31q-11 0 -6 11l281 673q5 9 12 9h34q9 0 12 -9l281 -673q3 -5 2 -8.5t-7 -2.5h-31q-6 0 -9 6zM475 275l-153 367l-153 -367h306zM422 868l19 -32q5 -8 -3 -12l-181 -104q-8 -5 -12 2l-10 16q-5 8 1 12l174 120q8 5 12 -2z" />
    <glyph glyph-name="Acircumflex" unicode="&#xc2;" horiz-adv-x="645" 
d="M587 6l-95 228h-340l-94 -227q-4 -7 -9 -7h-31q-11 0 -6 11l281 673q5 9 12 9h34q9 0 12 -9l281 -673q3 -5 2 -8.5t-7 -2.5h-31q-6 0 -9 6zM475 275l-153 367l-153 -367h306zM428 747l-106 76l-105 -76q-7 -4 -13 -4h-40q-16 0 -2 10l132 96q8 5 12 5h31q6 0 14 -5
l132 -95q14 -11 -2 -11h-40q-8 0 -13 4z" />
    <glyph glyph-name="Atilde" unicode="&#xc3;" horiz-adv-x="645" 
d="M587 6l-95 228h-340l-94 -227q-4 -7 -9 -7h-31q-11 0 -6 11l281 673q5 9 12 9h34q9 0 12 -9l281 -673q3 -5 2 -8.5t-7 -2.5h-31q-6 0 -9 6zM475 275l-153 367l-153 -367h306zM210 759q-4 -7 -11 -3l-14 10q-6 3 -4 12q29 83 89 83q22 0 39.5 -13t27.5 -28.5t24.5 -28.5
t30.5 -13q36 1 59 63q3 10 11 4l15 -10q6 -6 3 -12q-27 -83 -90 -83q-27 0 -47 20.5t-37 41t-37 20.5q-38 -2 -59 -63z" />
    <glyph glyph-name="Adieresis" unicode="&#xc4;" horiz-adv-x="645" 
d="M587 6l-95 228h-340l-94 -227q-4 -7 -9 -7h-31q-11 0 -6 11l281 673q5 9 12 9h34q9 0 12 -9l281 -673q3 -5 2 -8.5t-7 -2.5h-31q-6 0 -9 6zM475 275l-153 367l-153 -367h306zM196 791q-2 28 21.5 39.5t47 0t20.5 -39.5q0 -19 -12.5 -31t-31.5 -12q-20 0 -32.5 12
t-12.5 31zM361 791q0 20 12 32.5t32 12.5q19 0 31 -12.5t12 -32.5q0 -19 -12 -31t-31 -12q-20 0 -32 12t-12 31z" />
    <glyph glyph-name="Aring" unicode="&#xc5;" horiz-adv-x="645" 
d="M587 6l-95 228h-340l-94 -227q-4 -7 -9 -7h-31q-11 0 -6 11l281 673q5 9 12 9h34q9 0 12 -9l281 -673q3 -5 2 -8.5t-7 -2.5h-31q-6 0 -9 6zM475 275l-153 367l-153 -367h306zM409 799q0 -41 -25.5 -66t-66.5 -25t-65.5 25t-24.5 66t24.5 65.5t65.5 24.5t66.5 -25
t25.5 -65zM317 740q27 0 43 16.5t16 42.5q1 26 -15.5 42.5t-43.5 16.5q-26 0 -42.5 -16.5t-16.5 -42.5t16.5 -42.5t42.5 -16.5z" />
    <glyph glyph-name="AE" unicode="&#xc6;" horiz-adv-x="789" 
d="M43 0h-29q-14 0 -7 13l374 672q5 9 14 9h337q10 0 10 -9v-24q0 -9 -9 -9h-279v-276h231q9 0 9 -8v-25q0 -9 -9 -9h-231v-292h288q9 0 9 -9v-24q0 -9 -8 -9h-324q-10 0 -10 11v219h-232l-123 -223q-4 -7 -11 -7zM409 650l-208 -378h208v378z" />
    <glyph glyph-name="Ccedilla" unicode="&#xc7;" horiz-adv-x="693" 
d="M650 82q-97 -92 -250 -92q-158 0 -256 99q-98 100 -98 257q0 164 101 260q101 97 253 97q150 0 249 -93q6 -6 0 -13l-19 -17q-6 -6 -13 0q-88 79 -217 79q-137 0 -223 -86q-85 -85 -85 -227q0 -140 84 -226q84 -84 224 -86q127 1 218 79q6 6 12 0l21 -18q6 -6 -1 -13z
M383 0h37l-21 -49q95 -4 97 -73q0 -37 -27 -60t-70 -23q-51 0 -94 33q-5 4 -1 11l11 15q3 6 11 1q38 -26 73 -26q27 0 44 13.5t17 35.5q-2 38 -79 38h-25q-10 0 -5 9z" />
    <glyph glyph-name="Egrave" unicode="&#xc8;" horiz-adv-x="509" 
d="M417 333h-279v-291h336q9 0 9 -8v-26q0 -8 -9 -8h-371q-10 0 -10 10v674q0 10 10 10h361q9 0 9 -9v-25q0 -8 -8 -8h-327v-277h279q9 0 9 -8v-26q0 -8 -9 -8zM332 719l-181 105q-7 3 -3 12l19 31q4 7 12 2l173 -119q7 -4 2 -12l-10 -17q-4 -7 -12 -2z" />
    <glyph glyph-name="Eacute" unicode="&#xc9;" horiz-adv-x="509" 
d="M395 333h-279v-291h336q9 0 9 -8v-26q0 -8 -9 -8h-371q-10 0 -10 10v674q0 10 10 10h361q9 0 9 -9v-25q0 -8 -8 -8h-327v-277h279q9 0 9 -8v-26q0 -8 -9 -8zM375 868l19 -32q4 -8 -3 -12l-181 -104q-8 -5 -12 2l-10 16q-5 8 1 12l174 120q8 5 12 -2z" />
    <glyph glyph-name="Ecircumflex" unicode="&#xca;" horiz-adv-x="509" 
d="M417 333h-279v-291h336q9 0 9 -8v-26q0 -8 -9 -8h-371q-10 0 -10 10v674q0 10 10 10h361q9 0 9 -9v-25q0 -8 -8 -8h-327v-277h279q9 0 9 -8v-26q0 -8 -9 -8zM388 743l-105 76l-106 -76q-7 -4 -13 -4h-40q-15 0 -2 10l132 96q8 5 12 5h32q5 0 13 -5l132 -95q14 -11 -2 -11
h-40q-6 0 -13 4z" />
    <glyph glyph-name="Edieresis" unicode="&#xcb;" horiz-adv-x="509" 
d="M417 333h-279v-291h336q9 0 9 -8v-26q0 -8 -9 -8h-371q-10 0 -10 10v674q0 10 10 10h361q9 0 9 -9v-25q0 -8 -8 -8h-327v-277h279q9 0 9 -8v-26q0 -8 -9 -8zM154 793q-3 26 19 37t44.5 0t20.5 -37q2 -26 -20.5 -37.5t-44.5 -0.5t-19 38zM324 762q-12 12 -12 31t12 30
q12 12 31 12t31 -12q12 -11 12 -30t-12 -31t-31 -12t-31 12z" />
    <glyph glyph-name="Igrave" unicode="&#xcc;" horiz-adv-x="231" 
d="M138 685v-677q0 -8 -9 -8h-27q-9 0 -9 8v677q0 9 9 9h27q9 0 9 -9zM172 719l-182 105q-8 3 -3 12l19 31q4 7 13 2l173 -119q6 -4 1 -12l-10 -17q-6 -7 -11 -2z" />
    <glyph glyph-name="Iacute" unicode="&#xcd;" horiz-adv-x="231" 
d="M138 685v-677q0 -8 -9 -8h-27q-9 0 -9 8v677q0 9 9 9h27q9 0 9 -9zM214 868l19 -32q5 -8 -3 -12l-181 -104q-8 -5 -12 2l-10 16q-5 8 1 12l174 120q8 5 12 -2z" />
    <glyph glyph-name="Icircumflex" unicode="&#xce;" horiz-adv-x="231" 
d="M138 685v-677q0 -8 -9 -8h-27q-9 0 -9 8v677q0 9 9 9h27q9 0 9 -9zM94 845l7 15h30q5 0 13 -6l140 -100q16 -11 -2 -11h-43q-5 0 -13 5zM-54 753l138 101q5 5 14 5h29l8 -14l-131 -97q-7 -6 -14 -6h-43q-8 0 -8 3.5t7 7.5z" />
    <glyph glyph-name="Idieresis" unicode="&#xcf;" horiz-adv-x="231" 
d="M138 685v-677q0 -8 -9 -8h-27q-9 0 -9 8v677q0 9 9 9h27q9 0 9 -9zM-11 791q-3 28 20.5 39.5t47 0t20.5 -39.5q2 -26 -21 -37t-46 0t-21 37zM153 791q0 20 12 32.5t32 12.5q19 0 31 -12.5t12 -32.5q0 -19 -12 -31t-31 -12q-20 0 -32 12t-12 31z" />
    <glyph glyph-name="Eth" unicode="&#xd0;" horiz-adv-x="666" 
d="M271 0h-178q-10 0 -10 10v312h-52q-8 0 -8 8v26q0 8 8 8h52v320q0 10 10 10h178q160 0 258 -95q97 -94 97 -252q2 -158 -97 -253q-97 -94 -258 -94zM128 322v-280h143q140 0 225 83q85 82 85 222t-85 222q-85 83 -225 83l-143 1v-289h171q9 0 9 -7v-28q0 -7 -9 -7h-171z
" />
    <glyph glyph-name="Ntilde" unicode="&#xd1;" horiz-adv-x="725" 
d="M596 694h28q8 0 8 -9v-675q0 -10 -10 -10h-37q-7 0 -12 6l-435 620v-617q0 -9 -9 -9h-27q-9 0 -9 9v675q0 10 10 10h36q8 0 12 -7l436 -622v620q0 9 9 9zM239 757q-2 -9 -11 -4l-15 12q-6 4 -3 11q30 87 90 87q22 0 40.5 -13.5t28.5 -30t25 -29.5t32 -12q37 1 59 64
q5 9 12 3l15 -11q5 -4 4 -10q-29 -87 -91 -87q-22 0 -40 13.5t-28.5 29t-25.5 29t-32 13.5q-38 -2 -60 -65z" />
    <glyph glyph-name="Ograve" unicode="&#xd2;" horiz-adv-x="797" 
d="M754 347q0 -161 -98 -259q-97 -97 -257 -97q-161 0 -259 98t-98 258t98 258q100 98 259 98t257 -98t98 -258zM88 347q0 -141 85 -226q86 -86 226 -86q138 0 224 86t86 226t-86 226t-224 86q-140 0 -226 -86q-87 -87 -85 -226zM455 719l-181 105q-8 3 -3 12l19 31
q4 7 13 2l172 -119q7 -4 2 -12l-10 -17q-4 -7 -12 -2z" />
    <glyph glyph-name="Oacute" unicode="&#xd3;" horiz-adv-x="797" 
d="M754 347q0 -161 -98 -259q-97 -97 -257 -97q-161 0 -259 98t-98 258t98 258q100 98 259 98t257 -98t98 -258zM88 347q0 -141 85 -226q86 -86 226 -86q138 0 224 86t86 226t-86 226t-224 86q-140 0 -226 -86q-87 -87 -85 -226zM498 868l19 -32q5 -8 -3 -12l-181 -104
q-8 -5 -12 2l-10 16q-5 8 1 12l174 120q8 5 12 -2z" />
    <glyph glyph-name="Ocircumflex" unicode="&#xd4;" horiz-adv-x="797" 
d="M43 348q0 159 98 257t258 98q159 0 257 -98t98 -257q0 -161 -98 -259t-257 -98q-161 0 -259 98q-97 97 -97 259zM88 347q0 -140 86 -226t225 -86t225 86t86 226t-86 226t-225 85q-141 0 -226 -85t-85 -226zM504 748l-105 76l-106 -76q-7 -4 -13 -4h-40q-16 0 -2 10
l132 96q8 5 12 5h32q5 0 13 -5l132 -95q14 -11 -2 -11h-40q-6 0 -13 4z" />
    <glyph glyph-name="Otilde" unicode="&#xd5;" horiz-adv-x="797" 
d="M754 347q0 -161 -98 -259q-97 -97 -257 -97q-161 0 -259 98t-98 258t98 258q100 98 259 98t257 -98t98 -258zM88 347q0 -141 85 -226q86 -86 226 -86q138 0 224 86t86 226t-86 226t-224 86q-140 0 -226 -86q-87 -87 -85 -226zM276 757q-5 -8 -12 -4l-15 12q-6 4 -3 11
q30 87 91 87q22 0 40 -13.5t28 -30t25 -29.5t32 -12q35 2 60 64q4 7 11 3l15 -11q5 -4 4 -10q-30 -87 -91 -87q-22 0 -40 13.5t-28.5 29t-25.5 29t-31 13.5q-41 -2 -60 -65z" />
    <glyph glyph-name="Odieresis" unicode="&#xd6;" horiz-adv-x="797" 
d="M754 347q0 -161 -98 -259q-97 -97 -257 -97q-161 0 -259 98t-98 258t98 258q100 98 259 98t257 -98t98 -258zM88 347q0 -141 85 -226q86 -86 226 -86q138 0 224 86t86 226t-86 226t-224 86q-140 0 -226 -86q-87 -87 -85 -226zM273 791q-3 28 20.5 39.5t47 0t20.5 -39.5
q2 -26 -21 -37t-46 0t-21 37zM437 791q0 20 12 32.5t32 12.5q19 0 31 -12.5t12 -32.5q0 -19 -12 -31t-31 -12q-20 0 -32 12t-12 31z" />
    <glyph glyph-name="multiply" unicode="&#xd7;" horiz-adv-x="485" 
d="M213 319l-134 134q-6 6 0 12l18 18q6 6 13 0l133 -134l133 134q6 6 12 0l18 -18q6 -6 0 -12l-133 -134l133 -133q8 -8 0 -12l-18 -19q-6 -5 -12 1l-133 133l-134 -133q-6 -6 -12 0l-18 18q-6 6 0 12z" />
    <glyph glyph-name="Oslash" unicode="&#xd8;" horiz-adv-x="785" 
d="M758 347q0 -161 -98 -259q-97 -97 -257 -97q-161 0 -259 98t-98 258t98 258q100 98 259 98t257 -98t98 -258zM92 347q0 -141 85 -226q86 -86 226 -86q138 0 224 86t86 226t-86 226t-224 86q-140 0 -226 -86q-87 -87 -85 -226zM72 15l606 676q7 7 12 2l19 -16q5 -5 -2 -14
l-605 -675q-4 -8 -12 0l-18 15q-4 5 0 12z" />
    <glyph glyph-name="Ugrave" unicode="&#xd9;" horiz-adv-x="666" 
d="M86 272v412q0 9 9 9h27q9 0 9 -9v-413q0 -110 54.5 -173t148.5 -63q92 0 146 62.5t54 173.5v414q0 8 9 8h28q9 0 9 -8v-414q0 -132 -67 -206q-68 -74 -179 -74q-113 -2 -181 74q-67 74 -67 207zM390 719l-182 105q-8 3 -3 12l19 31q4 7 13 2l173 -119q6 -4 1 -12l-10 -17
q-6 -7 -11 -2z" />
    <glyph glyph-name="Uacute" unicode="&#xda;" horiz-adv-x="666" 
d="M86 272v412q0 9 9 9h27q9 0 9 -9v-413q0 -110 54.5 -173t148.5 -63q92 0 146 62.5t54 173.5v414q0 8 9 8h28q9 0 9 -8v-414q0 -132 -67 -206q-68 -74 -179 -74q-113 -2 -181 74q-67 74 -67 207zM432 868l19 -32q5 -8 -3 -12l-181 -104q-8 -5 -12 2l-10 16q-5 8 1 12
l174 120q8 5 12 -2z" />
    <glyph glyph-name="Ucircumflex" unicode="&#xdb;" horiz-adv-x="666" 
d="M86 272v412q0 10 8 10h28q10 -1 10 -10v-413q-1 -110 53.5 -172.5t147.5 -62.5q92 0 146 62.5t54 172.5v414q0 9 9 9h28q9 0 9 -9v-414q0 -132 -67 -206q-68 -74 -180 -74q-111 -1 -179 74q-67 74 -67 207zM438 751l-105 76l-106 -76q-5 -4 -13 -4h-40q-15 0 -2 10
l132 96q8 5 13 5h31q8 0 13 -5l132 -95q14 -11 -1 -11h-40q-7 0 -14 4z" />
    <glyph glyph-name="Udieresis" unicode="&#xdc;" horiz-adv-x="666" 
d="M86 272v412q0 9 9 9h27q9 0 9 -9v-413q0 -110 54.5 -173t148.5 -63q92 0 146 62.5t54 173.5v414q0 8 9 8h28q9 0 9 -8v-414q0 -132 -67 -206q-68 -74 -179 -74q-113 -2 -181 74q-67 74 -67 207zM207 791q-3 28 20.5 39.5t47 0t20.5 -39.5q2 -26 -21 -37t-46 0t-21 37z
M371 791q0 20 12 32.5t32 12.5q19 0 31 -12.5t12 -32.5q0 -19 -12 -31t-31 -12q-20 0 -32 12t-12 31z" />
    <glyph glyph-name="Yacute" unicode="&#xdd;" 
d="M248 8v271l-234 404q-6 10 7 10h33q8 0 13 -8l204 -362l208 362q5 8 13 8h34q10 0 4 -11l-237 -402v-272q0 -8 -9 -8h-27q-9 0 -9 8zM371 868l19 -32q4 -8 -3 -12l-181 -104q-8 -5 -12 2l-10 16q-5 8 1 12l174 120q8 5 12 -2z" />
    <glyph glyph-name="Thorn" unicode="&#xde;" horiz-adv-x="551" 
d="M76 9v675q0 10 9 10h28q9 0 9 -9v-148h161q106 0 164 -49t59 -141q-1 -92 -59 -141t-164 -49h-161l-1 -148q0 -9 -9 -9h-27q-9 0 -9 9zM285 495h-163v-296h163q86 -1 131 37t45 110t-45 110.5t-131 38.5z" />
    <glyph glyph-name="germandbls" unicode="&#xdf;" horiz-adv-x="577" 
d="M276 42q42 -24 83 -24q54 0 90 32t36 80q0 70 -72 120q-10 8 -42 30t-46 33t-28 31t-14 40t13 38.5t31.5 33.5t37 29.5t31.5 33.5t13 39q0 48 -35 75t-91 27q-93 0 -126 -80q-26 -66 -26 -165v-406q0 -9 -9 -9h-27q-9 0 -9 9v467q0 99 50 164q51 65 147 65q71 0 120 -40
q51 -39 51 -107q0 -32 -18.5 -60.5t-44.5 -44.5q-62 -40 -63 -71q0 -16 21 -34t50.5 -37t59 -42t50.5 -58.5t21 -78.5q0 -69 -50 -114t-120 -45q-51 0 -101 26q-9 3 -6 13l11 27q4 7 12 3z" />
    <glyph glyph-name="agrave" unicode="&#xe0;" horiz-adv-x="577" 
d="M461 338l6 97q1 9 9 9h18q8 0 8 -9v-427q0 -8 -9 -8h-17q-9 0 -9 8l-6 97q-26 -54 -77 -84.5t-119 -30.5q-102 0 -165 64q-62 65 -62 168t62 167q63 64 165 64q68 0 119 -30.5t77 -84.5zM79 222q0 -87 52 -139t137 -52q87 0 139 52t54 139q-1 86 -54 138q-52 52 -139 52
q-85 0 -137 -52.5t-52 -137.5zM318 534l-152 110q-7 6 -2 11l23 30q7 7 13 0l143 -125q4 -4 0 -11l-14 -14q-4 -5 -11 -1z" />
    <glyph glyph-name="aacute" unicode="&#xe1;" horiz-adv-x="577" 
d="M461 338l6 97q1 9 9 9h18q8 0 8 -9v-427q0 -8 -9 -8h-17q-9 0 -9 8l-6 97q-26 -54 -77 -84.5t-119 -30.5q-102 0 -165 64q-62 65 -62 168t62 167q63 64 165 64q68 0 119 -30.5t77 -84.5zM79 222q0 -87 52 -139t137 -52q87 0 139 52t54 139q-1 86 -54 138q-52 52 -139 52
q-85 0 -137 -52.5t-52 -137.5zM380 675l25 -30q4 -7 -2 -12l-157 -114q-7 -6 -13 0l-12 16q-6 6 0 12l147 128q8 7 12 0z" />
    <glyph glyph-name="acircumflex" unicode="&#xe2;" horiz-adv-x="577" 
d="M461 338l6 97q1 9 9 9h18q8 0 8 -9v-427q0 -8 -9 -8h-17q-9 0 -9 8l-6 97q-26 -54 -77 -84.5t-119 -30.5q-102 0 -165 64q-62 65 -62 168t62 167q63 64 165 64q68 0 119 -30.5t77 -84.5zM79 222q0 -87 52 -139t137 -52q87 0 139 52t54 139q-1 86 -54 138q-52 52 -139 52
q-85 0 -137 -52.5t-52 -137.5zM134 530l107 133q4 7 13 7h32q7 0 14 -7l105 -132q8 -8 -4 -8h-33q-6 0 -10 4l-88 112l-89 -111q-3 -5 -11 -5h-32q-10 0 -4 7z" />
    <glyph glyph-name="atilde" unicode="&#xe3;" horiz-adv-x="602" 
d="M486 338l6 97q2 9 9 9h18q8 0 8 -9v-427q0 -8 -9 -8h-17q-9 0 -9 8l-6 97q-26 -54 -77 -84.5t-119 -30.5q-102 0 -165 64q-62 65 -62 168t62 167q63 64 165 64q68 0 119 -30.5t77 -84.5zM104 222q0 -87 52 -139t137 -52q87 0 139 52t54 139q-2 86 -54 138t-139 52
q-85 0 -137 -52.5t-52 -137.5zM170 559q-4 -10 -12 -4l-16 12q-3 1 -3 10q31 87 93 87q22 0 40 -13.5t28 -29t25 -29t31 -13.5q36 1 61 65q3 8 10 4l17 -13q5 -3 2 -9q-12 -41 -36.5 -64t-54.5 -23q-23 -2 -46 20t-43 43.5t-36 20.5q-38 -2 -60 -64z" />
    <glyph glyph-name="adieresis" unicode="&#xe4;" horiz-adv-x="577" 
d="M461 338l6 97q1 9 9 9h18q8 0 8 -9v-427q0 -8 -9 -8h-17q-9 0 -9 8l-6 97q-26 -54 -77 -84.5t-119 -30.5q-102 0 -165 64q-62 65 -62 168t62 167q63 64 165 64q68 0 119 -30.5t77 -84.5zM79 222q0 -87 52 -139t137 -52q87 0 139 52t54 139q-1 86 -54 138q-52 52 -139 52
q-85 0 -137 -52.5t-52 -137.5zM241 617q3 -26 -20.5 -37.5t-47 -0.5t-20.5 38q-3 28 20.5 39.5t47 0t20.5 -39.5zM317 617q0 20 12 32.5t31 12.5q20 0 32.5 -12.5t12.5 -32.5q0 -19 -12.5 -31t-32.5 -12q-19 0 -31 12t-12 31z" />
    <glyph glyph-name="aring" unicode="&#xe5;" horiz-adv-x="577" 
d="M461 338l6 97q1 9 9 9h18q8 0 8 -9v-427q0 -8 -9 -8h-17q-9 0 -9 8l-6 97q-26 -54 -77 -84.5t-119 -30.5q-102 0 -165 64q-62 65 -62 168t62 167q63 64 165 64q68 0 119 -30.5t77 -84.5zM79 222q0 -87 52 -139t137 -52q87 0 139 52t54 139q-1 86 -54 138q-52 52 -139 52
q-85 0 -137 -52.5t-52 -137.5zM197 541q-24 25 -24 66t24 65q25 25 66 25t66 -25q25 -24 25 -65t-25 -66t-66 -25t-66 25zM263 548q27 0 43 16.5t16 42.5t-16 42.5t-43 16.5q-26 0 -42 -16.5t-16 -42.5t16 -42.5t42 -16.5z" />
    <glyph glyph-name="ae" unicode="&#xe6;" horiz-adv-x="942" 
d="M832 89q8 7 13 2l19 -18q6 -5 -1 -12q-63 -71 -179 -71q-133 0 -192 101v-82q0 -9 -8 -9h-19q-8 0 -8 8l-6 92q-53 -110 -186 -110q-102 0 -165 64q-62 65 -62 168t62 167q63 64 165 64q133 0 186 -110l6 92q1 9 9 9h18q8 0 8 -9v-79q54 97 181 97q105 0 168 -66
q63 -67 62 -176q0 -8 -10 -8h-398q6 -80 56 -126t133 -46q96 0 148 58zM268 31q83 0 132 51.5t51 140.5q-1 85 -51 137t-132 52q-85 0 -137 -52.5t-52 -137.5q0 -87 52 -139t137 -52zM495 241h367q-6 77 -57.5 124t-131.5 47q-78 0 -125 -46t-53 -125z" />
    <glyph glyph-name="ccedilla" unicode="&#xe7;" horiz-adv-x="498" 
d="M460 85q-63 -95 -192 -95q-103 0 -167 64q-63 64 -63 168q0 109 68 171q68 61 163 61q59 0 110 -25t81 -71q5 -8 -1 -13l-18 -16q-7 -6 -13 3q-56 81 -160 81q-84 0 -137 -53q-52 -52 -52 -138q0 -87 52 -139t137 -52q53 0 94.5 22t65.5 59q6 9 12 3l20 -17q5 -5 0 -13z
M235 0h37l-21 -49q95 -4 97 -73q0 -37 -27 -60t-70 -23q-51 0 -94 33q-4 4 -1 11l11 15q5 5 11 1q38 -26 73 -26q27 0 44 13.5t17 35.5q-2 38 -79 38h-24q-11 0 -6 9z" />
    <glyph glyph-name="egrave" unicode="&#xe8;" horiz-adv-x="537" 
d="M80 241h377q-6 78 -57 124.5t-132 46.5q-80 0 -131 -46.5t-57 -124.5zM489 203h-409q6 -78 60.5 -125t138.5 -47q96 0 148 58q8 8 14 2l19 -18q6 -5 -1 -12q-65 -71 -180 -71q-108 0 -175 64q-66 64 -66 168q0 102 63 167q64 64 167 64q106 0 168 -65q63 -64 63 -175
q0 -10 -10 -10zM311 533l-152 110q-9 5 -2 12l23 29q8 8 12 0l144 -125q4 -4 0 -11l-14 -14q-4 -5 -11 -1z" />
    <glyph glyph-name="eacute" unicode="&#xe9;" horiz-adv-x="537" 
d="M80 241h377q-6 78 -57 124.5t-132 46.5q-80 0 -131 -46.5t-57 -124.5zM489 203h-409q6 -78 60.5 -125t138.5 -47q96 0 148 58q8 8 14 2l19 -18q6 -5 -1 -12q-65 -71 -180 -71q-108 0 -175 64q-66 64 -66 168q0 102 63 167q64 64 167 64q106 0 168 -65q63 -64 63 -175
q0 -10 -10 -10zM355 677l24 -29q6 -8 -2 -11l-153 -112q-6 -5 -12 0l-12 16q-4 6 0 12l144 124q6 6 11 0z" />
    <glyph glyph-name="ecircumflex" unicode="&#xea;" horiz-adv-x="536" 
d="M80 241h377q-6 78 -57 124.5t-132 46.5q-80 0 -131 -46.5t-57 -124.5zM489 203h-409q6 -78 60.5 -125t138.5 -47q96 0 148 58q8 8 14 2l19 -18q6 -5 -1 -12q-65 -71 -180 -71q-108 0 -175 64q-66 64 -66 168q0 102 63 167q64 64 167 64q106 0 168 -65q63 -64 63 -175
q0 -10 -10 -10zM132 530l107 133q4 7 13 7h32q7 0 14 -7l105 -132q8 -8 -4 -8h-33q-5 0 -9 4l-89 113l-89 -112q-3 -5 -11 -5h-32q-8 0 -4 7z" />
    <glyph glyph-name="edieresis" unicode="&#xeb;" horiz-adv-x="537" 
d="M80 241h377q-6 78 -57 124.5t-132 46.5q-80 0 -131 -46.5t-57 -124.5zM489 203h-409q6 -78 60.5 -125t138.5 -47q96 0 148 58q8 8 14 2l19 -18q6 -5 -1 -12q-65 -71 -180 -71q-108 0 -175 64q-66 64 -66 168q0 102 63 167q64 64 167 64q106 0 168 -65q63 -64 63 -175
q0 -10 -10 -10zM186 658q27 3 38.5 -20.5t0 -47t-38.5 -20.5q-27 -3 -38 20.5t0.5 47t37.5 20.5zM318 582q-12 12 -12 32t12 32t32 12t32 -12t12 -32t-12 -32t-32 -12t-32 12z" />
    <glyph glyph-name="igrave" unicode="&#xec;" horiz-adv-x="207" 
d="M124 435v-426q0 -9 -8 -9h-24q-8 0 -8 9l-1 426q0 9 9 9h24q8 -2 8 -9zM150 527l-152 111q-8 5 -2 11l23 30q5 5 12 0l143 -126q4 -4 0 -10l-14 -15q-2 -2 -10 -1z" />
    <glyph glyph-name="iacute" unicode="&#xed;" horiz-adv-x="207" 
d="M124 435v-426q0 -9 -8 -9h-24q-8 0 -8 9l-1 426q0 9 9 9h24q8 -2 8 -9zM195 672l22 -28q5 -8 -1 -13l-154 -110q-6 -6 -12 0l-11 15q-5 6 0 11l144 125q7 8 12 0z" />
    <glyph glyph-name="icircumflex" unicode="&#xee;" horiz-adv-x="207" 
d="M124 435v-426q0 -9 -8 -9h-24q-8 0 -8 9l-1 426q0 9 9 9h24q8 -2 8 -9zM-40 521l112 140q4 7 14 7h34q7 0 14 -7l111 -139q7 -9 -4 -9h-35q-5 0 -10 5l-93 118l-94 -117q-3 -6 -11 -6h-34q-10 0 -4 8z" />
    <glyph glyph-name="idieresis" unicode="&#xef;" horiz-adv-x="207" 
d="M124 435v-426q0 -9 -8 -9h-24q-8 0 -8 9l-1 426q0 9 9 9h24q8 -2 8 -9zM20 655q19 0 31 -12.5t12 -31.5q0 -20 -12 -32t-31 -12q-27 -3 -38.5 20.5t0 47t38.5 20.5zM183 655q28 3 39.5 -20.5t0 -47t-39.5 -20.5q-27 -2 -38 21t0 46t38 21z" />
    <glyph glyph-name="eth" unicode="&#xf0;" horiz-adv-x="539" 
d="M269 -10q-96 0 -154 58t-58 154t58 153t154 57q89 0 144 -58q-37 112 -124 199l-129 -65q-6 -3 -10 1l-17 17q-6 6 3 11l124 63q-53 47 -125 80q-9 5 -5 12l12 24q4 7 13 3q83 -37 148 -96l104 53q7 3 12 -2l16 -16q7 -7 -3 -11l-102 -52q75 -78 114.5 -177t37.5 -203
q-1 -91 -61 -149q-59 -56 -152 -56zM439 204q-1 76 -46.5 121.5t-123.5 45.5q-76 0 -122 -46.5t-46 -123.5q0 -76 46.5 -122.5t121.5 -46.5q76 0 123 47q47 49 47 125z" />
    <glyph glyph-name="ntilde" unicode="&#xf1;" 
d="M80 8v427q0 8 8 8h18q7 0 9 -8l6 -101q44 119 168 119q85 0 131 -50t46 -148v-246q0 -9 -8 -9h-25q-8 0 -8 9v247q0 77 -36 116.5t-104 39.5q-69 0 -114 -53t-50 -133l1 -218q0 -8 -8 -8h-25q-9 0 -9 8zM152 564q-3 -8 -10 -4l-15 12q-5 4 -3 9q14 42 37.5 64t51.5 21
q19 1 37 -12.5t29.5 -30t26.5 -29t29 -10.5q38 0 58 63q3 9 11 4l16 -13q5 -2 3 -8q-12 -41 -36.5 -63.5t-52.5 -22.5q-21 0 -39 13t-28.5 28.5t-25.5 28.5t-30 13q-33 -1 -59 -63z" />
    <glyph glyph-name="ograve" unicode="&#xf2;" horiz-adv-x="537" 
d="M38 222q0 102 63 167q64 64 167 64q104 0 167 -64q64 -63 64 -167t-64 -168t-167 -64t-167 64q-63 64 -63 168zM79 222q0 -87 52 -139t137 -52t137 52q53 53 53 139t-52 138t-138 52q-85 0 -137 -52.5t-52 -137.5zM296 533l-152 110q-9 5 -2 12l23 29q7 8 12 0l144 -125
q4 -4 0 -11l-14 -14q-4 -5 -11 -1z" />
    <glyph glyph-name="oacute" unicode="&#xf3;" horiz-adv-x="537" 
d="M38 222q0 102 63 167q64 64 167 64q104 0 167 -64q64 -63 64 -167t-64 -168t-167 -64t-167 64q-63 64 -63 168zM79 222q0 -87 52 -139t137 -52t137 52q53 53 53 139t-52 138t-138 52q-85 0 -137 -52.5t-52 -137.5zM355 676l24 -29q6 -8 -2 -11l-153 -112q-6 -4 -12 0
l-12 16q-4 6 0 12l144 124q6 6 11 0z" />
    <glyph glyph-name="ocircumflex" unicode="&#xf4;" horiz-adv-x="537" 
d="M38 222q0 102 63 167q64 64 167 64q104 0 167 -64q64 -63 64 -167t-64 -168t-167 -64t-167 64q-63 64 -63 168zM79 222q0 -87 52 -139t137 -52t137 52q53 53 53 139t-52 138t-138 52q-85 0 -137 -52.5t-52 -137.5zM133 530l106 133q4 6 13 6h33q7 0 13 -6l105 -132
q7 -9 -4 -9h-33q-4 0 -9 5l-89 112l-89 -111q-3 -6 -10 -6h-33q-9 0 -3 8z" />
    <glyph glyph-name="otilde" unicode="&#xf5;" horiz-adv-x="537" 
d="M38 222q0 102 63 167q64 64 167 64q104 0 167 -64q64 -63 64 -167t-64 -168t-167 -64t-167 64q-63 64 -63 168zM79 222q0 -87 52 -139t137 -52t137 52q53 53 53 139t-52 138t-138 52q-85 0 -137 -52.5t-52 -137.5zM144 553q-4 -11 -11 -4l-17 12q-4 4 -2 10q31 87 92 87
q22 0 40 -13.5t28 -29.5t24.5 -29t31.5 -12q39 0 61 64q3 8 10 4l18 -13q4 -3 1 -9q-12 -41 -36.5 -64t-54.5 -23q-23 -2 -46 20t-43 43.5t-36 20.5q-38 -2 -60 -64z" />
    <glyph glyph-name="odieresis" unicode="&#xf6;" horiz-adv-x="537" 
d="M38 222q0 102 63 167q64 64 167 64q104 0 167 -64q64 -63 64 -167t-64 -168t-167 -64t-167 64q-63 64 -63 168zM79 222q0 -87 52 -139t137 -52t137 52q53 53 53 139t-52 138t-138 52q-85 0 -137 -52.5t-52 -137.5zM143 621q0 20 12 32.5t31 12.5q20 0 32 -12.5t12 -32.5
q3 -26 -20.5 -37t-46.5 0t-20 37zM306 621q-3 28 20.5 39.5t47 0t20.5 -39.5q0 -19 -12.5 -31t-31.5 -12q-20 0 -32 12t-12 31z" />
    <glyph glyph-name="divide" unicode="&#xf7;" horiz-adv-x="539" 
d="M221 439q0 21 13 34t35 13t35 -13t13 -34q3 -30 -22.5 -42.5t-51 0t-22.5 42.5zM221 158q-3 30 22.5 42t51 0t22.5 -42q0 -21 -13 -34.5t-35 -13.5t-35 13.5t-13 34.5zM76 282v26q0 10 9 8h370q8 0 8 -8v-26q0 -8 -8 -8h-370q-9 0 -9 8z" />
    <glyph glyph-name="oslash" unicode="&#xf8;" horiz-adv-x="537" 
d="M408 412l45 49q4 7 12 2l18 -16q6 -6 0 -13l-44 -49q60 -63 60 -163q0 -104 -64 -168t-167 -64q-86 0 -144 45l-45 -49q-6 -8 -13 -2l-17 16q-7 5 0 13l45 50q-56 62 -56 159q0 102 63 167q64 64 167 64q81 0 140 -41zM410 353l-257 -286q49 -35 115 -35q85 0 137 52
t52 138q0 81 -47 131zM123 95l256 285q-46 31 -111 31q-85 0 -136.5 -52t-51.5 -137q0 -78 43 -127z" />
    <glyph glyph-name="ugrave" unicode="&#xf9;" 
d="M431 8l-6 101q-44 -119 -168 -119q-85 0 -131.5 50t-46.5 148v246q0 9 8 9h25q8 0 8 -9v-247q0 -77 36 -116.5t104 -39.5q69 0 114 53q45 51 50 133v218q0 8 8 8h25q8 0 8 -8v-427q0 -8 -8 -8h-17q-9 0 -9 8zM315 522l-152 111q-8 5 -2 11l22 30q7 4 13 0l143 -126
q4 -4 0 -10l-14 -15q-4 -4 -10 -1z" />
    <glyph glyph-name="uacute" unicode="&#xfa;" 
d="M431 8l-6 101q-44 -119 -168 -119q-85 0 -131.5 50t-46.5 148v246q0 9 8 9h25q8 0 8 -9v-247q0 -77 36 -116.5t104 -39.5q69 0 114 53q45 51 50 133v218q0 8 8 8h25q8 0 8 -8v-427q0 -8 -8 -8h-17q-9 0 -9 8zM354 670l23 -29q5 -8 -1 -12l-153 -111q-7 -6 -13 0l-11 15
q-6 7 0 13l143 124q8 8 12 0z" />
    <glyph glyph-name="ucircumflex" unicode="&#xfb;" 
d="M431 8l-6 101q-44 -119 -168 -119q-85 0 -131.5 50t-46.5 148v246q0 9 8 9h25q8 0 8 -9v-247q0 -77 36 -116.5t104 -39.5q69 0 114 53q45 51 50 133v218q0 8 8 8h25q8 0 8 -8v-427q0 -8 -8 -8h-17q-9 0 -9 8zM132 527l110 136q4 7 13 7h33q7 0 14 -7l108 -136q8 -8 -4 -8
h-34q-6 0 -9 5l-91 115l-92 -114q-3 -6 -10 -6h-34q-9 0 -4 8z" />
    <glyph glyph-name="udieresis" unicode="&#xfc;" 
d="M431 8l-6 101q-44 -119 -168 -119q-85 0 -131.5 50t-46.5 148v246q0 9 8 9h25q8 0 8 -9v-247q0 -77 36 -116.5t104 -39.5q69 0 114 53q45 51 50 133v218q0 8 8 8h25q8 0 8 -8v-427q0 -8 -8 -8h-17q-9 0 -9 8zM146 611q-3 27 20.5 38t47 0t20.5 -38q3 -27 -20.5 -38.5
t-47 0t-20.5 38.5zM322 579q-12 12 -12 32t12 32t32 12t32 -13q12 -12 12 -31t-12 -32q-12 -12 -32 -12t-32 12z" />
    <glyph glyph-name="yacute" unicode="&#xfd;" horiz-adv-x="443" 
d="M391 443h29q12 0 6 -13l-271 -649q-5 -9 -12 -9h-25q-12 0 -5 13l90 220l-186 425q-7 13 6 13h29q6 0 11 -9l160 -379l157 379q4 9 11 9zM323 656l24 -29q6 -8 -2 -11l-153 -112q-6 -4 -12 0l-12 16q-4 6 0 12l144 124q6 6 11 0z" />
    <glyph glyph-name="thorn" unicode="&#xfe;" horiz-adv-x="578" 
d="M83 722h25q9 0 9 -9v-378q25 56 76 87t121 31q103 0 164 -64q63 -63 63 -167t-63 -168q-61 -64 -164 -64q-69 0 -120.5 31t-76.5 88v-328q0 -9 -9 -9h-25q-8 0 -8 9v932q0 9 8 9zM310 412q-86 0 -139 -52q-54 -52 -54 -138t53 -139q53 -52 140 -52q85 0 137 52
q53 53 53 139t-52 138t-138 52z" />
    <glyph glyph-name="ydieresis" unicode="&#xff;" horiz-adv-x="443" 
d="M391 443h29q12 0 6 -13l-271 -649q-5 -9 -12 -9h-25q-12 0 -5 13l90 220l-186 425q-7 13 6 13h29q6 0 11 -9l160 -379l157 379q4 9 11 9zM91 601q0 20 12 32.5t31 12.5q20 0 32 -12.5t12 -32.5q3 -26 -20.5 -37t-46.5 0t-20 37zM254 601q-3 28 20.5 39.5t47 0t20.5 -39.5
q0 -19 -12.5 -31t-31.5 -12q-20 0 -32 12t-12 31z" />
    <glyph glyph-name="Amacron" unicode="&#x100;" horiz-adv-x="645" 
d="M587 6l-95 228h-340l-94 -227q-4 -7 -9 -7h-31q-11 0 -6 11l281 673q5 9 12 9h34q9 0 12 -9l281 -673q3 -5 2 -8.5t-7 -2.5h-31q-6 0 -9 6zM475 275l-153 367l-153 -367h306zM209 807h228q8 0 8 -8v-26q0 -9 -8 -9h-228q-9 0 -9 9v26q0 8 9 8z" />
    <glyph glyph-name="amacron" unicode="&#x101;" horiz-adv-x="577" 
d="M461 338l6 97q1 9 9 9h18q8 0 8 -9v-427q0 -8 -9 -8h-17q-9 0 -9 8l-6 97q-26 -54 -77 -84.5t-119 -30.5q-102 0 -165 64q-62 65 -62 168t62 167q63 64 165 64q68 0 119 -30.5t77 -84.5zM79 222q0 -87 52 -139t137 -52q87 0 139 52t54 139q-1 86 -54 138q-52 52 -139 52
q-85 0 -137 -52.5t-52 -137.5zM156 627h228q8 0 8 -9v-26q0 -8 -8 -8h-228q-9 0 -9 8v26q0 9 9 9z" />
    <glyph glyph-name="Abreve" unicode="&#x102;" horiz-adv-x="645" 
d="M587 6l-95 228h-340l-94 -227q-4 -7 -9 -7h-31q-11 0 -6 11l281 673q5 9 12 9h34q9 0 12 -9l281 -673q3 -5 2 -8.5t-7 -2.5h-31q-6 0 -9 6zM475 275l-153 367l-153 -367h306zM438 859l22 1q8 0 8 -10q-3 -53 -42.5 -86t-102.5 -33q-62 0 -101.5 33t-43.5 86q0 10 8 10h25
q6 0 7 -10q5 -37 33 -57.5t72 -20.5q45 0 73 20.5t33 57.5q1 9 9 9z" />
    <glyph glyph-name="abreve" unicode="&#x103;" horiz-adv-x="577" 
d="M461 338l6 97q1 9 9 9h18q8 0 8 -9v-427q0 -8 -9 -8h-17q-9 0 -9 8l-6 97q-26 -54 -77 -84.5t-119 -30.5q-102 0 -165 64q-62 65 -62 168t62 167q63 64 165 64q68 0 119 -30.5t77 -84.5zM79 222q0 -87 52 -139t137 -52q87 0 139 52t54 139q-1 86 -54 138q-52 52 -139 52
q-85 0 -137 -52.5t-52 -137.5zM373 685h24q7 0 7 -9q-2 -63 -40 -101.5t-99 -38.5q-59 0 -96.5 38.5t-40.5 101.5q0 9 8 9h23q8 0 8 -8q4 -44 31 -72.5t67 -28.5q42 0 69 28t31 73q0 8 8 8z" />
    <glyph glyph-name="Aogonek" unicode="&#x104;" horiz-adv-x="645" 
d="M587 6l-95 228h-340l-94 -227q-4 -7 -9 -7h-31q-11 0 -6 11l281 673q5 9 12 9h34q9 0 12 -9l281 -673q3 -5 2 -8.5t-7 -2.5h-31q-6 0 -9 6zM475 275l-153 367l-153 -367h306zM678 -176q-29 -36 -82 -36q-42 0 -68 23.5t-26 61.5q-1 35 36 82q3 4 10 10.5t14.5 14l8.5 8.5
l18 15l16 14l27 -16q-51 -46 -70.5 -71.5t-19.5 -54.5q0 -23 14.5 -37t39.5 -14q33 0 52 22q8 6 13 3l17 -13q6 -4 0 -12z" />
    <glyph glyph-name="aogonek" unicode="&#x105;" horiz-adv-x="577" 
d="M461 338l6 97q1 9 9 9h18q8 0 8 -9v-427q0 -8 -9 -8h-17q-9 0 -9 8l-6 97q-26 -54 -77 -84.5t-119 -30.5q-102 0 -165 64q-62 65 -62 168t62 167q63 64 165 64q68 0 119 -30.5t77 -84.5zM79 222q0 -87 52 -139t137 -52q87 0 139 52t54 139q-1 86 -54 138q-52 52 -139 52
q-85 0 -137 -52.5t-52 -137.5zM547 -164q-27 -35 -81 -35q-41 0 -66 23t-25 60q0 35 30 72q26 28 29 31q13 12 14 13l16 13l13 11l23 -18l-47 -44q-39 -41 -39 -76q0 -22 14.5 -36t37.5 -14q28 0 52 21q4 7 12 2l16 -12q6 -4 1 -11z" />
    <glyph glyph-name="Cacute" unicode="&#x106;" horiz-adv-x="693" 
d="M650 82q-97 -92 -250 -92q-158 0 -256 99q-98 100 -98 257q0 164 101 260q101 97 253 97q150 0 249 -93q6 -6 0 -13l-19 -17q-6 -6 -13 0q-88 79 -217 79q-137 0 -223 -86q-85 -85 -85 -227q0 -140 84 -226q84 -84 224 -86q127 1 218 79q6 6 12 0l21 -18q6 -6 -1 -13z
M467 868l19 -32q4 -8 -3 -12l-181 -104q-8 -5 -12 2l-10 16q-5 8 1 12l174 120q8 5 12 -2z" />
    <glyph glyph-name="cacute" unicode="&#x107;" horiz-adv-x="498" 
d="M460 85q-63 -95 -192 -95q-103 0 -167 64q-63 64 -63 168q0 109 68 171q68 61 163 61q59 0 110 -25t81 -71q5 -8 -1 -13l-18 -16q-7 -6 -13 3q-56 81 -160 81q-84 0 -137 -53q-52 -52 -52 -138q0 -87 52 -139t137 -52q53 0 94.5 22t65.5 59q6 9 12 3l20 -17q5 -5 0 -13z
M361 678l24 -29q6 -7 -2 -12l-153 -111q-8 -4 -12 0l-12 16q-4 6 0 12l144 124q6 6 11 0z" />
    <glyph glyph-name="Ccircumflex" unicode="&#x108;" horiz-adv-x="693" 
d="M650 82q-97 -92 -250 -92q-158 0 -256 99q-98 100 -98 257q0 164 101 260q101 97 253 97q150 0 249 -93q6 -6 0 -13l-19 -17q-6 -6 -13 0q-88 79 -217 79q-137 0 -223 -86q-85 -85 -85 -227q0 -140 84 -226q84 -84 224 -86q127 1 218 79q6 6 12 0l21 -18q6 -6 -1 -13z
M479 748l-111 80l-111 -80q-8 -5 -14 -5h-42q-8 0 -8.5 3.5t6.5 7.5l139 101q8 5 13 5h33q6 0 14 -5l139 -100q15 -12 -2 -12h-42q-6 0 -14 5z" />
    <glyph glyph-name="ccircumflex" unicode="&#x109;" horiz-adv-x="498" 
d="M460 85q-63 -95 -192 -95q-103 0 -167 64q-63 64 -63 168q0 109 68 171q68 61 163 61q59 0 110 -25t81 -71q5 -8 -1 -13l-18 -16q-7 -6 -13 3q-56 81 -160 81q-84 0 -137 -53q-52 -52 -52 -138q0 -87 52 -139t137 -52q53 0 94.5 22t65.5 59q6 9 12 3l20 -17q5 -5 0 -13z
M124 530l107 133q6 6 13 6h32q6 0 14 -6l105 -132q7 -9 -4 -9h-33q-6 0 -9 5l-89 112l-89 -111q-3 -6 -11 -6h-32q-9 0 -4 8z" />
    <glyph glyph-name="Cdotaccent" unicode="&#x10a;" horiz-adv-x="693" 
d="M650 82q-97 -92 -250 -92q-158 0 -256 99q-98 100 -98 257q0 164 101 260q101 97 253 97q150 0 249 -93q6 -6 0 -13l-19 -17q-6 -6 -13 0q-88 79 -217 79q-137 0 -223 -86q-85 -85 -85 -227q0 -140 84 -226q84 -84 224 -86q127 1 218 79q6 6 12 0l21 -18q6 -6 -1 -13z
M328 804q0 18 11.5 29t29.5 11q19 0 30 -11t11 -29q0 -19 -11 -30t-30 -11q-18 0 -29.5 11t-11.5 30z" />
    <glyph glyph-name="cdotaccent" unicode="&#x10b;" horiz-adv-x="498" 
d="M460 85q-63 -95 -192 -95q-103 0 -167 64q-63 64 -63 168q0 109 68 171q68 61 163 61q59 0 110 -25t81 -71q5 -8 -1 -13l-18 -16q-7 -6 -13 3q-56 81 -160 81q-84 0 -137 -53q-52 -52 -52 -138q0 -87 52 -139t137 -52q53 0 94.5 22t65.5 59q6 9 12 3l20 -17q5 -5 0 -13z
M220 603q0 17 11 28t28 11q18 0 28.5 -11t10.5 -28q0 -18 -10.5 -28.5t-28.5 -10.5q-17 0 -28 10.5t-11 28.5z" />
    <glyph glyph-name="Ccaron" unicode="&#x10c;" horiz-adv-x="693" 
d="M650 82q-97 -92 -250 -92q-158 0 -256 99q-98 100 -98 257q0 164 101 260q101 97 253 97q150 0 249 -93q6 -6 0 -13l-19 -17q-6 -6 -13 0q-88 79 -217 79q-137 0 -223 -86q-85 -85 -85 -227q0 -140 84 -226q84 -84 224 -86q127 1 218 79q6 6 12 0l21 -18q6 -6 -1 -13z
M257 845l111 -81l111 81q8 5 14 5h42q17 0 1 -12l-138 -100q-8 -5 -14 -5h-33q-5 0 -13 5l-138 100q-15 12 2 12h41q6 0 14 -5z" />
    <glyph glyph-name="ccaron" unicode="&#x10d;" horiz-adv-x="498" 
d="M460 85q-63 -95 -192 -95q-103 0 -167 64q-63 64 -63 168q0 109 68 171q68 61 163 61q59 0 110 -25t81 -71q5 -8 -1 -13l-18 -16q-7 -6 -13 3q-56 81 -160 81q-84 0 -137 -53q-52 -52 -52 -138q0 -87 52 -139t137 -52q53 0 94.5 22t65.5 59q6 9 12 3l20 -17q5 -5 0 -13z
M134 669h31q6 0 12 -6l88 -112l89 112q4 6 10 6h32q12 0 5 -9l-106 -132q-6 -6 -13 -6h-33q-7 0 -13 6l-106 132q-8 9 4 9z" />
    <glyph glyph-name="Dcaron" unicode="&#x10e;" horiz-adv-x="665" 
d="M281 652l-143 1v-611h143q140 0 226 83q85 82 85 222q-2 140 -86 222q-85 83 -225 83zM281 0h-178q-10 0 -10 10v674q0 10 10 10h178q160 0 258 -95q97 -94 97 -252q2 -158 -97 -253q-97 -94 -258 -94zM227 845l111 -81l111 81q8 5 14 5h42q17 0 1 -12l-138 -100
q-8 -5 -14 -5h-33q-5 0 -13 5l-138 100q-15 12 2 12h41q6 0 14 -5z" />
    <glyph glyph-name="dcaron" unicode="&#x10f;" horiz-adv-x="712" 
d="M265 -10q-102 0 -165 64q-62 65 -62 168t62 167q63 64 165 64q68 0 119 -30t77 -84v374q0 9 8 9h25q8 0 8 -9v-705q0 -8 -8 -8h-17q-7 0 -9 8l-7 97q-26 -54 -77 -84.5t-119 -30.5zM461 223q0 84 -54 137q-52 52 -139 52q-85 0 -137 -52.5t-52 -137.5q0 -87 52 -139
t137 -52q86 0 139 53q54 52 54 139zM551 448l-10 12q-6 7 2 13q33 26 57 66t25 80q-6 -2 -8 -2q-27 -2 -38 21t0 46t38 21q31 0 41 -27q20 -56 -12 -128q-32 -73 -84 -104q-4 -4 -11 2z" />
    <glyph glyph-name="Dcroat" unicode="&#x110;" horiz-adv-x="669" 
d="M271 0h-178q-10 0 -10 10v312h-52q-8 0 -8 8v26q0 8 8 8h52v320q0 10 10 10h178q160 0 258 -95q97 -94 97 -252q2 -158 -97 -253q-97 -94 -258 -94zM128 322v-280h143q140 0 225 83q85 82 85 222t-85 222q-85 83 -225 83l-143 1v-289h171q9 0 9 -7v-28q0 -7 -9 -7h-171z
" />
    <glyph glyph-name="dslash" unicode="&#x111;" horiz-adv-x="585" 
d="M335 596h126v117q0 9 8 9h25q8 0 8 -9v-117h60q9 0 9 -8v-26q0 -8 -9 -8h-60v-546q0 -8 -8 -8h-17q-7 0 -9 8l-7 97q-26 -54 -77 -84.5t-119 -30.5q-102 0 -165 64q-62 65 -62 168t62 167q63 64 165 64q68 0 119 -30t77 -84v215h-126q-9 0 -9 8v26q0 8 9 8zM268 31
q86 0 139 53q54 52 54 139q0 84 -54 137q-52 52 -139 52q-85 0 -137 -52.5t-52 -137.5q0 -87 52 -139t137 -52z" />
    <glyph glyph-name="Emacron" unicode="&#x112;" horiz-adv-x="509" 
d="M417 333h-279v-291h336q9 0 9 -8v-26q0 -8 -9 -8h-371q-10 0 -10 10v674q0 10 10 10h361q9 0 9 -9v-25q0 -8 -8 -8h-327v-277h279q9 0 9 -8v-26q0 -8 -9 -8zM162 807h228q8 0 8 -8v-26q0 -9 -8 -9h-228q-9 0 -9 9v26q0 8 9 8z" />
    <glyph glyph-name="emacron" unicode="&#x113;" horiz-adv-x="537" 
d="M80 241h377q-6 78 -57 124.5t-132 46.5q-80 0 -131 -46.5t-57 -124.5zM489 203h-409q6 -78 60.5 -125t138.5 -47q96 0 148 58q8 8 14 2l19 -18q6 -5 -1 -12q-65 -71 -180 -71q-108 0 -175 64q-66 64 -66 168q0 102 63 167q64 64 167 64q106 0 168 -65q63 -64 63 -175
q0 -10 -10 -10zM155 627h228q9 0 9 -8v-27q0 -8 -9 -8h-228q-8 0 -8 9v26q0 8 8 8z" />
    <glyph glyph-name="Ebreve" unicode="&#x114;" horiz-adv-x="509" 
d="M417 333h-279v-291h336q9 0 9 -8v-26q0 -8 -9 -8h-371q-10 0 -10 10v674q0 10 10 10h361q9 0 9 -9v-25q0 -8 -8 -8h-327v-277h279q9 0 9 -8v-26q0 -8 -9 -8zM390 859l23 1q8 0 8 -10q-3 -53 -42.5 -86t-102.5 -33q-62 0 -101.5 33t-43.5 86q0 10 8 10h24q7 0 8 -10
q5 -37 33 -57.5t72 -20.5q45 0 73 20.5t33 57.5q2 9 8 9z" />
    <glyph glyph-name="ebreve" unicode="&#x115;" horiz-adv-x="537" 
d="M80 241h377q-6 78 -57 124.5t-132 46.5q-80 0 -131 -46.5t-57 -124.5zM489 203h-409q6 -78 60.5 -125t138.5 -47q96 0 148 58q8 8 14 2l19 -18q6 -5 -1 -12q-65 -71 -180 -71q-108 0 -175 64q-66 64 -66 168q0 102 63 167q64 64 167 64q106 0 168 -65q63 -64 63 -175
q0 -10 -10 -10zM374 684h25q6 0 6 -9q-2 -63 -39.5 -101.5t-98.5 -38.5q-59 0 -97 38.5t-41 101.5q0 9 8 9h24q7 0 7 -8q4 -44 31 -72.5t68 -28.5t68.5 28.5t30.5 72.5q0 8 8 8z" />
    <glyph glyph-name="Edotaccent" unicode="&#x116;" horiz-adv-x="509" 
d="M417 333h-279v-291h336q9 0 9 -8v-26q0 -8 -9 -8h-371q-10 0 -10 10v674q0 10 10 10h361q9 0 9 -9v-25q0 -8 -8 -8h-327v-277h279q9 0 9 -8v-26q0 -8 -9 -8zM235 794q0 18 11.5 29t29.5 11q19 0 30 -11t11 -29q0 -19 -11 -30t-30 -11q-18 0 -29.5 11t-11.5 30z" />
    <glyph glyph-name="edotaccent" unicode="&#x117;" horiz-adv-x="537" 
d="M80 241h377q-6 78 -57 124.5t-132 46.5q-80 0 -131 -46.5t-57 -124.5zM489 203h-409q6 -78 60.5 -125t138.5 -47q96 0 148 58q8 8 14 2l19 -18q6 -5 -1 -12q-65 -71 -180 -71q-108 0 -175 64q-66 64 -66 168q0 102 63 167q64 64 167 64q106 0 168 -65q63 -64 63 -175
q0 -10 -10 -10zM228 613q0 18 11 29t30 11q18 0 29 -11t11 -29q0 -19 -11 -30t-29 -11q-19 0 -30 11t-11 30z" />
    <glyph glyph-name="Eogonek" unicode="&#x118;" horiz-adv-x="509" 
d="M417 333h-279v-291h336q9 0 9 -8v-26q0 -8 -9 -8h-371q-10 0 -10 10v674q0 10 10 10h361q9 0 9 -9v-25q0 -8 -8 -8h-327v-277h279q9 0 9 -8v-26q0 -8 -9 -8zM482 -172q-29 -36 -82 -36q-42 0 -68 24t-26 63q0 28 20 60q19 30 36 46q33 30 47 42l21 -22
q-47 -44 -65.5 -70.5t-18.5 -54.5q0 -23 15 -37.5t39 -14.5q33 0 52 22q7 7 13 3l17 -12q6 -5 0 -13z" />
    <glyph glyph-name="eogonek" unicode="&#x119;" horiz-adv-x="537" 
d="M80 241h377q-6 78 -57 124.5t-132 46.5q-80 0 -131 -46.5t-57 -124.5zM489 203h-409q6 -78 60.5 -125t138.5 -47q96 0 148 58q8 8 14 2l19 -18q6 -5 -1 -12q-65 -71 -180 -71q-108 0 -175 64q-66 64 -66 168q0 102 63 167q64 64 167 64q106 0 168 -65q63 -64 63 -175
q0 -10 -10 -10zM429 -169q-29 -36 -82 -36q-42 0 -68 24t-26 63q0 42 38 86l30 31l35 31l21 -22q-46 -41 -65 -68.5t-19 -55.5q0 -24 15 -38.5t39 -14.5q30 0 52 22q7 7 13 3l17 -12q7 -5 0 -13z" />
    <glyph glyph-name="Ecaron" unicode="&#x11a;" horiz-adv-x="509" 
d="M417 333h-279v-291h336q9 0 9 -8v-26q0 -8 -9 -8h-371q-10 0 -10 10v674q0 10 10 10h361q9 0 9 -9v-25q0 -8 -8 -8h-327v-277h279q9 0 9 -8v-26q0 -8 -9 -8zM175 845l111 -81l111 81q8 5 14 5h42q17 0 1 -12l-138 -100q-8 -5 -14 -5h-33q-5 0 -13 5l-138 100q-15 12 2 12
h41q6 0 14 -5z" />
    <glyph glyph-name="ecaron" unicode="&#x11b;" horiz-adv-x="537" 
d="M80 241h377q-6 78 -57 124.5t-132 46.5q-80 0 -131 -46.5t-57 -124.5zM489 203h-409q6 -78 60.5 -125t138.5 -47q96 0 148 58q8 8 14 2l19 -18q6 -5 -1 -12q-65 -71 -180 -71q-108 0 -175 64q-66 64 -66 168q0 102 63 167q64 64 167 64q106 0 168 -65q63 -64 63 -175
q0 -10 -10 -10zM138 670h31q5 0 11 -6l89 -112l88 112q6 6 10 6h33q11 0 4 -10l-106 -131q-4 -7 -12 -7h-34q-7 0 -13 6l-105 132q-7 10 4 10z" />
    <glyph glyph-name="Gcircumflex" unicode="&#x11c;" horiz-adv-x="760" 
d="M667 311h-256q-9 0 -9 9v24q0 9 9 9h290q11 0 9 -9q-2 -170 -85.5 -262t-236.5 -91q-154 0 -249 98q-94 97 -94 258q0 160 98 258q100 98 259 98q145 0 246 -92q6 -7 1 -12l-20 -19q-6 -6 -13 0q-85 79 -214 79q-140 0 -226 -86q-86 -87 -85 -226q0 -141 81 -226
q83 -86 216 -86q126 0 198 71.5t81 204.5zM485 750l-105 76l-106 -76q-5 -4 -13 -4h-40q-15 0 -2 10l132 96q8 5 13 5h31q8 0 13 -5l132 -95q14 -11 -2 -11h-39q-7 0 -14 4z" />
    <glyph glyph-name="gcircumflex" unicode="&#x11d;" horiz-adv-x="577" 
d="M265 453q70 0 121 -31t76 -87l7 100q2 8 9 8h17q8 0 8 -8l1 -441q1 -103 -63 -167q-63 -64 -162 -64q-99 2 -184 50q-6 5 -3 12l13 23q4 6 11 2q74 -43 163 -46q82 0 132.5 50.5t51.5 134.5v120q-56 -119 -198 -119q-102 0 -165 64q-62 65 -62 168q0 102 62 167
q63 64 165 64zM79 222q0 -87 52 -139t137 -52q85 -1 140 52q54 53 54 139q0 84 -54 137q-55 53 -140 53t-137 -52.5t-52 -137.5zM142 526l110 136q4 7 13 7h33q7 0 14 -7l108 -135q8 -9 -4 -9h-34q-6 0 -9 5l-91 115l-92 -114q-3 -6 -10 -6h-34q-9 0 -4 8z" />
    <glyph glyph-name="Gbreve" unicode="&#x11e;" horiz-adv-x="760" 
d="M670 311h-256q-9 0 -9 9v24q0 9 9 9h290q10 0 9 -9q-2 -170 -85.5 -262t-236.5 -91q-154 0 -249 98q-94 97 -94 258q0 160 98 258q100 98 259 98q145 0 246 -92q7 -7 1 -12l-20 -19q-6 -6 -13 0q-85 79 -214 79q-140 0 -226 -86q-87 -87 -85 -226q0 -141 81 -226
q83 -86 216 -86q126 0 198 71.5t81 204.5zM490 859l23 1q7 0 7 -10q-2 -53 -42 -86t-103 -33q-62 0 -101.5 33t-42.5 86q0 10 7 10h25q7 0 8 -10q4 -37 32 -57.5t72 -20.5q45 0 73 20.5t33 57.5q1 9 9 9z" />
    <glyph glyph-name="gbreve" unicode="&#x11f;" horiz-adv-x="577" 
d="M265 453q70 0 121 -31t76 -87l7 100q2 8 9 8h17q8 0 8 -8l1 -441q1 -103 -63 -167q-63 -64 -162 -64q-99 2 -184 50q-6 5 -3 12l13 23q4 6 11 2q74 -43 163 -46q82 0 132.5 50.5t51.5 134.5v120q-56 -119 -198 -119q-102 0 -165 64q-62 65 -62 168q0 102 62 167
q63 64 165 64zM79 222q0 -87 52 -139t137 -52q85 -1 140 52q54 53 54 139q0 84 -54 137q-55 53 -140 53t-137 -52.5t-52 -137.5zM387 684h24q7 0 7 -9q-2 -63 -40 -101.5t-98 -38.5q-59 0 -97 38.5t-41 101.5q0 9 8 9h23q8 0 8 -8q4 -44 31 -72.5t68 -28.5t68 28.5t31 72.5
q0 8 8 8z" />
    <glyph glyph-name="Gdotaccent" unicode="&#x120;" horiz-adv-x="760" 
d="M669 311h-256q-9 0 -9 9v24q0 9 9 9h290q11 0 9 -9q-2 -170 -85.5 -262t-236.5 -91q-154 0 -249 98q-94 97 -94 258q0 160 98 258q100 98 259 98q145 0 246 -92q6 -7 1 -12l-20 -19q-6 -6 -13 0q-85 79 -214 79q-140 0 -226 -86q-86 -87 -85 -226q0 -141 81 -226
q83 -86 216 -86q126 0 198 71.5t81 204.5zM339 804q0 18 11.5 29t29.5 11q19 0 30 -11t11 -29q0 -19 -11 -30t-30 -11q-18 0 -29.5 11t-11.5 30z" />
    <glyph glyph-name="gdotaccent" unicode="&#x121;" horiz-adv-x="577" 
d="M265 453q70 0 121 -31t76 -87l7 100q2 8 9 8h17q8 0 8 -8l1 -441q1 -103 -63 -167q-63 -64 -162 -64q-99 2 -184 50q-6 5 -3 12l13 23q4 6 11 2q74 -43 163 -46q82 0 132.5 50.5t51.5 134.5v120q-56 -119 -198 -119q-102 0 -165 64q-62 65 -62 168q0 102 62 167
q63 64 165 64zM79 222q0 -87 52 -139t137 -52q85 -1 140 52q54 53 54 139q0 84 -54 137q-55 53 -140 53t-137 -52.5t-52 -137.5zM231 628q0 18 11 29t30 11q24 3 34.5 -18.5t0.5 -43t-35 -19.5q-19 0 -30 11t-11 30z" />
    <glyph glyph-name="uni0122" unicode="&#x122;" horiz-adv-x="758" 
d="M668 311h-256q-9 0 -9 9v24q0 9 9 9h290q10 0 9 -9q-2 -170 -85.5 -262t-236.5 -91q-154 0 -249 98q-94 97 -94 258q0 160 98 258q100 98 259 98q145 0 246 -92q7 -7 1 -12l-20 -19q-6 -6 -13 0q-85 79 -214 79q-140 0 -226 -86q-87 -87 -85 -226q0 -141 81 -226
q83 -86 216 -86q126 0 198 71.5t81 204.5zM388 -112q-8 -2 -10 -2q-16 2 -25.5 13.5t-9.5 27.5q0 19 11 30.5t30 11.5q28 0 39 -26q17 -46 -7.5 -90.5t-75.5 -66.5q-9 -4 -13 3l-9 14q-4 7 3 10q60 26 67 75z" />
    <glyph glyph-name="uni0123" unicode="&#x123;" horiz-adv-x="577" 
d="M265 453q70 0 121 -31t76 -87l7 100q2 8 9 8h17q8 0 8 -8l1 -441q1 -103 -63 -167q-63 -64 -162 -64q-99 2 -184 50q-6 5 -3 12l13 23q4 6 11 2q74 -43 163 -46q82 0 132.5 50.5t51.5 134.5v120q-56 -119 -198 -119q-102 0 -165 64q-62 65 -62 168q0 102 62 167
q63 64 165 64zM79 222q0 -87 52 -139t137 -52q85 -1 140 52q54 53 54 139q0 84 -54 137q-55 53 -140 53t-137 -52.5t-52 -137.5zM269 575q8 2 10 2q16 -2 25.5 -13.5t9.5 -27.5q0 -19 -11 -30.5t-30 -11.5q-28 0 -39 26q-17 46 7.5 90.5t75.5 66.5q9 4 13 -3l9 -14
q4 -7 -3 -10q-60 -26 -67 -75z" />
    <glyph glyph-name="Hcircumflex" unicode="&#x124;" horiz-adv-x="674" 
d="M129 0h-27q-9 0 -9 9v676q0 9 9 9h28q8 0 8 -9v-310h398v310q0 9 9 9h28q8 0 8 -9v-676q0 -9 -9 -9h-28q-8 0 -8 9v324h-398v-324q0 -9 -9 -9zM442 747l-105 76l-106 -76q-7 -4 -13 -4h-40q-15 0 -2 10l132 96q8 5 13 5h31q5 0 13 -5l132 -95q14 -11 -2 -11h-40
q-6 0 -13 4z" />
    <glyph glyph-name="hcircumflex" unicode="&#x125;" horiz-adv-x="543" 
d="M79 8v705q0 9 8 9h25q8 0 8 -9v-377q44 117 168 117q85 0 131 -50t46 -148v-246q0 -9 -7 -9h-26q-8 0 -8 9v247q0 77 -36 116.5t-104 39.5q-69 0 -114 -53q-46 -53 -50 -132l1 -219q0 -8 -8 -8h-26q-8 0 -8 8zM378 760l-106 76l-105 -76q-8 -5 -13 -5h-40q-8 0 -8.5 3.5
t6.5 7.5l132 96q7 4 12 4h31q7 0 14 -4l132 -95q14 -12 -2 -12h-40q-8 0 -13 5z" />
    <glyph glyph-name="Hbar" unicode="&#x126;" horiz-adv-x="674" 
d="M138 685v-133h397v133q1 9 9 9h29q8 0 8 -9v-133h38q8 0 8 -8v-27q0 -6 -8 -8h-38v-500q0 -9 -9 -9h-28q-9 0 -9 9v324h-397v-324q0 -9 -9 -9h-27q-9 0 -9 9v500h-42q-8 0 -8 8v27q0 8 8 8h42v133q0 9 9 9h28q8 0 8 -9zM535 509h-397v-134h397v134z" />
    <glyph glyph-name="hbar" unicode="&#x127;" horiz-adv-x="544" 
d="M285 563v-26q0 -8 -8 -8h-156v-193q43 117 168 117q85 0 131 -50t46 -148v-246q0 -9 -7 -9h-26q-8 0 -8 9v247q0 77 -36 116.5t-104 39.5q-69 0 -114 -53q-46 -53 -50 -132l1 -219q0 -8 -8 -8h-26q-8 0 -8 8v521h-52q-8 0 -8 8v26q0 8 8 8h52v142q0 9 8 9h25q8 0 8 -9
v-142h156q8 0 8 -8z" />
    <glyph glyph-name="Itilde" unicode="&#x128;" horiz-adv-x="231" 
d="M138 685v-677q0 -8 -9 -8h-27q-9 0 -9 8v677q0 9 9 9h27q9 0 9 -9zM-3 759q-4 -9 -10 -3l-15 10q-4 4 -3 12q29 83 88 83q22 0 39.5 -13t27.5 -28.5t24.5 -28.5t30.5 -13q36 1 59 63q3 10 11 4l15 -10q6 -6 3 -12q-27 -83 -89 -83q-27 0 -47.5 20.5t-37.5 41t-37 20.5
q-37 -2 -59 -63z" />
    <glyph glyph-name="itilde" unicode="&#x129;" horiz-adv-x="207" 
d="M124 434v-425q0 -9 -8 -9h-24q-9 0 -9 9v425q0 9 8 9h24q9 0 9 -9zM-22 547q-4 -9 -12 -4l-16 13q-4 3 -3 9q15 42 39.5 65t52.5 23q22 0 40 -13.5t28 -30t25 -29.5t32 -12q37 1 61 65q2 8 10 3l17 -13q7 -3 2 -8q-12 -41 -36.5 -64.5t-54.5 -23.5q-21 0 -39.5 13.5
t-29.5 29t-26 29t-31 13.5q-37 -2 -59 -65z" />
    <glyph glyph-name="Imacron" unicode="&#x12a;" horiz-adv-x="231" 
d="M138 685v-677q0 -8 -9 -8h-27q-9 0 -9 8v677q0 9 9 9h27q9 0 9 -9zM1 807h228q8 0 8 -8v-27q0 -7 -8 -7h-228q-9 0 -9 8v26q0 8 9 8z" />
    <glyph glyph-name="imacron" unicode="&#x12b;" horiz-adv-x="207" 
d="M124 434v-425q0 -9 -8 -9h-24q-9 0 -9 9v425q0 9 8 9h24q9 0 9 -9zM-11 627h228q8 0 8 -9v-26q0 -8 -8 -8h-228q-9 0 -9 9v25q0 9 9 9z" />
    <glyph glyph-name="Ibreve" unicode="&#x12c;" horiz-adv-x="232" 
d="M138 685v-677q0 -8 -9 -8h-27q-9 0 -9 8v677q0 9 9 9h27q9 0 9 -9zM237 860l24 1q8 0 8 -10q-3 -56 -44.5 -90.5t-108.5 -34.5q-65 0 -106.5 34.5t-45.5 90.5q0 10 8 10h26q7 0 8 -10q5 -39 34 -60.5t76 -21.5q48 0 77.5 21.5t34.5 60.5q2 9 9 9z" />
    <glyph glyph-name="ibreve" unicode="&#x12d;" horiz-adv-x="209" 
d="M124 435v-427q0 -8 -8 -8h-25q-8 0 -8 8v427q0 8 8 8h25q8 0 8 -8zM213 683h25q7 0 7 -10q-2 -65 -41 -104t-101 -39q-61 0 -99.5 39t-41.5 104q0 10 8 10h24q8 0 8 -9q4 -45 32 -74t69 -29q42 0 70 29t32 74q0 9 8 9z" />
    <glyph glyph-name="Iogonek" unicode="&#x12e;" horiz-adv-x="231" 
d="M138 685v-677q0 -8 -9 -8h-27q-9 0 -9 8v677q0 9 9 9h27q9 0 9 -9zM207 -168q-27 -35 -81 -35q-41 0 -66 23t-25 61q0 34 24 65.5t71 68.5l7 5l23 -18q-49 -44 -67.5 -68.5t-18.5 -50.5q0 -23 14.5 -37t37.5 -14q30 0 51 21q7 7 13 3l16 -12q6 -4 1 -12z" />
    <glyph glyph-name="iogonek" unicode="&#x12f;" horiz-adv-x="207" 
d="M124 434v-425q0 -9 -9 -9h-23q-9 0 -9 9v425q0 9 8 9h24q9 0 9 -9zM60 614q-3 25 19.5 35.5t45 0t19.5 -35.5q3 -27 -19.5 -38t-45 0.5t-19.5 37.5zM172 -169q-28 -36 -82 -36q-42 0 -68 24t-26 62q0 42 38 86l30 31l35 31l21 -21q-47 -44 -65.5 -70.5t-18.5 -54.5
q0 -23 15 -37.5t39 -14.5q31 0 53 22q6 7 12 3l17 -13q6 -5 0 -12z" />
    <glyph glyph-name="Idot" unicode="&#x130;" horiz-adv-x="231" 
d="M138 685v-677q0 -8 -9 -8h-27q-9 0 -9 8v677q0 9 9 9h27q9 0 9 -9zM75 794q-2 24 19.5 34.5t43 0t18.5 -34.5q3 -25 -18.5 -36t-43 0t-19.5 36z" />
    <glyph glyph-name="dotlessi" unicode="&#x131;" horiz-adv-x="207" 
d="M125 434v-425q0 -9 -9 -9h-25q-8 0 -8 9v425q0 9 8 9h25q9 0 9 -9z" />
    <glyph glyph-name="IJ" unicode="&#x132;" horiz-adv-x="617" 
d="M139 685v-676q0 -9 -9 -9h-27q-9 0 -9 9v676q0 8 9 8h27q9 0 9 -8zM480 156v529q0 8 8 8h27q9 0 9 -8l1 -530q1 -76 -38 -120t-106 -44q-71 0 -135 56q-7 4 -2 12l14 23q5 7 13 2q62 -48 111 -50q96 2 98 122z" />
    <glyph glyph-name="ij" unicode="&#x133;" horiz-adv-x="434" 
d="M124 434v-425q0 -9 -9 -9h-23q-9 0 -9 9v425q0 9 8 9h24q9 0 9 -9zM60 614q-3 25 19.5 35.5t45 0t19.5 -35.5q3 -27 -19.5 -38t-45 0.5t-19.5 37.5zM298 582q-12 12 -12 31t12 30q12 12 31 12t30 -12q11 -11 11 -30t-11 -31q-11 -11 -30 -11t-31 11zM311 -71l-1 505
q0 9 9 9h24q8 0 8 -9l1 -509q1 -78 -29 -120t-89 -42q-56 0 -101 30q-9 6 -3 13l13 21q4 7 13 1q44 -26 76 -25q78 0 79 126z" />
    <glyph glyph-name="Jcircumflex" unicode="&#x134;" horiz-adv-x="390" 
d="M253 156l-1 529q0 9 9 9h27q9 0 9 -9l1 -530q1 -76 -38 -120t-107 -45q-71 2 -134 57q-5 3 -2 12l14 23q5 8 13 2q63 -48 111 -50q95 2 98 122zM380 747l-106 76l-105 -76q-7 -4 -14 -4h-40q-15 0 -1 10l132 96q5 5 12 5h31q6 0 14 -5l132 -95q14 -11 -2 -11h-40
q-8 0 -13 4z" />
    <glyph glyph-name="jcircumflex" unicode="&#x135;" horiz-adv-x="236" 
d="M113 -71v505q0 9 8 9h25q8 0 8 -9l1 -509q0 -78 -30 -120.5t-88 -42.5q-58 2 -102 31q-8 5 -3 13l13 21q3 6 14 1q37 -25 76 -25q78 0 78 126zM-8 522l112 140q4 7 14 7h34q7 0 14 -7l111 -139q7 -9 -4 -9h-35q-5 0 -10 5l-93 118l-94 -117q-3 -6 -11 -6h-34q-10 0 -4 8z
" />
    <glyph glyph-name="uni0136" unicode="&#x136;" horiz-adv-x="549" 
d="M122 685v-330l313 333q7 6 12 6h38q15 0 4 -11l-318 -336l348 -336q11 -11 -4 -11h-41q-8 0 -13 5l-339 334v-331q0 -8 -9 -8h-27q-9 0 -9 8v677q0 9 9 9h27q9 0 9 -9zM277 -112q-8 -2 -10 -2q-16 2 -25.5 13.5t-9.5 27.5q0 19 11 30.5t30 11.5q28 0 39 -26
q17 -46 -7.5 -90.5t-75.5 -66.5q-9 -4 -13 3l-9 14q-4 7 3 10q60 26 67 75z" />
    <glyph glyph-name="uni0137" unicode="&#x137;" horiz-adv-x="421" 
d="M333 443h39q18 0 4 -11l-219 -194l251 -228q11 -10 -5 -10h-39q-8 0 -13 5l-240 220v-217q0 -8 -8 -8h-25q-8 0 -8 8v706q0 8 9 8h23q9 0 9 -8v-467l209 191q8 5 13 5zM227 -112q-8 -2 -10 -2q-16 2 -25.5 13.5t-9.5 27.5q0 19 11 30.5t30 11.5q28 0 39 -26
q17 -46 -7.5 -90.5t-75.5 -66.5q-9 -4 -13 3l-9 14q-4 7 3 10q60 26 67 75z" />
    <glyph glyph-name="kgreenlandic" unicode="&#x138;" horiz-adv-x="415" 
d="M343 443h39q15 0 4 -11l-219 -209l251 -213q11 -10 -5 -10h-39q-5 0 -13 5l-240 205v-202q0 -8 -8 -8h-25q-8 0 -8 8v427q0 9 9 9h23q9 -2 9 -9v-203l209 206q8 5 13 5z" />
    <glyph glyph-name="Lacute" unicode="&#x139;" horiz-adv-x="451" 
d="M138 685v-643h275q9 0 9 -9v-25q0 -8 -9 -8h-311q-9 0 -9 9v676q0 9 9 9h27q9 0 9 -9zM216 868l19 -32q5 -8 -3 -12l-181 -104q-8 -5 -12 2l-10 16q-5 8 1 12l174 120q8 5 12 -2z" />
    <glyph glyph-name="lacute" unicode="&#x13a;" horiz-adv-x="207" 
d="M124 714v-706q0 -8 -8 -8h-25q-8 0 -8 8v706q0 8 8 8h25q8 0 8 -8zM204 911l18 -32q4 -6 -4 -11l-175 -102q-8 -5 -12 2l-11 16q-5 8 2 12l169 117q8 3 13 -2z" />
    <glyph glyph-name="uni013B" unicode="&#x13b;" horiz-adv-x="451" 
d="M138 685v-643h275q9 0 9 -9v-25q0 -8 -9 -8h-311q-9 0 -9 9v676q0 9 9 9h27q9 0 9 -9zM265 -112q-8 -2 -10 -2q-16 2 -25.5 13.5t-9.5 27.5q0 19 11 30.5t30 11.5q28 0 39 -26q17 -46 -7.5 -90.5t-75.5 -66.5q-9 -4 -13 3l-9 14q-4 7 3 10q60 26 67 75z" />
    <glyph glyph-name="uni013C" unicode="&#x13c;" horiz-adv-x="207" 
d="M124 714v-706q0 -8 -8 -8h-25q-8 0 -8 8v706q0 8 8 8h25q8 0 8 -8zM108 -112q-8 -2 -10 -2q-16 2 -25.5 13.5t-9.5 27.5q0 19 11 30.5t30 11.5q28 0 39 -26q17 -46 -7.5 -90.5t-75.5 -66.5q-9 -4 -13 3l-9 14q-4 7 3 10q60 26 67 75z" />
    <glyph glyph-name="Lcaron" unicode="&#x13d;" horiz-adv-x="451" 
d="M138 685v-643h275q9 0 9 -9v-25q0 -8 -9 -8h-311q-9 0 -9 9v676q0 9 9 9h27q9 0 9 -9zM256 449l-10 12q-6 7 2 13q33 26 57 66t25 80q-6 -2 -8 -2q-26 -3 -37 20.5t0 47t37 20.5q30 0 41 -27q19 -55 -12 -128q-32 -72 -83 -104q-6 -4 -12 2z" />
    <glyph glyph-name="lcaron" unicode="&#x13e;" horiz-adv-x="344" 
d="M124 714v-706q0 -8 -8 -8h-25q-8 0 -8 8v706q0 8 8 8h25q8 0 8 -8zM187 449l-10 12q-6 7 2 13q33 26 57 66t25 80q-6 -2 -8 -2q-26 -3 -37 20.5t0 47t37 20.5q31 0 41 -27q19 -55 -12 -128q-32 -72 -83 -104q-6 -4 -12 2z" />
    <glyph glyph-name="Ldot" unicode="&#x13f;" horiz-adv-x="451" 
d="M138 685v-643h275q9 0 9 -9v-25q0 -8 -9 -8h-311q-9 0 -9 9v676q0 9 9 9h27q9 0 9 -9zM264 398q0 20 12 32t32 12q29 4 40 -26.5t-9 -49.5q-18 -19 -48.5 -7.5t-26.5 39.5z" />
    <glyph glyph-name="ldot" unicode="&#x140;" horiz-adv-x="329" 
d="M124 714v-706q0 -8 -8 -8h-25q-8 0 -8 8v706q0 8 8 8h25q8 0 8 -8zM228 423q26 2 37 -21t0 -45.5t-37 -20.5q-27 -3 -38.5 20t0 46.5t38.5 20.5z" />
    <glyph glyph-name="Lslash" unicode="&#x141;" horiz-adv-x="451" 
d="M52 301l272 117q8 3 8 -5v-28q0 -8 -8 -13l-272 -117q-8 -5 -8 5v29q0 7 8 12zM138 685v-643h275q9 0 9 -9v-25q0 -8 -9 -8h-311q-9 0 -9 9v676q0 9 9 9h27q9 0 9 -9z" />
    <glyph glyph-name="lslash" unicode="&#x142;" horiz-adv-x="207" 
d="M91 722h25q8 0 8 -8v-361l90 43q8 5 8 -5v-28q0 -8 -8 -13l-90 -42v-300q0 -8 -8 -8h-25q-8 0 -8 8v280l-87 -42q-9 -3 -9 6v27q0 9 9 13l87 42v380q0 8 8 8z" />
    <glyph glyph-name="Nacute" unicode="&#x143;" horiz-adv-x="725" 
d="M596 694h28q8 0 8 -9v-675q0 -10 -10 -10h-37q-7 0 -12 6l-435 620v-617q0 -9 -9 -9h-27q-9 0 -9 9v675q0 10 10 10h36q8 0 12 -7l436 -622v620q0 9 9 9zM462 868l19 -32q5 -8 -3 -12l-181 -104q-8 -5 -12 2l-10 16q-5 8 1 12l174 120q8 5 12 -2z" />
    <glyph glyph-name="nacute" unicode="&#x144;" 
d="M80 8v427q0 8 8 8h18q7 0 9 -8l6 -101q44 119 168 119q85 0 131 -50t46 -148v-246q0 -9 -8 -9h-25q-8 0 -8 9v247q0 77 -36 116.5t-104 39.5q-69 0 -114 -53t-50 -133l1 -218q0 -8 -8 -8h-25q-9 0 -9 8zM360 677l24 -29q6 -8 -2 -11l-153 -112q-7 -5 -12 0l-12 16
q-6 6 0 12l144 124q5 8 11 0z" />
    <glyph glyph-name="uni0145" unicode="&#x145;" horiz-adv-x="725" 
d="M596 694h28q8 0 8 -9v-675q0 -10 -10 -10h-37q-7 0 -12 6l-435 620v-617q0 -9 -9 -9h-27q-9 0 -9 9v675q0 10 10 10h36q8 0 12 -7l436 -622v620q0 9 9 9zM363 -112q-8 -2 -10 -2q-16 2 -25.5 13.5t-9.5 27.5q0 19 11 30.5t30 11.5q28 0 39 -26q17 -46 -7.5 -90.5
t-75.5 -66.5q-9 -4 -13 3l-9 14q-4 7 3 10q60 26 67 75z" />
    <glyph glyph-name="uni0146" unicode="&#x146;" horiz-adv-x="544" 
d="M80 8v427q0 8 8 8h18q7 0 9 -8l6 -101q44 119 168 119q85 0 131 -50t46 -148v-246q0 -9 -8 -9h-25q-8 0 -8 9v247q0 77 -36 116.5t-104 39.5q-69 0 -114 -53t-50 -133l1 -218q0 -8 -8 -8h-25q-9 0 -9 8zM281 -112q-8 -2 -10 -2q-16 2 -25.5 13.5t-9.5 27.5q0 19 11 30.5
t30 11.5q28 0 39 -26q17 -46 -7.5 -90.5t-75.5 -66.5q-9 -4 -13 3l-9 14q-4 7 3 10q60 26 67 75z" />
    <glyph glyph-name="Ncaron" unicode="&#x147;" horiz-adv-x="725" 
d="M596 694h28q8 0 8 -9v-675q0 -10 -10 -10h-37q-7 0 -12 6l-435 620v-617q0 -9 -9 -9h-27q-9 0 -9 9v675q0 10 10 10h36q8 0 12 -7l436 -622v620q0 9 9 9zM251 845l111 -81l111 81q8 5 14 5h42q17 0 1 -12l-138 -100q-8 -5 -14 -5h-33q-5 0 -13 5l-138 100q-15 12 2 12h41
q6 0 14 -5z" />
    <glyph glyph-name="ncaron" unicode="&#x148;" 
d="M80 8v427q0 8 8 8h18q7 0 9 -8l6 -101q44 119 168 119q85 0 131 -50t46 -148v-246q0 -9 -8 -9h-25q-8 0 -8 9v247q0 77 -36 116.5t-104 39.5q-69 0 -114 -53t-50 -133l1 -218q0 -8 -8 -8h-25q-9 0 -9 8zM135 669h33q6 0 12 -6l93 -118l93 118q6 6 11 6h34q12 0 5 -10
l-112 -138q-4 -7 -13 -7h-35q-8 0 -14 6l-111 139q-7 10 4 10z" />
    <glyph glyph-name="napostrophe" unicode="&#x149;" horiz-adv-x="551" 
d="M86 8v427q0 8 8 8h18q7 0 9 -8l6 -101q44 119 168 119q85 0 131 -50t46 -148v-246q0 -9 -8 -9h-25q-8 0 -8 9v247q0 77 -36 116.5t-104 39.5q-69 0 -114 -53t-50 -133l1 -218q0 -8 -8 -8h-25q-9 0 -9 8zM-1 449l-10 12q-6 7 2 13q33 26 57 66t25 80q-6 -2 -8 -2
q-26 -3 -37 20.5t0 47t37 20.5q31 0 41 -27q19 -55 -12 -128q-32 -72 -83 -104q-6 -4 -12 2z" />
    <glyph glyph-name="Eng" unicode="&#x14a;" horiz-adv-x="711" 
d="M581 -73l-1 64l-449 635v-617q0 -9 -9 -9h-27q-9 0 -9 9v675q0 10 10 10h36q8 0 12 -7l436 -616v614q0 9 9 9h28q8 0 8 -9l1 -758q1 -76 -38 -120.5t-107 -44.5q-66 0 -134 56q-7 4 -2 13l15 24q3 6 12 1q62 -50 111 -50q95 0 98 121z" />
    <glyph glyph-name="eng" unicode="&#x14b;" horiz-adv-x="548" 
d="M247 -207q-8 5 -3 13l14 21q4 6 12 1q37 -25 77 -25q77 0 79 126l-1 327q0 77 -36 116.5t-104 39.5q-69 0 -114 -53t-50 -133l1 -217q0 -9 -9 -9h-24q-9 0 -9 9v425q0 9 9 9h16q8 0 10 -8l6 -101q44 119 168 119q85 0 131 -50t46 -148l1 -330q0 -78 -30.5 -120.5
t-87.5 -42.5q-58 2 -102 31z" />
    <glyph glyph-name="Omacron" unicode="&#x14c;" horiz-adv-x="797" 
d="M754 347q0 -161 -98 -259q-97 -97 -257 -97q-161 0 -259 98t-98 258t98 258q100 98 259 98t257 -98t98 -258zM88 347q0 -141 85 -226q86 -86 226 -86q138 0 224 86t86 226t-86 226t-224 86q-140 0 -226 -86q-87 -87 -85 -226zM285 807h228q8 0 8 -8v-26q0 -9 -8 -9h-228
q-9 0 -9 9v26q0 8 9 8z" />
    <glyph glyph-name="omacron" unicode="&#x14d;" horiz-adv-x="537" 
d="M38 222q0 102 63 167q64 64 167 64q104 0 167 -64q64 -63 64 -167t-64 -168t-167 -64t-167 64q-63 64 -63 168zM79 222q0 -87 52 -139t137 -52t137 52q53 53 53 139t-52 138t-138 52q-85 0 -137 -52.5t-52 -137.5zM155 628h228q9 0 9 -9v-26q0 -8 -9 -8h-228q-8 0 -8 9
v25q0 9 8 9z" />
    <glyph glyph-name="Obreve" unicode="&#x14e;" horiz-adv-x="797" 
d="M754 347q0 -161 -98 -259q-97 -97 -257 -97q-161 0 -259 98t-98 258t98 258q100 98 259 98t257 -98t98 -258zM88 347q0 -141 85 -226q86 -86 226 -86q138 0 224 86t86 226t-86 226t-224 86q-140 0 -226 -86q-87 -87 -85 -226zM514 859l23 1q7 0 7 -10q-3 -53 -42.5 -86
t-102.5 -33q-62 0 -101.5 33t-43.5 86q0 10 8 10h25q6 0 7 -10q5 -37 33 -57.5t72 -20.5q45 0 73 20.5t33 57.5q1 9 9 9z" />
    <glyph glyph-name="obreve" unicode="&#x14f;" horiz-adv-x="537" 
d="M38 222q0 102 63 167q64 64 167 64q104 0 167 -64q64 -63 64 -167t-64 -168t-167 -64t-167 64q-63 64 -63 168zM79 222q0 -87 52 -139t137 -52t137 52q53 53 53 139t-52 138t-138 52q-85 0 -137 -52.5t-52 -137.5zM374 684h25q6 0 6 -9q-2 -63 -39.5 -101.5t-98.5 -38.5
q-59 0 -97 38.5t-41 101.5q0 9 8 9h24q7 0 7 -8q4 -44 31 -72.5t68 -28.5t68.5 28.5t30.5 72.5q0 8 8 8z" />
    <glyph glyph-name="Ohungarumlaut" unicode="&#x150;" horiz-adv-x="797" 
d="M754 347q0 -161 -98 -259q-97 -97 -257 -97q-161 0 -259 98t-98 258t98 258q100 98 259 98t257 -98t98 -258zM88 347q0 -141 85 -226q86 -86 226 -86q138 0 224 86t86 226t-86 226t-224 86q-140 0 -226 -86q-87 -87 -85 -226zM526 865l33 -24q9 -5 1 -13l-92 -98
q-7 -6 -14 -2l-15 11q-7 4 -2 13l75 111q7 7 14 2zM371 866l33 -25q8 -5 1 -12l-92 -99q-7 -7 -13 -2l-16 11q-7 4 -2 13l76 111q5 8 13 3z" />
    <glyph glyph-name="ohungarumlaut" unicode="&#x151;" horiz-adv-x="537" 
d="M38 222q0 102 63 167q64 64 167 64q104 0 167 -64q64 -63 64 -167t-64 -168t-167 -64t-167 64q-63 64 -63 168zM79 222q0 -87 52 -139t137 -52t137 52q53 53 53 139t-52 138t-138 52q-85 0 -137 -52.5t-52 -137.5zM382 705l32 -18q9 -6 3 -13l-99 -133q-6 -6 -11 -3
l-17 10q-7 3 -1 12l80 140q5 10 13 5zM226 705l34 -19q8 -5 2 -12l-99 -133q-4 -7 -11 -2l-17 9q-7 3 -1 12l81 140q4 9 11 5z" />
    <glyph glyph-name="OE" unicode="&#x152;" horiz-adv-x="764" 
d="M717 0h-327q-159 3 -253 96q-94 94 -94 251q0 158 96 251q96 94 255 96h313q9 0 9 -8v-26q0 -8 -9 -8h-279v-277h230q10 0 10 -9v-25q0 -8 -10 -8h-230v-291h289q9 0 9 -8v-26q0 -8 -9 -8zM383 45v604q-135 -5 -215 -86q-80 -82 -80 -216t80 -216q82 -81 215 -86z" />
    <glyph glyph-name="oe" unicode="&#x153;" horiz-adv-x="934" 
d="M264 31q84 0 134 52t50 139q0 85 -50 137.5t-134 52.5q-83 0 -134 -52t-51 -138t51 -139q51 -52 134 -52zM489 241h365q-6 78 -55.5 124.5t-129.5 46.5q-78 0 -126 -46t-54 -125zM38 222q0 102 62 167q63 64 164 64q74 0 127 -34.5t77 -95.5q24 62 76 96t125 34
q107 0 167 -67q60 -68 60 -175q0 -8 -10 -8h-397q6 -79 57 -125.5t134 -46.5q91 0 145 58q7 7 13 2l19 -18q6 -5 -1 -12q-65 -71 -175 -71q-77 0 -132.5 34.5t-80.5 97.5q-24 -63 -77 -97.5t-127 -34.5q-101 0 -164 64q-62 65 -62 168z" />
    <glyph glyph-name="Racute" unicode="&#x154;" horiz-adv-x="537" 
d="M438 5l-184 294h-135v-290q0 -9 -9 -9h-28q-9 0 -9 9v675q0 10 10 10h196q103 0 163 -53t61 -144q-1 -86 -54.5 -138.5t-144.5 -58.5l186 -289q8 -11 -5 -11h-38q-6 0 -9 5zM281 652h-162v-311h162q83 0 129.5 41.5t46.5 113.5t-47.5 114.5t-128.5 41.5zM394 868l19 -32
q5 -8 -3 -12l-181 -104q-8 -5 -12 2l-10 16q-5 8 1 12l174 120q8 5 12 -2z" />
    <glyph glyph-name="racute" unicode="&#x155;" horiz-adv-x="349" 
d="M311 399q-33 12 -68 12q-39 0 -72 -27.5t-50 -75.5v-300q0 -8 -7 -8h-26q-8 0 -8 8v427q0 8 8 8h18q7 0 9 -8l3 -63q22 36 56.5 57.5t75.5 22.5q34 0 73 -12q9 -2 6 -10l-9 -27q-1 -7 -9 -4zM265 675l24 -29q6 -8 -2 -11l-153 -112q-6 -5 -12 0l-12 16q-4 6 0 12l144 124
q6 6 11 0z" />
    <glyph glyph-name="uni0156" unicode="&#x156;" horiz-adv-x="561" 
d="M458 5l-184 294h-135v-290q0 -9 -9 -9h-28q-9 0 -9 9v675q0 10 10 10h196q103 0 163 -53t61 -144q-1 -86 -54.5 -138.5t-144.5 -58.5l186 -289q8 -11 -5 -11h-38q-6 0 -9 5zM301 652h-162v-311h162q83 0 129.5 41.5t46.5 113.5t-47.5 114.5t-128.5 41.5zM282 -112
q-8 -2 -10 -2q-16 2 -25.5 13.5t-9.5 27.5q0 19 11 30.5t30 11.5q28 0 39 -26q17 -46 -7.5 -90.5t-75.5 -66.5q-9 -4 -13 3l-9 14q-4 7 3 10q60 26 67 75z" />
    <glyph glyph-name="uni0157" unicode="&#x157;" horiz-adv-x="378" 
d="M341 399q-33 12 -68 12q-39 0 -72 -27.5t-50 -75.5v-300q0 -8 -7 -8h-26q-8 0 -8 8v427q0 8 8 8h18q7 0 9 -8l3 -63q22 36 56.5 57.5t75.5 22.5q34 0 73 -12q9 -2 6 -10l-9 -27q-1 -7 -9 -4zM132 -112q-8 -2 -10 -2q-16 2 -25.5 13.5t-9.5 27.5q0 19 11 30.5t30 11.5
q28 0 39 -26q17 -46 -7.5 -90.5t-75.5 -66.5q-9 -4 -13 3l-9 14q-4 7 3 10q60 26 67 75z" />
    <glyph glyph-name="Rcaron" unicode="&#x158;" horiz-adv-x="549" 
d="M451 5l-184 294h-135v-290q0 -9 -9 -9h-28q-9 0 -9 9v675q0 10 10 10h196q103 0 163 -53t61 -144q-1 -86 -54.5 -138.5t-144.5 -58.5l186 -289q8 -11 -5 -11h-38q-6 0 -9 5zM294 652h-162v-311h162q83 0 129.5 41.5t46.5 113.5t-47.5 114.5t-128.5 41.5zM167 845l111 -81
l111 81q8 5 14 5h42q17 0 1 -12l-138 -100q-8 -5 -14 -5h-33q-5 0 -13 5l-138 100q-15 12 2 12h41q6 0 14 -5z" />
    <glyph glyph-name="rcaron" unicode="&#x159;" horiz-adv-x="349" 
d="M311 399q-33 12 -68 12q-39 0 -72 -27.5t-50 -75.5v-300q0 -8 -7 -8h-26q-8 0 -8 8v427q0 8 8 8h18q7 0 9 -8l3 -63q22 36 56.5 57.5t75.5 22.5q34 0 73 -12q9 -2 6 -10l-9 -27q-1 -7 -9 -4zM55 670h33q6 0 12 -6l93 -118l93 118q6 6 11 6h34q12 0 5 -10l-112 -138
q-4 -7 -13 -7h-35q-8 0 -14 6l-111 139q-7 10 4 10z" />
    <glyph glyph-name="Sacute" unicode="&#x15a;" horiz-adv-x="565" 
d="M52 74q-7 6 -3 13l15 24q5 9 14 0q81 -75 214 -77q82 0 131 38.5t49 101.5q0 57 -44 87q-41 30 -158 59q-116 28 -165 72q-48 43 -50 120q-1 82 64 137q66 55 168 54q127 -1 197 -67q7 -4 4 -13l-13 -27q-5 -8 -13 -1q-74 63 -180 63q-77 0 -130 -41q-52 -40 -52 -102
q-1 -59 43 -91q44 -30 161 -61q114 -30 162.5 -70t50.5 -108q3 -89 -57.5 -142.5t-173.5 -52.5q-152 2 -234 84zM382 868l19 -32q5 -8 -3 -12l-181 -104q-8 -5 -12 2l-10 16q-5 8 1 12l174 120q8 5 12 -2z" />
    <glyph glyph-name="sacute" unicode="&#x15b;" horiz-adv-x="408" 
d="M43 40q-6 4 -3 12l12 21q3 7 11 2q62 -44 139 -44q55 0 90 23.5t35 58.5t-28 53.5t-104 38.5q-79 21 -113 47q-32 25 -34 75q-2 56 43 92t118 35q75 0 131 -42q6 -3 3 -12l-10 -21q-3 -8 -11 -3q-56 38 -117 38q-52 0 -84 -22.5t-32 -58.5q0 -37 27 -54t103 -36
q82 -23 115 -49.5t34 -75.5q2 -57 -45 -93q-48 -35 -124 -34q-98 0 -156 49zM287 677l24 -29q6 -8 -2 -11l-153 -112q-6 -5 -12 0l-11 16q-6 6 0 12l143 124q7 7 11 0z" />
    <glyph glyph-name="Scircumflex" unicode="&#x15c;" horiz-adv-x="565" 
d="M52 74q-7 6 -3 13l15 24q5 9 14 0q81 -75 214 -77q82 0 131 38.5t49 101.5q0 57 -44 87q-41 30 -158 59q-116 28 -165 72q-48 43 -50 120q-1 82 64 137q66 55 168 54q127 -1 197 -67q7 -4 4 -13l-13 -27q-5 -8 -13 -1q-74 63 -180 63q-77 0 -130 -41q-52 -40 -52 -102
q-1 -59 43 -91q44 -30 161 -61q114 -30 162.5 -70t50.5 -108q3 -89 -57.5 -142.5t-173.5 -52.5q-152 2 -234 84zM389 740l-106 76l-105 -76q-7 -4 -14 -4h-40q-15 0 -1 10l132 96q5 5 12 5h31q6 0 14 -5l132 -95q14 -11 -2 -11h-40q-8 0 -13 4z" />
    <glyph glyph-name="scircumflex" unicode="&#x15d;" horiz-adv-x="408" 
d="M43 40q-6 4 -3 12l12 21q3 7 11 2q62 -44 139 -44q55 0 90 23.5t35 58.5t-28 53.5t-104 38.5q-79 21 -113 47q-32 25 -34 75q-2 56 43 92t118 35q75 0 131 -42q6 -3 3 -12l-10 -21q-3 -8 -11 -3q-56 38 -117 38q-52 0 -84 -22.5t-32 -58.5q0 -37 27 -54t103 -36
q82 -23 115 -49.5t34 -75.5q2 -57 -45 -93q-48 -35 -124 -34q-98 0 -156 49zM61 522l112 140q4 7 14 7h34q7 0 14 -7l111 -139q8 -9 -4 -9h-35q-5 0 -10 5l-93 118l-94 -117q-3 -6 -11 -6h-34q-10 0 -4 8z" />
    <glyph glyph-name="Scedilla" unicode="&#x15e;" horiz-adv-x="565" 
d="M52 74q-7 6 -3 13l15 24q5 9 14 0q81 -75 214 -77q82 0 131 38.5t49 101.5q0 57 -44 87q-41 30 -158 59q-116 28 -165 72q-48 43 -50 120q-1 82 64 137q66 55 168 54q127 -1 197 -67q7 -4 4 -13l-13 -27q-5 -8 -13 -1q-74 63 -180 63q-77 0 -130 -41q-52 -40 -52 -102
q-1 -59 43 -91q44 -30 161 -61q114 -30 162.5 -70t50.5 -108q3 -89 -57.5 -142.5t-173.5 -52.5q-152 2 -234 84zM267 0h38l-21 -49q95 -4 97 -73q0 -37 -27 -60t-70 -23q-52 0 -94 33q-5 4 -1 11l10 15q4 5 11 1q41 -26 74 -26q27 0 43.5 13.5t16.5 35.5q-2 38 -78 38h-25
q-11 0 -6 9z" />
    <glyph glyph-name="scedilla" unicode="&#x15f;" horiz-adv-x="408" 
d="M43 40q-6 4 -3 12l12 21q3 7 11 2q62 -44 139 -44q55 0 90 23.5t35 58.5t-28 53.5t-104 38.5q-79 21 -113 47q-32 25 -34 75q-2 56 43 92t118 35q75 0 131 -42q6 -3 3 -12l-10 -21q-3 -8 -11 -3q-56 38 -117 38q-52 0 -84 -22.5t-32 -58.5q0 -37 27 -54t103 -36
q82 -23 115 -49.5t34 -75.5q2 -57 -45 -93q-48 -35 -124 -34q-98 0 -156 49zM188 0h39l-22 -52q100 -4 102 -76q0 -40 -28.5 -64t-73.5 -24q-52 0 -99 35q-5 4 -1 11l11 16q4 6 12 1q42 -27 77 -27q29 0 46.5 14t17.5 38q-1 40 -83 40h-26q-10 0 -6 9z" />
    <glyph glyph-name="Scaron" unicode="&#x160;" horiz-adv-x="565" 
d="M52 74q-7 6 -3 13l15 24q5 9 14 0q81 -75 214 -77q82 0 131 38.5t49 101.5q0 57 -44 87q-41 30 -158 59q-116 28 -165 72q-48 43 -50 120q-1 82 64 137q66 55 168 54q127 -1 197 -67q7 -4 4 -13l-13 -27q-5 -8 -13 -1q-74 63 -180 63q-77 0 -130 -41q-52 -40 -52 -102
q-1 -59 43 -91q44 -30 161 -61q114 -30 162.5 -70t50.5 -108q3 -89 -57.5 -142.5t-173.5 -52.5q-152 2 -234 84zM172 845l111 -81l111 81q8 5 14 5h42q18 0 1 -12l-138 -100q-8 -5 -14 -5h-33q-5 0 -13 5l-138 100q-15 12 2 12h41q6 0 14 -5z" />
    <glyph glyph-name="scaron" unicode="&#x161;" horiz-adv-x="409" 
d="M45 40q-6 4 -3 12l12 21q3 7 11 2q62 -44 139 -44q55 0 90 23.5t35 58.5t-28 53.5t-104 38.5q-79 21 -113 47q-32 25 -34 75q-2 56 43 92t118 35q75 0 131 -42q6 -3 3 -12l-10 -21q-3 -8 -11 -3q-56 38 -117 38q-52 0 -84 -22.5t-32 -58.5q0 -37 27 -54t103 -36
q82 -23 115 -49.5t34 -75.5q2 -57 -45 -93q-48 -35 -124 -34q-98 0 -156 49zM63 669h33q6 0 12 -6l93 -118l93 118q6 6 11 6h34q12 0 5 -10l-112 -138q-4 -7 -13 -7h-35q-8 0 -14 6l-111 139q-7 10 4 10z" />
    <glyph glyph-name="uni0162" unicode="&#x162;" horiz-adv-x="534" 
d="M289 684l1 -675q0 -9 -9 -9h-27q-10 0 -10 9v675q0 9 10 9h26q9 0 9 -9zM10 660v25q0 8 9 8h496q10 0 10 -8v-24q0 -9 -10 -9h-497q-8 0 -8 8z" />
    <glyph glyph-name="uni0163" unicode="&#x163;" horiz-adv-x="331" 
d="M283 58q8 7 13 1l16 -22q4 -7 -3 -12q-37 -34 -87 -34q-52 0 -79 42t-26 120l1 445q0 9 8 9h24q9 0 9 -9l-1 -439q1 -70 17.5 -99t50.5 -29q30 0 57 27zM20 413v21q0 9 9 9h256q9 0 9 -9v-21q0 -7 -9 -7h-256q-9 0 -9 7z" />
    <glyph glyph-name="Tcaron" unicode="&#x164;" horiz-adv-x="533" 
d="M244 8v644h-226q-9 0 -9 9v24q0 9 9 9h497q9 0 9 -9v-24q0 -9 -9 -9h-226v-644q0 -8 -8 -8h-28q-9 0 -9 8zM155 845l111 -81l111 81q8 5 14 5h42q17 0 1 -12l-138 -100q-8 -5 -14 -5h-33q-5 0 -13 5l-138 100q-15 12 2 12h41q6 0 14 -5z" />
    <glyph glyph-name="tcaron" unicode="&#x165;" horiz-adv-x="376" 
d="M158 405v-246q1 -69 17.5 -98t50.5 -30q28 0 59 28q5 5 11 0l16 -22q4 -7 -3 -12q-40 -34 -87 -34q-52 0 -79 42t-26 120v252h-88q-9 0 -9 9v21q0 8 9 8h88l1 155q0 9 8 9h24q9 0 9 -9l-1 -155h127q9 0 9 -8v-21q0 -9 -9 -9h-127zM307 615q-8 -2 -10 -2q-16 2 -25.5 13.5
t-9.5 27.5q0 19 11 30.5t30 11.5q28 0 39 -26q17 -46 -7.5 -90.5t-75.5 -66.5q-9 -4 -13 3l-9 14q-4 7 3 10q60 26 67 75z" />
    <glyph glyph-name="Tbar" unicode="&#x166;" horiz-adv-x="533" 
d="M524 685v-24q0 -9 -9 -9h-226v-268h132q8 0 8 -8v-26q0 -8 -8 -8h-132v-334q0 -8 -8 -8h-28q-9 0 -9 8v334h-132q-8 0 -8 8v26q0 8 8 8h132v268h-226q-8 0 -8 9v24q0 9 8 9h497q9 0 9 -9z" />
    <glyph glyph-name="tbar" unicode="&#x167;" horiz-adv-x="331" 
d="M282 238h-124v-79q1 -69 17.5 -98t50.5 -30q28 0 59 28q5 5 11 0l16 -22q4 -7 -3 -12q-40 -34 -87 -34q-52 0 -79 42t-26 120v85h-84q-8 0 -8 8v26q0 8 8 8h84v125h-88q-9 0 -9 9v21q0 8 9 8h88l1 155q0 9 8 9h24q9 0 9 -9l-1 -155h127q9 0 9 -8v-21q0 -9 -9 -9h-127
v-125h124q8 0 8 -8v-26q0 -8 -8 -8z" />
    <glyph glyph-name="Utilde" unicode="&#x168;" horiz-adv-x="666" 
d="M86 272v412q0 9 9 9h27q9 0 9 -9v-413q0 -110 54.5 -173t148.5 -63q92 0 146 62.5t54 173.5v414q0 8 9 8h28q9 0 9 -8v-414q0 -132 -67 -206q-68 -74 -179 -74q-113 -2 -181 74q-67 74 -67 207zM210 757q-5 -8 -12 -4l-15 12q-6 4 -3 11q14 41 38.5 64t52.5 23
q22 0 40 -13.5t28 -30t25 -29.5t32 -12q35 2 60 64q4 7 11 3l15 -11q5 -4 4 -10q-29 -87 -91 -87q-22 0 -40 13.5t-28.5 29t-25.5 29t-31 13.5q-41 -2 -60 -65z" />
    <glyph glyph-name="utilde" unicode="&#x169;" 
d="M431 8l-6 101q-44 -119 -168 -119q-85 0 -131.5 50t-46.5 148v246q0 9 8 9h25q8 0 8 -9v-247q0 -77 36 -116.5t104 -39.5q69 0 114 53q45 51 50 133v218q0 8 8 8h25q8 0 8 -8v-427q0 -8 -8 -8h-17q-9 0 -9 8zM147 547q-3 -9 -11 -4l-16 13q-4 3 -3 9q15 42 39.5 65
t52.5 23q22 0 40 -13.5t28 -30t25 -29.5t32 -12q38 2 60 65q3 8 11 3l17 -13q7 -3 2 -8q-12 -41 -36.5 -64.5t-54.5 -23.5q-21 0 -39.5 13.5t-29.5 29t-26 29t-31 13.5q-35 -2 -60 -65z" />
    <glyph glyph-name="Umacron" unicode="&#x16a;" horiz-adv-x="666" 
d="M86 272v412q0 9 9 9h27q9 0 9 -9v-413q0 -110 54.5 -173t148.5 -63q92 0 146 62.5t54 173.5v414q0 8 9 8h28q9 0 9 -8v-414q0 -132 -67 -206q-68 -74 -179 -74q-113 -2 -181 74q-67 74 -67 207zM219 807h228q8 0 8 -8v-26q0 -9 -8 -9h-228q-9 0 -9 9v26q0 8 9 8z" />
    <glyph glyph-name="umacron" unicode="&#x16b;" 
d="M431 8l-6 101q-44 -119 -168 -119q-85 0 -131.5 50t-46.5 148v246q0 9 8 9h25q8 0 8 -9v-247q0 -77 36 -116.5t104 -39.5q69 0 114 53q45 51 50 133v218q0 8 8 8h25q8 0 8 -8v-427q0 -8 -8 -8h-17q-9 0 -9 8zM159 627h228q8 0 8 -8v-27q0 -7 -8 -7h-228q-9 0 -9 8v26
q0 8 9 8z" />
    <glyph glyph-name="Ubreve" unicode="&#x16c;" horiz-adv-x="666" 
d="M86 272v412q0 9 9 9h27q9 0 9 -9v-413q0 -110 54.5 -173t148.5 -63q92 0 146 62.5t54 173.5v414q0 8 9 8h28q9 0 9 -8v-414q0 -132 -67 -206q-68 -74 -179 -74q-113 -2 -181 74q-67 74 -67 207zM448 859l23 1q7 0 7 -10q-3 -53 -42.5 -86t-102.5 -33q-62 0 -101.5 33
t-42.5 86q0 10 7 10h25q6 0 7 -10q5 -37 33 -57.5t72 -20.5q45 0 73 20.5t33 57.5q1 9 9 9z" />
    <glyph glyph-name="ubreve" unicode="&#x16d;" 
d="M431 8l-6 101q-44 -119 -168 -119q-85 0 -131.5 50t-46.5 148v246q0 9 8 9h25q8 0 8 -9v-247q0 -77 36 -116.5t104 -39.5q69 0 114 53q45 51 50 133v218q0 8 8 8h25q8 0 8 -8v-427q0 -8 -8 -8h-17q-9 0 -9 8zM377 674h25q7 0 7 -10q-2 -62 -40 -100.5t-99 -38.5
q-59 0 -96.5 38.5t-40.5 100.5q0 10 7 10h24q8 0 8 -9q4 -44 30.5 -72t67.5 -28t68.5 28t31.5 72q0 9 7 9z" />
    <glyph glyph-name="Uring" unicode="&#x16e;" horiz-adv-x="666" 
d="M86 272v412q0 9 9 9h27q9 0 9 -9v-413q0 -110 54.5 -173t148.5 -63q92 0 146 62.5t54 173.5v414q0 8 9 8h28q9 0 9 -8v-414q0 -132 -67 -206q-68 -74 -179 -74q-113 -2 -181 74q-67 74 -67 207zM332 895q41 0 66 -25t25 -66t-25 -66t-66 -25q-40 0 -64.5 25t-24.5 66
t24.5 66t64.5 25zM274 804q0 -26 16.5 -42t42.5 -16t42.5 16t16.5 42q0 27 -16.5 43t-42.5 16t-42.5 -16t-16.5 -43z" />
    <glyph glyph-name="uring" unicode="&#x16f;" 
d="M431 8l-6 101q-44 -119 -168 -119q-85 0 -131.5 50t-46.5 148v246q0 9 8 9h25q8 0 8 -9v-247q0 -77 36 -116.5t104 -39.5q69 0 114 53q45 51 50 133v218q0 8 8 8h25q8 0 8 -8v-427q0 -8 -8 -8h-17q-9 0 -9 8zM271 686q41 0 66.5 -25t25.5 -65q0 -41 -25.5 -66.5
t-66.5 -25.5q-40 0 -64.5 25.5t-24.5 66.5t24.5 65.5t64.5 24.5zM213 596q0 -27 16.5 -43t42.5 -16t42.5 16t16.5 43q0 26 -16.5 42.5t-42.5 16.5t-42.5 -16.5t-16.5 -42.5z" />
    <glyph glyph-name="Uhungarumlaut" unicode="&#x170;" horiz-adv-x="666" 
d="M86 272v412q0 9 9 9h27q9 0 9 -9v-413q0 -110 54.5 -173t148.5 -63q92 0 146 62.5t54 173.5v414q0 8 9 8h28q9 0 9 -8v-414q0 -132 -67 -206q-68 -74 -179 -74q-113 -2 -181 74q-67 74 -67 207zM443 872l33 -25q9 -5 1 -13l-92 -98q-7 -7 -13 -2l-16 11q-7 4 -2 13
l75 111q6 8 14 3zM288 872l33 -25q9 -5 1 -13l-92 -98q-7 -7 -13 -2l-16 11q-7 4 -2 13l76 111q5 8 13 3z" />
    <glyph glyph-name="uhungarumlaut" unicode="&#x171;" 
d="M431 8l-6 101q-44 -119 -168 -119q-85 0 -131.5 50t-46.5 148v246q0 9 8 9h25q8 0 8 -9v-247q0 -77 36 -116.5t104 -39.5q69 0 114 53q45 51 50 133v218q0 8 8 8h25q8 0 8 -8v-427q0 -8 -8 -8h-17q-9 0 -9 8zM379 694l32 -18q9 -4 3 -13l-99 -133q-6 -6 -11 -3l-17 11
q-6 1 -1 11l81 141q5 8 12 4zM223 694l34 -19q8 -3 2 -12l-99 -133q-4 -7 -11 -2l-17 10q-6 1 -1 11l81 141q4 7 11 4z" />
    <glyph glyph-name="Uogonek" unicode="&#x172;" horiz-adv-x="666" 
d="M86 272v412q0 9 9 9h27q9 0 9 -9v-413q0 -110 54.5 -173t148.5 -63q92 0 146 62.5t54 173.5v414q0 8 9 8h28q9 0 9 -8v-414q0 -132 -67 -206q-68 -74 -179 -74q-113 -2 -181 74q-67 74 -67 207zM398 -178q-28 -36 -82 -36q-42 0 -68 24t-26 63q0 42 38 86l30 31l35 31
l21 -22q-46 -41 -65 -68.5t-19 -55.5q0 -24 15 -38.5t39 -14.5q28 0 53 22q6 8 12 3l17 -12q6 -5 0 -13z" />
    <glyph glyph-name="uogonek" unicode="&#x173;" 
d="M431 8l-6 101q-44 -119 -168 -119q-85 0 -131.5 50t-46.5 148v246q0 9 8 9h25q8 0 8 -9v-247q0 -77 36 -116.5t104 -39.5q69 0 114 53q45 51 50 133v218q0 8 8 8h25q8 0 8 -8v-427q0 -8 -8 -8h-17q-9 0 -9 8zM510 -167q-27 -35 -81 -35q-41 0 -66 23t-25 60q0 35 30 72
q26 28 29 31q13 12 14 13q6 6 15 13l14 11l23 -18l-47 -44q-39 -41 -39 -76q0 -22 14.5 -36t37.5 -14q30 0 51 21q7 7 13 2l16 -12q6 -4 1 -11z" />
    <glyph glyph-name="Wcircumflex" unicode="&#x174;" horiz-adv-x="853" 
d="M209 8l-196 675q-3 11 6 11h30q9 0 10 -7l174 -614l167 613q2 8 10 8h32q8 0 10 -8l168 -615l174 616q1 7 9 7h31q9 0 6 -11l-196 -675q-3 -8 -12 -8h-26q-9 0 -12 8l-168 622l-168 -622q-2 -8 -10 -8h-27q-9 0 -12 8zM410 854h32q6 0 13 -4l132 -95q15 -12 -2 -12h-40
q-5 0 -13 5l-106 76l-105 -76q-8 -5 -13 -5h-40q-8 0 -8.5 3.5t6.5 7.5l132 96q7 4 12 4z" />
    <glyph glyph-name="wcircumflex" unicode="&#x175;" horiz-adv-x="643" 
d="M478 0h-30q-10 0 -12 8l-114 379l-114 -379q-3 -8 -13 -8h-30q-9 0 -12 8l-139 425q-3 10 5 10h32q7 0 10 -8l119 -390l117 390q3 8 10 8h29q7 0 10 -8l117 -390l120 390q3 8 10 8h31q8 0 5 -10l-138 -425q-3 -8 -13 -8zM217 515h-34q-10 0 -4 8l112 140q4 7 14 7h34
q7 0 14 -7l111 -139q8 -9 -4 -9h-35q-5 0 -10 5l-93 118l-94 -117q-3 -6 -11 -6z" />
    <glyph glyph-name="Ycircumflex" unicode="&#x176;" 
d="M248 8v271l-234 404q-6 10 7 10h33q8 0 13 -8l204 -362l208 362q5 8 13 8h34q10 0 4 -11l-237 -402v-272q0 -8 -9 -8h-27q-9 0 -9 8zM377 743l-105 76l-105 -76q-8 -5 -14 -5h-40q-18 0 -2 11l132 96q7 4 13 4h31q8 0 13 -4l133 -95q14 -12 -2 -12h-40q-6 0 -14 5z" />
    <glyph glyph-name="ycircumflex" unicode="&#x177;" horiz-adv-x="443" 
d="M391 443h29q12 0 6 -13l-271 -649q-5 -9 -12 -9h-25q-12 0 -5 13l90 220l-186 425q-7 13 6 13h29q6 0 11 -9l160 -379l157 379q4 9 11 9zM79 522l112 140q4 7 14 7h34q7 0 14 -7l111 -139q8 -9 -4 -9h-35q-5 0 -10 5l-93 118l-94 -117q-3 -6 -11 -6h-34q-10 0 -4 8z" />
    <glyph glyph-name="Ydieresis" unicode="&#x178;" 
d="M248 8v271l-234 404q-6 10 7 10h33q8 0 13 -8l204 -362l208 362q5 8 13 8h34q10 0 4 -11l-237 -402v-272q0 -8 -9 -8h-27q-9 0 -9 8zM146 791q-3 28 20.5 39.5t47 0t20.5 -39.5q2 -26 -21 -37t-46 0t-21 37zM310 791q0 20 12 32.5t32 12.5q19 0 31 -12.5t12 -32.5
q0 -19 -12 -31t-31 -12q-20 0 -32 12t-12 31z" />
    <glyph glyph-name="Zacute" unicode="&#x179;" horiz-adv-x="560" 
d="M517 677l-416 -635h422q8 0 8 -9v-24q0 -9 -8 -9h-484q-19 0 -9 16l416 635h-399q-9 0 -9 9v25q0 8 9 8h461q19 0 9 -16zM377 868l19 -32q4 -8 -3 -12l-181 -104q-8 -5 -12 2l-10 16q-5 8 1 12l174 120q8 5 12 -2z" />
    <glyph glyph-name="zacute" unicode="&#x17a;" horiz-adv-x="451" 
d="M395 0h-335q-19 0 -9 16l281 389h-266q-8 0 -8 8v22q0 8 8 8h322q20 0 8 -17l-281 -388h280q8 0 8 -8v-22q0 -8 -8 -8zM331 666l24 -29q6 -7 -2 -12l-153 -111q-6 -6 -12 0l-11 15q-6 7 0 13l143 124q7 7 11 0z" />
    <glyph glyph-name="Zdotaccent" unicode="&#x17b;" horiz-adv-x="560" 
d="M517 677l-416 -635h422q8 0 8 -9v-24q0 -9 -8 -9h-484q-19 0 -9 16l416 635h-399q-9 0 -9 9v25q0 8 9 8h461q19 0 9 -16zM238 799q0 18 11.5 29t28.5 11q19 0 30 -11t11 -29q0 -19 -11 -30t-30 -11q-18 0 -29 11t-11 30z" />
    <glyph glyph-name="zdotaccent" unicode="&#x17c;" horiz-adv-x="451" 
d="M395 0h-335q-19 0 -9 16l281 389h-266q-8 0 -8 8v22q0 8 8 8h322q20 0 8 -17l-281 -388h280q8 0 8 -8v-22q0 -8 -8 -8zM188 617q0 19 11 29.5t29 10.5q40 0 40 -40q0 -18 -10.5 -29t-29.5 -11q-18 0 -29 11t-11 29z" />
    <glyph glyph-name="Zcaron" unicode="&#x17d;" horiz-adv-x="560" 
d="M517 677l-416 -635h422q8 0 8 -9v-24q0 -9 -8 -9h-484q-19 0 -9 16l416 635h-399q-9 0 -9 9v25q0 8 9 8h461q19 0 9 -16zM168 845l111 -81l111 81q8 5 14 5h42q18 0 1 -12l-138 -100q-8 -5 -14 -5h-33q-5 0 -13 5l-138 100q-15 12 2 12h41q6 0 14 -5z" />
    <glyph glyph-name="zcaron" unicode="&#x17e;" horiz-adv-x="451" 
d="M395 0h-335q-19 0 -9 16l281 389h-266q-8 0 -8 8v22q0 8 8 8h322q20 0 8 -17l-281 -388h280q8 0 8 -8v-22q0 -8 -8 -8zM91 670h33q6 0 12 -6l93 -118l93 118q6 6 11 6h34q12 0 5 -10l-112 -138q-4 -7 -13 -7h-35q-8 0 -14 6l-111 139q-7 10 4 10z" />
    <glyph glyph-name="longs" unicode="&#x17f;" horiz-adv-x="305" 
d="M140 565l1 -556q0 -9 -7 -9h-26q-8 0 -8 9l-1 561q0 75 34.5 119t93.5 44q56 0 102 -31q7 -4 4 -11l-15 -23q-3 -6 -11 -1q-37 25 -78 25q-42 0 -65 -32.5t-24 -94.5z" />
    <glyph glyph-name="florin" unicode="&#x192;" horiz-adv-x="455" 
d="M482 690l-17 -22q-4 -7 -14 0q-32 23 -74 23q-83 0 -103 -126l-19 -131h146q11 0 9 -9l-3 -22q-2 -8 -11 -8h-146l-42 -303q-14 -98 -75 -133.5t-157 -1.5q-10 3 -4 11l15 23q5 6 13 3q69 -26 112 2t55 107l40 292h-66q-8 0 -7 10l3 21q0 8 10 8h66l19 136q10 77 50 120
t100 43q55 0 97 -30q7 -7 3 -13z" />
    <glyph glyph-name="uni0218" unicode="&#x218;" horiz-adv-x="565" 
d="M52 74q-7 6 -3 13l15 24q5 9 14 0q81 -75 214 -77q82 0 131 38.5t49 101.5q0 57 -44 87q-41 30 -158 59q-116 28 -165 72q-48 43 -50 120q-1 82 64 137q66 55 168 54q127 -1 197 -67q7 -4 4 -13l-13 -27q-5 -8 -13 -1q-74 63 -180 63q-77 0 -130 -41q-52 -40 -52 -102
q-1 -59 43 -91q44 -30 161 -61q114 -30 162.5 -70t50.5 -108q3 -89 -57.5 -142.5t-173.5 -52.5q-152 2 -234 84zM281 -112q-8 -2 -10 -2q-16 2 -25.5 13.5t-9.5 27.5q0 19 11 30.5t30 11.5q28 0 39 -26q17 -46 -7.5 -90.5t-75.5 -66.5q-9 -4 -13 3l-9 14q-4 7 3 10
q60 26 67 75z" />
    <glyph glyph-name="uni0219" unicode="&#x219;" horiz-adv-x="408" 
d="M43 40q-6 4 -3 12l12 21q3 7 11 2q62 -44 139 -44q55 0 90 23.5t35 58.5t-28 53.5t-104 38.5q-79 21 -113 47q-32 25 -34 75q-2 56 43 92t118 35q75 0 131 -42q6 -3 3 -12l-10 -21q-3 -8 -11 -3q-56 38 -117 38q-52 0 -84 -22.5t-32 -58.5q0 -37 27 -54t103 -36
q82 -23 115 -49.5t34 -75.5q2 -57 -45 -93q-48 -35 -124 -34q-98 0 -156 49zM206 -112q-8 -2 -10 -2q-16 2 -25.5 13.5t-9.5 27.5q0 19 11 30.5t30 11.5q28 0 39 -26q17 -46 -7.5 -90.5t-75.5 -66.5q-9 -4 -13 3l-9 14q-4 7 3 10q60 26 67 75z" />
    <glyph glyph-name="uni021A" unicode="&#x21a;" horiz-adv-x="533" 
d="M244 8v644h-226q-9 0 -9 9v24q0 9 9 9h497q9 0 9 -9v-24q0 -9 -9 -9h-226v-644q0 -8 -8 -8h-28q-9 0 -9 8zM269 -112q-8 -2 -10 -2q-16 2 -25.5 13.5t-9.5 27.5q0 19 11 30.5t30 11.5q28 0 39 -26q17 -46 -7.5 -90.5t-75.5 -66.5q-9 -4 -13 3l-9 14q-4 7 3 10
q60 26 67 75z" />
    <glyph glyph-name="uni021B" unicode="&#x21b;" horiz-adv-x="331" 
d="M158 405v-246q1 -69 17.5 -98t50.5 -30q28 0 59 28q5 5 11 0l16 -22q4 -7 -3 -12q-40 -34 -87 -34q-52 0 -79 42t-26 120v252h-88q-9 0 -9 9v21q0 8 9 8h88l1 155q0 9 8 9h24q9 0 9 -9l-1 -155h127q9 0 9 -8v-21q0 -9 -9 -9h-127zM208 -112q-8 -2 -10 -2
q-16 2 -25.5 13.5t-9.5 27.5q0 19 11 30.5t30 11.5q28 0 39 -26q17 -46 -7.5 -90.5t-75.5 -66.5q-9 -4 -13 3l-9 14q-4 7 3 10q60 26 67 75z" />
    <glyph glyph-name="uni0237" unicode="&#x237;" horiz-adv-x="226" 
d="M118 -73l-1 530q0 9 9 9h26q9 0 9 -9l1 -536q0 -78 -36.5 -124.5t-97.5 -46.5q-63 0 -107 35q-8 5 -4 12l16 24q4 6 12 1q29 -22 60.5 -27t57 7t41 44.5t14.5 80.5z" />
    <glyph glyph-name="circumflex" unicode="&#x2c6;" horiz-adv-x="394" 
d="M54 528l112 140q4 7 14 7h34q7 0 14 -7l111 -139q7 -9 -4 -9h-35q-5 0 -10 5l-93 118l-94 -117q-3 -6 -11 -6h-34q-10 0 -4 8z" />
    <glyph glyph-name="caron" unicode="&#x2c7;" horiz-adv-x="403" 
d="M64 675h33q6 0 12 -6l93 -118l93 118q6 6 11 6h34q12 0 5 -10l-112 -138q-4 -7 -13 -7h-35q-8 0 -14 6l-111 139q-7 10 4 10z" />
    <glyph glyph-name="uni02C9" unicode="&#x2c9;" horiz-adv-x="325" 
d="M49 694h227q9 0 9 -9v-25q0 -9 -9 -9h-227q-9 0 -9 9v25q0 9 9 9z" />
    <glyph glyph-name="breve" unicode="&#x2d8;" horiz-adv-x="370" 
d="M292 693h23q7 0 7 -9q-2 -63 -40 -101.5t-98 -38.5q-59 0 -97 38.5t-40 101.5q0 9 7 9h23q7 0 9 -8q3 -44 30 -72.5t68 -28.5t68.5 28.5t30.5 72.5q2 8 9 8z" />
    <glyph glyph-name="dotaccent" unicode="&#x2d9;" horiz-adv-x="161" 
d="M81 698q24 3 34.5 -18.5t0 -43t-34.5 -19.5q-25 -2 -36 19.5t0 43t36 18.5z" />
    <glyph glyph-name="ring" unicode="&#x2da;" horiz-adv-x="261" 
d="M130 709q41 0 66 -24.5t25 -65.5t-25 -66t-66 -25t-65.5 25t-24.5 66t25 65.5t65 24.5zM72 618q0 -26 16 -42t42 -16q27 0 43.5 16t16.5 42q0 27 -16.5 43t-43.5 16q-26 0 -42 -16t-16 -43z" />
    <glyph glyph-name="ogonek" unicode="&#x2db;" horiz-adv-x="217" 
d="M238 -178q-31 -37 -83 -37q-42 0 -67.5 24t-25.5 62q0 13 6 35q19 35 31 48l26 27l14 12l26 21l25 -18l-49 -46q-40 -40 -40 -77q0 -23 15 -37t39 -14q31 0 52 21q8 8 13 3l17 -12q6 -4 1 -12z" />
    <glyph glyph-name="tilde" unicode="&#x2dc;" horiz-adv-x="388" 
d="M70 588q-3 -10 -11 -4l-16 12q-5 5 -2 10q14 42 38.5 65t52.5 22q19 1 37.5 -12.5t30.5 -30.5t27.5 -30t29.5 -11q38 2 60 64q3 10 11 4l17 -13q5 -3 3 -8q-14 -42 -38 -65t-54 -23q-28 0 -48.5 21t-38.5 42t-38 21q-36 0 -61 -64z" />
    <glyph glyph-name="hungarumlaut" unicode="&#x2dd;" horiz-adv-x="368" 
d="M291 721l32 -18q9 -5 2 -13l-98 -133q-6 -6 -12 -3l-17 10q-5 5 -1 11l81 141q5 10 13 5zM135 721l34 -19q8 -5 2 -12l-99 -133q-5 -6 -11 -3l-17 10q-5 3 -2 12l81 141q5 8 12 4z" />
    <glyph glyph-name="uni0313" unicode="&#x313;" horiz-adv-x="236" 
d="M128 -112q-8 -2 -10 -2q-16 2 -25.5 13.5t-9.5 27.5q0 19 11 30.5t30 11.5q28 0 39 -26q17 -46 -7.5 -90.5t-75.5 -66.5q-9 -4 -13 3l-9 14q-4 7 3 10q60 26 67 75z" />
    <glyph glyph-name="uni0394" unicode="&#x394;" horiz-adv-x="658" 
d="M356 676l-264 -666l-1 -1q-3 -9 -13 -9h-53q-14 0 -10 13l274 670q4 10 14 10h52zM303 693h52h-1q11 0 15 -10l273 -668q4 -15 -10 -15h-45q-11 0 -14 10l-270 666v17zM591 0h-519v66h519v-66z" />
    <glyph glyph-name="uni03A9" unicode="&#x3a9;" horiz-adv-x="797" 
d="M570 45h193q9 0 9 -8v-29q0 -8 -9 -8h-264q-9 0 -9 10v35q101 41 160 122q60 83 60 180q0 140 -86 226t-225 86q-140 0 -226 -86q-85 -85 -85 -226q0 -99 62 -182q62 -81 166 -119v-36q0 -10 -10 -10h-264q-8 0 -8 9v29q0 8 8 8l185 -1q-85 47 -135 126q-49 80 -49 176
q0 161 97 258q98 98 259 98q159 0 257 -98q98 -97 99 -258q-1 -95 -50.5 -175.5t-134.5 -126.5z" />
    <glyph glyph-name="uni03BC" unicode="&#x3bc;" horiz-adv-x="546" 
d="M113 -227h-25q-8 0 -8 9v652q0 9 8 9h25q8 0 8 -9v-75v-177q3 -151 140 -151q69 0 114 53q45 51 50 133v217q0 9 9 9h23q9 0 9 -9v-425q0 -9 -9 -9h-15q-10 0 -10 8l-6 101q-44 -119 -168 -119q-96 0 -137 65v-273q0 -9 -8 -9z" />
    <glyph glyph-name="pi" unicode="&#x3c0;" horiz-adv-x="572" 
d="M30 410v26q0 8 9 8h494q9 0 9 -8v-26q0 -8 -9 -8h-87v-393q0 -9 -9 -9h-24q-9 0 -10 9v393h-234v-393q0 -9 -9 -9h-25q-9 0 -9 9v393h-87q-9 0 -9 8z" />
    <glyph glyph-name="Wgrave" unicode="&#x1e80;" horiz-adv-x="853" 
d="M209 8l-196 675q-3 11 6 11h30q9 0 10 -7l174 -614l167 613q2 8 10 8h32q8 0 10 -8l168 -615l174 616q1 7 9 7h31q9 0 6 -11l-196 -675q-3 -8 -12 -8h-26q-9 0 -12 8l-168 622l-168 -622q-2 -8 -10 -8h-27q-9 0 -12 8zM492 719l-181 105q-7 3 -3 12l19 31q4 7 13 2
l172 -119q7 -4 2 -12l-10 -17q-4 -7 -12 -2z" />
    <glyph glyph-name="wgrave" unicode="&#x1e81;" horiz-adv-x="643" 
d="M169 0l3 17l126 418q2 8 9 8h19q13 0 8 -15l-126 -419q-2 -9 -13 -9h-26zM190 11l-3 -11h-22q-10 0 -13 8l-137 425q-4 10 4 10h32q7 0 9 -8zM458 0l-4 11l129 424q3 8 9 8h32q8 0 5 -10l-138 -424q-3 -9 -13 -9h-20zM470 21l5 -21h-27q-10 0 -12 9l-124 413q-4 10 -6 20
q3 1 15 1h15q7 0 10 -8zM367 524l-152 110q-10 6 -2 11l23 30q8 7 12 0l144 -125q4 -4 0 -11l-14 -14q-4 -5 -11 -1z" />
    <glyph glyph-name="Wacute" unicode="&#x1e82;" horiz-adv-x="853" 
d="M209 8l-196 675q-3 11 6 11h30q9 0 10 -7l174 -614l167 613q2 8 10 8h32q8 0 10 -8l168 -615l174 616q1 7 9 7h31q9 0 6 -11l-196 -675q-3 -8 -12 -8h-26q-9 0 -12 8l-168 622l-168 -622q-2 -8 -10 -8h-27q-9 0 -12 8zM535 868l19 -32q4 -8 -3 -12l-181 -104q-8 -5 -12 2
l-10 16q-5 8 1 12l174 120q8 5 12 -2z" />
    <glyph glyph-name="wacute" unicode="&#x1e83;" horiz-adv-x="643" 
d="M478 0h-30q-10 0 -12 8l-114 379l-114 -379q-3 -8 -13 -8h-30q-9 0 -12 8l-139 425q-3 10 5 10h32q7 0 10 -8l119 -390l117 390q3 8 10 8h29q7 0 10 -8l117 -390l120 390q3 8 10 8h31q8 0 5 -10l-138 -425q-3 -8 -13 -8zM404 667l24 -29q6 -8 -2 -11l-153 -112
q-6 -5 -12 0l-11 16q-6 6 0 12l143 124q7 7 11 0z" />
    <glyph glyph-name="Wdieresis" unicode="&#x1e84;" horiz-adv-x="853" 
d="M209 8l-196 675q-3 11 6 11h30q9 0 10 -7l174 -614l167 613q2 8 10 8h32q8 0 10 -8l168 -615l174 616q1 7 9 7h31q9 0 6 -11l-196 -675q-3 -8 -12 -8h-26q-9 0 -12 8l-168 622l-168 -622q-2 -8 -10 -8h-27q-9 0 -12 8zM300 791q-2 28 21.5 39.5t47 0t20.5 -39.5
q0 -19 -12.5 -31t-31.5 -12q-20 0 -32.5 12t-12.5 31zM465 791q0 20 12 32.5t31 12.5q20 0 32 -12.5t12 -32.5q2 -26 -21 -37t-45.5 0t-20.5 37z" />
    <glyph glyph-name="wdieresis" unicode="&#x1e85;" horiz-adv-x="643" 
d="M478 0h-30q-10 0 -12 8l-114 379l-114 -379q-3 -8 -13 -8h-30q-9 0 -12 8l-139 425q-3 10 5 10h32q7 0 10 -8l119 -390l117 390q3 8 10 8h29q7 0 10 -8l117 -390l120 390q3 8 10 8h31q8 0 5 -10l-138 -425q-3 -8 -13 -8zM240 657q20 0 32 -12.5t12 -32.5
q4 -28 -26.5 -39.5t-49.5 7.5t-7.5 49.5t39.5 27.5zM360 612q-3 28 20.5 39.5t47 0t20.5 -39.5q0 -19 -12.5 -31t-31.5 -12q-20 0 -32 12t-12 31z" />
    <glyph glyph-name="LatinCapitalLetterSharpS" unicode="&#x1e9e;" horiz-adv-x="627" 
d="M327 42q39 -24 83 -24q53 0 89 32t36 80q0 70 -69 120q-9 7 -41 30t-45 33.5t-27 31t-14 39.5q0 20 12.5 38.5t30 33l35 29t30 33.5t12.5 40q0 45 -46 73q-46 29 -105 29q-79 0 -129 -56q-48 -56 -48 -146v-448q0 -9 -9 -9h-28q-8 0 -8 9v457q0 108 61 172q62 65 161 66
q74 0 135 -40t61 -107q0 -28 -12 -51t-29 -38.5t-34.5 -29t-30.5 -28t-14 -29.5q0 -19 31 -43.5t67.5 -47t67.5 -65t31 -94.5q0 -69 -50 -114q-49 -45 -120 -45q-48 0 -102 26q-9 4 -5 13l11 27q3 7 12 3z" />
    <glyph glyph-name="endash" unicode="&#x2013;" horiz-adv-x="579" 
d="M85 314h409q9 0 9 -8v-26q0 -8 -9 -8h-409q-9 0 -9 8v26q0 8 9 8z" />
    <glyph glyph-name="emdash" unicode="&#x2014;" horiz-adv-x="845" 
d="M85 314h675q9 0 9 -8v-26q0 -9 -9 -9h-675q-9 0 -9 9v26q0 8 9 8z" />
    <glyph glyph-name="quoteleft" unicode="&#x2018;" horiz-adv-x="229" 
d="M166 703l9 -12q6 -7 -2 -13q-33 -26 -57 -66t-25 -80l8 2q27 3 38.5 -20.5t0 -47t-38.5 -20.5q-29 0 -40 27q-21 55 11 127t84 105q6 4 12 -2z" />
    <glyph glyph-name="quoteright" unicode="&#x2019;" horiz-adv-x="229" 
d="M63 449l-10 12q-6 7 2 13q33 26 57 66t25 80q-6 -2 -8 -2q-26 -3 -37 20.5t0 47t37 20.5q31 0 41 -27q19 -55 -12 -128q-32 -72 -83 -104q-6 -4 -12 2z" />
    <glyph glyph-name="quotesinglbase" unicode="&#x201a;" horiz-adv-x="250" 
d="M70 -161l-10 12q-6 7 2 13q33 26 57 66t25 80q-6 -2 -8 -2q-26 -3 -37 20.5t0 47t37 20.5q30 0 41 -27q19 -55 -12 -127q-31 -73 -83 -105q-6 -4 -12 2z" />
    <glyph glyph-name="quotedblleft" unicode="&#x201c;" horiz-adv-x="381" 
d="M166 702l10 -11q5 -6 -2 -13q-33 -26 -57 -66t-25 -80q6 2 8 2q26 3 37.5 -20.5t0.5 -47t-38 -20.5q-30 0 -41 27q-19 55 12 127t83 106q8 3 12 -4zM244 532q6 2 8 2q27 3 38.5 -20.5t0 -47t-38.5 -20.5q-31 0 -41 27q-19 55 12 127q31 73 84 106q7 3 11 -4l10 -12
q5 -6 -2 -12q-33 -26 -57 -66t-25 -80z" />
    <glyph glyph-name="quotedblright" unicode="&#x201d;" horiz-adv-x="401" 
d="M226 448l-10 12q-6 7 2 13q33 26 57 66t25 80l-8 -2q-27 -2 -38.5 21t0 46t38.5 21q30 0 41 -27q19 -55 -12 -128q-32 -73 -84 -104q-5 -4 -11 2zM147 619q-6 -2 -8 -2q-26 -3 -37 20.5t0 47t37 20.5q31 0 41 -27q19 -55 -12 -128q-32 -72 -83 -104q-7 -4 -12 2l-10 13
q-4 6 2 12q33 26 57 66t25 80z" />
    <glyph glyph-name="quotedblbase" unicode="&#x201e;" horiz-adv-x="401" 
d="M220 -162l-10 12q-5 6 2 13q33 26 57 66t25 80q-6 -2 -8 -2q-26 -3 -37 20.5t0 47t37 20.5q30 0 41 -27q19 -55 -12 -127q-31 -73 -83 -105q-6 -4 -12 2zM142 9l-8 -2q-27 -2 -38.5 21t0 46t38.5 21q30 0 41 -27q19 -55 -12 -127q-31 -73 -84 -105q-7 -5 -11 2l-10 13
q-5 7 2 12q33 26 57 66t25 80z" />
    <glyph glyph-name="dagger" unicode="&#x2020;" horiz-adv-x="424" 
d="M386 453h-153v-554q0 -9 -9 -9h-24q-9 0 -9 9v554h-154q-8 0 -8 8v26q0 9 8 9h154v217q0 9 9 9h24q9 0 9 -9v-217h153q9 0 9 -9v-26q0 -8 -9 -8z" />
    <glyph glyph-name="daggerdbl" unicode="&#x2021;" horiz-adv-x="424" 
d="M191 143h-154q-9 0 -8 9l-1 26q2 8 9 9h154v265h-154q-8 0 -8 9v26q0 8 8 8h154v218q0 9 9 9h24q9 0 9 -9v-218h154q8 0 8 -8v-26q0 -9 -8 -9h-154v-265h153q9 0 9 -9v-26q0 -8 -9 -9h-153v-244q0 -9 -9 -9h-24q-9 0 -9 9v244z" />
    <glyph glyph-name="bullet" unicode="&#x2022;" horiz-adv-x="375" 
d="M77 321q0 49 30.5 79.5t79.5 30.5q50 0 80 -31q31 -30 31 -79t-31 -80t-80 -31t-79.5 30.5t-30.5 80.5z" />
    <glyph glyph-name="ellipsis" unicode="&#x2026;" horiz-adv-x="790" 
d="M614 39q-3 28 20.5 39.5t47 0t20.5 -39.5q3 -26 -20.5 -37t-47 0t-20.5 37zM131 84q20 0 32 -12.5t12 -32.5q0 -19 -12 -31t-32 -12q-19 0 -31 12t-12 31q0 20 12 32.5t31 12.5zM351 39q-3 28 20.5 39.5t47 0t20.5 -39.5q3 -26 -20.5 -37t-47 0t-20.5 37z" />
    <glyph glyph-name="perthousand" unicode="&#x2030;" horiz-adv-x="1108" 
d="M38 549q0 70 42 112t112 42q69 0 111 -42t42 -112q0 -69 -42 -111t-111 -42q-70 0 -112 42t-42 111zM191 440q50 0 80 30t30 79q0 50 -30 80t-80 30q-49 0 -79 -30.5t-30 -79.5t30 -79t79 -30zM550 35q49 0 79 30t30 79q0 50 -30 80t-79 30t-80 -31q-30 -30 -30 -79
t30 -79t80 -30zM438 32q-42 43 -42 112t42 111q43 43 112 43t111 -43q43 -42 43 -111t-43 -112q-42 -42 -111 -42q-68 0 -112 42zM916 298q70 0 112 -42.5t42 -111.5t-42 -111.5t-112 -42.5q-69 0 -111 42.5t-42 111.5t42 111.5t111 42.5zM916 35q50 0 80 30t30 79
q0 50 -30 80t-80 30q-49 0 -79 -30.5t-30 -79.5t30 -79t79 -30zM175 12l397 703q4 7 11 7h28q12 0 6 -11l-397 -704q-4 -7 -11 -7h-29q-12 0 -5 12z" />
    <glyph glyph-name="guilsinglleft" unicode="&#x2039;" horiz-adv-x="341" 
d="M231 437l19 -19q4 -8 -2 -14l-126 -138l126 -137q8 -8 2 -13l-19 -19q-7 -7 -13 1l-133 148q-7 7 -7 16v9q0 9 7 16l133 148q5 7 13 2z" />
    <glyph glyph-name="guilsinglright" unicode="&#x203a;" horiz-adv-x="341" 
d="M92 417l19 20q8 5 13 -2l133 -148q5 -6 7 -16v-8q-1 -10 -7 -18l-133 -147q-7 -7 -13 -2l-19 19q-6 7 1 14l126 137l-126 138q-6 8 -1 13z" />
    <glyph glyph-name="fraction" unicode="&#x2044;" horiz-adv-x="471" 
d="M14 11l398 704q4 7 11 7h28q11 0 5 -11l-397 -704q-3 -7 -11 -7h-29q-11 0 -5 11z" />
    <glyph glyph-name="franc" unicode="&#x20a3;" horiz-adv-x="500" 
d="M133 181v-171q0 -10 -8 -10h-28q-9 0 -9 10v171h-60q-9 0 -9 8v25q0 8 9 8h60v461q0 11 11 11h361q9 0 9 -9v-24q0 -9 -9 -9h-327v-277h279q9 0 9 -9v-24q0 -9 -9 -9h-279v-111l168 1q9 0 9 -9v-25q0 -8 -9 -8h-168z" />
    <glyph glyph-name="lira" unicode="&#x20a4;" horiz-adv-x="522" 
d="M142 42h293q9 0 9 -9v-25q0 -8 -9 -8h-348q-12 0 -6 10q51 94 72 171h-90q-9 0 -9 8v25q0 9 9 9h98q8 51 -8 92h-87q-9 0 -9 9v25q0 8 9 8h72l-10 20q-12 26 -20 45q-15 38 -15 88q2 86 52 139q53 54 135 54q110 0 182 -86q8 -7 1 -14l-19 -21q-6 -6 -12 2
q-58 76 -153 76q-63 0 -102.5 -42t-39.5 -108q0 -30 14 -82q14 -33 17 -39l16 -32h149q9 0 9 -8v-25q0 -9 -9 -9l-136 1q14 -46 7 -93h126q9 0 9 -9v-25q0 -8 -9 -8h-133q-13 -56 -55 -139z" />
    <glyph glyph-name="peseta" unicode="&#x20a7;" horiz-adv-x="1050" 
d="M278 299h-161v-289q0 -10 -8 -10h-28q-9 0 -9 10v673q0 11 10 11h196q103 0 163 -53t60 -144t-60 -144.5t-163 -53.5zM280 652l-163 -1v-310h163q83 0 129.5 41.5t46.5 113.5t-47.5 114.5t-128.5 41.5zM560 607h24q9 0 9 -9l-1 -155h126q10 0 10 -9v-20q0 -9 -10 -9h-126
v-246q0 -69 17 -98t51 -30q29 0 52 23q7 7 12 1l16 -22q5 -8 -3 -13q-35 -29 -81 -29q-52 0 -79 42t-26 120v252h-77q-9 0 -9 9v20q0 9 9 9h77l1 155q0 9 8 9zM703 31q-5 5 -1 10l14 21q5 5 11 1q53 -32 121 -32q55 0 90 23.5t35 58.5t-28 53.5t-104 38.5q-79 21 -113 47
q-32 25 -34 75q-2 56 43 92t118 35q72 0 131 -41q6 -5 3 -13l-10 -22q-3 -7 -11 -2q-56 38 -117 38q-52 0 -84 -22.5t-32 -58.5q0 -37 27 -54t103 -36q81 -22 114.5 -49t34.5 -76q2 -57 -45 -93q-48 -35 -124 -34q-87 0 -142 40z" />
    <glyph glyph-name="Euro" unicode="&#x20ac;" horiz-adv-x="622" 
d="M530 161l22 -14q8 -5 3 -14q-31 -68 -82.5 -105t-116.5 -37q-86 0 -147 62.5t-84 173.5h-78q-9 0 -9 9v26q0 8 9 8h71q-4 29 -4 77v15h-67q-9 0 -9 8v26q0 9 9 9h69q12 135 77 217q65 81 163 81q70 0 124 -42.5t84 -119.5q3 -10 -4 -14l-23 -15q-10 -4 -13 7
q-23 65 -68 102.5t-101 37.5q-77 0 -130 -69q-52 -69 -63 -185h158q9 0 9 -9v-26q0 -8 -9 -8h-161v-15q0 -32 5 -77h156q9 0 9 -8v-26q0 -9 -9 -9h-148q20 -90 68.5 -141t114.5 -51q53 0 94.5 32.5t65.5 87.5q6 11 15 6z" />
    <glyph glyph-name="uni2113" unicode="&#x2113;" horiz-adv-x="449" 
d="M249 703q42 0 68.5 -32t34.5 -69.5t8 -79.5q0 -160 -201 -249q15 -263 123 -263q52 0 90 65q4 9 11 6l23 -9q7 -1 4 -11q-21 -41 -54.5 -66t-73.5 -25q-145 0 -163 287l-64 -24q-10 -3 -13 3l-9 23q-3 8 5 11l34 12l45 17q-5 41 -3 109q3 76 10 133q8 66 39 114
q33 48 86 48zM249 663q-105 -6 -91 -347q162 74 162 206q0 56 -18 98q-18 43 -53 43z" />
    <glyph glyph-name="trademark" unicode="&#x2122;" horiz-adv-x="684" 
d="M341 692h19q10 0 13 -9l104 -201l104 201q6 9 14 9h22q10 0 10 -11v-286q0 -9 -9 -9h-17q-9 0 -9 9v236l-98 -190q-4 -7 -12 -9h-9q-9 0 -13 9l-98 191v-237q0 -9 -9 -9h-17q-9 0 -9 9v282q0 15 14 15zM284 685v-16q0 -9 -9 -9h-87v-263q0 -9 -8 -9h-18q-9 0 -9 9v263
h-87q-9 0 -9 9v16q0 9 9 9h209q9 0 9 -9z" />
    <glyph glyph-name="Omega" unicode="&#x2126;" horiz-adv-x="807" 
d="M47 46l185 -1q-86 46 -135.5 126.5t-49.5 175.5q0 160 98 258q100 98 259 98t257 -98t98 -258q0 -94 -50 -176q-50 -80 -134 -126h193q8 0 8 -8v-29q0 -8 -8 -8h-264q-9 0 -10 10v35q101 41 160 122q60 83 60 180q0 140 -86 226t-224 86q-140 0 -226 -86
q-85 -85 -85 -226q0 -99 62 -182q60 -81 165 -119v-36q0 -10 -9 -10h-264q-9 0 -9 9v29q0 8 9 8z" />
    <glyph glyph-name="estimated" unicode="&#x212e;" horiz-adv-x="891" 
d="M445 34q207 0 294 132q5 6 11 6h46q11 0 7 -10q-49 -88 -145 -138q-94 -48 -213 -48q-175 0 -288 100q-114 100 -114 271t114 271q115 100 288 100q175 0 288 -100q115 -100 115 -271v-12q2 -15 -14 -15h-639v-204q91 -82 250 -82zM195 578v-202h500v202q-91 82 -250 82
t-250 -82z" />
    <glyph glyph-name="partialdiff" unicode="&#x2202;" horiz-adv-x="539" 
d="M271 702q211 0 211 -296q0 -119 -26 -217q-47 -194 -221 -198q-87 0 -140 59q-52 58 -52 148q0 87 56 149q57 61 145 61q73 0 122.5 -37.5t64.5 -108.5q10 54 10 144q0 105 -29 172q-36 84 -141 84q-66 0 -122 -38q-7 -6 -13 1l-12 19q-4 7 3 14q59 44 144 44zM406 162
q6 94 -35.5 150t-126.5 56q-70 0 -116 -49q-45 -48 -45 -121q0 -75 41.5 -120.5t110.5 -45.5q120 0 171 130z" />
    <glyph glyph-name="increment" unicode="&#x2206;" horiz-adv-x="658" 
d="M358 684l284 -670q5 -14 -9 -14h-608q-15 0 -9 13l285 671q5 9 12 9h33q8 0 12 -9zM78 43h505l-253 600z" />
    <glyph glyph-name="product" unicode="&#x220f;" horiz-adv-x="621" 
d="M491 -123v735h-361v-735q0 -10 -9 -10h-26q-9 0 -9 10v769q0 10 10 10h429q10 0 10 -10v-769q0 -10 -9 -10h-26q-9 0 -9 10z" />
    <glyph glyph-name="summation" unicode="&#x2211;" horiz-adv-x="604" 
d="M66 -119l277 380l-278 381q-5 6 -2.5 10t10.5 4h473q9 0 9 -9v-27q0 -8 -9 -8h-401l252 -343q6 -8 0 -16l-252 -342h401q9 0 9 -9v-28q0 -8 -9 -8h-473q-18 0 -7 15z" />
    <glyph glyph-name="minus" unicode="&#x2212;" horiz-adv-x="579" 
d="M85 312h409q9 0 9 -8v-23q0 -9 -9 -9h-409q-9 0 -9 9v23q0 8 9 8z" />
    <glyph glyph-name="uni2215" unicode="&#x2215;" horiz-adv-x="471" 
d="M14 11l397 704q3 7 10 7h29q13 0 5 -11l-397 -704q-4 -7 -11 -7h-28q-13 0 -5 11z" />
    <glyph glyph-name="uni2219" unicode="&#x2219;" horiz-adv-x="263" 
d="M100 220q-12 12 -12 32t12 32t31 12t31 -12q13 -12 13 -32t-13 -32q-12 -12 -31 -12t-31 12z" />
    <glyph glyph-name="radical" unicode="&#x221a;" 
d="M246 10l-130 392h-78q-9 0 -9 9v23q0 9 9 9h99q9 0 13 -9l127 -385l208 663q4 10 12 10h25q9 0 6 -10l-220 -702q-3 -10 -14 -10h-35q-10 0 -13 10z" />
    <glyph glyph-name="infinity" unicode="&#x221e;" horiz-adv-x="920" 
d="M460 253q45 66 104.5 104.5t116.5 38.5q81 0 131 -51q51 -51 51 -131q0 -81 -51 -132q-50 -50 -131 -50q-61 -1 -121 40q-57 41 -100 102q-45 -64 -102.5 -103t-118.5 -39q-80 0 -132 50q-50 52 -50 132q0 79 50 131q51 51 132 51q58 0 116.5 -38.5t104.5 -104.5z
M239 354q-62 0 -101 -39t-39 -101q0 -63 38.5 -101.5t101.5 -38.5q55 0 111 41q57 40 87 98q-38 63 -93 102t-105 39zM483 213q30 -57 86 -98q58 -41 112 -41q63 0 101.5 38.5t38.5 101.5q0 62 -38.5 101t-101.5 39q-50 0 -105 -39t-93 -102z" />
    <glyph glyph-name="integral" unicode="&#x222b;" horiz-adv-x="398" 
d="M397 682l-13 -21q-4 -5 -13 -1q-44 30 -73 30q-42 0 -60 -27.5t-18 -91.5v-316l1 -330q0 -161 -117 -163q-55 0 -100 36q-7 7 -3 14l13 21q4 6 12 1q44 -30 76 -30q38 0 56.5 27.5t19.5 91.5v316l-1 330q0 85 28 123.5t91 39.5q52 0 98 -37q7 -6 3 -13z" />
    <glyph glyph-name="approxequal" unicode="&#x2248;" horiz-adv-x="596" 
d="M455 428q3 13 12 4l15 -16q5 -6 2 -13q-18 -53 -49 -82.5t-72 -29.5q-61 0 -100 49q-38 50 -83 49q-61 -1 -88 -84q-5 -15 -13 -4l-14 15q-5 5 -3 14q18 51 50 79t71 28q63 0 101 -50q38 -48 82 -48q57 2 89 89zM454 216q4 10 12 3l15 -16q5 -6 2 -12q-17 -52 -49 -82.5
t-71 -30.5q-60 0 -101 49q-38 50 -83 49q-60 -2 -88 -84q-5 -14 -13 -3l-14 14q-5 5 -2 14q17 51 49 79t71 28q33 0 60 -14.5t41 -35.5q38 -48 82 -48q57 1 89 90z" />
    <glyph glyph-name="notequal" unicode="&#x2260;" horiz-adv-x="524" 
d="M305 409h134q9 0 9 -8v-26q0 -9 -9 -9h-152l-54 -124h206q9 0 9 -9v-26q0 -8 -9 -8h-225l-39 -90q-3 -8 -10 -8h-27q-10 0 -6 12l37 86h-84q-9 0 -9 8v26q0 9 9 9h103l54 124h-157q-9 0 -9 9v26q0 8 9 8h175l43 98q3 8 10 8h27q10 0 6 -12z" />
    <glyph glyph-name="lessequal" unicode="&#x2264;" horiz-adv-x="541" 
d="M490 115l-443 211q-9 4 -9 14v37q0 7 9 12l443 207q11 6 11 -6v-30q0 -8 -9 -12l-419 -190l419 -195q9 -5 9 -11v-31q0 -11 -11 -6zM494 -1h-447q-9 0 -9 8v23q0 9 9 9h447q9 0 9 -8v-24q0 -8 -9 -8z" />
    <glyph glyph-name="greaterequal" unicode="&#x2265;" horiz-adv-x="541" 
d="M494 326l-443 -211q-10 -4 -10 6v31q0 8 8 11l419 195l-419 190q-8 3 -8 12v30q0 10 10 6l443 -207q9 -5 9 -12v-37q0 -10 -9 -14zM494 -1h-447q-9 0 -9 8v24q0 8 9 8h447q9 0 9 -9v-23q0 -8 -9 -8z" />
    <glyph glyph-name="uni24C5" unicode="&#x24c5;" horiz-adv-x="826" 
d="M57 346q0 162 97 259q98 98 259 98q160 0 258 -98t98 -259q0 -160 -98 -258t-258 -98t-258 98t-98 258zM730 346q0 143 -87 230q-87 88 -230 88t-230 -88q-87 -87 -87 -230q0 -142 87 -229t230 -87q142 0 229 87q88 87 88 229zM314 169v359q0 10 10 10h29h88
q57 0 89.5 -28.5t32.5 -79.5t-32.5 -79t-89.5 -28h-88v-154q0 -10 -8 -10h-22q-9 0 -9 10zM442 500l-89 -1v-138h89q39 0 60.5 18t21.5 51q0 34 -21.5 52t-60.5 18z" />
    <glyph glyph-name="lozenge" unicode="&#x25ca;" horiz-adv-x="525" 
d="M219 -32l-162 348q-4 10 0 19l163 349q4 9 14 9h11h26h11q10 0 14 -9l158 -349q5 -11 0 -19l-158 -348q-4 -10 -15 -10h-10h-26h-11q-11 0 -15 10zM258 661l-157 -335l157 -336l152 336z" />
    <glyph glyph-name="ijacute" unicode="&#xe132;" horiz-adv-x="434" 
d="M319 443h24q8 0 8 -9l2 -509q0 -78 -30.5 -120.5t-87.5 -42.5q-58 2 -102 31q-8 6 -4 13l14 21q4 7 13 1q40 -25 77 -25q77 0 78 126v505q0 9 8 9zM91 443h25q8 0 8 -8v-427q0 -8 -8 -8h-25q-8 0 -8 8v427q0 8 8 8zM42 552l143 124q7 8 12 0l23 -29q6 -6 -1 -12
l-154 -111q-7 -4 -11 1l-12 15q-6 6 0 12zM433 673l23 -28q5 -9 -2 -13l-153 -111q-8 -5 -12 1l-12 15q-5 7 0 12l144 125q6 5 12 -1z" />
    <glyph glyph-name="IJacute" unicode="&#xe133;" horiz-adv-x="613" 
d="M139 685v-677q0 -8 -9 -8h-27q-9 0 -9 8v677q0 9 9 9h27q9 0 9 -9zM480 156l-1 529q0 9 9 9h27q9 0 9 -9l1 -530q1 -76 -38 -120t-107 -45q-71 2 -134 57q-5 3 -2 12l14 23q5 8 13 2q63 -48 111 -50q95 2 98 122zM590 853l18 -31q4 -7 -3 -13l-180 -104q-7 -4 -12 2
l-11 17q-5 8 2 12l173 119q9 5 13 -2zM217 854l19 -32q4 -8 -3 -12l-180 -104q-7 -6 -12 2l-11 16q-5 8 2 12l173 120q8 5 12 -2z" />
    <glyph glyph-name="_1" horiz-adv-x="0" 
 />
    <glyph glyph-name="CR" horiz-adv-x="333" 
 />
    <glyph glyph-name="grave.case" horiz-adv-x="292" 
d="M35 826l19 32q4 7 12 2l174 -120q6 -4 1 -12l-10 -16q-4 -7 -12 -2l-181 104q-8 4 -3 12z" />
    <glyph glyph-name="dieresis.case" horiz-adv-x="320" 
d="M46 750q-12 12 -12 32t12 32q12 13 32 13t32 -13q12 -12 12 -32t-12 -32t-32 -12t-32 12zM210 750q-12 12 -12 32t12 32q12 13 32 13t32 -13q12 -12 12 -32t-12 -32t-32 -12t-32 12z" />
    <glyph glyph-name="macron.case" horiz-adv-x="302" 
d="M37 793h228q9 0 9 -8v-26q0 -9 -9 -9h-228q-8 0 -8 9v26q0 8 8 8z" />
    <glyph glyph-name="acute.case" horiz-adv-x="292" 
d="M223 858l19 -32q4 -7 -4 -12l-180 -104q-8 -5 -12 2l-11 16q-5 8 2 12l173 120q9 5 13 -2z" />
    <glyph glyph-name="circumflex.case" horiz-adv-x="402" 
d="M312 738l-111 80l-111 -80q-8 -5 -14 -5h-42q-19 0 -2 11l139 101q8 5 13 5h33q6 0 14 -5l139 -100q15 -12 -2 -12h-42q-6 0 -14 5z" />
    <glyph glyph-name="caron.case" horiz-adv-x="402" 
d="M90 845l111 -81l111 81q8 5 14 5h42q18 0 1 -12l-138 -100q-8 -5 -14 -5h-33q-5 0 -13 5l-138 100q-15 12 2 12h41q6 0 14 -5z" />
    <glyph glyph-name="breve.case" horiz-adv-x="358" 
d="M292 850h25q7 0 7 -9q-3 -54 -42.5 -86.5t-103.5 -32.5q-62 0 -101 32.5t-43 86.5q0 9 7 9h25q6 0 8 -9q5 -37 32.5 -58t71.5 -21q45 0 73.5 21t33.5 58q1 9 7 9z" />
    <glyph glyph-name="dotaccent.case" horiz-adv-x="238" 
d="M79 794q0 19 11 29.5t29 10.5q19 0 30 -10.5t11 -29.5q0 -18 -11 -29t-30 -11q-18 0 -29 11t-11 29z" />
    <glyph glyph-name="ring.case" horiz-adv-x="250" 
d="M34 806q0 40 25 65t65 25q41 0 66.5 -25t25.5 -65q0 -41 -25.5 -66t-66.5 -25t-65.5 25t-24.5 66zM66 806q0 -27 16 -43t43 -16q26 0 42.5 16t16.5 43q0 26 -16.5 42t-42.5 16q-27 0 -43 -16t-16 -42z" />
    <glyph glyph-name="tilde.case" horiz-adv-x="376" 
d="M64 748q-3 -10 -11 -4l-15 11q-4 5 -3 12q14 41 38.5 63.5t52.5 22.5q19 1 37.5 -12.5t30.5 -30.5t27.5 -30t29.5 -11q37 1 60 63q3 10 11 4l16 -11q4 -4 3 -11q-13 -41 -37 -63.5t-54 -22.5q-28 0 -48.5 21t-38.5 42t-38 21q-39 -1 -61 -64z" />
    <glyph glyph-name="hungarumlaut.case" horiz-adv-x="345" 
d="M277 861l33 -24q9 -5 1 -13l-92 -98q-7 -6 -14 -2l-15 11q-7 4 -2 13l75 111q7 7 14 2zM122 862l33 -25q8 -5 1 -12l-92 -99q-7 -7 -13 -2l-16 11q-7 4 -2 13l76 111q5 8 13 3z" />
    <glyph glyph-name="zero.onum" horiz-adv-x="587" 
d="M118 55q-66 65 -66 168q0 104 66 167q67 64 176 64q110 0 175 -64q66 -63 66 -167q0 -103 -66 -168q-65 -64 -175 -64q-109 0 -176 64zM97 223q0 -85 54 -137q54 -51 143 -51q88 0 142 51.5t54 136.5q0 84 -54 135q-53 52 -142 52q-88 0 -143 -52q-54 -51 -54 -135z" />
    <glyph glyph-name="one.onum" horiz-adv-x="426" 
d="M48 354l152 89h35q10 0 10 -10l1 -392h151q9 0 9 -8v-24q0 -9 -9 -9h-348q-9 0 -9 9v24q0 8 9 8h152l-1 358l-146 -84q-12 -9 -12 5v24q0 7 6 10z" />
    <glyph glyph-name="two.onum" horiz-adv-x="483" 
d="M422 0h-372q-18 0 -4 13l278 208q59 44 55 97q-3 42 -38 66.5t-95 24.5q-91 0 -150 -74q-6 -8 -12 -2l-19 20q-6 7 1 14q71 86 179 86q79 0 127 -37.5t51 -97.5q5 -73 -71 -129l-36 -26q-44 -31 -86 -63q-19 -14 -46 -34t-34 -25h272q9 0 9 -8v-24q0 -9 -9 -9z" />
    <glyph glyph-name="three.onum" horiz-adv-x="504" 
d="M232 192q-10 0 -10 10v29l148 168h-283q-9 0 -9 9v26q0 9 9 9h332q10 0 10 -10v-34l-152 -173q84 -12 129.5 -59t45.5 -124q0 -86 -56 -139t-146 -53q-86 0 -140 51q-53 51 -58 135q0 9 9 9h28q8 0 8 -9q5 -65 46.5 -103.5t106.5 -38.5q71 0 114 40.5t43 107.5
q0 68 -46.5 107t-128.5 42z" />
    <glyph glyph-name="four.onum" horiz-adv-x="566" 
d="M374 443h40q10 0 10 -10v-380h86q9 0 9 -9v-25q0 -8 -9 -8h-86v-141q0 -9 -9 -9h-28q-8 0 -8 9v141h-340q-17 0 -6 12l325 412q6 8 16 8zM379 53v343l-273 -343h273z" />
    <glyph glyph-name="five.onum" horiz-adv-x="504" 
d="M249 251q93 0 148 -57q56 -56 55 -146q1 -88 -55 -143q-55 -54 -147 -54q-85 0 -139.5 51.5t-58.5 135.5q0 10 8 10h29q8 0 8 -10q4 -64 46 -103.5t107 -39.5q71 0 114 42t44 111q-1 72 -44 115.5t-113 43.5q-32 0 -58 -10q-27 -9 -38 -17q-17 -12 -33 -26h-33
q-10 0 -9 10l15 269q1 10 12 10h290q9 0 9 -8v-25q0 -9 -9 -9h-261l-11 -194q55 44 124 44z" />
    <glyph glyph-name="six.onum" horiz-adv-x="514" 
d="M259 594h29q12 0 5 -13l-121 -210q40 20 86 20q91 0 147 -56q57 -55 57 -143q0 -87 -57 -144t-147 -57q-93 0 -149 55q-57 55 -57 146q0 63 30 111l164 282q4 9 13 9zM417 193q0 69 -45 112q-44 44 -115 44q-69 0 -116 -44q-45 -43 -45 -112q0 -71 44 -114.5t117 -43.5
q69 0 115 44q45 45 45 114z" />
    <glyph glyph-name="seven.onum" horiz-adv-x="453" 
d="M369 402l-334 -1q-10 1 -10 9v25q0 8 10 8h382q15 0 10 -14l-214 -558q-3 -10 -12 -10h-31q-8 0 -5 10z" />
    <glyph glyph-name="eight.onum" horiz-adv-x="509" 
d="M52 164q0 55 30 95.5t84 59.5q-74 35 -74 121q0 70 44.5 112.5t118.5 42.5q73 0 117.5 -42.5t44.5 -112.5q0 -86 -74 -121q54 -20 84 -60.5t30 -94.5q0 -79 -55.5 -126t-146.5 -47q-92 0 -147.5 47t-55.5 126zM97 167q0 -60 43.5 -96.5t114.5 -36.5t114 36.5t43 96.5
q0 58 -44 95.5t-113 37.5t-113.5 -38t-44.5 -95zM136 438q0 -46 33 -74.5t86 -28.5t85.5 28.5t32.5 74.5q0 52 -32 82.5t-86 30.5q-55 0 -87 -30t-32 -83z" />
    <glyph glyph-name="nine.onum" horiz-adv-x="514" 
d="M255 -149h-29q-12 0 -5 13l121 209q-39 -19 -86 -19q-90 0 -148 56q-56 56 -56 143q0 86 56 144q57 57 148 57q93 0 149 -55q57 -55 57 -146q0 -63 -30 -111l-164 -282q-4 -9 -13 -9zM257 96q71 0 115 43q45 43 45 113q0 71 -43.5 114.5t-116.5 43.5q-71 0 -116 -45
q-44 -44 -44 -113t44 -112.5t116 -43.5z" />
    <glyph glyph-name="zero.numr" horiz-adv-x="381" 
d="M35 474q0 104 43 166q44 63 113 63q70 0 112.5 -63t42.5 -166q0 -105 -43 -167q-42 -63 -112 -63q-69 0 -113 63q-43 62 -43 167zM74 474q0 -86 32 -138.5t85 -52.5q52 0 84 52.5t32 138.5t-32 138t-84 52q-53 0 -85 -52.5t-32 -137.5z" />
    <glyph glyph-name="one.numr" horiz-adv-x="216" 
d="M107 262v393h-67q-9 0 -9 9v21q0 9 9 9h97q10 0 10 -10v-422q0 -9 -9 -9h-22q-9 3 -9 9z" />
    <glyph glyph-name="two.numr" horiz-adv-x="348" 
d="M294 254h-253q-8 0 -10.5 4.5t3.5 11.5l194 221q40 37 40 92q0 37 -24.5 59.5t-61.5 22.5q-56 0 -94 -44q-6 -7 -12 -1l-15 19q-4 4 1 12q47 53 115 53q60 0 95.5 -32t35.5 -95q0 -26 -10 -53t-22 -40l-10 -13l-162 -179h191q9 0 9 -8v-22q0 -8 -10 -8z" />
    <glyph glyph-name="three.numr" horiz-adv-x="345" 
d="M132 477v17q0 9 8 9h31q37 0 58 21.5t21 59.5q0 36 -22 58t-57 23q-50 0 -89 -44q-6 -7 -11 -2l-16 19q-5 5 0 11q47 54 116 54q53 0 86 -33t33 -86q0 -67 -50 -97q64 -28 64 -108q0 -60 -38 -97.5t-100 -37.5q-59 0 -96 33t-41 87q0 9 8 9h23q8 0 9 -7q3 -37 29.5 -60
t67.5 -23q44 0 71 26.5t27 69.5q0 40 -23 64.5t-62 24.5q0 1 -19 0h-20q-8 0 -8 9z" />
    <glyph glyph-name="four.numr" horiz-adv-x="385" 
d="M78 392h175v257zM355 383v-18q0 -9 -9 -9h-53v-93q0 -9 -8 -9h-24q-8 0 -8 8v94h-221q-20 0 -9 17l209 312q5 8 15 8h36q10 0 10 -10v-291h53q9 0 9 -9z" />
    <glyph glyph-name="five.numr" horiz-adv-x="364" 
d="M75 364q4 -38 32 -59.5t73 -21.5q47 0 76 28.5t29 75.5q0 48 -29.5 76t-79.5 28q-33 0 -80 -29l-12 -8h-34q-6 0 -6 6l16 227q0 7 7 7h214q6 0 6 -7v-25q0 -7 -6 -7h-184l-11 -158q47 33 89 33q67 0 107.5 -39t41.5 -104q0 -64 -40 -103.5t-105 -39.5q-63 0 -102.5 33
t-41.5 88q0 7 5 7h27q6 0 8 -8z" />
    <glyph glyph-name="six.numr" horiz-adv-x="361" 
d="M175 694h29q10 0 5 -9l-82 -174q24 12 54 12q63 0 101 -38q39 -37 39 -101q0 -63 -39 -102q-38 -38 -101 -38t-102 38.5t-39 101.5q0 42 19 76l107 228q4 6 9 6zM181 283q45 0 73 27.5t28 72.5q0 46 -27.5 73.5t-73.5 27.5q-45 0 -73.5 -28t-28.5 -73t28 -72.5t74 -27.5z
" />
    <glyph glyph-name="seven.numr" horiz-adv-x="312" 
d="M245 655h-224q-6 0 -6 7v25q0 7 6 7h268q12 0 7 -11l-160 -424q-3 -5 -7 -5h-30q-9 0 -5 7z" />
    <glyph glyph-name="eight.numr" horiz-adv-x="378" 
d="M98 577q0 -35 25.5 -58.5t65.5 -23.5q41 0 66 23t25 59q0 40 -25 63.5t-66 23.5t-66 -23.5t-25 -63.5zM79 374q0 -41 30.5 -66t80.5 -25q49 0 79 25t30 66q0 39 -30.5 63.5t-78.5 24.5t-79.5 -25.5t-31.5 -62.5zM40 373q0 36 20.5 64.5t56.5 43.5q-58 31 -58 99
q0 56 35.5 89.5t94.5 33.5t94.5 -33.5t35.5 -89.5q0 -69 -59 -99q37 -15 57.5 -43.5t20.5 -64.5q0 -58 -41 -93.5t-108 -35.5t-108 35.5t-41 93.5z" />
    <glyph glyph-name="nine.numr" horiz-adv-x="361" 
d="M180 424q-63 0 -101.5 38.5t-38.5 100.5q0 64 38.5 102.5t101.5 38.5q64 0 102.5 -39t38.5 -102q0 -35 -19 -76l-107 -227q-1 -6 -9 -6h-28q-9 0 -6 9l82 173q-26 -12 -54 -12zM181 463q45 0 73 28t28 73q0 46 -27.5 73.5t-73.5 27.5t-74 -28t-28 -73q0 -46 28 -73.5
t74 -27.5z" />
    <glyph glyph-name="zero.dnom" horiz-adv-x="381" 
d="M35 220q0 104 43 166q44 63 113 63q70 0 112.5 -63t42.5 -166q0 -105 -43 -167q-42 -63 -112 -63q-69 0 -113 63q-43 62 -43 167zM74 220q0 -86 32 -138.5t85 -52.5q52 0 84 52.5t32 138.5t-32 138t-84 52q-53 0 -85 -52.5t-32 -137.5z" />
    <glyph glyph-name="one.dnom" horiz-adv-x="216" 
d="M29 441h107q10 0 10 -10v-422q0 -9 -8 -9h-24q-8 0 -8 9v393h-77q-9 0 -9 8v22q0 9 9 9z" />
    <glyph glyph-name="two.dnom" horiz-adv-x="348" 
d="M65 0h-24q-19 0 -7 16q7 10 62 73l90 102l42 46q40 37 40 92q0 37 -24.5 59.5t-61.5 22.5q-56 0 -94 -44q-6 -7 -12 -1l-15 19q-4 4 1 12q47 53 115 53q60 0 95.5 -32t35.5 -95q0 -26 -10 -53t-22 -40l-10 -13l-162 -179h191q9 0 9 -8v-21q0 -9 -10 -9h-222h-7z" />
    <glyph glyph-name="three.dnom" horiz-adv-x="345" 
d="M133 223v17q0 9 9 9h30q35 0 57 22t22 59q0 35 -21.5 57t-57.5 23q-49 1 -89 -43q-6 -6 -11 -1l-16 18q-6 5 0 11q45 54 116 54q53 0 86 -33t33 -86q0 -66 -51 -97q65 -29 65 -108q0 -59 -38.5 -97t-99.5 -38q-59 0 -96 32.5t-41 86.5q0 10 8 10h24q7 0 7 -8
q4 -38 30.5 -60t67.5 -22q44 0 71 26.5t27 69.5q0 40 -23 64t-62 25h-38q-9 0 -9 9z" />
    <glyph glyph-name="four.dnom" horiz-adv-x="385" 
d="M78 138h175v257zM355 129v-18q0 -9 -9 -9h-53v-93q0 -9 -8 -9h-24q-8 0 -8 8v94h-221q-20 0 -9 17l209 312q5 8 15 8h36q10 0 10 -10v-291h53q9 0 9 -9z" />
    <glyph glyph-name="five.dnom" horiz-adv-x="364" 
d="M75 110q4 -38 32 -59.5t73 -21.5q47 0 76 28.5t29 75.5q0 48 -29.5 76t-79.5 28q-33 0 -80 -29l-12 -8h-34q-6 0 -6 6l16 227q0 7 7 7h214q6 0 6 -7v-25q0 -7 -6 -7h-184l-11 -158q46 33 89 33q67 0 107.5 -39t41.5 -104q0 -64 -40 -103.5t-105 -39.5q-63 0 -102.5 33
t-41.5 88q0 7 5 7h27q6 0 8 -8z" />
    <glyph glyph-name="six.dnom" horiz-adv-x="361" 
d="M175 440h29q10 0 5 -9l-82 -174q24 12 54 12q63 0 101 -38q39 -37 39 -101q0 -63 -39 -102q-38 -38 -101 -38t-102 38.5t-39 101.5q0 37 19 76l107 228q3 6 9 6zM181 29q45 0 73 27.5t28 72.5q0 46 -27.5 73.5t-73.5 27.5q-45 0 -73.5 -28t-28.5 -73t28 -72.5t74 -27.5z
" />
    <glyph glyph-name="seven.dnom" horiz-adv-x="312" 
d="M245 401h-223q-7 0 -7 7v25q0 6 7 6h267q11 0 7 -10l-160 -424q-2 -5 -7 -5h-30q-9 0 -5 7z" />
    <glyph glyph-name="eight.dnom" horiz-adv-x="378" 
d="M98 323q0 -35 25.5 -58.5t65.5 -23.5q41 0 66 23t25 59q0 40 -25 63.5t-66 23.5t-66 -23.5t-25 -63.5zM79 120q0 -41 30.5 -66t80.5 -25q49 0 79 25t30 66q0 39 -30.5 63.5t-78.5 24.5t-79.5 -25.5t-31.5 -62.5zM40 119q0 36 20.5 64.5t56.5 43.5q-58 31 -58 99
q0 56 35.5 89.5t94.5 33.5t94.5 -33.5t35.5 -89.5q0 -69 -59 -99q37 -15 57.5 -43.5t20.5 -64.5q0 -58 -41 -93.5t-108 -35.5t-108 35.5t-41 93.5z" />
    <glyph glyph-name="nine.dnom" horiz-adv-x="361" 
d="M180 170q-63 0 -101.5 38.5t-38.5 100.5q0 64 38.5 102.5t101.5 38.5q64 0 102.5 -39t38.5 -102q0 -35 -19 -76l-107 -227q-1 -6 -9 -6h-28q-9 0 -6 9l82 173q-26 -12 -54 -12zM181 209q45 0 73 28t28 73q0 46 -27.5 73.5t-73.5 27.5t-74 -28t-28 -73q0 -46 28 -73.5
t74 -27.5z" />
    <glyph glyph-name="zero.tnum" horiz-adv-x="600" 
d="M542 347q0 -161 -66 -259q-66 -97 -175 -97q-108 0 -176 98q-66 97 -66 258t66 258q68 98 176 98q109 0 175 -98q66 -97 66 -258zM301 35q88 0 142 86t54 226q0 141 -54 226q-54 86 -142 86q-89 0 -143 -86q-54 -85 -54 -226q0 -140 54 -226t143 -86z" />
    <glyph glyph-name="one.tnum" horiz-adv-x="600" 
d="M147 661v24q0 9 9 9h158q10 -1 10 -11v-643h167q9 0 9 -9v-23q0 -8 -9 -8h-382q-9 0 -9 8v23q0 9 9 9h170v612h-123q-9 0 -9 9z" />
    <glyph glyph-name="two.tnum" horiz-adv-x="600" 
d="M463 391l-13 -17q-21 -21 -277 -332h331q9 0 9 -8v-26q0 -8 -9 -8h-364h-10h-32q-15 0 -6 12l325 396q41 52 41 108q0 65 -39 104.5t-103 39.5q-94 0 -153 -77q-6 -7 -12 0l-18 20q-6 8 0 14q72 86 183 86q84 0 135 -52q53 -51 51 -135q0 -34 -12 -69.5t-27 -55.5z" />
    <glyph glyph-name="three.tnum" horiz-adv-x="600" 
d="M255 379h52q65 -1 104 37t39 100q0 65 -39 104.5t-103 39.5q-89 0 -153 -76q-6 -8 -12 -1l-19 20q-5 7 1 14q72 86 183 86q84 0 135 -51.5t51 -135.5q0 -114 -93 -154q55 -19 85 -62t30 -105q0 -93 -60 -152q-59 -59 -156 -59q-94 0 -152.5 53t-62.5 140q0 9 9 9h28
q8 0 8 -9q5 -67 51.5 -108t118.5 -41q76 0 123 47q48 47 48 120q0 63 -41.5 104t-108.5 43l-66 -1q-9 0 -9 9v21q0 8 9 8z" />
    <glyph glyph-name="four.tnum" horiz-adv-x="600" 
d="M455 198h86q9 0 9 -8v-26q0 -8 -9 -8h-86v-147q0 -9 -9 -9h-28q-8 0 -8 9v147h-314h-5h-29q-7 0 -9 4t2 9l336 516q5 9 15 9l39 -1q4 1 7 -2t3 -8v-485zM410 198v439l-288 -439h288z" />
    <glyph glyph-name="five.tnum" horiz-adv-x="600" 
d="M460 652h-277l-20 -280q61 52 131 52q99 0 160 -61q62 -62 62 -158q0 -97 -60 -159q-59 -62 -156 -62q-94 0 -152.5 53t-62.5 140q0 9 8 9h29q8 0 9 -9q4 -68 50 -108.5t119 -40.5q78 0 124 49q47 50 47 128q0 77 -49 126t-129 49q-72 0 -134 -65h-32q-10 0 -10 10
l25 358q2 11 12 11h306q9 0 9 -9v-23q0 -10 -9 -10z" />
    <glyph glyph-name="six.tnum" horiz-adv-x="600" 
d="M512 201q0 -96 -58 -154t-154 -58t-154 58q-59 59 -59 154q0 50 16 89l182 396q5 8 12 8h30q11 0 5 -14l-137 -297q46 28 105 28q96 0 154 -57t58 -153zM469 201q0 76 -46.5 123t-122.5 47q-75 0 -123 -48q-47 -47 -47 -122q0 -76 46.5 -122.5t123.5 -46.5q75 0 122 47
t47 122z" />
    <glyph glyph-name="seven.tnum" horiz-adv-x="600" 
d="M96 694h405q13 0 9 -15l-253 -670q-3 -9 -12 -9h-33q-8 0 -5 9l244 643h-355q-9 0 -9 9v24q0 9 9 9z" />
    <glyph glyph-name="eight.tnum" horiz-adv-x="600" 
d="M299 703q84 0 135.5 -50t51.5 -132q0 -51 -25 -90.5t-70 -59.5q61 -21 96 -67.5t36 -109.5q0 -92 -62 -148t-162 -56t-162 56q-61 55 -61 148q0 63 35 109.5t97 67.5q-45 20 -70 59.5t-25 90.5q0 83 51 132q53 50 135 50zM478 195q0 68 -50 112t-128 44q-79 0 -129 -44
t-50 -112q0 -72 49.5 -116.5t129.5 -44.5t129 44.5t49 116.5zM157 521q0 -58 40 -96t103 -38t102.5 38t39.5 96q0 63 -39 101t-103 38q-65 0 -104 -38t-39 -101z" />
    <glyph glyph-name="nine.tnum" horiz-adv-x="600" 
d="M486 381l-173 -373q-5 -8 -13 -8h-29q-13 0 -6 13l138 295q-45 -27 -104 -27q-95 0 -154 57q-58 58 -58 153t58 153q59 59 154 59t154 -59t59 -153q0 -50 -26 -110zM299 661q-75 0 -121.5 -47t-46.5 -122q0 -78 46 -124t122 -46t123 47t47 123t-47 122.5t-123 46.5z" />
    <glyph glyph-name="zero.pnum" horiz-adv-x="597" 
d="M540 347q0 -161 -66 -259q-66 -97 -175 -97q-108 0 -176 98q-66 97 -66 258t66 258q68 98 176 98q109 0 175 -98q66 -97 66 -258zM299 35q88 0 142 86t54 226q0 141 -54 226q-54 86 -142 86q-89 0 -143 -86q-54 -85 -54 -226q0 -140 54 -226t143 -86z" />
    <glyph glyph-name="one.pnum" horiz-adv-x="312" 
d="M80 661v24q0 9 9 9h133q10 -1 10 -11l1 -674q0 -9 -9 -9h-28q-8 0 -8 9l-1 643h-98q-9 0 -9 9z" />
    <glyph glyph-name="two.pnum" horiz-adv-x="549" 
d="M442 391l-13 -17q-21 -21 -277 -332h331q9 0 9 -8v-26q0 -8 -9 -8h-364h-10h-32q-15 0 -6 12l325 396q41 52 41 108q0 65 -39 104.5t-103 39.5q-94 0 -153 -77q-6 -7 -12 0l-18 20q-6 8 0 14q72 86 183 86q84 0 135 -52q52 -51 51 -135q0 -34 -12 -69.5t-27 -55.5z" />
    <glyph glyph-name="three.pnum" 
d="M227 379h52q65 -1 104 37t39 100q0 65 -39 104.5t-103 39.5q-89 0 -153 -76q-6 -8 -12 -1l-19 20q-5 7 1 14q72 86 183 86q84 0 135 -51.5t51 -135.5q0 -114 -93 -154q55 -19 85 -62t30 -105q0 -93 -60 -152q-59 -59 -156 -59q-94 0 -152.5 53t-62.5 140q0 9 9 9h28
q8 0 8 -9q5 -67 51.5 -108t118.5 -41q76 0 123 47q48 47 48 120q0 63 -41.5 104t-108.5 43l-66 -1q-9 0 -9 9v21q0 8 9 8z" />
    <glyph glyph-name="four.pnum" horiz-adv-x="612" 
d="M460 198h86q9 0 9 -8v-26q0 -8 -9 -8h-86v-147q0 -9 -9 -9h-28q-8 0 -8 9v147h-314h-5h-29q-7 0 -9 4t2 9l336 516q4 9 15 9l39 -1q4 1 7 -2t3 -8v-485zM415 198v439l-288 -439h288z" />
    <glyph glyph-name="five.pnum" 
d="M432 652h-277l-20 -280q61 52 131 52q99 0 160 -61q62 -62 62 -158q0 -97 -60 -159q-59 -62 -156 -62q-94 0 -152.5 53t-62.5 140q0 9 8 9h29q8 0 9 -9q4 -68 50 -108.5t119 -40.5q78 0 124 49q47 50 47 128q0 77 -49 126t-129 49q-72 0 -134 -65h-32q-10 0 -10 10
l25 358q2 11 12 11h306q9 0 9 -9v-23q0 -10 -9 -10z" />
    <glyph glyph-name="six.pnum" horiz-adv-x="539" 
d="M482 201q0 -96 -58 -154t-154 -58t-154 58q-59 59 -59 154q0 50 16 89l182 396q5 8 12 8h30q11 0 5 -14l-137 -297q46 28 105 28q96 0 154 -57t58 -153zM439 201q0 76 -46.5 123t-122.5 47q-75 0 -123 -48q-47 -47 -47 -122q0 -76 46.5 -122.5t123.5 -46.5q75 0 122 47
t47 122z" />
    <glyph glyph-name="seven.pnum" horiz-adv-x="483" 
d="M38 694h405q13 0 9 -15l-253 -670q-3 -9 -12 -9h-33q-8 0 -5 9l244 643h-355q-9 0 -9 9v24q0 9 9 9z" />
    <glyph glyph-name="eight.pnum" horiz-adv-x="561" 
d="M280 703q84 0 135.5 -50t51.5 -132q0 -51 -25 -90.5t-70 -59.5q61 -21 96 -67.5t36 -109.5q0 -92 -62 -148t-162 -56t-162 56q-61 55 -61 148q0 63 35 109.5t97 67.5q-45 20 -70 59.5t-25 90.5q0 83 51 132q53 50 135 50zM459 195q0 68 -50 112t-128 44q-79 0 -129 -44
t-50 -112q0 -72 49.5 -116.5t129.5 -44.5t129 44.5t49 116.5zM138 521q0 -58 40 -96t103 -38t102.5 38t39.5 96q0 63 -39 101t-103 38q-65 0 -104 -38t-39 -101z" />
    <glyph glyph-name="nine.pnum" horiz-adv-x="539" 
d="M456 381l-173 -373q-5 -8 -13 -8h-29q-13 0 -6 13l138 295q-45 -27 -104 -27q-95 0 -154 57q-58 58 -58 153t58 153q59 59 154 59t154 -59t59 -153q0 -50 -26 -110zM269 661q-75 0 -121.5 -47t-46.5 -122q0 -78 46 -124t122 -46t123 47t47 123t-47 122.5t-123 46.5z" />
    <glyph glyph-name="zero.onum.pnum" horiz-adv-x="587" 
d="M118 55q-66 65 -66 168q0 104 66 167q67 64 176 64q110 0 175 -64q66 -63 66 -167q0 -103 -66 -168q-65 -64 -175 -64q-109 0 -176 64zM97 223q0 -85 54 -137q54 -51 143 -51q88 0 142 51.5t54 136.5q0 84 -54 135q-53 52 -142 52q-88 0 -143 -52q-54 -51 -54 -135z" />
    <glyph glyph-name="one.onum.pnum" horiz-adv-x="426" 
d="M48 354l152 89h35q10 0 10 -10l1 -392h151q9 0 9 -8v-24q0 -9 -9 -9h-348q-9 0 -9 9v24q0 8 9 8h152l-1 358l-146 -84q-12 -9 -12 5v24q0 7 6 10z" />
    <glyph glyph-name="two.onum.pnum" horiz-adv-x="483" 
d="M422 0h-372q-18 0 -4 13l278 208q59 44 55 97q-3 42 -38 66.5t-95 24.5q-91 0 -150 -74q-6 -8 -12 -2l-19 20q-6 7 1 14q71 86 179 86q79 0 127 -37.5t51 -97.5q5 -73 -71 -129l-36 -26q-44 -31 -86 -63q-19 -14 -46 -34t-34 -25h272q9 0 9 -8v-24q0 -9 -9 -9z" />
    <glyph glyph-name="three.onum.pnum" horiz-adv-x="504" 
d="M232 192q-10 0 -10 10v29l148 168h-283q-9 0 -9 9v26q0 9 9 9h332q10 0 10 -10v-34l-152 -173q84 -12 129.5 -59t45.5 -124q0 -86 -56 -139t-146 -53q-86 0 -140 51q-53 51 -58 135q0 9 9 9h28q8 0 8 -9q5 -65 46.5 -103.5t106.5 -38.5q71 0 114 40.5t43 107.5
q0 68 -46.5 107t-128.5 42z" />
    <glyph glyph-name="four.onum.pnum" horiz-adv-x="566" 
d="M374 443h40q10 0 10 -10v-380h86q9 0 9 -9v-25q0 -8 -9 -8h-86v-141q0 -9 -9 -9h-28q-8 0 -8 9v141h-340q-17 0 -6 12l325 412q6 8 16 8zM379 53v343l-273 -343h273z" />
    <glyph glyph-name="five.onum.pnum" horiz-adv-x="504" 
d="M249 251q93 0 148 -57q56 -56 55 -146q1 -88 -55 -143q-55 -54 -147 -54q-85 0 -139.5 51.5t-58.5 135.5q0 10 8 10h29q8 0 8 -10q4 -64 46 -103.5t107 -39.5q71 0 114 42t44 111q-1 72 -44 115.5t-113 43.5q-32 0 -58 -10q-27 -9 -38 -17q-17 -12 -33 -26h-33
q-10 0 -9 10l15 269q1 10 12 10h290q9 0 9 -8v-25q0 -9 -9 -9h-261l-11 -194q55 44 124 44z" />
    <glyph glyph-name="six.onum.pnum" horiz-adv-x="514" 
d="M259 594h29q12 0 5 -13l-121 -210q40 20 86 20q91 0 147 -56q57 -55 57 -143q0 -87 -57 -144t-147 -57q-93 0 -149 55q-57 55 -57 146q0 63 30 111l164 282q4 9 13 9zM417 193q0 69 -45 112q-44 44 -115 44q-69 0 -116 -44q-45 -43 -45 -112q0 -71 44 -114.5t117 -43.5
q69 0 115 44q45 45 45 114z" />
    <glyph glyph-name="seven.onum.pnum" horiz-adv-x="453" 
d="M369 402l-334 -1q-10 1 -10 9v25q0 8 10 8h382q15 0 10 -14l-214 -558q-3 -10 -12 -10h-31q-8 0 -5 10z" />
    <glyph glyph-name="eight.onum.pnum" horiz-adv-x="509" 
d="M52 164q0 55 30 95.5t84 59.5q-74 35 -74 121q0 70 44.5 112.5t118.5 42.5q73 0 117.5 -42.5t44.5 -112.5q0 -86 -74 -121q54 -20 84 -60.5t30 -94.5q0 -79 -55.5 -126t-146.5 -47q-92 0 -147.5 47t-55.5 126zM97 167q0 -60 43.5 -96.5t114.5 -36.5t114 36.5t43 96.5
q0 58 -44 95.5t-113 37.5t-113.5 -38t-44.5 -95zM136 438q0 -46 33 -74.5t86 -28.5t85.5 28.5t32.5 74.5q0 52 -32 82.5t-86 30.5q-55 0 -87 -30t-32 -83z" />
    <glyph glyph-name="nine.onum.pnum" horiz-adv-x="514" 
d="M255 -149h-29q-12 0 -5 13l121 209q-39 -19 -86 -19q-90 0 -148 56q-56 56 -56 143q0 86 56 144q57 57 148 57q93 0 149 -55q57 -55 57 -146q0 -63 -30 -111l-164 -282q-4 -9 -13 -9zM257 96q71 0 115 43q45 43 45 113q0 71 -43.5 114.5t-116.5 43.5q-71 0 -116 -45
q-44 -44 -44 -113t44 -112.5t116 -43.5z" />
    <glyph glyph-name="zero.onum.tnum" horiz-adv-x="600" 
d="M125 55q-66 65 -66 168q0 104 66 167q67 64 176 64q110 0 175 -64q66 -63 66 -167q0 -103 -66 -168q-65 -64 -175 -64q-109 0 -176 64zM104 223q0 -85 54 -137q54 -51 143 -51q88 0 142 51.5t54 136.5q0 84 -54 135q-53 52 -142 52q-88 0 -143 -52q-54 -51 -54 -135z" />
    <glyph glyph-name="one.onum.tnum" horiz-adv-x="600" 
d="M125 354l152 89h35q10 0 10 -10l1 -392h151q9 0 9 -8v-24q0 -9 -9 -9h-348q-9 0 -9 9v24q0 8 9 8h152l-1 358l-146 -84q-12 -9 -12 5v24q0 7 6 10z" />
    <glyph glyph-name="two.onum.tnum" horiz-adv-x="600" 
d="M488 0h-372q-18 0 -4 13l278 208q59 44 55 97q-3 42 -38 66.5t-95 24.5q-91 0 -150 -74q-6 -8 -12 -2l-19 20q-6 7 1 14q71 86 179 86q79 0 127 -37.5t51 -97.5q5 -73 -71 -129l-36 -26q-44 -31 -86 -63q-19 -14 -46 -34t-34 -25h272q9 0 9 -8v-24q0 -9 -9 -9z" />
    <glyph glyph-name="three.onum.tnum" horiz-adv-x="600" 
d="M280 192q-10 0 -10 10v29l148 168h-283q-9 0 -9 9v26q0 9 9 9h332q10 0 10 -10v-34l-152 -173q84 -12 129.5 -59t45.5 -124q0 -86 -56 -139t-146 -53q-86 0 -140 51q-53 51 -58 135q0 9 9 9h28q8 0 8 -9q5 -65 46.5 -103.5t106.5 -38.5q71 0 114 40.5t43 107.5
q0 68 -46.5 107t-128.5 42z" />
    <glyph glyph-name="four.onum.tnum" horiz-adv-x="600" 
d="M401 443h40q10 0 10 -10v-380h86q9 0 9 -9v-25q0 -8 -9 -8h-86v-141q0 -9 -9 -9h-28q-8 0 -8 9v141h-340q-16 0 -6 12l325 412q6 8 16 8zM406 53v343l-273 -343h273z" />
    <glyph glyph-name="five.onum.tnum" horiz-adv-x="600" 
d="M297 251q92 0 148 -57q56 -56 55 -146q1 -88 -55 -143q-55 -54 -147 -54q-85 0 -139.5 51.5t-58.5 135.5q0 10 8 10h29q8 0 8 -10q4 -64 46 -103.5t107 -39.5q71 0 114 42t44 111q-1 72 -44 115.5t-113 43.5q-32 0 -58 -10q-27 -9 -38 -17q-17 -12 -33 -26h-33
q-10 0 -9 10l15 269q1 10 12 10h290q9 0 9 -8v-25q0 -9 -9 -9h-261l-11 -194q55 44 124 44z" />
    <glyph glyph-name="six.onum.tnum" horiz-adv-x="600" 
d="M302 594h29q12 0 5 -13l-121 -210q40 20 86 20q91 0 147 -56q57 -55 57 -143q0 -87 -57 -144t-147 -57q-93 0 -149 55q-57 55 -57 146q0 63 30 111l164 282q5 9 13 9zM460 193q0 69 -45 112q-44 44 -115 44q-69 0 -116 -44q-45 -43 -45 -112q0 -71 44 -114.5t117 -43.5
q69 0 115 44q45 45 45 114z" />
    <glyph glyph-name="seven.onum.tnum" horiz-adv-x="600" 
d="M441 402l-334 -1q-10 1 -10 9v25q0 8 10 8h382q15 0 10 -14l-214 -558q-3 -10 -12 -10h-31q-8 0 -5 10z" />
    <glyph glyph-name="eight.onum.tnum" horiz-adv-x="600" 
d="M98 164q0 55 30 95.5t84 59.5q-74 35 -74 121q0 70 44.5 112.5t118.5 42.5q73 0 117.5 -42.5t44.5 -112.5q0 -86 -74 -121q54 -20 84 -60.5t30 -94.5q0 -79 -55.5 -126t-146.5 -47q-92 0 -147.5 47t-55.5 126zM143 167q0 -60 43.5 -96.5t114.5 -36.5t114 36.5t43 96.5
q0 58 -44 95.5t-113 37.5t-113.5 -38t-44.5 -95zM182 438q0 -46 33 -74.5t86 -28.5t85.5 28.5t32.5 74.5q0 52 -32 82.5t-86 30.5q-55 0 -87 -30t-32 -83z" />
    <glyph glyph-name="nine.onum.tnum" horiz-adv-x="600" 
d="M298 -149h-29q-12 0 -5 13l121 209q-39 -19 -86 -19q-90 0 -148 56q-56 56 -56 143q0 86 56 144q57 57 148 57q93 0 149 -55q57 -55 57 -146q0 -63 -30 -111l-164 -282q-5 -9 -13 -9zM300 96q71 0 115 43q45 43 45 113q0 71 -43.5 114.5t-116.5 43.5q-71 0 -116 -45
q-44 -44 -44 -113t44 -112.5t116 -43.5z" />
    </font>
</defs>
</svg>
