<?xml version="1.0" standalone="no"?>
<!DOCTYPE svg PUBLIC "-//W3C//DTD SVG 1.1//EN" "http://www.w3.org/Graphics/SVG/1.1/DTD/svg11.dtd" >
<svg xmlns="http://www.w3.org/2000/svg" xmlns:xlink="http://www.w3.org/1999/xlink" version="1.1">
<metadata>
Created by FontForge 20201107 at Mon Feb 25 03:00:00 2019
 By 
Copyright (c) 2019 by Eko Bimantara. All rights reserved.
</metadata>
<defs>
<font id="Ageo-Heavy" horiz-adv-x="600" >
  <font-face 
    font-family="Ageo Heavy"
    font-weight="900"
    font-stretch="normal"
    units-per-em="1000"
    panose-1="2 0 0 0 0 0 0 0 0 0"
    ascent="755"
    descent="-245"
    x-height="487"
    cap-height="694"
    bbox="-49.0833 -240 1184 927.765"
    underline-thickness="50"
    underline-position="-225"
    unicode-range="U+000D-FB04"
  />
<missing-glyph horiz-adv-x="0" 
 />
    <glyph glyph-name="f_f" unicode="ff" horiz-adv-x="682" 
d="M666 477v-117q0 -4 -3.5 -7t-6.5 -3h-111v-340q0 -10 -10 -10h-127q-10 0 -10 10l-1 340h-174v-340q0 -10 -10 -10h-127q-10 0 -10 10l-1 340h-55q-10 0 -10 10v117q0 10 10 10h55v47q0 107 41.5 153t127.5 46q41 0 77 -13.5t53 -30.5q6 -6 3 -14l-43 -103q-5 -8 -14 -2
q-31 19 -50 19q-25 0 -36 -15t-11 -53v-34h174v47q0 107 41.5 153t127.5 46q41 0 77 -13.5t53 -30.5q6 -6 3 -14l-43 -103q-5 -8 -14 -2q-31 19 -50 19q-25 0 -36 -15t-11 -53v-34h111q10 0 10 -10z" />
    <glyph glyph-name="fi" unicode="fi" horiz-adv-x="588" 
d="M516 643l-44 -103q-3 -8 -13 -2q-91 52 -140 51q-96 0 -96 -68v-34h306q9 0 9 -9v-468q0 -10 -9 -10h-128q-9 0 -9 10v340h-169v-340q0 -10 -10 -10h-127q-10 0 -10 10l-1 340h-55q-10 0 -10 10v117q0 10 10 10h55v47q0 56 17.5 96t48.5 62t66 31.5t77 9.5q147 0 229 -76
q6 -6 3 -14z" />
    <glyph glyph-name="fl" unicode="fl" horiz-adv-x="605" 
d="M77 10l-1 340h-56q-10 0 -10 10v117q0 10 10 10h56v47q0 56 17.5 96t48.5 62t66 31.5t77 9.5q50 0 105 -11q30 -4 48 -9l55 -13l49 -12q13 -4 13 -17v-658q0 -13 -15 -13h-118q-14 0 -14 13v554q-47 22 -97 22q-87 0 -87 -68v-34h128q10 0 10 -10v-117q0 -4 -3.5 -7
t-6.5 -3h-128v-340q0 -10 -10 -10h-127q-10 0 -10 10z" />
    <glyph glyph-name="f_f_i" unicode="ffi" horiz-adv-x="907" 
d="M244 733q41 0 77 -13.5t53 -30.5q6 -6 3 -14l-43 -103q-5 -8 -14 -2q-31 19 -50 19q-25 0 -36 -15t-11 -53v-34h171v47q0 56 17.5 96t48.5 62t66 31.5t77 9.5q147 0 229 -76q6 -6 3 -14l-44 -103q-3 -8 -13 -2q-91 52 -140 51q-96 0 -96 -68v-34h306q9 0 9 -9v-468
q0 -10 -9 -10h-128q-9 0 -9 10v340h-169v-340q0 -10 -10 -10h-127q-10 0 -10 10l-1 340h-171v-340q0 -10 -10 -10h-127q-10 0 -10 10l-1 340h-55q-10 0 -10 10v117q0 10 10 10h55v47q0 107 41.5 153t127.5 46z" />
    <glyph glyph-name="f_f_l" unicode="ffl" horiz-adv-x="922" 
d="M320 570q-31 19 -50 19q-25 0 -36 -15t-11 -53v-34h170v47q0 56 17.5 96t48.5 62t66 31.5t77 9.5q53 0 106 -11l47 -9q26 -5 56 -13l48 -12q13 -4 13 -17v-658q0 -13 -15 -13h-118q-14 0 -14 13v554q-47 22 -97 22q-87 0 -87 -68v-34h128q10 0 10 -10v-117q0 -4 -3.5 -7
t-6.5 -3h-128v-340q0 -10 -10 -10h-127q-10 0 -10 10l-1 340h-170v-340q0 -10 -10 -10h-127q-10 0 -10 10l-1 340h-55q-10 0 -10 10v117q0 10 10 10h55v47q0 107 41.5 153t127.5 46q41 0 77 -13.5t53 -30.5q6 -6 3 -14l-43 -103q-5 -8 -14 -2z" />
    <glyph glyph-name=".notdef" horiz-adv-x="0" 
 />
    <glyph glyph-name=".null" horiz-adv-x="0" 
 />
    <glyph glyph-name="nonmarkingreturn" horiz-adv-x="333" 
 />
    <glyph glyph-name="NULL" horiz-adv-x="0" 
 />
    <glyph glyph-name="NULL" horiz-adv-x="0" 
 />
    <glyph glyph-name="CR.001" unicode="&#xd;" horiz-adv-x="0" 
 />
    <glyph glyph-name="space" unicode=" " horiz-adv-x="250" 
 />
    <glyph glyph-name="exclam" unicode="!" horiz-adv-x="252" 
d="M189 208h-130q-10 0 -10 10l-2 466q0 10 10 10h135q9 0 9 -10l-2 -466q0 -10 -10 -10zM205 71q0 -36 -22 -58.5t-58 -22.5t-58.5 22.5t-22.5 58.5t22.5 58t58.5 22t58 -21.5t22 -58.5z" />
    <glyph glyph-name="quotedbl" unicode="&#x22;" horiz-adv-x="369" 
d="M232 421l-48 37q-8 4 1 13q58 45 75 104l-2 1h-2q-25 7 -39 26.5t-14 47.5q0 36 21.5 57.5t56.5 21.5q34 0 55.5 -21t22.5 -55q4 -69 -32 -140q-35 -71 -81 -96q-7 -3 -14 4zM89 575q-2 0 -3 1q-25 7 -39.5 26.5t-14.5 47.5q0 35 21.5 57t56.5 22q34 0 55.5 -21t22.5 -55
q4 -69 -32 -140q-34 -71 -81 -96q-7 -3 -14 4l-48 37q-7 4 1 13q58 45 75 104z" />
    <glyph glyph-name="numbersign" unicode="#" horiz-adv-x="651" 
d="M1 170l35 116q4 10 13 10h65l28 106h-68q-10 0 -7 10l35 115q3 10 14 10h62l38 147q3 10 13 10h123q9 0 8 -10l-39 -147h118l39 147q1 10 12 10h123q11 0 8 -10l-39 -147h61q10 0 7 -10l-35 -115q-3 -10 -14 -10h-55l-28 -106h59q11 0 7 -10l-36 -116q-2 -9 -13 -9h-53
l-40 -151q-1 -10 -12 -10h-123q-11 0 -8 10l40 151h-118l-40 -151q-1 -10 -12 -10h-124q-10 0 -7 10l40 151h-71q-9 0 -6 9zM257 296h118l28 106h-118z" />
    <glyph glyph-name="dollar" unicode="$" horiz-adv-x="595" 
d="M263 147v128q-114 22 -168.5 71t-57.5 135q-3 90 58 150q61 61 168 70v30q0 10 9 10h52q10 0 10 -10v-30q65 -6 118 -27q51 -20 70 -38q8 -5 3 -14l-53 -121q-4 -9 -14 -3q-62 40 -124 49v-126q115 -28 169 -78t57 -139q2 -86 -60 -144q-60 -57 -166 -68v-94
q0 -10 -10 -10h-51q-10 0 -10 10v93q-77 8 -139 34q-63 29 -85 49q-7 4 -2 13l66 118q7 10 16 2q21 -18 62 -36t82 -24zM334 261v-116q33 4 53 18t20 35q0 42 -73 63zM263 438v109q-33 -5 -52.5 -20t-19.5 -34q0 -21 16.5 -33t55.5 -22z" />
    <glyph glyph-name="percent" unicode="%" horiz-adv-x="803" 
d="M194 366q-83 0 -133.5 50t-50.5 133t50.5 133.5t133.5 50.5t133 -50.5t50 -133.5t-51 -133q-50 -50 -132 -50zM153 589q-15 -15 -15 -40t15 -40t40 -15t40 15q16 15 16 40t-16 40q-15 16 -40 16t-40 -16zM610 229q-26 0 -41 -15.5t-15 -40.5t15.5 -40t40.5 -15t40 15
t15 40t-15 40.5t-40 15.5zM610 -10q-83 0 -133.5 50t-50.5 133t50.5 133.5t133.5 50.5t133 -50.5t50 -133.5t-51 -133q-50 -50 -132 -50zM135 15l395 700q4 7 15 7h120q6 0 9 -3.5t1 -7.5l-397 -704q-4 -7 -15 -7h-118q-17 0 -10 15z" />
    <glyph glyph-name="ampersand" unicode="&#x26;" horiz-adv-x="672" 
d="M280 549q-18 0 -29.5 -12.5t-11.5 -32.5q0 -27 25 -58q3 -3 11 -12.5t12 -13.5q7 -8 32 -30.5t32 -29.5l99 -98q9 50 11 126q0 10 10 10h128q10 0 10 -10q-1 -168 -34 -250l124 -124q5 -5 3.5 -9.5t-8.5 -4.5h-168q-11 0 -18 7l-21 21q-68 -44 -178 -44q-130 0 -210 62
q-79 61 -79 163q0 111 111 170q-54 62 -54 140q0 83 53 133q52 51 140 51q77 0 121 -29.5t70 -88.5q4 -9 -4 -14l-102 -65q-8 -5 -14 2l-3 5q-4 5 -8.5 10t-6.5 7q-19 19 -43 19zM208 302q-37 -34 -37 -79q0 -49 38 -80t99 -31q44 0 73 20q-42 39 -173 170z" />
    <glyph glyph-name="quotesingle" unicode="'" horiz-adv-x="198" 
d="M61 420l-49 38q-5 6 2 13q58 43 76 104q-4 0 -5 1q-24 7 -38.5 27t-14.5 48q0 35 22 56.5t56 21.5t55.5 -21.5t22.5 -55.5q4 -68 -32 -139q-33 -68 -82 -95q-5 -5 -13 2z" />
    <glyph glyph-name="parenleft" unicode="(" horiz-adv-x="323" 
d="M154 686q5 8 16 9l127 -1q9 -2 5 -9q-28 -45 -65 -143q-50 -129 -50 -276q-1 -226 114 -418q6 -8 -4 -8h-127q-12 0 -16 9q-27 41 -65 137q-49 123 -49 280q0 218 114 420z" />
    <glyph glyph-name="parenright" unicode=")" horiz-adv-x="323" 
d="M26 693l128 1q10 2 15 -8q24 -43 41 -80q22 -48 47 -145q26 -101 26 -195q0 -157 -49 -280q-38 -96 -65 -137q-5 -9 -15 -9h-128q-10 0 -4 8q115 192 114 418q0 94 -26 195q-25 98 -47 144t-42 80q-3 8 5 8z" />
    <glyph glyph-name="asterisk" unicode="*" horiz-adv-x="424" 
d="M270 308l-55 94l-55 -94q-3 -4 -9.5 -4t-10.5 4l-86 78q-10 10 1 19l58 61l-96 45q-9 4 -7 15l67 105q6 10 17 2l58 -46l-12 92q0 13 10 13h131q9 0 9 -13l-11 -92l58 46q11 8 16 -2l67 -105q4 -10 -6 -15l-97 -45l59 -61q10 -10 1 -19l-87 -78q-3 -4 -10 -4t-10 4z" />
    <glyph glyph-name="plus" unicode="+" horiz-adv-x="589" 
d="M350 73h-111q-10 0 -10 10v146h-143q-10 0 -10 10v106q0 10 10 10h143v145q0 10 10 10h111q10 0 10 -10v-145h143q10 0 10 -10v-106q0 -10 -10 -10h-143v-146q0 -10 -10 -10z" />
    <glyph glyph-name="comma" unicode="," horiz-adv-x="255" 
d="M77 -178l-54 42q-8 7 2 14q64 49 84 115q-1 1 -5 1q-27 8 -43 30t-16 53q0 39 24 63t63 25q38 0 61.5 -23.5t24.5 -61.5q4 -76 -35 -155t-91 -107q-8 -3 -15 4z" />
    <glyph glyph-name="hyphen" unicode="-" horiz-adv-x="437" 
d="M56 242v100q0 12 13 12h299q13 0 13 -12v-100q0 -12 -13 -12h-299q-13 0 -13 12z" />
    <glyph glyph-name="period" unicode="." horiz-adv-x="263" 
d="M53 69q0 36 21.5 58t57.5 22q35 0 56.5 -22t21.5 -58q0 -35 -22 -57t-56 -22q-36 0 -57.5 22t-21.5 57z" />
    <glyph glyph-name="slash" unicode="/" horiz-adv-x="448" 
d="M1 13l304 700q5 9 13 9h122q13 0 7 -14l-304 -698q-4 -10 -15 -10h-121q-4 0 -6 4t0 9z" />
    <glyph glyph-name="zero" unicode="0" horiz-adv-x="597" 
d="M109 89q-72 97 -72 258t72 258q72 98 190 98t189 -98q72 -97 72 -258q0 -162 -72 -259q-70 -97 -189 -97q-118 0 -190 98zM299 144q49 0 78.5 55.5t29.5 147.5t-29.5 147.5t-78.5 55.5t-79 -55.5t-30 -147.5q0 -93 29.5 -148t79.5 -55z" />
    <glyph glyph-name="one" unicode="1" horiz-adv-x="350" 
d="M48 560v123q0 11 10 11h234q10 0 10 -11v-673q0 -10 -10 -10h-133q-10 0 -10 10v540h-91q-10 0 -10 10z" />
    <glyph glyph-name="two" unicode="2" horiz-adv-x="554" 
d="M468 384l-12 -20l-155 -220h184q11 0 12 -12v-122q0 -10 -11 -10h-285h-43h-114q-6 0 -8 6.5t2 11.5q25 32 92 125l124 175l57 80q45 60 47 101q-1 25 -19 43t-51 18q-45 0 -100 -69q-6 -5 -9 -4t-10 8l-78 83q-7 7 5 21q81 104 211 104q84 0 141 -51q58 -51 58 -146
q0 -59 -38 -122z" />
    <glyph glyph-name="three" unicode="3" horiz-adv-x="545" 
d="M228 424l41 1q25 0 44.5 20t19.5 47q0 26 -19.5 42t-51.5 16q-44 0 -98 -63q-8 -8 -15 1l-84 99q-8 8 -1 15q86 101 210 101q85 0 149 -53q63 -52 63 -134q0 -89 -65 -152q87 -57 87 -154q0 -98 -70 -162t-171 -64q-102 0 -169 61q-66 61 -71 161q0 10 10 10h130
q11 0 11 -8q1 -32 26.5 -51.5t64.5 -19.5t62.5 22.5t23.5 59.5q0 35 -21 58.5t-54 26.5h-52q-10 0 -10 10v100q0 10 10 10z" />
    <glyph glyph-name="four" unicode="4" horiz-adv-x="612" 
d="M497 279h58q10 0 10 -10v-110q0 -10 -10 -10h-58v-139q0 -10 -10 -10h-133q-10 0 -10 10v139h-193h-37h-100q-14 0 -8 13l316 523q4 9 15 9h150q10 0 10 -11v-404zM344 279v190l-115 -190h115z" />
    <glyph glyph-name="five" unicode="5" horiz-adv-x="545" 
d="M446 550h-211l-10 -117q28 11 61 11q102 0 162 -59t60 -160q0 -108 -65 -175q-65 -66 -171 -66q-102 0 -166 58t-69 154q0 10 10 10h130q11 0 11 -10q1 -29 24.5 -46.5t59.5 -17.5q38 0 61.5 25.5t23.5 67.5t-23 66.5t-64 24.5q-36 0 -57 -21h-143q-11 0 -10 10l33 378
q2 11 11 11h342q10 0 10 -11v-123q0 -10 -10 -10z" />
    <glyph glyph-name="six" unicode="6" horiz-adv-x="543" 
d="M506 225q0 -108 -64 -172q-63 -64 -170 -64t-171 64t-64 171q0 50 16 92q23 61 49 117q28 61 65 136q14 29 33.5 70t21.5 45q4 10 15 10h132q17 0 9 -14l-105 -226h9q100 -3 162 -66q62 -62 62 -163zM271 305q-36 0 -58.5 -22.5t-22.5 -59.5t22.5 -59t58.5 -22
q37 0 59.5 22t22.5 59t-22.5 59.5t-59.5 22.5z" />
    <glyph glyph-name="seven" unicode="7" horiz-adv-x="492" 
d="M47 694h432q19 0 11 -18l-253 -666q-3 -10 -13 -10h-139q-10 0 -7 10l208 540h-239q-10 0 -10 10v123q0 11 10 11z" />
    <glyph glyph-name="eight" unicode="8" horiz-adv-x="539" 
d="M481 501q0 -82 -65 -135q86 -57 86 -157q0 -99 -64 -159t-169 -60q-103 0 -168 60q-64 60 -64 159q0 102 85 157q-64 52 -64 135q0 91 58 146q59 56 153 56t153 -56t59 -146zM355 218q0 34 -24 57t-61 23t-61.5 -23t-24.5 -57q0 -33 25 -56.5t61 -23.5t60.5 23.5
t24.5 56.5zM270 435q31 0 49.5 18.5t18.5 49.5q0 33 -19 49q-18 18 -49 18t-50 -18t-19 -49t18.5 -49.5t50.5 -18.5z" />
    <glyph glyph-name="nine" unicode="9" horiz-adv-x="543" 
d="M467 325l-147 -315q-3 -10 -14 -10h-132q-17 0 -9 14l104 225h-4q-102 1 -166 65q-62 64 -62 165q0 107 63 172q64 64 170 64t171 -65t65 -170q0 -28 -6 -53q-6 -32 -33 -92zM212 410q22 -22 59 -22t59 22q23 23 23 60q0 36 -23 59q-22 22 -59 22t-59 -22t-22 -59
q0 -38 22 -60z" />
    <glyph glyph-name="colon" unicode=":" horiz-adv-x="238" 
d="M32 440q1 39 24.5 63t62.5 24q38 0 62 -24t24 -63q0 -38 -24 -62.5t-62 -24.5q-39 0 -63 24t-24 63zM32 80q1 39 24.5 63t62.5 24q38 0 62 -24t24 -63q0 -38 -24 -62.5t-62 -24.5q-39 0 -63 24t-24 63z" />
    <glyph glyph-name="semicolon" unicode=";" horiz-adv-x="255" 
d="M215 440q0 -38 -24.5 -62.5t-62.5 -24.5q-39 0 -63 24q-23 25 -23 63t23 63q24 24 63 24t63 -24t24 -63zM83 -178l-53 42q-8 5 1 14q64 49 84 115q-1 1 -4 1q-59 18 -59 83q0 40 23.5 63.5t62.5 24.5q38 0 61.5 -23.5t24.5 -61.5q5 -78 -34 -155q-39 -79 -91 -107
q-9 -3 -16 4z" />
    <glyph glyph-name="less" unicode="&#x3c;" horiz-adv-x="539" 
d="M38 227v139q0 15 9 18l441 154q13 3 13 -10v-129q0 -14 -10 -17l-273 -85l273 -85q10 -3 10 -17v-129q0 -13 -13 -10l-441 154q-9 3 -9 17z" />
    <glyph glyph-name="equal" unicode="=" horiz-adv-x="524" 
d="M454 323h-385q-13 0 -13 14v92q0 14 13 14h385q14 0 14 -14v-92q0 -14 -14 -14zM454 133h-385q-13 0 -13 14v92q0 14 13 14h385q14 0 14 -14v-92q0 -14 -14 -14z" />
    <glyph glyph-name="greater" unicode="&#x3e;" horiz-adv-x="539" 
d="M48 212l273 85l-273 85q-10 3 -10 17v129q0 13 13 10l441 -154q9 -3 9 -18v-139q0 -14 -9 -17l-441 -154q-13 -3 -13 10v129q0 14 10 17z" />
    <glyph glyph-name="question" unicode="?" horiz-adv-x="472" 
d="M289 492q0 32 -19.5 48.5t-51.5 16.5q-52 0 -100 -60q-8 -7 -14 -1l-86 96q-8 8 0 15q78 96 212 96q87 0 149 -53q63 -52 63 -134q0 -89 -52 -145l-31.5 -31.5t-34 -36.5t-22.5 -37.5t-13 -50.5q0 -10 -10 -10h-136q-10 0 -10 10q4 86 58 147q10 11 33 33.5t34 34.5
t21 29.5t10 32.5zM129 74q0 37 23 60t61 23q36 0 59 -23t23 -60q0 -38 -23 -61t-59 -23q-37 0 -60.5 23t-23.5 61z" />
    <glyph glyph-name="at" unicode="@" horiz-adv-x="906" 
d="M849 333q0 -85 -47 -141q-46 -54 -126 -57q-56 0 -108 44q-42 -64 -131 -64q-79 0 -132 54q-50 53 -52 139q0 86 51 139q53 53 133 53q71 0 115 -44l17 19q5 6 11 6h72q10 0 10 -11v-177q0 -52 38 -52q23 0 35.5 26t11.5 66q2 117 -75 188q-76 71 -199 71
q-139 0 -222 -79q-82 -78 -84 -203q2 -128 85 -204q85 -77 221 -77q95 0 174 63q11 10 19 2l61 -62q11 -10 0 -21q-94 -94 -254 -94q-187 0 -302 108q-114 108 -114 284q0 177 114 285q115 109 302 109q167 0 271 -102q105 -102 105 -268zM453 252q26 1 41.5 16t15.5 39
q0 25 -15.5 40.5t-41.5 15.5q-27 0 -43.5 -15.5t-16.5 -40.5t16.5 -40.5t43.5 -14.5z" />
    <glyph glyph-name="A" unicode="A" horiz-adv-x="676" 
d="M523 7l-56 150h-257l-57 -150q-3 -7 -11 -7h-133q-13 0 -8 11l255 673q3 9 13 9h139q10 0 13 -9l254 -673q5 -11 -7 -11h-135q-9 0 -10 7zM418 287l-80 212l-80 -212h160z" />
    <glyph glyph-name="B" unicode="B" horiz-adv-x="612" 
d="M339 306h-121v-160l112 1q44 0 70.5 23.5t26.5 61.5q0 36 -23 55t-65 19zM218 420h88q78 0 78 70q0 26 -24 42t-64 16l-78 -1v-127zM76 694h238q100 0 161 -52q60 -52 62 -138q2 -75 -59 -127q100 -54 102 -170q2 -94 -65 -150q-67 -57 -178 -57h-262q-10 0 -10 10v673
q0 11 11 11z" />
    <glyph glyph-name="C" unicode="C" horiz-adv-x="664" 
d="M635 82q-97 -92 -249 -92q-159 0 -257 98q-97 98 -97 258q0 85 29.5 154.5t80.5 113.5q106 89 244 89q147 2 248 -93q6 -6 0 -13l-74 -105q-5 -9 -14 0q-69 60 -160 60q-90 0 -146 -57q-55 -55 -55 -149q0 -93 55 -148q56 -56 146 -56t160 60q9 7 14 -1l75 -105
q8 -9 0 -14z" />
    <glyph glyph-name="D" unicode="D" horiz-adv-x="683" 
d="M296 548h-78v-401h78q92 0 147 55q56 56 56 145q0 90 -56 146q-55 55 -147 55zM296 0h-221q-10 0 -10 10v674q0 10 10 10h221q161 0 258 -94t97 -253q0 -160 -97 -254q-98 -93 -258 -93z" />
    <glyph glyph-name="E" unicode="E" horiz-adv-x="536" 
d="M431 282h-213v-135h270q10 0 10 -10v-128q0 -9 -9 -9h-414q-10 0 -10 10v674q0 10 10 10h404q10 0 10 -10v-128q0 -9 -10 -9h-261v-121h213q10 0 10 -10v-124q0 -10 -10 -10z" />
    <glyph glyph-name="F" unicode="F" horiz-adv-x="513" 
d="M431 282h-213v-270q0 -12 -11 -12h-132q-10 0 -10 10v674q0 10 10 10h404q10 0 10 -10v-128q0 -9 -10 -9h-261v-121h213q10 0 10 -10v-124q0 -10 -10 -10z" />
    <glyph glyph-name="G" unicode="G" horiz-adv-x="730" 
d="M540 260h-151q-10 0 -10 10v104q0 9 10 9h294q14 0 14 -14q-3 -184 -83 -281.5t-240 -96.5q-154 1 -248 98t-94 258q0 160 98 258t258 98q148 0 251 -95q7 -6 0 -13l-78 -105q-6 -6 -14 0q-15 13 -31 23q-20 14 -57 25.5t-70 11.5q-92 0 -148 -56t-56 -147q0 -92 52 -147
q53 -56 138 -56q130 0 165 116z" />
    <glyph glyph-name="H" unicode="H" horiz-adv-x="693" 
d="M209 0h-134q-10 0 -10 10v674q0 10 10 10h134q9 0 9 -9v-273h257v272q0 10 10 10h134q9 0 9 -9v-675q0 -10 -10 -10h-133q-10 0 -10 10v272h-257v-272q0 -10 -9 -10z" />
    <glyph glyph-name="I" unicode="I" horiz-adv-x="283" 
d="M218 684v-675q0 -9 -9 -9h-134q-10 0 -10 9v675q0 10 9 10h135q9 0 9 -10z" />
    <glyph glyph-name="J" unicode="J" horiz-adv-x="426" 
d="M208 242l-1 442q0 10 10 10h133q10 0 10 -10l1 -475q1 -104 -44 -161t-127 -58q-119 2 -183 58q-7 4 -2 14l62 111q6 11 17 5l14 -8q41 -23 73 -26q16 0 24 11q12 16 13 87z" />
    <glyph glyph-name="K" unicode="K" horiz-adv-x="592" 
d="M218 684v-291l203 295q6 6 13 6h145q16 0 6 -13l-230 -330l268 -339q11 -12 -5 -12h-160q-10 0 -13 5l-227 300v-296q0 -9 -9 -9h-134q-10 0 -10 9v675q0 10 9 10h135q9 0 9 -10z" />
    <glyph glyph-name="L" unicode="L" horiz-adv-x="466" 
d="M218 684v-547h209q10 0 10 -10v-118q0 -9 -9 -9h-353q-10 0 -10 9v675q0 10 9 10h135q9 0 9 -10z" />
    <glyph glyph-name="M" unicode="M" horiz-adv-x="864" 
d="M80 694h131q8 0 13 -8l207 -426l199 427q3 7 12 7h147q10 0 10 -10v-674q0 -10 -10 -10h-133q-10 0 -10 10v395l-145 -293q-3 -8 -12 -8h-117q-8 0 -12 7l-142 287v-388q0 -10 -10 -10h-133q-10 0 -10 10v669q0 15 15 15z" />
    <glyph glyph-name="N" unicode="N" horiz-adv-x="722" 
d="M514 694h134q9 0 9 -10v-674q0 -10 -10 -10h-152q-5 0 -10 6l-267 432v-428q0 -10 -10 -10h-133q-10 0 -10 10v674q0 10 10 10h152q9 0 13 -7l264 -429v426q0 10 10 10z" />
    <glyph glyph-name="O" unicode="O" horiz-adv-x="776" 
d="M744 347q0 -161 -98 -259q-97 -97 -258 -97q-160 0 -258 98t-98 258t98 258t258 98t258 -98t98 -258zM185 347q0 -92 56 -148q55 -55 148 -55q90 0 146 56t56 147q1 91 -55 147t-147 56q-92 0 -148 -56t-56 -147z" />
    <glyph glyph-name="P" unicode="P" horiz-adv-x="562" 
d="M339 249h-121v-239q0 -10 -10 -10h-133q-10 0 -10 10v673q0 11 11 11h263q102 0 162 -63q59 -62 61 -159q-2 -98 -61 -160q-60 -63 -162 -63zM218 547v-151h103q87 0 87 75q0 39 -24.5 58.5t-62.5 18.5z" />
    <glyph glyph-name="Q" unicode="Q" horiz-adv-x="778" 
d="M608 56l133 -82q8 -6 3 -14l-62 -104q-5 -10 -13 -3l-219 142q-24 -4 -62 -4q-160 0 -258 98t-98 258t98 258t258 98t258 -98t98 -258q0 -194 -136 -291zM591 347q0 91 -56 147t-146 56q-92 0 -148 -56t-56 -147t56 -147q58 -56 148 -56q92 0 147 55.5t55 147.5z" />
    <glyph glyph-name="R" unicode="R" horiz-adv-x="607" 
d="M430 5l-136 244h-76v-239q0 -10 -10 -10h-133q-10 0 -10 10v674q0 10 10 10h279q102 0 162 -63q59 -62 61 -159q-1 -73 -37 -128.5t-99 -79.5l151 -252q6 -12 -6 -12h-145q-6 0 -11 5zM356 548h-138v-152h138q25 0 46.5 19.5t21.5 55.5t-21.5 56t-46.5 21z" />
    <glyph glyph-name="S" unicode="S" horiz-adv-x="595" 
d="M39 74q-7 4 -2 13l66 118q7 10 16 2q24 -20 78 -43q54 -21 109 -21q43 0 72 15t29 40q0 54 -121 73q-127 21 -186.5 70.5t-62.5 139.5q-3 98 69 160q73 63 194 62q78 -2 139 -24t83 -43q8 -5 3 -14l-53 -121q-4 -9 -14 -3q-79 52 -164 52q-44 0 -73.5 -16.5t-29.5 -40.5
t25.5 -38t96.5 -29q128 -28 186 -78.5t61 -143.5q3 -92 -71 -154t-196 -60q-84 2 -156 30q-73 30 -98 54z" />
    <glyph glyph-name="T" unicode="T" horiz-adv-x="554" 
d="M201 9v538h-172q-9 0 -9 9v128q0 10 10 10h495q9 0 9 -10v-127q0 -10 -9 -10h-171v-538q0 -9 -10 -9h-134q-9 0 -9 9z" />
    <glyph glyph-name="U" unicode="U" horiz-adv-x="684" 
d="M65 272v412q0 9 10 9h134q9 0 9 -9v-413q0 -57 34.5 -92t90.5 -35t89.5 35t32.5 92v413q0 9 10 9h134q10 0 10 -9v-413q0 -133 -81 -207q-80 -73 -196 -73q-114 0 -196 74q-81 73 -81 207z" />
    <glyph glyph-name="V" unicode="V" horiz-adv-x="680" 
d="M245 9l-244 672q-5 12 8 12h139q8 0 11 -7l181 -499l181 499q1 7 11 7h139q13 0 8 -12l-245 -672q-3 -9 -13 -9h-162q-9 0 -14 9z" />
    <glyph glyph-name="W" unicode="W" horiz-adv-x="963" 
d="M621 8l-140 494l-140 -494q-2 -8 -10 -8h-117q-8 0 -10 8l-203 676q-3 10 7 10h135q9 0 12 -9l122 -449l133 449q3 9 12 9h118q6 0 11 -9l136 -454l124 456q0 7 9 7h135q10 0 7 -10l-204 -676q-2 -8 -11 -8h-115q-9 0 -11 8z" />
    <glyph glyph-name="X" unicode="X" horiz-adv-x="612" 
d="M162 0h-154q-12 0 -6 10l218 333l-214 341q-4 10 6 10h158q8 0 13 -6l124 -208l129 207q4 6 13 6h156q12 0 5 -10l-222 -339l211 -334q7 -10 -6 -10h-158q-7 0 -12 6l-121 202l-127 -202q-5 -6 -13 -6z" />
    <glyph glyph-name="Y" unicode="Y" horiz-adv-x="634" 
d="M240 9v267l-238 405q-7 12 7 12h140q8 0 13 -8l155 -276l155 276q5 8 13 8h140q15 0 7 -12l-239 -405v-267q0 -9 -10 -9h-133q-10 0 -10 9z" />
    <glyph glyph-name="Z" unicode="Z" horiz-adv-x="613" 
d="M575 677l-302 -533h287q10 0 10 -10v-124q0 -10 -10 -10h-513q-19 0 -9 16l302 534h-254q-10 0 -10 9v125q0 10 10 10h480q20 0 9 -17z" />
    <glyph glyph-name="bracketleft" unicode="[" horiz-adv-x="333" 
d="M180 570v-607h75q12 0 12 -13v-99q0 -13 -12 -13h-205q-13 0 -13 13v830q0 13 13 13h204q12 0 12 -13v-99q2 -12 -12 -12h-74z" />
    <glyph glyph-name="backslash" unicode="\" horiz-adv-x="448" 
d="M8 722h122q8 0 13 -9l304 -700q2 -5 0 -9t-6 -4h-121q-11 0 -15 10l-304 698q-6 14 7 14z" />
    <glyph glyph-name="bracketright" unicode="]" horiz-adv-x="334" 
d="M49 -37h75v607h-74q-13 0 -13 12v99q0 13 13 13h204q13 0 13 -13l-1 -830q1 -13 -12 -13h-205q-12 0 -12 13v99q0 13 12 13z" />
    <glyph glyph-name="asciicircum" unicode="^" horiz-adv-x="584" 
d="M26 273l181 411q3 9 14 9h142q11 0 14 -9l181 -411q5 -14 -10 -14h-130q-12 0 -17 11l-109 267l-109 -267q-5 -11 -17 -11h-130q-15 0 -10 14z" />
    <glyph glyph-name="underscore" unicode="_" horiz-adv-x="601" 
d="M50 -16h500q14 0 14 -16v-86q0 -16 -14 -16h-500q-13 0 -13 15v89q0 14 13 14z" />
    <glyph glyph-name="grave" unicode="`" horiz-adv-x="277" 
d="M205 531l-180 118q-11 7 -3 15l64 78q8 9 17 0l151 -155q6 -7 1 -12l-34 -43q-8 -7 -16 -1z" />
    <glyph glyph-name="a" unicode="a" horiz-adv-x="593" 
d="M400 436l17 41q3 10 11 10h106q9 0 9 -10v-467q0 -10 -10 -10h-106q-8 0 -11 10l-16 39q-50 -60 -131 -60q-109 -1 -177 69q-67 70 -67 184t67 182q67 69 177 71q83 0 131 -59zM171 242q0 -47 29.5 -77t76.5 -30q49 0 78.5 29t29.5 78q0 48 -30 77.5t-78 29.5t-77 -29.5
t-29 -77.5z" />
    <glyph glyph-name="b" unicode="b" horiz-adv-x="582" 
d="M153 0h-93q-10 0 -10 9v704q0 10 10 10h126q11 0 11 -10v-262q47 44 115 44q110 0 177 -70q68 -71 68 -183t-68 -183q-67 -70 -177 -70q-83 0 -131 62l-16 -41q-4 -10 -12 -10zM305 350q-49 0 -78.5 -29.5t-29.5 -78.5q0 -48 29.5 -77.5t78.5 -29.5q46 0 75.5 30t29.5 77
q0 48 -29 78t-76 30z" />
    <glyph glyph-name="c" unicode="c" horiz-adv-x="514" 
d="M482 89q-66 -100 -205 -100q-113 0 -183 70q-69 71 -69 183q0 116 72 184q73 67 173 70q145 3 223 -111q5 -11 -1 -15l-95 -78q-9 -6 -17 3q-39 55 -103 55q-48 0 -77 -29.5t-29 -78.5t29 -78.5t77 -29.5q29 0 50 10t30 17l20 21q9 10 18 3l86 -82q7 -7 1 -14z" />
    <glyph glyph-name="d" unicode="d" horiz-adv-x="583" 
d="M270 -11q-110 0 -177 70t-67 183t67 183t177 70q69 0 116 -44v262q0 10 10 10h126q11 0 11 -10v-703q0 -10 -11 -10h-92q-9 0 -12 10l-16 41q-48 -62 -132 -62zM385 242q1 49 -28.5 78.5t-78.5 29.5q-48 0 -77 -30t-29 -78q0 -47 29.5 -77t76.5 -30q49 0 78 28.5t29 78.5
z" />
    <glyph glyph-name="e" unicode="e" horiz-adv-x="553" 
d="M179 289h194q-19 70 -96 70q-79 0 -98 -70zM517 186h-334q27 -61 106 -61q57 0 91 27q10 8 17 1l77 -82q7 -7 1 -15q-62 -66 -196 -67q-113 0 -184 69q-70 70 -70 184q0 112 69 183q70 70 183 70q120 0 185.5 -74t65.5 -224q0 -11 -11 -11z" />
    <glyph glyph-name="f" unicode="f" horiz-adv-x="367" 
d="M324 350h-101v-340q0 -10 -10 -10h-127q-10 0 -10 10l-1 340h-55q-10 0 -10 10v117q0 10 10 10h55v47q0 107 41.5 153t127.5 46q41 0 77 -13.5t53 -30.5q6 -6 3 -14l-42 -100q-5 -12 -15 -5q-31 19 -50 19q-25 0 -36 -15t-11 -53v-34h101q10 0 10 -10v-117q0 -10 -10 -10
z" />
    <glyph glyph-name="g" unicode="g" horiz-adv-x="587" 
d="M271 498q87 0 136 -66l19 45q3 9 12 10h89q10 0 10 -11l2 -451q0 -118 -72 -190q-70 -73 -187 -73q-120 2 -202 52q-10 6 -4 16l53 111q4 8 14 4q65 -35 128 -36q59 0 90.5 32.5t31.5 91.5v2q-47 -47 -120 -47q-111 2 -179 71q-67 70 -67 184t67 184q68 71 179 71z
M172 244q0 -49 29.5 -78.5t76.5 -29.5q51 1 81.5 30t30.5 78q0 50 -30 79t-82 28q-48 0 -77 -29.5t-29 -77.5z" />
    <glyph glyph-name="h" unicode="h" horiz-adv-x="555" 
d="M50 11v700q0 11 10 11h126q11 0 11 -10v-262q46 49 129 49q80 0 130 -60q51 -60 51 -158v-270q0 -11 -10 -11h-127q-10 0 -10 11v236q0 48 -22.5 76.5t-58.5 27.5q-76 -2 -82 -113v-227q0 -11 -10 -11h-126q-11 0 -11 11z" />
    <glyph glyph-name="i" unicode="i" horiz-adv-x="246" 
d="M196 478v-468q0 -10 -10 -10h-126q-10 0 -10 10v466q0 11 11 11h126q9 0 9 -9zM212 640q0 -41 -24.5 -65.5t-64.5 -24.5t-65 25t-25 65t25 64t65 24t64.5 -24t24.5 -64z" />
    <glyph glyph-name="j" unicode="j" horiz-adv-x="283" 
d="M69 639q0 40 24 64q25 25 66 25t65 -24t24 -65t-24.5 -65.5t-64.5 -24.5q-41 0 -65.5 24.5t-24.5 65.5zM87 -42l-1 519q0 10 10 10l127 -1q9 0 9 -10l1 -536q1 -82 -41 -130t-117 -48q-77 0 -120 43q-7 7 -2 14l44 106q6 13 18 3q17 -16 37 -16q34 0 35 46z" />
    <glyph glyph-name="k" unicode="k" horiz-adv-x="501" 
d="M322 486h167q14 0 5 -13l-158 -220l190 -240q10 -13 -5 -13h-163q-8 0 -13 5l-148 196v-192q0 -9 -9 -9h-128q-10 0 -10 9v704q0 9 9 9h129q9 0 9 -9v-410l116 178q3 5 9 5z" />
    <glyph glyph-name="l" unicode="l" horiz-adv-x="247" 
d="M197 712v-702q0 -10 -10 -10h-127q-10 0 -10 10v702q0 10 10 10h127q10 0 10 -10z" />
    <glyph glyph-name="m" unicode="m" horiz-adv-x="805" 
d="M60 487h104q12 0 13 -10l9 -35q45 57 127 57q93 0 139 -87q44 87 147 87q75 0 121 -60q47 -61 47 -158v-270q0 -11 -10 -11h-126q-11 0 -11 11v236q0 52 -17 78.5t-50 25.5q-71 -2 -71 -127v-213q0 -11 -10 -11h-127q-10 0 -10 11v236q0 51 -17 78t-51 26
q-65 -1 -70 -111v-230q0 -10 -10 -10h-127q-10 0 -10 10v467q0 10 10 10z" />
    <glyph glyph-name="n" unicode="n" horiz-adv-x="555" 
d="M50 10v466q0 11 10 11h104q10 0 13 -10l10 -38q49 60 139 60q80 0 130 -60q51 -60 51 -158v-270q0 -11 -10 -11h-127q-10 0 -10 11v236q0 48 -22.5 76.5t-58.5 27.5q-76 -2 -82 -114v-227q0 -9 -10 -9h-126q-11 0 -11 9z" />
    <glyph glyph-name="o" unicode="o" horiz-adv-x="557" 
d="M25 245q0 113 70 183q71 71 183 71q113 0 184 -71q70 -70 70 -183q0 -115 -70 -185t-184 -70q-113 0 -183 70t-70 185zM278 136q48 1 77.5 30.5t29.5 78.5t-29.5 78.5t-77.5 28.5q-48 0 -77 -29t-29 -78t29 -79t77 -30z" />
    <glyph glyph-name="p" unicode="p" horiz-adv-x="584" 
d="M187 -228h-127q-10 0 -10 11v694q0 10 11 10h89q11 0 14 -10l17 -41q48 62 132 62q110 0 178 -71t68 -184t-68 -184q-67 -70 -178 -70q-69 0 -116 44v-251q0 -10 -10 -10zM199 244q0 -49 29.5 -79t77.5 -30t77 29.5t29 78.5t-29 78.5t-77 29.5t-77.5 -29.5t-29.5 -77.5z
" />
    <glyph glyph-name="q" unicode="q" horiz-adv-x="584" 
d="M534 476v-693q0 -11 -10 -11h-124q-12 0 -12 11l-1 250q-47 -44 -116 -44q-112 0 -179 70t-67 184t67 184q68 71 179 71q84 0 132 -62l17 41q3 10 12 10h92q10 0 10 -11zM278 135q49 0 78 30t29 79q0 48 -29 77.5t-78 29.5q-47 0 -76.5 -29.5t-29.5 -78.5t29.5 -78.5
t76.5 -29.5z" />
    <glyph glyph-name="r" unicode="r" horiz-adv-x="376" 
d="M329 334q-34 14 -62 14q-45 0 -69 -44v-293q0 -11 -10 -11h-127q-11 0 -11 11v465q0 10 10 11h89q11 0 14 -11l12 -27q55 48 121 48q24 0 72 -12q10 -3 7 -13l-31 -132q-4 -10 -15 -6z" />
    <glyph glyph-name="s" unicode="s" horiz-adv-x="461" 
d="M37 44q-8 6 -3 14l49 100q4 9 15 4q59 -31 106 -37q32 -4 55 2.5t23 17.5q0 4 -2.5 8t-8.5 7.5t-12 6.5t-17 6.5t-19.5 6t-23 6.5t-24.5 7q-139 40 -143 145q-3 76 57 118q61 42 150 41q57 0 104 -19q48 -20 69 -36q8 -6 3 -14l-51 -95q-4 -8 -16 -4l-15 7q-33 18 -72 25
q-32 6 -57 -1t-25 -19q0 -21 78 -38q89 -19 129.5 -52.5t42.5 -97.5q2 -74 -51.5 -118.5t-142.5 -43.5q-64 0 -121 18q-60 20 -77 35z" />
    <glyph glyph-name="t" unicode="t" horiz-adv-x="344" 
d="M230 350l-1 -104q0 -57 5 -82q3 -14 9 -18.5t18 -4.5q5 0 20 6l15 6q10 6 14 -4l33 -110q4 -13 -4 -16q-42 -33 -110 -32q-67 0 -106 44t-38 118v197h-55q-10 0 -10 9v118q0 10 10 10h55l1 140q0 10 9 10h125q10 0 10 -10v-140h84q10 0 10 -10v-118q0 -9 -10 -9h-84z" />
    <glyph glyph-name="u" unicode="u" horiz-adv-x="564" 
d="M387 10l-10 37q-62 -59 -155 -59q-79 0 -127 60t-48 158v270q0 10 10 10h126q11 0 11 -10v-236q0 -115 86 -115q81 2 87 123v228q0 11 11 11h125q10 0 10 -10l1 -467q0 -10 -11 -10h-103q-10 0 -13 10z" />
    <glyph glyph-name="v" unicode="v" horiz-adv-x="520" 
d="M519 474l-173 -465q-3 -9 -14 -9h-144q-10 0 -13 9l-174 465q-6 13 9 13h134q8 0 11 -8l105 -304l105 304q3 8 11 8h135q14 0 8 -13z" />
    <glyph glyph-name="w" unicode="w" horiz-adv-x="689" 
d="M160 478l52 -265l70 265q2 9 10 9h105q7 0 12 -9l69 -286l50 286q2 9 9 9h144q11 0 7 -10l-125 -469q-3 -8 -12 -8h-134q-9 0 -11 8l-63 263l-63 -263q-2 -8 -11 -8h-129q-9 0 -12 8l-128 469q-1 10 7 10h143q8 0 10 -9z" />
    <glyph glyph-name="x" unicode="x" horiz-adv-x="522" 
d="M257 126l-81 -118q-6 -8 -15 -8h-152q-5 0 -7 4t1 8l166 232l-166 230q-3 4 -1.5 8.5t6.5 4.5h155q10 0 16 -9l80 -114l79 114q4 9 16 9h151q5 0 7 -4t-2 -9l-163 -227l166 -234q7 -13 -6 -13h-156q-9 0 -15 8z" />
    <glyph glyph-name="y" unicode="y" horiz-adv-x="517" 
d="M378 487h129q13 0 9 -13l-267 -693q-5 -9 -13 -9h-130q-6 0 -8.5 4t-0.5 9l85 219l-181 470q-5 11 7 13h134q9 0 12 -9l98 -293l113 293q5 9 13 9z" />
    <glyph glyph-name="z" unicode="z" horiz-adv-x="462" 
d="M421 0h-383q-12 0 -7 12l173 338h-153q-9 0 -9 9v118q0 10 9 10h374q13 0 4 -17l-171 -333h163q9 0 9 -10v-117q0 -10 -9 -10z" />
    <glyph glyph-name="braceleft" unicode="{" horiz-adv-x="361" 
d="M63 322l9 4l13 6q1 1 12 7.5t14 10.5q21 21 21 45v154q0 57 16 98q19 46 84 46h78q14 0 14 -14v-101q0 -15 -14 -15h-25q-13 0 -13 -14v-150q0 -89 -79 -134q79 -43 79 -134v-150q0 -14 13 -14h25q14 0 14 -15v-101q0 -14 -14 -14h-78q-65 0 -84 46q-16 41 -16 98v154
q0 34 -28 51q-21 13 -41 22q-7 4 -7 9v96q0 6 7 9z" />
    <glyph glyph-name="bar" unicode="|" horiz-adv-x="216" 
d="M177 707v-920q0 -15 -14 -15h-108q-15 0 -15 15l-1 920q0 15 15 15h109q14 0 14 -15z" />
    <glyph glyph-name="braceright" unicode="}" horiz-adv-x="361" 
d="M75 563h-25q-14 0 -14 15v101q0 14 14 14h78q65 0 83 -46q17 -41 17 -98v-154q0 -8 2.5 -16t5.5 -13.5t9 -11.5t10 -9.5t12 -7.5t11 -6t10.5 -5.5t8.5 -3.5q7 -3 7 -9v-96q0 -5 -7 -9q-26 -12 -41 -22q-28 -18 -28 -51v-154q0 -57 -17 -98q-18 -46 -83 -46h-78
q-14 0 -14 14v101q0 15 14 15h25q13 0 13 14v150q0 91 79 134q-79 45 -79 134v150q0 14 -13 14z" />
    <glyph glyph-name="asciitilde" unicode="~" horiz-adv-x="571" 
d="M140 184l-22 -48q-2 -6 -7.5 -6t-9.5 4l-76 80q-9 8 -4 22q22 60 65 96.5t98 36.5q39 0 72.5 -16t52.5 -35.5t41 -35.5t39 -16q21 0 31 22q10 18 12 24q3 7 9 22l8 20q8 17 20 5l76 -79q10 -8 5 -19q-22 -62 -65.5 -102t-98.5 -40q-33 -1 -68 15.5t-58.5 36.5t-45.5 36.5
t-33 15.5q-16 0 -30 -20q-5 -7 -11 -19z" />
    <glyph glyph-name="uni00A0" unicode="&#xa0;" horiz-adv-x="313" 
 />
    <glyph glyph-name="exclamdown" unicode="&#xa1;" horiz-adv-x="252" 
d="M59 485h130q10 0 10 -10l2 -465q0 -10 -9 -10h-135q-10 0 -10 10l2 465q0 10 10 10zM66 564q-22 22 -22 58t22 58q23 23 59 23q35 0 58 -23q22 -22 22 -58t-22 -58t-58 -22q-37 0 -59 22z" />
    <glyph glyph-name="cent" unicode="&#xa2;" horiz-adv-x="514" 
d="M311 345l-39 -210q1 -1 5 -1q29 0 50 10t30 17l20 21q10 10 15 5l90 -85q6 -5 0 -13q-66 -100 -205 -100q-25 0 -32 1l-17 -88q-1 -10 -12 -10h-37q-10 0 -9 10l19 100q-76 24 -120 87.5t-44 152.5q0 116 72 184q73 67 173 70h11l9 46q1 10 12 10h38q9 0 8 -10l-10 -52
q96 -19 155 -105q5 -11 -1 -15l-98 -80q-7 -4 -14 5q-28 39 -69 50zM217 150l37 198h-2q-38 -8 -59.5 -36t-21.5 -70q0 -64 46 -92z" />
    <glyph glyph-name="sterling" unicode="&#xa3;" horiz-adv-x="483" 
d="M411 0h-338q-16 0 -10 15q87 191 59 288h-73q-13 0 -13 15v35q0 15 13 15h46q-37 73 -39 142q2 84 60 138q58 55 144 55q110 0 182 -86q6 -8 -1 -16l-84 -91q-11 -8 -18 3q-37 46 -80 46q-24 0 -39 -13.5t-15 -35.5t7 -42q5 -13 21.5 -50t21.5 -50h92q14 0 14 -15v-35
q0 -15 -14 -15h-77q10 -75 -15 -166h156q13 0 13 -12v-111q0 -14 -13 -14z" />
    <glyph glyph-name="currency" unicode="&#xa4;" horiz-adv-x="584" 
d="M292 466q52 0 95 -20l56 63q7 7 14 0l85 -86q8 -6 1 -13l-64 -60q16 -39 16 -86q0 -52 -20 -97l66 -60q7 -6 0 -13l-85 -86q-8 -6 -14 0l-64 69q-86 -32 -169 -2l-63 -71q-6 -7 -14 -1l-86 87q-7 7 0 13l64 61q-22 43 -22 100q0 44 15 82l-67 60q-6 6 0 13l86 86
q7 7 14 0l57 -61q43 22 99 22zM188 264q2 -48 29 -75q28 -28 75 -28q46 0 74 28q27 27 29 75q1 46 -27.5 74t-75.5 29q-48 1 -76.5 -27t-27.5 -76z" />
    <glyph glyph-name="yen" unicode="&#xa5;" horiz-adv-x="634" 
d="M241 9v114h-103q-10 0 -10 10v31q0 10 10 10h103v70h-103q-10 0 -10 10v31q0 10 10 10h87h4l-227 386q-7 12 7 12h139q9 0 14 -8l155 -276l155 276q5 8 14 8h139q15 0 7 -12l-227 -386h6h79q10 0 10 -10v-31q0 -10 -10 -10h-97v-70h97q10 0 10 -10v-31q0 -10 -10 -10h-97
v-114q0 -9 -10 -9h-133q-10 0 -9 9z" />
    <glyph glyph-name="brokenbar" unicode="&#xa6;" horiz-adv-x="215" 
d="M55 124h104q10 0 10 -10v-332q0 -10 -10 -10h-104q-10 0 -10 10v332q0 10 10 10zM55 722h105q10 0 10 -10v-332q0 -10 -10 -10h-105q-10 0 -10 10v332q0 10 10 10z" />
    <glyph glyph-name="section" unicode="&#xa7;" horiz-adv-x="595" 
d="M37 501q-3 96 67 149.5t196 52.5q78 -2 139 -24t83 -43q8 -5 3 -14l-53 -111q-4 -9 -14 -3q-79 52 -165 52q-47 0 -75 -12.5t-28 -34.5q0 -21 19 -27q10 -4 22 -6q35 -2 82 -14q125 -27 184 -77t63 -151q1 -61 -37 -113q34 -37 37 -108q3 -92 -70 -143q-72 -53 -197 -51
q-85 1 -157 30q-70 28 -97 53q-6 6 -3 13l67 109q6 9 15 2q26 -21 79 -42q53 -22 108 -22q102 0 102 45q-1 18 -24 29t-97 24q-128 21 -187 70t-62 140q-3 69 36 124q-34 37 -36 103zM313 209l27 -6q17 -3 33 -8q34 16 34 43q-3 64 -121 83q-39 8 -56 10q-39 -17 -39 -45
t28 -45.5t94 -31.5z" />
    <glyph glyph-name="dieresis" unicode="&#xa8;" horiz-adv-x="354" 
d="M30 647q0 31 18.5 49.5t49.5 18.5q30 0 48.5 -19t18.5 -49t-19 -49t-48 -19q-31 0 -49.5 19t-18.5 49zM186 647q0 31 18.5 49.5t49.5 18.5q30 0 48.5 -19t18.5 -49t-19 -49t-48 -19q-31 0 -49.5 19t-18.5 49z" />
    <glyph glyph-name="copyright" unicode="&#xa9;" horiz-adv-x="782" 
d="M553 227q-54 -75 -158 -75q-87 0 -140 54q-53 55 -53 141q0 76 43 125q44 50 100 63q58 13 118 -6q61 -20 92 -69q4 -8 -2 -14l-72 -64q-9 -7 -18 2q-35 33 -68 33q-31 1 -50.5 -18.5t-19.5 -51.5q0 -33 19 -52t51 -19q44 0 69 31q9 10 20 1l67 -63q8 -8 2 -18zM35 346
q0 162 97 259q98 98 259 98q160 0 258 -98t98 -259q0 -160 -98 -258t-258 -98t-258 98t-98 258zM119 346q0 -122 75 -197q76 -74 197 -74q122 0 198 74q76 75 76 197q0 123 -76 198q-75 75 -198 75q-122 0 -197 -75t-75 -198z" />
    <glyph glyph-name="ordfeminine" unicode="&#xaa;" horiz-adv-x="433" 
d="M297 706h88q9 0 9 -10v-319q0 -11 -10 -11h-87q-8 0 -12 10l-11 24q-30 -41 -84 -41q-77 0 -124 48.5t-47 128.5q0 78 47 128q46 49 124 49q54 0 84 -42l12 25q3 10 11 10zM201 482q26 0 41 15t16 40q4 36 -34.5 49t-63.5 -11q-26 -23 -11 -60t52 -33z" />
    <glyph glyph-name="guillemotleft" unicode="&#xab;" horiz-adv-x="514" 
d="M256 256v20q0 11 8 21l152 156q9 13 22 0l62 -61q10 -10 1 -20l-106 -106l106 -106q9 -10 -1 -20l-62 -61q-13 -13 -22 0l-152 156q-8 10 -8 21zM208 453l62 -61q10 -10 1 -20l-106 -106l106 -106q9 -10 -1 -20l-62 -61q-13 -13 -22 0l-152 156q-8 10 -8 21v20q0 11 8 21
l152 156q9 13 22 0z" />
    <glyph glyph-name="logicalnot" unicode="&#xac;" horiz-adv-x="631" 
d="M566 400v-216q0 -13 -13 -13h-95q-12 0 -12 13v107h-368q-13 0 -13 15v92q0 15 13 16h474q14 0 14 -14z" />
    <glyph glyph-name="uni00AD" unicode="&#xad;" horiz-adv-x="333" 
 />
    <glyph glyph-name="registered" unicode="&#xae;" horiz-adv-x="782" 
d="M35 346q0 162 97 259q98 98 259 98q160 0 258 -98t98 -259q0 -160 -98 -258t-258 -98t-258 98t-98 258zM391 619q-122 0 -197 -75t-75 -198q0 -121 75 -196t197 -75q123 0 199 74q75 75 75 197q0 124 -75 198q-75 75 -199 75zM542 419q0 -82 -67 -113l69 -134
q2 -4 -1 -8.5t-9 -4.5h-93q-11 0 -16 9l-51 126h-16v-121q0 -14 -16 -14h-90q-16 0 -16 16v350q0 13 14 13h170q56 0 89 -32.5t33 -86.5zM358 434v-45h50q22 0 22 23q0 22 -22 22h-50z" />
    <glyph glyph-name="overscore" unicode="&#xaf;" horiz-adv-x="325" 
d="M30 696h265q10 0 10 -10v-71q0 -10 -10 -10h-265q-10 0 -10 10v71q0 10 10 10z" />
    <glyph glyph-name="degree" unicode="&#xb0;" horiz-adv-x="426" 
d="M411 524q0 -88 -55 -143q-54 -54 -143 -54t-144 54q-54 54 -54 143t54 143q55 55 144 55t143 -55q55 -54 55 -143zM146 523q0 -29 19 -47.5t49 -18.5q27 0 46.5 19t19.5 47q0 32 -18 50.5t-48 18.5q-33 0 -50.5 -18t-17.5 -51z" />
    <glyph glyph-name="plusminus" unicode="&#xb1;" horiz-adv-x="589" 
d="M350 177h-111q-10 0 -10 10v126h-143q-10 0 -10 10v106q0 10 10 10h143v125q0 10 10 10h111q10 0 10 -10v-125h143q10 0 10 -10v-106q0 -10 -10 -10h-143v-126q0 -10 -10 -10zM511 116v-86q0 -12 -13 -12h-405q-13 0 -13 12v86q0 12 13 12h405q13 0 13 -12z" />
    <glyph glyph-name="twosuperior" unicode="&#xb2;" horiz-adv-x="324" 
d="M288 470l-13 -26l-47 -74h73q9 0 9 -9v-96q0 -11 -9 -11h-264q-23 2 -12 24l147 227q26 39 24 59q-1 22 -27 22q-29 0 -52 -27q-5 -6 -12 1l-61 71q-6 5 -1 10q54 63 144 63q60 0 94 -35t34 -93q0 -32 -13 -71q-5 -20 -14 -35z" />
    <glyph glyph-name="threesuperior" unicode="&#xb3;" horiz-adv-x="357" 
d="M125 451v68q0 10 10 10h24q35 2 35 36q0 14 -9 22.5t-22 8.5q-27 0 -56 -24q-7 -4 -11 0l-52 62q-5 8 0 13q47 56 135 56q62 0 100.5 -33.5t38.5 -85.5q0 -60 -40 -101q54 -31 54 -104q0 -61 -44 -98t-115 -37q-67 0 -110.5 39.5t-47.5 104.5q0 10 10 10h98q8 0 8 -8
q1 -28 40 -28q16 0 26 10.5t10 27.5q0 38 -40 41h-32q-11 0 -10 10z" />
    <glyph glyph-name="acute" unicode="&#xb4;" horiz-adv-x="277" 
d="M192 742l63 -78q7 -7 -2 -15l-181 -118q-9 -5 -15 1l-35 42q-5 8 2 14l151 154q9 8 17 0z" />
    <glyph glyph-name="mu" unicode="&#xb5;" horiz-adv-x="567" 
d="M370 248v226q0 13 11 13h125q11 0 11 -10v-467q0 -10 -10 -10h-106q-8 0 -11 10l-10 37q-62 -59 -154 -59q-6 0 -30 2v-199q0 -18 -17 -18h-112q-17 0 -17 18v685q0 10 10 10h127q10 0 10 -11v-235q0 -115 86 -115q81 2 87 123z" />
    <glyph glyph-name="paragraph" unicode="&#xb6;" horiz-adv-x="585" 
d="M399 558h-80v-594q0 -12 -11 -12h-93q-13 0 -13 13v362q-82 0 -132 50.5t-50 132.5t50 132.5t132 50.5h42q2 1 3 0h306q12 0 12 -11v-112q0 -12 -12 -12h-37v-594q-2 -12 -12 -12h-91q-14 0 -14 14v592z" />
    <glyph glyph-name="middot" unicode="&#xb7;" horiz-adv-x="211" 
d="M204 279q0 -43 -27 -70.5t-71 -27.5t-71 27t-27 71t27 71.5t71 27.5t71 -27.5t27 -71.5z" />
    <glyph glyph-name="cedilla" unicode="&#xb8;" horiz-adv-x="299" 
d="M98 0h113l-16 -37q41 -5 63 -25.5t21 -57.5q-1 -47 -36 -72.5t-91 -25.5q-32 -1 -67.5 10.5t-60.5 28.5q-7 4 -2 13l23 39q3 5 13 2q39 -15 78 -15q40 0 40 26t-49 26h-57q-10 0 -6 9z" />
    <glyph glyph-name="onesuperior" unicode="&#xb9;" horiz-adv-x="215" 
d="M20 694h156q12 0 12 -12v-415q0 -14 -14 -14h-101q-16 0 -14 14v309h-37q-12 0 -14 12v94q0 12 12 12z" />
    <glyph glyph-name="ordmasculine" unicode="&#xba;" horiz-adv-x="391" 
d="M19 537q0 79 48.5 128t127.5 49q80 0 128.5 -48.5t48.5 -128.5t-48.5 -129t-128.5 -49q-79 0 -128 49q-48 50 -48 129zM141 537q0 -25 15 -40t39 -15t38.5 15t14.5 40q0 24 -14.5 38.5t-38.5 14.5t-39 -14.5t-15 -38.5z" />
    <glyph glyph-name="guillemotright" unicode="&#xbb;" horiz-adv-x="517" 
d="M268 276v-20q0 -12 -9 -21l-151 -156q-12 -11 -23 0l-61 61q-10 10 -1 20l106 106l-106 106q-9 10 1 20l61 61q11 11 23 0l151 -156q9 -9 9 -21zM254 392l61 61q11 11 23 0l151 -156q9 -9 9 -21v-20q0 -12 -9 -21l-151 -156q-12 -11 -23 0l-61 61q-10 10 -1 20l106 106
l-106 106q-9 10 1 20z" />
    <glyph glyph-name="onequarter" unicode="&#xbc;" horiz-adv-x="833" 
d="M803 158v-74q1 -10 -9 -10h-36v-61q1 -13 -11 -13h-105q-14 0 -12 12v62h-198q-21 0 -13 17l171 340q4 10 15 8h143q9 0 10 -10v-262h34q11 0 11 -9zM132 15l395 700q3 7 14 7h120q6 0 9 -3.5t1 -7.5l-397 -704q-4 -7 -15 -7h-118q-18 0 -9 15zM81 267v309h-37
q-12 0 -14 12v94q0 12 12 12h156q12 0 12 -12v-415q0 -14 -14 -14h-101q-16 0 -14 14zM561 167h69v142z" />
    <glyph glyph-name="onehalf" unicode="&#xbd;" horiz-adv-x="833" 
d="M132 15l395 700q3 7 14 7h120q6 0 9 -3.5t1 -7.5l-397 -704q-4 -7 -15 -7h-118q-18 0 -9 15zM42 694h156q12 0 12 -12v-415q0 -14 -14 -14h-101q-16 0 -14 14v309h-37q-12 0 -14 12v94q0 12 12 12zM762 190l-46 -74h72q9 0 9 -9v-96q0 -11 -9 -11h-263q-24 1 -13 24
l54 87q6 9 30 46t35 53l28 41q26 42 24 59q0 22 -27 22q-30 0 -51 -27q-6 -6 -13 1l-61 71q-4 4 0 10q53 63 144 63q59 0 93.5 -35.5t34.5 -92.5q-4 -45 -16 -84q-10 -23 -13 -27q-3 -12 -12 -21z" />
    <glyph glyph-name="threequarters" unicode="&#xbe;" horiz-adv-x="933" 
d="M225 15l395 700q4 7 15 7h119q6 0 9 -3.5t1 -7.5l-397 -704q-3 -7 -14 -7h-118q-19 0 -10 15zM145 451v68q0 10 10 10h24q35 2 35 36q0 14 -9 22.5t-22 8.5q-27 0 -56 -24q-7 -4 -11 0l-52 62q-5 8 0 13q47 56 135 56q62 0 100.5 -33.5t38.5 -85.5q0 -60 -40 -101
q54 -31 54 -104q0 -61 -44 -98t-115 -37q-67 0 -110.5 39.5t-47.5 104.5q0 10 10 10h98q8 0 8 -8q1 -28 40 -28q16 0 26 10.5t10 27.5q0 38 -40 41h-32q-11 0 -10 10zM902 158v-74q1 -10 -9 -10h-36v-61q1 -13 -11 -13h-105q-12 0 -12 12v62h-198q-21 0 -13 17l171 340
q4 10 15 8h143q9 0 10 -10v-262h35q5 0 8 -2.5t2 -6.5zM660 167h69v142z" />
    <glyph glyph-name="questiondown" unicode="&#xbf;" horiz-adv-x="472" 
d="M183 478q0 10 10 10h136q10 0 10 -10q-4 -89 -59 -147q-12 -13 -32.5 -34t-32.5 -33.5t-22 -29.5t-10 -32q0 -32 19.5 -48.5t51.5 -17.5q54 0 100 61q6 8 14 0l86 -96q8 -7 0 -15q-80 -96 -212 -96q-88 0 -150 52q-62 53 -62 135q0 89 51 145q4 4 31.5 31t36 38t21 36
t13.5 51zM259 537q-37 0 -59.5 22.5t-22.5 59.5q0 39 22 61q23 23 60 23t60 -24q24 -23 24 -60t-23 -59.5t-61 -22.5z" />
    <glyph glyph-name="Agrave" unicode="&#xc0;" horiz-adv-x="676" 
d="M523 7l-56 150h-257l-57 -150q-3 -7 -11 -7h-133q-13 0 -8 11l255 673q3 9 13 9h138q11 0 14 -9l254 -673q5 -11 -7 -11h-135q-9 0 -10 7zM418 287l-80 212l-80 -212h160zM416 704l-195 91q-11 7 -3 15l51 86q5 9 17 3l171 -132q8 -6 3 -14l-29 -46q-5 -7 -15 -3z" />
    <glyph glyph-name="Aacute" unicode="&#xc1;" horiz-adv-x="676" 
d="M523 7l-56 150h-257l-57 -150q-3 -7 -11 -7h-133q-13 0 -8 11l255 673q3 9 13 9h138q11 0 14 -9l254 -673q5 -11 -7 -11h-135q-9 0 -10 7zM418 287l-80 212l-80 -212h160zM420 899l51 -86q3 -3 1.5 -8t-5.5 -7l-195 -91q-10 -5 -15 3l-28 46q-4 7 3 13l171 132
q10 8 17 -2z" />
    <glyph glyph-name="Acircumflex" unicode="&#xc2;" horiz-adv-x="676" 
d="M523 7l-56 150h-257l-57 -150q-3 -7 -11 -7h-133q-13 0 -8 11l255 673q3 9 13 9h138q11 0 14 -9l254 -673q5 -11 -7 -11h-135q-9 0 -10 7zM418 287l-80 212l-80 -212h160zM381 750l-43 39l-43 -39q-8 -5 -12 -5h-110q-12 0 -4 7l109 107q8 5 15 5h90q6 0 14 -5l110 -107
q8 -7 -3 -7h-111q-4 0 -12 5z" />
    <glyph glyph-name="Atilde" unicode="&#xc3;" horiz-adv-x="676" 
d="M523 7l-56 150h-257l-57 -150q-3 -7 -11 -7h-133q-13 0 -8 11l255 673q3 9 13 9h138q11 0 14 -9l254 -673q5 -11 -7 -11h-135q-9 0 -10 7zM418 287l-80 212l-80 -212h160zM229 741q-6 -13 -13 -4l-36 40q-5 6 -3 11q14 40 43 66t57 26q23 0 41 -12t28 -26t24 -25t29 -10
q36 0 52 45q5 12 12 4l38 -41q3 -5 3 -8q-14 -42 -42.5 -68t-59.5 -26q-29 0 -50 18.5t-37.5 37.5t-34.5 19q-35 -2 -51 -47z" />
    <glyph glyph-name="Adieresis" unicode="&#xc4;" horiz-adv-x="676" 
d="M523 7l-56 150h-257l-57 -150q-3 -7 -11 -7h-133q-13 0 -8 11l255 673q3 9 13 9h138q11 0 14 -9l254 -673q5 -11 -7 -11h-135q-9 0 -10 7zM418 287l-80 212l-80 -212h160zM192 788q0 31 18 49.5t49 18.5q30 0 48.5 -18.5t18.5 -49.5q0 -30 -19 -48.5t-48 -18.5
q-31 0 -49 18.5t-18 48.5zM347 788q0 31 18.5 49.5t49.5 18.5q30 0 48 -18.5t18 -49.5q0 -30 -18 -48.5t-48 -18.5q-31 0 -49.5 18.5t-18.5 48.5z" />
    <glyph glyph-name="Aring" unicode="&#xc5;" horiz-adv-x="676" 
d="M523 7l-56 150h-257l-57 -150q-3 -7 -11 -7h-133q-13 0 -8 11l255 673q3 9 13 9h138q11 0 14 -9l254 -673q5 -11 -7 -11h-135q-9 0 -10 7zM418 287l-80 212l-80 -212h160zM331 903q44 0 71 -26.5t27 -70.5t-27 -70.5t-71 -26.5t-70.5 26.5t-26.5 70.5t27 70.5t70 26.5z
M304 833q-10 -10 -10 -27t10 -28q10 -10 27 -10t27 10q11 11 11 28t-11 27q-10 10 -27 10t-27 -10z" />
    <glyph glyph-name="AE" unicode="&#xc6;" horiz-adv-x="828" 
d="M150 0h-136q-19 0 -12 16l352 669q4 9 15 9h400q12 0 12 -14v-109q0 -14 -12 -14h-168v-137h122q10 0 10 -11v-114q0 -10 -10 -10h-122v-148h179q10 0 10 -11v-115q0 -11 -9 -11h-323q-10 1 -10 11v151h-205l-78 -153q-5 -9 -15 -9zM448 565l-139 -273h139v273z" />
    <glyph glyph-name="Ccedilla" unicode="&#xc7;" horiz-adv-x="664" 
d="M635 82q-97 -92 -249 -92q-159 0 -257 98q-97 98 -97 258q0 85 29.5 154.5t80.5 113.5q106 89 244 89q147 2 248 -93q6 -6 0 -13l-74 -105q-5 -9 -14 0q-69 60 -160 60q-90 0 -146 -57q-55 -55 -55 -149q0 -93 55 -148q56 -56 146 -56t160 60q9 7 14 -1l75 -105
q8 -9 0 -14zM343 0h108l-16 -35q40 -5 60.5 -24.5t19.5 -54.5q-1 -44 -34 -68.5t-86 -24.5q-65 -1 -122 37q-8 5 -2 12l22 37q3 5 12 2q47 -14 74 -14q38 0 38 25q0 24 -46 24h-54q-11 0 -6 9z" />
    <glyph glyph-name="Egrave" unicode="&#xc8;" horiz-adv-x="536" 
d="M431 282h-213v-135h270q10 0 10 -10v-128q0 -9 -9 -9h-414q-10 0 -10 10v674q0 10 10 10h404q10 0 10 -10v-128q0 -9 -10 -9h-261v-121h213q10 0 10 -10v-124q0 -10 -10 -10zM321 704l-195 91q-13 6 -4 15l51 86q5 11 17 3l171 -132q8 -6 3 -14l-28 -46q-4 -9 -15 -3z
" />
    <glyph glyph-name="Eacute" unicode="&#xc9;" horiz-adv-x="536" 
d="M431 282h-213v-135h270q10 0 10 -10v-128q0 -9 -9 -9h-414q-10 0 -10 10v674q0 10 10 10h404q10 0 10 -10v-128q0 -9 -10 -9h-261v-121h213q10 0 10 -10v-124q0 -10 -10 -10zM382 899l51 -86q3 -3 1.5 -8t-5.5 -7l-195 -91q-10 -5 -15 3l-28 46q-4 7 3 13l171 132
q10 8 17 -2z" />
    <glyph glyph-name="Ecircumflex" unicode="&#xca;" horiz-adv-x="536" 
d="M431 282h-213v-135h270q10 0 10 -10v-128q0 -9 -9 -9h-414q-10 0 -10 10v674q0 10 10 10h404q10 0 10 -10v-128q0 -9 -10 -9h-261v-121h213q10 0 10 -10v-124q0 -10 -10 -10zM322 745l-42 39l-44 -39q-8 -5 -11 -5h-111q-11 0 -3 7l109 107q8 5 14 5h90q7 0 15 -5
l110 -107q8 -7 -4 -7h-110q-5 0 -13 5z" />
    <glyph glyph-name="Edieresis" unicode="&#xcb;" horiz-adv-x="536" 
d="M431 282h-213v-135h270q10 0 10 -10v-128q0 -9 -9 -9h-414q-10 0 -10 10v674q0 10 10 10h404q10 0 10 -10v-128q0 -9 -10 -9h-261v-121h213q10 0 10 -10v-124q0 -10 -10 -10zM199 731q-29 0 -46.5 18t-17.5 47t17.5 46.5t46.5 17.5t46.5 -18t17.5 -46t-18 -46.5
t-46 -18.5zM347 731q-29 0 -46.5 18t-17.5 47t17.5 46.5t46.5 17.5t46.5 -18t17.5 -46t-18 -46.5t-46 -18.5z" />
    <glyph glyph-name="Igrave" unicode="&#xcc;" horiz-adv-x="283" 
d="M218 684v-675q0 -9 -9 -9h-134q-10 0 -10 9v675q0 10 9 10h135q9 0 9 -10zM211 704l-194 91q-13 6 -4 15l51 86q5 11 17 3l171 -132q8 -6 3 -14l-28 -46q-5 -8 -16 -3z" />
    <glyph glyph-name="Iacute" unicode="&#xcd;" horiz-adv-x="283" 
d="M218 684v-675q0 -9 -9 -9h-134q-10 0 -10 9v675q0 10 9 10h135q9 0 9 -10zM224 899l51 -86q3 -3 1.5 -8t-5.5 -7l-195 -91q-10 -5 -15 3l-28 46q-4 7 3 13l171 132q10 8 17 -2z" />
    <glyph glyph-name="Icircumflex" unicode="&#xce;" horiz-adv-x="283" 
d="M218 684v-675q0 -9 -9 -9h-134q-10 0 -10 9v675q0 10 9 10h135q9 0 9 -10zM78 847l18 22h93q5 0 13 -7l116 -111q9 -9 -4 -9h-117q-5 0 -12 6zM-38 751l116 111q7 7 13 7h93l18 -22l-107 -99q-7 -6 -13 -6h-117q-12 0 -3 9z" />
    <glyph glyph-name="Idieresis" unicode="&#xcf;" horiz-adv-x="283" 
d="M218 684v-675q0 -9 -9 -9h-134q-10 0 -10 9v675q0 10 9 10h135q9 0 9 -10zM-5 798q0 31 18.5 49.5t49.5 18.5q30 0 48 -18.5t18 -49.5q0 -30 -18.5 -48.5t-47.5 -18.5q-31 0 -49.5 18.5t-18.5 48.5zM151 798q0 31 18.5 49.5t49.5 18.5q29 0 47.5 -18.5t18.5 -49.5
q0 -30 -18.5 -48.5t-47.5 -18.5q-31 0 -49.5 18.5t-18.5 48.5z" />
    <glyph glyph-name="Eth" unicode="&#xd0;" horiz-adv-x="683" 
d="M296 0h-221q-10 0 -10 10v300h-46q-9 0 -9 10v46q0 10 9 10h46v308q0 10 10 10h221q161 0 258 -94t97 -253q0 -160 -97 -254q-98 -93 -258 -93zM218 310v-163h78q92 0 147 55q56 56 56 145q0 90 -56 146q-55 55 -147 55h-78v-172h117q10 0 10 -10v-46q0 -10 -10 -10h-117
z" />
    <glyph glyph-name="Ntilde" unicode="&#xd1;" horiz-adv-x="722" 
d="M514 694h134q9 0 9 -10v-674q0 -10 -10 -10h-152q-5 0 -10 6l-267 432v-428q0 -10 -10 -10h-133q-10 0 -10 10v674q0 10 10 10h152q9 0 13 -7l264 -429v426q0 10 10 10zM250 741q-5 -12 -13 -4l-36 40q-5 6 -3 11q14 41 42.5 66.5t58.5 25.5q23 0 41 -12t28 -26t23.5 -25
t28.5 -10q36 0 52 45q5 12 12 4l38 -41q5 -6 3 -8q-12 -42 -41.5 -68t-60.5 -26q-19 -1 -38 10.5t-31 26.5t-26.5 27t-26.5 11q-33 -2 -51 -47z" />
    <glyph glyph-name="Ograve" unicode="&#xd2;" horiz-adv-x="776" 
d="M744 347q0 -161 -98 -259q-97 -97 -258 -97q-160 0 -258 98t-98 258t98 258t258 98t258 -98t98 -258zM185 347q0 -92 56 -148q55 -55 148 -55q90 0 146 56t56 147q1 91 -55 147t-147 56q-92 0 -148 -56t-56 -147zM436 714l-195 91q-13 6 -4 15l52 86q3 11 17 3l171 -132
q6 -6 3 -14l-29 -46q-5 -7 -15 -3z" />
    <glyph glyph-name="Oacute" unicode="&#xd3;" horiz-adv-x="776" 
d="M744 347q0 -161 -98 -259q-97 -97 -258 -97q-160 0 -258 98t-98 258t98 258t258 98t258 -98t98 -258zM185 347q0 -92 56 -148q55 -55 148 -55q90 0 146 56t56 147q1 91 -55 147t-147 56q-92 0 -148 -56t-56 -147zM481 899l51 -86q3 -3 1.5 -8t-5.5 -7l-195 -91
q-11 -5 -15 3l-28 46q-4 7 3 13l171 132q10 8 17 -2z" />
    <glyph glyph-name="Ocircumflex" unicode="&#xd4;" horiz-adv-x="776" 
d="M744 347q0 -161 -98 -259q-97 -97 -258 -97q-160 0 -258 98t-98 258t98 258t258 98t258 -98t98 -258zM185 347q0 -92 56 -148q55 -55 148 -55q90 0 146 56t56 147q1 91 -55 147t-147 56q-92 0 -148 -56t-56 -147zM424 747l-43 39l-44 -39q-5 -5 -11 -5h-110q-12 0 -4 7
l109 107q8 5 14 5h91q6 0 14 -5l110 -107q8 -7 -4 -7h-110q-4 0 -12 5z" />
    <glyph glyph-name="Otilde" unicode="&#xd5;" horiz-adv-x="776" 
d="M744 347q0 -161 -98 -259q-97 -97 -258 -97q-160 0 -258 98t-98 258t98 258t258 98t258 -98t98 -258zM185 347q0 -92 56 -148q55 -55 148 -55q90 0 146 56t56 147q1 91 -55 147t-147 56q-92 0 -148 -56t-56 -147zM279 741q-5 -12 -13 -4l-36 40q-5 6 -3 11q14 40 43 66
t58 26q23 0 41 -12t28 -26t23.5 -25t28.5 -10q35 0 52 45q5 12 12 4l38 -41q5 -6 3 -8q-12 -42 -41.5 -68t-60.5 -26q-19 -1 -38 10.5t-31 26.5t-26.5 27t-26.5 11q-33 -2 -51 -47z" />
    <glyph glyph-name="Odieresis" unicode="&#xd6;" horiz-adv-x="776" 
d="M744 347q0 -161 -98 -259q-97 -97 -258 -97q-160 0 -258 98t-98 258t98 258t258 98t258 -98t98 -258zM185 347q0 -92 56 -148q55 -55 148 -55q90 0 146 56t56 147q1 91 -55 147t-147 56q-92 0 -148 -56t-56 -147zM242 798q0 31 18 49.5t49 18.5q30 0 48.5 -18.5
t18.5 -49.5q0 -30 -19 -48.5t-48 -18.5q-31 0 -49 18.5t-18 48.5zM398 798q0 31 18 49.5t49 18.5q30 0 48.5 -18.5t18.5 -49.5q0 -30 -18.5 -48.5t-48.5 -18.5q-31 0 -49 18.5t-18 48.5z" />
    <glyph glyph-name="multiply" unicode="&#xd7;" horiz-adv-x="463" 
d="M141 322l-101 101q-6 6 0 14l74 75q8 6 15 0l101 -102l103 103q7 7 14 0l78 -78q7 -7 0 -14l-103 -103l102 -101q4 -7 0 -14l-75 -75q-7 -7 -14 0l-102 101l-103 -103q-7 -7 -14 0l-78 78q-6 8 0 14z" />
    <glyph glyph-name="Oslash" unicode="&#xd8;" horiz-adv-x="776" 
d="M744 347q0 -161 -98 -259q-97 -97 -258 -97q-160 0 -258 98t-98 258t98 258t258 98t258 -98t98 -258zM185 347q0 -92 56 -148q55 -55 148 -55q90 0 146 56t56 147q1 91 -55 147t-147 56q-92 0 -148 -56t-56 -147zM66 23l604 674q6 8 15 1l30 -27q7 -7 0 -14l-604 -675
q-7 -7 -14 0l-30 27q-7 6 -1 14z" />
    <glyph glyph-name="Ugrave" unicode="&#xd9;" horiz-adv-x="684" 
d="M65 272v412q0 9 10 9h134q9 0 9 -9v-413q0 -57 34.5 -92t90.5 -35t89.5 35t32.5 92v413q0 9 10 9h134q10 0 10 -9v-413q0 -133 -81 -207q-80 -73 -196 -73q-114 0 -196 74q-81 73 -81 207zM372 704l-195 91q-13 6 -4 15l52 86q3 11 17 3l171 -132q6 -6 3 -14l-29 -46
q-5 -7 -15 -3z" />
    <glyph glyph-name="Uacute" unicode="&#xda;" horiz-adv-x="684" 
d="M65 272v412q0 9 10 9h134q9 0 9 -9v-413q0 -57 34.5 -92t90.5 -35t89.5 35t32.5 92v413q0 9 10 9h134q10 0 10 -9v-413q0 -133 -81 -207q-80 -73 -196 -73q-114 0 -196 74q-81 73 -81 207zM424 899l51 -86q3 -3 1.5 -8t-5.5 -7l-195 -91q-10 -5 -15 3l-28 46q-4 7 3 13
l171 132q10 8 17 -2z" />
    <glyph glyph-name="Ucircumflex" unicode="&#xdb;" horiz-adv-x="684" 
d="M65 272v412q0 9 10 9h134q9 0 9 -9v-413q0 -57 34.5 -92t90.5 -35t89.5 35t32.5 92v413q0 9 10 9h134q10 0 10 -9v-413q0 -133 -81 -207q-80 -73 -196 -73q-114 0 -196 74q-81 73 -81 207zM385 747l-43 39l-44 -39q-5 -5 -11 -5h-110q-12 0 -4 7l109 107q8 5 15 5h90
q6 0 14 -5l110 -107q8 -7 -4 -7h-110q-4 0 -12 5z" />
    <glyph glyph-name="Udieresis" unicode="&#xdc;" horiz-adv-x="684" 
d="M65 272v412q0 9 10 9h134q9 0 9 -9v-413q0 -57 34.5 -92t90.5 -35t89.5 35t32.5 92v413q0 9 10 9h134q10 0 10 -9v-413q0 -133 -81 -207q-80 -73 -196 -73q-114 0 -196 74q-81 73 -81 207zM197 798q0 31 18.5 49.5t48.5 18.5t48.5 -18.5t18.5 -49.5q0 -30 -19 -48.5
t-48 -18.5q-30 0 -48.5 18.5t-18.5 48.5zM353 798q0 31 18 49.5t49 18.5q30 0 48.5 -18.5t18.5 -49.5q0 -30 -18.5 -48.5t-48.5 -18.5q-31 0 -49 18.5t-18 48.5z" />
    <glyph glyph-name="Yacute" unicode="&#xdd;" horiz-adv-x="634" 
d="M240 9v267l-238 405q-7 12 7 12h140q8 0 13 -8l155 -276l155 276q5 8 13 8h140q15 0 7 -12l-239 -405v-267q0 -9 -10 -9h-133q-10 0 -10 9zM399 899l51 -86q3 -3 1.5 -8t-5.5 -7l-195 -91q-11 -5 -15 3l-28 46q-4 7 3 13l171 132q10 8 17 -2z" />
    <glyph glyph-name="Thorn" unicode="&#xde;" horiz-adv-x="551" 
d="M56 11v671q0 12 12 12h130q11 0 11 -11v-113q63 0 89 -1q102 0 162 -63q59 -62 61 -159q-2 -98 -61 -160q-60 -63 -162 -63h-89v-113q0 -11 -12 -11h-130q-11 0 -11 11zM280 423h-71v-152h71q87 0 87 75q0 39 -24.5 58.5t-62.5 18.5z" />
    <glyph glyph-name="germandbls" unicode="&#xdf;" horiz-adv-x="591" 
d="M315 142q22 -16 47 -16q22 2 32.5 12t10.5 22q0 30 -67 89q-67 63 -67 132q0 32 35 79t35 65q0 45 -44 45q-77 0 -78 -172v-387q0 -11 -13 -11h-128q-13 0 -13 12v464q0 109 61.5 168.5t165.5 60.5q90 -2 144 -50q57 -48 57 -130q0 -42 -40 -82t-43 -64q0 -16 15.5 -30.5
t37 -29t43.5 -33.5t37.5 -51t15.5 -73q1 -85 -54 -137t-146 -52q-44 0 -101 27q-9 5 -5 17l48 121q5 12 14 4z" />
    <glyph glyph-name="agrave" unicode="&#xe0;" horiz-adv-x="593" 
d="M400 436l17 41q3 10 11 10h106q9 0 9 -10v-467q0 -10 -10 -10h-106q-8 0 -11 10l-16 39q-50 -60 -131 -60q-109 -1 -177 69q-67 70 -67 184t67 182q67 69 177 71q83 0 131 -59zM171 242q0 -47 29.5 -77t76.5 -30q49 0 78.5 29t29.5 78q0 48 -30 77.5t-78 29.5t-77 -29.5
t-29 -77.5zM314 508l-179 118q-11 8 -3 15l64 78q7 10 17 0l151 -155q6 -6 1 -12l-35 -43q-7 -7 -16 -1z" />
    <glyph glyph-name="aacute" unicode="&#xe1;" horiz-adv-x="593" 
d="M400 436l17 41q3 10 11 10h106q9 0 9 -10v-467q0 -10 -10 -10h-106q-8 0 -11 10l-16 39q-50 -60 -131 -60q-109 -1 -177 69q-67 70 -67 184t67 182q67 69 177 71q83 0 131 -59zM171 242q0 -47 29.5 -77t76.5 -30q49 0 78.5 29t29.5 78q0 48 -30 77.5t-78 29.5t-77 -29.5
t-29 -77.5zM380 723l63 -78q2 -3 2 -8t-4 -8l-181 -117q-8 -6 -15 1l-34 42q-5 5 1 13l151 155q8 8 17 0z" />
    <glyph glyph-name="acircumflex" unicode="&#xe2;" horiz-adv-x="593" 
d="M400 436l17 41q3 10 11 10h106q9 0 9 -10v-467q0 -10 -10 -10h-106q-8 0 -11 10l-16 39q-50 -60 -131 -60q-109 -1 -177 69q-67 70 -67 184t67 182q67 69 177 71q83 0 131 -59zM171 242q0 -47 29.5 -77t76.5 -30q49 0 78.5 29t29.5 78q0 48 -30 77.5t-78 29.5t-77 -29.5
t-29 -77.5zM136 548l91 133q4 6 12 7h98q9 0 13 -7l91 -133q6 -7 -4 -7h-102q-6 0 -11 5l-35 61l-36 -61q-5 -5 -12 -5h-101q-10 0 -4 7z" />
    <glyph glyph-name="atilde" unicode="&#xe3;" horiz-adv-x="593" 
d="M400 436l17 41q3 10 11 10h106q9 0 9 -10v-467q0 -10 -10 -10h-106q-8 0 -11 10l-16 39q-50 -60 -131 -60q-109 -1 -177 69q-67 70 -67 184t67 182q67 69 177 71q83 0 131 -59zM171 242q0 -47 29.5 -77t76.5 -30q49 0 78.5 29t29.5 78q0 48 -30 77.5t-78 29.5t-77 -29.5
t-29 -77.5zM183 547q-4 -12 -12 -4l-34 38q-6 4 -4 9q12 39 40 63.5t57 24.5q21 0 38 -11t26.5 -24t22.5 -24t27 -11q34 1 50 44q4 10 11 4l36 -39q3 -3 3 -9q-12 -39 -40 -63.5t-57 -24.5q-21 0 -38.5 11t-27 24t-23 24t-26.5 11q-33 -1 -49 -43z" />
    <glyph glyph-name="adieresis" unicode="&#xe4;" horiz-adv-x="593" 
d="M400 436l17 41q3 10 11 10h106q9 0 9 -10v-467q0 -10 -10 -10h-106q-8 0 -11 10l-16 39q-50 -60 -131 -60q-109 -1 -177 69q-67 70 -67 184t67 182q67 69 177 71q83 0 131 -59zM171 242q0 -47 29.5 -77t76.5 -30q49 0 78.5 29t29.5 78q0 48 -30 77.5t-78 29.5t-77 -29.5
t-29 -77.5zM143 611q0 31 18.5 49t49.5 18q30 0 48 -18.5t18 -48.5t-18 -49t-48 -19q-31 0 -49.5 19t-18.5 49zM299 611q0 31 18.5 49t49.5 18q29 0 48 -18.5t19 -48.5t-19 -49t-48 -19q-31 0 -49.5 19t-18.5 49z" />
    <glyph glyph-name="aring" unicode="&#xe5;" horiz-adv-x="593" 
d="M400 436l17 41q3 10 11 10h106q9 0 9 -10v-467q0 -10 -10 -10h-106q-8 0 -11 10l-16 39q-50 -60 -131 -60q-109 -1 -177 69q-67 70 -67 184t67 182q67 69 177 71q83 0 131 -59zM171 242q0 -47 29.5 -77t76.5 -30q49 0 78.5 29t29.5 78q0 48 -30 77.5t-78 29.5t-77 -29.5
t-29 -77.5zM191 624q0 43 26.5 69.5t70.5 26.5t71 -26.5t27 -69.5q0 -44 -27 -71t-71 -27t-70.5 27t-26.5 71zM317 623q0 30 -29 30q-19 0 -27 -18.5t6 -32.5q13 -13 31.5 -5.5t18.5 26.5z" />
    <glyph glyph-name="ae" unicode="&#xe6;" horiz-adv-x="924" 
d="M751 152q10 8 17 1l77 -81q8 -8 1 -15q-62 -67 -196 -68q-57 0 -107 19v-1q-1 -7 -10 -7h-106q-8 0 -11 10l-16 39q-50 -60 -131 -60q-109 -1 -177 69q-67 70 -67 184t67 182q67 69 177 71q83 0 131 -59l17 41q3 10 11 10h106q9 0 9 -10v-1q48 19 104 19q131 0 191 -82
q61 -82 61 -216q0 -11 -11 -11h-334q27 -61 105 -61q55 0 92 27zM277 135q49 0 78.5 29t29.5 78q0 48 -30 77.5t-78 29.5t-77 -29.5t-29 -77.5q0 -47 29.5 -77t76.5 -30zM550 289h194q-19 70 -97 70t-97 -70z" />
    <glyph glyph-name="ccedilla" unicode="&#xe7;" horiz-adv-x="514" 
d="M482 89q-66 -100 -205 -100q-113 0 -183 70q-69 71 -69 183q0 116 72 184q73 67 173 70q145 3 223 -111q5 -11 -1 -15l-95 -78q-9 -6 -17 3q-39 55 -103 55q-48 0 -77 -29.5t-29 -78.5t29 -78.5t77 -29.5q29 0 50 10t30 17l20 21q9 10 18 3l86 -82q7 -7 1 -14zM212 0h107
l-15 -35q40 -5 60.5 -24.5t19.5 -54.5q-1 -44 -34.5 -68.5t-86.5 -24.5q-30 -1 -64.5 10t-56.5 27q-8 5 -2 12l22 37q2 5 12 2q44 -14 74 -14q38 0 38 25q0 24 -47 24h-54q-9 0 -5 9z" />
    <glyph glyph-name="egrave" unicode="&#xe8;" horiz-adv-x="553" 
d="M179 289h194q-19 70 -96 70q-79 0 -98 -70zM517 186h-334q27 -61 106 -61q57 0 91 27q10 8 17 1l77 -82q7 -7 1 -15q-62 -66 -196 -67q-113 0 -184 69q-70 70 -70 184q0 112 69 183q70 70 183 70q120 0 185.5 -74t65.5 -224q0 -11 -11 -11zM304 507l-179 118q-11 7 -3 15
l63 78q7 10 18 0l151 -155q5 -8 1 -12l-35 -43q-7 -7 -16 -1z" />
    <glyph glyph-name="eacute" unicode="&#xe9;" horiz-adv-x="553" 
d="M179 289h194q-19 70 -96 70q-79 0 -98 -70zM517 186h-334q27 -61 106 -61q57 0 91 27q10 8 17 1l77 -82q7 -7 1 -15q-62 -66 -196 -67q-113 0 -184 69q-70 70 -70 184q0 112 69 183q70 70 183 70q120 0 185.5 -74t65.5 -224q0 -11 -11 -11zM340 722l62 -78q8 -8 -1 -16
l-181 -117q-8 -6 -15 1l-34 42q-5 5 1 13l151 155q8 8 17 0z" />
    <glyph glyph-name="ecircumflex" unicode="&#xea;" horiz-adv-x="553" 
d="M179 289h194q-19 70 -96 70q-79 0 -98 -70zM517 186h-334q27 -61 106 -61q57 0 91 27q10 8 17 1l77 -82q7 -7 1 -15q-62 -66 -196 -67q-113 0 -184 69q-70 70 -70 184q0 112 69 183q70 70 183 70q120 0 185.5 -74t65.5 -224q0 -11 -11 -11zM116 538l91 133q4 6 12 7h98
q9 0 13 -7l91 -133q7 -7 -4 -7h-102q-6 0 -11 5l-35 61l-36 -61q-5 -5 -12 -5h-101q-11 0 -4 7z" />
    <glyph glyph-name="edieresis" unicode="&#xeb;" horiz-adv-x="553" 
d="M179 289h194q-19 70 -96 70q-79 0 -98 -70zM517 186h-334q27 -61 106 -61q57 0 91 27q10 8 17 1l77 -82q7 -7 1 -15q-62 -66 -196 -67q-113 0 -184 69q-70 70 -70 184q0 112 69 183q70 70 183 70q120 0 185.5 -74t65.5 -224q0 -11 -11 -11zM197 543q-29 0 -46.5 18
t-17.5 47t17.5 46.5t46.5 17.5t46.5 -18t17.5 -46t-18 -46.5t-46 -18.5zM409 608q0 -29 -18 -47t-46 -18t-46 18t-18 47t17.5 46.5t46.5 17.5t46.5 -18t17.5 -46z" />
    <glyph glyph-name="igrave" unicode="&#xec;" horiz-adv-x="247" 
d="M197 478v-469q0 -9 -10 -9h-127q-10 0 -10 9v469v5t2.5 2.5t7.5 1.5h127q10 0 10 -9zM180 517l-179 118q-11 7 -3 15l64 78q7 7 17 0l151 -155q6 -7 1 -12l-35 -43q-7 -7 -16 -1z" />
    <glyph glyph-name="iacute" unicode="&#xed;" horiz-adv-x="246" 
d="M196 478v-469q0 -9 -9 -9h-127q-10 0 -10 9v469v5t2.5 2.5t7.5 1.5h127q9 0 9 -9zM173 721l63 -78q6 -7 -2 -15l-181 -118q-8 -6 -15 1l-34 43q-6 6 1 12l151 155q8 9 17 0z" />
    <glyph glyph-name="icircumflex" unicode="&#xee;" horiz-adv-x="247" 
d="M197 478v-469q0 -9 -10 -9h-127q-10 0 -10 9v469v5t2.5 2.5t7.5 1.5h127q10 0 10 -9zM-33 544l96 140q4 6 13 7h103q9 0 13 -7l96 -140q6 -8 -4 -8h-107q-7 0 -12 6l-37 64l-38 -64q-4 -6 -12 -6h-107q-10 0 -4 8z" />
    <glyph glyph-name="idieresis" unicode="&#xef;" horiz-adv-x="247" 
d="M197 478v-469q0 -9 -10 -9h-127q-10 0 -10 9v469v5t2.5 2.5t7.5 1.5h127q10 0 10 -9zM-25 599q0 31 18 49.5t49 18.5q30 0 48.5 -19t18.5 -49q0 -29 -18.5 -48t-48.5 -19t-48.5 18.5t-18.5 48.5zM130 599q0 31 18.5 49.5t49.5 18.5q30 0 48.5 -19t18.5 -49
q0 -29 -18.5 -48t-48.5 -19t-49 19t-19 48z" />
    <glyph glyph-name="eth" unicode="&#xf0;" horiz-adv-x="539" 
d="M269 -10q-97 0 -165 62q-67 61 -67 156q0 96 57 155t149 59q29 0 58 -10q-30 48 -85 94l-89 -46q-5 -4 -11 2l-28 28q-7 7 2 12l77 39q-25 18 -76 44q-10 4 -5 13l59 104q5 8 14 5q88 -29 158 -89l84 43q8 5 13 -2l27 -28q7 -7 -2 -12l-80 -40q69 -70 106.5 -161
t36.5 -188q0 -114 -67 -177q-66 -63 -166 -63zM357 212q0 37 -23.5 57.5t-64.5 20.5q-38 0 -61.5 -21.5t-23.5 -57.5q0 -35 23.5 -56t61.5 -21q35 0 61.5 23.5t26.5 54.5z" />
    <glyph glyph-name="ntilde" unicode="&#xf1;" horiz-adv-x="549" 
d="M44 10v466q0 11 10 11h104q10 0 13 -10l10 -38q49 60 139 60q80 0 130 -60q51 -60 51 -158v-270q0 -11 -10 -11h-127q-10 0 -10 11v236q0 48 -22.5 76.5t-58.5 27.5q-76 -2 -82 -114v-227q0 -9 -10 -9h-126q-11 0 -11 9zM167 567q-4 -12 -12 -4l-34 38q-6 4 -4 9
q12 39 40 63.5t57 24.5q21 0 38 -11t26.5 -24t22.5 -24t27 -11q34 1 50 44q4 10 11 4l36 -39q3 -3 3 -9q-12 -39 -40 -63.5t-57 -24.5q-21 0 -38.5 11t-27 24t-23 24t-26.5 11q-33 -1 -49 -43z" />
    <glyph glyph-name="ograve" unicode="&#xf2;" horiz-adv-x="557" 
d="M25 245q0 113 70 183q71 71 183 71q113 0 184 -71q70 -70 70 -183q0 -115 -70 -185t-184 -70q-113 0 -183 70t-70 185zM278 136q48 1 77.5 30.5t29.5 78.5t-29.5 78.5t-77.5 28.5q-48 0 -77 -29t-29 -78t29 -79t77 -30zM304 507l-179 118q-11 7 -3 15l63 78q7 10 18 0
l151 -155q5 -8 1 -12l-35 -43q-7 -7 -16 -1z" />
    <glyph glyph-name="oacute" unicode="&#xf3;" horiz-adv-x="557" 
d="M25 245q0 113 70 183q71 71 183 71q113 0 184 -71q70 -70 70 -183q0 -115 -70 -185t-184 -70q-113 0 -183 70t-70 185zM172 244q1 -48 30 -78t76 -29q48 0 77.5 29.5t30.5 77.5q0 49 -29.5 78.5t-78.5 29.5q-48 0 -77 -29.5t-29 -78.5zM340 722l63 -78q9 -8 -2 -16
l-180 -117q-9 -7 -15 1l-35 42q-4 4 1 13l151 155q9 8 17 0z" />
    <glyph glyph-name="ocircumflex" unicode="&#xf4;" horiz-adv-x="557" 
d="M25 245q0 113 70 183q71 71 183 71q113 0 184 -71q70 -70 70 -183q0 -115 -70 -185t-184 -70q-113 0 -183 70t-70 185zM278 136q48 1 77.5 30.5t29.5 78.5t-29.5 78.5t-77.5 28.5q-48 0 -77 -29t-29 -78t29 -79t77 -30zM126 554l91 133q4 6 12 7h98q9 0 13 -7l91 -133
q7 -7 -4 -7h-102q-6 0 -11 5l-35 61l-36 -61q-5 -5 -12 -5h-101q-11 0 -4 7z" />
    <glyph glyph-name="otilde" unicode="&#xf5;" horiz-adv-x="557" 
d="M25 245q0 113 70 183q71 71 183 71q113 0 184 -71q70 -70 70 -183q0 -115 -70 -185t-184 -70q-113 0 -183 70t-70 185zM278 136q48 1 77.5 30.5t29.5 78.5t-29.5 78.5t-77.5 28.5q-48 0 -77 -29t-29 -78t29 -79t77 -30zM173 553q-4 -12 -12 -4l-34 38q-5 4 -4 10
q12 38 40.5 62.5t56.5 24.5q21 0 38 -11t26.5 -23.5t22.5 -23.5t27 -11q34 1 50 43q4 11 10 4l37 -39q3 -5 2 -8q-12 -39 -40 -64t-56 -25q-24 -1 -45.5 17.5t-39 36.5t-30.5 17q-33 -1 -49 -44z" />
    <glyph glyph-name="odieresis" unicode="&#xf6;" horiz-adv-x="557" 
d="M25 245q0 113 70 183q71 71 183 71q113 0 184 -71q70 -70 70 -183q0 -115 -70 -185t-184 -70q-113 0 -183 70t-70 185zM278 136q48 1 77.5 30.5t29.5 78.5t-29.5 78.5t-77.5 28.5q-48 0 -77 -29t-29 -78t29 -79t77 -30zM132 610q0 31 18 49t49 18q30 0 48 -19
q19 -18 19 -48t-19 -49q-18 -19 -48 -19t-48.5 19t-18.5 49zM287 610q0 31 18.5 49t49.5 18q30 0 48.5 -18.5t18.5 -48.5t-18.5 -49t-48.5 -19q-31 0 -49.5 19t-18.5 49z" />
    <glyph glyph-name="divide" unicode="&#xf7;" horiz-adv-x="539" 
d="M191 451q0 36 21.5 58t57.5 22q35 0 56.5 -22t21.5 -58q0 -35 -22 -56.5t-56 -21.5q-36 0 -57.5 21.5t-21.5 56.5zM191 128q0 36 21.5 58t57.5 22q35 0 56.5 -22t21.5 -58q0 -34 -22 -56t-56 -22q-36 0 -57.5 21.5t-21.5 56.5zM36 241v96q0 10 10 10h447q10 0 10 -10v-96
q0 -10 -10 -10h-447q-10 0 -10 10z" />
    <glyph glyph-name="oslash" unicode="&#xf8;" horiz-adv-x="557" 
d="M433 453l26 30q6 8 15 1l30 -27q6 -6 0 -14l-27 -31q55 -67 55 -167q0 -115 -70 -185t-184 -70q-84 0 -145 39l-46 -51q-7 -7 -14 0l-30 27q-7 6 -1 14l45 50q-62 68 -62 176q0 113 70 183q71 71 183 71q91 0 155 -46zM374 298l-138 -154q21 -8 42 -8q48 1 77.5 30.5
t29.5 78.5q0 26 -11 53zM189 182l142 159q-25 11 -53 11q-48 0 -77 -29t-29 -78q0 -37 17 -63z" />
    <glyph glyph-name="ugrave" unicode="&#xf9;" horiz-adv-x="564" 
d="M387 10l-10 37q-62 -59 -155 -59q-79 0 -127 60t-48 158v270q0 10 10 10h126q11 0 11 -10v-236q0 -115 86 -115q81 2 87 123v228q0 11 11 11h125q10 0 10 -10l1 -467q0 -10 -11 -10h-103q-10 0 -13 10zM298 507l-180 118q-10 5 -3 15l64 78q8 8 17 0l151 -155q7 -7 1 -12
l-34 -43q-8 -7 -16 -1z" />
    <glyph glyph-name="uacute" unicode="&#xfa;" horiz-adv-x="564" 
d="M387 10l-10 37q-62 -59 -155 -59q-79 0 -127 60t-48 158v270q0 10 10 10h126q11 0 11 -10v-236q0 -115 86 -115q81 2 87 123v228q0 11 11 11h125q10 0 10 -10l1 -467q0 -10 -11 -10h-103q-10 0 -13 10zM375 724l63 -78q8 -8 -2 -15l-181 -118q-7 -7 -15 1l-34 43
q-6 5 1 12l151 155q8 8 17 0z" />
    <glyph glyph-name="ucircumflex" unicode="&#xfb;" horiz-adv-x="564" 
d="M387 10l-10 37q-62 -59 -155 -59q-79 0 -127 60t-48 158v270q0 10 10 10h126q11 0 11 -10v-236q0 -115 86 -115q81 2 87 123v228q0 11 11 11h125q10 0 10 -10l1 -467q0 -10 -11 -10h-103q-10 0 -13 10zM121 544l96 140q4 6 13 7h103q9 0 13 -7l96 -140q6 -8 -4 -8h-107
q-7 0 -12 6l-37 64l-38 -64q-4 -6 -12 -6h-107q-10 0 -4 8z" />
    <glyph glyph-name="udieresis" unicode="&#xfc;" horiz-adv-x="564" 
d="M387 10l-10 37q-62 -59 -155 -59q-79 0 -127 60t-48 158v270q0 10 10 10h126q11 0 11 -10v-236q0 -115 86 -115q81 2 87 123v228q0 11 11 11h125q10 0 10 -10l1 -467q0 -10 -11 -10h-103q-10 0 -13 10zM137 599q0 31 18 49.5t49 18.5q30 0 48.5 -19t18.5 -49
q0 -29 -18.5 -48t-48.5 -19t-48.5 18.5t-18.5 48.5zM293 599q0 31 18 49.5t49 18.5q30 0 48.5 -19t18.5 -49q0 -29 -18.5 -48t-48.5 -19t-48.5 18.5t-18.5 48.5z" />
    <glyph glyph-name="yacute" unicode="&#xfd;" horiz-adv-x="517" 
d="M378 487h129q13 0 9 -13l-267 -693q-5 -9 -13 -9h-130q-6 0 -8.5 4t-0.5 9l85 219l-181 470q-5 11 7 13h134q9 0 12 -9l98 -293l113 293q5 9 13 9zM342 712l62 -78q3 -3 3 -8t-4 -7l-181 -118q-8 -6 -15 1l-34 42q-5 5 1 13l151 155q8 8 17 0z" />
    <glyph glyph-name="thorn" unicode="&#xfe;" horiz-adv-x="578" 
d="M57 722h122q9 0 9 -10v-257q46 43 115 43q110 0 178 -71t68 -184t-68 -184q-67 -70 -178 -70q-69 0 -115 43v-250q0 -10 -9 -10h-121q-10 0 -10 10v930q0 10 9 10zM402 243q0 48 -29.5 78t-76.5 30q-49 0 -78.5 -28.5t-29.5 -77.5q0 -50 29.5 -80t78.5 -30q48 0 77 29.5
t29 78.5z" />
    <glyph glyph-name="ydieresis" unicode="&#xff;" horiz-adv-x="517" 
d="M378 487h129q13 0 9 -13l-267 -693q-5 -9 -13 -9h-130q-6 0 -8.5 4t-0.5 9l85 219l-181 470q-5 11 7 13h134q9 0 12 -9l98 -293l113 293q5 9 13 9zM71 590q0 31 18 49t49 18q30 0 48 -19q19 -18 19 -48t-19 -49q-18 -19 -48 -19t-48.5 19t-18.5 49zM227 590q0 31 18 49
t49 18q30 0 48 -19q19 -18 19 -48t-19 -49q-18 -19 -48 -19t-48.5 19t-18.5 49z" />
    <glyph glyph-name="Amacron" unicode="&#x100;" horiz-adv-x="676" 
d="M523 7l-56 150h-257l-57 -150q-3 -7 -11 -7h-133q-13 0 -8 11l255 673q3 9 13 9h139q10 0 13 -9l254 -673q5 -11 -7 -11h-135q-9 0 -10 7zM418 287l-80 212l-80 -212h160zM207 837h265q9 0 9 -10v-76q0 -9 -9 -9h-265q-11 0 -11 9v76q0 10 11 10z" />
    <glyph glyph-name="amacron" unicode="&#x101;" horiz-adv-x="593" 
d="M400 436l17 41q3 10 11 10h106q9 0 9 -10v-467q0 -10 -10 -10h-106q-8 0 -11 10l-16 39q-50 -60 -131 -60q-109 -1 -177 69q-67 70 -67 184t67 182q67 69 177 71q83 0 131 -59zM171 242q0 -47 29.5 -77t76.5 -30q49 0 78.5 29t29.5 78q0 48 -30 77.5t-78 29.5t-77 -29.5
t-29 -77.5zM159 674h259q6 -1 10 -4.5t3 -7.5v-75q1 -6 -3 -10t-10 -4h-259q-13 0 -13 13v76q0 11 13 12z" />
    <glyph glyph-name="Abreve" unicode="&#x102;" horiz-adv-x="676" 
d="M523 7l-56 150h-257l-57 -150q-3 -7 -11 -7h-133q-13 0 -8 11l255 673q3 9 13 9h139q10 0 13 -9l254 -673q5 -11 -7 -11h-135q-9 0 -10 7zM418 287l-80 212l-80 -212h160zM404 858l71 1q9 0 8 -9q-2 -63 -40.5 -97t-104.5 -34t-104 34t-41 97q0 9 10 9h70q10 0 10 -9
q2 -19 18 -32.5t37 -13.5q23 0 39 13.5t18 32.5q0 8 9 8z" />
    <glyph glyph-name="abreve" unicode="&#x103;" horiz-adv-x="593" 
d="M400 436l17 41q3 10 11 10h106q9 0 9 -10v-467q0 -10 -10 -10h-106q-8 0 -11 10l-16 39q-50 -60 -131 -60q-109 -1 -177 69q-67 70 -67 184t67 182q67 69 177 71q83 0 131 -59zM171 242q0 -47 29.5 -77t76.5 -30q49 0 78.5 29t29.5 78q0 48 -30 77.5t-78 29.5t-77 -29.5
t-29 -77.5zM349 685h71q9 0 9 -10q-2 -65 -41.5 -104.5t-103.5 -39.5q-63 0 -102.5 39.5t-42.5 104.5q0 10 10 10h70q9 0 10 -10q2 -24 17 -39t38 -15q22 0 38 15t19 39q1 10 8 10z" />
    <glyph glyph-name="Aogonek" unicode="&#x104;" horiz-adv-x="699" 
d="M523 7l-56 150h-257l-57 -150q-3 -7 -11 -7h-133q-13 0 -8 11l255 673q3 9 13 9h139q10 0 13 -9l254 -673q5 -11 -7 -11h-135q-9 0 -10 7zM418 287l-80 212l-80 -212h160zM696 -176q-12 -17 -40 -28t-56 -11q-54 0 -83 26.5t-30 74.5q0 47 45 95q44 42 91 75l44 -56
l-66 -70q-29 -30 -6 -50q8 -9 22 -8t23 12q3 6 7 0l50 -51q3 -3 -1 -9z" />
    <glyph glyph-name="aogonek" unicode="&#x105;" horiz-adv-x="593" 
d="M400 436l17 41q3 10 11 10h106q9 0 9 -10v-467q0 -10 -10 -10h-106q-8 0 -11 10l-16 39q-50 -60 -131 -60q-109 -1 -177 69q-67 70 -67 184t67 182q67 69 177 71q83 0 131 -59zM171 242q0 -47 29.5 -77t76.5 -30q49 0 78.5 29t29.5 78q0 48 -30 77.5t-78 29.5t-77 -29.5
t-29 -77.5zM569 -172q-12 -17 -40 -28t-56 -11q-54 0 -83 26.5t-30 74.5q0 47 45 95q44 42 91 75l44 -56l-66 -70q-29 -30 -6 -50q8 -9 22 -8.5t23 12.5q3 4 7 0l50 -51q3 -5 -1 -9z" />
    <glyph glyph-name="Cacute" unicode="&#x106;" horiz-adv-x="664" 
d="M635 82q-97 -92 -249 -92q-159 0 -257 98q-97 98 -97 258q0 85 29.5 154.5t80.5 113.5q106 89 244 89q147 2 248 -93q6 -6 0 -13l-74 -105q-5 -9 -14 0q-69 60 -160 60q-90 0 -146 -57q-55 -55 -55 -149q0 -93 55 -148q56 -56 146 -56t160 60q9 7 14 -1l75 -105
q8 -9 0 -14zM447 899l51 -86q3 -3 1.5 -8t-5.5 -7l-195 -91q-11 -5 -15 3l-28 46q-4 7 3 13l171 132q10 8 17 -2z" />
    <glyph glyph-name="cacute" unicode="&#x107;" horiz-adv-x="514" 
d="M482 89q-66 -100 -205 -100q-113 0 -183 70q-69 71 -69 183q0 116 72 184q73 67 173 70q145 3 223 -111q5 -11 -1 -15l-95 -78q-9 -6 -17 3q-39 55 -103 55q-48 0 -77 -29.5t-29 -78.5t29 -78.5t77 -29.5q29 0 50 10t30 17l20 21q9 10 18 3l86 -82q7 -7 1 -14zM344 723
l63 -77q2 -3 2 -8t-4 -8l-181 -117q-6 -6 -15 0l-34 43q-5 5 1 13l151 154q9 9 17 0z" />
    <glyph glyph-name="Ccircumflex" unicode="&#x108;" horiz-adv-x="664" 
d="M635 82q-97 -92 -249 -92q-159 0 -257 98q-97 98 -97 258q0 85 29.5 154.5t80.5 113.5q106 89 244 89q147 2 248 -93q6 -6 0 -13l-74 -105q-5 -9 -14 0q-69 60 -160 60q-90 0 -146 -57q-55 -55 -55 -149q0 -93 55 -148q56 -56 146 -56t160 60q9 7 14 -1l75 -105
q8 -9 0 -14zM408 739l-42 39l-44 -39q-8 -5 -11 -5h-111q-11 0 -3 7l109 107q8 5 14 5h90q7 0 15 -5l110 -107q8 -7 -4 -7h-110q-5 0 -13 5z" />
    <glyph glyph-name="ccircumflex" unicode="&#x109;" horiz-adv-x="514" 
d="M482 89q-66 -100 -205 -100q-113 0 -183 70q-69 71 -69 183q0 116 72 184q73 67 173 70q145 3 223 -111q5 -11 -1 -15l-95 -78q-9 -6 -17 3q-39 55 -103 55q-48 0 -77 -29.5t-29 -78.5t29 -78.5t77 -29.5q29 0 50 10t30 17l20 21q9 10 18 3l86 -82q7 -7 1 -14zM118 539
l91 133q4 6 13 7h98q8 0 12 -7l91 -133q6 -7 -4 -7h-101q-7 0 -12 5l-35 61l-36 -61q-5 -5 -11 -5h-102q-10 0 -4 7z" />
    <glyph glyph-name="Cdotaccent" unicode="&#x10a;" horiz-adv-x="664" 
d="M635 82q-97 -92 -249 -92q-159 0 -257 98q-97 98 -97 258q0 85 29.5 154.5t80.5 113.5q106 89 244 89q147 2 248 -93q6 -6 0 -13l-74 -105q-5 -9 -14 0q-69 60 -160 60q-90 0 -146 -57q-55 -55 -55 -149q0 -93 55 -148q56 -56 146 -56t160 60q9 7 14 -1l75 -105
q8 -9 0 -14zM364 854q28 0 44.5 -16.5t16.5 -43.5t-16.5 -43.5t-44.5 -16.5q-27 0 -43.5 16.5t-16.5 43.5t16.5 43.5t43.5 16.5z" />
    <glyph glyph-name="cdotaccent" unicode="&#x10b;" horiz-adv-x="514" 
d="M482 89q-66 -100 -205 -100q-113 0 -183 70q-69 71 -69 183q0 116 72 184q73 67 173 70q145 3 223 -111q5 -11 -1 -15l-95 -78q-9 -6 -17 3q-39 55 -103 55q-48 0 -77 -29.5t-29 -78.5t29 -78.5t77 -29.5q29 0 50 10t30 17l20 21q9 10 18 3l86 -82q7 -7 1 -14zM269 551
q-28 0 -45.5 17.5t-17.5 46.5t17 46t46 17t46.5 -17t17.5 -46t-17.5 -46.5t-46.5 -17.5z" />
    <glyph glyph-name="Ccaron" unicode="&#x10c;" horiz-adv-x="664" 
d="M635 82q-97 -92 -249 -92q-159 0 -257 98q-97 98 -97 258q0 85 29.5 154.5t80.5 113.5q106 89 244 89q147 2 248 -93q6 -6 0 -13l-74 -105q-5 -9 -14 0q-69 60 -160 60q-90 0 -146 -57q-55 -55 -55 -149q0 -93 55 -148q56 -56 146 -56t160 60q9 7 14 -1l75 -105
q8 -9 0 -14zM316 854l46 -42l45 42q5 5 13 5h116q12 0 4 -8l-116 -111q-6 -7 -15 -7h-95q-8 0 -15 7l-115 111q-8 8 4 8h116q4 0 12 -5z" />
    <glyph glyph-name="ccaron" unicode="&#x10d;" horiz-adv-x="514" 
d="M482 89q-66 -100 -205 -100q-113 0 -183 70q-69 71 -69 183q0 116 72 184q73 67 173 70q145 3 223 -111q5 -11 -1 -15l-95 -78q-9 -6 -17 3q-39 55 -103 55q-48 0 -77 -29.5t-29 -78.5t29 -78.5t77 -29.5q29 0 50 10t30 17l20 21q9 10 18 3l86 -82q7 -7 1 -14zM118 693
h102q6 0 11 -5l36 -61l35 61q5 5 12 5h101q11 0 4 -7l-91 -133q-4 -6 -12 -6h-98q-8 0 -13 6l-91 133q-7 7 4 7z" />
    <glyph glyph-name="Dcaron" unicode="&#x10e;" horiz-adv-x="683" 
d="M296 548h-78v-401h78q92 0 147 55q56 56 56 145q0 90 -56 146q-55 55 -147 55zM296 0h-221q-10 0 -10 10v674q0 10 10 10h221q161 0 258 -94t97 -253q0 -160 -97 -254q-98 -93 -258 -93zM289 854l46 -42l45 42q5 5 13 5h116q12 0 4 -8l-116 -111q-6 -7 -15 -7h-95
q-8 0 -15 7l-115 111q-8 8 4 8h116q4 0 12 -5z" />
    <glyph glyph-name="dcaron" unicode="&#x10f;" horiz-adv-x="766" 
d="M270 -11q-110 0 -177 70t-67 183t67 183t177 70q69 0 116 -44v262q0 10 10 10h126q11 0 11 -10v-703q0 -10 -11 -10h-92q-9 0 -12 10l-16 41q-48 -62 -132 -62zM385 242q1 49 -28.5 78.5t-78.5 29.5q-48 0 -77 -30t-29 -78q0 -47 29.5 -77t76.5 -30q49 0 78 28.5t29 78.5
zM608 483l-49 37q-5 6 2 13q58 45 75 104q-3 0 -4 1q-25 7 -39 26.5t-14 47.5q0 36 21.5 57.5t56.5 21.5q34 0 55.5 -21t22.5 -55q4 -69 -32 -140q-34 -70 -82 -96q-6 -3 -13 4z" />
    <glyph glyph-name="Dcroat" unicode="&#x110;" horiz-adv-x="683" 
d="M296 0h-221q-10 0 -10 10v300h-46q-9 0 -9 10v46q0 10 9 10h46v308q0 10 10 10h221q161 0 258 -94t97 -253q0 -160 -97 -254q-98 -93 -258 -93zM218 310v-163h78q92 0 147 55q56 56 56 145q0 90 -56 146q-55 55 -147 55h-78v-172h117q10 0 10 -10v-46q0 -10 -10 -10h-117
z" />
    <glyph glyph-name="dslash" unicode="&#x111;" horiz-adv-x="585" 
d="M299 605h87v108q0 10 10 10h126q11 0 11 -10v-108h32q10 0 10 -10v-47q0 -9 -10 -9h-32v-529q0 -10 -11 -10h-92q-9 0 -12 10l-16 41q-48 -62 -132 -62q-110 0 -177 70t-67 183t67 183t177 70q69 0 116 -44v88h-87q-10 0 -10 9v47q0 10 10 10zM278 135q49 0 78 28.5
t29 78.5q1 49 -28.5 78.5t-78.5 29.5q-48 0 -77 -30t-29 -78q0 -47 29.5 -77t76.5 -30z" />
    <glyph glyph-name="Emacron" unicode="&#x112;" horiz-adv-x="536" 
d="M431 282h-213v-135h270q10 0 10 -10v-128q0 -9 -9 -9h-414q-10 0 -10 10v674q0 10 10 10h404q10 0 10 -10v-128q0 -9 -10 -9h-261v-121h213q10 0 10 -10v-124q0 -10 -10 -10zM139 842h266q9 0 9 -10v-76q0 -9 -9 -9h-266q-10 0 -10 9v76q0 10 10 10z" />
    <glyph glyph-name="emacron" unicode="&#x113;" horiz-adv-x="553" 
d="M179 289h194q-19 70 -96 70q-79 0 -98 -70zM517 186h-334q27 -61 106 -61q57 0 91 27q10 8 17 1l77 -82q7 -7 1 -15q-62 -66 -196 -67q-113 0 -184 69q-70 70 -70 184q0 112 69 183q70 70 183 70q120 0 185.5 -74t65.5 -224q0 -11 -11 -11zM140 674h259q6 -1 10 -4t3 -8
v-75q1 -13 -13 -13h-259q-13 0 -13 12v76q0 11 13 12z" />
    <glyph glyph-name="Ebreve" unicode="&#x114;" horiz-adv-x="536" 
d="M431 282h-213v-135h270q10 0 10 -10v-128q0 -9 -9 -9h-414q-10 0 -10 10v674q0 10 10 10h404q10 0 10 -10v-128q0 -9 -10 -9h-261v-121h213q10 0 10 -10v-124q0 -10 -10 -10zM337 868l70 1q11 0 9 -9q-2 -63 -40.5 -97t-104.5 -34t-104 34t-41 97q0 9 10 9h70q9 0 9 -9
q2 -18 18.5 -32t37.5 -14q23 0 39 13.5t18 32.5q0 8 9 8z" />
    <glyph glyph-name="ebreve" unicode="&#x115;" horiz-adv-x="553" 
d="M179 289h194q-19 70 -96 70q-79 0 -98 -70zM517 186h-334q27 -61 106 -61q57 0 91 27q10 8 17 1l77 -82q7 -7 1 -15q-62 -66 -196 -67q-113 0 -184 69q-70 70 -70 184q0 112 69 183q70 70 183 70q120 0 185.5 -74t65.5 -224q0 -11 -11 -11zM333 684h71q8 0 8 -10
q-2 -65 -42 -104.5t-103 -39.5t-102.5 39.5t-41.5 104.5q0 10 9 10h70q9 0 10 -10q3 -24 18 -39t37 -15t38 15t19 39q1 10 9 10z" />
    <glyph glyph-name="Edotaccent" unicode="&#x116;" horiz-adv-x="536" 
d="M431 282h-213v-135h270q10 0 10 -10v-128q0 -9 -9 -9h-414q-10 0 -10 10v674q0 10 10 10h404q10 0 10 -10v-128q0 -9 -10 -9h-261v-121h213q10 0 10 -10v-124q0 -10 -10 -10zM206 799q0 28 17 45t46 17t46.5 -17t17.5 -45q0 -29 -17.5 -46.5t-46.5 -17.5
q-28 0 -45.5 17.5t-17.5 46.5z" />
    <glyph glyph-name="edotaccent" unicode="&#x117;" horiz-adv-x="553" 
d="M179 289h194q-19 70 -96 70q-79 0 -98 -70zM517 186h-334q27 -61 106 -61q57 0 91 27q10 8 17 1l77 -82q7 -7 1 -15q-62 -66 -196 -67q-113 0 -184 69q-70 70 -70 184q0 112 69 183q70 70 183 70q120 0 185.5 -74t65.5 -224q0 -11 -11 -11zM205 619q0 28 17 45
q18 18 47 18t46 -17t17 -46t-17.5 -46.5t-45.5 -17.5q-29 0 -46.5 17.5t-17.5 46.5z" />
    <glyph glyph-name="Eogonek" unicode="&#x118;" horiz-adv-x="536" 
d="M431 282h-213v-135h270q10 0 10 -10v-128q0 -9 -9 -9h-414q-10 0 -10 10v674q0 10 10 10h404q10 0 10 -10v-128q0 -9 -10 -9h-261v-121h213q10 0 10 -10v-124q0 -10 -10 -10zM482 -174q-12 -17 -40 -28t-56 -11q-54 0 -83 26.5t-30 74.5q0 47 45 95q44 42 91 75l45 -56
l-67 -70q-27 -31 -6 -50q9 -9 23 -8.5t22 12.5q4 4 8 0l49 -51q4 -4 -1 -9z" />
    <glyph glyph-name="eogonek" unicode="&#x119;" horiz-adv-x="553" 
d="M179 289h194q-19 70 -96 70q-79 0 -98 -70zM517 186h-334q27 -61 106 -61q57 0 91 27q10 8 17 1l77 -82q7 -7 1 -15q-62 -66 -196 -67q-113 0 -184 69q-70 70 -70 184q0 112 69 183q70 70 183 70q120 0 185.5 -74t65.5 -224q0 -11 -11 -11zM431 -166q-12 -17 -40 -28
t-56 -11q-54 0 -83 26.5t-30 74.5q0 47 45 95q44 42 91 75l45 -56l-67 -70q-27 -31 -5 -50q8 -9 22 -8.5t22 12.5q4 4 8 0l49 -51q4 -4 -1 -9z" />
    <glyph glyph-name="Ecaron" unicode="&#x11a;" horiz-adv-x="536" 
d="M431 282h-213v-135h270q10 0 10 -10v-128q0 -9 -9 -9h-414q-10 0 -10 10v674q0 10 10 10h404q10 0 10 -10v-128q0 -9 -10 -9h-261v-121h213q10 0 10 -10v-124q0 -10 -10 -10zM230 854l46 -42l45 42q5 5 13 5h116q12 0 4 -8l-116 -111q-6 -7 -15 -7h-95q-8 0 -15 7
l-115 111q-8 8 4 8h116q4 0 12 -5z" />
    <glyph glyph-name="ecaron" unicode="&#x11b;" horiz-adv-x="553" 
d="M179 289h194q-19 70 -96 70q-79 0 -98 -70zM517 186h-334q27 -61 106 -61q57 0 91 27q10 8 17 1l77 -82q7 -7 1 -15q-62 -66 -196 -67q-113 0 -184 69q-70 70 -70 184q0 112 69 183q70 70 183 70q120 0 185.5 -74t65.5 -224q0 -11 -11 -11zM126 692h102q6 0 11 -5l36 -61
l35 61q5 5 12 5h101q11 0 4 -7l-91 -132q-4 -7 -12 -7h-98q-10 0 -13 7l-91 132q-7 7 4 7z" />
    <glyph glyph-name="Gcircumflex" unicode="&#x11c;" horiz-adv-x="760" 
d="M555 260h-151q-10 0 -10 10v104q0 9 10 9h294q14 0 14 -14q-3 -184 -83 -281.5t-240 -96.5q-154 1 -248 98t-94 258q0 160 98 258t258 98q148 0 251 -95q7 -6 0 -13l-78 -105q-6 -6 -14 0q-15 13 -31 23q-20 14 -57 25.5t-70 11.5q-92 0 -148 -56t-56 -147q0 -92 52 -147
q53 -56 138 -56q130 0 165 116zM423 746l-43 39l-44 -39q-5 -5 -11 -5h-110q-12 0 -4 7l109 107q8 5 15 5h90q6 0 14 -5l110 -107q8 -7 -4 -7h-110q-4 0 -12 5z" />
    <glyph glyph-name="gcircumflex" unicode="&#x11d;" horiz-adv-x="587" 
d="M271 498q87 0 136 -66l19 45q3 9 12 10h89q10 0 10 -11l2 -451q0 -118 -72 -190q-70 -73 -187 -73q-120 2 -202 52q-10 6 -4 16l53 111q4 8 14 4q65 -35 128 -36q59 0 90.5 32.5t31.5 91.5v2q-47 -47 -120 -47q-111 2 -179 71q-67 70 -67 184t67 184q68 71 179 71z
M172 244q0 -49 29.5 -78.5t76.5 -29.5q51 1 81.5 30t30.5 78q0 50 -30 79t-82 28q-48 0 -77 -29.5t-29 -77.5zM125 545l92 133q2 6 12 7h98q8 0 12 -7l91 -133q6 -7 -4 -7h-101q-7 0 -12 5l-35 61l-36 -61q-5 -5 -11 -5h-102q-8 0 -4 7z" />
    <glyph glyph-name="Gbreve" unicode="&#x11e;" horiz-adv-x="760" 
d="M555 260h-151q-10 0 -10 10v104q0 9 10 9h294q14 0 14 -14q-3 -184 -83 -281.5t-240 -96.5q-154 1 -248 98t-94 258q0 160 98 258t258 98q148 0 251 -95q7 -6 0 -13l-78 -105q-6 -6 -14 0q-15 13 -31 23q-20 14 -57 25.5t-70 11.5q-92 0 -148 -56t-56 -147q0 -92 52 -147
q53 -56 138 -56q130 0 165 116zM446 868l70 1q9 0 9 -9q-2 -63 -40.5 -97t-105.5 -34q-65 0 -103 34t-41 97q0 9 9 9h71q9 0 9 -9q2 -18 18 -32t37 -14q23 0 39 13.5t18 32.5q0 8 10 8z" />
    <glyph glyph-name="gbreve" unicode="&#x11f;" horiz-adv-x="587" 
d="M271 498q87 0 136 -66l19 45q3 9 12 10h89q10 0 10 -11l2 -451q0 -118 -72 -190q-70 -73 -187 -73q-120 2 -202 52q-10 6 -4 16l53 111q4 8 14 4q65 -35 128 -36q59 0 90.5 32.5t31.5 91.5v2q-47 -47 -120 -47q-111 2 -179 71q-67 70 -67 184t67 184q68 71 179 71z
M172 244q0 -49 29.5 -78.5t76.5 -29.5q51 1 81.5 30t30.5 78q0 50 -30 79t-82 28q-48 0 -77 -29.5t-29 -77.5zM336 684h72q8 0 8 -10q-2 -65 -42 -104.5t-103 -39.5t-102.5 39.5t-42.5 104.5q0 10 10 10h70q9 0 10 -10q2 -24 17 -39t38 -15q22 0 38 15t19 39q1 10 8 10z" />
    <glyph glyph-name="Gdotaccent" unicode="&#x120;" horiz-adv-x="760" 
d="M555 260h-151q-10 0 -10 10v104q0 9 10 9h294q14 0 14 -14q-3 -184 -83 -281.5t-240 -96.5q-154 1 -248 98t-94 258q0 160 98 258t258 98q148 0 251 -95q7 -6 0 -13l-78 -105q-6 -6 -14 0q-15 13 -31 23q-20 14 -57 25.5t-70 11.5q-92 0 -148 -56t-56 -147q0 -92 52 -147
q53 -56 138 -56q130 0 165 116zM317 795q0 28 17 45t46 17t46.5 -17t17.5 -45q0 -29 -17.5 -46.5t-46.5 -17.5q-28 0 -45.5 17.5t-17.5 46.5z" />
    <glyph glyph-name="gdotaccent" unicode="&#x121;" horiz-adv-x="587" 
d="M271 498q87 0 136 -66l19 45q3 9 12 10h89q10 0 10 -11l2 -451q0 -118 -72 -190q-70 -73 -187 -73q-120 2 -202 52q-10 6 -4 16l53 111q4 8 14 4q65 -35 128 -36q59 0 90.5 32.5t31.5 91.5v2q-47 -47 -120 -47q-111 2 -179 71q-67 70 -67 184t67 184q68 71 179 71z
M172 244q0 -49 29.5 -78.5t76.5 -29.5q51 1 81.5 30t30.5 78q0 50 -30 79t-82 28q-48 0 -77 -29.5t-29 -77.5zM213 613q0 28 17.5 45.5t46.5 17.5t46.5 -17t17.5 -46t-17.5 -46.5t-46.5 -17.5t-46.5 17.5t-17.5 46.5z" />
    <glyph glyph-name="uni0122" unicode="&#x122;" horiz-adv-x="730" 
d="M540 260h-151q-10 0 -10 10v104q0 9 10 9h294q14 0 14 -14q-3 -184 -83 -281.5t-240 -96.5q-154 1 -248 98t-94 258q0 160 98 258t258 98q148 0 251 -95q7 -6 0 -13l-78 -105q-6 -6 -14 0q-15 13 -31 23q-20 14 -57 25.5t-70 11.5q-92 0 -148 -56t-56 -147q0 -92 52 -147
q53 -56 138 -56q130 0 165 116zM343 -157q-2 0 -3 1q-37 16 -37 63q0 31 18.5 50t49.5 19q30 1 49 -18.5t20 -50.5q3 -59 -36 -102t-86 -45q-10 0 -11 4l-19 38q-4 7 2 9q36 10 53 32z" />
    <glyph glyph-name="uni0123" unicode="&#x123;" horiz-adv-x="587" 
d="M271 498q87 0 136 -66l19 45q3 9 12 10h89q10 0 10 -11l2 -451q0 -118 -72 -190q-70 -73 -187 -73q-120 2 -202 52q-10 6 -4 16l53 111q4 8 14 4q65 -35 128 -36q59 0 90.5 32.5t31.5 91.5v2q-47 -47 -120 -47q-111 2 -179 71q-67 70 -67 184t67 184q68 71 179 71z
M172 244q0 -49 29.5 -78.5t76.5 -29.5q51 1 81.5 30t30.5 78q0 50 -30 79t-82 28q-48 0 -77 -29.5t-29 -77.5zM309 662h1l2 -1q37 -16 37 -63q0 -31 -18.5 -50t-49.5 -19q-30 -1 -49 18.5t-20 50.5q-3 58 36 102q39 43 86 45q10 0 11 -4l19 -38q4 -7 -2 -9q-36 -10 -53 -32z
" />
    <glyph glyph-name="Hcircumflex" unicode="&#x124;" horiz-adv-x="693" 
d="M209 0h-134q-10 0 -10 10v674q0 10 10 10h134q9 0 9 -9v-273h257v272q0 10 10 10h134q9 0 9 -9v-675q0 -10 -10 -10h-133q-10 0 -10 10v272h-257v-272q0 -10 -9 -10zM389 750l-42 39l-44 -39q-8 -5 -11 -5h-111q-11 0 -3 7l109 107q8 5 14 5h90q7 0 15 -5l110 -107
q8 -7 -4 -7h-110q-5 0 -13 5z" />
    <glyph glyph-name="hcircumflex" unicode="&#x125;" horiz-adv-x="555" 
d="M50 11v700q0 11 10 11h126q11 0 11 -10v-262q46 49 129 49q80 0 130 -60q51 -60 51 -158v-270q0 -11 -10 -11h-127q-10 0 -10 11v236q0 48 -22.5 76.5t-58.5 27.5q-76 -2 -82 -113v-227q0 -11 -10 -11h-126q-11 0 -11 11zM315 762l-42 39l-44 -39q-6 -6 -12 -6h-110
q-12 0 -4 8l110 106q6 6 14 6h90q9 0 14 -6l111 -106q3 -3 1.5 -5.5t-5.5 -2.5h-110q-7 0 -13 6z" />
    <glyph glyph-name="Hbar" unicode="&#x126;" horiz-adv-x="665" 
d="M210 650v-87h245v87q0 9 9 9h127q9 0 9 -9v-87h14q10 0 10 -10v-46q0 -10 -10 -10h-14v-488q0 -9 -9 -9h-127q-10 0 -10 9v259h-244v-259q0 -9 -9 -9h-127q-9 0 -9 9v488h-16q-10 0 -10 10v46q0 10 10 10h16v87q0 9 9 9h128q8 0 8 -9zM455 497h-245v-106h245v106z" />
    <glyph glyph-name="hbar" unicode="&#x127;" horiz-adv-x="555" 
d="M305 583v-46q0 -10 -9 -10h-99v-77q46 49 129 49q80 0 130 -60q51 -60 51 -158v-270q0 -11 -10 -11h-127q-10 0 -10 11v236q0 48 -22.5 76.5t-58.5 27.5q-76 -2 -82 -113v-227q0 -11 -10 -11h-126q-11 0 -11 11v516h-34q-9 0 -9 10v46q0 10 9 10h34v118q0 11 10 11h126
q11 0 11 -10v-119h99q9 0 9 -10z" />
    <glyph glyph-name="Itilde" unicode="&#x128;" horiz-adv-x="283" 
d="M218 684v-675q0 -9 -9 -9h-134q-10 0 -10 9v675q0 10 9 10h135q9 0 9 -10zM33 741q-5 -13 -14 -4l-36 40q-5 6 -3 11q14 40 43 66t58 26q23 0 41 -12t28 -26t24 -25t29 -10q35 0 52 45q6 13 11 4l38 -41q5 -6 3 -8q-12 -42 -41 -68t-60 -26q-29 0 -50 18.5t-37.5 37.5
t-34.5 19q-35 -2 -51 -47z" />
    <glyph glyph-name="itilde" unicode="&#x129;" horiz-adv-x="247" 
d="M197 478v-469q0 -9 -10 -9h-127q-10 0 -10 9v469v5t2.5 2.5t7.5 1.5h127q10 0 10 -9zM18 570q-6 -10 -12 -3l-34 38q-5 5 -4 9q12 39 40 63.5t57 24.5q33 0 64 -35t50 -35q34 2 50 44q3 10 10 4l36 -39q5 -5 3 -9q-12 -39 -39.5 -63.5t-57.5 -24.5q-26 0 -46 17.5t-36 35
t-33 17.5q-32 -2 -48 -44z" />
    <glyph glyph-name="Imacron" unicode="&#x12a;" horiz-adv-x="283" 
d="M218 684v-675q0 -9 -9 -9h-134q-10 0 -10 9v675q0 10 9 10h135q9 0 9 -10zM12 849h260q5 0 9 -3.5t3 -8.5v-75q1 -13 -12 -13h-260q-13 0 -13 12v76q0 12 13 12z" />
    <glyph glyph-name="imacron" unicode="&#x12b;" horiz-adv-x="247" 
d="M197 478v-469q0 -9 -10 -9h-127q-10 0 -10 9v469v5t2.5 2.5t7.5 1.5h127q10 0 10 -9zM-7 674h259q15 -1 13 -13v-75q1 -5 -3 -9t-10 -4h-259q-13 0 -13 12v76q0 12 13 13z" />
    <glyph glyph-name="Ibreve" unicode="&#x12c;" horiz-adv-x="283" 
d="M218 684v-675q0 -9 -9 -9h-134q-10 0 -10 9v675q0 10 9 10h135q9 0 9 -10zM212 870l74 1q10 0 9 -10q-2 -66 -42.5 -102t-110.5 -36q-69 0 -109 36t-43 102q0 10 10 10h74q10 0 10 -10q2 -19 19.5 -33.5t38.5 -14.5q24 0 41 14t19 34q0 9 10 9z" />
    <glyph glyph-name="ibreve" unicode="&#x12d;" horiz-adv-x="246" 
d="M197 478v-468q0 -10 -10 -10h-127q-10 0 -10 10v468q0 9 10 9h127q10 0 10 -9zM194 688h75q9 0 9 -10q-2 -69 -44 -110.5t-109 -41.5q-66 0 -107.5 42t-44.5 110q0 10 10 10h74q9 0 10 -10q3 -25 18.5 -41t39.5 -16t40.5 15.5t19.5 41.5q1 10 9 10z" />
    <glyph glyph-name="Iogonek" unicode="&#x12e;" horiz-adv-x="283" 
d="M218 684v-675q0 -9 -9 -9h-134q-10 0 -10 9v675q0 10 9 10h135q9 0 9 -10zM244 -172q-12 -17 -40 -28t-56 -11q-54 0 -83 26.5t-30 74.5q0 47 45 95q44 42 91 75l45 -56l-67 -70q-27 -31 -5 -50q8 -9 22 -8.5t22 12.5q4 4 8 0l49 -51q4 -4 -1 -9z" />
    <glyph glyph-name="iogonek" unicode="&#x12f;" horiz-adv-x="247" 
d="M197 478v-469q0 -9 -10 -9h-127q-10 0 -10 9v469v5t2.5 2.5t7.5 1.5h127q10 0 10 -9zM33 639q0 41 24.5 65.5t65.5 24.5t65 -24.5t24 -65.5q0 -40 -24 -65t-65 -25q-40 0 -65 25t-25 65zM193 -166q-13 -17 -40 -28t-55 -11q-54 0 -83.5 26.5t-30.5 74.5q0 46 46 95
q37 37 90 75l45 -56l-67 -70q-26 -31 -5 -50q8 -9 22 -8.5t22 12.5q4 4 8 0l49 -51q4 -4 -1 -9z" />
    <glyph glyph-name="Idot" unicode="&#x130;" horiz-adv-x="283" 
d="M218 684v-675q0 -9 -9 -9h-134q-10 0 -10 9v675q0 10 9 10h135q9 0 9 -10zM84 749q-22 22 -22 59t22 59t60 22q37 0 59 -22t22 -59t-22 -59t-59 -22q-38 0 -60 22z" />
    <glyph glyph-name="dotlessi" unicode="&#x131;" horiz-adv-x="241" 
d="M191 430v-418q0 -4 -4.5 -8t-8.5 -4h-114q-4 0 -8.5 4t-4.5 8l-1 418q0 5 4 9t8 4h116q4 1 8.5 -3.5t4.5 -9.5z" />
    <glyph glyph-name="IJ" unicode="&#x132;" horiz-adv-x="665" 
d="M218 684v-675q0 -9 -9 -9h-134q-10 0 -10 9v675q0 10 9 10h135q9 0 9 -10zM492 242l-1 442q0 10 10 10h133q10 0 10 -10l1 -475q1 -104 -44 -161t-127 -58q-119 2 -183 58q-7 4 -2 14l62 111q6 11 17 5l14 -8q41 -23 73 -26q16 0 24 11q12 16 13 87z" />
    <glyph glyph-name="ij" unicode="&#x133;" horiz-adv-x="470" 
d="M197 478v-469q0 -9 -10 -9h-127q-10 0 -10 9v469v5t2.5 2.5t7.5 1.5h127q10 0 10 -9zM33 639q0 41 24.5 65.5t65.5 24.5t65 -24.5t24 -65.5q0 -40 -24 -65t-65 -25q-40 0 -65 25t-25 65zM346 728q40 0 64 -24t24 -65t-24 -65.5t-64 -24.5q-41 0 -66 25t-25 65t25 64.5
t66 24.5zM274 -42l-1 519q0 9 10 9h126q10 0 10 -9l1 -538q0 -82 -42.5 -129.5t-116.5 -46.5q-73 0 -120 42q-5 8 -1 14l43 106q6 14 18 4q20 -17 37 -17q35 0 36 46z" />
    <glyph glyph-name="Jcircumflex" unicode="&#x134;" horiz-adv-x="426" 
d="M208 242l-1 442q0 10 10 10h133q10 0 10 -10l1 -475q1 -104 -44 -161t-127 -58q-119 2 -183 58q-7 4 -2 14l62 111q6 11 17 5l14 -8q41 -23 73 -26q16 0 24 11q12 16 13 87zM327 745l-43 39l-44 -39q-5 -5 -11 -5h-110q-12 0 -4 7l109 107q8 5 14 5h91q6 0 14 -5
l110 -107q8 -7 -4 -7h-110q-4 0 -12 5z" />
    <glyph glyph-name="jcircumflex" unicode="&#x135;" horiz-adv-x="266" 
d="M87 -42l-1 519q0 10 10 10l127 -1q9 0 9 -10l1 -536q1 -82 -41 -130t-117 -48q-77 0 -120 43q-7 7 -2 14l44 106q6 13 18 3q17 -16 37 -16q34 0 35 46zM-5 544l96 140q4 6 13 7h103q9 0 13 -7l96 -140q6 -8 -4 -8h-107q-7 0 -12 6l-37 64l-38 -64q-4 -6 -12 -6h-107
q-10 0 -4 8z" />
    <glyph glyph-name="uni0136" unicode="&#x136;" horiz-adv-x="592" 
d="M203 684v-291l203 295q6 6 13 6h145q16 0 6 -13l-230 -330l268 -339q10 -12 -5 -12h-160q-10 0 -13 5l-227 300v-296q0 -9 -9 -9h-134q-10 0 -10 9v675q0 10 9 10h135q9 0 9 -10zM280 -157l-1 1h-2q-37 16 -37 63q0 31 18.5 50t49.5 19q30 1 49 -18.5t20 -50.5
q3 -59 -36 -102t-86 -45q-10 0 -11 4l-19 38q-4 7 2 9q36 10 53 32z" />
    <glyph glyph-name="uni0137" unicode="&#x137;" horiz-adv-x="501" 
d="M322 486h167q14 0 5 -13l-158 -220l190 -240q10 -13 -5 -13h-163q-8 0 -13 5l-148 196v-192q0 -9 -9 -9h-128q-10 0 -10 9v704q0 9 9 9h129q9 0 9 -9v-410l116 178q3 5 9 5zM246 -157l-1 1h-2q-37 16 -37 63q0 31 18.5 50t49.5 19q30 1 49 -18.5t20 -50.5q3 -59 -36 -102
t-86 -45q-10 0 -11 4l-19 38q-4 7 2 9q36 10 53 32z" />
    <glyph glyph-name="kgreenlandic" unicode="&#x138;" horiz-adv-x="494" 
d="M322 486h167q14 0 5 -13l-158 -230l190 -230q10 -13 -5 -13h-163q-8 0 -13 5l-148 186v-182q0 -9 -9 -9h-128q-10 0 -10 9v467q0 10 9 10h129q9 0 9 -10v-183l116 188q3 5 9 5z" />
    <glyph glyph-name="Lacute" unicode="&#x139;" horiz-adv-x="466" 
d="M218 684v-547h209q10 0 10 -10v-118q0 -9 -9 -9h-353q-10 0 -10 9v675q0 10 9 10h135q9 0 9 -10zM225 899l51 -86q3 -3 1.5 -8t-5.5 -7l-195 -91q-11 -5 -15 3l-28 46q-4 7 3 13l171 132q10 8 17 -2z" />
    <glyph glyph-name="lacute" unicode="&#x13a;" horiz-adv-x="247" 
d="M197 712v-702q0 -10 -10 -10h-127q-10 0 -10 10v702q0 10 10 10h127q10 0 10 -10zM201 923l48 -82q3 -3 2 -8t-6 -6l-184 -87q-9 -4 -15 3l-27 44q-5 5 3 12l163 125q7 8 16 -1z" />
    <glyph glyph-name="uni013B" unicode="&#x13b;" horiz-adv-x="466" 
d="M218 684v-547h209q10 0 10 -10v-118q0 -9 -9 -9h-353q-10 0 -10 9v675q0 10 9 10h135q9 0 9 -10zM229 -157q-2 0 -3 1q-37 16 -37 63q0 31 18.5 50t49.5 19q30 1 49 -18.5t20 -50.5q3 -59 -36 -102t-86 -45q-10 0 -11 4l-19 38q-4 7 2 9q36 10 53 32z" />
    <glyph glyph-name="uni013C" unicode="&#x13c;" horiz-adv-x="247" 
d="M197 712v-702q0 -10 -10 -10h-127q-10 0 -10 10v702q0 10 10 10h127q10 0 10 -10zM92 -157l-1 1h-2q-37 16 -37 63q0 31 18.5 50t49.5 19q30 1 49 -18.5t20 -50.5q3 -59 -36 -102t-86 -45q-10 0 -11 4l-19 38q-4 7 2 9q36 10 53 32z" />
    <glyph glyph-name="Lcaron" unicode="&#x13d;" horiz-adv-x="466" 
d="M218 684v-547h209q10 0 10 -10v-118q0 -9 -9 -9h-353q-10 0 -10 9v675q0 10 9 10h135q9 0 9 -10zM312 421l-49 38q-8 5 2 12q58 45 75 104q-1 1 -4 1q-25 7 -39 26.5t-14 47.5q0 36 21.5 57.5t56.5 21.5q34 0 55 -20.5t23 -55.5q4 -69 -32 -140q-35 -71 -81 -96
q-7 -2 -14 4z" />
    <glyph glyph-name="lcaron" unicode="&#x13e;" horiz-adv-x="420" 
d="M197 712v-702q0 -10 -10 -10h-127q-10 0 -10 10v702q0 10 10 10h127q10 0 10 -10zM271 421l-49 38q-8 5 2 12q58 45 75 104q-1 1 -4 1q-25 7 -39 26.5t-14 47.5q0 36 21.5 57.5t56.5 21.5q34 0 55 -20.5t23 -55.5q4 -69 -32 -140q-34 -71 -81 -96q-7 -2 -14 4z" />
    <glyph glyph-name="Ldot" unicode="&#x13f;" horiz-adv-x="466" 
d="M218 684v-547h209q10 0 10 -10v-118q0 -9 -9 -9h-353q-10 0 -10 9v675q0 10 9 10h135q9 0 9 -10zM264 380q0 38 22.5 61.5t60.5 23.5q36 0 59.5 -24t23.5 -61q0 -36 -23.5 -59t-59.5 -23q-38 0 -60.5 23t-22.5 59z" />
    <glyph glyph-name="ldot" unicode="&#x140;" horiz-adv-x="408" 
d="M197 712v-702q0 -10 -10 -10h-127q-10 0 -10 10v702q0 10 10 10h127q10 0 10 -10zM306 443q31 0 49 -18t18 -48t-18 -48.5t-49 -18.5q-30 0 -48.5 18.5t-18.5 48.5t18.5 48t48.5 18z" />
    <glyph glyph-name="Lslash" unicode="&#x141;" horiz-adv-x="466" 
d="M47 313l269 115q9 4 9 -6v-48q0 -11 -9 -14l-269 -116q-10 -3 -10 6v49q0 10 10 14zM218 684v-547h209q10 0 10 -10v-118q0 -9 -9 -9h-353q-10 0 -10 9v675q0 10 9 10h135q9 0 9 -10z" />
    <glyph glyph-name="lslash" unicode="&#x142;" horiz-adv-x="260" 
d="M70 686h120q10 0 10 -9v-286l56 28q9 5 9 -6v-48q0 -11 -9 -15l-56 -27v-313q0 -10 -10 -10h-120q-10 0 -10 10v243l-55 -28q-10 -4 -10 7v45q0 13 10 17l55 27v355q0 10 10 10z" />
    <glyph glyph-name="Nacute" unicode="&#x143;" horiz-adv-x="722" 
d="M514 694h134q9 0 9 -10v-674q0 -10 -10 -10h-152q-5 0 -10 6l-267 432v-428q0 -10 -10 -10h-133q-10 0 -10 10v674q0 10 10 10h152q9 0 13 -7l264 -429v426q0 10 10 10zM424 899l51 -86q3 -3 1.5 -8t-5.5 -7l-195 -91q-10 -5 -15 3l-28 46q-4 7 3 13l171 132q10 8 17 -2z
" />
    <glyph glyph-name="nacute" unicode="&#x144;" horiz-adv-x="555" 
d="M50 10v466q0 11 10 11h104q10 0 13 -10l10 -38q49 60 139 60q80 0 130 -60q51 -60 51 -158v-270q0 -11 -10 -11h-127q-10 0 -10 11v236q0 48 -22.5 76.5t-58.5 27.5q-76 -2 -82 -114v-227q0 -9 -10 -9h-126q-11 0 -11 9zM345 723l62 -78q8 -8 -1 -16l-181 -117
q-8 -6 -15 1l-34 42q-5 5 1 13l151 155q8 8 17 0z" />
    <glyph glyph-name="uni0145" unicode="&#x145;" horiz-adv-x="722" 
d="M514 694h134q9 0 9 -10v-674q0 -10 -10 -10h-152q-5 0 -10 6l-267 432v-428q0 -10 -10 -10h-133q-10 0 -10 10v674q0 10 10 10h152q9 0 13 -7l264 -429v426q0 10 10 10zM339 -157q-2 0 -3 1q-37 16 -37 63q0 31 18.5 50t49.5 19q30 1 49 -18.5t20 -50.5q3 -59 -36 -102
t-86 -45q-10 0 -11 4l-19 38q-4 7 2 9q36 10 53 32z" />
    <glyph glyph-name="uni0146" unicode="&#x146;" horiz-adv-x="555" 
d="M50 10v466q0 11 10 11h104q10 0 13 -10l10 -38q49 60 139 60q80 0 130 -60q51 -60 51 -158v-270q0 -11 -10 -11h-127q-10 0 -10 11v236q0 48 -22.5 76.5t-58.5 27.5q-76 -2 -82 -114v-227q0 -9 -10 -9h-126q-11 0 -11 9zM257 -157q-2 0 -3 1q-37 16 -37 63q0 31 18.5 50
t49.5 19q30 1 49 -18.5t20 -50.5q3 -59 -36 -102t-86 -45q-10 0 -11 4l-19 38q-4 7 2 9q36 10 53 32z" />
    <glyph glyph-name="Ncaron" unicode="&#x147;" horiz-adv-x="722" 
d="M514 694h134q9 0 9 -10v-674q0 -10 -10 -10h-152q-5 0 -10 6l-267 432v-428q0 -10 -10 -10h-133q-10 0 -10 10v674q0 10 10 10h152q9 0 13 -7l264 -429v426q0 10 10 10zM315 854l46 -42l45 42q5 5 13 5h116q12 0 4 -8l-116 -111q-6 -7 -15 -7h-95q-8 0 -15 7l-115 111
q-8 8 4 8h116q4 0 12 -5z" />
    <glyph glyph-name="ncaron" unicode="&#x148;" horiz-adv-x="555" 
d="M50 10v466q0 11 10 11h104q10 0 13 -10l10 -38q49 60 139 60q80 0 130 -60q51 -60 51 -158v-270q0 -11 -10 -11h-127q-10 0 -10 11v236q0 48 -22.5 76.5t-58.5 27.5q-76 -2 -82 -114v-227q0 -9 -10 -9h-126q-11 0 -11 9zM117 696h107q7 0 12 -5l38 -65l37 65q5 5 12 5
h107q10 0 4 -8l-96 -139q-4 -7 -13 -7h-103q-10 0 -13 7l-96 139q-6 8 4 8z" />
    <glyph glyph-name="napostrophe" unicode="&#x149;" horiz-adv-x="668" 
d="M164 10v466q0 11 10 11h104q10 0 13 -10l10 -38q49 60 139 60q80 0 130 -60q51 -60 51 -158v-270q0 -11 -10 -11h-127q-10 0 -10 11v236q0 48 -22.5 76.5t-58.5 27.5q-76 -2 -82 -114v-227q0 -9 -10 -9h-126q-11 0 -11 9zM63 462l-48 37q-6 6 1 13q58 44 76 104h-2l-2 1
q-25 7 -39.5 26.5t-14.5 47.5q1 36 22 57.5t56 21.5t56 -21t22 -55q4 -68 -31 -140q-33 -68 -82 -95q-6 -5 -14 3z" />
    <glyph glyph-name="Eng" unicode="&#x14a;" horiz-adv-x="722" 
d="M504 -45v45l-286 438v-428q0 -10 -10 -10h-133q-10 0 -10 10v674q0 10 10 10h152q9 0 13 -7l264 -428v425q0 10 10 10h134q9 0 9 -10v-734q0 -88 -42.5 -135.5t-122.5 -46.5q-40 0 -88 20q-44 19 -64 36q-8 8 -3 21l59 97q7 13 16 6q43 -31 65 -31q27 0 27 38z" />
    <glyph glyph-name="eng" unicode="&#x14b;" horiz-adv-x="557" 
d="M229 -195q-5 5 -3 14l45 106q6 13 18 3q17 -16 37 -16q34 0 34 46v289q0 48 -22.5 76.5t-58.5 27.5q-76 -2 -82 -114v-227q0 -9 -10 -9h-126q-11 0 -11 9v466q0 11 10 11h104q10 0 13 -10l10 -38q49 60 139 60q80 0 130 -60q51 -60 51 -158v-341q1 -82 -41 -130t-117 -48
q-77 0 -120 43z" />
    <glyph glyph-name="Omacron" unicode="&#x14c;" horiz-adv-x="776" 
d="M744 347q0 -161 -98 -259q-97 -97 -258 -97q-160 0 -258 98t-98 258t98 258t258 98t258 -98t98 -258zM185 347q0 -92 56 -148q55 -55 148 -55q90 0 146 56t56 147q1 91 -55 147t-147 56q-92 0 -148 -56t-56 -147zM257 847h265q9 0 9 -10v-76q0 -9 -9 -9h-265q-11 0 -11 9
v76q0 10 11 10z" />
    <glyph glyph-name="omacron" unicode="&#x14d;" horiz-adv-x="557" 
d="M25 245q0 113 70 183q71 71 183 71q113 0 184 -71q70 -70 70 -183q0 -115 -70 -185t-184 -70q-113 0 -183 70t-70 185zM278 136q48 1 77.5 30.5t29.5 78.5t-29.5 78.5t-77.5 28.5q-48 0 -77 -29t-29 -78t29 -79t77 -30zM150 674h259q6 -1 10 -4t3 -8v-75q1 -13 -13 -13
h-259q-13 0 -13 12v76q0 11 13 12z" />
    <glyph glyph-name="Obreve" unicode="&#x14e;" horiz-adv-x="776" 
d="M744 347q0 -161 -98 -259q-97 -97 -258 -97q-160 0 -258 98t-98 258t98 258t258 98t258 -98t98 -258zM185 347q0 -92 56 -148q55 -55 148 -55q90 0 146 56t56 147q1 91 -55 147t-147 56q-92 0 -148 -56t-56 -147zM450 866h67q9 0 9 -8q-2 -60 -39 -92.5t-100 -32.5
q-61 0 -97.5 32.5t-39.5 92.5q0 8 9 8h67q9 0 9 -8q2 -18 17 -30.5t35 -12.5q21 0 36.5 12.5t17.5 30.5q0 8 9 8z" />
    <glyph glyph-name="obreve" unicode="&#x14f;" horiz-adv-x="557" 
d="M25 245q0 113 70 183q71 71 183 71q113 0 184 -71q70 -70 70 -183q0 -115 -70 -185t-184 -70q-113 0 -183 70t-70 185zM278 136q48 1 77.5 30.5t29.5 78.5t-29.5 78.5t-77.5 28.5q-48 0 -77 -29t-29 -78t29 -79t77 -30zM342 684h72q8 0 8 -10q-2 -65 -42 -104.5
t-103 -39.5t-102.5 39.5t-41.5 104.5q0 10 9 10h70q9 0 10 -10q3 -24 18 -39t37 -15t38 15t19 39q1 10 8 10z" />
    <glyph glyph-name="Ohungarumlaut" unicode="&#x150;" horiz-adv-x="776" 
d="M744 347q0 -161 -98 -259q-97 -97 -258 -97q-160 0 -258 98t-98 258t98 258t258 98t258 -98t98 -258zM185 347q0 -92 56 -148q55 -55 148 -55q90 0 146 56t56 147q1 91 -55 147t-147 56q-92 0 -148 -56t-56 -147zM492 910l71 -48q9 -7 3 -14l-102 -130q-7 -7 -13 -2
l-48 36q-7 6 -3 13l78 140q4 10 14 5zM336 910l75 -48q8 -6 2 -14l-102 -130q-7 -7 -13 -2l-49 35q-8 8 -4 14l78 141q6 8 13 4z" />
    <glyph glyph-name="ohungarumlaut" unicode="&#x151;" horiz-adv-x="557" 
d="M25 245q0 113 70 183q71 71 183 71q113 0 184 -71q70 -70 70 -183q0 -115 -70 -185t-184 -70q-113 0 -183 70t-70 185zM278 136q48 1 77.5 30.5t29.5 78.5t-29.5 78.5t-77.5 28.5q-48 0 -77 -29t-29 -78t29 -79t77 -30zM374 712l67 -46q10 -5 3 -13l-97 -123
q-6 -8 -12 -2l-46 34q-7 8 -3 12l74 133q4 10 14 5zM225 712l72 -46q7 -4 2 -13l-97 -123q-7 -7 -13 -2l-46 33q-8 7 -4 13l74 134q6 10 12 4z" />
    <glyph glyph-name="OE" unicode="&#x152;" horiz-adv-x="739" 
d="M692 0h-323q-151 0 -244 96t-93 251t92 250q92 96 242 97h314q12 0 12 -14v-109q0 -14 -12 -14h-168v-137h122q10 0 10 -11v-114q0 -10 -10 -10h-122v-148h179q10 0 10 -11v-115q0 -11 -9 -11zM358 151l1 391q-80 -8 -126.5 -60t-46.5 -135q0 -84 45.5 -136t126.5 -60z
" />
    <glyph glyph-name="oe" unicode="&#x153;" horiz-adv-x="914" 
d="M278 136q48 1 77.5 30.5t29.5 78.5t-29.5 78.5t-77.5 28.5q-48 0 -77 -29t-29 -78t29 -79t77 -30zM540 289h194q-19 70 -97 70t-97 -70zM25 245q0 113 70 183q71 71 183 71q113 0 182 -69q71 65 177 65q252 0 252 -298q0 -11 -11 -11h-334q27 -61 105 -61q55 0 92 27
q10 8 17 1l78 -82q6 -8 0 -14q-62 -67 -196 -68q-114 0 -182 67q-69 -66 -180 -66q-113 0 -183 70t-70 185z" />
    <glyph glyph-name="Racute" unicode="&#x154;" horiz-adv-x="607" 
d="M430 5l-136 244h-76v-239q0 -10 -10 -10h-133q-10 0 -10 10v674q0 10 10 10h279q102 0 162 -63q59 -62 61 -159q-1 -73 -37 -128.5t-99 -79.5l151 -252q6 -12 -6 -12h-145q-6 0 -11 5zM356 548h-138v-152h138q25 0 46.5 19.5t21.5 55.5t-21.5 56t-46.5 21zM398 899
l51 -86q3 -3 1.5 -8t-5.5 -7l-195 -91q-10 -5 -15 3l-28 46q-4 7 3 13l171 132q10 8 17 -2z" />
    <glyph glyph-name="racute" unicode="&#x155;" horiz-adv-x="376" 
d="M329 334q-34 14 -62 14q-45 0 -69 -44v-293q0 -11 -10 -11h-127q-11 0 -11 11v465q0 10 10 11h89q11 0 14 -11l12 -27q55 48 121 48q24 0 72 -12q10 -3 7 -13l-31 -132q-4 -10 -15 -6zM257 721l62 -78q3 -3 3 -8t-4 -7l-181 -118q-8 -6 -15 1l-34 42q-5 5 1 13l151 155
q8 8 17 0z" />
    <glyph glyph-name="uni0156" unicode="&#x156;" horiz-adv-x="606" 
d="M430 5l-136 244h-76v-239q0 -10 -10 -10h-133q-10 0 -10 10v674q0 10 10 10h279q102 0 162 -63q59 -62 61 -159q-1 -73 -37 -128.5t-99 -79.5l151 -252q6 -12 -6 -12h-145q-6 0 -11 5zM356 548h-138v-152h138q25 0 46.5 19.5t21.5 55.5t-21.5 56t-46.5 21zM283 -157
q-2 0 -3 1q-37 16 -37 63q0 31 18.5 50t49.5 19q30 1 49 -18.5t20 -50.5q3 -59 -36 -102t-86 -45q-10 0 -11 4l-19 38q-4 7 2 9q36 10 53 32z" />
    <glyph glyph-name="uni0157" unicode="&#x157;" horiz-adv-x="377" 
d="M329 334q-34 14 -62 14q-45 0 -69 -44v-293q0 -11 -10 -11h-127q-11 0 -11 11v465q0 10 10 11h89q11 0 14 -11l12 -27q55 48 121 48q24 0 72 -12q10 -3 7 -13l-31 -132q-4 -10 -15 -6zM91 -157q-2 0 -3 1q-37 16 -37 63q0 31 18.5 50t49.5 19q30 1 49 -18.5t20 -50.5
q3 -59 -36 -102t-86 -45q-10 0 -11 4l-19 38q-4 7 2 9q36 10 53 32z" />
    <glyph glyph-name="Rcaron" unicode="&#x158;" horiz-adv-x="607" 
d="M430 5l-136 244h-76v-239q0 -10 -10 -10h-133q-10 0 -10 10v674q0 10 10 10h279q102 0 162 -63q59 -62 61 -159q-1 -73 -37 -128.5t-99 -79.5l151 -252q6 -12 -6 -12h-145q-6 0 -11 5zM356 548h-138v-152h138q25 0 46.5 19.5t21.5 55.5t-21.5 56t-46.5 21zM250 854
l46 -42l45 42q5 5 13 5h116q12 0 4 -8l-116 -111q-6 -7 -15 -7h-95q-8 0 -15 7l-115 111q-8 8 4 8h116q4 0 12 -5z" />
    <glyph glyph-name="rcaron" unicode="&#x159;" horiz-adv-x="376" 
d="M329 334q-34 14 -62 14q-45 0 -69 -44v-293q0 -11 -10 -11h-127q-11 0 -11 11v465q0 10 10 11h89q11 0 14 -11l12 -27q55 48 121 48q24 0 72 -12q10 -3 7 -13l-31 -132q-4 -10 -15 -6zM32 694h107q7 0 12 -5l38 -65l37 65q5 5 12 5h107q10 0 4 -8l-96 -139q-4 -7 -13 -7
h-103q-9 0 -13 7l-96 139q-6 8 4 8z" />
    <glyph glyph-name="Sacute" unicode="&#x15a;" horiz-adv-x="595" 
d="M39 74q-7 4 -2 13l66 118q7 10 16 2q24 -20 78 -43q54 -21 109 -21q43 0 72 15t29 40q0 54 -121 73q-127 21 -186.5 70.5t-62.5 139.5q-3 98 69 160q73 63 194 62q78 -2 139 -24t83 -43q8 -5 3 -14l-53 -121q-4 -9 -14 -3q-79 52 -164 52q-44 0 -73.5 -16.5t-29.5 -40.5
t25.5 -38t96.5 -29q128 -28 186 -78.5t61 -143.5q3 -92 -71 -154t-196 -60q-84 2 -156 30q-73 30 -98 54zM381 899l51 -86q3 -3 1.5 -8t-5.5 -7l-195 -91q-11 -5 -15 3l-28 46q-4 7 3 13l171 132q10 8 17 -2z" />
    <glyph glyph-name="sacute" unicode="&#x15b;" horiz-adv-x="461" 
d="M37 44q-8 6 -3 14l50 102q4 7 13 2q54 -29 108 -37q32 -3 54.5 3t22.5 17q0 3 -1.5 6.5t-5 6.5t-7.5 5t-11 5t-13 5t-15 4.5t-16.5 4.5t-18.5 5.5t-19 5.5q-139 40 -143 145q-3 77 57 119q62 42 150 41q39 0 79 -12q60 -17 94 -43q8 -7 3 -15l-50 -94q-4 -10 -19 -4
l-14 8q-38 17 -71 23q-32 6 -57 -1t-25 -19q0 -21 78 -38q89 -19 129.5 -52.5t42.5 -97.5q2 -74 -51.5 -118.5t-142.5 -43.5q-65 0 -120 18q-58 20 -78 35zM291 723l63 -78q2 -3 2 -8t-4 -8l-181 -117q-8 -6 -15 1l-34 42q-5 5 1 13l151 155q8 8 17 0z" />
    <glyph glyph-name="Scircumflex" unicode="&#x15c;" horiz-adv-x="595" 
d="M39 74q-7 4 -2 13l66 118q7 10 16 2q24 -20 78 -43q54 -21 109 -21q43 0 72 15t29 40q0 54 -121 73q-127 21 -186.5 70.5t-62.5 139.5q-3 98 69 160q73 63 194 62q78 -2 139 -24t83 -43q8 -5 3 -14l-53 -121q-4 -9 -14 -3q-79 52 -164 52q-44 0 -73.5 -16.5t-29.5 -40.5
t25.5 -38t96.5 -29q128 -28 186 -78.5t61 -143.5q3 -92 -71 -154t-196 -60q-84 2 -156 30q-73 30 -98 54zM341 740l-42 39l-44 -39q-8 -5 -11 -5h-111q-11 0 -3 7l109 107q8 5 14 5h90q7 0 15 -5l110 -107q7 -7 -4 -7h-110q-5 0 -13 5z" />
    <glyph glyph-name="scircumflex" unicode="&#x15d;" horiz-adv-x="461" 
d="M37 44q-8 6 -3 14l49 100q4 9 15 4q59 -31 106 -37q32 -4 55 2.5t23 17.5q0 4 -2.5 8t-8.5 7.5t-12 6.5t-17 6.5t-19.5 6t-23 6.5t-24.5 7q-139 40 -143 145q-3 76 57 118q61 42 150 41q57 0 104 -19q48 -20 69 -36q8 -6 3 -14l-51 -95q-4 -8 -16 -4l-15 7q-33 18 -72 25
q-32 6 -57 -1t-25 -19q0 -21 78 -38q89 -19 129.5 -52.5t42.5 -97.5q2 -74 -51.5 -118.5t-142.5 -43.5q-64 0 -121 18q-60 20 -77 35zM70 545l96 140q4 6 13 7h103q9 0 13 -7l96 -140q6 -8 -4 -8h-107q-8 0 -12 6l-37 64l-38 -64q-5 -6 -12 -6h-107q-10 0 -4 8z" />
    <glyph glyph-name="Scedilla" unicode="&#x15e;" horiz-adv-x="595" 
d="M39 74q-7 4 -2 13l66 118q7 10 16 2q24 -20 78 -43q54 -21 109 -21q43 0 72 15t29 40q0 54 -121 73q-127 21 -186.5 70.5t-62.5 139.5q-3 98 69 160q73 63 194 62q78 -2 139 -24t83 -43q8 -5 3 -14l-53 -121q-4 -9 -14 -3q-79 52 -164 52q-44 0 -73.5 -16.5t-29.5 -40.5
t25.5 -38t96.5 -29q128 -28 186 -78.5t61 -143.5q3 -92 -71 -154t-196 -60q-84 2 -156 30q-73 30 -98 54zM250 0h107l-15 -35q38 -5 59.5 -24.5t20.5 -54.5q-1 -44 -34.5 -68.5t-86.5 -24.5q-65 -1 -122 37q-6 4 -1 12l21 37q3 5 13 2q44 -14 74 -14q38 0 38 25q0 24 -47 24
h-54q-7 0 -6 9z" />
    <glyph glyph-name="scedilla" unicode="&#x15f;" horiz-adv-x="461" 
d="M37 44q-8 6 -3 14l49 100q4 9 15 4q59 -31 106 -37q32 -4 55 2.5t23 17.5q0 4 -2.5 8t-8.5 7.5t-12 6.5t-17 6.5t-19.5 6t-23 6.5t-24.5 7q-139 40 -143 145q-3 76 57 118q61 42 150 41q57 0 104 -19q48 -20 69 -36q8 -6 3 -14l-51 -95q-4 -8 -16 -4l-15 7q-33 18 -72 25
q-32 6 -57 -1t-25 -19q0 -21 78 -38q89 -19 129.5 -52.5t42.5 -97.5q2 -74 -51.5 -118.5t-142.5 -43.5q-64 0 -121 18q-60 20 -77 35zM179 0h113l-16 -37q41 -5 63 -25.5t21 -57.5q-1 -47 -36 -72.5t-91 -25.5q-32 -1 -67.5 10.5t-60.5 28.5q-7 4 -2 13l23 39q3 5 13 2
q39 -15 78 -15q40 0 40 26t-49 26h-57q-11 0 -6 9z" />
    <glyph glyph-name="Scaron" unicode="&#x160;" horiz-adv-x="595" 
d="M39 74q-7 4 -2 13l66 118q7 10 16 2q24 -20 78 -43q54 -21 109 -21q43 0 72 15t29 40q0 54 -121 73q-127 21 -186.5 70.5t-62.5 139.5q-3 98 69 160q73 63 194 62q78 -2 139 -24t83 -43q8 -5 3 -14l-53 -121q-4 -9 -14 -3q-79 52 -164 52q-44 0 -73.5 -16.5t-29.5 -40.5
t25.5 -38t96.5 -29q128 -28 186 -78.5t61 -143.5q3 -92 -71 -154t-196 -60q-84 2 -156 30q-73 30 -98 54zM253 854l46 -42l45 42q5 5 13 5h116q12 0 4 -8l-116 -111q-6 -7 -15 -7h-95q-8 0 -15 7l-115 111q-8 8 4 8h116q4 0 12 -5z" />
    <glyph glyph-name="scaron" unicode="&#x161;" horiz-adv-x="461" 
d="M37 44q-8 6 -3 14l49 100q4 9 15 4q59 -31 106 -37q32 -4 55 2.5t23 17.5q0 4 -2.5 8t-8.5 7.5t-12 6.5t-17 6.5t-19.5 6t-23 6.5t-24.5 7q-139 40 -143 145q-3 76 57 118q61 42 150 41q57 0 104 -19q48 -20 69 -36q8 -6 3 -14l-51 -95q-4 -8 -16 -4l-15 7q-33 18 -72 25
q-32 6 -57 -1t-25 -19q0 -21 78 -38q89 -19 129.5 -52.5t42.5 -97.5q2 -74 -51.5 -118.5t-142.5 -43.5q-64 0 -121 18q-60 20 -77 35zM70 696h107q7 0 12 -5l38 -65l37 65q5 5 12 5h107q10 0 4 -8l-96 -139q-4 -7 -13 -7h-103q-9 0 -13 7l-96 139q-6 8 4 8z" />
    <glyph glyph-name="uni0162" unicode="&#x162;" horiz-adv-x="554" 
d="M353 684v-675q0 -9 -9 -9h-134q-10 0 -10 9v675q0 9 10 9h134q9 0 9 -9zM20 557v127q0 9 10 9h495q10 0 10 -9v-127q0 -10 -11 -10h-495q-9 0 -9 10z" />
    <glyph glyph-name="uni0163" unicode="&#x163;" horiz-adv-x="345" 
d="M296 153q11 6 12 -1l35 -113q2 -11 -1 -14q-44 -35 -113 -34q-67 0 -106 43.5t-39 118.5l2 474q0 9 10 9l125 1q8 0 8 -9v-383q0 -56 5 -81q5 -23 27 -23q5 0 19.5 6t15.5 6zM20 359v118q0 9 10 9h284q10 0 10 -9v-118q0 -9 -10 -9h-284q-10 0 -10 9z" />
    <glyph glyph-name="Tcaron" unicode="&#x164;" horiz-adv-x="554" 
d="M201 9v538h-172q-9 0 -9 9v128q0 10 10 10h495q9 0 9 -10v-127q0 -10 -9 -10h-171v-538q0 -9 -10 -9h-134q-9 0 -9 9zM231 854l46 -42l45 42q5 5 13 5h116q12 0 4 -8l-116 -111q-6 -7 -15 -7h-95q-8 0 -15 7l-115 111q-8 8 4 8h116q4 0 12 -5z" />
    <glyph glyph-name="tcaron" unicode="&#x165;" horiz-adv-x="436" 
d="M230 350l-1 -104q0 -57 5 -82q3 -14 9 -18.5t18 -4.5q5 0 20 6l15 6q10 6 14 -4l33 -110q4 -13 -4 -16q-42 -33 -110 -32q-67 0 -106 44t-38 118v197h-55q-10 0 -10 9v118q0 10 10 10h55l1 140q0 10 9 10h125q10 0 10 -10v-140h84q10 0 10 -10v-118q0 -9 -10 -9h-84z
M317 609q-2 0 -3 1q-37 16 -37 63q0 31 18.5 50t49.5 19q30 1 49 -18.5t20 -50.5q3 -59 -36 -102t-86 -45q-10 0 -11 4l-19 38q-4 7 2 9q36 10 53 32z" />
    <glyph glyph-name="Tbar" unicode="&#x166;" horiz-adv-x="554" 
d="M534 684v-127q0 -10 -9 -10h-171v-151h86q10 0 10 -9v-47q0 -9 -10 -9h-86v-322q0 -9 -10 -9h-134q-9 0 -9 9v322h-87q-9 0 -9 9v47q0 9 9 9h87v151h-172q-9 0 -9 9v128q0 10 10 10h495q9 0 9 -10z" />
    <glyph glyph-name="tbar" unicode="&#x167;" horiz-adv-x="344" 
d="M297 222h-67v-5q1 -46 7 -61t24 -15q5 0 20 6l15 6q10 6 14 -4l33 -110q4 -13 -4 -16q-42 -33 -110 -32q-67 0 -106 44t-38 118v69h-54q-10 0 -10 9v47q0 9 10 9h54v63h-55q-10 0 -10 9v118q0 10 10 10h55l1 140q0 10 9 10h125q10 0 10 -10v-140h84q10 0 10 -10v-118
q0 -9 -10 -9h-84v-63h67q9 0 9 -9v-47q0 -9 -9 -9z" />
    <glyph glyph-name="Utilde" unicode="&#x168;" horiz-adv-x="458" 
d="M-48 272v412q0 9 10 9h134q9 0 9 -9v-413q0 -57 34.5 -92t90.5 -35t89.5 35t32.5 92v413q0 9 10 9h134q10 0 10 -9v-413q0 -133 -81 -207q-80 -73 -196 -73q-114 0 -196 74q-81 73 -81 207zM118 741q-6 -13 -13 -4l-37 40q-3 8 -2 11q14 40 43 66t57 26q23 0 41 -12
t28 -26t24 -25t29 -10q36 0 52 45q6 13 11 4l38 -41q5 -6 3 -8q-12 -42 -41 -68t-60 -26q-29 0 -50 18.5t-37.5 37.5t-34.5 19q-35 -2 -51 -47z" />
    <glyph glyph-name="utilde" unicode="&#x169;" horiz-adv-x="564" 
d="M387 10l-10 37q-62 -59 -155 -59q-79 0 -127 60t-48 158v270q0 10 10 10h126q11 0 11 -10v-236q0 -115 86 -115q81 2 87 123v228q0 11 11 11h125q10 0 10 -10l1 -467q0 -10 -11 -10h-103q-10 0 -13 10zM177 555q-6 -12 -13 -3l-34 38q-5 5 -4 9q12 39 40 63.5t57 24.5
q28 0 47 -17.5t34.5 -35t32.5 -17.5q34 1 50 44q3 10 11 4l36 -39q4 -4 3 -9q-12 -39 -39.5 -63.5t-57.5 -24.5q-21 0 -38.5 11t-27 24t-22.5 24t-27 11q-35 -2 -48 -44z" />
    <glyph glyph-name="Umacron" unicode="&#x16a;" horiz-adv-x="684" 
d="M65 272v412q0 9 10 9h134q9 0 9 -9v-413q0 -57 34.5 -92t90.5 -35t89.5 35t32.5 92v413q0 9 10 9h134q10 0 10 -9v-413q0 -133 -81 -207q-80 -73 -196 -73q-114 0 -196 74q-81 73 -81 207zM210 842h265q9 0 9 -10v-76q0 -9 -9 -9h-265q-11 0 -11 9v76q0 10 11 10z" />
    <glyph glyph-name="umacron" unicode="&#x16b;" horiz-adv-x="564" 
d="M387 10l-10 37q-62 -59 -155 -59q-79 0 -127 60t-48 158v270q0 10 10 10h126q11 0 11 -10v-236q0 -115 86 -115q81 2 87 123v228q0 11 11 11h125q10 0 10 -10l1 -467q0 -10 -11 -10h-103q-10 0 -13 10zM149 673h259q13 -1 13 -13v-75q0 -13 -13 -13h-259q-13 0 -13 12v76
q0 12 13 13z" />
    <glyph glyph-name="Ubreve" unicode="&#x16c;" horiz-adv-x="684" 
d="M65 272v412q0 9 10 9h134q9 0 9 -9v-413q0 -57 34.5 -92t90.5 -35t89.5 35t32.5 92v413q0 9 10 9h134q10 0 10 -9v-413q0 -133 -81 -207q-80 -73 -196 -73q-114 0 -196 74q-81 73 -81 207zM408 868l70 1q9 0 9 -9q-2 -63 -40.5 -97t-105.5 -34q-65 0 -103 34t-41 97
q0 9 9 9h71q9 0 9 -9q2 -18 18 -32t37 -14q23 0 39 13.5t18 32.5q0 8 10 8z" />
    <glyph glyph-name="ubreve" unicode="&#x16d;" horiz-adv-x="564" 
d="M387 10l-10 37q-62 -59 -155 -59q-79 0 -127 60t-48 158v270q0 10 10 10h126q11 0 11 -10v-236q0 -115 86 -115q81 2 87 123v228q0 11 11 11h125q10 0 10 -10l1 -467q0 -10 -11 -10h-103q-10 0 -13 10zM341 684h71q9 0 9 -10q-2 -65 -41.5 -104.5t-103.5 -39.5
q-63 0 -102.5 39.5t-42.5 104.5q0 10 10 10h70q9 0 10 -10q2 -24 17 -39t38 -15q22 0 38 15t19 39q1 10 8 10z" />
    <glyph glyph-name="Uring" unicode="&#x16e;" horiz-adv-x="684" 
d="M65 272v412q0 9 10 9h134q9 0 9 -9v-413q0 -57 34.5 -92t90.5 -35t89.5 35t32.5 92v413q0 9 10 9h134q10 0 10 -9v-413q0 -133 -81 -207q-80 -73 -196 -73q-114 0 -196 74q-81 73 -81 207zM245 807q0 43 26.5 69t70.5 26t70.5 -26t26.5 -69q0 -44 -26.5 -71t-70.5 -27
t-70.5 27t-26.5 71zM313 806q0 -30 29 -30t29 30q0 29 -29 29t-29 -29z" />
    <glyph glyph-name="uring" unicode="&#x16f;" horiz-adv-x="564" 
d="M387 10l-10 37q-62 -59 -155 -59q-79 0 -127 60t-48 158v270q0 10 10 10h126q11 0 11 -10v-236q0 -115 86 -115q81 2 87 123v228q0 11 11 11h125q10 0 10 -10l1 -467q0 -10 -11 -10h-103q-10 0 -13 10zM181 613q0 43 26.5 69.5t70.5 26.5t70.5 -26.5t26.5 -69.5
q0 -44 -26.5 -71t-70.5 -27t-70.5 27t-26.5 71zM249 612q0 -18 14.5 -26t29 0t14.5 26q0 29 -29 29t-29 -29z" />
    <glyph glyph-name="Uhungarumlaut" unicode="&#x170;" horiz-adv-x="684" 
d="M65 272v412q0 9 10 9h134q9 0 9 -9v-413q0 -57 34.5 -92t90.5 -35t89.5 35t32.5 92v413q0 9 10 9h134q10 0 10 -9v-413q0 -133 -81 -207q-80 -73 -196 -73q-114 0 -196 74q-81 73 -81 207zM435 898l71 -48q9 -7 3 -14l-102 -130q-7 -7 -13 -2l-48 36q-7 6 -3 13l78 140
q4 10 14 5zM279 898l75 -48q8 -6 2 -14l-102 -130q-7 -7 -13 -2l-49 35q-8 8 -4 14l78 141q6 8 13 4z" />
    <glyph glyph-name="uhungarumlaut" unicode="&#x171;" horiz-adv-x="564" 
d="M387 10l-10 37q-62 -59 -155 -59q-79 0 -127 60t-48 158v270q0 10 10 10h126q11 0 11 -10v-236q0 -115 86 -115q81 2 87 123v228q0 11 11 11h125q10 0 10 -10l1 -467q0 -10 -11 -10h-103q-10 0 -13 10zM374 692l68 -46q7 -6 3 -13l-97 -124q-6 -8 -13 -2l-45 35
q-8 4 -3 12l74 133q5 10 13 5zM226 692l71 -46q7 -8 2 -13l-97 -124q-4 -7 -12 -2l-46 34q-9 5 -4 13l74 134q5 8 12 4z" />
    <glyph glyph-name="Uogonek" unicode="&#x172;" horiz-adv-x="684" 
d="M65 272v412q0 9 10 9h134q9 0 9 -9v-413q0 -57 34.5 -92t90.5 -35t89.5 35t32.5 92v413q0 9 10 9h134q10 0 10 -9v-413q0 -133 -81 -207q-80 -73 -196 -73q-114 0 -196 74q-81 73 -81 207zM409 -175q-12 -17 -40 -28t-56 -11q-54 0 -83 26.5t-30 74.5q0 47 45 95
q44 42 91 75l44 -56l-66 -69q-26 -32 -6 -51q9 -9 22.5 -8t22.5 12q5 7 7 0l50 -50q4 -5 -1 -10z" />
    <glyph glyph-name="uogonek" unicode="&#x173;" horiz-adv-x="563" 
d="M387 10l-10 37q-62 -59 -155 -59q-79 0 -127 60t-48 158v270q0 10 10 10h126q11 0 11 -10v-236q0 -115 86 -115q81 2 87 123v228q0 11 11 11h125q10 0 10 -10l1 -467q0 -10 -11 -10h-103q-10 0 -13 10zM539 -172q-12 -17 -40 -28t-56 -11q-54 0 -83 26.5t-30 74.5
q0 47 45 95q44 42 91 75l45 -56l-67 -70q-27 -31 -5 -50q8 -9 22 -8.5t22 12.5q4 4 8 0l49 -51q4 -4 -1 -9z" />
    <glyph glyph-name="Wcircumflex" unicode="&#x174;" horiz-adv-x="963" 
d="M204 8l-203 676q-3 10 7 10h135q9 0 12 -9l122 -449l133 449q3 9 12 9h118q6 0 11 -9l136 -454l124 456q0 7 9 7h135q10 0 7 -10l-204 -676q-2 -8 -11 -8h-115q-9 0 -11 8l-140 494l-140 -494q-2 -8 -10 -8h-117q-8 0 -10 8zM436 864h90q7 0 15 -5l110 -107q8 -7 -4 -7
h-110q-5 0 -13 5l-42 39l-44 -39q-8 -5 -11 -5h-111q-11 0 -3 7l109 107q8 5 14 5z" />
    <glyph glyph-name="wcircumflex" unicode="&#x175;" horiz-adv-x="689" 
d="M551 0h-134q-9 0 -11 8l-63 263l-63 -263q-2 -8 -11 -8h-129q-9 0 -12 8l-128 469q-1 10 7 10h143q8 0 10 -9l52 -265l70 265q2 9 10 9h105q7 0 12 -9l69 -286l50 286q2 9 9 9h144q11 0 7 -10l-125 -469q-3 -8 -12 -8zM295 535h-107q-10 0 -4 8l96 140q4 6 13 7h103
q9 0 13 -7l96 -140q6 -8 -4 -8h-107q-8 0 -12 6l-37 64l-38 -64q-5 -6 -12 -6z" />
    <glyph glyph-name="Ycircumflex" unicode="&#x176;" horiz-adv-x="634" 
d="M240 9v267l-238 405q-7 12 7 12h140q8 0 13 -8l155 -276l155 276q5 8 13 8h140q15 0 7 -12l-239 -405v-267q0 -9 -10 -9h-133q-10 0 -10 9zM360 746l-43 39l-43 -39q-8 -5 -12 -5h-110q-11 0 -4 7l110 107q8 5 14 5h90q9 0 14 -5l111 -107q7 -7 -4 -7h-110q-5 0 -13 5z
" />
    <glyph glyph-name="ycircumflex" unicode="&#x177;" horiz-adv-x="517" 
d="M378 487h129q13 0 9 -13l-267 -693q-5 -9 -13 -9h-130q-6 0 -8.5 4t-0.5 9l85 219l-181 470q-5 11 7 13h134q9 0 12 -9l98 -293l113 293q5 9 13 9zM98 534l96 140q4 6 13 7h103q9 0 13 -7l96 -140q6 -8 -4 -8h-107q-8 0 -12 6l-37 64l-38 -64q-5 -6 -12 -6h-107
q-10 0 -4 8z" />
    <glyph glyph-name="Ydieresis" unicode="&#x178;" horiz-adv-x="634" 
d="M240 9v267l-238 405q-7 12 7 12h140q8 0 13 -8l155 -276l155 276q5 8 13 8h140q15 0 7 -12l-239 -405v-267q0 -9 -10 -9h-133q-10 0 -10 9zM171 798q0 31 18.5 49.5t48.5 18.5t48.5 -18.5t18.5 -49.5q0 -30 -19 -48.5t-48 -18.5q-30 0 -48.5 18.5t-18.5 48.5zM327 798
q0 31 18 49.5t49 18.5q30 0 48.5 -18.5t18.5 -49.5q0 -30 -18.5 -48.5t-48.5 -18.5q-31 0 -49 18.5t-18 48.5z" />
    <glyph glyph-name="Zacute" unicode="&#x179;" horiz-adv-x="613" 
d="M575 677l-302 -533h287q10 0 10 -10v-124q0 -10 -10 -10h-513q-19 0 -9 16l302 534h-254q-10 0 -10 9v125q0 10 10 10h480q20 0 9 -17zM387 899l51 -86q3 -3 1.5 -8t-5.5 -7l-195 -91q-11 -5 -15 3l-28 46q-4 7 3 13l171 132q10 8 17 -2z" />
    <glyph glyph-name="zacute" unicode="&#x17a;" horiz-adv-x="462" 
d="M421 0h-383q-12 0 -7 12l173 338h-153q-9 0 -9 9v118q0 10 9 10h374q13 0 4 -17l-171 -333h163q9 0 9 -10v-117q0 -10 -9 -10zM318 721l62 -78q8 -8 -2 -15l-180 -118q-8 -6 -15 1l-34 43q-5 6 1 12l151 155q8 9 17 0z" />
    <glyph glyph-name="Zdotaccent" unicode="&#x17b;" horiz-adv-x="613" 
d="M575 677l-302 -533h287q10 0 10 -10v-124q0 -10 -10 -10h-513q-19 0 -9 16l302 534h-254q-10 0 -10 9v125q0 10 10 10h480q20 0 9 -17zM257 804q0 28 17 45t46 17t46.5 -17t17.5 -45q0 -29 -17.5 -46.5t-46.5 -17.5q-28 0 -45.5 17.5t-17.5 46.5z" />
    <glyph glyph-name="zdotaccent" unicode="&#x17c;" horiz-adv-x="462" 
d="M421 0h-383q-12 0 -7 12l173 338h-153q-9 0 -9 9v118q0 10 9 10h374q13 0 4 -17l-171 -333h163q9 0 9 -10v-117q0 -10 -9 -10zM231 683q31 0 49 -18t18 -48t-18 -48.5t-49 -18.5q-30 0 -48.5 18.5t-18.5 48.5t18.5 48t48.5 18z" />
    <glyph glyph-name="Zcaron" unicode="&#x17d;" horiz-adv-x="613" 
d="M575 677l-302 -533h287q10 0 10 -10v-124q0 -10 -10 -10h-513q-19 0 -9 16l302 534h-254q-10 0 -10 9v125q0 10 10 10h480q20 0 9 -17zM261 854l46 -42l45 42q5 5 13 5h116q12 0 4 -8l-116 -111q-6 -7 -15 -7h-95q-8 0 -15 7l-115 111q-8 8 4 8h116q4 0 12 -5z" />
    <glyph glyph-name="zcaron" unicode="&#x17e;" horiz-adv-x="462" 
d="M420 0h-383q-11 0 -7 12l173 338h-153q-9 0 -9 9v118q0 10 9 10h374q13 0 4 -17l-171 -333h163q9 0 9 -10v-117q0 -10 -9 -10zM80 693h107q7 0 12 -5l38 -65l37 65q5 5 12 5h107q10 0 4 -8l-96 -139q-4 -7 -13 -7h-103q-9 0 -13 7l-96 139q-6 8 4 8z" />
    <glyph glyph-name="longs" unicode="&#x17f;" horiz-adv-x="313" 
d="M198 521v-511q0 -10 -10 -10h-127q-10 0 -10 10l-1 524q0 107 41.5 153t127.5 46q41 0 77 -13.5t53 -30.5q6 -6 3 -14l-43 -103q-5 -8 -14 -2q-31 19 -50 19q-25 0 -36 -15t-11 -53z" />
    <glyph glyph-name="florin" unicode="&#x192;" horiz-adv-x="487" 
d="M523 663l-72 -84q-8 -8 -16 -3q-30 20 -39 20q-22 0 -26 -31l-11 -78h68q4 0 7.5 -3t2.5 -7l-16 -117q-1 -10 -10 -10h-71l-36 -258q-11 -73 -62 -117q-104 -90 -262 -18q-4 1 -5.5 6t1.5 9l60 102q4 8 12 3q49 -24 83.5 -5t42.5 75l28 203h-73q-11 0 -10 10l18 117
q0 10 10 10h74l12 83q9 69 51 115q42 48 99 48q77 0 141 -51q9 -8 -1 -19z" />
    <glyph glyph-name="uni0218" unicode="&#x218;" horiz-adv-x="595" 
d="M39 74q-7 4 -2 13l66 118q7 10 16 2q24 -20 78 -43q54 -21 109 -21q43 0 72 15t29 40q0 54 -121 73q-127 21 -186.5 70.5t-62.5 139.5q-3 98 69 160q73 63 194 62q78 -2 139 -24t83 -43q8 -5 3 -14l-53 -121q-4 -9 -14 -3q-79 52 -164 52q-44 0 -73.5 -16.5t-29.5 -40.5
t25.5 -38t96.5 -29q128 -28 186 -78.5t61 -143.5q3 -92 -71 -154t-196 -60q-84 2 -156 30q-73 30 -98 54zM277 -157q-2 0 -3 1q-37 16 -37 63q0 31 18.5 50t49.5 19q30 1 49 -18.5t20 -50.5q3 -59 -36 -102t-86 -45q-10 0 -11 4l-19 38q-4 7 2 9q36 10 53 32z" />
    <glyph glyph-name="uni0219" unicode="&#x219;" horiz-adv-x="461" 
d="M37 44q-8 6 -3 14l49 100q4 9 15 4q59 -31 106 -37q32 -4 55 2.5t23 17.5q0 4 -2.5 8t-8.5 7.5t-12 6.5t-17 6.5t-19.5 6t-23 6.5t-24.5 7q-139 40 -143 145q-3 76 57 118q61 42 150 41q57 0 104 -19q48 -20 69 -36q8 -6 3 -14l-51 -95q-4 -8 -16 -4l-15 7q-33 18 -72 25
q-32 6 -57 -1t-25 -19q0 -21 78 -38q89 -19 129.5 -52.5t42.5 -97.5q2 -74 -51.5 -118.5t-142.5 -43.5q-64 0 -121 18q-60 20 -77 35zM208 -157l-1 1h-2q-37 16 -37 63q0 31 18.5 50t49.5 19q30 1 49 -18.5t20 -50.5q3 -59 -36 -102t-86 -45q-10 0 -11 4l-19 38q-4 7 2 9
q36 10 53 32z" />
    <glyph glyph-name="uni021A" unicode="&#x21a;" horiz-adv-x="554" 
d="M201 9v538h-172q-9 0 -9 9v128q0 10 10 10h495q9 0 9 -10v-127q0 -10 -9 -10h-171v-538q0 -9 -10 -9h-134q-9 0 -9 9zM245 -157q-2 0 -3 1q-37 16 -37 63q0 31 18.5 50t49.5 19q30 1 49 -18.5t20 -50.5q3 -59 -36 -102t-86 -45q-10 0 -11 4l-19 38q-4 7 2 9q36 10 53 32z
" />
    <glyph glyph-name="uni021B" unicode="&#x21b;" horiz-adv-x="345" 
d="M230 350l-1 -104q0 -57 5 -82q3 -14 9 -18.5t18 -4.5q5 0 20 6l15 6q10 6 14 -4l33 -110q4 -13 -4 -16q-42 -33 -110 -32q-67 0 -106 44t-38 118v197h-55q-10 0 -10 9v118q0 10 10 10h55l1 140q0 10 9 10h125q10 0 10 -10v-140h84q10 0 10 -10v-118q0 -9 -10 -9h-84z
M144 -157l-1 1h-2q-37 16 -37 63q0 31 18.5 50t49.5 19q30 1 49 -18.5t20 -50.5q3 -59 -36 -102t-86 -45q-10 0 -11 4l-19 38q-4 7 2 9q36 10 53 32z" />
    <glyph glyph-name="uni0237" unicode="&#x237;" horiz-adv-x="268" 
d="M87 -42l-1 519q0 10 10 10l127 -1q9 0 9 -10l1 -536q1 -82 -41 -130t-117 -48q-77 0 -120 43q-7 7 -2 14l44 106q7 13 18 3q17 -16 37 -16q34 0 35 46z" />
    <glyph glyph-name="circumflex" unicode="&#x2c6;" horiz-adv-x="365" 
d="M22 548l96 140q4 6 13 7h103q9 0 13 -7l96 -140q6 -8 -4 -8h-107q-8 0 -12 6l-37 64l-38 -64q-5 -6 -12 -6h-107q-10 0 -4 8z" />
    <glyph glyph-name="caron" unicode="&#x2c7;" horiz-adv-x="365" 
d="M26 694h107q7 0 12 -5l38 -65l37 65q5 5 12 5h107q10 0 4 -8l-96 -139q-4 -7 -13 -7h-103q-9 0 -13 7l-96 139q-6 8 4 8z" />
    <glyph glyph-name="uni02C9" unicode="&#x2c9;" horiz-adv-x="325" 
d="M30 696h265q10 0 10 -10v-71q0 -10 -10 -10h-265q-10 0 -10 10v71q0 10 10 10z" />
    <glyph glyph-name="breve" unicode="&#x2d8;" horiz-adv-x="330" 
d="M230 693h71q9 0 9 -9q-2 -65 -42 -104.5t-104 -40.5q-62 1 -101.5 40.5t-42.5 104.5q0 9 9 9h71q8 0 9 -9q3 -24 18 -39t37 -15q23 0 38.5 15t18.5 39q1 9 9 9z" />
    <glyph glyph-name="dotaccent" unicode="&#x2d9;" horiz-adv-x="203" 
d="M99 718q31 0 49 -18t18 -48t-18 -48.5t-49 -18.5q-30 0 -48.5 18.5t-18.5 48.5t18.5 48t48.5 18z" />
    <glyph glyph-name="ring" unicode="&#x2da;" horiz-adv-x="234" 
d="M20 635q0 43 27 70t70 27q45 0 70 -27q27 -25 27 -70q0 -44 -27 -71q-26 -26 -70 -26t-70.5 26.5t-26.5 70.5zM117 605q29 0 29 30q0 19 -18 26.5t-32 -5.5q-14 -14 -6 -32.5t27 -18.5z" />
    <glyph glyph-name="ogonek" unicode="&#x2db;" horiz-adv-x="252" 
d="M229 -176q-13 -17 -41 -28t-56 -11q-52 1 -81.5 29.5t-30.5 71.5q-4 31 33 79q5 6 24 25l24 21l29 24l26 21l45 -56l-67 -69q-27 -31 -6 -51q9 -9 21.5 -8.5t20.5 11.5q5 9 10 1l50 -50q4 -4 -1 -10z" />
    <glyph glyph-name="tilde" unicode="&#x2dc;" horiz-adv-x="368" 
d="M73 575q-6 -13 -13 -4l-36 40q-5 4 -4 10q14 41 43 66.5t59 25.5q23 0 41 -11.5t27.5 -25t23 -25t28.5 -11.5q35 2 53 46q5 10 11 4l38 -41q4 -5 3 -9q-12 -41 -41.5 -67t-60.5 -26q-28 0 -49 18.5t-38 37t-34 18.5q-35 -2 -51 -46z" />
    <glyph glyph-name="hungarumlaut" unicode="&#x2dd;" horiz-adv-x="364" 
d="M268 735l71 -48q9 -7 3 -14l-102 -130q-6 -8 -13 -2l-48 36q-7 7 -3 13l78 140q4 10 14 5zM112 735l75 -48q8 -6 2 -14l-102 -130q-7 -7 -13 -2l-49 35q-8 8 -4 14l78 141q6 8 13 4z" />
    <glyph glyph-name="uni0313" unicode="&#x313;" horiz-adv-x="224" 
d="M54 -157l-1 1h-2q-37 16 -37 63q0 31 18.5 50t49.5 19q30 1 49 -18.5t20 -50.5q3 -59 -36 -102t-86 -45q-10 0 -11 4l-19 38q-4 7 2 9q36 10 53 32z" />
    <glyph glyph-name="uni0394" unicode="&#x394;" horiz-adv-x="658" 
d="M356 676l-264 -666l-1 -1q-3 -9 -13 -9h-53q-14 0 -10 13l274 670q4 10 14 10h52zM303 693h52h-1q11 0 15 -10l273 -668q4 -15 -10 -15h-45q-11 0 -14 10l-270 666v17zM591 0h-519v66h519v-66z" />
    <glyph glyph-name="uni03A9" unicode="&#x3a9;" horiz-adv-x="797" 
d="M688 155l71 1q4 0 8.5 -4.5t4.5 -9.5v-128q0 -4 -4.5 -9t-8.5 -5h-260q-10 0 -9 10v143q48 20 78 73q31 55 31 121q0 92 -56 150q-55 57 -144 57q-90 0 -147 -57q-56 -58 -56 -150q0 -62 34 -117q35 -54 86 -74v-146q-3 -10 -10 -10h-260q-4 0 -8 4t-4 8v132q0 4 4 8t8 4
h61q-64 82 -64 191q0 161 97 258q98 98 259 98q159 0 257 -98q98 -97 99 -258q0 -110 -67 -192z" />
    <glyph glyph-name="uni03BC" unicode="&#x3bc;" horiz-adv-x="567" 
d="M179 -227h-112q-17 0 -17 18v685q0 10 10 10h127q10 0 10 -10v-236q0 -115 86 -115q81 2 87 123v228q0 11 11 11h125q11 0 11 -10v-467q0 -10 -10 -10h-106q-8 0 -11 10l-10 37q-62 -59 -154 -59q-6 0 -30 2v-199q0 -18 -17 -18z" />
    <glyph glyph-name="pi" unicode="&#x3c0;" horiz-adv-x="532" 
d="M10 360v115q0 12 11 12h490q11 0 11 -12v-115q0 -11 -10 -11h-40v-339q0 -10 -9 -10h-119q-10 0 -10 10v339h-135v-339q0 -10 -10 -10h-119q-9 0 -9 10v339h-40q-11 0 -11 11z" />
    <glyph glyph-name="Wgrave" unicode="&#x1e80;" horiz-adv-x="963" 
d="M204 8l-203 676q-3 10 7 10h135q9 0 12 -9l122 -449l133 449q3 9 12 9h118q6 0 11 -9l136 -454l124 456q0 7 9 7h135q10 0 7 -10l-204 -676q-2 -8 -11 -8h-115q-9 0 -11 8l-140 494l-140 -494q-2 -8 -10 -8h-117q-8 0 -10 8zM530 714l-195 91q-13 6 -4 15l51 86
q5 11 17 3l171 -132q8 -6 3 -14l-28 -46q-5 -9 -15 -3z" />
    <glyph glyph-name="wgrave" unicode="&#x1e81;" horiz-adv-x="689" 
d="M166 0l-4 23l119 455q3 8 11 8h86q18 0 13 -17l-110 -460q-1 -9 -12 -9h-103zM251 12l-5 -12h-106q-11 0 -11 8l-129 470q-2 8 7 8h142q9 0 11 -8zM456 0l-9 11l81 467q0 8 11 8h142q10 0 7 -9l-125 -468q-3 -9 -12 -9h-95zM517 31v-31h-100q-9 0 -11 9l-106 447
q0 17 -5 30h19h83q10 0 12 -8zM363 506l-179 118q-11 9 -3 15l63 78q8 11 18 0l151 -155q6 -6 1 -12l-35 -43q-5 -5 -16 -1z" />
    <glyph glyph-name="Wacute" unicode="&#x1e82;" horiz-adv-x="963" 
d="M204 8l-203 676q-3 10 7 10h135q9 0 12 -9l122 -449l133 449q3 9 12 9h118q6 0 11 -9l136 -454l124 456q0 7 9 7h135q10 0 7 -10l-204 -676q-2 -8 -11 -8h-115q-9 0 -11 8l-140 494l-140 -494q-2 -8 -10 -8h-117q-8 0 -10 8zM534 899l51 -86q3 -3 1.5 -8t-5.5 -7
l-195 -91q-10 -5 -15 3l-28 46q-4 7 3 13l171 132q10 8 17 -2z" />
    <glyph glyph-name="wacute" unicode="&#x1e83;" horiz-adv-x="689" 
d="M551 0h-134q-9 0 -11 8l-63 263l-63 -263q-2 -8 -11 -8h-129q-9 0 -12 8l-128 469q-1 10 7 10h143q8 0 10 -9l52 -265l70 265q2 9 10 9h105q7 0 12 -9l69 -286l50 286q2 9 9 9h144q11 0 7 -10l-125 -469q-3 -8 -12 -8zM409 721l63 -78q2 -3 2 -8t-4 -7l-181 -118
q-8 -6 -15 1l-34 42q-5 5 1 13l151 155q8 8 17 0z" />
    <glyph glyph-name="Wdieresis" unicode="&#x1e84;" horiz-adv-x="963" 
d="M204 8l-203 676q-3 10 7 10h135q9 0 12 -9l122 -449l133 449q3 9 12 9h118q6 0 11 -9l136 -454l124 456q0 7 9 7h135q10 0 7 -10l-204 -676q-2 -8 -11 -8h-115q-9 0 -11 8l-140 494l-140 -494q-2 -8 -10 -8h-117q-8 0 -10 8zM337 798q0 31 18 49.5t49 18.5q30 0 48 -18.5
t18 -49.5q0 -30 -18.5 -48.5t-47.5 -18.5q-31 0 -49 18.5t-18 48.5zM492 798q0 31 18.5 49.5t49.5 18.5q30 0 48 -18.5t18 -49.5q0 -30 -18 -48.5t-48 -18.5q-31 0 -49.5 18.5t-18.5 48.5z" />
    <glyph glyph-name="wdieresis" unicode="&#x1e85;" horiz-adv-x="689" 
d="M551 0h-134q-9 0 -11 8l-63 263l-63 -263q-2 -8 -11 -8h-129q-9 0 -12 8l-128 469q-1 10 7 10h143q8 0 10 -9l52 -265l70 265q2 9 10 9h105q7 0 12 -9l69 -286l50 286q2 9 9 9h144q11 0 7 -10l-125 -469q-3 -8 -12 -8zM198 599q0 31 18 49t49 18q30 0 48 -19
q19 -18 19 -48t-19 -49q-18 -19 -48 -19t-48.5 19t-18.5 49zM353 599q0 31 18.5 49t49.5 18q30 0 48.5 -18.5t18.5 -48.5t-18.5 -49t-48.5 -19q-31 0 -49.5 19t-18.5 49z" />
    <glyph glyph-name="LatinCapitalLetterSharpS" unicode="&#x1e9e;" horiz-adv-x="635" 
d="M350 142q22 -16 48 -16q22 2 32 12t10 22q0 33 -67 89q-67 63 -67 132q0 32 35 79t35 65q0 45 -57 45q-54 0 -76.5 -39t-23.5 -133v-387q0 -11 -13 -11h-128q-13 0 -13 12v464q0 110 68 169q67 58 178 60q96 -2 156 -50q61 -48 61 -130q0 -42 -40 -82t-43 -64
q0 -16 15.5 -30.5t37.5 -29t44 -33.5t37.5 -51t15.5 -73q0 -85 -55 -137t-145 -52q-45 0 -102 27q-9 5 -5 17l49 121q3 11 13 4z" />
    <glyph glyph-name="endash" unicode="&#x2013;" horiz-adv-x="579" 
d="M89 354h399q13 0 13 -12v-100q0 -12 -13 -12h-399q-13 0 -13 12v100q0 12 13 12z" />
    <glyph glyph-name="emdash" unicode="&#x2014;" horiz-adv-x="845" 
d="M89 354h667q13 0 13 -12v-100q0 -12 -13 -12h-667q-13 0 -13 12v100q0 12 13 12z" />
    <glyph glyph-name="quoteleft" unicode="&#x2018;" horiz-adv-x="198" 
d="M137 724l49 -38q7 -4 -2 -12q-58 -48 -75 -105q3 0 4 -1q25 -7 39 -26.5t14 -47.5q0 -35 -21.5 -57t-56.5 -22q-33 0 -54.5 21t-23.5 55q-4 69 32 140t82 96q5 3 13 -3z" />
    <glyph glyph-name="quoteright" unicode="&#x2019;" horiz-adv-x="198" 
d="M61 421l-49 38q-8 5 2 12q58 45 75 104q-1 1 -4 1q-25 7 -39 26.5t-14 47.5q0 36 21.5 57.5t56.5 21.5q34 0 55 -20.5t23 -55.5q4 -69 -32 -140q-34 -71 -81 -96q-7 -2 -14 4z" />
    <glyph glyph-name="quotesinglbase" unicode="&#x201a;" horiz-adv-x="218" 
d="M71 -179l-48 37q-7 6 1 13q58 45 75 104l-1 1h-3q-25 7 -39 26.5t-14 47.5q0 36 21.5 57.5t56.5 21.5q34 0 55.5 -21t22.5 -55q4 -68 -32 -139q-34 -70 -81 -96q-7 -4 -14 3z" />
    <glyph glyph-name="quotedblleft" unicode="&#x201c;" horiz-adv-x="369" 
d="M137 724l49 -38q7 -4 -2 -12q-58 -48 -75 -105q3 0 4 -1q25 -7 39 -26.5t14 -47.5q0 -35 -21.5 -57t-56.5 -22q-33 0 -54.5 21t-23.5 55q-4 69 32 140t82 96q5 3 13 -3zM280 569q3 0 4 -1q24 -7 38.5 -26.5t14.5 -47.5q0 -35 -21.5 -57t-56.5 -22q-33 0 -54.5 21
t-23.5 55q-4 69 32 140t82 96q5 3 13 -3l49 -38q7 -4 -2 -12q-59 -48 -75 -105z" />
    <glyph glyph-name="quotedblright" unicode="&#x201d;" horiz-adv-x="369" 
d="M232 421l-48 37q-8 4 1 13q58 45 75 104l-2 1h-2q-25 7 -39 26.5t-14 47.5q0 36 21.5 57.5t56.5 21.5q34 0 55.5 -21t22.5 -55q4 -69 -32 -140q-35 -71 -81 -96q-7 -3 -14 4zM89 575q-2 0 -3 1q-25 7 -39.5 26.5t-14.5 47.5q0 35 21.5 57t56.5 22q34 0 55.5 -21t22.5 -55
q4 -69 -32 -140q-34 -71 -81 -96q-7 -3 -14 4l-48 37q-7 4 1 13q58 45 75 104z" />
    <glyph glyph-name="quotedblbase" unicode="&#x201e;" horiz-adv-x="389" 
d="M242 -183l-48 38q-8 5 1 12q58 45 75 104q-1 1 -4 1q-53 17 -53 75q0 35 21.5 57t56.5 22q34 0 55.5 -21.5t22.5 -55.5q4 -68 -32 -139q-35 -70 -81 -96q-6 -3 -14 3zM99 -29q-1 1 -3 1q-54 15 -54 75q0 35 21.5 57t56.5 22q34 0 55.5 -21.5t22.5 -55.5q4 -68 -32 -139
q-34 -70 -81 -96q-6 -3 -14 3l-48 38q-8 5 1 12q58 45 75 104z" />
    <glyph glyph-name="dagger" unicode="&#x2020;" horiz-adv-x="424" 
d="M385 403h-101v-503q0 -10 -10 -10h-124q-10 0 -10 10v503h-102q-9 0 -9 9v127q0 9 9 9h102v164q0 10 10 10h124q10 0 10 -10v-164h101q10 0 10 -9v-127q0 -9 -10 -9z" />
    <glyph glyph-name="daggerdbl" unicode="&#x2021;" horiz-adv-x="424" 
d="M140 93h-102q-10 0 -10 9v127q0 9 10 9h102v165h-102q-10 0 -10 9v127q0 9 10 9h102v164q0 10 10 10h124q10 0 10 -10v-164h101q10 0 10 -9v-127q0 -9 -10 -9h-101v-165h101q10 0 10 -9v-127q0 -9 -10 -9h-101v-193q0 -10 -10 -10h-124q-10 0 -10 10v193z" />
    <glyph glyph-name="bullet" unicode="&#x2022;" horiz-adv-x="375" 
d="M353 324q0 -74 -45.5 -119.5t-119.5 -45.5t-119 45.5t-45 119.5t45 119t119 45t119.5 -45.5t45.5 -118.5z" />
    <glyph glyph-name="ellipsis" unicode="&#x2026;" horiz-adv-x="790" 
d="M580 69q0 36 21.5 57.5t56.5 21.5q34 1 57 -22q22 -22 22 -57t-22 -57t-57 -22t-56.5 22t-21.5 57zM132 148q34 1 56 -21.5t22 -57.5t-21.5 -57t-56.5 -22q-36 0 -57.5 22t-21.5 57q0 36 21.5 57.5t57.5 21.5zM397 -10q-36 0 -57.5 22t-21.5 57q0 36 21.5 57.5t57.5 21.5
q34 1 56 -21.5t22 -57.5t-21.5 -57t-56.5 -22z" />
    <glyph glyph-name="perthousand" unicode="&#x2030;" horiz-adv-x="1200" 
d="M194 366q-81 0 -133 50q-50 50 -50 133t50 133.5t133 50.5t133.5 -50.5t50.5 -133.5t-50.5 -133t-133.5 -50zM154 589q-15 -15 -15 -40t15 -40t40 -15t40 15q16 15 16 40t-16 40q-15 16 -40 16t-40 -16zM570 213q-15 -15 -15 -40t15 -40q16 -15 41 -15t40 15t15 40
t-15 40q-15 16 -40 16t-41 -16zM477 40q-50 50 -50 133t50 133q51 51 134 51t133 -51q50 -50 50 -133t-50 -133t-133 -50q-82 0 -134 50zM867 40q-50 50 -50 133t50 133q51 51 134 51t133 -51q50 -50 50 -133t-50 -133t-133 -50q-82 0 -134 50zM960 213q-15 -15 -15 -40
t15 -40q16 -15 41 -15t40 15t15 40t-15 40q-15 16 -40 16t-41 -16zM132 15l395 700q4 7 15 7h120q5 0 8.5 -3.5t1.5 -7.5l-397 -704q-4 -7 -15 -7h-118q-19 0 -10 15z" />
    <glyph glyph-name="guilsinglleft" unicode="&#x2039;" horiz-adv-x="341" 
d="M228 453l62 -61q10 -10 1 -20l-106 -106l106 -106q9 -10 -1 -20l-62 -61q-11 -11 -22 0l-152 156q-8 10 -8 21v20q0 11 8 21l152 156q11 11 22 0z" />
    <glyph glyph-name="guilsinglright" unicode="&#x203a;" horiz-adv-x="341" 
d="M53 392l61 61q12 11 23 0l152 -156q8 -10 8 -21v-20q0 -11 -8 -21l-152 -156q-11 -11 -23 0l-61 61q-11 10 -1 20l106 106l-106 106q-10 10 1 20z" />
    <glyph glyph-name="fraction" unicode="&#x2044;" horiz-adv-x="543" 
d="M2 15l395 700q4 7 15 7h121q6 0 8 -5t-1 -9l-395 -701q-4 -7 -15 -7h-118q-18 0 -10 15z" />
    <glyph glyph-name="franc" unicode="&#x20a3;" horiz-adv-x="500" 
d="M218 125v-113q0 -12 -11 -12h-132q-10 0 -10 10v115h-36q-10 0 -10 10v44q0 10 10 10h36v495q0 10 10 10h404q10 0 10 -10v-128q0 -9 -10 -9h-261v-121h213q10 0 10 -10v-124q0 -10 -10 -10h-213v-93h111q10 0 10 -10v-44q0 -10 -10 -10h-111z" />
    <glyph glyph-name="lira" unicode="&#x20a4;" horiz-adv-x="522" 
d="M275 137h157q12 0 12 -11v-112q0 -14 -13 -14h-338q-5 0 -8.5 5t-1.5 10q48 104 62 182h-76q-13 0 -13 15v35q0 15 13 15h80q-1 19 -9 49h-71q-13 0 -13 15v35q0 15 13 15h42q-33 68 -35 134q2 84 60 138q58 55 144 55q110 0 182 -86q6 -8 -1 -16l-84 -91q-11 -8 -18 3
q-37 46 -80 46q-24 0 -39 -13.5t-15 -35.5q0 -21 6 -40q5 -14 21 -48.5t20 -45.5h95q14 0 14 -15v-35q0 -15 -14 -15h-78q4 -17 4 -49h74q14 0 14 -15v-35q0 -15 -14 -15h-79q-1 -18 -13 -60z" />
    <glyph glyph-name="peseta" unicode="&#x20a7;" horiz-adv-x="1120" 
d="M299 249h-121v-239q0 -10 -10 -10h-133q-10 0 -10 10v673q0 11 11 11h263q102 0 162 -63q59 -62 61 -159q-2 -98 -61 -160q-60 -63 -162 -63zM281 548l-103 -1v-151h103q87 0 87 75q0 39 -24.5 58.5t-62.5 18.5zM545 637h125q10 0 10 -9v-141h84q10 0 10 -10v-118
q0 -9 -10 -9h-84l-1 -104q0 -63 5 -85q6 -20 27 -20q7 0 21 8.5t18 12.5q11 8 13 -3l30 -120q2 -13 -1 -14q-16 -13 -48 -24t-65 -10q-67 0 -106 44t-38 118v197h-55q-10 0 -10 9v118q0 10 10 10h55l1 140q0 10 9 10zM704 44q-9 5 -3 14l50 102q4 7 13 2q54 -29 107 -37
q32 -4 55 2.5t23 17.5q0 3 -1.5 6.5t-5 6.5t-7.5 5t-11 5t-13 5t-15 4.5t-16.5 4.5t-18.5 5.5t-19 5.5q-139 40 -143 145q-3 76 57 118q61 42 150 41q57 0 104 -19q48 -20 69 -36q8 -5 3 -14l-50 -93q-4 -11 -18 -6l-12 6l-18 9t-23.5 9t-32.5 8q-32 6 -57 -1t-25 -19
q0 -21 78 -38q89 -19 129.5 -52.5t42.5 -97.5q2 -74 -51.5 -118.5t-142.5 -43.5q-64 0 -121 18q-60 20 -77 35z" />
    <glyph glyph-name="Euro" unicode="&#x20ac;" horiz-adv-x="622" 
d="M446 214l107 -67q7 -4 2 -14q-31 -68 -82.5 -105t-116.5 -37q-84 0 -144.5 59.5t-83.5 164.5h-75q-13 0 -13 15v35q0 15 13 15h64q-3 31 -3 67v2h-61q-13 0 -13 15v35q0 15 13 15h64q13 132 78 210q64 79 161 79q70 0 124 -42.5t84 -119.5q4 -10 -4 -15l-111 -68
q-11 -6 -14 5q-21 56 -37 76t-43 20q-31 0 -53.5 -39.5t-30.5 -105.5h85q14 0 14 -15v-35q0 -15 -14 -15h-88v-2q0 -35 3 -67h85q14 0 14 -15v-35q0 -15 -14 -15h-72q24 -81 71 -81q43 0 75 77q5 11 16 3z" />
    <glyph glyph-name="uni2113" unicode="&#x2113;" horiz-adv-x="449" 
d="M238 703q76 0 128 -45q54 -43 54 -136q0 -152 -204 -269q0 -84 10.5 -121t41.5 -37q14 0 23 10q11 11 21 34q10 25 12 27q2 6 9 3l103 -47q7 -4 4 -10q-52 -142 -170 -142q-84 0 -128.5 56.5t-57.5 163.5l-19 -7q-10 -3 -13 5l-46 107q-4 11 5 13q29 7 65 21
q-2 28 0 66.5t3.5 80t13 82t27.5 73t46.5 52.5t71.5 20zM251 566q-36 -18 -35 -157q50 41 63 79q11 32 8.5 53.5t-13.5 25t-23 -0.5z" />
    <glyph glyph-name="trademark" unicode="&#x2122;" horiz-adv-x="684" 
d="M322 693l68 -1q10 0 15 -9l69 -131l69 132q5 9 14 9h80q10 0 10 -11v-286q0 -10 -10 -10h-78q-10 0 -10 10v125l-42 -80q-5 -9 -14 -9h-31q-10 0 -15 9l-40 76v-121q0 -10 -10 -10h-80q-10 0 -10 10v281q0 16 15 16zM294 684v-57q0 -10 -10 -10h-74v-219q0 -10 -10 -10
h-80q-10 0 -10 10v219h-73q-10 0 -10 9v57q0 11 10 11h247q10 0 10 -10z" />
    <glyph glyph-name="Omega" unicode="&#x2126;" horiz-adv-x="807" 
d="M51 156h61q-65 85 -65 191q0 160 98 258t259 98q159 0 257 -98t98 -258q0 -109 -66 -192l71 1q4 0 8 -5t4 -9v-128q0 -4 -4 -9t-8 -5h-260q-10 0 -10 10v143q49 19 79 73q31 55 31 121q0 92 -56 150q-56 57 -144 57q-92 0 -147 -57q-56 -58 -56 -150q0 -62 34 -117
q35 -54 85 -74v-146q-1 -10 -9 -10h-260q-4 0 -8.5 4t-4.5 8v132q0 4 4.5 8t8.5 4z" />
    <glyph glyph-name="estimated" unicode="&#x212e;" horiz-adv-x="891" 
d="M445 34q207 0 294 132q5 6 11 6h46q11 0 7 -10q-49 -88 -145 -138q-94 -48 -213 -48q-175 0 -288 100q-114 100 -114 271t114 271q115 100 288 100q175 0 288 -100q115 -100 115 -271v-12q2 -15 -14 -15h-639v-204q91 -82 250 -82zM195 578v-202h500v202q-91 82 -250 82
t-250 -82z" />
    <glyph glyph-name="partialdiff" unicode="&#x2202;" horiz-adv-x="539" 
d="M271 702q211 0 211 -296q0 -119 -26 -217q-47 -194 -221 -198q-87 0 -140 59q-52 58 -52 148q0 88 56 150q57 61 145 60q70 0 108 -41v39q0 55 -6 85q-9 76 -80 82q-33 0 -67 -25q-9 -7 -15 2l-60 93q-4 7 3 15q59 44 144 44zM323 184q2 44 -17.5 70t-61.5 26
q-33 0 -53 -22.5t-20 -59.5q0 -36 17 -56.5t47 -20.5q59 0 88 63z" />
    <glyph glyph-name="increment" unicode="&#x2206;" horiz-adv-x="658" 
d="M411 683l237 -669q5 -14 -10 -14h-620q-13 0 -9 13l235 671q3 9 15 9h136q12 0 16 -10zM218 142h235l-122 347z" />
    <glyph glyph-name="product" unicode="&#x220f;" horiz-adv-x="621" 
d="M417 -122v630h-223v-630q0 -11 -10 -11h-128q-10 0 -10 11v768q0 10 10 10h499q10 0 10 -10v-768q0 -11 -10 -11h-128q-10 0 -10 11z" />
    <glyph glyph-name="summation" unicode="&#x2211;" horiz-adv-x="604" 
d="M36 -119l227 380l-228 381q-8 14 8 14h511q11 0 11 -12v-125q0 -11 -11 -11h-237l150 -239q6 -8 0 -16l-149 -236h236q11 0 11 -12v-126q0 -7 -3 -10.5t-9 -2.5h-510q-15 0 -7 15z" />
    <glyph glyph-name="minus" unicode="&#x2212;" horiz-adv-x="579" 
d="M69 354h442q13 0 13 -12v-100q0 -12 -13 -12h-442q-13 0 -13 12v100q0 12 13 12z" />
    <glyph glyph-name="uni2215" unicode="&#x2215;" horiz-adv-x="543" 
d="M2 15l395 700q4 7 15 7h122q13 0 7 -13l-396 -702q-4 -7 -15 -7h-118q-18 0 -10 15z" />
    <glyph glyph-name="uni2219" unicode="&#x2219;" horiz-adv-x="263" 
d="M133 350q42 0 68.5 -26.5t26.5 -69.5t-26.5 -69.5t-68.5 -26.5q-43 0 -69 26.5t-26 69.5t26 69.5t69 26.5z" />
    <glyph glyph-name="radical" unicode="&#x221a;" horiz-adv-x="564" 
d="M197 10l-73 298h-94q-14 0 -14 15v105q0 6 4.5 10.5t9.5 4.5h193q11 0 12 -9l51 -209l144 487q3 10 14 10h117q10 0 7 -10l-207 -702q-3 -10 -14 -10h-137q-12 0 -13 10z" />
    <glyph glyph-name="infinity" unicode="&#x221e;" horiz-adv-x="920" 
d="M460 343q68 93 186 93q100 0 161 -61t61 -161t-61 -161t-161 -61q-112 0 -186 93q-74 -93 -186 -93q-100 0 -161 61t-61 161t61 161t161 61q118 0 186 -93zM274 302q-40 0 -64 -24t-24 -64t24 -64t64 -24q80 0 114 87q-41 89 -114 89zM532 213q34 -87 114 -87q40 0 64 24
t24 64t-24 64t-64 24q-73 0 -114 -89z" />
    <glyph glyph-name="integral" unicode="&#x222b;" horiz-adv-x="398" 
d="M421 671l-61 -97q-4 -6 -11 -2q-2 1 -9 6.5t-10.5 8t-10 5.5t-12.5 3q-31 0 -30 -54l1 -286l3 -318q2 -84 -43.5 -129t-133.5 -46q-31 0 -65 12t-52 26q-5 6 -1 13l62 95q5 9 12 2q17 -11 35 -11q21 0 28 12.5t8 41.5l-1 286l-3 330q-1 78 42 120t117 43q72 0 134 -50
q5 -4 1 -11z" />
    <glyph glyph-name="approxequal" unicode="&#x2248;" horiz-adv-x="596" 
d="M429 469q2 7 8 8t10 -4l68 -71q8 -8 5 -18q-20 -57 -59.5 -93t-89.5 -36q-32 0 -64 14t-51 33q-47 47 -71 47q-16 0 -27 -18l-10 -17q-3 -5 -11 -22.5t-9 -20.5q-4 -13 -16 -2l-69 72q-7 7 -4 20q19 55 58.5 88t90.5 33q68 0 113 -47q46 -46 73 -46q10 0 18 8t12.5 17
t12 27t12.5 28zM429 229q2 7 8 8t10 -4l68 -71q8 -8 5 -18q-20 -57 -59.5 -93t-89.5 -36q-32 0 -64 14t-51 33q-47 47 -71 47q-16 0 -27 -18l-10 -17q-3 -5 -11 -22.5t-9 -20.5q-4 -13 -16 -2l-69 72q-7 7 -4 20q19 55 58.5 88t90.5 33q68 0 113 -47q46 -46 73 -46
q10 0 18 8t12.5 17t12 27t12.5 28z" />
    <glyph glyph-name="notequal" unicode="&#x2260;" horiz-adv-x="524" 
d="M392 443h62q14 0 14 -14v-92q0 -14 -14 -14h-114l-30 -70h144q14 0 14 -14v-92q0 -14 -14 -14h-196l-27 -62q-3 -8 -11 -8h-106q-13 0 -8 12l25 58h-62q-13 0 -13 14v92q0 14 13 14h114l30 70h-144q-13 0 -13 14v92q0 14 13 14h196l28 64q3 8 11 8h106q12 0 8 -12z" />
    <glyph glyph-name="lessequal" unicode="&#x2264;" horiz-adv-x="541" 
d="M488 157l-441 144q-9 3 -9 18v139q0 14 9 17l441 134q13 3 13 -10v-129q0 -14 -10 -17l-252 -67l252 -73q10 -3 10 -17v-129q0 -13 -13 -10zM493 -1h-445q-10 0 -10 10v110q0 10 10 10h445q10 0 10 -10v-110q0 -10 -10 -10z" />
    <glyph glyph-name="greaterequal" unicode="&#x2265;" horiz-adv-x="541" 
d="M494 301l-441 -144q-6 -2 -9.5 1t-2.5 9v129q0 14 9 17l252 73l-252 67q-9 3 -9 17v129q-1 6 2.5 9t9.5 1l441 -134q9 -3 9 -17v-139q0 -15 -9 -18zM493 -1h-445q-10 0 -10 10v110q0 10 10 10h445q10 0 10 -10v-110q0 -10 -10 -10z" />
    <glyph glyph-name="uni24C5" unicode="&#x24c5;" horiz-adv-x="826" 
d="M50 346q0 162 97 259q98 98 259 98q160 0 258 -98t98 -259q0 -160 -98 -258t-258 -98t-258 98t-98 258zM680 346q0 124 -75 198q-75 75 -199 75q-122 0 -197 -75t-75 -198q0 -121 75 -196t197 -75q123 0 199 74q75 75 75 197zM274 175v350q0 13 14 13h108h62
q56 0 89 -32.5t33 -86.5t-33.5 -89.5t-88.5 -35.5h-62v-121q0 -14 -16 -14h-90q-16 0 -16 16zM446 434h-50v-45h50q22 0 22 23q0 22 -22 22z" />
    <glyph glyph-name="lozenge" unicode="&#x25ca;" horiz-adv-x="525" 
d="M144 -32l-130 348q-5 11 0 19l129 349q5 9 16 9h44h110h43q13 0 16 -9l130 -349q3 -10 0 -19l-130 -348q-4 -10 -15 -10h-44h-111h-44q-10 0 -14 10zM258 575l-87 -249l88 -249l87 249z" />
    <glyph glyph-name="ijacute" unicode="&#xe132;" horiz-adv-x="473" 
d="M286 487l127 -1q10 0 10 -10l1 -536q0 -82 -42 -130t-117 -48q-77 0 -120 43q-7 7 -2 14l44 106q5 12 18 3q17 -16 37 -16q34 0 35 46l-1 519q0 10 10 10zM61 487h126q9 0 9 -9l1 -468q0 -10 -11 -10h-126q-10 0 -10 10v466q0 11 11 11zM27 558l151 154q9 9 17 0l63 -78
q8 -8 -2 -15l-180 -118q-11 -6 -15 1l-35 42q-4 7 1 14zM422 712l63 -78q8 -8 -2 -15l-181 -118q-9 -5 -15 1l-35 42q-5 8 2 14l151 154q9 9 17 0z" />
    <glyph glyph-name="IJacute" unicode="&#xe133;" horiz-adv-x="632" 
d="M218 684v-675q0 -9 -9 -9h-134q-10 0 -10 9v675q0 10 9 10h134q10 0 10 -10zM448 242l-1 442q0 10 10 10h133q10 0 10 -10l1 -475q1 -104 -44 -161t-127 -58q-119 2 -183 58q-7 4 -2 14l62 111q6 11 17 5l14 -8q41 -23 73 -26q16 0 24 11q12 16 13 87zM594 896l52 -86
q7 -10 -5 -15l-194 -91q-11 -4 -15 3l-29 46q-4 7 3 13l171 132q11 8 17 -2zM218 896l51 -86q9 -9 -4 -15l-195 -91q-10 -6 -15 3l-28 46q-4 7 3 13l171 132q10 7 17 -2z" />
    <glyph glyph-name="_1" horiz-adv-x="0" 
 />
    <glyph glyph-name="CR" horiz-adv-x="333" 
 />
    <glyph glyph-name="grave.case" horiz-adv-x="286" 
d="M22 801l51 86q7 10 17 2l171 -132q7 -6 3 -13l-28 -46q-4 -8 -15 -3l-195 91q-4 2 -5.5 7t1.5 8z" />
    <glyph glyph-name="dieresis.case" horiz-adv-x="354" 
d="M30 789q0 31 18.5 49.5t49.5 18.5q30 0 48.5 -19t18.5 -49t-19 -49t-48 -19q-31 0 -49.5 19t-18.5 49zM186 789q0 31 18.5 49.5t49.5 18.5q30 0 48.5 -19t18.5 -49t-19 -49t-48 -19q-31 0 -49.5 19t-18.5 49z" />
    <glyph glyph-name="macron.case" horiz-adv-x="325" 
d="M30 823h265q10 0 10 -10v-76q0 -10 -10 -10h-265q-10 0 -10 10v76q0 10 10 10z" />
    <glyph glyph-name="acute.case" horiz-adv-x="286" 
d="M208 889l51 -86q9 -9 -4 -15l-194 -91q-10 -4 -16 3l-28 46q-4 7 3 13l171 132q10 7 17 -2z" />
    <glyph glyph-name="circumflex.case" horiz-adv-x="402" 
d="M246 739l-45 41l-46 -41q-6 -6 -12 -6h-116q-5 0 -6.5 2.5t2.5 5.5l115 112q8 6 15 6h95q9 0 15 -6l116 -112q4 -3 2.5 -5.5t-6.5 -2.5h-116q-7 0 -13 6z" />
    <glyph glyph-name="caron.case" horiz-adv-x="402" 
d="M155 854l46 -42l45 42q5 5 13 5h116q12 0 4 -8l-116 -111q-6 -7 -15 -7h-95q-8 0 -15 7l-115 111q-8 8 4 8h116q4 0 12 -5z" />
    <glyph glyph-name="breve.case" horiz-adv-x="330" 
d="M230 859h71q9 0 9 -9q-2 -63 -41 -97t-105 -34q-65 0 -103 34t-41 97q0 9 9 9h71q9 0 9 -9q2 -18 18 -31.5t37 -13.5t38 13.5t19 31.5q0 9 9 9z" />
    <glyph glyph-name="dotaccent.case" horiz-adv-x="203" 
d="M99 860q31 0 49 -18t18 -48t-18 -48.5t-49 -18.5q-30 0 -48.5 18.5t-18.5 48.5t18.5 48t48.5 18z" />
    <glyph glyph-name="ring.case" horiz-adv-x="233" 
d="M116 903q44 0 71 -26.5t27 -70.5t-27 -70.5t-71 -26.5t-70 26.5t-26 70.5t26.5 70.5t69.5 26.5zM154 806q3 23 -17 32.5t-40 0t-18 -32.5q-2 -23 18 -33t40 0t17 33z" />
    <glyph glyph-name="tilde.case" horiz-adv-x="368" 
d="M73 732q-6 -13 -13 -4l-36 40q-5 4 -4 10q14 41 43 66.5t59 25.5q29 0 49 -18t36 -36.5t35 -18.5q35 2 53 46q5 10 11 4l38 -41q4 -4 3 -9q-12 -41 -41.5 -67t-60.5 -26q-28 0 -49 18.5t-38 37t-34 18.5q-35 -2 -51 -46z" />
    <glyph glyph-name="hungarumlaut.case" horiz-adv-x="364" 
d="M268 888l71 -48q9 -7 3 -14l-102 -130q-7 -7 -13 -2l-48 36q-7 6 -3 13l78 140q4 10 14 5zM112 888l75 -48q8 -6 2 -14l-102 -130q-7 -7 -13 -2l-49 35q-8 8 -4 14l78 141q6 8 13 4z" />
    <glyph glyph-name="zero.onum" horiz-adv-x="591" 
d="M296 496q121 0 192 -70q73 -69 73 -183t-73 -184q-72 -69 -192 -69t-193 69q-73 70 -73 184t73 183q73 70 193 70zM296 145q48 0 77.5 27t29.5 71q0 45 -29.5 71.5t-77.5 26.5q-49 0 -79 -27t-30 -71t30 -71t79 -27z" />
    <glyph glyph-name="one.onum" horiz-adv-x="463" 
d="M38 399l125 88h146q11 0 11 -11v-357h102q11 0 11 -11v-97q0 -11 -11 -11h-381q-11 0 -11 11v97q0 11 11 11h122v229l-117 -84q-14 -9 -14 8v116q0 6 6 11z" />
    <glyph glyph-name="two.onum" horiz-adv-x="509" 
d="M468 0h-429q-10 0 -13 9t5 15q8 7 20.5 17.5t33 28t35.5 30.5l108 96l47 42q2 2 10.5 10t16 15t9.5 10q14 14 14 37q-1 36 -61 36t-105 -58q-7 -8 -15 0l-86 99q-7 9 -1 17q36 43 92.5 68.5t123.5 25.5q90 0 145 -41.5t59 -108.5q7 -104 -75 -174q0 -1 -61 -55h127
q11 0 11 -11v-96q0 -12 -11 -12z" />
    <glyph glyph-name="three.onum" horiz-adv-x="510" 
d="M208 120q-11 0 -11 11v134l67 68h-195q-11 0 -11 11v132q0 11 11 11h365q11 0 11 -11l-1 -144l-95 -98q62 -28 96.5 -77t34.5 -110q0 -95 -61 -153t-161 -58q-96 0 -160 62t-68 161q0 12 11 12h135q11 0 11 -12q2 -31 21.5 -49.5t49.5 -18.5q29 0 47 15.5t18 40.5
q0 37 -26 55t-89 18z" />
    <glyph glyph-name="four.onum" horiz-adv-x="603" 
d="M339 487h169q11 0 11 -11v-357h43q11 0 11 -11v-96q0 -11 -11 -11h-43v-143q0 -11 -11 -11h-133q-11 0 -11 11v143h-348q-7 0 -10 5.5t1 11.5l315 460q4 9 17 9zM364 119v185l-127 -185h127z" />
    <glyph glyph-name="five.onum" horiz-adv-x="540" 
d="M286 296q100 0 162 -65t62 -164q0 -104 -67 -167q-65 -64 -175 -64q-101 0 -168 62q-65 62 -70 163q0 11 11 11h135q11 0 11 -11q2 -31 24.5 -50.5t56.5 -19.5q37 0 61 23t24 58q0 38 -21.5 60.5t-57.5 22.5q-42 0 -85 -25h-120q-11 0 -11 11l19 336q2 11 13 11h348
q11 0 11 -11v-128q0 -11 -11 -11h-237l-3 -57q44 15 88 15z" />
    <glyph glyph-name="six.onum" horiz-adv-x="511" 
d="M261 643h133q18 0 9 -14l-119 -201h4q88 -10 140 -70q53 -61 53 -148q0 -95 -63 -158q-62 -63 -162 -63q-102 0 -164 61q-62 62 -62 161q0 71 39 131l175 291q4 10 17 10zM325 212q0 31 -19 49.5t-50 18.5t-50 -18.5t-19 -49.5q0 -30 19 -48.5t50 -18.5t50 18.5t19 48.5z
" />
    <glyph glyph-name="seven.onum" horiz-adv-x="498" 
d="M279 337h-248q-11 0 -11 11v128q0 11 11 11h447q8 0 12 -5.5t1 -12.5l-234 -611q-3 -11 -15 -11h-137q-5 0 -8 4t-1 9z" />
    <glyph glyph-name="eight.onum" horiz-adv-x="537" 
d="M30 207q0 95 75 153q-31 43 -31 103q0 84 56 137q57 54 138 54q82 0 137 -54q57 -52 57 -137q0 -62 -31 -103q76 -60 76 -153q0 -91 -67 -154q-68 -63 -172 -63t-172 63q-66 63 -66 154zM187 216q0 -30 23 -50.5t59 -20.5q35 0 57.5 20.5t22.5 50.5q0 35 -21.5 53
t-59.5 18q-36 0 -58.5 -18.5t-22.5 -52.5zM269 510q-31 3 -44 -22.5t0 -51.5t44 -23q30 -3 42 23t0 51.5t-42 22.5z" />
    <glyph glyph-name="nine.onum" horiz-adv-x="511" 
d="M250 -154h-133q-18 0 -9 14l119 201h-4q-89 11 -141 70t-52 148q0 94 62 158q63 63 163 63q102 0 163 -61q63 -61 63 -161q0 -71 -39 -131l-175 -291q-4 -10 -17 -10zM186 277q0 -31 19 -49.5t50 -18.5t50 18.5t19 49.5q0 30 -19 48.5t-50 18.5t-50 -18.5t-19 -48.5z" />
    <glyph glyph-name="zero.numr" horiz-adv-x="381" 
d="M15 474q0 103 48 166q50 63 128 63q79 0 127 -63t48 -166q0 -104 -48 -167t-127 -63t-128 63q-48 63 -48 167zM149 554q-16 -29 -16 -80q0 -50 16 -81t42 -31t41 31q16 31 16 81q0 51 -16 80q-15 31 -41 31t-42 -31z" />
    <glyph glyph-name="one.numr" horiz-adv-x="216" 
d="M59 267v309h-37q-12 0 -14 12v94q0 12 12 12h156q12 0 12 -12v-415q0 -14 -14 -14h-101q-16 0 -14 14z" />
    <glyph glyph-name="two.numr" horiz-adv-x="348" 
d="M301 254h-264q-9 1 -13 8.5t1 15.5l147 227q2 3 7.5 13t8 15.5t5.5 14t3 16.5q-1 22 -27 22q-29 0 -52 -27q-5 -6 -12 1l-61 71q-6 5 -1 10q54 63 144 63q60 0 94 -35t34 -93q0 -32 -13 -71q-5 -20 -14 -35l-13 -26l-47 -74h73q9 0 9 -9v-96q0 -11 -9 -11z" />
    <glyph glyph-name="three.numr" horiz-adv-x="345" 
d="M125 451v68q0 10 10 10h24q35 2 35 36q0 14 -9 22.5t-22 8.5q-27 0 -56 -24q-7 -4 -11 0l-52 62q-5 8 0 13q47 56 135 56q62 0 100.5 -33.5t38.5 -85.5q0 -60 -40 -101q54 -31 54 -104q0 -61 -44 -98t-115 -37q-67 0 -110.5 39.5t-47.5 104.5q0 10 10 10h98q8 0 8 -8
q1 -28 40 -28q16 0 26 10.5t10 27.5q0 38 -40 41h-32q-11 0 -10 10z" />
    <glyph glyph-name="four.numr" horiz-adv-x="385" 
d="M143 421h69v141zM385 411v-74q0 -10 -10 -10h-35v-60q0 -14 -12 -14h-105q-13 0 -11 12v62h-198q-21 0 -13 18l171 339q4 9 15 9h142q9 -1 11 -10v-262h34q11 -2 11 -10z" />
    <glyph glyph-name="five.numr" horiz-adv-x="364" 
d="M144 393q16 -31 43 -31q20 0 31 13t11 35q0 20 -14 31t-33 11q-3 0 -29 -8h-103q-6 0 -6 6l16 237q0 7 7 7h235q6 0 6 -7v-103q0 -7 -6 -7h-140l-3 -40q13 3 27 3q72 0 115.5 -37t44.5 -99q1 -72 -43.5 -116t-116.5 -44q-70 0 -114 41.5t-47 109.5q0 7 6 7h105q4 0 8 -9z
" />
    <glyph glyph-name="six.numr" horiz-adv-x="361" 
d="M149 694l110 -1q10 0 5 -8l-62 -133h3q63 -8 99.5 -49t36.5 -104q0 -70 -44 -112.5t-116 -42.5q-73 0 -117 42.5t-44 112.5q0 36 13 66l106 223q5 6 10 6zM181 357q26 -3 37 19t0 44.5t-37 19.5q-26 3 -37.5 -19.5t-0.5 -44.5t38 -19z" />
    <glyph glyph-name="seven.numr" horiz-adv-x="312" 
d="M154 576h-143q-6 0 -6 7v104q0 7 6 7h298q12 0 7 -11l-160 -424q-3 -5 -7 -5h-111q-6 0 -5 7z" />
    <glyph glyph-name="eight.numr" horiz-adv-x="378" 
d="M166 586q-9 -8 -9 -23t9 -24t23 -9t23 9t9 24t-9 23q-9 9 -23 9t-23 -9zM143 400q0 -16 13 -27t34 -11q28 -1 39.5 18.5t-0.5 39t-40 18.5q-20 -1 -33 -12t-13 -26zM25 394q0 54 44 93q-30 33 -30 77q0 62 41.5 100.5t108.5 38.5t108.5 -38.5t41.5 -100.5q0 -46 -30 -77
q44 -39 44 -93q0 -67 -45.5 -108.5t-118.5 -41.5t-118.5 41.5t-45.5 108.5z" />
    <glyph glyph-name="nine.numr" horiz-adv-x="361" 
d="M157 395l-2 1q-63 7 -100 48t-37 104q0 70 44 113t116 43q73 0 117 -43t44 -113q0 -36 -13 -66l-106 -222q-3 -6 -10 -6h-110q-10 0 -5 9zM178 508q20 0 31.5 11.5t11.5 30.5q0 27 -27 38t-47 -8q-18 -17 -7.5 -46.5t38.5 -25.5z" />
    <glyph glyph-name="zero.dnom" horiz-adv-x="381" 
d="M15 220q0 103 48 166q49 63 128 63t127 -63t48 -166q0 -104 -48 -167t-127 -63t-128 63q-48 63 -48 167zM149 300q-16 -29 -16 -80q0 -50 16 -81t42 -31t41 31q16 31 16 81q0 51 -16 80q-15 31 -41 31t-42 -31z" />
    <glyph glyph-name="one.dnom" horiz-adv-x="216" 
d="M20 440h156q12 0 12 -12v-415q0 -14 -14 -14h-101q-16 0 -14 14v309h-37q-12 0 -14 12v94q0 12 12 12z" />
    <glyph glyph-name="two.dnom" horiz-adv-x="348" 
d="M144 0h-107q-23 2 -12 24l54 87q6 9 30 46t35 53l28 41q26 47 24 59q-1 22 -27 22q-29 0 -52 -27q-5 -6 -12 1l-61 71q-6 5 -1 10q54 63 144 63q60 0 94 -35t34 -93q0 -32 -13 -71q-5 -20 -14 -35l-13 -26q-39 -67 -43 -74h69q9 0 9 -9v-96q0 -11 -9 -11h-146h-11z" />
    <glyph glyph-name="three.dnom" horiz-adv-x="345" 
d="M122 197v68q0 10 10 10h24q35 2 35 36q0 14 -9 22.5t-22 8.5q-28 0 -56 -24q-7 -4 -11 0l-52 62q-5 8 0 13q47 56 135 56q62 0 100.5 -33.5t38.5 -85.5q0 -60 -40 -101q54 -31 54 -104q0 -61 -44 -98t-115 -37q-67 0 -110.5 39.5t-47.5 104.5q0 10 10 10h98q8 0 8 -8
q1 -28 40 -28q16 0 26 10.5t10 27.5q0 38 -40 41h-32q-11 0 -10 10z" />
    <glyph glyph-name="four.dnom" horiz-adv-x="385" 
d="M143 168h69v141zM385 158v-74q0 -10 -10 -10h-35v-60q0 -14 -12 -14h-105q-13 0 -11 12v62h-198q-21 0 -13 18l171 339q4 9 15 9h142q9 -1 11 -10v-262h34q11 -2 11 -10z" />
    <glyph glyph-name="five.dnom" horiz-adv-x="364" 
d="M134 139q16 -31 43 -31q20 0 31 13t11 35q0 20 -14 31t-33 11q-3 0 -29 -8h-103q-6 0 -6 6l16 237q0 7 7 7h235q6 0 6 -7v-103q0 -7 -6 -7h-140l-3 -40q13 3 27 3q72 0 115.5 -37t44.5 -99q1 -72 -43.5 -116t-116.5 -44q-70 0 -114 41.5t-47 109.5q0 7 6 7h105q4 0 8 -9z
" />
    <glyph glyph-name="six.dnom" horiz-adv-x="361" 
d="M148 440l110 -1q10 0 5 -8l-62 -133h3q63 -8 99.5 -49t36.5 -104q0 -70 -44 -112.5t-116 -42.5q-73 0 -117 42.5t-44 112.5q0 36 13 66l106 223q4 6 10 6zM180 103q26 -3 37 19t0 44.5t-37 19.5q-26 3 -37.5 -19.5t-0.5 -44.5t38 -19z" />
    <glyph glyph-name="seven.dnom" horiz-adv-x="312" 
d="M154 323h-143q-6 0 -6 7v104q0 7 6 7h298q12 0 7 -11l-160 -424q-3 -5 -7 -5h-111q-6 0 -5 7z" />
    <glyph glyph-name="eight.dnom" horiz-adv-x="378" 
d="M166 331q-9 -8 -9 -23t9 -24t23 -9t23 9t9 24t-9 23q-9 9 -23 9t-23 -9zM143 145q0 -16 13 -27t34 -11q28 -1 39.5 18.5t-0.5 39t-40 18.5q-20 -1 -33 -12t-13 -26zM25 139q0 54 44 93q-30 33 -30 77q0 62 41.5 100.5t108.5 38.5t108.5 -38.5t41.5 -100.5q0 -45 -30 -77
q44 -39 44 -93q0 -67 -45.5 -108.5t-118.5 -41.5t-118.5 41.5t-45.5 108.5z" />
    <glyph glyph-name="nine.dnom" horiz-adv-x="361" 
d="M158 141l-2 1q-63 7 -100 48t-37 104q0 70 44 113t116 43q73 0 117 -43t44 -113q0 -36 -13 -66l-106 -222q-3 -6 -10 -6h-110q-9 0 -5 9zM179 254q20 0 31.5 11.5t11.5 30.5q0 27 -27 38t-47 -8q-18 -17 -7.5 -46.5t38.5 -25.5z" />
    <glyph glyph-name="zero.tnum" 
d="M111 89q-72 97 -72 258t72 258q72 98 190 98t189 -98q72 -97 72 -258q0 -162 -72 -259q-70 -97 -189 -97q-118 0 -190 98zM301 144q49 0 78.5 55.5t29.5 147.5t-29.5 147.5t-78.5 55.5t-79 -55.5t-30 -147.5q0 -93 29.5 -148t79.5 -55z" />
    <glyph glyph-name="one.tnum" 
d="M124 560v123q0 11 10 11h235q10 0 10 -11v-557h110q11 0 11 -11v-103q0 -12 -12 -12h-377q-11 0 -11 11v104q0 11 12 11h114v424h-92q-10 0 -10 10z" />
    <glyph glyph-name="two.tnum" 
d="M500 384l-13 -20l-155 -220h184q10 0 12 -12v-122q0 -10 -11 -10h-285h-43h-114q-6 0 -8 6.5t2 11.5q25 32 92 125l125 175l56 80q45 60 47 101q-1 25 -19 43t-51 18q-45 0 -100 -69q-7 -4 -8.5 -4t-10.5 8l-78 83q-7 7 5 21q81 104 211 104q84 0 141 -51q58 -51 58 -146
q0 -57 -37 -122z" />
    <glyph glyph-name="three.tnum" 
d="M261 424l41 1q25 0 44.5 20t19.5 47q0 26 -19.5 42t-51.5 16q-44 0 -98 -63q-8 -8 -15 1l-84 99q-8 8 -1 15q86 101 210 101q85 0 149 -53q63 -52 63 -134q0 -89 -65 -152q87 -57 87 -154q0 -98 -70 -162t-171 -64q-102 0 -169 61q-66 61 -71 161q0 10 10 10h130
q11 0 11 -8q1 -32 26.5 -51.5t64.5 -19.5t62.5 22.5t23.5 59.5q0 35 -21 58.5t-54 26.5h-52q-10 0 -10 10v100q0 10 10 10z" />
    <glyph glyph-name="four.tnum" 
d="M513 279h58q10 0 10 -10v-110q0 -10 -10 -10h-58v-139q0 -10 -10 -10h-133q-10 0 -10 10v139h-193h-37h-100q-14 0 -8 13l316 523q4 9 15 9h150q10 0 10 -11v-404zM360 279v190l-115 -190h115z" />
    <glyph glyph-name="five.tnum" 
d="M474 550h-211l-10 -117q28 11 61 11q102 0 162 -59t60 -160q0 -108 -65 -175q-65 -66 -171 -66q-102 0 -166 58t-69 154q0 10 10 10h130q11 0 11 -10q1 -29 24.5 -46.5t59.5 -17.5q38 0 61.5 25.5t23.5 67.5t-23 66.5t-64 24.5q-36 0 -57 -21h-143q-11 0 -10 10l33 378
q2 11 11 11h342q10 0 10 -11v-123q0 -10 -10 -10z" />
    <glyph glyph-name="six.tnum" 
d="M535 225q0 -108 -64 -172q-63 -64 -170 -64t-171 64t-64 171q0 50 16 92q23 61 49 117q28 61 65 136q14 29 33.5 70t21.5 45q4 10 15 10h132q17 0 9 -14l-105 -226h9q101 -3 162 -66q62 -62 62 -163zM300 305q-36 0 -58.5 -22.5t-22.5 -59.5t22.5 -59t58.5 -22
q37 0 59.5 22t22.5 59t-22.5 59.5t-59.5 22.5z" />
    <glyph glyph-name="seven.tnum" 
d="M82 694h432q18 0 11 -18l-253 -666q-3 -10 -13 -10h-139q-10 0 -7 10l208 540h-239q-10 0 -10 10v123q0 11 10 11z" />
    <glyph glyph-name="eight.tnum" 
d="M512 501q0 -82 -65 -135q86 -57 86 -157q0 -99 -64 -159q-65 -60 -169 -60t-168 60t-64 159q0 102 85 157q-64 52 -64 135q0 91 58 146q59 56 153 56t153 -56t59 -146zM386 218q0 34 -24 57t-61 23t-61.5 -23t-24.5 -57q0 -33 25 -56.5t61 -23.5t60.5 23.5t24.5 56.5z
M301 435q31 0 49.5 18.5t18.5 49.5q0 33 -19 49q-18 18 -49 18t-50 -18t-19 -49t18.5 -49.5t50.5 -18.5z" />
    <glyph glyph-name="nine.tnum" 
d="M496 325l-147 -315q-3 -10 -14 -10h-132q-17 0 -9 14l104 225h-4q-102 1 -166 65q-62 64 -62 165q0 107 63 172q64 64 170 64t171 -65t65 -170q0 -28 -6 -53q-6 -32 -33 -92zM241 410q22 -22 59 -22t59 22q23 23 23 60q0 36 -23 59q-22 22 -59 22t-59 -22t-22 -59
q0 -38 22 -60z" />
    <glyph glyph-name="zero.pnum" horiz-adv-x="597" 
d="M109 89q-72 97 -72 258t72 258q72 98 190 98t189 -98q72 -97 72 -258q0 -162 -72 -259q-70 -97 -189 -97q-118 0 -190 98zM299 144q49 0 78.5 55.5t29.5 147.5t-29.5 147.5t-78.5 55.5t-79 -55.5t-30 -147.5q0 -93 29.5 -148t79.5 -55z" />
    <glyph glyph-name="one.pnum" horiz-adv-x="350" 
d="M48 560v123q0 11 10 11h234q10 0 10 -11v-673q0 -10 -10 -10h-133q-10 0 -10 10v540h-91q-10 0 -10 10z" />
    <glyph glyph-name="two.pnum" horiz-adv-x="554" 
d="M468 384l-12 -20l-155 -220h184q11 0 12 -12v-122q0 -10 -11 -10h-285h-43h-114q-6 0 -8 6.5t2 11.5q25 32 92 125l124 175l57 80q45 60 47 101q-1 25 -19 43t-51 18q-45 0 -100 -69q-6 -5 -9 -4t-10 8l-78 83q-7 7 5 21q81 104 211 104q84 0 141 -51q58 -51 58 -146
q0 -59 -38 -122z" />
    <glyph glyph-name="three.pnum" horiz-adv-x="545" 
d="M228 424l41 1q25 0 44.5 20t19.5 47q0 26 -19.5 42t-51.5 16q-44 0 -98 -63q-8 -8 -15 1l-84 99q-8 8 -1 15q86 101 210 101q85 0 149 -53q63 -52 63 -134q0 -89 -65 -152q87 -57 87 -154q0 -98 -70 -162t-171 -64q-102 0 -169 61q-66 61 -71 161q0 10 10 10h130
q11 0 11 -8q1 -32 26.5 -51.5t64.5 -19.5t62.5 22.5t23.5 59.5q0 35 -21 58.5t-54 26.5h-52q-10 0 -10 10v100q0 10 10 10z" />
    <glyph glyph-name="four.pnum" horiz-adv-x="612" 
d="M497 279h58q10 0 10 -10v-110q0 -10 -10 -10h-58v-139q0 -10 -10 -10h-133q-10 0 -10 10v139h-193h-37h-100q-14 0 -8 13l316 523q4 9 15 9h150q10 0 10 -11v-404zM344 279v190l-115 -190h115z" />
    <glyph glyph-name="five.pnum" horiz-adv-x="545" 
d="M446 550h-211l-10 -117q28 11 61 11q102 0 162 -59t60 -160q0 -108 -65 -175q-65 -66 -171 -66q-102 0 -166 58t-69 154q0 10 10 10h130q11 0 11 -10q1 -29 24.5 -46.5t59.5 -17.5q38 0 61.5 25.5t23.5 67.5t-23 66.5t-64 24.5q-36 0 -57 -21h-143q-11 0 -10 10l33 378
q2 11 11 11h342q10 0 10 -11v-123q0 -10 -10 -10z" />
    <glyph glyph-name="six.pnum" horiz-adv-x="543" 
d="M506 225q0 -108 -64 -172q-63 -64 -170 -64t-171 64t-64 171q0 50 16 92q23 61 49 117q28 61 65 136q14 29 33.5 70t21.5 45q4 10 15 10h132q17 0 9 -14l-105 -226h9q100 -3 162 -66q62 -62 62 -163zM271 305q-36 0 -58.5 -22.5t-22.5 -59.5t22.5 -59t58.5 -22
q37 0 59.5 22t22.5 59t-22.5 59.5t-59.5 22.5z" />
    <glyph glyph-name="seven.pnum" horiz-adv-x="492" 
d="M47 694h432q19 0 11 -18l-253 -666q-3 -10 -13 -10h-139q-10 0 -7 10l208 540h-239q-10 0 -10 10v123q0 11 10 11z" />
    <glyph glyph-name="eight.pnum" horiz-adv-x="539" 
d="M481 501q0 -82 -65 -135q86 -57 86 -157q0 -99 -64 -159t-169 -60q-103 0 -168 60q-64 60 -64 159q0 102 85 157q-64 52 -64 135q0 91 58 146q59 56 153 56t153 -56t59 -146zM355 218q0 34 -24 57t-61 23t-61.5 -23t-24.5 -57q0 -33 25 -56.5t61 -23.5t60.5 23.5
t24.5 56.5zM270 435q31 0 49.5 18.5t18.5 49.5q0 33 -19 49q-18 18 -49 18t-50 -18t-19 -49t18.5 -49.5t50.5 -18.5z" />
    <glyph glyph-name="nine.pnum" horiz-adv-x="543" 
d="M467 325l-147 -315q-3 -10 -14 -10h-132q-17 0 -9 14l104 225h-4q-102 1 -166 65q-62 64 -62 165q0 107 63 172q64 64 170 64t171 -65t65 -170q0 -28 -6 -53q-6 -32 -33 -92zM212 410q22 -22 59 -22t59 22q23 23 23 60q0 36 -23 59q-22 22 -59 22t-59 -22t-22 -59
q0 -38 22 -60z" />
    <glyph glyph-name="zero.onum.pnum" horiz-adv-x="543" 
d="M296 496q121 0 192 -70q73 -69 73 -183t-73 -184q-72 -69 -192 -69t-193 69q-73 70 -73 184t73 183q73 70 193 70zM296 145q48 0 77.5 27t29.5 71q0 45 -29.5 71.5t-77.5 26.5q-49 0 -79 -27t-30 -71t30 -71t79 -27z" />
    <glyph glyph-name="one.onum.pnum" horiz-adv-x="463" 
d="M38 399l125 88h146q11 0 11 -11v-357h102q11 0 11 -11v-97q0 -11 -11 -11h-381q-11 0 -11 11v97q0 11 11 11h122v229l-117 -84q-14 -9 -14 8v116q0 6 6 11z" />
    <glyph glyph-name="two.onum.pnum" horiz-adv-x="509" 
d="M468 0h-429q-10 0 -13 9t5 15q8 7 20.5 17.5t33 28t35.5 30.5l108 96l47 42q2 2 10.5 10t16 15t9.5 10q14 14 14 37q-1 36 -61 36t-105 -58q-7 -8 -15 0l-86 99q-7 9 -1 17q36 43 92.5 68.5t123.5 25.5q90 0 145 -41.5t59 -108.5q7 -104 -75 -174q0 -1 -61 -55h127
q11 0 11 -11v-96q0 -12 -11 -12z" />
    <glyph glyph-name="three.onum.pnum" horiz-adv-x="510" 
d="M208 120q-11 0 -11 11v134l67 68h-195q-11 0 -11 11v132q0 11 11 11h365q11 0 11 -11l-1 -144l-95 -98q62 -28 96.5 -77t34.5 -110q0 -95 -61 -153t-161 -58q-96 0 -160 62t-68 161q0 12 11 12h135q11 0 11 -12q2 -31 21.5 -49.5t49.5 -18.5q29 0 47 15.5t18 40.5
q0 37 -26 55t-89 18z" />
    <glyph glyph-name="four.onum.pnum" horiz-adv-x="603" 
d="M339 487h169q11 0 11 -11v-357h43q11 0 11 -11v-96q0 -11 -11 -11h-43v-143q0 -11 -11 -11h-133q-11 0 -11 11v143h-348q-7 0 -10 5.5t1 11.5l315 460q4 9 17 9zM364 119v185l-127 -185h127z" />
    <glyph glyph-name="five.onum.pnum" horiz-adv-x="540" 
d="M286 296q100 0 162 -65t62 -164q0 -104 -67 -167q-65 -64 -175 -64q-101 0 -168 62q-65 62 -70 163q0 11 11 11h135q11 0 11 -11q2 -31 24.5 -50.5t56.5 -19.5q37 0 61 23t24 58q0 38 -21.5 60.5t-57.5 22.5q-42 0 -85 -25h-120q-11 0 -11 11l19 336q2 11 13 11h348
q11 0 11 -11v-128q0 -11 -11 -11h-237l-3 -57q44 15 88 15z" />
    <glyph glyph-name="six.onum.pnum" horiz-adv-x="511" 
d="M261 643h133q18 0 9 -14l-119 -201h4q88 -10 140 -70q53 -61 53 -148q0 -95 -63 -158q-62 -63 -162 -63q-102 0 -164 61q-62 62 -62 161q0 71 39 131l175 291q4 10 17 10zM325 212q0 31 -19 49.5t-50 18.5t-50 -18.5t-19 -49.5q0 -30 19 -48.5t50 -18.5t50 18.5t19 48.5z
" />
    <glyph glyph-name="seven.onum.pnum" horiz-adv-x="498" 
d="M279 337h-248q-11 0 -11 11v128q0 11 11 11h447q8 0 12 -5.5t1 -12.5l-234 -611q-3 -11 -15 -11h-137q-5 0 -8 4t-1 9z" />
    <glyph glyph-name="eight.onum.pnum" horiz-adv-x="537" 
d="M30 207q0 95 75 153q-31 43 -31 103q0 84 56 137q57 54 138 54q82 0 137 -54q57 -52 57 -137q0 -62 -31 -103q76 -60 76 -153q0 -91 -67 -154q-68 -63 -172 -63t-172 63q-66 63 -66 154zM187 216q0 -30 23 -50.5t59 -20.5q35 0 57.5 20.5t22.5 50.5q0 35 -21.5 53
t-59.5 18q-36 0 -58.5 -18.5t-22.5 -52.5zM269 510q-31 3 -44 -22.5t0 -51.5t44 -23q30 -3 42 23t0 51.5t-42 22.5z" />
    <glyph glyph-name="nine.onum.pnum" horiz-adv-x="511" 
d="M250 -154h-133q-18 0 -9 14l119 201h-4q-89 11 -141 70t-52 148q0 94 62 158q63 63 163 63q102 0 163 -61q63 -61 63 -161q0 -71 -39 -131l-175 -291q-4 -10 -17 -10zM186 277q0 -31 19 -49.5t50 -18.5t50 18.5t19 49.5q0 30 -19 48.5t-50 18.5t-50 -18.5t-19 -48.5z" />
    <glyph glyph-name="zero.onum.tnum" 
d="M301 496q119 0 192 -70q73 -69 73 -183t-73 -184q-73 -69 -192 -69t-193 69q-73 70 -73 184t73 183q73 70 193 70zM301 145q48 0 77 27t29 71q0 45 -29 71.5t-77 26.5q-49 0 -79 -27t-30 -71t30 -71t79 -27z" />
    <glyph glyph-name="one.onum.tnum" 
d="M107 399l125 88h146q11 0 11 -11v-357h102q11 0 11 -11v-97q0 -11 -11 -11h-381q-11 0 -11 11v97q0 11 11 11h122v229l-117 -84q-14 -9 -14 8v116q0 6 6 11z" />
    <glyph glyph-name="two.onum.tnum" 
d="M516 0h-429q-10 0 -13 9t5 15q8 7 20.5 17.5t33 28t35.5 30.5l108 96l47 42q2 2 10.5 10t16 15t9.5 10q14 14 14 37q-1 36 -61 36t-105 -58q-7 -8 -15 0l-86 99q-7 9 -1 17q36 43 92.5 68.5t123.5 25.5q90 0 145 -41.5t59 -108.5q7 -104 -75 -174q0 -1 -61 -55h127
q11 0 11 -11v-96q0 -12 -11 -12z" />
    <glyph glyph-name="three.onum.tnum" 
d="M253 120q-11 0 -11 11v134l67 68h-195q-11 0 -11 11v132q0 11 11 11h365q11 0 11 -11l-1 -144l-95 -98q62 -28 96.5 -77t34.5 -110q0 -95 -61 -153t-161 -58q-96 0 -160 62t-68 161q0 12 11 12h135q11 0 11 -12q2 -31 21.5 -49.5t49.5 -18.5q29 0 47 15.5t18 40.5
q0 37 -26 55t-89 18z" />
    <glyph glyph-name="four.onum.tnum" 
d="M351 487h169q11 0 11 -11v-357h43q11 0 11 -11v-96q0 -11 -11 -11h-43v-143q0 -11 -11 -11h-133q-11 0 -11 11v143h-348q-7 0 -10 5.5t1 11.5l315 460q4 9 17 9zM376 119v185l-127 -185h127z" />
    <glyph glyph-name="five.onum.tnum" 
d="M316 296q100 0 162 -65t62 -164q0 -104 -67 -167q-65 -64 -175 -64q-101 0 -168 62q-65 62 -70 163q0 11 11 11h135q11 0 11 -11q2 -31 24.5 -50.5t56.5 -19.5q37 0 61 23t24 58q0 38 -21.5 60.5t-57.5 22.5q-42 0 -85 -25h-120q-11 0 -11 11l19 336q2 11 13 11h348
q11 0 11 -11v-128q0 -11 -11 -11h-237l-3 -57q44 15 88 15z" />
    <glyph glyph-name="six.onum.tnum" 
d="M305 643h133q18 0 9 -14l-119 -201h4q88 -10 140 -70q53 -61 53 -148q0 -95 -63 -158q-62 -63 -162 -63q-102 0 -164 61q-62 62 -62 161q0 71 39 131l175 291q4 10 17 10zM369 212q0 31 -19 49.5t-50 18.5t-50 -18.5t-19 -49.5q0 -30 19 -48.5t50 -18.5t50 18.5t19 48.5z
" />
    <glyph glyph-name="seven.onum.tnum" 
d="M322 337h-248q-11 0 -11 11v128q0 11 11 11h447q8 0 12 -5.5t1 -12.5l-234 -611q-3 -11 -15 -11h-137q-5 0 -8 4t-1 9z" />
    <glyph glyph-name="eight.onum.tnum" 
d="M62 207q0 95 75 153q-31 43 -31 103q0 84 56 137q57 54 138 54q82 0 137 -54q57 -52 57 -137q0 -62 -31 -103q76 -60 76 -153q0 -91 -67 -154q-68 -63 -172 -63t-172 63q-66 63 -66 154zM219 216q0 -30 23 -50.5t59 -20.5q35 0 57.5 20.5t22.5 50.5q0 35 -21.5 53
t-59.5 18q-36 0 -58.5 -18.5t-22.5 -52.5zM301 510q-31 3 -44 -22.5t0 -51.5t44 -23q30 -3 42 23t0 51.5t-42 22.5z" />
    <glyph glyph-name="nine.onum.tnum" 
d="M295 -154h-133q-18 0 -9 14l119 201h-4q-89 11 -141 70t-52 148q0 94 62 158q63 63 163 63q102 0 163 -61q63 -61 63 -161q0 -71 -39 -131l-175 -291q-4 -10 -17 -10zM231 277q0 -31 19 -49.5t50 -18.5t50 18.5t19 49.5q0 30 -19 48.5t-50 18.5t-50 -18.5t-19 -48.5z" />
    </font>
</defs>
</svg>
